<svg width="85" height="98" viewBox="0 0 85 98" fill="none" xmlns="http://www.w3.org/2000/svg">
<path fill-rule="evenodd" clip-rule="evenodd" d="M30.363 6.12564C30.363 4.50102 31.0026 2.94294 32.1412 1.79416C33.2799 0.645378 34.8241 0 36.4344 0L48.5772 0C50.1875 0 51.7318 0.645378 52.8704 1.79416C54.009 2.94294 54.6486 4.50102 54.6486 6.12564C54.6486 7.75025 54.009 9.30833 52.8704 10.4571C51.7318 11.6059 50.1875 12.2513 48.5772 12.2513V12.6801C54.666 13.5682 60.4911 15.7794 65.6501 19.161L71.1629 13.5989C71.5798 13.1475 72.0825 12.7855 72.6411 12.5344C73.1996 12.2833 73.8026 12.1483 74.414 12.1374C75.0254 12.1265 75.6327 12.24 76.1997 12.471C76.7667 12.7021 77.2818 13.046 77.7142 13.4823C78.1466 13.9185 78.4875 14.4382 78.7165 15.0103C78.9455 15.5823 79.058 16.1951 79.0472 16.8119C79.0364 17.4288 78.9026 18.0372 78.6537 18.6007C78.4048 19.1643 78.046 19.6715 77.5986 20.0921L72.7415 24.9926C79.4585 31.8559 83.6859 40.8037 84.7405 50.3902C85.7952 59.9768 83.6155 69.6421 78.5536 77.8245C73.4917 86.0069 65.8434 92.2284 56.8443 95.4839C47.8453 98.7393 38.0212 98.8385 28.9593 95.7655C19.8975 92.6924 12.1272 86.6265 6.90406 78.548C1.68087 70.4695 -0.690159 60.8502 0.174068 51.2443C1.0383 41.6383 5.0873 32.607 11.6669 25.6094C18.2464 18.6118 26.9722 14.0567 36.4344 12.6801V12.2513C34.8241 12.2513 33.2799 11.6059 32.1412 10.4571C31.0026 9.30833 30.363 7.75025 30.363 6.12564ZM75.8986 55.1307C75.8986 64.0661 72.3805 72.6356 66.1181 78.9538C59.8557 85.2721 51.3621 88.8217 42.5058 88.8217C33.6495 88.8217 25.1559 85.2721 18.8935 78.9538C12.6311 72.6356 9.11299 64.0661 9.11299 55.1307C9.11299 46.1953 12.6311 37.6259 18.8935 31.3076C25.1559 24.9893 33.6495 21.4397 42.5058 21.4397C51.3621 21.4397 59.8557 24.9893 66.1181 31.3076C72.3805 37.6259 75.8986 46.1953 75.8986 55.1307ZM47.0594 35.2224C47.0594 34.0039 46.5796 32.8354 45.7257 31.9738C44.8717 31.1122 43.7135 30.6282 42.5058 30.6282C41.2981 30.6282 40.1399 31.1122 39.2859 31.9738C38.432 32.8354 37.9522 34.0039 37.9522 35.2224V57.0297L39.2879 58.3773L52.9729 72.1845C53.3898 72.6359 53.8925 72.9979 54.4511 73.249C55.0097 73.5001 55.6126 73.6351 56.224 73.646C56.8354 73.6569 57.4428 73.5434 58.0098 73.3124C58.5768 73.0813 59.0918 72.7374 59.5242 72.3011C59.9566 71.8648 60.2975 71.3452 60.5265 70.7731C60.7555 70.2011 60.868 69.5883 60.8572 68.9715C60.8464 68.3546 60.7126 67.7462 60.4637 67.1827C60.2149 66.6191 59.856 66.1119 59.4086 65.6913L47.0594 53.2256V35.2224Z" fill="#FF4409"/>
</svg>
