<svg width="86" height="83" viewBox="0 0 86 83" fill="none" xmlns="http://www.w3.org/2000/svg">
<path d="M84.0132 41.0571C84.0132 44.9399 73.5685 47.122 72.4321 50.6243C71.2544 54.256 78.3779 62.1536 76.1803 65.1744C73.9593 68.2262 64.2317 63.8775 61.1798 66.0985C58.159 68.2987 59.3006 78.9039 55.6715 80.0816C52.1692 81.218 46.8731 72.0029 42.9929 72.0029C39.1127 72.0029 33.8166 81.218 30.3143 80.0816C26.6826 78.9039 27.8268 68.2961 24.806 66.0985C21.7541 63.8775 12.0265 68.2262 9.80552 65.1744C7.60527 62.1536 14.7315 54.2534 13.5537 50.6243C12.4173 47.122 1.97266 44.9373 1.97266 41.0571C1.97266 37.1769 12.4173 34.9922 13.5537 31.49C14.7315 27.8583 7.60786 19.9607 9.80552 16.9399C12.0265 13.888 21.7541 18.2367 24.806 16.0158C27.8268 13.8156 26.6852 3.2104 30.3143 2.03262C33.8166 0.896265 39.1127 10.1114 42.9929 10.1114C46.8731 10.1114 52.1692 0.896265 55.6715 2.03262C59.3032 3.2104 58.159 13.8181 61.1798 16.0158C64.2317 18.2367 73.9593 13.888 76.1803 16.9399C78.3805 19.9607 71.2544 27.8609 72.4321 31.49C73.5685 34.9922 84.0132 37.1769 84.0132 41.0571Z" fill="#FAF1E7"/>
<path d="M82.0712 41.0575C82.0712 41.1145 82.0661 41.1714 82.0635 41.2284C82.0635 41.5157 82.1748 40.6563 82.1023 40.9359C82.0738 41.0472 82.048 41.1559 82.0169 41.2646C81.9082 41.6374 82.2783 40.7392 82.0531 41.174C81.9884 41.3009 81.9107 41.4173 81.8331 41.5364C81.6131 41.8729 82.18 41.1352 81.903 41.4484C81.815 41.5494 81.727 41.6503 81.6312 41.7461C81.4112 41.9713 81.1704 42.1706 80.9297 42.3725C80.689 42.5744 81.3465 42.0645 81.0799 42.256C81.0255 42.2949 80.9737 42.3337 80.922 42.3725C80.8029 42.4579 80.6812 42.5434 80.5596 42.6262C80.2567 42.8307 79.9461 43.0248 79.6328 43.2138C79.0168 43.5813 78.3852 43.9256 77.751 44.2647C76.4956 44.9351 75.2168 45.5771 74.0158 46.3459C72.8147 47.1147 71.6499 47.9715 70.9588 49.1907C69.3875 51.9759 71.2202 55.4005 72.4446 57.9425C72.7759 58.6336 73.1176 59.3195 73.4437 60.0107C73.6016 60.3472 73.7569 60.6837 73.9045 61.0254C73.9278 61.0797 73.9511 61.1367 73.9769 61.191C74.1219 61.5224 73.7854 60.7251 73.92 61.0564C73.9951 61.2454 74.0727 61.4344 74.1426 61.6233C74.3652 62.2161 74.5412 62.814 74.6603 63.4353C74.694 63.6165 74.65 63.8443 74.6293 63.1971C74.6293 63.2644 74.6448 63.3317 74.6474 63.399C74.6577 63.5285 74.6603 63.6605 74.6577 63.7899C74.6525 64.0436 74.4998 64.3723 74.6888 63.7019C74.6577 63.8158 74.6448 63.9323 74.6086 64.0462C74.4636 64.5069 74.8493 63.6216 74.65 63.9504C74.5179 64.1704 74.2824 64.318 74.7328 63.8909C74.65 63.9685 74.5723 64.0565 74.4921 64.1394C74.2953 64.3413 74.9451 63.8313 74.7043 63.9789C74.6551 64.0099 74.6059 64.0462 74.5568 64.0747C74.4532 64.1368 74.3419 64.1834 74.2358 64.2403C74.8493 63.8986 74.4998 64.1316 74.2824 64.1963C74.153 64.2351 74.021 64.2662 73.8915 64.2947C73.8216 64.3076 73.7543 64.318 73.6844 64.3335C73.379 64.3956 74.2876 64.274 73.8397 64.3128C72.4549 64.4319 71.0726 64.2817 69.7007 64.1005C69.5557 64.0824 69.183 64.0281 69.8379 64.1187C69.7421 64.1057 69.6489 64.0928 69.5532 64.0798C69.3953 64.0591 69.2348 64.0358 69.0769 64.0125C68.5255 63.9349 67.9716 63.8598 67.4202 63.7847C66.6851 63.6864 65.95 63.5958 65.2122 63.5414C63.8869 63.4431 62.4348 63.4327 61.1819 63.9323C60.4701 64.217 59.8152 64.5975 59.3156 65.1929C58.772 65.84 58.4251 66.5104 58.1042 67.287C57.5891 68.5347 57.3328 69.8807 57.0895 71.2034C56.8306 72.6168 56.6158 74.043 56.2818 75.4434C56.1343 76.0673 55.9531 76.6781 55.7305 77.2813C55.6735 77.434 55.5234 77.6747 55.8159 77.0871C55.7849 77.1492 55.759 77.2165 55.7279 77.2813C55.6709 77.4055 55.6088 77.5272 55.5415 77.6488C55.4898 77.7446 55.4328 77.8378 55.3759 77.931C55.3422 77.9853 55.306 78.0345 55.2697 78.0889C55.0497 78.4228 55.5804 77.7317 55.3862 77.9388C55.306 78.0242 55.2309 78.1148 55.1455 78.195C54.796 78.5238 55.5545 77.9387 55.2309 78.1406C55.1455 78.195 55.0549 78.2416 54.9695 78.2934C54.8219 78.3814 54.6511 78.3296 55.2568 78.1743C55.1843 78.1924 55.117 78.2235 55.0445 78.2442C54.9902 78.2571 54.9332 78.2649 54.8789 78.2804C55.4587 78.1044 55.3733 78.2338 55.1714 78.2364C55.0575 78.2364 54.9436 78.2364 54.8297 78.2313C54.5372 78.2235 55.3991 78.3374 55.1118 78.2675C55.0523 78.252 54.9928 78.2442 54.9332 78.2287C54.8116 78.1976 54.6925 78.1588 54.5734 78.1174C54.4103 78.0656 54.2188 77.918 54.7934 78.2157C54.7339 78.1846 54.6692 78.1614 54.6071 78.1303C54.4802 78.0682 54.3534 78.0009 54.2317 77.931C53.9547 77.7731 53.6855 77.5945 53.4267 77.4081C53.2895 77.3097 52.8495 76.9396 53.393 77.39C53.261 77.2813 53.1264 77.1751 52.9944 77.0664C52.6968 76.8179 52.4042 76.5591 52.1169 76.2976C50.9935 75.2726 49.9322 74.1854 48.8036 73.1655C47.7371 72.2026 46.5956 71.2112 45.2703 70.6262C44.5248 70.2974 43.7612 70.0464 42.9303 70.0645C42.0994 70.0826 41.3383 70.3311 40.5825 70.6805C39.2287 71.307 38.0587 72.3527 36.9689 73.3519C35.8507 74.3769 34.7894 75.4667 33.6582 76.4788C33.4149 76.6963 33.169 76.9111 32.9179 77.1182C32.7859 77.2269 32.2656 77.6152 32.8454 77.1855C32.6927 77.2994 32.5425 77.4133 32.3872 77.522C32.1594 77.6799 31.9265 77.83 31.6832 77.9672C31.5589 78.0345 31.4347 78.0966 31.3078 78.1588C31.1447 78.239 30.9377 78.2416 31.5252 78.0708C31.4424 78.0941 31.3648 78.1329 31.2819 78.1588C31.1629 78.1976 31.0438 78.2235 30.9247 78.2545C30.5313 78.3503 31.5278 78.2157 31.0334 78.2364C30.9377 78.2416 30.8445 78.2313 30.7487 78.2313C30.4614 78.2261 31.3182 78.3477 31.0438 78.2675C30.9713 78.2468 30.8988 78.2287 30.8264 78.2105C30.4588 78.1122 31.3492 78.4797 30.9351 78.252C30.8367 78.1976 30.7487 78.1303 30.6555 78.0708C31.2276 78.428 30.9428 78.2985 30.7901 78.151C30.6296 77.9957 30.3915 77.5789 30.7798 78.1846C30.64 77.9672 30.4924 77.7575 30.3708 77.5272C30.3061 77.4029 30.2517 77.2761 30.1896 77.1492C30.0705 76.9033 30.3164 77.4392 30.3009 77.4133C30.2517 77.3356 30.2258 77.2243 30.1948 77.1363C29.9696 76.5306 29.8013 75.9016 29.6563 75.2726C29.0014 72.433 28.8358 69.4484 27.6502 66.7564C27.0549 65.4051 26.0713 64.4008 24.6812 63.8831C23.4051 63.4094 21.927 63.4431 20.5913 63.5544C19.6905 63.6268 18.7949 63.7511 17.9019 63.8727C17.5369 63.9219 17.1719 63.9737 16.8069 64.0255C16.618 64.0514 16.4264 64.0772 16.2375 64.1057C15.8621 64.1575 16.75 64.0384 16.3747 64.0876C16.2504 64.1031 16.1236 64.1212 15.9993 64.1368C15.2771 64.2274 14.5549 64.3076 13.8275 64.3413C13.5221 64.3568 13.2167 64.362 12.9112 64.3568C12.7533 64.3542 12.598 64.3464 12.4401 64.3361C12.2149 64.3205 11.6247 64.1652 12.365 64.3413C12.1217 64.2817 11.8732 64.2532 11.6325 64.1756C11.5704 64.1575 11.5108 64.1316 11.4513 64.1135C11.1666 64.0255 11.9457 64.3516 11.6843 64.2144C11.56 64.1471 11.4383 64.0824 11.3193 64.0099C10.9905 63.808 11.7412 64.3956 11.3969 64.0591C11.3555 64.0177 11.3193 63.9737 11.2779 63.9349C11.0785 63.7381 11.5807 64.3879 11.4409 64.1445C11.3943 64.0617 11.3452 63.9789 11.296 63.8986C11.151 63.6553 11.4823 64.4241 11.4021 64.1523C11.3814 64.0772 11.3529 64.0073 11.3322 63.9323C11.3167 63.8753 11.3089 63.8158 11.2934 63.7588C11.2209 63.4715 11.3426 64.3335 11.3296 64.0358C11.3245 63.909 11.3115 63.7847 11.3141 63.6579C11.3141 63.5466 11.3245 63.4379 11.3296 63.3292C11.34 63.1557 11.4306 62.9072 11.2908 63.5725C11.3089 63.4793 11.3193 63.3835 11.3374 63.2903C11.4565 62.6639 11.661 62.053 11.8913 61.4576C11.9535 61.2946 12.0234 61.1315 12.0881 60.9684C11.824 61.6389 12.0751 61.0047 12.1424 60.8519C12.2926 60.5103 12.4505 60.1712 12.611 59.8347C12.9526 59.1125 13.3073 58.398 13.6515 57.6784C14.3116 56.2961 15.0027 54.8725 15.3651 53.3763C15.7146 51.9423 15.756 50.384 14.9536 49.0845C14.2029 47.8705 13.007 46.9956 11.8163 46.2501C10.6023 45.4917 9.31835 44.8471 8.05775 44.1715C7.40285 43.8195 6.75054 43.4623 6.11636 43.074C5.85492 42.9135 5.59607 42.7478 5.34239 42.5744C5.21038 42.4838 5.08095 42.3906 4.95152 42.2974C4.8221 42.2043 4.62019 41.992 5.09648 42.4139C5.02141 42.3466 4.93859 42.2897 4.86093 42.225C4.66162 42.0567 4.46747 41.8807 4.28627 41.6917C4.19309 41.596 4.11025 41.4924 4.02224 41.3941C3.82292 41.1688 4.33027 41.8341 4.16979 41.583C4.12578 41.5131 4.07661 41.4484 4.0326 41.3785C3.97048 41.2776 3.92129 41.1688 3.86175 41.0627C3.75562 40.8738 3.9886 41.3682 3.9886 41.3656C3.99637 41.3371 3.942 41.2336 3.93165 41.2025C3.898 41.0938 3.88247 40.9825 3.85399 40.8738C4.0326 41.5545 3.898 41.2077 3.90059 40.9385C3.90059 40.5476 3.77634 41.5364 3.88765 41.0653C3.91094 40.9644 3.95236 40.866 3.98083 40.7676C4.03519 40.5631 3.73233 41.2905 3.86434 41.0446C3.89282 40.9928 3.91611 40.9385 3.94459 40.8867C4.01448 40.7599 4.09472 40.646 4.17238 40.5243C4.33286 40.2758 3.82551 40.9385 4.02483 40.7133C4.06883 40.6641 4.11025 40.6123 4.15166 40.5631C4.24226 40.4622 4.33804 40.3638 4.43382 40.268C4.64349 40.0636 4.87646 39.8875 5.09648 39.6934C4.55548 40.1697 4.99294 39.7762 5.14307 39.6701C5.27509 39.5769 5.40969 39.4837 5.54688 39.3957C5.83162 39.2093 6.11895 39.0281 6.41404 38.8547C7.0327 38.4871 7.66688 38.1429 8.30107 37.8064C9.57979 37.1256 10.8792 36.4707 12.0933 35.6812C13.2141 34.9512 14.4384 34.0504 15.0649 32.8261C15.7741 31.4412 15.6939 29.901 15.2823 28.4333C14.8707 26.9656 14.1589 25.4928 13.4807 24.0872C13.1468 23.3987 12.8077 22.7127 12.4841 22.019C12.3262 21.6825 12.1735 21.346 12.0259 21.0069C11.969 20.8749 11.8447 20.5409 12.0803 21.1389C12.0466 21.0561 12.013 20.9758 11.9794 20.893C11.9043 20.7066 11.8318 20.5202 11.7645 20.3313C11.5497 19.7411 11.4125 19.1509 11.283 18.5374C11.4332 19.257 11.3219 18.8429 11.3115 18.6462C11.3037 18.5167 11.3012 18.3873 11.3063 18.2579C11.3089 18.1957 11.3167 18.1336 11.3193 18.0715C11.3322 17.7738 11.2106 18.6358 11.283 18.3485C11.3167 18.2165 11.3503 18.087 11.3892 17.955C11.4694 17.6832 11.1381 18.452 11.283 18.2087C11.3115 18.1595 11.3348 18.1077 11.3659 18.0586C11.5937 17.6832 11.1226 18.3148 11.2649 18.1725C11.3452 18.0922 11.4358 18.0146 11.5108 17.9317C11.1329 18.3433 11.1355 18.1983 11.3037 18.0948C11.371 18.0534 11.4358 18.0094 11.5057 17.9731C11.56 17.9447 11.6144 17.9188 11.6687 17.8903C11.9276 17.7505 11.151 18.0793 11.4358 17.9913C11.5393 17.9602 11.6403 17.9214 11.7438 17.8903C11.8758 17.8541 12.0078 17.823 12.1398 17.7971C12.2097 17.7842 12.2822 17.779 12.3495 17.7609C11.6791 17.9214 12.0026 17.8049 12.1968 17.7868C13.5791 17.6522 14.9872 17.8385 16.3565 18.0197C16.7319 18.0689 15.844 17.9498 16.2194 18.0016C16.3151 18.0146 16.4083 18.0275 16.5041 18.0404C16.6956 18.0663 16.8846 18.0948 17.0761 18.1207C17.5964 18.1932 18.1167 18.2656 18.637 18.3329C19.3696 18.4287 20.1021 18.5193 20.8398 18.5711C22.3515 18.6772 23.9124 18.6099 25.2999 17.955C26.6873 17.3001 27.3888 16.011 27.9117 14.6883C28.9264 12.1127 29.0506 9.2576 29.7003 6.58366C29.8531 5.94947 30.0472 5.336 30.2724 4.72769C30.3527 4.51285 30.0446 5.23504 30.174 4.95807C30.2051 4.89335 30.231 4.82864 30.2621 4.76652C30.3216 4.64486 30.3837 4.5232 30.451 4.40413C30.5183 4.28506 30.583 4.18151 30.6555 4.07538C30.9428 3.65345 30.3164 4.4533 30.6529 4.08315C30.7176 4.01067 30.7875 3.94596 30.8574 3.87866C31.1318 3.60945 30.3785 4.19964 30.7772 3.94337C30.8704 3.88384 30.9713 3.83983 31.0671 3.78547C30.4795 4.12198 30.7772 3.91749 31.0283 3.84501C31.3026 3.76735 30.4484 3.88901 30.7332 3.88124C30.7798 3.88124 30.8264 3.87607 30.8729 3.87348C30.9791 3.87348 31.0826 3.88642 31.1887 3.88901C30.4743 3.87607 30.8497 3.83724 31.0852 3.89936C31.2302 3.93819 31.3648 3.99773 31.5097 4.04174C30.8315 3.84242 31.2819 3.94337 31.4787 4.04174C31.5848 4.0961 31.6909 4.15563 31.7945 4.21516C32.0844 4.38601 32.3639 4.57497 32.6331 4.77428C32.7004 4.82347 32.7652 4.87265 32.8299 4.92183C32.3096 4.53614 32.5891 4.73546 32.7004 4.82606C32.835 4.93478 32.9696 5.04608 33.1017 5.15739C33.3786 5.39035 33.6478 5.63109 33.9145 5.877C35.0353 6.90464 36.0966 7.99181 37.2278 9.0091C38.4314 10.0911 39.7024 11.1136 41.2218 11.7089C42.674 12.2784 44.1417 12.0351 45.5084 11.3698C46.8752 10.7046 47.9856 9.68729 49.0625 8.69589C50.1393 7.70449 51.2394 6.58107 52.3706 5.57154C52.6346 5.33599 52.9012 5.10562 53.1782 4.88301C53.2429 4.82865 53.3128 4.77687 53.3775 4.7251C52.8857 5.13409 53.1316 4.91407 53.2481 4.82606C53.3775 4.73028 53.507 4.63709 53.639 4.5439C53.8849 4.37565 54.1411 4.21516 54.4052 4.07538C54.5268 4.01067 54.6563 3.9589 54.7779 3.89677C54.1412 4.2281 54.5424 3.99514 54.7417 3.93561C54.8608 3.89937 54.9798 3.87607 55.0989 3.8476C55.3862 3.77771 54.5242 3.89419 54.8167 3.88383C54.8737 3.88383 54.9306 3.87607 54.9902 3.87348C55.2594 3.8683 55.5001 4.0262 54.8685 3.83465C54.9902 3.87089 55.1222 3.90713 55.2464 3.93819C54.6744 3.79323 54.8607 3.75959 55.0808 3.88642C55.3008 4.01326 55.4613 4.2747 55.0083 3.80618C55.0885 3.88901 55.1817 3.9589 55.2594 4.04174C55.3008 4.08574 55.337 4.13233 55.3784 4.17375C55.5726 4.38083 55.0394 3.6897 55.262 4.02362C55.394 4.22552 55.5208 4.42742 55.6295 4.64227C55.6917 4.76652 55.7434 4.89853 55.8082 5.02278C55.4716 4.34459 55.7615 4.92183 55.8263 5.11079C56.0437 5.72686 56.2068 6.36364 56.3517 7.00041C56.6675 8.41115 56.8798 9.84001 57.149 11.2585C57.4182 12.677 57.7521 14.0826 58.3501 15.4131C58.948 16.7436 59.9886 17.7738 61.4097 18.263C62.7117 18.7109 64.2079 18.6539 65.5591 18.5348C66.4469 18.4546 67.3296 18.3329 68.2123 18.2113C68.5773 18.1621 68.9423 18.1103 69.3073 18.0586C69.4807 18.0353 69.6567 18.012 69.8301 17.9861C69.0872 18.0896 69.8897 17.9783 70.0683 17.9576C70.7879 17.867 71.5075 17.7919 72.2323 17.7609C72.561 17.7454 72.8924 17.7428 73.2211 17.7531C73.3764 17.7583 73.5291 17.7661 73.6844 17.7816C73.7336 17.7868 73.7828 17.7919 73.8346 17.7971C74.2824 17.8359 73.3738 17.7143 73.6793 17.7764C73.9459 17.8308 74.2021 17.8903 74.4636 17.9706C74.8545 18.0922 73.9536 17.7143 74.3989 17.9473C74.505 18.0016 74.6008 18.0689 74.7017 18.131C74.9425 18.2812 74.2927 17.7686 74.4895 17.9706C74.5283 18.012 74.5749 18.0482 74.6137 18.0896C74.6526 18.131 74.6862 18.1802 74.7276 18.219C74.3057 17.8178 74.4636 17.8463 74.5594 18.012C74.6836 18.2268 74.7225 18.5348 74.5464 17.9032C74.5801 18.0223 74.6215 18.1414 74.6551 18.263C74.7768 18.7005 74.6241 17.722 74.6422 18.1336C74.6474 18.2605 74.6551 18.3873 74.6525 18.5141C74.65 18.6487 74.6267 18.7808 74.6241 18.9154C74.6474 18.1543 74.6474 18.7367 74.6008 18.962C74.4662 19.5961 74.2513 20.2096 74.0132 20.8127C73.9795 20.8956 73.9459 20.9758 73.9148 21.0587C73.7802 21.39 74.1167 20.5927 73.9718 20.9241C73.9122 21.0638 73.8501 21.2036 73.788 21.3408C73.6223 21.711 73.4489 22.0785 73.2755 22.4461C72.9441 23.1372 72.605 23.8258 72.2737 24.5169C71.0959 26.9864 69.3435 30.4291 71.0416 33.0745C71.8337 34.3067 73.058 35.1894 74.2902 35.9478C75.5223 36.7062 76.8036 37.343 78.0668 38.0238C78.6673 38.3474 79.2653 38.6787 79.8477 39.0359C80.1325 39.2093 80.4146 39.3905 80.689 39.5795C80.7977 39.6546 80.9064 39.7322 81.0125 39.8099C81.142 39.9031 81.3413 40.1153 80.8676 39.6934C80.9245 39.7426 80.9867 39.7866 81.0436 39.8358C81.2636 40.017 81.4785 40.2085 81.6752 40.4156C81.7684 40.5114 81.8512 40.6149 81.9392 40.7133C82.0997 40.8919 81.7373 40.4777 81.7529 40.4725C81.7606 40.4699 81.8538 40.6149 81.8616 40.6253C81.9289 40.7262 81.991 40.8298 82.048 40.9385C82.2732 41.3733 81.903 40.4751 82.0117 40.8479C82.0428 40.9566 82.0686 41.0653 82.0971 41.1766C82.167 41.4562 82.0557 40.5968 82.0583 40.8841C82.0583 40.9411 82.0635 40.998 82.0661 41.055C82.079 42.0697 82.9487 43.0429 84.0075 42.9963C85.0662 42.9498 85.9644 42.1421 85.9488 41.055C85.9074 37.9228 82.677 36.1109 80.2671 34.7985C78.9754 34.0944 77.6552 33.4395 76.3946 32.6785C76.1125 32.5077 75.8355 32.3316 75.5637 32.1479C75.4446 32.0676 75.3282 31.9848 75.2117 31.8994C75.1599 31.8631 75.1107 31.8217 75.059 31.7855C75.6181 32.1763 75.2893 31.9641 75.1625 31.8605C74.9502 31.6845 74.7431 31.5007 74.5542 31.2988C74.4662 31.2056 74.3911 31.1047 74.3031 31.0115C74.7923 31.537 74.4481 31.203 74.3342 31.0115C74.2073 30.7992 74.1815 30.4783 74.3549 31.1228C74.3316 31.0322 74.2901 30.9468 74.2643 30.8562C74.2021 30.6232 74.2436 30.2479 74.2565 30.9571C74.2565 30.8096 74.2332 30.6621 74.2358 30.5119C74.2358 30.3773 74.2513 30.2427 74.2617 30.1081C74.2824 29.7897 74.1685 30.6621 74.228 30.3437C74.241 30.2712 74.2513 30.2013 74.2643 30.1288C74.3264 29.8001 74.4144 29.4739 74.5154 29.1529C74.6086 28.8579 74.7121 28.5679 74.8234 28.278C74.8881 28.1124 74.9528 27.9493 75.0201 27.7862C75.1573 27.4523 74.8182 28.2496 74.9658 27.9182C75.015 27.8069 75.0641 27.693 75.1133 27.5817C75.4213 26.888 75.7553 26.2046 76.0866 25.5238C76.7984 24.0613 77.5336 22.5885 78.0513 21.0457C78.4861 19.7463 78.7864 18.1958 78.292 16.8678C77.0651 13.5623 73.1616 13.7021 70.2572 14.0515C69.3564 14.1602 68.4608 14.2897 67.5626 14.4139C67.3736 14.4398 67.1821 14.4657 66.9931 14.4916C67.7257 14.3906 67.019 14.4864 66.8482 14.5097C66.4806 14.5563 66.1105 14.5977 65.7403 14.6339C65.0336 14.7012 64.3218 14.7478 63.6099 14.722C63.4572 14.7168 63.3019 14.7064 63.1492 14.6935C63.0767 14.6857 63.0016 14.6728 62.9292 14.6702C63.5841 14.7013 63.3356 14.7297 63.1595 14.6987C62.8929 14.6495 62.6393 14.5822 62.3804 14.4993C61.9921 14.3725 62.8903 14.7556 62.4503 14.5201C62.3467 14.4631 62.2536 14.3906 62.15 14.3337C62.7195 14.6547 62.4218 14.5589 62.2484 14.3829C62.0827 14.2172 61.8808 13.8186 62.2484 14.4191C62.1267 14.2198 61.9895 14.0334 61.8808 13.8237C61.8161 13.7021 61.7617 13.5778 61.7022 13.4536C61.5676 13.1688 61.8963 13.9532 61.7876 13.6529C61.754 13.5597 61.7177 13.4691 61.6841 13.3785C61.213 12.0765 60.9723 10.6942 60.7315 9.33525C60.4778 7.90639 60.2552 6.46717 59.8773 5.0642C59.4994 3.66122 58.9791 2.27896 57.9696 1.25132C56.872 0.130487 55.2775 -0.257796 53.7762 0.169309C52.2981 0.591237 51.0427 1.59559 49.9037 2.5844C48.7648 3.57321 47.6595 4.7044 46.5309 5.75534C45.9976 6.25233 45.4541 6.73379 44.8846 7.18937C44.6128 7.40939 45.2858 6.8891 45.0063 7.09359C44.939 7.14278 44.8717 7.19455 44.8044 7.24373C44.6723 7.33951 44.5403 7.43269 44.4031 7.5207C44.1287 7.70189 43.8466 7.87015 43.5515 8.01252C43.4894 8.04359 43.4195 8.06688 43.3599 8.10312C43.9009 7.80544 43.7379 7.95298 43.5696 8.00993C43.4454 8.05135 43.3211 8.09535 43.1917 8.129C43.0908 8.15489 42.9846 8.16783 42.8837 8.19371C43.5722 8.00993 43.1788 8.16525 42.9173 8.15748C42.8578 8.15748 42.7957 8.14971 42.7361 8.14712C42.4385 8.13677 43.3004 8.25326 43.0079 8.18337C42.8837 8.1523 42.7594 8.12901 42.6352 8.09277C42.5109 8.05653 42.3841 7.99699 42.2573 7.95816C42.9562 8.17559 42.4022 8.01511 42.2055 7.91157C41.957 7.77955 41.7163 7.63201 41.4833 7.47411C41.3487 7.38351 41.2141 7.28773 41.0821 7.19196C41.0148 7.14278 40.9475 7.09101 40.8802 7.03924C41.4237 7.43787 41.0536 7.17384 40.9345 7.07548C40.365 6.61472 39.8215 6.12032 39.2856 5.61814C38.1648 4.56462 37.088 3.46191 35.918 2.46015C34.748 1.45839 33.5262 0.487696 32.0611 0.127892C30.596 -0.231912 28.916 0.171896 27.8677 1.37297C26.897 2.48603 26.3793 3.88383 26.0169 5.29716C25.3258 8.00216 25.217 10.8884 24.2205 13.5105C24.1946 13.5778 24.1635 13.6451 24.1402 13.7124C24.3447 13.1015 24.2955 13.3578 24.223 13.5079C24.1635 13.6296 24.1066 13.7539 24.0418 13.8729C23.9797 13.9868 23.915 14.0981 23.8451 14.2068C23.8115 14.2586 23.7752 14.3078 23.7416 14.3596C23.5863 14.6003 24.1247 13.9143 23.8606 14.2017C23.783 14.2871 23.7079 14.3725 23.6225 14.4502C23.594 14.4761 23.5112 14.5252 23.4957 14.5589C23.4957 14.5589 23.9435 14.2508 23.7545 14.357C23.651 14.4139 23.5526 14.4812 23.4491 14.5382C23.2938 14.6236 23.0815 14.6314 23.6898 14.445C23.6096 14.4709 23.5319 14.5045 23.4517 14.5304C23.1902 14.6158 22.921 14.6521 22.6544 14.709C23.3947 14.5485 22.8615 14.6805 22.6544 14.6935C22.4706 14.7064 22.2894 14.7142 22.1056 14.7168C21.4145 14.7271 20.7208 14.6754 20.0322 14.6055C19.6595 14.5667 19.2893 14.5226 18.9192 14.4761C18.826 14.4631 18.7302 14.4502 18.637 14.4398C19.2945 14.5226 18.9192 14.4786 18.7742 14.4579C18.5827 14.432 18.3937 14.4062 18.2021 14.3777C17.2755 14.2483 16.3488 14.1137 15.4195 14.0075C13.9414 13.8393 12.4375 13.7487 10.9698 14.0697C9.40636 14.4113 8.14317 15.4364 7.62288 16.9636C7.16212 18.3148 7.50121 19.8835 7.95679 21.1907C8.49779 22.7386 9.23811 24.2141 9.95254 25.6869C10.2839 26.3677 10.6126 27.0485 10.9155 27.7422C10.9517 27.825 10.988 27.9105 11.0242 27.9933C10.7602 27.4083 10.9129 27.7293 10.9672 27.8613C11.0345 28.0244 11.0993 28.1874 11.1614 28.3505C11.2882 28.687 11.4073 29.0287 11.5082 29.3756C11.5937 29.6681 11.6584 29.9632 11.7153 30.2634C11.8007 30.7086 11.6739 29.7276 11.6998 30.1676C11.7101 30.323 11.7205 30.4783 11.7179 30.6336C11.7127 30.8743 11.5755 31.2522 11.7516 30.5559C11.7231 30.6724 11.7076 30.7915 11.6739 30.908C11.6584 30.9623 11.6377 31.0141 11.6195 31.0659C11.5367 31.3325 11.8655 30.5611 11.7283 30.8044C11.661 30.9209 11.6014 31.04 11.5264 31.1539C11.252 31.5654 11.8422 30.7992 11.5704 31.1021C11.4979 31.1823 11.428 31.2626 11.3529 31.3402C11.1407 31.5577 10.9103 31.7518 10.6773 31.946C10.4314 32.153 11.0993 31.6379 10.8326 31.8243C10.7705 31.8683 10.7084 31.9149 10.6463 31.9589C10.5168 32.0521 10.3874 32.1401 10.2554 32.2281C9.96548 32.4197 9.6704 32.6034 9.37272 32.7795C6.85668 34.2704 4.0093 35.3654 1.82977 37.3663C0.789186 38.3241 -0.0727871 39.6908 0.00486847 41.1585C0.082524 42.6262 0.918619 43.9515 2.04721 44.9144C4.30958 46.8403 7.11294 47.9301 9.62898 49.4625C9.90854 49.6333 10.1855 49.8093 10.4547 49.9957C10.5816 50.0837 10.7058 50.1769 10.8326 50.2675C11.0967 50.4565 10.4288 49.9413 10.6773 50.1458C10.7524 50.208 10.8275 50.2675 10.9025 50.3296C11.1096 50.5056 11.3063 50.692 11.4875 50.8939C11.6221 51.044 11.7904 51.3754 11.4228 50.7904C11.4953 50.9069 11.5807 51.0156 11.6506 51.1346C11.6791 51.1838 11.7024 51.2356 11.7309 51.2848C11.8706 51.5307 11.5393 50.7567 11.6221 51.0233C11.6558 51.1346 11.6946 51.2408 11.7205 51.3547C11.8318 51.8491 11.6972 50.8499 11.7127 51.2641C11.7179 51.4168 11.7257 51.5669 11.7179 51.7171C11.7127 51.8309 11.6946 51.9448 11.6894 52.0587C11.7153 51.3132 11.7205 51.8258 11.6791 52.0406C11.6118 52.3719 11.5212 52.6981 11.4176 53.0217C11.3141 53.3452 11.1976 53.6636 11.0708 53.9794C11.0087 54.1347 10.7343 54.7456 11.0268 54.0933C10.9517 54.2616 10.8818 54.4298 10.8067 54.5981C10.4832 55.3203 10.1337 56.0321 9.78687 56.7466C9.08021 58.1987 8.35026 59.6664 7.85585 61.2092C7.44686 62.4853 7.18542 63.997 7.68759 65.2835C8.29071 66.8262 9.62898 67.7943 11.2468 68.0687C12.7637 68.3276 14.2754 68.2215 15.7948 68.0351C16.7112 67.9238 17.6249 67.7892 18.5387 67.6623C18.7043 67.639 19.3644 67.5562 18.6396 67.6468C18.8286 67.6235 19.0149 67.5976 19.2039 67.5743C19.5999 67.5251 19.9986 67.4811 20.3972 67.4449C21.0702 67.3854 21.7484 67.3465 22.4266 67.3776C22.5793 67.3854 22.7321 67.3983 22.8822 67.4112C23.0582 67.4242 23.3093 67.5174 22.657 67.3776C22.7269 67.3931 22.7968 67.3983 22.8667 67.4112C23.154 67.463 23.4154 67.5588 23.6924 67.6442C23.0272 67.4397 23.418 67.5225 23.6096 67.6364C23.8011 67.7503 23.9616 67.973 23.5008 67.5277C23.5811 67.6054 23.6717 67.6753 23.7493 67.7555C23.7908 67.7969 23.827 67.8409 23.8658 67.8849C24.1273 68.1723 23.5914 67.4863 23.7468 67.727C23.8865 67.9445 24.0237 68.1593 24.1402 68.3923C24.2282 68.5683 24.3732 69.0627 24.1454 68.3742C24.1998 68.5373 24.2696 68.6952 24.3266 68.8582C25.2481 71.5244 25.3594 74.3977 26.1049 77.1104C26.4751 78.4565 27.0135 79.8853 28.0307 80.8845C29.1645 81.995 30.7901 82.3806 32.3018 81.8888C33.7876 81.4074 35.0327 80.4108 36.1898 79.3909C37.3468 78.371 38.3848 77.3046 39.4953 76.2743C39.7671 76.0206 40.0415 75.7722 40.321 75.5288C40.4556 75.4098 40.5928 75.2933 40.73 75.1794C40.8672 75.0655 41.4677 74.6177 40.8802 75.05C41.3901 74.6772 41.9 74.3329 42.4643 74.0482C42.6222 73.968 42.8552 73.9447 42.2573 74.131C42.322 74.1103 42.3841 74.0818 42.4462 74.0586C42.5705 74.0145 42.6947 73.9757 42.8215 73.9447C42.8837 73.9291 42.9458 73.9214 43.0079 73.9058C43.3004 73.8359 42.4385 73.9524 42.7361 73.9421C42.8785 73.9369 43.0157 73.9317 43.1581 73.9369C43.5645 73.9498 42.5653 73.8204 43.07 73.9317C43.1762 73.955 43.2797 73.9835 43.3807 74.0171C43.5852 74.0819 43.9734 74.3278 43.3599 73.9913C43.5075 74.0715 43.6654 74.1336 43.8129 74.2139C44.0847 74.3614 44.3488 74.5297 44.605 74.7083C44.7422 74.8015 44.8743 74.9024 45.0063 75.0008C45.2832 75.2079 44.6102 74.6876 44.8846 74.905C44.9648 74.9697 45.0425 75.0318 45.1227 75.0965C45.7052 75.5728 46.2591 76.0828 46.8079 76.6005C47.9235 77.654 48.9978 78.7541 50.1704 79.7404C51.2731 80.6696 52.557 81.6895 54.0117 81.9846C55.5363 82.2926 57.092 81.8759 58.1249 80.667C60.0326 78.4383 60.2915 75.1716 60.791 72.3993C61.0344 71.0533 61.3139 69.7254 61.785 68.4389C61.8937 68.1386 61.565 68.9255 61.6996 68.6382C61.7307 68.5761 61.7566 68.5114 61.7876 68.4492C61.8394 68.3379 61.8963 68.2292 61.9559 68.1231C62.0154 68.017 62.0724 67.9212 62.1397 67.8228C62.4218 67.4009 61.8006 68.2033 62.1293 67.8332C62.2044 67.7477 62.2872 67.6701 62.37 67.5924C62.6444 67.331 61.8808 67.9186 62.295 67.6597C62.3985 67.595 62.5098 67.551 62.6133 67.4915C62.0982 67.7943 62.1992 67.652 62.3804 67.5924C62.4632 67.5666 62.5435 67.5355 62.6263 67.5122C62.735 67.4811 62.8437 67.4552 62.9525 67.432C63.1595 67.3879 63.6695 67.3854 62.9266 67.4216C63.2605 67.4061 63.5918 67.3646 63.9283 67.3621C64.6246 67.3569 65.3209 67.4112 66.0121 67.4837C66.3848 67.5226 66.7576 67.5691 67.1277 67.6157C67.2727 67.6339 67.6454 67.6882 66.9905 67.5976C67.0863 67.6106 67.1795 67.6235 67.2753 67.6364C67.4979 67.6675 67.7205 67.6986 67.9405 67.7296C68.8336 67.8539 69.7266 67.9833 70.6248 68.0817C73.4567 68.3975 77.399 68.3742 78.3619 65.0065C78.7631 63.6035 78.4189 62.0685 77.9374 60.7329C77.3809 59.1979 76.6457 57.7328 75.9365 56.2651C75.6 55.5739 75.2738 54.8776 74.9632 54.1736C74.8182 53.8422 75.1547 54.6369 75.0175 54.3056C74.9839 54.2227 74.9502 54.1399 74.9166 54.0597C74.8519 53.8992 74.7897 53.7361 74.7302 53.573C74.6163 53.265 74.5128 52.9518 74.4222 52.6334C74.3393 52.3409 74.2824 52.0484 74.2255 51.7507C74.1633 51.4349 74.2772 52.3047 74.2591 51.9863C74.2539 51.919 74.2462 51.8491 74.241 51.7818C74.2306 51.629 74.2306 51.4763 74.2384 51.3236C74.2669 50.8085 74.1271 51.8051 74.2229 51.4116C74.2462 51.3158 74.2694 51.2201 74.2979 51.1243C74.3134 51.0725 74.3419 51.0233 74.3549 50.9716C74.2358 51.51 74.1504 51.4116 74.2513 51.233C74.3186 51.1139 74.3859 51 74.461 50.8861C74.6758 50.5548 74.0908 51.321 74.4248 50.9405C74.5102 50.8421 74.6008 50.7464 74.694 50.6558C74.7923 50.56 74.8933 50.4668 74.9968 50.3762C75.147 50.2442 75.6647 49.9154 75.059 50.3115C75.6051 49.9569 76.1254 49.5738 76.6897 49.245C77.9658 48.4969 79.2938 47.842 80.5854 47.125C82.9073 45.8411 85.91 44.0525 85.9488 41.0446C85.9618 40.0299 85.0454 39.0566 84.0075 39.1032C82.9695 39.1498 82.0816 39.9548 82.0661 41.0446L82.0712 41.0575Z" fill="#FF4409"/>
<path d="M26.1501 23.0801C26.1501 23.0801 24.1491 33.3798 26.8904 34.0683C31.881 35.3186 30.5764 33.2685 35.2539 25.0266" fill="#FAF1E7"/>
<path d="M24.6547 22.6659C24.414 23.9109 24.2431 25.1741 24.1033 26.4348C23.8807 28.446 23.7435 30.5246 24.1318 32.5255C24.3001 33.3901 24.6495 34.3168 25.32 34.9199C26.1612 35.6758 27.4089 35.8181 28.4909 35.932C29.3399 36.02 30.2174 35.8984 30.9733 35.4816C31.7291 35.0649 32.2546 34.3737 32.6739 33.6593C33.233 32.7016 33.6524 31.6636 34.1183 30.6618C34.8819 29.0129 35.7025 27.3951 36.5981 25.8135C36.9993 25.1068 36.7897 24.0844 36.0416 23.6883C35.2935 23.2923 34.3435 23.4916 33.9164 24.2449C33.1321 25.6297 32.4021 27.0456 31.7214 28.4849C31.2684 29.4426 30.849 30.4185 30.3779 31.3659C30.2097 31.705 30.0336 32.0415 29.8266 32.3599C29.7877 32.4194 29.7489 32.4764 29.7075 32.5359C29.5056 32.831 29.9534 32.2434 29.7929 32.4298C29.6997 32.5385 29.6091 32.6446 29.503 32.7404C29.3736 32.8595 29.1484 32.9475 29.6298 32.6524C29.5832 32.6809 29.5392 32.7171 29.4901 32.7482C29.4409 32.7792 29.3917 32.8025 29.3451 32.831C29.0552 32.9915 29.7877 32.6834 29.4668 32.7792C29.3529 32.8129 29.2416 32.8413 29.1251 32.8672C28.8429 32.9293 29.6324 32.8284 29.2752 32.8439C29.195 32.8465 29.1121 32.8543 29.0319 32.8543C28.8662 32.8543 28.7031 32.8465 28.5401 32.831C28.3899 32.8155 28.0586 32.7456 28.6566 32.8517C28.5323 32.831 28.4081 32.8129 28.2838 32.7896C28.0871 32.7533 27.8903 32.7119 27.6936 32.6653C27.5642 32.6368 27.4348 32.6084 27.3053 32.5721C27.2795 32.5644 27.251 32.554 27.2251 32.5488C26.9999 32.4997 27.6263 32.7559 27.4555 32.6498C27.4063 32.6187 27.3494 32.5825 27.2976 32.5566C27.4115 32.6135 27.647 32.8595 27.4425 32.655C27.4011 32.6135 27.3649 32.5618 27.3235 32.523C27.7066 32.8957 27.5072 32.774 27.4063 32.6032C27.3675 32.5385 27.3364 32.4712 27.3027 32.4065C27.1604 32.1399 27.4607 32.8258 27.3597 32.5411C27.2976 32.365 27.2406 32.1864 27.1966 32.0027C27.1526 31.8189 27.1164 31.6325 27.0853 31.4461C27.0206 31.0397 27.1164 31.7309 27.0957 31.5315C27.0827 31.4099 27.0672 31.2856 27.0569 31.164C27.018 30.7084 27.0025 30.2528 27.0025 29.7972C27.0025 28.8395 27.0672 27.8817 27.1604 26.9292C27.2096 26.4425 27.2665 25.9559 27.3286 25.4692C27.3597 25.2182 27.2665 25.9171 27.3027 25.6686C27.3105 25.6168 27.3183 25.565 27.3235 25.5132C27.339 25.3968 27.3571 25.2829 27.3726 25.1664C27.3985 24.9878 27.427 24.8092 27.4555 24.6331C27.515 24.2552 27.5771 23.8747 27.6496 23.4994C27.8049 22.7047 27.427 21.7858 26.565 21.589C25.7962 21.413 24.8204 21.822 24.6547 22.6736V22.6659Z" fill="#FF4409"/>
<path d="M40.6794 25.5469C40.6794 25.5469 38.6784 35.8466 41.4197 36.5351C46.4103 37.7854 45.1057 35.7353 49.7832 27.4934" fill="#FAF1E7"/>
<path d="M39.1801 25.1327C38.9393 26.3777 38.7685 27.6409 38.6287 28.9016C38.4061 30.9128 38.2689 32.9914 38.6572 34.9923C38.8255 35.8569 39.1749 36.7836 39.8453 37.3867C40.6866 38.1426 41.9343 38.2849 43.0163 38.3988C43.8653 38.4868 44.7428 38.3652 45.4986 37.9484C46.2545 37.5317 46.78 36.8405 47.1993 36.1261C47.7584 35.1684 48.1778 34.1304 48.6437 33.1286C49.4073 31.4797 50.2279 29.8619 51.1235 28.2803C51.5247 27.5736 51.3151 26.5512 50.567 26.1551C49.8189 25.7591 48.8689 25.9584 48.4418 26.7117C47.6575 28.0965 46.9275 29.5124 46.2467 30.9517C45.7937 31.9094 45.3744 32.8853 44.9033 33.8327C44.7351 34.1718 44.559 34.5083 44.352 34.8267C44.3131 34.8862 44.2743 34.9432 44.2329 35.0027C44.031 35.2978 44.4788 34.7102 44.3183 34.8966C44.2251 35.0053 44.1345 35.1114 44.0284 35.2072C43.899 35.3263 43.6738 35.4143 44.1552 35.1192C44.1086 35.1477 44.0646 35.1839 44.0154 35.215C43.9663 35.246 43.9171 35.2693 43.8705 35.2978C43.5806 35.4583 44.3131 35.1502 43.9921 35.246C43.8782 35.2797 43.767 35.3081 43.6505 35.334C43.3683 35.3961 44.1578 35.2952 43.8006 35.3107C43.7204 35.3133 43.6375 35.3211 43.5573 35.3211C43.3916 35.3211 43.2285 35.3133 43.0655 35.2978C42.9153 35.2823 42.584 35.2124 43.1819 35.3185C43.0577 35.2978 42.9335 35.2797 42.8092 35.2564C42.6125 35.2201 42.4157 35.1787 42.219 35.1321C42.0896 35.1036 41.9602 35.0752 41.8307 35.0389C41.8049 35.0312 41.7764 35.0208 41.7505 35.0156C41.5253 34.9664 42.1517 35.2227 41.9809 35.1166C41.9317 35.0855 41.8747 35.0493 41.823 35.0234C41.9369 35.0803 42.1724 35.3263 41.9679 35.1218C41.9265 35.0803 41.8903 35.0286 41.8488 34.9898C42.2319 35.3625 42.0326 35.2408 41.9317 35.07C41.8929 35.0053 41.8618 34.938 41.8281 34.8733C41.6858 34.6066 41.986 35.2926 41.8851 35.0079C41.823 34.8318 41.766 34.6532 41.722 34.4695C41.678 34.2857 41.6418 34.0993 41.6107 33.9129C41.546 33.5065 41.6418 34.1977 41.6211 33.9983C41.6081 33.8767 41.5926 33.7524 41.5822 33.6308C41.5434 33.1752 41.5279 32.7196 41.5279 32.264C41.5279 31.3063 41.5926 30.3485 41.6858 29.396C41.7349 28.9093 41.7919 28.4227 41.854 27.936C41.8851 27.685 41.7919 28.3838 41.8281 28.1354C41.8359 28.0836 41.8437 28.0318 41.8488 27.98C41.8644 27.8636 41.8825 27.7497 41.898 27.6332C41.9239 27.4546 41.9524 27.276 41.9809 27.0999C42.0404 26.722 42.1025 26.3415 42.175 25.9662C42.3303 25.1715 41.9524 24.2526 41.0904 24.0558C40.3216 23.8798 39.3457 24.2888 39.1801 25.1404V25.1327Z" fill="#FF4409"/>
<path d="M19.8867 41.0576C19.8867 41.0576 43.0514 55.2505 54.6997 44.6375Z" fill="#FAF1E7"/>
<path d="M19.103 42.3988C19.8925 42.8828 20.7105 43.3203 21.531 43.75C23.6536 44.863 25.8409 45.8596 28.067 46.7501C30.7979 47.8424 33.6116 48.7536 36.4927 49.3567C39.5652 49.9987 42.7646 50.3481 45.8968 49.9883C49.0289 49.6285 52.1998 48.5776 54.7909 46.574C55.1378 46.3074 55.4743 46.0305 55.8004 45.7354C56.4036 45.1892 56.3984 44.0865 55.8004 43.5377C55.1559 42.945 54.2473 42.9553 53.6028 43.5377C53.4656 43.662 53.3258 43.7862 53.1809 43.9053C53.1136 43.9597 53.0488 44.0166 52.9815 44.071C52.9427 44.102 52.9039 44.1331 52.8677 44.1641C52.6735 44.322 53.1265 43.97 52.9789 44.0787C52.6864 44.2936 52.394 44.5084 52.0885 44.7051C51.4802 45.0986 50.8382 45.4455 50.1782 45.7431C50.0979 45.7794 50.0047 45.8363 49.9193 45.857C49.8831 45.8674 50.2791 45.7095 50.1264 45.769C50.0824 45.7871 50.0384 45.8053 49.9944 45.8234C49.8184 45.8933 49.6424 45.9606 49.4663 46.0253C49.1324 46.1444 48.7959 46.2531 48.4568 46.3514C47.7605 46.5508 47.0538 46.7061 46.3394 46.82C46.2462 46.8355 46.1504 46.8484 46.0572 46.864C46.021 46.8691 45.9873 46.8743 45.9511 46.8795C45.7647 46.908 46.3394 46.8303 46.1504 46.8536C45.9615 46.8769 45.7699 46.9002 45.5784 46.9183C45.2186 46.9546 44.8588 46.9804 44.4964 46.9986C43.7535 47.0348 43.0106 47.0348 42.2702 47.0038C41.5299 46.9727 40.7715 46.9106 40.026 46.8226C39.9406 46.8122 39.8552 46.8018 39.7671 46.7915C39.3866 46.7423 40.0312 46.8303 39.8111 46.7992C39.6144 46.7708 39.4177 46.7423 39.2236 46.7138C38.856 46.6569 38.491 46.5948 38.1234 46.5249C35.2476 45.9865 32.4339 45.1219 29.703 44.0761C29.0817 43.838 28.4657 43.5869 27.8496 43.3306C27.6995 43.2685 28.1188 43.4445 28.0748 43.4264C28.036 43.4109 27.9972 43.3928 27.9583 43.3772C27.8807 43.3436 27.8056 43.3125 27.7279 43.2789C27.5778 43.2142 27.4277 43.1494 27.2775 43.0821C27.0058 42.9631 26.734 42.8414 26.4622 42.7172C25.4992 42.2797 24.5467 41.8189 23.6044 41.3349C22.6234 40.8327 21.6734 40.2865 20.7131 39.7455C20.7001 39.7378 20.6872 39.73 20.6742 39.7222C19.9805 39.2977 18.9348 39.5488 18.5491 40.2788C18.1634 41.0087 18.3653 41.951 19.1056 42.4039L19.103 42.3988Z" fill="#FF4409"/>
<path d="M54.042 39.8047C53.9306 41.3267 53.8426 42.9523 54.5985 44.2802C55.3181 45.5408 56.7081 46.3096 58.1344 46.5866C59.5607 46.8636 61.031 46.7109 62.4676 46.5089" fill="#FAF1E7"/>
<path d="M52.4893 39.8047C52.3495 41.7564 52.3366 43.9075 53.579 45.5408C54.9044 47.2855 56.913 48.0957 59.0563 48.2614C60.3376 48.3597 61.6164 48.1811 62.8822 48.0051C63.2394 47.9559 63.638 47.5858 63.8114 47.2907C64.0056 46.9567 64.0884 46.4675 63.9668 46.0948C63.8451 45.722 63.6121 45.357 63.2523 45.1655C62.8563 44.9558 62.4939 44.9481 62.0564 45.0102C61.9736 45.0231 61.8908 45.0335 61.8105 45.0438C62.0176 45.0154 62.0305 45.0128 61.8519 45.0361C61.707 45.0516 61.562 45.0723 61.4171 45.0878C61.1064 45.1215 60.7958 45.1474 60.4852 45.1655C60.1953 45.181 59.9054 45.1888 59.6155 45.181C59.3488 45.1758 59.0046 45.2017 58.7509 45.1267C59.1314 45.2406 58.7069 45.1163 58.6111 45.1008C58.4946 45.0801 58.3807 45.0542 58.2668 45.0283C58.0468 44.9739 57.8268 44.9092 57.6119 44.8316C57.5498 44.8083 57.4903 44.7876 57.4282 44.7617C57.6482 44.8575 57.6819 44.8704 57.5291 44.8031C57.4411 44.7617 57.3531 44.7203 57.2651 44.6763C57.0502 44.565 56.8432 44.4407 56.6438 44.3009C56.328 44.0783 56.838 44.4873 56.6154 44.2776C56.5222 44.1896 56.4238 44.1094 56.3332 44.0162C56.2659 43.9489 56.2038 43.8738 56.1391 43.8065C56.0356 43.6797 56.0563 43.7108 56.2012 43.8971C56.1624 43.8454 56.1261 43.7936 56.0899 43.7418C56.0355 43.6616 55.9864 43.5787 55.9372 43.4959C55.9009 43.4338 55.8673 43.3691 55.8336 43.3044C55.7612 43.149 55.7689 43.1749 55.8569 43.382C55.7327 43.1982 55.6809 42.8772 55.6317 42.6676C55.6032 42.5459 55.5851 42.4217 55.5592 42.2974C55.5411 42.1783 55.5463 42.2275 55.5774 42.4424C55.5696 42.3699 55.5619 42.2974 55.5541 42.2249C55.5308 41.9687 55.5204 41.715 55.5178 41.4587C55.5127 40.9074 55.5515 40.356 55.5903 39.8073C55.6498 38.9945 54.8345 38.2179 54.0372 38.2542C53.1467 38.293 52.5462 38.9375 52.4841 39.8073L52.4893 39.8047Z" fill="#FF4409"/>
<path d="M35.1497 35.9731C33.3145 34.8471 30.8631 33.7367 29.1728 35.0697C27.6353 36.2812 27.9666 38.8878 29.3747 40.2442C30.7829 41.6006 32.8537 41.9863 34.8055 42.1235" fill="#FAF1E7"/>
<path d="M35.9334 34.6327C34.5666 33.7966 33.0886 33.1003 31.4785 32.9346C29.8685 32.769 28.2092 33.486 27.2903 34.8734C26.5034 36.0616 26.4335 37.7079 26.8736 39.0358C27.3602 40.5009 28.3671 41.6631 29.7157 42.4086C31.274 43.2706 33.0524 43.5501 34.8048 43.677C35.6176 43.7365 36.3941 42.9211 36.3579 42.1239C36.3191 41.2334 35.6745 40.6329 34.8048 40.5708C34.5175 40.5501 34.2275 40.5242 33.9428 40.4931C33.8755 40.4853 33.7513 40.4439 33.6891 40.462C33.7176 40.4543 34.0748 40.5216 33.7978 40.475C33.6296 40.4465 33.4613 40.4206 33.2931 40.387C33.1507 40.3585 31.6287 39.9288 31.6364 39.9133C31.652 39.89 31.9471 40.0556 31.7322 39.9521C31.6571 39.9159 31.5821 39.8822 31.507 39.8434C31.3879 39.7839 31.2714 39.7217 31.1575 39.6544C31.0281 39.5794 30.9039 39.4991 30.7796 39.4137C30.7253 39.3775 30.6735 39.3309 30.6191 39.2972L30.777 39.4163C30.7253 39.3749 30.6735 39.3309 30.6243 39.2868C30.5337 39.2066 30.4431 39.1212 30.3603 39.0332C30.3215 38.9918 30.2878 38.9503 30.249 38.9089C30.0833 38.7355 30.324 39.0073 30.3344 39.028C30.2153 38.808 30.0523 38.6138 29.9384 38.386C29.9151 38.342 29.8944 38.2773 29.8659 38.2333C30.0678 38.5414 29.9591 38.4741 29.9125 38.3317C29.8762 38.2256 29.84 38.1194 29.8089 38.0107C29.7753 37.8891 29.752 37.7674 29.7235 37.6431C29.695 37.5189 29.7313 37.3972 29.7416 37.8088C29.7416 37.726 29.7235 37.6431 29.7183 37.5629C29.7054 37.3429 29.7313 37.1306 29.7365 36.9132C29.7209 37.4024 29.7209 37.0607 29.7623 36.8951C29.7934 36.7812 29.8452 36.6725 29.8737 36.5586C29.7805 36.9365 29.7572 36.8071 29.8322 36.6802C29.8581 36.6362 29.8814 36.587 29.9099 36.543C29.9384 36.499 29.9694 36.455 29.9953 36.411C30.0885 36.2402 29.7235 36.7139 29.9202 36.5068C29.9953 36.4291 30.0704 36.3541 30.1454 36.2764C30.2283 36.191 30.3266 36.1988 30.0341 36.3541C30.117 36.3101 30.1946 36.2428 30.2749 36.1962C30.3292 36.1651 30.3862 36.1366 30.4405 36.1056C30.5648 36.0383 30.614 36.1004 30.3266 36.1522C30.4431 36.1314 30.5622 36.0719 30.6787 36.046C30.7097 36.0383 30.8262 36.0305 30.8599 36.0098C30.6657 36.1289 30.5415 36.0434 30.7693 36.0279C30.9091 36.0176 31.0514 36.0176 31.1912 36.0227C31.2714 36.0253 31.3491 36.0357 31.4293 36.0409C31.6261 36.0538 31.0721 35.9761 31.3543 36.0305C31.5174 36.0616 31.6804 36.0952 31.8409 36.1366C32.1723 36.2246 32.4855 36.3722 32.8116 36.468C32.7754 36.4576 32.4829 36.3204 32.7288 36.4369C32.8246 36.4809 32.9203 36.5249 33.0135 36.5689C33.1714 36.644 33.3267 36.7242 33.4795 36.8071C33.7797 36.9675 34.0748 37.1384 34.3647 37.317C35.0584 37.7415 36.1042 37.4904 36.4899 36.7605C36.8756 36.0305 36.6737 35.0883 35.9334 34.6353V34.6327Z" fill="#FF4409"/>
</svg>
