<svg width="329" height="402" viewBox="0 0 329 402" fill="none" xmlns="http://www.w3.org/2000/svg">
<path d="M55.4667 113.089C44.6701 92.6513 40.6396 69.2701 39.5376 46.1895C31.3457 46.1972 23.1538 46.2126 14.9311 46.228C6.69295 47.3069 17.5898 95.0634 19.0617 100.781C26.5446 129.704 46.0418 157.516 72.598 171.935C78.4317 175.102 127.02 191.254 129.571 181.359C133.633 165.638 130.82 164.313 115.623 159.088C109.365 156.938 102.715 155.851 96.6342 153.208C78.8402 145.494 64.4061 130.035 55.4513 113.096L55.4667 113.089Z" fill="#FAF1E7"/>
<path d="M59.459 110.76C58.3878 108.726 57.3783 106.668 56.4304 104.58C56.2455 104.164 56.0528 103.74 55.8679 103.324C55.7523 103.062 55.6367 102.8 55.5288 102.538L55.4594 102.383C55.259 101.913 55.2822 101.96 55.5211 102.538C55.3746 102.507 54.9816 101.228 54.9354 101.104C54.7042 100.519 54.473 99.9329 54.2418 99.3472C52.6389 95.178 51.2594 90.9164 50.0881 86.6085C48.9167 82.3006 47.9534 78.0159 47.1519 73.6618C46.7435 71.45 46.3813 69.2306 46.0576 67.0035C45.9805 66.4871 45.9112 65.9785 45.8418 65.4622C45.8033 65.1771 45.6492 64.3525 45.8418 65.493C45.8033 65.2695 45.7802 65.0306 45.7494 64.8071C45.603 63.6589 45.4642 62.5184 45.3409 61.3701C44.7783 56.3301 44.4007 51.267 44.1541 46.2039C44.0308 43.707 42.1351 41.5801 39.5303 41.5801C34.5366 41.5801 29.5428 41.5955 24.5491 41.6032C22.0522 41.6032 19.5476 41.6032 17.0507 41.6109C15.2166 41.6109 13.5058 41.5493 11.8798 42.4817C8.25779 44.5548 7.5719 49.2171 7.333 52.9778C7.05557 57.3859 7.48712 61.8479 7.99574 66.2174C8.64308 71.7583 9.51392 77.2761 10.5235 82.7707C11.9337 90.4463 13.4134 98.1989 15.6251 105.697C20.1873 121.156 27.8089 135.559 37.7887 148.19C42.6283 154.309 48.0767 159.942 54.1031 164.905C57.2781 167.518 60.5841 169.984 64.0289 172.226C66.2792 173.691 68.5988 175.186 71.034 176.319C74.2553 177.814 77.623 178.993 80.983 180.133C85.5914 181.705 90.2537 183.131 94.9546 184.426C99.9561 185.797 105.004 187.03 110.113 187.924C114.544 188.703 119.207 189.458 123.723 189.088C127.938 188.741 132.492 187.362 133.949 182.892C134.92 179.917 135.452 176.658 135.768 173.56C136.007 171.263 135.937 168.751 135.097 166.578C134.057 163.865 132.346 161.884 129.988 160.212C127.838 158.686 125.279 157.723 122.844 156.783C119.43 155.473 115.962 154.278 112.448 153.284C108.002 152.036 103.486 151.011 99.1777 149.308C98.9619 149.223 98.7308 149.146 98.5227 149.046C99.5399 149.539 98.6152 149.076 98.4148 148.992C98.0449 148.83 97.675 148.66 97.3128 148.491C96.3495 148.044 95.4016 147.574 94.4614 147.081C92.7121 146.163 91.0013 145.177 89.329 144.121C87.6567 143.065 86.1077 141.994 84.551 140.846C84.3275 140.684 82.9635 139.59 84.027 140.461C83.6725 140.168 83.3026 139.898 82.9481 139.605C82.1158 138.935 81.2912 138.249 80.482 137.54C77.5074 134.958 74.7099 132.169 72.1052 129.217C71.4578 128.485 70.8259 127.753 70.2017 127.005C69.5775 126.258 68.7375 125.464 68.2751 124.616C68.7298 125.456 68.6296 125.087 68.437 124.824C68.2829 124.624 68.1287 124.416 67.9746 124.216C67.6971 123.846 67.4274 123.484 67.15 123.106C66.5489 122.281 65.9632 121.449 65.3852 120.609C63.2197 117.449 61.2392 114.159 59.4436 110.776C58.3108 108.633 55.1589 107.801 53.1167 109.119C50.9435 110.521 50.2422 113.157 51.4598 115.446C58.9427 129.549 69.6931 142.125 82.9943 151.026C86.1462 153.138 89.46 155.01 92.9124 156.598C97.2049 158.578 101.651 159.95 106.206 161.176C110.152 162.231 114.028 163.403 117.881 164.774C119.214 165.252 120.54 165.745 121.85 166.277C122.482 166.531 121.287 166.031 121.295 166.046C121.388 166.138 121.619 166.185 121.734 166.239C121.989 166.354 122.243 166.47 122.49 166.585C123.006 166.832 123.515 167.086 124.015 167.371C124.416 167.603 124.817 167.842 125.202 168.111C125.279 168.165 125.364 168.227 125.441 168.281C126.004 168.651 124.516 167.526 124.902 167.857C125.094 168.019 125.295 168.181 125.48 168.35C125.734 168.581 125.996 169.044 126.289 169.213C126.042 169.067 125.503 168.08 125.942 168.789C126.073 169.005 126.212 169.213 126.327 169.444C126.404 169.591 126.466 169.753 126.551 169.907C125.765 168.466 126.204 169.051 126.358 169.529C126.489 169.945 126.566 170.369 126.651 170.793C126.767 171.309 126.505 169.375 126.551 170.069C126.551 170.169 126.574 170.269 126.582 170.362C126.605 170.616 126.62 170.878 126.62 171.132C126.636 171.664 126.62 172.203 126.582 172.735C126.566 173.013 126.535 173.282 126.512 173.56C126.497 173.683 126.481 173.814 126.474 173.937C126.404 174.731 126.643 172.812 126.551 173.398C126.435 174.107 126.327 174.816 126.189 175.525C125.888 177.081 125.472 178.607 125.117 180.149C125.117 180.172 125.01 180.511 125.002 180.511C124.979 180.503 125.657 179.062 125.287 179.771C125.233 179.871 125.148 179.956 125.102 180.048C125.688 178.777 125.942 179.085 125.534 179.455C125.472 179.509 125.279 179.64 125.248 179.717C125.295 179.617 126.481 178.885 125.857 179.232C125.603 179.37 125.349 179.509 125.094 179.648C126.659 178.769 125.88 179.339 125.295 179.517C124.956 179.617 124.609 179.702 124.262 179.771C124.093 179.802 123.923 179.833 123.753 179.856C122.99 179.995 125.202 179.694 124.331 179.779C123.908 179.817 123.484 179.863 123.06 179.887C121.156 179.987 119.245 179.879 117.349 179.694C116.841 179.648 116.332 179.586 115.824 179.524C115.585 179.494 114.575 179.363 115.569 179.494C116.563 179.625 115.346 179.463 115.122 179.424C113.982 179.255 112.849 179.07 111.716 178.862C109.242 178.407 106.784 177.875 104.333 177.297C95.4478 175.186 86.624 172.558 78.0854 169.313C77.4226 169.059 76.7599 168.797 76.0971 168.527C75.0259 168.088 77.3224 169.059 76.3437 168.635C76.1125 168.535 75.8891 168.435 75.6579 168.327C73.2766 167.217 71.0109 165.753 68.8069 164.327C67.2271 163.302 65.6781 162.239 64.1599 161.122C63.7592 160.829 63.3584 160.536 62.9654 160.235C62.8113 160.12 62.6495 159.989 62.4953 159.873C63.4278 160.536 62.9269 160.212 62.7265 160.05C61.9482 159.434 61.1698 158.817 60.3992 158.185C57.4785 155.766 54.6965 153.192 52.0532 150.471C49.4099 147.751 46.8822 144.877 44.5086 141.894C44.3853 141.74 44.262 141.578 44.1387 141.424C44.0771 141.347 43.4374 140.592 43.9461 141.177C44.4547 141.763 43.815 141.008 43.7534 140.931C43.6301 140.769 43.5068 140.607 43.3912 140.453C42.7824 139.652 42.189 138.842 41.611 138.026C40.5013 136.469 39.4301 134.889 38.3897 133.286C36.3475 130.126 34.4595 126.867 32.7178 123.522C31.8393 121.834 30.9993 120.131 30.2056 118.405C29.8279 117.588 29.458 116.771 29.1035 115.947C28.9802 115.654 28.41 114.259 28.9263 115.538C28.7414 115.076 28.541 114.621 28.3561 114.159C24.9344 105.72 22.792 97.0044 20.9579 88.1113C19.9792 83.3487 19.0775 78.5708 18.3069 73.7697C18.0988 72.4981 17.9062 71.2265 17.7212 69.9473C17.6365 69.3462 17.5517 68.7451 17.4669 68.1517C17.7135 69.9242 17.5286 68.5756 17.4746 68.1902C17.4361 67.8589 17.3898 67.5352 17.3513 67.2038C17.0585 64.8302 16.8119 62.449 16.6578 60.0677C16.5268 58.0178 16.4497 55.9602 16.5267 53.9103C16.5575 53.1088 16.8041 52.1532 16.7194 51.3595C16.7425 51.5907 16.4959 52.8237 16.6423 51.9914C16.6732 51.7988 16.704 51.6138 16.7425 51.4212C16.8042 51.0898 16.8812 50.7584 16.9737 50.4347C17.0508 50.1573 17.1509 49.8876 17.2434 49.6179C17.4592 48.9782 16.6115 50.9125 16.966 50.2806C17.0353 50.1496 17.097 50.0109 17.1741 49.8876C17.228 49.7951 17.3205 49.6949 17.359 49.6024C17.4977 49.2788 16.4266 50.7507 16.8812 50.2344C16.9429 50.165 17.0507 50.1034 17.097 50.0186C17.2357 49.8182 15.8948 50.8509 16.4728 50.5118C17.1124 50.1419 15.4093 50.9356 15.7098 50.8123C15.8023 50.7738 15.8948 50.7584 15.9873 50.7353C16.4189 50.612 15.3785 51.2208 15.3014 50.874C15.3014 50.8894 16.1337 50.874 16.0721 50.874C16.7117 50.874 17.359 50.874 17.9987 50.874C20.4339 50.874 22.8691 50.874 25.3043 50.8663C30.0437 50.8663 34.7832 50.8509 39.5226 50.8432L34.8988 46.2193C35.785 64.6145 38.3898 83.21 44.8323 100.542C46.7281 105.643 48.9244 110.637 51.4598 115.454C52.5849 117.596 55.7523 118.42 57.7868 117.11C59.9677 115.708 60.6535 113.08 59.4436 110.783L59.459 110.76Z" fill="#FF4409"/>
<path d="M270.46 251.707C281.049 271.752 283.476 292.836 286.559 314.923C286.728 316.164 286.99 317.551 288.023 318.26C288.786 318.784 289.788 318.792 290.712 318.776C297.571 318.668 304.43 318.56 311.288 318.452C313.084 269.794 299.582 218.015 253.313 192.877C247.487 189.71 198.891 173.557 196.332 183.452C192.271 199.173 195.084 200.498 210.281 205.723C216.538 207.874 223.189 208.96 229.269 211.603C247.063 219.317 261.498 234.777 270.452 251.715L270.46 251.707Z" fill="#FAF1E7"/>
<path d="M266.468 254.042C267.208 255.445 267.917 256.87 268.595 258.312C268.896 258.943 269.181 259.575 269.466 260.215C269.628 260.585 269.79 260.955 269.952 261.332C269.998 261.433 270.221 261.98 269.99 261.417C269.759 260.855 270.044 261.556 270.09 261.664C271.246 264.461 272.287 267.313 273.219 270.187C275.069 275.89 276.487 281.724 277.658 287.596C278.837 293.522 279.754 299.494 280.61 305.475C281.041 308.511 281.457 311.555 281.881 314.591C282.12 316.287 282.328 317.805 283.076 319.369C283.977 321.265 285.881 322.729 287.923 323.145C289.95 323.562 292.084 323.369 294.142 323.338C296.045 323.307 297.957 323.276 299.86 323.246C303.675 323.184 307.482 323.122 311.296 323.068C313.863 323.03 315.828 320.98 315.92 318.444C316.375 305.991 315.774 293.545 314.048 281.207C312.383 269.347 309.539 257.618 305.139 246.475C300.739 235.331 294.473 224.041 286.574 214.37C278.629 204.644 268.819 196.422 257.945 190.156C252.188 186.843 245.707 184.847 239.404 182.874C230.973 180.23 222.365 177.865 213.626 176.539C209.842 175.969 205.919 175.406 202.089 175.753C198.544 176.069 194.691 177.017 192.718 180.3C192.156 181.24 191.886 182.265 191.624 183.305C191.285 184.662 190.977 186.026 190.722 187.397C190.298 189.702 189.898 192.114 190.098 194.464C190.291 196.699 190.792 198.918 192.079 200.806C193.366 202.695 195.022 204.128 196.964 205.276C199.107 206.548 201.48 207.449 203.808 208.32C206.767 209.43 209.757 210.47 212.793 211.349C216.662 212.466 220.6 213.368 224.415 214.663C225.309 214.963 226.195 215.302 227.073 215.649C227.297 215.741 227.883 215.872 226.95 215.595C227.135 215.649 227.335 215.765 227.505 215.842C227.921 216.027 228.337 216.212 228.746 216.412C230.256 217.121 231.743 217.884 233.2 218.701C236.213 220.388 239.103 222.284 241.854 224.357C242.016 224.481 242.178 224.612 242.34 224.727C242.247 224.665 241.5 224.072 242.132 224.565C242.448 224.82 242.771 225.074 243.087 225.328C243.765 225.875 244.428 226.43 245.083 226.993C246.362 228.095 247.611 229.228 248.821 230.399C251.325 232.819 253.691 235.385 255.903 238.067C256.427 238.699 256.936 239.338 257.444 239.978C257.606 240.178 258.015 240.602 257.282 239.77C257.413 239.924 257.537 240.101 257.652 240.255C257.93 240.618 258.207 240.988 258.477 241.357C259.502 242.752 260.496 244.17 261.452 245.611C263.255 248.34 264.927 251.16 266.461 254.058C267.594 256.2 270.745 257.032 272.788 255.715C274.961 254.312 275.662 251.676 274.445 249.388C268.071 237.366 259.294 226.322 248.536 217.93C242.771 213.43 236.622 209.653 229.848 206.871C226.226 205.384 222.442 204.398 218.666 203.38C215.229 202.456 211.845 201.408 208.493 200.221C207.33 199.812 206.166 199.389 205.018 198.934C204.756 198.834 204.501 198.726 204.247 198.626C203.237 198.209 205.087 199.003 204.44 198.703C203.962 198.487 203.484 198.279 203.014 198.048C202.22 197.655 201.442 197.223 200.71 196.714C200.355 196.468 199.847 195.944 201.064 197.007C200.926 196.884 200.779 196.776 200.633 196.653C200.348 196.406 200.093 196.129 199.831 195.859C199.246 195.242 200.24 196.237 200.186 196.344C200.201 196.306 199.924 195.975 199.893 195.928C199.808 195.79 199.461 194.95 199.353 194.927C199.515 194.965 199.878 196.283 199.585 195.427C199.538 195.281 199.492 195.135 199.454 194.98C199.407 194.803 199.361 194.626 199.33 194.449C199.315 194.356 199.3 194.264 199.276 194.171C199.122 193.509 199.384 194.865 199.369 194.903C199.477 194.68 199.284 193.948 199.284 193.686C199.269 193.208 199.284 192.738 199.315 192.26C199.346 191.782 199.4 191.274 199.454 190.78C199.508 190.233 199.284 191.967 199.369 191.42C199.392 191.281 199.407 191.15 199.43 191.012C199.477 190.696 199.531 190.38 199.585 190.064C199.816 188.746 200.109 187.444 200.432 186.141C200.563 185.602 200.725 185.062 200.849 184.523C200.995 183.86 200.61 185.224 200.517 185.278C200.579 185.24 200.656 185.016 200.694 184.954C201.11 184.238 199.677 186.002 200.394 185.363C200.455 185.301 200.533 185.24 200.594 185.178C200.933 184.793 199.438 185.949 200.008 185.633C200.209 185.525 200.402 185.401 200.594 185.286C201.226 184.924 200.047 185.556 199.901 185.563C200.024 185.563 200.186 185.455 200.301 185.409C200.856 185.216 201.427 185.101 201.997 184.993C202.844 184.831 201.465 185.17 201.349 185.07C201.396 185.109 201.758 185.024 201.835 185.016C202.197 184.978 202.559 184.954 202.922 184.931C204.532 184.854 206.143 184.924 207.746 185.055C208.701 185.132 209.657 185.247 210.612 185.363C211.298 185.448 209.241 185.17 210.173 185.301C210.412 185.332 210.651 185.371 210.89 185.401C211.406 185.479 211.923 185.556 212.439 185.648C214.55 185.995 216.647 186.411 218.735 186.873C223.074 187.821 227.374 188.954 231.636 190.187C235.489 191.304 239.319 192.507 243.11 193.809C244.613 194.325 246.116 194.865 247.603 195.427C248.204 195.651 248.798 195.882 249.399 196.129C249.63 196.221 249.869 196.321 250.1 196.414C250.547 196.599 248.736 195.828 249.422 196.129C249.553 196.183 249.684 196.244 249.815 196.298C251.364 196.984 252.82 197.863 254.277 198.726C256.92 200.29 259.494 201.962 261.983 203.758C262.584 204.19 263.185 204.629 263.779 205.076C264.033 205.268 264.295 205.469 264.549 205.662C263.401 204.806 264.642 205.739 264.919 205.962C266.06 206.871 267.185 207.804 268.287 208.767C270.53 210.717 272.68 212.775 274.737 214.917C276.764 217.036 278.698 219.24 280.54 221.521C280.764 221.799 280.98 222.076 281.203 222.354C281.311 222.492 281.419 222.631 281.527 222.77C281.488 222.716 280.833 221.86 281.288 222.461C281.742 223.063 282.189 223.656 282.636 224.265C283.492 225.436 284.324 226.623 285.133 227.833C288.339 232.618 291.16 237.658 293.603 242.868C294.219 244.186 294.812 245.511 295.383 246.852C295.498 247.114 295.676 247.661 295.229 246.482C295.29 246.644 295.367 246.806 295.429 246.968C295.568 247.291 295.699 247.623 295.83 247.946C296.092 248.601 296.354 249.257 296.608 249.919C297.664 252.647 298.619 255.414 299.498 258.211C301.263 263.845 302.673 269.594 303.775 275.397C304.322 278.279 304.792 281.169 305.193 284.074C305.347 285.215 305.062 283.049 305.208 284.19C305.255 284.552 305.301 284.906 305.347 285.268C305.44 286.031 305.532 286.794 305.617 287.557C305.786 289.045 305.933 290.532 306.064 292.019C306.58 297.93 306.834 303.864 306.842 309.798C306.842 312.688 306.796 315.57 306.688 318.46L311.312 313.836C304.769 313.936 298.226 314.044 291.684 314.144C291.314 314.144 290.944 314.16 290.574 314.16C290.366 314.16 289.387 314.06 290.096 314.198C290.805 314.337 290.204 314.229 290.096 314.183C290.088 314.183 290.959 314.599 290.505 314.36C290.004 314.098 291.013 314.815 291.113 314.923C291.637 315.462 291.044 314.568 291.314 315.269C291.584 315.971 291.291 315.108 291.244 314.923C291.183 314.653 291.129 314.383 291.09 314.113C290.975 313.404 290.89 312.688 290.79 311.979C290.374 308.996 289.965 306.014 289.541 303.039C287.892 291.472 285.981 279.889 282.467 268.723C280.371 262.072 277.712 255.568 274.468 249.395C273.342 247.253 270.175 246.428 268.141 247.738C265.96 249.149 265.274 251.769 266.484 254.065L266.468 254.042Z" fill="#FF4409"/>
<path d="M318.173 321.923C323.791 312.192 318.192 298.441 305.667 291.21C293.143 283.979 278.435 286.005 272.817 295.736C267.199 305.467 272.798 319.217 285.323 326.449C297.847 333.68 312.555 331.653 318.173 321.923Z" fill="#FF4409"/>
<path d="M314.179 319.586C313.91 320.041 313.625 320.472 313.324 320.912C313.255 321.012 313.17 321.097 313.108 321.204C313.085 321.251 313.787 320.395 313.463 320.742C313.27 320.942 313.108 321.174 312.923 321.374C312.577 321.759 312.214 322.122 311.837 322.476C311.629 322.661 311.421 322.838 311.213 323.023C310.681 323.501 312.091 322.399 311.297 322.962C310.442 323.563 309.556 324.118 308.615 324.58C308.369 324.703 308.076 324.796 307.837 324.942C307.791 324.973 308.839 324.557 308.377 324.711C308.261 324.749 308.145 324.803 308.03 324.85C307.483 325.058 306.928 325.243 306.373 325.404C305.887 325.543 305.394 325.666 304.893 325.774C304.6 325.836 304.308 325.898 304.007 325.944C303.876 325.967 303.753 325.982 303.622 326.006C302.982 326.121 303.938 325.959 304.076 325.952C302.874 326.052 301.695 326.167 300.485 326.152C299.938 326.152 299.391 326.121 298.844 326.083C298.52 326.06 298.196 326.029 297.88 325.998C297.742 325.982 297.603 325.967 297.464 325.952C296.856 325.89 298.466 326.113 297.857 326.006C296.578 325.782 295.322 325.535 294.066 325.189C293.496 325.027 292.933 324.85 292.378 324.657C292.047 324.541 291.723 324.426 291.399 324.302C291.261 324.249 291.122 324.195 290.976 324.141C290.405 323.925 291.029 324.156 291.245 324.264C290.051 323.655 288.826 323.139 287.654 322.468C286.483 321.798 285.427 321.05 284.34 320.287C283.924 319.995 284.718 320.588 284.703 320.573C284.595 320.48 284.479 320.395 284.364 320.303C284.101 320.095 283.847 319.887 283.593 319.671C283.13 319.278 282.676 318.869 282.237 318.446C281.343 317.59 280.503 316.689 279.717 315.733C279.632 315.633 279.547 315.525 279.462 315.417C279.139 315.032 279.794 315.856 279.77 315.825C279.624 315.61 279.454 315.402 279.293 315.186C278.938 314.685 278.591 314.176 278.268 313.66C277.659 312.681 277.127 311.664 276.634 310.624C276.58 310.516 276.542 310.385 276.48 310.277C276.449 310.223 276.873 311.271 276.703 310.809C276.619 310.577 276.518 310.346 276.434 310.115C276.233 309.583 276.056 309.036 275.894 308.489C275.748 307.988 275.624 307.487 275.517 306.978C275.47 306.747 275.424 306.516 275.378 306.277C275.301 305.853 275.301 304.828 275.37 306.339C275.324 305.329 275.208 304.351 275.247 303.333C275.255 303.102 275.27 302.879 275.285 302.647C275.301 302.416 275.416 301.476 275.301 302.355C275.185 303.233 275.301 302.385 275.339 302.185C275.386 301.923 275.44 301.669 275.501 301.407C275.609 300.929 275.74 300.451 275.894 299.989C275.964 299.773 276.048 299.557 276.118 299.349C276.449 298.401 275.663 300.289 276.087 299.403C276.511 298.517 277.042 297.6 277.628 296.744C278.175 295.943 277.058 297.407 277.559 296.821C277.713 296.644 277.867 296.459 278.029 296.282C278.399 295.866 278.792 295.473 279.208 295.103C279.385 294.941 279.57 294.795 279.747 294.633C280.333 294.109 278.923 295.219 279.562 294.764C280.017 294.44 280.479 294.117 280.957 293.831C281.404 293.562 281.867 293.307 282.344 293.076C282.56 292.968 282.791 292.876 283.007 292.768C283.439 292.544 282.414 293.007 282.468 292.991C282.66 292.93 282.853 292.837 283.046 292.768C284.071 292.383 285.119 292.082 286.19 291.859C286.444 291.805 286.691 291.758 286.945 291.712C287.115 291.681 287.284 291.658 287.454 291.627C287.962 291.535 286.806 291.704 286.868 291.704C287.485 291.651 288.093 291.573 288.71 291.543C289.881 291.481 291.06 291.496 292.239 291.589C292.517 291.612 292.794 291.635 293.072 291.666C293.21 291.681 293.349 291.697 293.488 291.712C294.097 291.774 292.486 291.558 293.095 291.658C293.704 291.758 294.312 291.859 294.914 291.99C296.2 292.267 297.472 292.621 298.713 293.061C298.998 293.161 299.275 293.261 299.553 293.369C299.853 293.485 300.855 293.978 299.707 293.415C300.3 293.708 300.917 293.955 301.51 294.255C302.736 294.864 303.915 295.55 305.055 296.305C305.541 296.629 306.018 296.968 306.489 297.307C307.151 297.785 305.772 296.729 306.581 297.376C306.843 297.584 307.097 297.793 307.352 298.008C308.307 298.825 309.217 299.696 310.064 300.613C310.434 301.014 310.789 301.422 311.135 301.838C311.351 302.093 311.945 302.956 311.166 301.846C311.344 302.1 311.536 302.339 311.713 302.594C312.369 303.511 312.97 304.466 313.501 305.46C313.763 305.946 314.01 306.431 314.241 306.932C314.295 307.048 314.341 307.163 314.395 307.271C314.619 307.711 314.156 306.686 314.172 306.74C314.272 307.048 314.418 307.356 314.534 307.664C314.896 308.651 315.189 309.66 315.405 310.685C315.459 310.955 315.513 311.225 315.559 311.502C315.59 311.703 315.713 312.566 315.598 311.702C315.482 310.839 315.59 311.703 315.605 311.903C315.636 312.211 315.651 312.519 315.667 312.828C315.682 313.29 315.69 313.745 315.667 314.207C315.659 314.477 315.644 314.739 315.621 315.009C315.605 315.224 315.49 316.188 315.605 315.301C315.721 314.415 315.582 315.402 315.544 315.587C315.505 315.81 315.459 316.034 315.405 316.249C315.289 316.766 315.143 317.274 314.973 317.775C314.904 317.991 314.819 318.199 314.742 318.415C314.488 319.147 315.197 317.451 314.858 318.153C314.626 318.638 314.388 319.116 314.126 319.586C312.931 321.69 313.555 324.734 315.782 325.913C318.01 327.092 320.83 326.499 322.109 324.256C327.804 314.223 324.036 302.216 316.684 294.17C308.523 285.246 295.414 280.338 283.47 283.004C277.906 284.245 273.051 287.389 269.698 291.99C266.731 296.066 265.514 301.492 266.107 306.462C267.548 318.453 276.488 328.009 287.354 332.595C297.649 336.941 311.552 336.764 319.489 327.824C320.468 326.722 321.362 325.528 322.109 324.256C323.335 322.168 322.657 319.093 320.452 317.929C318.248 316.766 315.436 317.359 314.126 319.586H314.179Z" fill="#FF4409"/>
<path d="M92.4764 3.62818L17.8949 40.5696C15.4159 41.7976 14.4017 44.8026 15.6296 47.2817L19.1151 54.3186C20.343 56.7976 23.3481 57.8118 25.8271 56.5839L100.409 19.6425C102.888 18.4146 103.902 15.4095 102.674 12.9304L99.1884 5.89355C97.9605 3.41451 94.9554 2.40027 92.4764 3.62818Z" fill="#FF4409"/>
<path d="M57.3016 8.70261C54.0418 7.17674 50.0884 8.32501 47.1831 11.2688C45.48 9.45785 43.4609 7.95511 41.1336 6.86851C29.3736 1.37385 14.4386 8.48684 7.77262 22.7591C1.10659 37.0313 5.2372 53.0452 17.0049 58.5398C28.7648 64.0345 43.6998 56.9215 50.3658 42.6493C52.4389 38.2104 53.4638 33.602 53.5486 29.1862C56.3845 28.2614 59.0509 25.911 60.6076 22.5741C63.2201 16.9793 61.7405 10.7679 57.3093 8.70261H57.3016Z" fill="#FF4409"/>
<path d="M59.6291 4.7107C56.8317 3.46997 54.0111 3.07694 51.0056 3.81676C48.3161 4.47951 45.8578 6.06703 43.9081 7.99363H50.4508C46.2123 3.55475 40.602 1.01165 34.5371 0.464497C29.5202 0.00981987 24.4649 1.3276 19.9874 3.50851C10.1464 8.30959 2.99489 18.4589 0.798568 29.0706C-1.39775 39.6823 0.798544 51.5193 9.10603 58.7787C13.2212 62.3776 18.1687 64.4352 23.6017 64.9284C28.6571 65.3831 33.7588 64.0499 38.267 61.8304C48.5396 56.7596 55.9532 45.8243 57.6486 34.5961C57.9183 32.8005 58.1264 31.0049 58.1649 29.1862L54.7741 33.6482C60.6541 31.6522 65.1854 26.2886 66.195 20.1389C67.2045 13.9892 65.3704 7.51583 59.6368 4.71841C57.4636 3.66264 54.5352 4.05566 53.3099 6.37528C52.2156 8.45601 52.6471 11.5694 54.9667 12.7022C55.3675 12.9026 55.7297 13.1415 56.1073 13.3727C56.562 13.6501 55.2981 12.6329 55.8221 13.1723C55.9917 13.3419 56.1689 13.5037 56.3231 13.6809C56.4464 13.8197 56.9473 14.3745 56.4156 13.7657C55.8838 13.1569 56.3616 13.7272 56.4618 13.8967C56.5928 14.1048 56.7084 14.3206 56.824 14.5363C56.9088 14.6982 57.2555 15.3918 56.8933 14.6597C56.5311 13.9275 56.8625 14.6288 56.9242 14.8138C57.0013 15.0604 57.0706 15.307 57.1322 15.5536C57.1862 15.7617 57.217 15.9774 57.2633 16.1932C57.3866 16.7558 57.1631 15.0604 57.217 15.885C57.2479 16.3859 57.271 16.8791 57.2556 17.38C57.2479 17.6112 57.2247 17.8424 57.2093 18.0736C57.1554 19.0677 57.4405 16.987 57.2247 17.9657C57.1168 18.4435 57.0243 18.9136 56.8856 19.3837C56.8009 19.6688 56.7007 19.9462 56.6082 20.2314C56.3385 21.0328 56.9242 19.5995 56.6699 20.1158C56.4156 20.6321 56.1689 21.133 55.8761 21.6262C55.7451 21.842 55.6064 22.0501 55.46 22.2582C55.0592 22.8438 55.2365 22.42 55.5602 22.158C55.1671 22.4739 54.8511 22.9748 54.4812 23.3293C54.3117 23.4912 54.1268 23.6453 53.9572 23.8071C53.2559 24.4776 54.8203 23.2446 54.0189 23.7686C53.6413 24.0152 53.2714 24.2695 52.8706 24.4853C52.6471 24.6086 52.3774 24.7011 52.1616 24.8321L52.7859 24.5624C52.624 24.624 52.4622 24.678 52.3004 24.7319C50.3198 25.4024 48.9558 27.0592 48.9095 29.1939C48.8941 29.8567 48.8633 30.5271 48.8094 31.1899C48.7785 31.5289 48.7477 31.8603 48.7092 32.1994C48.6938 32.3227 48.6244 32.9007 48.7092 32.261C48.7939 31.5829 48.6861 32.3612 48.6706 32.4922C48.4317 33.9796 48.0849 35.4515 47.6457 36.8926C47.4376 37.5785 47.2064 38.2489 46.9598 38.9194C46.8981 39.0812 46.482 40.0599 46.7286 39.5436C46.9752 39.0273 46.7132 39.5744 46.6747 39.6592C46.5745 39.8827 46.4743 40.1061 46.3742 40.3296C45.8655 41.4239 45.2952 42.4874 44.6787 43.5201C44.0622 44.5527 43.3532 45.5623 42.6288 46.5487C42.3283 46.9571 42.9525 46.1403 42.9294 46.1634C42.8369 46.2636 42.7599 46.3792 42.6674 46.487C42.4978 46.7028 42.3206 46.9109 42.1433 47.119C41.758 47.5659 41.365 48.0052 40.9565 48.4291C40.1859 49.2305 39.3844 49.9935 38.5367 50.7178C38.3364 50.8874 38.136 51.0569 37.9279 51.2188C37.8278 51.3035 37.7198 51.3806 37.6197 51.4654C37.5811 51.4962 38.4443 50.8489 38.0358 51.134C37.5426 51.4808 37.0648 51.843 36.5562 52.1743C35.6699 52.7523 34.7606 53.2841 33.8204 53.7619C33.3812 53.9853 32.8957 54.1549 32.4718 54.4015C32.4179 54.4323 33.4659 54.0008 33.0035 54.178C32.8879 54.2242 32.7724 54.2705 32.6645 54.3167C32.3947 54.4246 32.1327 54.5171 31.863 54.6173C30.9151 54.9564 29.9441 55.2338 28.9577 55.4496C28.4491 55.5574 27.9405 55.6345 27.4318 55.727C26.9232 55.8195 28.1563 55.6422 28.0715 55.6422C27.9559 55.6422 27.8326 55.6731 27.717 55.6808C27.4395 55.7039 27.1698 55.7347 26.8924 55.7501C25.9137 55.8195 24.935 55.8118 23.9563 55.7501C23.7251 55.7347 23.4862 55.7116 23.255 55.6885C23.1471 55.6807 23.0084 55.6808 22.9082 55.6499C22.808 55.6191 24.0564 55.8426 23.5555 55.7347C23.0546 55.6268 22.5537 55.5575 22.0528 55.4419C21.0433 55.203 20.1031 54.8022 19.1167 54.5017C19.055 54.4863 20.1031 54.9564 19.6715 54.7329C19.5636 54.6789 19.448 54.6327 19.3401 54.5864C19.1166 54.4786 18.8855 54.3707 18.662 54.2551C18.1842 54.0085 17.7141 53.7465 17.2594 53.4613C16.8433 53.1993 16.4425 52.9219 16.0418 52.6367C15.9416 52.5674 15.8491 52.4826 15.7489 52.421C15.7027 52.3901 16.5581 53.0914 16.2036 52.7677C15.9956 52.5751 15.7644 52.4055 15.5486 52.2129C14.7548 51.5116 14.0227 50.7487 13.3523 49.9395C13.2752 49.847 13.1981 49.7468 13.1211 49.6544C12.8051 49.2922 13.4987 50.1553 13.4679 50.109C13.3446 49.901 13.175 49.7083 13.0363 49.5157C12.7281 49.0764 12.4429 48.6294 12.1655 48.1747C11.626 47.2731 11.2407 46.3175 10.7475 45.4004C10.7244 45.3542 11.1328 46.3869 10.971 45.9245C10.9325 45.8089 10.8785 45.6856 10.8323 45.57C10.7244 45.2926 10.6242 45.0151 10.5317 44.73C10.3545 44.2059 10.1849 43.6742 10.0385 43.1348C9.75338 42.079 9.55302 41.0155 9.36807 39.9443C9.2833 39.4357 9.44511 40.5762 9.44511 40.5146C9.43741 40.3836 9.41429 40.2526 9.39888 40.1216C9.36805 39.8595 9.34495 39.5898 9.32183 39.3201C9.27559 38.7344 9.24477 38.1564 9.22936 37.5708C9.19853 36.3763 9.23704 35.1818 9.34493 33.995C9.36804 33.7175 9.39891 33.4401 9.42973 33.1627C9.52221 32.2996 9.27559 34.1337 9.4143 33.2783C9.51449 32.6695 9.62237 32.0607 9.74567 31.4596C9.99998 30.2728 10.3083 29.1014 10.6859 27.9455C10.8708 27.3829 11.0712 26.8203 11.287 26.2655C11.3948 25.988 11.5181 25.7106 11.6183 25.4332C11.1713 26.6662 11.6183 25.4563 11.7647 25.1481C12.2734 24.0538 12.8436 22.9903 13.4602 21.9576C14.0767 20.9249 14.724 19.9848 15.4253 19.0369C15.9262 18.3664 14.8473 19.7382 15.379 19.0985C15.5563 18.8905 15.7258 18.6747 15.9031 18.4666C16.3115 17.9811 16.7354 17.511 17.1746 17.0486C17.9453 16.2472 18.7468 15.4842 19.5945 14.7598C19.7948 14.5903 19.9952 14.4208 20.2032 14.2589C20.3034 14.1742 20.4113 14.0971 20.5115 14.0123C20.5501 13.9815 19.6869 14.6288 20.0953 14.3437C20.55 14.02 20.997 13.6886 21.4671 13.3804C22.3456 12.7947 23.2627 12.263 24.2029 11.7852C24.6807 11.5386 25.2047 11.3536 25.6671 11.0916C25.721 11.0608 24.673 11.4923 25.1354 11.3151C25.2509 11.2688 25.3665 11.2226 25.4744 11.1764C25.7442 11.0685 26.0062 10.976 26.2759 10.8758C27.2238 10.5367 28.1948 10.2593 29.1812 10.0435C29.6513 9.94335 30.1214 9.86629 30.5914 9.78152C31.3852 9.6428 29.4971 9.8894 30.3063 9.82004C30.5837 9.79692 30.8535 9.76609 31.1309 9.74297C32.1481 9.66591 33.1654 9.66591 34.1826 9.74297C34.4138 9.75838 34.6527 9.78152 34.8839 9.80464C34.9918 9.81234 35.1305 9.81233 35.2307 9.84316C35.3309 9.87398 34.0824 9.65051 34.5833 9.7584C35.0843 9.86629 35.5852 9.93563 36.0861 10.0512C37.0571 10.2824 37.9742 10.6215 38.9144 10.9452C39.3768 11.107 38.3056 10.6755 38.3672 10.714C38.4674 10.7756 38.5907 10.8142 38.6986 10.8604C39.0377 11.0222 39.369 11.1841 39.7004 11.3536C40.3323 11.685 40.9411 12.0549 41.5268 12.4556C41.6655 12.5481 42.4901 13.1646 41.9815 12.7639C41.4729 12.3632 42.2666 13.0105 42.3976 13.1184C42.9294 13.5808 43.4303 14.0663 43.9158 14.5749C45.6497 16.3936 48.7092 16.3011 50.4585 14.5749C50.682 14.3514 51.26 14.0046 51.3833 13.7272C51.2523 14.0277 50.6512 14.2589 51.2985 13.8043C51.4603 13.6887 51.6299 13.5808 51.7994 13.4806C52.1385 13.2725 52.493 13.1107 52.8321 12.9257C53.3407 12.6483 51.9767 13.2108 52.5238 13.0644C52.7473 13.0028 52.9708 12.9103 53.1943 12.8486C53.3715 12.7947 53.5565 12.7639 53.7337 12.7176C54.3503 12.5558 53.5102 12.7562 53.3176 12.7485C53.6798 12.7562 54.042 12.6868 54.4042 12.7022C54.5814 12.7022 54.7664 12.7485 54.9436 12.7331C53.8956 12.7947 54.1884 12.6175 54.6431 12.7176C55.0207 12.8024 56.2229 13.3033 54.959 12.7408C56.1304 13.2648 57.2324 13.5654 58.5194 13.2032C59.5906 12.9103 60.7542 12.078 61.286 11.0762C62.3495 9.06482 61.9873 5.79732 59.6291 4.74925V4.7107Z" fill="#FF4409"/>
<path d="M215.945 389.889H174.33V264.66H197.835L215.945 389.889Z" fill="#FAF1E7"/>
<path d="M215.945 385.266H174.33L178.954 389.89V280.112C178.954 275.042 179.101 269.94 178.954 264.869C178.954 264.8 178.954 264.73 178.954 264.661L174.33 269.285H197.835L193.373 265.894C193.974 270.063 194.583 274.24 195.184 278.409C196.625 288.358 198.058 298.307 199.499 308.264C201.249 320.355 202.998 332.446 204.747 344.545C206.25 354.941 207.753 365.337 209.256 375.733C209.988 380.781 210.55 385.89 211.452 390.907C211.467 390.976 211.475 391.053 211.483 391.123C211.637 392.186 212.724 393.373 213.61 393.889C214.604 394.467 216.06 394.714 217.17 394.352C218.28 393.99 219.367 393.296 219.937 392.225C220.561 391.054 220.592 389.967 220.399 388.665C219.798 384.495 219.189 380.318 218.588 376.149C217.147 366.2 215.714 356.251 214.273 346.295C212.523 334.203 210.774 322.112 209.025 310.013C207.522 299.617 206.019 289.221 204.516 278.825C204.023 275.396 203.522 271.967 203.029 268.545C202.798 266.919 202.636 265.262 202.32 263.652C202.305 263.582 202.297 263.505 202.289 263.436C202.004 261.463 199.677 260.045 197.827 260.045H174.323C171.826 260.045 169.699 262.164 169.699 264.669V374.446C169.699 379.525 169.599 384.611 169.699 389.689C169.699 389.759 169.699 389.828 169.699 389.898C169.699 392.394 171.818 394.521 174.323 394.521H215.937C218.357 394.521 220.677 392.394 220.561 389.898C220.445 387.401 218.526 385.274 215.937 385.274L215.945 385.266Z" fill="#FF4409"/>
<path d="M248.73 396.443H180.081C176.921 396.443 174.332 393.854 174.332 390.694V375.22C174.332 372.06 176.921 369.471 180.081 369.471H233.255C244.93 369.471 254.478 379.019 254.478 390.694C254.478 393.854 251.889 396.443 248.73 396.443Z" fill="#FF4409"/>
<path d="M248.73 391.818C245.562 391.818 242.403 391.818 239.235 391.818C232.045 391.818 224.855 391.818 217.673 391.818H194.746C190.13 391.818 185.514 391.818 180.898 391.818C180.628 391.818 180.359 391.818 180.081 391.818C179.989 391.818 179.827 391.818 179.804 391.818C179.025 391.818 180.906 392.073 179.865 391.803C179.696 391.757 179.534 391.695 179.372 391.649C178.933 391.533 179.881 391.857 179.889 391.865C179.827 391.764 178.548 391.025 179.295 391.541C180.089 392.096 178.679 390.685 179.233 391.479C179.688 392.127 179.149 391.279 179.025 391.109C178.632 390.531 179.172 391.387 179.172 391.518C179.172 391.402 179.033 391.125 179.01 391.032C178.971 390.886 178.956 390.647 178.887 390.524C178.964 390.678 178.956 391.61 178.956 390.963C178.979 388.196 178.956 385.43 178.956 382.671V375.65C178.956 375.535 178.956 375.419 178.956 375.303C178.956 375.28 178.956 375.257 178.956 375.226C178.956 375.134 178.956 374.98 178.956 374.957C178.956 374.14 178.748 375.797 178.91 375.273C178.987 375.018 179.149 374.664 179.164 374.402C179.118 375.211 178.763 375.196 179.018 374.81C179.11 374.672 179.203 374.517 179.28 374.379C179.557 373.901 179.488 374.541 179.018 374.71C179.102 374.679 179.21 374.494 179.28 374.433C179.449 374.286 179.873 374.017 179.28 374.379C178.602 374.787 179.28 374.394 179.434 374.302C179.519 374.248 179.842 374.117 179.881 374.055C179.835 374.132 178.771 374.425 179.488 374.232C179.696 374.171 180.721 374.001 179.889 374.086C179.056 374.171 179.889 374.109 180.097 374.109C180.482 374.109 180.875 374.109 181.26 374.109H221.187C225.202 374.109 229.217 374.086 233.24 374.109C233.694 374.109 234.141 374.124 234.596 374.155C234.904 374.178 235.22 374.201 235.529 374.232C235.721 374.255 236.346 374.309 235.575 374.232C234.75 374.148 235.552 374.232 235.744 374.271C237.062 374.51 238.365 374.872 239.613 375.35C240.638 375.743 238.704 374.903 239.69 375.381C239.96 375.512 240.23 375.635 240.499 375.766C241.1 376.074 241.694 376.413 242.264 376.775C242.549 376.96 242.834 377.145 243.104 377.338C243.489 377.608 244.052 378.301 243.181 377.377C243.636 377.862 244.222 378.247 244.699 378.71C245.154 379.149 245.593 379.611 246.002 380.089C246.194 380.305 246.356 380.567 246.572 380.767C245.817 380.051 246.102 380.143 246.31 380.436C246.433 380.605 246.557 380.775 246.68 380.952C247.435 382.039 248.052 383.187 248.622 384.382C248.946 385.06 248.475 384.043 248.46 383.981C248.498 384.135 248.591 384.312 248.645 384.459C248.768 384.782 248.884 385.106 248.984 385.43C249.2 386.092 249.377 386.755 249.523 387.433C249.585 387.734 249.647 388.034 249.701 388.335C249.893 389.452 249.593 387.279 249.716 388.412C249.793 389.121 249.839 389.838 249.839 390.554C249.839 390.778 249.801 391.009 249.816 391.225C249.739 390.262 249.97 390.369 249.855 390.77C249.809 390.932 249.755 391.102 249.716 391.271C249.585 391.795 249.431 391.233 249.893 390.878C249.816 390.94 249.685 391.263 249.647 391.325C249.585 391.425 249.493 391.533 249.439 391.641C249.207 392.134 250.117 390.963 249.685 391.294C249.57 391.387 249.408 391.525 249.331 391.649C249.107 391.98 249.716 391.348 249.778 391.325C249.631 391.371 248.984 391.733 248.907 391.849C248.969 391.764 250.009 391.495 249.3 391.672C249.138 391.71 248.961 391.764 248.799 391.811C248.637 391.857 248.159 391.911 248.899 391.818C249.762 391.71 248.868 391.795 248.714 391.795C246.295 391.849 243.975 393.884 244.09 396.419C244.206 398.954 246.125 401.104 248.714 401.043C253.269 400.935 257.076 398.107 258.586 393.83C259.149 392.234 259.156 390.454 259.002 388.79C258.848 387.125 258.594 385.345 258.124 383.688C256.351 377.446 252.205 372.036 246.695 368.622C242.58 366.071 237.764 364.823 232.947 364.823C231.198 364.823 229.456 364.823 227.707 364.823H184.366C182.948 364.823 181.53 364.8 180.12 364.823C176.559 364.877 173.485 366.588 171.442 369.47C170.101 371.366 169.701 373.662 169.701 375.935V386.717C169.701 387.98 169.693 389.237 169.701 390.5C169.724 394.099 171.419 397.244 174.348 399.301C176.567 400.858 179.11 401.043 181.692 401.043C183.827 401.043 185.961 401.043 188.096 401.043C195.355 401.043 202.622 401.043 209.882 401.043C217.827 401.043 225.78 401.043 233.725 401.043C238.496 401.043 243.258 401.043 248.028 401.043H248.714C251.134 401.043 253.454 398.916 253.338 396.419C253.223 393.922 251.304 391.795 248.714 391.795L248.73 391.818Z" fill="#FF4409"/>
<path d="M112.678 389.889H154.292V264.66H130.788L112.678 389.889Z" fill="#FAF1E7"/>
<path d="M112.679 394.514C117.38 394.514 122.08 394.514 126.774 394.514C134.226 394.514 141.678 394.514 149.138 394.514C150.856 394.514 152.575 394.514 154.293 394.514C156.79 394.514 158.917 392.394 158.917 389.89C158.917 385.713 158.917 381.536 158.917 377.359C158.917 367.395 158.917 357.431 158.917 347.474V311.354C158.917 300.943 158.917 290.531 158.917 280.12C158.917 275.042 159.017 269.955 158.917 264.877C158.917 264.807 158.917 264.738 158.917 264.669C158.917 262.172 156.798 260.045 154.293 260.045C147.427 260.045 140.568 260.045 133.702 260.045C132.731 260.045 131.76 260.045 130.789 260.045C128.97 260.045 126.612 261.471 126.327 263.436C125.726 267.605 125.117 271.782 124.516 275.951L120.2 305.805C118.451 317.897 116.701 329.988 114.952 342.087C113.449 352.483 111.947 362.879 110.444 373.275C109.712 378.33 108.972 383.393 108.247 388.449C108.24 388.518 108.224 388.595 108.217 388.665C108.032 389.944 108.001 391.061 108.679 392.225C109.242 393.18 110.344 394.098 111.446 394.352C113.634 394.853 116.763 393.681 117.133 391.123C117.734 386.954 118.343 382.777 118.944 378.608C120.385 368.659 121.818 358.71 123.26 348.753C125.009 336.662 126.758 324.57 128.508 312.471C130.01 302.076 131.513 291.68 133.016 281.284C133.748 276.236 134.634 271.181 135.212 266.11C135.22 266.04 135.235 265.963 135.243 265.894L130.781 269.285C137.647 269.285 144.506 269.285 151.372 269.285C152.343 269.285 153.314 269.285 154.285 269.285L149.662 264.661C149.662 268.838 149.662 273.015 149.662 277.192C149.662 287.156 149.662 297.12 149.662 307.077C149.662 319.114 149.662 331.159 149.662 343.197C149.662 353.608 149.662 364.02 149.662 374.431C149.662 379.502 149.515 384.603 149.662 389.674C149.662 389.743 149.662 389.813 149.662 389.882L154.285 385.258C149.585 385.258 144.884 385.258 140.19 385.258C132.738 385.258 125.286 385.258 117.827 385.258C116.108 385.258 114.389 385.258 112.671 385.258C110.251 385.258 107.932 387.385 108.047 389.882C108.163 392.379 110.082 394.506 112.671 394.506L112.679 394.514Z" fill="#FF4409"/>
<path d="M79.8974 396.441H148.546C151.706 396.441 154.295 393.852 154.295 390.692V375.218C154.295 372.058 151.706 369.469 148.546 369.469H95.3718C83.6966 369.469 74.1484 379.017 74.1484 390.692C74.1484 393.852 76.7378 396.441 79.8974 396.441Z" fill="#FF4409"/>
<path d="M79.8976 401.065C83.2962 401.065 86.687 401.065 90.0855 401.065C97.6454 401.065 105.213 401.065 112.773 401.065C120.541 401.065 128.301 401.065 136.069 401.065C140.169 401.065 144.269 401.096 148.369 401.065C154.257 401.026 158.88 396.341 158.911 390.469C158.934 387.178 158.911 383.88 158.911 380.589C158.911 376.79 159.412 372.528 157.015 369.291C154.95 366.509 151.96 364.899 148.477 364.845C148.014 364.845 147.552 364.845 147.09 364.845H128.903C121.003 364.845 113.104 364.845 105.205 364.845C100.296 364.845 95.1486 364.467 90.3013 365.361C83.8587 366.556 78.2716 370.47 74.403 375.665C72.5689 378.123 71.2202 381.013 70.4188 383.964C69.6173 386.916 68.9237 391.039 70.1182 394.098C71.7443 398.244 75.3894 400.965 79.8976 401.073C82.3175 401.126 84.6294 398.907 84.5215 396.449C84.4136 393.99 82.487 391.887 79.8976 391.825C79.8283 391.825 79.4507 391.763 79.3582 391.802C79.4815 391.756 80.4987 392.072 79.8128 391.84C79.6125 391.771 78.6492 391.455 79.389 391.74C80.1288 392.025 79.1116 391.501 78.942 391.416C78.5567 391.216 79.3736 391.717 79.3813 391.748C79.3813 391.725 78.865 391.216 78.8419 391.208C78.8727 391.216 79.3736 392.033 79.1732 391.648C79.0962 391.501 78.996 391.355 78.9035 391.224C78.3409 390.376 79.0961 391.979 78.9035 391.285C78.8573 391.124 78.8187 390.946 78.7648 390.785C78.5336 390.099 78.8495 391.108 78.8033 391.239C78.8804 391.039 78.7802 390.53 78.7802 390.299C78.7956 389.629 78.8418 388.966 78.9112 388.295C78.996 387.471 78.7417 389.367 78.9112 388.349C78.9806 387.964 79.0576 387.579 79.1424 387.193C79.2888 386.561 79.466 385.937 79.6664 385.321C79.7743 384.997 79.8899 384.673 80.0132 384.35C80.0595 384.234 80.1134 384.111 80.1519 383.988C79.6972 385.29 79.9515 384.45 80.098 384.149C80.6528 382.955 81.3156 381.814 82.0862 380.743C82.1633 380.643 82.2327 380.535 82.3097 380.435C82.7413 379.834 82.0939 380.728 82.0477 380.766C82.2866 380.558 82.487 380.227 82.6951 379.988C83.142 379.479 83.6121 378.994 84.0976 378.531C84.3442 378.3 84.5908 378.077 84.8528 377.853C84.9993 377.73 85.8315 377.09 85.1688 377.576C84.506 378.061 85.3615 377.437 85.5156 377.329C85.8238 377.113 86.1475 376.898 86.4635 376.697C87.0029 376.358 87.5578 376.042 88.1203 375.757C88.4209 375.603 88.7369 375.464 89.0451 375.318C89.3226 375.187 89.8157 375.071 88.6444 375.48C88.8062 375.426 88.9603 375.349 89.1222 375.295C90.4245 374.801 91.7655 374.462 93.1295 374.216C93.9387 374.069 92.0429 374.331 93.0833 374.216C93.4378 374.177 93.7923 374.146 94.1467 374.131C94.5552 374.108 94.9636 374.1 95.372 374.092C95.7265 374.092 96.081 374.092 96.4278 374.092H102.786C110.13 374.092 117.482 374.092 124.826 374.092C131.476 374.092 138.127 374.092 144.77 374.092C146.018 374.092 147.267 374.069 148.508 374.092C148.508 374.092 148.523 374.092 148.531 374.092C148.623 374.092 148.962 374.092 148.8 374.092C149.247 374.092 149.201 374.354 148.361 374.023C148.623 374.131 148.962 374.185 149.24 374.262C149.779 374.416 148.431 373.738 148.839 374.1C148.97 374.216 149.24 374.339 149.386 374.424C149.864 374.701 149.224 374.632 149.055 374.162C149.086 374.247 149.271 374.354 149.332 374.424C150.018 375.21 148.893 373.553 149.402 374.47C149.463 374.578 149.525 374.694 149.594 374.794C149.987 375.364 149.471 374.509 149.448 374.385C149.486 374.601 149.771 375.865 149.687 375.025C149.602 374.185 149.664 375.048 149.664 375.287C149.664 375.426 149.664 375.564 149.664 375.711V377.452C149.664 381.09 149.664 384.735 149.664 388.372C149.664 389.274 149.64 390.183 149.648 391.085C149.648 391.678 149.872 390.076 149.702 390.638C149.656 390.8 149.625 390.977 149.571 391.139C149.278 392.079 150.01 390.461 149.587 391.093C149.494 391.224 149.402 391.386 149.324 391.524C149.055 392.002 149.101 391.378 149.587 391.193C149.517 391.216 149.263 391.532 149.24 391.555C148.847 392.01 149.417 391.378 149.594 391.316C149.448 391.362 148.8 391.725 148.723 391.84C148.785 391.756 149.825 391.486 149.116 391.663C148.955 391.702 148.777 391.756 148.615 391.802C147.883 392.018 149.764 391.756 148.662 391.786C148.608 391.786 148.562 391.786 148.515 391.786C145.171 391.848 141.818 391.786 138.482 391.786C131.253 391.786 124.032 391.786 116.804 391.786C109.174 391.786 101.545 391.786 93.9079 391.786C89.4459 391.786 84.9839 391.786 80.5219 391.786H79.8745C77.4547 391.786 75.1351 393.913 75.2507 396.41C75.3663 398.907 77.2852 401.034 79.8745 401.034L79.8976 401.065Z" fill="#FF4409"/>
<path d="M285.102 173.474C285.102 185.034 254.006 191.53 250.623 201.957C247.117 212.769 268.325 236.281 261.782 245.275C255.17 254.361 226.21 241.414 217.124 248.026C208.13 254.576 211.529 286.15 200.724 289.656C190.298 293.039 174.53 265.604 162.979 265.604C151.427 265.604 135.659 293.039 125.233 289.656C114.421 286.15 117.827 254.569 108.834 248.026C99.7477 241.414 70.7871 254.361 64.175 245.275C57.6246 236.281 78.8402 212.762 75.3338 201.957C71.9507 191.53 40.8555 185.026 40.8555 173.474C40.8555 161.923 71.9507 155.418 75.3338 144.992C78.8402 134.18 57.6323 110.667 64.175 101.674C70.7871 92.5882 99.7477 105.535 108.834 98.9228C117.827 92.3724 114.428 60.7993 125.233 57.2929C135.659 53.9098 151.427 81.3445 162.979 81.3445C174.53 81.3445 190.298 53.9098 200.724 57.2929C211.537 60.7993 208.13 92.3801 217.124 98.9228C226.21 105.535 255.17 92.5882 261.782 101.674C268.333 110.667 247.117 134.187 250.623 144.992C254.006 155.418 285.102 161.923 285.102 173.474Z" fill="#FAF1E7"/>
<path d="M279.322 173.472C279.322 173.642 279.307 173.812 279.299 173.981C279.299 174.836 279.63 172.278 279.415 173.11C279.33 173.442 279.253 173.765 279.16 174.089C278.837 175.199 279.939 172.525 279.268 173.819C279.076 174.197 278.844 174.544 278.613 174.898C277.958 175.9 279.646 173.704 278.821 174.636C278.559 174.937 278.297 175.237 278.012 175.522C277.357 176.193 276.64 176.786 275.924 177.387C275.207 177.988 277.164 176.47 276.371 177.04C276.209 177.156 276.055 177.272 275.901 177.387C275.546 177.642 275.184 177.896 274.822 178.143C273.92 178.751 272.995 179.329 272.063 179.892C270.229 180.986 268.348 182.011 266.46 183.021C262.723 185.017 258.916 186.928 255.34 189.217C251.764 191.505 248.296 194.056 246.239 197.686C241.561 205.978 247.017 216.174 250.662 223.741C251.649 225.799 252.666 227.841 253.637 229.899C254.107 230.9 254.569 231.902 255.008 232.92C255.078 233.081 255.147 233.251 255.224 233.413C255.656 234.399 254.654 232.026 255.055 233.012C255.278 233.575 255.509 234.137 255.717 234.7C256.38 236.464 256.904 238.245 257.259 240.094C257.359 240.634 257.228 241.312 257.166 239.385C257.166 239.586 257.213 239.786 257.22 239.986C257.251 240.372 257.259 240.765 257.251 241.15C257.236 241.905 256.781 242.884 257.344 240.888C257.251 241.227 257.213 241.574 257.105 241.913C256.673 243.285 257.821 240.649 257.228 241.628C256.835 242.283 256.134 242.722 257.475 241.45C257.228 241.682 256.997 241.944 256.758 242.19C256.172 242.791 258.107 241.273 257.39 241.712C257.243 241.805 257.097 241.913 256.951 241.998C256.642 242.183 256.311 242.321 255.995 242.491C257.821 241.474 256.781 242.167 256.134 242.36C255.748 242.475 255.355 242.568 254.97 242.653C254.762 242.691 254.562 242.722 254.353 242.768C253.444 242.953 256.149 242.591 254.816 242.707C250.693 243.061 246.578 242.614 242.493 242.075C242.062 242.021 240.952 241.859 242.902 242.129C242.617 242.09 242.339 242.052 242.054 242.013C241.584 241.951 241.106 241.882 240.636 241.813C238.995 241.581 237.345 241.358 235.704 241.134C233.515 240.842 231.327 240.572 229.13 240.41C225.185 240.117 220.862 240.086 217.132 241.574C215.012 242.421 213.063 243.554 211.575 245.327C209.957 247.253 208.924 249.249 207.969 251.561C206.435 255.276 205.672 259.283 204.948 263.221C204.177 267.429 203.538 271.675 202.543 275.844C202.104 277.701 201.565 279.52 200.902 281.316C200.732 281.77 200.286 282.487 201.156 280.738C201.064 280.923 200.987 281.123 200.894 281.316C200.725 281.686 200.54 282.048 200.339 282.41C200.185 282.695 200.016 282.972 199.846 283.25C199.746 283.412 199.638 283.558 199.53 283.72C198.875 284.714 200.455 282.657 199.877 283.273C199.638 283.527 199.415 283.797 199.16 284.036C198.12 285.015 200.378 283.273 199.415 283.874C199.16 284.036 198.891 284.175 198.636 284.329C198.197 284.591 197.688 284.437 199.492 283.974C199.276 284.028 199.076 284.121 198.86 284.182C198.698 284.221 198.528 284.244 198.367 284.29C200.093 283.766 199.838 284.152 199.237 284.159C198.898 284.159 198.559 284.159 198.22 284.144C197.349 284.121 199.916 284.46 199.06 284.252C198.883 284.206 198.706 284.182 198.528 284.136C198.166 284.044 197.812 283.928 197.457 283.805C196.972 283.651 196.401 283.211 198.112 284.098C197.935 284.005 197.742 283.936 197.557 283.843C197.18 283.658 196.802 283.458 196.44 283.25C195.615 282.78 194.814 282.248 194.043 281.693C193.635 281.4 192.325 280.298 193.943 281.639C193.55 281.316 193.149 281 192.756 280.676C191.87 279.936 190.999 279.166 190.144 278.387C186.799 275.335 183.64 272.099 180.28 269.062C177.105 266.196 173.706 263.244 169.76 261.503C167.541 260.524 165.268 259.776 162.794 259.83C160.32 259.884 158.054 260.624 155.804 261.664C151.774 263.529 148.29 266.643 145.046 269.617C141.717 272.669 138.557 275.913 135.19 278.927C134.465 279.574 133.733 280.214 132.986 280.83C132.593 281.154 131.044 282.31 132.77 281.03C132.315 281.37 131.868 281.709 131.406 282.032C130.728 282.502 130.034 282.949 129.31 283.358C128.94 283.558 128.57 283.743 128.192 283.928C127.707 284.167 127.09 284.175 128.84 283.666C128.593 283.735 128.362 283.851 128.115 283.928C127.761 284.044 127.406 284.121 127.052 284.213C125.88 284.498 128.847 284.098 127.375 284.159C127.09 284.175 126.813 284.144 126.528 284.144C125.672 284.128 128.223 284.491 127.406 284.252C127.19 284.19 126.975 284.136 126.759 284.082C125.665 283.789 128.316 284.884 127.082 284.206C126.79 284.044 126.528 283.843 126.25 283.666C127.953 284.73 127.106 284.344 126.651 283.905C126.173 283.443 125.464 282.202 126.62 284.005C126.204 283.358 125.765 282.734 125.402 282.048C125.21 281.678 125.048 281.3 124.863 280.923C124.509 280.19 125.241 281.786 125.194 281.709C125.048 281.477 124.971 281.146 124.878 280.884C124.208 279.081 123.707 277.208 123.276 275.335C121.326 266.882 120.833 257.996 117.303 249.981C115.531 245.959 112.602 242.969 108.464 241.427C104.665 240.017 100.264 240.117 96.2877 240.449C93.6059 240.664 90.9395 241.034 88.2808 241.397C87.1942 241.543 86.1076 241.697 85.021 241.851C84.4584 241.928 83.8882 242.005 83.3256 242.09C82.2082 242.244 84.8515 241.89 83.7341 242.036C83.3642 242.082 82.9865 242.136 82.6166 242.183C80.4665 242.452 78.3164 242.691 76.151 242.791C75.2416 242.838 74.3323 242.853 73.4229 242.838C72.9528 242.83 72.4904 242.807 72.0203 242.776C71.3499 242.73 69.5928 242.267 71.7969 242.791C71.0725 242.614 70.3326 242.529 69.6159 242.298C69.431 242.244 69.2537 242.167 69.0765 242.113C68.2288 241.851 70.5484 242.822 69.7701 242.414C69.4002 242.213 69.038 242.021 68.6835 241.805C67.7047 241.204 69.9396 242.953 68.9147 241.951C68.7914 241.828 68.6835 241.697 68.5602 241.581C67.9668 240.996 69.4618 242.93 69.0457 242.206C68.907 241.959 68.7605 241.712 68.6141 241.474C68.1826 240.749 69.169 243.038 68.9301 242.229C68.8684 242.005 68.7837 241.797 68.722 241.574C68.6758 241.404 68.6527 241.227 68.6064 241.057C68.3906 240.202 68.7528 242.768 68.7143 241.882C68.6989 241.504 68.6604 241.135 68.6681 240.757C68.6681 240.426 68.6989 240.102 68.7143 239.778C68.7451 239.262 69.0148 238.522 68.5987 240.503C68.6526 240.225 68.6835 239.94 68.7374 239.663C69.0919 237.798 69.7007 235.979 70.3866 234.206C70.5715 233.721 70.7796 233.235 70.9723 232.75C70.1862 234.746 70.9338 232.858 71.1341 232.403C71.5811 231.386 72.0512 230.376 72.529 229.375C73.5462 227.225 74.602 225.098 75.6269 222.955C77.592 218.84 79.6497 214.601 80.7285 210.147C81.7689 205.878 81.8922 201.239 79.5033 197.37C77.2684 193.756 73.7081 191.151 70.1631 188.931C66.5488 186.673 62.7264 184.755 58.9734 182.743C57.0237 181.695 55.0817 180.632 53.1936 179.476C52.4153 178.998 51.6447 178.505 50.8894 177.988C50.4964 177.719 50.1111 177.441 49.7258 177.164C49.3404 176.886 48.7393 176.254 50.1573 177.511C49.9338 177.31 49.6873 177.141 49.4561 176.948C48.8627 176.447 48.2847 175.923 47.7452 175.361C47.4678 175.075 47.2212 174.767 46.9592 174.474C46.3658 173.804 47.8762 175.784 47.3984 175.037C47.2674 174.829 47.121 174.636 46.99 174.428C46.8051 174.127 46.6586 173.804 46.4814 173.488C46.1654 172.925 46.859 174.397 46.859 174.389C46.8821 174.305 46.7203 173.996 46.6894 173.904C46.5893 173.58 46.543 173.249 46.4583 172.925C46.99 174.952 46.5893 173.919 46.597 173.118C46.597 171.954 46.2271 174.898 46.5585 173.496C46.6278 173.195 46.7511 172.902 46.8359 172.609C46.9977 172.001 46.096 174.166 46.4891 173.434C46.5738 173.28 46.6432 173.118 46.728 172.964C46.936 172.586 47.1749 172.247 47.4061 171.885C47.8839 171.145 46.3735 173.118 46.9669 172.447C47.0979 172.301 47.2212 172.147 47.3445 172.001C47.6142 171.7 47.8994 171.407 48.1845 171.122C48.8087 170.513 49.5023 169.989 50.1573 169.411C48.5467 170.829 49.8491 169.658 50.296 169.342C50.6891 169.064 51.0898 168.787 51.4982 168.525C52.3459 167.97 53.2014 167.431 54.0799 166.914C55.9217 165.82 57.8098 164.795 59.6978 163.793C63.5048 161.766 67.3734 159.817 70.9877 157.466C74.3246 155.293 77.9697 152.611 79.8346 148.966C81.9462 144.843 81.7073 140.258 80.4819 135.888C79.2566 131.519 77.1374 127.134 75.1183 122.949C74.1242 120.899 73.1146 118.857 72.1513 116.792C71.6812 115.79 71.2266 114.788 70.7873 113.779C70.6178 113.386 70.2479 112.392 70.9491 114.172C70.849 113.925 70.7488 113.686 70.6486 113.44C70.4251 112.885 70.2093 112.33 70.009 111.767C69.3694 110.01 68.9609 108.253 68.5756 106.427C69.0226 108.569 68.6912 107.336 68.6604 106.751C68.6372 106.365 68.6295 105.98 68.6449 105.595C68.6526 105.41 68.6758 105.225 68.6835 105.04C68.722 104.153 68.3598 106.72 68.5756 105.864C68.6758 105.471 68.776 105.086 68.8915 104.693C69.1304 103.884 68.144 106.173 68.5756 105.448C68.6604 105.302 68.7297 105.148 68.8222 105.001C69.5004 103.884 68.0978 105.764 68.5217 105.34C68.7606 105.101 69.0303 104.87 69.2538 104.624C68.1286 105.849 68.1363 105.417 68.6372 105.109C68.8376 104.986 69.0303 104.855 69.2383 104.747C69.4002 104.662 69.562 104.585 69.7239 104.5C70.4945 104.084 68.1826 105.063 69.0303 104.801C69.3385 104.708 69.6391 104.593 69.9473 104.5C70.3403 104.392 70.7334 104.3 71.1264 104.223C71.3345 104.184 71.5503 104.169 71.7506 104.115C69.7547 104.593 70.718 104.246 71.2959 104.192C75.4111 103.791 79.6034 104.346 83.6801 104.886C84.7975 105.032 82.1543 104.678 83.2717 104.832C83.5568 104.87 83.8342 104.909 84.1194 104.947C84.6896 105.024 85.2522 105.109 85.8225 105.186C87.3715 105.402 88.9204 105.618 90.4694 105.818C92.6503 106.103 94.8313 106.373 97.0276 106.527C101.528 106.843 106.175 106.643 110.306 104.693C114.436 102.743 116.525 98.9054 118.081 94.9675C121.102 87.2996 121.472 78.7995 123.407 70.8388C123.861 68.9507 124.439 67.1243 125.11 65.3133C125.349 64.6737 124.431 66.8237 124.817 65.9992C124.909 65.8065 124.986 65.6138 125.079 65.4289C125.256 65.0667 125.441 64.7045 125.641 64.35C125.842 63.9955 126.034 63.6872 126.25 63.3713C127.106 62.1151 125.241 64.4964 126.242 63.3944C126.435 63.1786 126.643 62.986 126.851 62.7856C127.668 61.9841 125.426 63.7412 126.612 62.9783C126.89 62.801 127.19 62.67 127.476 62.5082C125.726 63.51 126.612 62.9012 127.36 62.6854C128.177 62.4542 125.634 62.8164 126.481 62.7933C126.62 62.7933 126.759 62.7779 126.898 62.7702C127.214 62.7702 127.522 62.8087 127.838 62.8164C125.711 62.7779 126.828 62.6623 127.529 62.8472C127.961 62.9628 128.362 63.1401 128.793 63.2711C126.774 62.6777 128.115 62.9783 128.701 63.2711C129.017 63.4329 129.333 63.6102 129.641 63.7874C130.504 64.296 131.336 64.8586 132.138 65.452C132.338 65.5984 132.531 65.7449 132.724 65.8913C131.175 64.743 132.007 65.3364 132.338 65.6061C132.739 65.9298 133.14 66.2612 133.533 66.5926C134.357 67.2861 135.159 68.0028 135.953 68.7349C139.289 71.7944 142.449 75.031 145.817 78.0596C149.4 81.2809 153.184 84.325 157.708 86.0974C162.031 87.7928 166.4 87.0684 170.469 85.0879C174.538 83.1073 177.844 80.0787 181.05 77.1272C184.256 74.1756 187.531 70.8311 190.899 67.8256C191.685 67.1243 192.479 66.4384 193.303 65.7757C193.496 65.6139 193.704 65.4597 193.897 65.3056C192.433 66.5232 193.165 65.8682 193.512 65.6061C193.897 65.321 194.282 65.0436 194.675 64.7661C195.407 64.2652 196.17 63.7874 196.956 63.3713C197.318 63.1786 197.704 63.0245 198.066 62.8395C196.17 63.8259 197.365 63.1324 197.958 62.9551C198.313 62.8473 198.667 62.7779 199.022 62.6931C199.877 62.4851 197.311 62.8318 198.182 62.801C198.351 62.801 198.521 62.7779 198.698 62.7702C199.499 62.7548 200.216 63.2249 198.336 62.6546C198.698 62.7625 199.091 62.8704 199.461 62.9628C197.758 62.5313 198.313 62.4311 198.968 62.8087C199.623 63.1863 200.1 63.9647 198.752 62.5698C198.991 62.8164 199.268 63.0245 199.499 63.2711C199.623 63.4021 199.731 63.5408 199.854 63.6641C200.432 64.2806 198.844 62.223 199.507 63.2172C199.9 63.8183 200.278 64.4193 200.601 65.059C200.786 65.4289 200.941 65.8219 201.133 66.1918C200.131 64.1727 200.994 65.8913 201.187 66.4538C201.834 68.2879 202.32 70.1837 202.752 72.0795C203.692 76.2795 204.324 80.5334 205.125 84.7565C205.927 88.9796 206.921 93.1642 208.701 97.1253C210.481 101.086 213.579 104.153 217.81 105.61C221.686 106.943 226.14 106.774 230.163 106.419C232.806 106.18 235.434 105.818 238.062 105.456C239.149 105.309 240.235 105.155 241.322 105.001C241.838 104.932 242.362 104.862 242.879 104.785C240.667 105.094 243.056 104.762 243.588 104.701C245.73 104.431 247.872 104.207 250.03 104.115C251.009 104.069 251.995 104.061 252.974 104.092C253.436 104.107 253.891 104.13 254.353 104.177C254.5 104.192 254.646 104.207 254.8 104.223C256.134 104.338 253.429 103.976 254.338 104.161C255.132 104.323 255.895 104.5 256.673 104.739C257.837 105.101 255.155 103.976 256.48 104.67C256.796 104.832 257.082 105.032 257.382 105.217C258.099 105.664 256.164 104.138 256.75 104.739C256.866 104.862 257.005 104.97 257.12 105.094C257.236 105.217 257.336 105.363 257.459 105.479C256.203 104.284 256.673 104.369 256.958 104.862C257.328 105.502 257.444 106.419 256.92 104.539C257.02 104.893 257.143 105.248 257.243 105.61C257.606 106.912 257.151 103.999 257.205 105.225C257.22 105.602 257.243 105.98 257.236 106.357C257.228 106.758 257.159 107.151 257.151 107.552C257.22 105.286 257.22 107.02 257.082 107.691C256.681 109.579 256.041 111.405 255.332 113.201C255.232 113.447 255.132 113.686 255.039 113.933C254.639 114.919 255.64 112.546 255.209 113.532C255.032 113.948 254.847 114.364 254.662 114.773C254.169 115.875 253.652 116.969 253.136 118.063C252.149 120.121 251.14 122.171 250.154 124.229C246.647 131.581 241.43 141.83 246.485 149.706C248.843 153.374 252.489 156.002 256.157 158.26C259.825 160.518 263.64 162.414 267.4 164.441C269.188 165.404 270.968 166.39 272.702 167.454C273.55 167.97 274.39 168.51 275.207 169.072C275.531 169.296 275.854 169.527 276.17 169.758C276.556 170.035 277.149 170.667 275.739 169.411C275.908 169.558 276.093 169.689 276.263 169.835C276.918 170.374 277.557 170.945 278.143 171.561C278.42 171.846 278.667 172.155 278.929 172.447C279.407 172.979 278.328 171.746 278.374 171.731C278.397 171.723 278.675 172.155 278.698 172.185C278.898 172.486 279.083 172.794 279.253 173.118C279.923 174.413 278.821 171.738 279.145 172.848C279.237 173.172 279.314 173.496 279.399 173.827C279.607 174.659 279.276 172.101 279.284 172.956C279.284 173.126 279.299 173.295 279.307 173.465C279.345 176.486 281.935 179.383 285.087 179.245C288.238 179.106 290.913 176.701 290.866 173.465C290.743 164.14 281.125 158.746 273.951 154.838C270.105 152.742 266.175 150.793 262.422 148.527C261.582 148.018 260.757 147.494 259.948 146.947C259.594 146.708 259.247 146.462 258.9 146.207C258.746 146.099 258.6 145.976 258.446 145.868C260.11 147.032 259.131 146.4 258.754 146.092C258.122 145.568 257.505 145.02 256.943 144.419C256.681 144.142 256.457 143.841 256.195 143.564C257.652 145.128 256.627 144.134 256.288 143.564C255.91 142.932 255.833 141.976 256.349 143.895C256.28 143.626 256.157 143.371 256.08 143.102C255.895 142.408 256.018 141.291 256.057 143.402C256.057 142.963 255.987 142.524 255.995 142.077C255.995 141.676 256.041 141.275 256.072 140.874C256.134 139.927 255.795 142.524 255.972 141.576C256.01 141.36 256.041 141.152 256.08 140.936C256.265 139.957 256.527 138.986 256.827 138.031C257.105 137.152 257.413 136.289 257.744 135.426C257.937 134.933 258.13 134.447 258.33 133.962C258.738 132.968 257.729 135.341 258.168 134.355C258.315 134.023 258.461 133.684 258.607 133.353C259.524 131.288 260.519 129.253 261.505 127.226C263.624 122.872 265.813 118.487 267.354 113.894C268.649 110.026 269.543 105.41 268.071 101.456C264.418 91.6152 252.797 92.0313 244.15 93.0717C241.468 93.3954 238.802 93.7807 236.128 94.1506C235.565 94.2276 234.995 94.3047 234.432 94.3818C236.613 94.0812 234.51 94.3664 234.001 94.4357C232.907 94.5744 231.805 94.6977 230.703 94.8056C228.599 95.006 226.48 95.1447 224.36 95.0676C223.906 95.0522 223.443 95.0214 222.988 94.9829C222.773 94.9598 222.549 94.9212 222.333 94.9135C224.283 95.006 223.543 95.0908 223.019 94.9983C222.226 94.8519 221.47 94.6515 220.7 94.4049C219.544 94.0273 222.218 95.1678 220.908 94.4665C220.599 94.297 220.322 94.0812 220.014 93.9117C221.709 94.8673 220.823 94.5821 220.307 94.0581C219.813 93.5649 219.212 92.3781 220.307 94.166C219.944 93.5726 219.536 93.0177 219.212 92.3935C219.02 92.0313 218.858 91.6614 218.681 91.2915C218.28 90.4438 219.259 92.7788 218.935 91.8849C218.835 91.6075 218.727 91.3378 218.627 91.068C217.224 87.1917 216.507 83.0765 215.791 79.0307C215.036 74.7767 214.373 70.492 213.248 66.3151C212.122 62.1383 210.574 58.0231 207.568 54.9636C204.3 51.6268 199.553 50.4708 195.084 51.7423C190.683 52.9985 186.946 55.9886 183.555 58.9324C180.164 61.8763 176.873 65.2439 173.513 68.3727C171.926 69.8524 170.308 71.2857 168.612 72.6421C167.803 73.2971 169.807 71.7481 168.974 72.3569C168.774 72.5033 168.574 72.6575 168.373 72.8039C167.98 73.089 167.587 73.3665 167.179 73.6285C166.362 74.1679 165.522 74.6689 164.643 75.0927C164.459 75.1852 164.25 75.2545 164.073 75.3624C165.684 74.4762 165.198 74.9155 164.697 75.085C164.327 75.2083 163.958 75.3393 163.572 75.4395C163.272 75.5165 162.956 75.5551 162.655 75.6321C164.705 75.085 163.534 75.5474 162.755 75.5243C162.578 75.5243 162.393 75.5011 162.216 75.4934C161.33 75.4626 163.896 75.8094 163.025 75.6013C162.655 75.5089 162.285 75.4395 161.915 75.3316C161.545 75.2237 161.168 75.0464 160.79 74.9309C162.871 75.5782 161.222 75.1004 160.636 74.7921C159.896 74.3991 159.18 73.9599 158.486 73.4898C158.085 73.22 157.685 72.9349 157.292 72.6498C157.091 72.5033 156.891 72.3492 156.69 72.1951C158.309 73.3819 157.207 72.5958 156.852 72.303C155.157 70.9313 153.539 69.4593 151.943 67.9643C148.606 64.8278 145.401 61.5449 141.917 58.5625C138.434 55.5801 134.797 52.6902 130.435 51.619C126.073 50.5478 121.072 51.75 117.95 55.3258C115.061 58.6396 113.519 62.801 112.44 67.0087C110.383 75.0619 110.059 83.6545 107.092 91.4611C107.015 91.6614 106.923 91.8618 106.853 92.0622C107.462 90.2435 107.316 91.0064 107.1 91.4534C106.923 91.8155 106.753 92.1855 106.56 92.54C106.375 92.879 106.183 93.2104 105.975 93.5341C105.874 93.6882 105.767 93.8346 105.666 93.9888C105.204 94.7055 106.807 92.6633 106.021 93.5187C105.79 93.773 105.566 94.0273 105.312 94.2585C105.227 94.3355 104.981 94.482 104.934 94.5821C104.934 94.5821 106.268 93.6651 105.705 93.981C105.397 94.1506 105.104 94.351 104.796 94.5205C104.333 94.7748 103.701 94.7979 105.512 94.2431C105.273 94.3201 105.042 94.4203 104.803 94.4974C104.025 94.7517 103.224 94.8596 102.43 95.0291C104.634 94.5513 103.046 94.9444 102.43 94.9829C101.883 95.0214 101.343 95.0445 100.796 95.0522C98.7384 95.0831 96.6731 94.9289 94.6232 94.7209C93.5135 94.6053 92.4115 94.4743 91.3094 94.3356C91.032 94.297 90.7469 94.2585 90.4694 94.2277C92.4269 94.4743 91.3094 94.3433 90.8779 94.2816C90.3076 94.2045 89.745 94.1275 89.1748 94.0427C86.4159 93.6574 83.657 93.2567 80.8904 92.9407C76.4901 92.4398 72.0126 92.1701 67.6431 93.1256C62.9885 94.1429 59.2277 97.1946 57.6788 101.741C56.307 105.764 57.3165 110.434 58.6729 114.326C60.2835 118.934 62.4875 123.327 64.6145 127.712C65.6009 129.739 66.5796 131.765 67.4813 133.831C67.5892 134.077 67.6971 134.332 67.805 134.578C67.0189 132.837 67.4736 133.792 67.6354 134.185C67.8358 134.671 68.0284 135.156 68.2134 135.642C68.591 136.644 68.9455 137.661 69.2461 138.694C69.5004 139.564 69.693 140.443 69.8626 141.337C70.1169 142.662 69.7393 139.742 69.8163 141.052C69.8471 141.514 69.878 141.976 69.8703 142.439C69.8549 143.156 69.4464 144.281 69.9705 142.208C69.8857 142.554 69.8395 142.909 69.7393 143.256C69.693 143.418 69.6314 143.572 69.5774 143.726C69.3308 144.52 70.3095 142.223 69.9011 142.947C69.7007 143.294 69.5235 143.649 69.3 143.988C68.4831 145.213 70.2402 142.932 69.431 143.834C69.2152 144.073 69.0071 144.311 68.7836 144.543C68.1517 145.19 67.4659 145.768 66.7723 146.346C66.0402 146.962 68.0285 145.429 67.2347 145.984C67.0497 146.115 66.8648 146.253 66.6798 146.384C66.2945 146.662 65.9092 146.924 65.5161 147.186C64.653 147.756 63.7745 148.303 62.8883 148.827C55.3977 153.266 46.9206 156.526 40.4319 162.483C37.3339 165.334 34.7677 169.403 34.9989 173.773C35.2301 178.143 37.7192 182.088 41.0792 184.955C47.8146 190.689 56.1606 193.933 63.6512 198.495C64.4835 199.004 65.3081 199.528 66.1096 200.083C66.4872 200.345 66.8571 200.622 67.2347 200.892C68.0208 201.454 66.0325 199.921 66.7723 200.53C66.9958 200.715 67.2193 200.892 67.4427 201.077C68.0593 201.601 68.6449 202.156 69.1844 202.757C69.5851 203.204 70.086 204.19 68.9917 202.448C69.2075 202.795 69.4618 203.119 69.6699 203.473C69.7547 203.62 69.824 203.774 69.9088 203.92C70.3249 204.652 69.3385 202.348 69.5851 203.142C69.6853 203.473 69.8009 203.789 69.878 204.128C70.2094 205.6 69.8086 202.626 69.8548 203.859C69.8703 204.313 69.8934 204.76 69.8703 205.207C69.8549 205.546 69.8009 205.885 69.7855 206.225C69.8626 204.005 69.878 205.531 69.7547 206.171C69.5543 207.157 69.2846 208.128 68.9763 209.091C68.668 210.055 68.3213 211.003 67.9437 211.943C67.7587 212.405 66.9419 214.224 67.8127 212.282C67.5892 212.783 67.3811 213.284 67.1576 213.785C66.1943 215.935 65.1539 218.054 64.1213 220.181C62.0174 224.504 59.8443 228.874 58.3724 233.467C57.1547 237.266 56.3764 241.766 57.8714 245.597C59.667 250.19 63.6512 253.072 68.4677 253.889C72.9836 254.659 77.4842 254.343 82.0078 253.788C84.7359 253.457 87.4562 253.056 90.1766 252.679C90.6698 252.609 92.6349 252.363 90.4771 252.632C91.0397 252.563 91.5946 252.486 92.1571 252.417C93.3362 252.27 94.523 252.139 95.7098 252.031C97.7134 251.854 99.7325 251.738 101.752 251.831C102.206 251.854 102.661 251.893 103.108 251.931C103.632 251.97 104.379 252.247 102.437 251.831C102.646 251.877 102.854 251.893 103.062 251.931C103.917 252.085 104.695 252.37 105.52 252.625C103.539 252.016 104.703 252.263 105.273 252.602C105.844 252.941 106.321 253.603 104.95 252.278C105.189 252.509 105.458 252.717 105.69 252.956C105.813 253.079 105.921 253.21 106.036 253.341C106.815 254.197 105.219 252.155 105.682 252.871C106.098 253.519 106.506 254.158 106.853 254.852C107.115 255.376 107.547 256.848 106.869 254.798C107.03 255.283 107.239 255.754 107.408 256.239C110.152 264.177 110.483 272.731 112.702 280.807C113.804 284.814 115.407 289.068 118.436 292.043C121.811 295.349 126.651 296.497 131.151 295.033C135.575 293.6 139.282 290.633 142.726 287.596C146.171 284.56 149.261 281.385 152.568 278.318C153.377 277.563 154.194 276.823 155.026 276.098C155.427 275.744 155.835 275.397 156.243 275.058C156.652 274.719 158.44 273.386 156.69 274.673C158.209 273.563 159.727 272.538 161.407 271.69C161.877 271.451 162.57 271.382 160.79 271.937C160.983 271.875 161.168 271.791 161.353 271.721C161.723 271.59 162.093 271.475 162.47 271.382C162.655 271.336 162.84 271.313 163.025 271.266C163.896 271.058 161.33 271.405 162.216 271.374C162.64 271.359 163.048 271.344 163.472 271.359C164.682 271.398 161.707 271.012 163.21 271.344C163.526 271.413 163.834 271.498 164.135 271.598C164.744 271.791 165.9 272.523 164.073 271.521C164.512 271.76 164.982 271.945 165.422 272.184C166.231 272.623 167.017 273.124 167.78 273.655C168.188 273.933 168.581 274.233 168.974 274.526C169.799 275.143 167.795 273.594 168.612 274.241C168.851 274.434 169.082 274.619 169.321 274.811C171.055 276.229 172.704 277.748 174.338 279.289C177.66 282.425 180.858 285.701 184.349 288.637C187.632 291.403 191.454 294.44 195.785 295.318C200.324 296.235 204.956 294.994 208.03 291.396C213.71 284.76 214.481 275.035 215.968 266.781C216.692 262.774 217.525 258.821 218.927 254.991C219.251 254.097 218.272 256.439 218.673 255.584C218.765 255.399 218.842 255.206 218.935 255.021C219.089 254.69 219.259 254.366 219.436 254.05C219.613 253.734 219.783 253.449 219.983 253.156C220.823 251.9 218.973 254.289 219.952 253.187C220.176 252.933 220.422 252.702 220.669 252.471C221.486 251.692 219.212 253.442 220.445 252.671C220.754 252.478 221.085 252.347 221.393 252.17C219.86 253.072 220.16 252.648 220.7 252.471C220.946 252.394 221.185 252.301 221.432 252.232C221.755 252.139 222.079 252.062 222.403 251.993C223.019 251.862 224.537 251.854 222.326 251.962C223.32 251.916 224.306 251.792 225.308 251.785C227.381 251.769 229.454 251.931 231.512 252.147C232.621 252.263 233.731 252.401 234.833 252.54C235.265 252.594 236.374 252.756 234.425 252.486C234.71 252.525 234.987 252.563 235.272 252.602C235.935 252.694 236.598 252.787 237.253 252.879C239.912 253.249 242.57 253.634 245.245 253.927C253.675 254.867 265.412 254.798 268.279 244.772C269.473 240.595 268.448 236.025 267.015 232.049C265.358 227.479 263.17 223.117 261.058 218.747C260.056 216.69 259.085 214.617 258.16 212.521C257.729 211.534 258.731 213.9 258.322 212.914C258.222 212.667 258.122 212.421 258.022 212.182C257.829 211.704 257.644 211.218 257.467 210.733C257.128 209.816 256.819 208.883 256.55 207.935C256.303 207.065 256.134 206.194 255.964 205.308C255.779 204.367 256.118 206.957 256.064 206.009C256.049 205.808 256.026 205.6 256.01 205.4C255.98 204.945 255.98 204.491 256.003 204.036C256.087 202.502 255.671 205.469 255.956 204.298C256.026 204.013 256.095 203.728 256.18 203.443C256.226 203.288 256.311 203.142 256.349 202.988C255.995 204.591 255.741 204.298 256.041 203.766C256.242 203.412 256.442 203.073 256.665 202.734C257.305 201.747 255.563 204.028 256.557 202.895C256.812 202.603 257.082 202.317 257.359 202.048C257.652 201.763 257.952 201.485 258.261 201.215C258.708 200.822 260.249 199.844 258.446 201.023C260.072 199.967 261.621 198.826 263.301 197.848C267.1 195.621 271.053 193.671 274.899 191.536C281.811 187.714 290.751 182.389 290.866 173.434C290.905 170.413 288.177 167.515 285.087 167.654C281.996 167.793 279.353 170.19 279.307 173.434L279.322 173.472Z" fill="#FF4409"/>
<path d="M112.842 119.951C112.842 119.951 106.885 150.615 115.046 152.665C129.904 156.387 126.02 150.284 139.946 125.746" fill="#FAF1E7"/>
<path d="M108.388 118.718C107.671 122.425 107.163 126.186 106.746 129.939C106.084 135.927 105.675 142.115 106.831 148.072C107.332 150.646 108.373 153.405 110.369 155.2C112.873 157.45 116.588 157.874 119.809 158.213C122.337 158.475 124.949 158.113 127.199 156.873C129.45 155.632 131.014 153.574 132.262 151.447C133.927 148.596 135.175 145.506 136.563 142.523C138.836 137.614 141.279 132.798 143.945 128.089C145.14 125.985 144.515 122.941 142.288 121.762C140.061 120.583 137.233 121.177 135.961 123.419C133.626 127.542 131.453 131.757 129.426 136.042C128.078 138.894 126.829 141.799 125.427 144.619C124.926 145.629 124.402 146.631 123.785 147.579C123.67 147.756 123.554 147.925 123.431 148.103C122.83 148.981 124.163 147.232 123.685 147.787C123.408 148.11 123.138 148.426 122.822 148.711C122.437 149.066 121.766 149.328 123.2 148.449C123.061 148.534 122.93 148.642 122.783 148.735C122.637 148.827 122.491 148.896 122.352 148.981C121.489 149.459 123.67 148.542 122.714 148.827C122.375 148.927 122.044 149.012 121.697 149.089C120.857 149.274 123.207 148.973 122.144 149.02C121.905 149.027 121.658 149.051 121.419 149.051C120.926 149.051 120.441 149.027 119.955 148.981C119.508 148.935 118.522 148.727 120.302 149.043C119.932 148.981 119.562 148.927 119.192 148.858C118.607 148.75 118.021 148.627 117.435 148.488C117.05 148.403 116.665 148.318 116.279 148.211C116.202 148.187 116.117 148.157 116.04 148.141C115.37 147.995 117.235 148.758 116.726 148.442C116.58 148.349 116.41 148.241 116.256 148.164C116.595 148.334 117.297 149.066 116.688 148.457C116.564 148.334 116.457 148.18 116.333 148.064C117.474 149.174 116.88 148.812 116.58 148.303C116.464 148.11 116.372 147.91 116.272 147.717C115.848 146.924 116.742 148.966 116.441 148.118C116.256 147.594 116.087 147.062 115.956 146.515C115.825 145.968 115.717 145.413 115.624 144.858C115.432 143.648 115.717 145.706 115.655 145.113C115.617 144.75 115.57 144.38 115.54 144.018C115.424 142.662 115.378 141.306 115.378 139.949C115.378 137.098 115.57 134.247 115.848 131.411C115.994 129.962 116.164 128.513 116.349 127.064C116.441 126.317 116.164 128.397 116.272 127.658C116.295 127.503 116.318 127.349 116.333 127.195C116.379 126.848 116.433 126.509 116.48 126.163C116.557 125.631 116.641 125.099 116.726 124.575C116.904 123.45 117.088 122.317 117.304 121.2C117.767 118.834 116.641 116.098 114.075 115.512C111.786 114.988 108.881 116.206 108.388 118.741V118.718Z" fill="#FF4409"/>
<path d="M156.09 127.295C156.09 127.295 150.133 157.959 158.294 160.009C173.152 163.731 169.268 157.627 183.194 133.09" fill="#FAF1E7"/>
<path d="M151.628 126.062C150.911 129.769 150.403 133.529 149.987 137.282C149.324 143.27 148.916 149.459 150.072 155.416C150.572 157.989 151.613 160.748 153.609 162.544C156.113 164.794 159.828 165.218 163.049 165.557C165.577 165.819 168.189 165.457 170.439 164.216C172.69 162.976 174.254 160.918 175.503 158.791C177.167 155.94 178.416 152.849 179.803 149.867C182.076 144.958 184.519 140.142 187.185 135.433C188.38 133.329 187.756 130.285 185.529 129.106C183.301 127.927 180.473 128.52 179.202 130.763C176.867 134.886 174.693 139.101 172.667 143.386C171.318 146.237 170.07 149.143 168.667 151.963C168.166 152.973 167.642 153.974 167.026 154.922C166.91 155.1 166.794 155.269 166.671 155.446C166.07 156.325 167.403 154.576 166.925 155.13C166.648 155.454 166.378 155.77 166.062 156.055C165.677 156.41 165.006 156.672 166.44 155.793C166.301 155.878 166.17 155.986 166.024 156.078C165.877 156.171 165.731 156.24 165.592 156.325C164.729 156.803 166.91 155.886 165.954 156.171C165.615 156.271 165.284 156.356 164.937 156.433C164.097 156.618 166.448 156.317 165.384 156.363C165.145 156.371 164.899 156.394 164.66 156.394C164.166 156.394 163.681 156.371 163.196 156.325C162.749 156.279 161.762 156.071 163.542 156.387C163.172 156.325 162.802 156.271 162.433 156.202C161.847 156.094 161.261 155.97 160.676 155.832C160.29 155.747 159.905 155.662 159.52 155.554C159.442 155.531 159.358 155.5 159.281 155.485C158.61 155.338 160.475 156.101 159.966 155.785C159.82 155.693 159.651 155.585 159.496 155.508C159.835 155.678 160.537 156.41 159.928 155.801C159.805 155.678 159.697 155.523 159.573 155.408C160.714 156.518 160.121 156.155 159.82 155.647C159.705 155.454 159.612 155.254 159.512 155.061C159.088 154.267 159.982 156.309 159.681 155.462C159.496 154.938 159.327 154.406 159.196 153.859C159.065 153.312 158.957 152.757 158.864 152.202C158.672 150.992 158.957 153.05 158.895 152.456C158.857 152.094 158.811 151.724 158.78 151.362C158.664 150.006 158.618 148.649 158.618 147.293C158.618 144.442 158.811 141.59 159.088 138.754C159.234 137.306 159.404 135.857 159.589 134.408C159.681 133.66 159.404 135.741 159.512 135.001C159.535 134.847 159.558 134.693 159.573 134.539C159.62 134.192 159.674 133.853 159.72 133.506C159.797 132.975 159.882 132.443 159.966 131.919C160.144 130.794 160.329 129.661 160.544 128.543C161.007 126.178 159.882 123.442 157.315 122.856C155.027 122.332 152.121 123.55 151.628 126.085V126.062Z" fill="#FF4409"/>
<path d="M94.1914 173.471C94.1914 173.471 163.156 215.725 197.835 184.129L94.1914 173.471Z" fill="#FAF1E7"/>
<path d="M91.8564 177.464C94.2069 178.906 96.6421 180.208 99.085 181.487C105.404 184.801 111.916 187.768 118.544 190.419C126.674 193.671 135.051 196.384 143.628 198.179C152.775 200.09 162.301 201.131 171.625 200.06C180.95 198.988 190.39 195.86 198.104 189.895C199.137 189.101 200.139 188.276 201.11 187.398C202.905 185.772 202.89 182.489 201.11 180.855C199.191 179.09 196.486 179.121 194.567 180.855C194.159 181.225 193.743 181.595 193.311 181.95C193.111 182.111 192.918 182.281 192.718 182.443C192.602 182.535 192.486 182.628 192.379 182.72C191.801 183.19 193.149 182.142 192.71 182.466C191.839 183.105 190.968 183.745 190.059 184.331C188.248 185.502 186.337 186.535 184.372 187.421C184.133 187.529 183.855 187.699 183.601 187.76C183.493 187.791 184.672 187.321 184.217 187.498C184.086 187.552 183.955 187.606 183.824 187.66C183.3 187.868 182.776 188.068 182.252 188.261C181.258 188.616 180.256 188.939 179.247 189.232C177.174 189.825 175.07 190.288 172.943 190.627C172.666 190.673 172.38 190.712 172.103 190.758C171.995 190.773 171.895 190.789 171.787 190.804C171.232 190.889 172.943 190.658 172.38 190.727C171.818 190.796 171.248 190.866 170.677 190.92C169.606 191.028 168.535 191.105 167.456 191.159C165.244 191.267 163.033 191.267 160.829 191.174C158.625 191.082 156.367 190.897 154.147 190.635C153.893 190.604 153.639 190.573 153.377 190.542C152.244 190.396 154.163 190.658 153.508 190.565C152.922 190.48 152.336 190.396 151.758 190.311C150.664 190.141 149.577 189.956 148.483 189.748C139.921 188.145 131.544 185.572 123.414 182.458C121.565 181.749 119.73 181.002 117.896 180.239C117.449 180.054 118.698 180.578 118.567 180.524C118.451 180.478 118.336 180.424 118.22 180.377C117.989 180.277 117.765 180.185 117.534 180.085C117.087 179.892 116.64 179.699 116.193 179.499C115.384 179.144 114.575 178.782 113.766 178.412C110.899 177.11 108.063 175.738 105.258 174.297C102.337 172.802 99.5089 171.176 96.6498 169.565C96.6113 169.542 96.5727 169.519 96.5342 169.496C94.4689 168.232 91.3555 168.98 90.2073 171.153C89.059 173.326 89.6601 176.131 91.8641 177.48L91.8564 177.464Z" fill="#FF4409"/>
<path d="M195.876 169.744C195.545 174.275 195.283 179.115 197.533 183.068C199.675 186.822 203.814 189.11 208.06 189.935C212.306 190.759 216.683 190.305 220.96 189.704" fill="#FAF1E7"/>
<path d="M191.253 169.745C190.837 175.555 190.799 181.959 194.498 186.822C198.444 192.016 204.424 194.428 210.805 194.922C214.619 195.214 218.426 194.683 222.195 194.159C223.258 194.012 224.445 192.91 224.961 192.032C225.539 191.038 225.786 189.581 225.424 188.471C225.061 187.362 224.368 186.275 223.297 185.705C222.118 185.08 221.039 185.057 219.736 185.242C219.49 185.281 219.243 185.312 219.004 185.342C219.621 185.258 219.659 185.25 219.127 185.319C218.696 185.366 218.264 185.427 217.833 185.473C216.908 185.574 215.983 185.651 215.058 185.705C214.195 185.751 213.332 185.774 212.469 185.751C211.675 185.735 210.65 185.813 209.895 185.589C211.028 185.928 209.764 185.558 209.479 185.512C209.132 185.45 208.793 185.373 208.454 185.296C207.799 185.134 207.144 184.942 206.504 184.711C206.319 184.641 206.142 184.58 205.957 184.503C206.612 184.788 206.713 184.826 206.258 184.626C205.996 184.503 205.734 184.379 205.472 184.248C204.832 183.917 204.216 183.547 203.622 183.131C202.682 182.468 204.2 183.686 203.537 183.061C203.26 182.799 202.967 182.56 202.697 182.283C202.497 182.083 202.312 181.859 202.12 181.659C201.811 181.281 201.873 181.374 202.304 181.929C202.189 181.774 202.081 181.62 201.973 181.466C201.811 181.227 201.665 180.981 201.518 180.734C201.411 180.549 201.31 180.356 201.21 180.164C200.994 179.701 201.017 179.778 201.279 180.395C200.91 179.848 200.755 178.892 200.609 178.268C200.524 177.906 200.47 177.536 200.393 177.166C200.339 176.812 200.355 176.958 200.447 177.598C200.424 177.382 200.401 177.166 200.378 176.95C200.309 176.187 200.278 175.432 200.27 174.669C200.255 173.028 200.37 171.386 200.486 169.752C200.663 167.333 198.235 165.021 195.862 165.129C193.211 165.244 191.423 167.163 191.238 169.752L191.253 169.745Z" fill="#FF4409"/>
<path d="M139.629 158.34C134.165 154.988 126.867 151.682 121.835 155.65C117.258 159.257 118.244 167.017 122.436 171.055C126.629 175.094 132.794 176.242 138.604 176.65" fill="#FAF1E7"/>
<path d="M141.964 154.348C137.895 151.859 133.494 149.786 128.701 149.293C123.908 148.799 118.968 150.934 116.232 155.065C113.889 158.602 113.681 163.503 114.991 167.457C116.44 171.818 119.438 175.279 123.453 177.498C128.092 180.064 133.387 180.897 138.604 181.274C141.024 181.451 143.336 179.024 143.228 176.65C143.112 173.999 141.193 172.211 138.604 172.026C137.748 171.965 136.885 171.888 136.038 171.795C135.837 171.772 135.467 171.649 135.282 171.703C135.367 171.68 136.431 171.88 135.606 171.741C135.105 171.657 134.604 171.579 134.103 171.479C133.679 171.395 129.148 170.115 129.171 170.069C129.217 170 130.096 170.493 129.456 170.185C129.233 170.077 129.009 169.977 128.786 169.861C128.431 169.684 128.085 169.499 127.746 169.298C127.36 169.075 126.99 168.836 126.62 168.582C126.459 168.474 126.304 168.335 126.143 168.235L126.613 168.589C126.459 168.466 126.304 168.335 126.158 168.204C125.888 167.965 125.619 167.711 125.372 167.449C125.256 167.326 125.156 167.202 125.041 167.079C124.547 166.563 125.264 167.372 125.295 167.433C124.94 166.778 124.455 166.2 124.116 165.522C124.046 165.391 123.985 165.199 123.9 165.068C124.501 165.985 124.177 165.784 124.039 165.36C123.931 165.044 123.823 164.728 123.731 164.405C123.63 164.043 123.561 163.68 123.476 163.311C123.391 162.941 123.499 162.578 123.53 163.804C123.53 163.557 123.476 163.311 123.461 163.072C123.422 162.417 123.499 161.785 123.515 161.137C123.468 162.594 123.468 161.577 123.592 161.083C123.684 160.744 123.838 160.421 123.923 160.082C123.646 161.207 123.576 160.821 123.8 160.444C123.877 160.313 123.946 160.166 124.031 160.035C124.116 159.904 124.208 159.773 124.285 159.642C124.563 159.134 123.476 160.544 124.062 159.927C124.285 159.696 124.509 159.473 124.732 159.242C124.979 158.987 125.272 159.01 124.401 159.473C124.648 159.342 124.879 159.141 125.118 159.003C125.279 158.91 125.449 158.825 125.611 158.733C125.981 158.533 126.127 158.718 125.272 158.872C125.619 158.81 125.973 158.633 126.32 158.556C126.412 158.533 126.759 158.509 126.859 158.448C126.281 158.802 125.911 158.548 126.59 158.502C127.006 158.471 127.43 158.471 127.846 158.486C128.085 158.494 128.316 158.525 128.555 158.54C129.14 158.579 127.491 158.348 128.331 158.509C128.817 158.602 129.302 158.702 129.78 158.825C130.766 159.087 131.699 159.527 132.67 159.812C132.562 159.781 131.691 159.373 132.423 159.719C132.708 159.85 132.994 159.981 133.271 160.112C133.741 160.336 134.203 160.575 134.658 160.821C135.552 161.299 136.431 161.808 137.294 162.34C139.359 163.603 142.472 162.856 143.621 160.683C144.769 158.509 144.168 155.704 141.964 154.356V154.348Z" fill="#FF4409"/>
</svg>
