<svg width="179" height="179" viewBox="0 0 179 179" fill="none" xmlns="http://www.w3.org/2000/svg">
<circle cx="89.5" cy="89.5" r="89.5" fill="#FFA14C"/>
<path d="M43.5998 71.336C37.8937 60.5348 35.7636 48.1777 35.1812 35.9795C30.8517 35.9836 26.5223 35.9917 22.1765 35.9999C17.8226 36.5701 23.5817 61.8096 24.3596 64.8317C28.3143 80.1171 38.6187 94.8161 52.6538 102.436C55.7369 104.11 81.4164 112.647 82.7645 107.418C84.9109 99.1089 83.4243 98.4084 75.3926 95.647C72.0854 94.5107 68.5705 93.9364 65.357 92.5394C55.9528 88.4624 48.3243 80.2923 43.5916 71.3401L43.5998 71.336Z" fill="#FAF1E7"/>
<path d="M45.71 70.1051C45.1439 69.0299 44.6104 67.9424 44.1094 66.8387C44.0117 66.6187 43.9098 66.3947 43.8121 66.1748C43.751 66.0363 43.6899 65.8978 43.6329 65.7593L43.5962 65.6779C43.4903 65.4295 43.5026 65.4539 43.6288 65.7593C43.5514 65.7431 43.3437 65.067 43.3193 65.0018C43.1971 64.6923 43.0749 64.3827 42.9527 64.0732C42.1055 61.8698 41.3765 59.6175 40.7574 57.3407C40.1384 55.064 39.6292 52.7995 39.2057 50.4983C38.9898 49.3294 38.7984 48.1564 38.6273 46.9794C38.5866 46.7065 38.5499 46.4377 38.5133 46.1648C38.4929 46.0141 38.4115 45.5783 38.5133 46.1811C38.4929 46.063 38.4807 45.9367 38.4644 45.8186C38.387 45.2117 38.3137 44.609 38.2485 44.0021C37.9512 41.3384 37.7517 38.6626 37.6213 35.9867C37.5562 34.6671 36.5542 33.543 35.1776 33.543C32.5384 33.543 29.8992 33.5511 27.26 33.5552C25.9404 33.5552 24.6167 33.5552 23.297 33.5593C22.3277 33.5593 21.4235 33.5267 20.5642 34.0195C18.6499 35.1151 18.2874 37.5792 18.1612 39.5667C18.0145 41.8964 18.2426 44.2546 18.5114 46.5639C18.8535 49.4923 19.3138 52.4085 19.8473 55.3124C20.5927 59.369 21.3747 63.4663 22.5436 67.4292C24.9547 75.5994 28.9828 83.2116 34.2571 89.887C36.8149 93.1209 39.6944 96.0981 42.8794 98.721C44.5574 100.102 46.3047 101.405 48.1252 102.59C49.3145 103.364 50.5405 104.154 51.8275 104.753C53.5299 105.543 55.3098 106.166 57.0856 106.769C59.5211 107.6 61.9852 108.353 64.4697 109.038C67.1129 109.763 69.7807 110.414 72.481 110.887C74.8229 111.298 77.287 111.697 79.6737 111.502C81.9015 111.318 84.3086 110.589 85.0784 108.227C85.5915 106.655 85.8726 104.932 86.0396 103.295C86.1658 102.081 86.1292 100.753 85.6852 99.6049C85.1354 98.1712 84.2312 97.1245 82.9849 96.2407C81.8486 95.4342 80.4964 94.9251 79.2094 94.4283C77.4051 93.7359 75.5723 93.1046 73.7151 92.5792C71.365 91.9194 68.9783 91.3777 66.7016 90.4776C66.5875 90.4328 66.4654 90.392 66.3554 90.3391C66.893 90.5998 66.4043 90.3554 66.2984 90.3106C66.1029 90.2251 65.9074 90.1355 65.716 90.0458C65.2068 89.8096 64.7059 89.5612 64.209 89.3005C63.2845 88.8158 62.3803 88.2945 61.4965 87.7365C60.6127 87.1785 59.794 86.6124 58.9713 86.0056C58.8532 85.92 58.1323 85.3417 58.6943 85.8019C58.507 85.6471 58.3115 85.5046 58.1241 85.3498C57.6843 84.9955 57.2485 84.633 56.8208 84.2583C55.2487 82.8939 53.7702 81.4195 52.3936 79.8596C52.0515 79.4727 51.7175 79.0858 51.3876 78.6907C51.0577 78.2956 50.6138 77.8761 50.3694 77.4281C50.6097 77.872 50.5568 77.6766 50.4549 77.5381C50.3735 77.4322 50.292 77.3222 50.2106 77.2163C50.0639 77.0208 49.9214 76.8294 49.7748 76.6298C49.4571 76.194 49.1475 75.7542 48.8421 75.3102C47.6976 73.6403 46.6509 71.9012 45.7019 70.1132C45.1032 68.981 43.4374 68.5411 42.3581 69.2376C41.2095 69.9788 40.8389 71.3718 41.4824 72.5814C45.4372 80.0347 51.1188 86.6817 58.1486 91.3858C59.8144 92.5018 61.5657 93.4915 63.3903 94.3305C65.6589 95.3772 68.009 96.1022 70.416 96.7498C72.5013 97.3078 74.55 97.9268 76.5864 98.6518C77.291 98.9043 77.9916 99.165 78.684 99.446C79.0179 99.5804 78.3866 99.3157 78.3907 99.3238C78.4396 99.3727 78.5618 99.3971 78.6229 99.4257C78.7573 99.4868 78.8917 99.5479 79.022 99.6089C79.2949 99.7393 79.5637 99.8737 79.8284 100.024C80.0402 100.147 80.252 100.273 80.4557 100.415C80.4964 100.444 80.5412 100.476 80.5819 100.505C80.8792 100.7 80.0932 100.106 80.2968 100.281C80.3986 100.366 80.5045 100.452 80.6023 100.542C80.7367 100.664 80.8752 100.908 81.0299 100.998C80.8996 100.92 80.6145 100.399 80.8467 100.774C80.9159 100.888 80.9892 100.998 81.0503 101.12C81.091 101.197 81.1236 101.283 81.1684 101.364C80.753 100.603 80.9851 100.912 81.0666 101.165C81.1358 101.385 81.1766 101.609 81.2214 101.833C81.2825 102.106 81.144 101.083 81.1684 101.45C81.1684 101.503 81.1806 101.556 81.1847 101.605C81.1969 101.739 81.2051 101.878 81.2051 102.012C81.2132 102.293 81.2051 102.578 81.1847 102.859C81.1765 103.006 81.1603 103.148 81.1481 103.295C81.1399 103.36 81.1318 103.429 81.1277 103.494C81.091 103.914 81.2173 102.9 81.1684 103.209C81.1073 103.584 81.0503 103.959 80.977 104.333C80.8182 105.156 80.5982 105.963 80.4109 106.777C80.4109 106.789 80.3538 106.969 80.3498 106.969C80.3375 106.965 80.696 106.203 80.5005 106.578C80.4719 106.631 80.4271 106.675 80.4027 106.724C80.7122 106.052 80.8467 106.215 80.6308 106.411C80.5982 106.439 80.4964 106.508 80.4801 106.549C80.5045 106.496 81.1317 106.109 80.8018 106.293C80.6674 106.366 80.533 106.439 80.3986 106.512C81.2254 106.048 80.8141 106.35 80.5045 106.443C80.3253 106.496 80.1421 106.541 79.9588 106.578C79.8692 106.594 79.7796 106.61 79.69 106.622C79.2867 106.696 80.4557 106.537 79.9954 106.582C79.7714 106.602 79.5474 106.626 79.3234 106.639C78.3174 106.692 77.3073 106.635 76.3054 106.537C76.0366 106.512 75.7678 106.48 75.499 106.447C75.3727 106.431 74.8392 106.362 75.3646 106.431C75.89 106.5 75.2465 106.415 75.1283 106.394C74.5256 106.305 73.9269 106.207 73.3281 106.097C72.0208 105.857 70.7215 105.576 69.4263 105.27C64.7303 104.154 60.0669 102.765 55.5541 101.051C55.2039 100.916 54.8536 100.778 54.5034 100.635C53.9372 100.403 55.1509 100.916 54.6337 100.692C54.5115 100.639 54.3934 100.586 54.2712 100.529C53.0127 99.9429 51.8153 99.1691 50.6504 98.4156C49.8155 97.8739 48.9968 97.3118 48.1945 96.7213C47.9827 96.5665 47.7709 96.4117 47.5632 96.2529C47.4817 96.1918 47.3962 96.1226 47.3148 96.0615C47.8076 96.4117 47.5428 96.2407 47.4369 96.1551C47.0256 95.8293 46.6142 95.5035 46.2069 95.1695C44.6633 93.8906 43.193 92.5303 41.796 91.0926C40.399 89.6549 39.0631 88.1357 37.8087 86.5595C37.7435 86.478 37.6783 86.3925 37.6132 86.311C37.5806 86.2703 37.2425 85.8712 37.5114 86.1807C37.7802 86.4902 37.4421 86.0911 37.4095 86.0504C37.3444 85.9648 37.2792 85.8793 37.2181 85.7979C36.8964 85.3743 36.5828 84.9466 36.2773 84.5149C35.6908 83.6922 35.1246 82.8572 34.5748 82.0101C33.4955 80.3402 32.4977 78.6174 31.5772 76.8498C31.1129 75.9578 30.6689 75.0577 30.2494 74.1454C30.0499 73.7136 29.8544 73.2819 29.667 72.8461C29.6018 72.6914 29.3005 71.9542 29.5733 72.6303C29.4756 72.3859 29.3697 72.1456 29.272 71.9012C27.4636 67.4414 26.3313 62.835 25.362 58.1349C24.8447 55.6179 24.3682 53.0927 23.9609 50.5553C23.851 49.8833 23.7492 49.2113 23.6514 48.5352C23.6066 48.2175 23.5618 47.8998 23.517 47.5862C23.6473 48.523 23.5496 47.8102 23.5211 47.6066C23.5007 47.4314 23.4763 47.2604 23.4559 47.0852C23.3011 45.8308 23.1708 44.5723 23.0893 43.3138C23.0201 42.2304 22.9794 41.1429 23.0201 40.0596C23.0364 39.636 23.1667 39.1309 23.1219 38.7114C23.1341 38.8336 23.0038 39.4853 23.0812 39.0454C23.0975 38.9436 23.1138 38.8458 23.1341 38.744C23.1667 38.5689 23.2075 38.3938 23.2563 38.2227C23.2971 38.0761 23.35 37.9335 23.3989 37.791C23.5129 37.4529 23.0649 38.4752 23.2522 38.1412C23.2889 38.072 23.3215 37.9987 23.3622 37.9335C23.3907 37.8846 23.4396 37.8317 23.46 37.7828C23.5333 37.6118 22.9672 38.3897 23.2075 38.1168C23.24 38.0801 23.297 38.0476 23.3215 38.0028C23.3948 37.8969 22.6861 38.4426 22.9916 38.2634C23.3296 38.0679 22.4295 38.4874 22.5884 38.4223C22.6372 38.4019 22.6861 38.3938 22.735 38.3815C22.9631 38.3164 22.4132 38.6381 22.3725 38.4548C22.3725 38.463 22.8124 38.4548 22.7798 38.4548C23.1179 38.4548 23.46 38.4548 23.798 38.4548C25.085 38.4548 26.3721 38.4549 27.6591 38.4508C30.1639 38.4508 32.6687 38.4426 35.1735 38.4386L32.7298 35.9948C33.1982 45.7168 34.5748 55.5446 37.9797 64.7045C38.9817 67.4007 40.1424 70.0399 41.4824 72.5855C42.077 73.7177 43.751 74.1535 44.8262 73.4611C45.9789 72.7199 46.3413 71.331 45.7019 70.1173L45.71 70.1051Z" fill="#FF4409"/>
<path d="M63.1601 13.4858L23.7434 33.0095C22.4332 33.6585 21.8972 35.2467 22.5461 36.5569L24.3882 40.2759C25.0372 41.5861 26.6254 42.1221 27.9356 41.4732L67.3523 21.9494C68.6624 21.3005 69.1985 19.7123 68.5495 18.4021L66.7074 14.683C66.0585 13.3728 64.4703 12.8368 63.1601 13.4858Z" fill="#FF4409"/>
<path d="M44.5714 16.1655C42.8486 15.3591 40.7592 15.9659 39.2238 17.5218C38.3237 16.5646 37.2565 15.7704 36.0265 15.1962C29.8113 12.2922 21.9181 16.0515 18.3951 23.5944C14.8721 31.1374 17.0551 39.6008 23.2744 42.5047C29.4896 45.4087 37.3828 41.6494 40.9059 34.1065C42.0015 31.7605 42.5431 29.3249 42.5879 26.9912C44.0868 26.5024 45.496 25.2602 46.3187 23.4967C47.6994 20.5398 46.9174 17.257 44.5755 16.1655H44.5714Z" fill="#FF4409"/>
<path d="M45.8014 14.0561C44.323 13.4004 42.8323 13.1926 41.2439 13.5836C39.8224 13.9339 38.5232 14.7729 37.4928 15.7911H40.9506C38.7106 13.4452 35.7455 12.1011 32.5402 11.8119C29.8887 11.5716 27.2169 12.2681 24.8506 13.4207C19.6495 15.9581 15.8699 21.3221 14.7092 26.9304C13.5484 32.5388 14.7091 38.7947 19.0997 42.6313C21.2746 44.5334 23.8894 45.6208 26.7608 45.8815C29.4326 46.1218 32.1288 45.4172 34.5114 44.2442C39.9406 41.5642 43.8587 35.7848 44.7547 29.8507C44.8972 28.9017 45.0072 27.9527 45.0276 26.9915L43.2355 29.3497C46.3431 28.2948 48.7379 25.4601 49.2715 22.21C49.805 18.9598 48.8357 15.5386 45.8055 14.0602C44.6569 13.5022 43.1093 13.7099 42.4617 14.9358C41.8833 16.0355 42.1114 17.6809 43.3373 18.2796C43.5491 18.3855 43.7406 18.5118 43.9401 18.634C44.1804 18.7806 43.5125 18.243 43.7894 18.5281C43.879 18.6177 43.9727 18.7032 44.0542 18.7969C44.1193 18.8702 44.3841 19.1635 44.103 18.8417C43.822 18.52 44.0745 18.8213 44.1275 18.911C44.1967 19.0209 44.2578 19.135 44.3189 19.249C44.3637 19.3345 44.547 19.7011 44.3555 19.3142C44.1641 18.9272 44.3393 19.2979 44.3718 19.3956C44.4126 19.526 44.4492 19.6563 44.4818 19.7866C44.5103 19.8966 44.5266 20.0106 44.5511 20.1247C44.6162 20.422 44.4981 19.5259 44.5266 19.9617C44.5429 20.2265 44.5551 20.4871 44.547 20.7519C44.5429 20.8741 44.5307 20.9963 44.5225 21.1184C44.494 21.6438 44.6447 20.5442 44.5307 21.0614C44.4736 21.3139 44.4248 21.5624 44.3515 21.8108C44.3067 21.9615 44.2537 22.1082 44.2048 22.2588C44.0623 22.6824 44.3718 21.9249 44.2374 22.1978C44.103 22.4706 43.9727 22.7354 43.8179 22.996C43.7487 23.1101 43.6754 23.22 43.598 23.33C43.3862 23.6396 43.4799 23.4155 43.6509 23.2771C43.4432 23.4441 43.2762 23.7088 43.0807 23.8961C42.9911 23.9817 42.8934 24.0631 42.8038 24.1487C42.4331 24.503 43.2599 23.8513 42.8364 24.1283C42.6368 24.2586 42.4413 24.393 42.2295 24.5071C42.1114 24.5722 41.9688 24.6211 41.8548 24.6904L42.1847 24.5478C42.0992 24.5804 42.0137 24.6089 41.9281 24.6374C40.8814 24.9917 40.1605 25.8674 40.1361 26.9956C40.1279 27.3459 40.1116 27.7002 40.0831 28.0505C40.0668 28.2297 40.0505 28.4048 40.0302 28.584C40.022 28.6492 39.9854 28.9546 40.0302 28.6166C40.075 28.2582 40.0179 28.6695 40.0098 28.7388C39.8835 29.5248 39.7003 30.3028 39.4681 31.0644C39.3581 31.4269 39.2359 31.7812 39.1056 32.1356C39.073 32.2211 38.8531 32.7383 38.9834 32.4655C39.1138 32.1926 38.9753 32.4817 38.9549 32.5265C38.902 32.6447 38.849 32.7628 38.7961 32.8809C38.5273 33.4592 38.2259 34.0213 37.9001 34.5671C37.5742 35.1128 37.1995 35.6464 36.8167 36.1677C36.6578 36.3835 36.9877 35.9518 36.9755 35.964C36.9266 36.017 36.8859 36.0781 36.837 36.1351C36.7474 36.2491 36.6537 36.3591 36.5601 36.4691C36.3564 36.7053 36.1487 36.9375 35.9329 37.1615C35.5256 37.585 35.102 37.9883 34.654 38.3711C34.5481 38.4607 34.4422 38.5503 34.3322 38.6358C34.2793 38.6806 34.2222 38.7214 34.1693 38.7662C34.1489 38.7825 34.6051 38.4404 34.3892 38.591C34.1286 38.7743 33.8761 38.9657 33.6072 39.1409C33.1389 39.4463 32.6583 39.7274 32.1614 39.9799C31.9292 40.098 31.6726 40.1876 31.4486 40.3179C31.4201 40.3342 31.974 40.1061 31.7297 40.1998C31.6686 40.2243 31.6075 40.2487 31.5504 40.2731C31.4079 40.3302 31.2694 40.379 31.1269 40.432C30.6259 40.6112 30.1127 40.7578 29.5914 40.8718C29.3226 40.9289 29.0538 40.9696 28.785 41.0185C28.5162 41.0673 29.1678 40.9737 29.123 40.9737C29.0619 40.9737 28.9968 40.99 28.9357 40.994C28.7891 41.0063 28.6465 41.0225 28.4999 41.0307C27.9826 41.0673 27.4654 41.0633 26.9481 41.0307C26.8259 41.0225 26.6997 41.0103 26.5775 40.9981C26.5205 40.994 26.4472 40.994 26.3942 40.9777C26.3413 40.9615 27.0011 41.0796 26.7363 41.0225C26.4716 40.9655 26.2069 40.9289 25.9421 40.8678C25.4086 40.7415 24.9117 40.5297 24.3904 40.3709C24.3578 40.3627 24.9117 40.6112 24.6836 40.4931C24.6266 40.4646 24.5655 40.4401 24.5085 40.4157C24.3904 40.3587 24.2682 40.3016 24.1501 40.2406C23.8975 40.1102 23.6491 39.9717 23.4088 39.821C23.1889 39.6826 22.9771 39.5359 22.7653 39.3852C22.7123 39.3486 22.6634 39.3038 22.6105 39.2712C22.5861 39.2549 23.0382 39.6256 22.8508 39.4545C22.7408 39.3527 22.6187 39.2631 22.5046 39.1612C22.0851 38.7906 21.6982 38.3874 21.3438 37.9597C21.3031 37.9109 21.2624 37.8579 21.2217 37.8091C21.0547 37.6176 21.4212 38.0738 21.4049 38.0493C21.3398 37.9394 21.2502 37.8376 21.1769 37.7357C21.014 37.5036 20.8633 37.2674 20.7166 37.0271C20.4315 36.5505 20.2279 36.0455 19.9672 35.5608C19.955 35.5364 20.1709 36.0822 20.0853 35.8378C20.065 35.7767 20.0365 35.7115 20.012 35.6504C19.955 35.5038 19.9021 35.3572 19.8532 35.2065C19.7595 34.9295 19.6699 34.6485 19.5925 34.3634C19.4418 33.8054 19.3359 33.2434 19.2382 32.6772C19.1934 32.4084 19.2789 33.0112 19.2789 32.9786C19.2748 32.9094 19.2626 32.8402 19.2545 32.7709C19.2382 32.6324 19.226 32.4899 19.2137 32.3473C19.1893 32.0378 19.173 31.7323 19.1649 31.4228C19.1486 30.7915 19.1689 30.1602 19.226 29.533C19.2382 29.3864 19.2545 29.2397 19.2708 29.0931C19.3196 28.637 19.1893 29.6063 19.2626 29.1542C19.3156 28.8325 19.3726 28.5107 19.4377 28.193C19.5722 27.5658 19.7351 26.9467 19.9347 26.3358C20.0324 26.0385 20.1383 25.7411 20.2523 25.4479C20.3093 25.3013 20.3745 25.1547 20.4275 25.008C20.1912 25.6597 20.4275 25.0203 20.5048 24.8573C20.7736 24.279 21.075 23.7169 21.4009 23.1712C21.7267 22.6254 22.0688 22.1285 22.4394 21.6275C22.7042 21.2732 22.134 21.9982 22.415 21.6601C22.5087 21.5502 22.5983 21.4361 22.692 21.3262C22.9078 21.0696 23.1318 20.8211 23.364 20.5768C23.7713 20.1532 24.1949 19.75 24.6429 19.3671C24.7488 19.2775 24.8547 19.1879 24.9646 19.1024C25.0176 19.0576 25.0746 19.0168 25.1276 18.972C25.1479 18.9558 24.6917 19.2979 24.9076 19.1472C25.1479 18.9761 25.3841 18.801 25.6326 18.6381C26.0969 18.3285 26.5816 18.0475 27.0784 17.795C27.331 17.6646 27.6079 17.5669 27.8523 17.4284C27.8808 17.4121 27.3269 17.6402 27.5713 17.5465C27.6324 17.5221 27.6935 17.4977 27.7505 17.4732C27.893 17.4162 28.0315 17.3673 28.1741 17.3144C28.675 17.1352 29.1882 16.9886 29.7095 16.8745C29.958 16.8216 30.2064 16.7808 30.4548 16.736C30.8744 16.6627 29.8765 16.7931 30.3042 16.7564C30.4508 16.7442 30.5933 16.7279 30.74 16.7157C31.2776 16.6749 31.8152 16.6749 32.3528 16.7157C32.475 16.7238 32.6012 16.736 32.7234 16.7483C32.7805 16.7523 32.8538 16.7523 32.9067 16.7686C32.9597 16.7849 32.2999 16.6668 32.5646 16.7238C32.8293 16.7808 33.0941 16.8175 33.3588 16.8786C33.872 17.0008 34.3567 17.18 34.8536 17.351C35.0979 17.4366 34.5318 17.2085 34.5644 17.2289C34.6173 17.2614 34.6825 17.2818 34.7395 17.3062C34.9187 17.3918 35.0938 17.4773 35.269 17.5669C35.603 17.742 35.9247 17.9375 36.2342 18.1493C36.3076 18.1982 36.7434 18.524 36.4746 18.3122C36.2057 18.1005 36.6252 18.4426 36.6945 18.4996C36.9755 18.744 37.2403 19.0006 37.4968 19.2694C38.4132 20.2306 40.0302 20.1817 40.9547 19.2694C41.0728 19.1513 41.3783 18.968 41.4435 18.8213C41.3742 18.9802 41.0565 19.1024 41.3986 18.8621C41.4842 18.801 41.5738 18.744 41.6634 18.691C41.8426 18.581 42.0299 18.4955 42.2092 18.3978C42.478 18.2511 41.7571 18.5485 42.0462 18.4711C42.1643 18.4385 42.2825 18.3896 42.4006 18.357C42.4942 18.3285 42.592 18.3122 42.6857 18.2878C43.0115 18.2023 42.5675 18.3082 42.4657 18.3041C42.6571 18.3082 42.8486 18.2715 43.04 18.2796C43.1337 18.2796 43.2314 18.3041 43.3251 18.2959C42.7712 18.3285 42.926 18.2349 43.1663 18.2878C43.3658 18.3326 44.0012 18.5973 43.3332 18.3C43.9523 18.577 44.5347 18.7358 45.2149 18.5444C45.781 18.3896 46.396 17.9498 46.6771 17.4203C47.2391 16.3573 47.0477 14.6304 45.8014 14.0765V14.0561Z" fill="#FF4409"/>
<path d="M155.72 92.3248C155.72 98.4341 139.286 101.868 137.498 107.378C135.645 113.092 146.854 125.519 143.396 130.272C139.901 135.074 124.595 128.231 119.793 131.726C115.04 135.188 116.837 151.874 111.126 153.727C105.616 155.515 97.2827 141.016 91.1775 141.016C85.0723 141.016 76.7392 155.515 71.2286 153.727C65.5143 151.874 67.3146 135.184 62.5615 131.726C57.7596 128.231 42.4538 135.074 38.9593 130.272C35.4973 125.519 46.7099 113.088 44.8568 107.378C43.0688 101.868 26.6348 98.43 26.6348 92.3248C26.6348 86.2196 43.0688 82.7821 44.8568 77.2715C46.7099 71.5573 35.5014 59.1309 38.9593 54.3779C42.4538 49.576 57.7596 56.4184 62.5615 52.9239C67.3146 49.462 65.5184 32.7754 71.2286 30.9223C76.7392 29.1343 85.0723 43.6337 91.1775 43.6337C97.2827 43.6337 105.616 29.1343 111.126 30.9223C116.841 32.7754 115.04 49.466 119.793 52.9239C124.595 56.4184 139.901 49.576 143.396 54.3779C146.858 59.1309 135.645 71.5613 137.498 77.2715C139.286 82.7821 155.72 86.2196 155.72 92.3248Z" fill="#FAF1E7"/>
<path d="M152.665 92.3241C152.665 92.4137 152.657 92.5033 152.653 92.5928C152.653 93.0449 152.828 91.6928 152.714 92.1326C152.669 92.3078 152.628 92.4788 152.58 92.6499C152.408 93.2364 152.991 91.8231 152.637 92.5073C152.535 92.7069 152.413 92.8902 152.29 93.0775C151.944 93.607 152.836 92.4462 152.4 92.939C152.262 93.0979 152.123 93.2567 151.973 93.4074C151.626 93.7618 151.248 94.0754 150.869 94.3931C150.49 94.7107 151.525 93.9084 151.105 94.2098C151.02 94.2709 150.938 94.332 150.857 94.3931C150.669 94.5275 150.478 94.6619 150.286 94.7922C149.81 95.114 149.321 95.4194 148.828 95.7167C147.859 96.2951 146.865 96.8368 145.867 97.3703C143.892 98.4252 141.88 99.4353 139.99 100.645C138.1 101.855 136.268 103.203 135.18 105.121C132.708 109.503 135.592 114.892 137.518 118.891C138.039 119.979 138.577 121.058 139.09 122.146C139.339 122.675 139.583 123.205 139.815 123.742C139.852 123.828 139.888 123.917 139.929 124.003C140.157 124.524 139.628 123.27 139.84 123.791C139.958 124.088 140.08 124.386 140.19 124.683C140.54 125.616 140.817 126.556 141.004 127.534C141.057 127.819 140.988 128.177 140.956 127.159C140.956 127.265 140.98 127.371 140.984 127.477C141 127.681 141.004 127.888 141 128.092C140.992 128.491 140.752 129.008 141.049 127.953C141 128.133 140.98 128.316 140.923 128.495C140.695 129.22 141.302 127.827 140.988 128.344C140.78 128.691 140.41 128.923 141.118 128.251C140.988 128.373 140.866 128.511 140.74 128.642C140.43 128.959 141.452 128.157 141.074 128.389C140.996 128.438 140.919 128.495 140.841 128.54C140.679 128.638 140.503 128.711 140.336 128.801C141.302 128.263 140.752 128.63 140.41 128.731C140.206 128.792 139.998 128.841 139.795 128.886C139.685 128.907 139.579 128.923 139.469 128.947C138.988 129.045 140.418 128.854 139.713 128.915C137.534 129.102 135.359 128.866 133.201 128.581C132.973 128.552 132.386 128.467 133.417 128.609C133.266 128.589 133.119 128.568 132.969 128.548C132.72 128.516 132.468 128.479 132.219 128.442C131.352 128.32 130.48 128.202 129.613 128.084C128.456 127.929 127.299 127.786 126.138 127.701C124.053 127.546 121.768 127.53 119.797 128.316C118.677 128.764 117.647 129.363 116.86 130.299C116.005 131.318 115.459 132.373 114.954 133.594C114.144 135.558 113.741 137.675 113.358 139.757C112.951 141.98 112.612 144.225 112.087 146.428C111.855 147.41 111.57 148.371 111.22 149.32C111.13 149.56 110.894 149.939 111.354 149.014C111.305 149.112 111.264 149.218 111.215 149.32C111.126 149.515 111.028 149.707 110.922 149.898C110.841 150.049 110.751 150.195 110.662 150.342C110.609 150.428 110.552 150.505 110.495 150.59C110.148 151.116 110.983 150.028 110.678 150.354C110.552 150.489 110.433 150.631 110.299 150.757C109.749 151.275 110.943 150.354 110.434 150.672C110.299 150.757 110.157 150.831 110.022 150.912C109.79 151.051 109.521 150.969 110.474 150.725C110.36 150.753 110.254 150.802 110.14 150.835C110.055 150.855 109.965 150.867 109.88 150.892C110.792 150.615 110.657 150.819 110.34 150.823C110.161 150.823 109.981 150.823 109.802 150.814C109.342 150.802 110.698 150.981 110.246 150.871C110.152 150.847 110.059 150.835 109.965 150.81C109.774 150.762 109.586 150.7 109.399 150.635C109.142 150.554 108.841 150.322 109.745 150.79C109.652 150.741 109.55 150.705 109.452 150.656C109.252 150.558 109.053 150.452 108.861 150.342C108.426 150.094 108.002 149.813 107.595 149.519C107.379 149.365 106.686 148.782 107.542 149.491C107.334 149.32 107.122 149.153 106.915 148.982C106.446 148.591 105.986 148.183 105.534 147.772C103.766 146.159 102.096 144.449 100.321 142.844C98.6425 141.329 96.8464 139.769 94.7611 138.848C93.5881 138.331 92.3866 137.936 91.0793 137.965C89.7719 137.993 88.5744 138.384 87.3852 138.934C85.2551 139.92 83.4141 141.565 81.6994 143.137C79.94 144.75 78.2701 146.465 76.4902 148.057C76.1074 148.399 75.7205 148.737 75.3254 149.063C75.1177 149.234 74.299 149.845 75.2114 149.169C74.9711 149.348 74.7348 149.527 74.4905 149.699C74.132 149.947 73.7655 150.183 73.3826 150.399C73.1871 150.505 72.9916 150.603 72.7921 150.7C72.5355 150.827 72.2096 150.831 73.1342 150.562C73.0038 150.599 72.8817 150.66 72.7514 150.7C72.564 150.762 72.3766 150.802 72.1893 150.851C71.5702 151.002 73.1383 150.79 72.3604 150.823C72.2097 150.831 72.063 150.814 71.9123 150.814C71.4602 150.806 72.8084 150.998 72.3766 150.871C72.2626 150.839 72.1486 150.81 72.0345 150.782C71.4562 150.627 72.8572 151.205 72.2056 150.847C72.0508 150.762 71.9123 150.656 71.7657 150.562C72.6658 151.124 72.2178 150.92 71.9775 150.688C71.725 150.444 71.3503 149.788 71.9612 150.741C71.7413 150.399 71.5091 150.069 71.3177 149.707C71.2159 149.511 71.1303 149.312 71.0326 149.112C70.8452 148.725 71.2322 149.568 71.2077 149.527C71.1303 149.405 71.0896 149.23 71.0407 149.092C70.6864 148.139 70.4217 147.149 70.1936 146.159C69.1631 141.691 68.9025 136.995 67.0371 132.759C66.1004 130.633 64.5527 129.053 62.3655 128.239C60.3576 127.493 58.032 127.546 55.9304 127.721C54.513 127.835 53.1038 128.031 51.6987 128.222C51.1244 128.3 50.5501 128.381 49.9759 128.463C49.6786 128.503 49.3772 128.544 49.0798 128.589C48.4893 128.67 49.8863 128.483 49.2957 128.56C49.1002 128.585 48.9006 128.613 48.7051 128.638C47.5688 128.78 46.4325 128.907 45.288 128.959C44.8074 128.984 44.3268 128.992 43.8462 128.984C43.5978 128.98 43.3534 128.968 43.1049 128.951C42.7506 128.927 41.822 128.683 42.9868 128.959C42.604 128.866 42.213 128.821 41.8342 128.699C41.7365 128.67 41.6428 128.63 41.5491 128.601C41.1011 128.463 42.327 128.976 41.9157 128.76C41.7202 128.654 41.5287 128.552 41.3414 128.438C40.8241 128.12 42.0053 129.045 41.4636 128.516C41.3984 128.45 41.3414 128.381 41.2762 128.32C40.9626 128.01 41.7528 129.033 41.5328 128.65C41.4595 128.52 41.3821 128.389 41.3047 128.263C41.0767 127.88 41.598 129.09 41.4717 128.662C41.4391 128.544 41.3944 128.434 41.3618 128.316C41.3373 128.226 41.3251 128.133 41.3007 128.043C41.1866 127.591 41.3781 128.947 41.3577 128.479C41.3496 128.279 41.3292 128.084 41.3333 127.884C41.3333 127.709 41.3496 127.538 41.3577 127.367C41.374 127.094 41.5165 126.703 41.2966 127.75C41.3251 127.603 41.3414 127.453 41.3699 127.306C41.5573 126.32 41.879 125.359 42.2415 124.422C42.3393 124.166 42.4492 123.909 42.551 123.653C42.1356 124.707 42.5307 123.71 42.6366 123.469C42.8728 122.932 43.1213 122.398 43.3738 121.869C43.9114 120.732 44.4694 119.608 45.011 118.476C46.0496 116.301 47.1371 114.061 47.7073 111.707C48.2571 109.45 48.3223 106.999 47.0597 104.954C45.8786 103.044 43.9969 101.667 42.1234 100.494C40.2132 99.3009 38.1931 98.2867 36.2096 97.2237C35.1792 96.6698 34.1528 96.1077 33.1549 95.4968C32.7436 95.2443 32.3363 94.9836 31.9372 94.7107C31.7294 94.5682 31.5258 94.4216 31.3222 94.2749C31.1185 94.1283 30.8008 93.7944 31.5502 94.4582C31.4321 94.3523 31.3018 94.2627 31.1796 94.1609C30.866 93.8962 30.5605 93.6192 30.2754 93.3219C30.1288 93.1712 29.9985 93.0083 29.86 92.8535C29.5464 92.4992 30.3447 93.5459 30.0921 93.1508C30.0229 93.0409 29.9455 92.939 29.8763 92.8291C29.7785 92.6702 29.7011 92.4992 29.6075 92.3322C29.4405 92.0349 29.8071 92.8128 29.8071 92.8087C29.8193 92.7639 29.7337 92.601 29.7174 92.5521C29.6645 92.3811 29.6401 92.2059 29.5953 92.0349C29.8763 93.106 29.6645 92.5603 29.6686 92.1367C29.6686 91.5217 29.4731 93.0775 29.6482 92.3363C29.6849 92.1774 29.75 92.0227 29.7948 91.8679C29.8804 91.5461 29.4038 92.6906 29.6115 92.3037C29.6563 92.2222 29.693 92.1367 29.7378 92.0552C29.8478 91.8557 29.974 91.6765 30.0962 91.485C30.3487 91.094 29.5504 92.1367 29.8641 91.7824C29.9333 91.705 29.9985 91.6235 30.0636 91.5461C30.2062 91.3873 30.3569 91.2325 30.5076 91.0818C30.8375 90.7601 31.204 90.4831 31.5502 90.1776C30.699 90.9271 31.3873 90.308 31.6235 90.141C31.8313 89.9944 32.043 89.8477 32.2589 89.7093C32.7069 89.416 33.159 89.1309 33.6233 88.858C34.5967 88.2797 35.5946 87.738 36.5924 87.2085C38.6044 86.1374 40.649 85.1069 42.5592 83.8647C44.3227 82.7162 46.2492 81.2988 47.2348 79.3723C48.3508 77.1933 48.2245 74.77 47.5769 72.4607C46.9294 70.1514 45.8093 67.8339 44.7422 65.6223C44.2168 64.5389 43.6833 63.4596 43.1742 62.3681C42.9257 61.8386 42.6855 61.3092 42.4533 60.7756C42.3637 60.5679 42.1682 60.0425 42.5388 60.9833C42.4859 60.853 42.4329 60.7267 42.38 60.5964C42.2619 60.3032 42.1478 60.0099 42.0419 59.7126C41.7039 58.784 41.488 57.8554 41.2844 56.8901C41.5206 58.0224 41.3455 57.3707 41.3292 57.0612C41.317 56.8575 41.3129 56.6539 41.321 56.4502C41.3251 56.3525 41.3373 56.2547 41.3414 56.157C41.3618 55.6886 41.1703 57.0449 41.2844 56.5928C41.3373 56.3851 41.3903 56.1814 41.4514 55.9737C41.5776 55.5461 41.0563 56.7557 41.2844 56.3729C41.3292 56.2955 41.3658 56.214 41.4147 56.1366C41.7731 55.5461 41.0319 56.5399 41.2559 56.3158C41.3821 56.1896 41.5247 56.0674 41.6428 55.9371C41.0482 56.5846 41.0522 56.3566 41.317 56.1936C41.4228 56.1285 41.5247 56.0592 41.6346 56.0022C41.7202 55.9574 41.8057 55.9167 41.8912 55.8719C42.2985 55.652 41.0767 56.1692 41.5247 56.0307C41.6876 55.9819 41.8464 55.9208 42.0093 55.8719C42.2171 55.8149 42.4248 55.766 42.6325 55.7253C42.7425 55.7049 42.8565 55.6968 42.9624 55.6683C41.9075 55.9208 42.4166 55.7375 42.7221 55.709C44.897 55.4972 47.1126 55.7904 49.2672 56.0755C49.8578 56.1529 48.4608 55.9656 49.0513 56.047C49.202 56.0674 49.3487 56.0878 49.4994 56.1081C49.8007 56.1488 50.0981 56.1937 50.3995 56.2344C51.2181 56.3484 52.0367 56.4625 52.8554 56.5684C54.008 56.7191 55.1606 56.8616 56.3214 56.9431C58.7 57.11 61.1559 57.0042 63.3389 55.9737C65.522 54.9433 66.6258 52.915 67.4485 50.8338C69.045 46.7813 69.2405 42.2889 70.2628 38.0816C70.5031 37.0838 70.8086 36.1185 71.1629 35.1614C71.2892 34.8233 70.8045 35.9597 71.0082 35.5239C71.057 35.422 71.0978 35.3202 71.1466 35.2225C71.2403 35.031 71.3381 34.8396 71.444 34.6523C71.5499 34.4649 71.6517 34.302 71.7657 34.135C72.2178 33.4711 71.2322 34.7296 71.7616 34.1472C71.8634 34.0332 71.9734 33.9314 72.0834 33.8255C72.5151 33.4019 71.3299 34.3305 71.9571 33.9273C72.1038 33.8336 72.2626 33.7644 72.4133 33.6788C71.4888 34.2083 71.9571 33.8866 72.3522 33.7725C72.7839 33.6503 71.4399 33.8418 71.8879 33.8295C71.9612 33.8295 72.0345 33.8214 72.1078 33.8173C72.2748 33.8173 72.4377 33.8377 72.6047 33.8418C71.4806 33.8214 72.0712 33.7603 72.4418 33.8581C72.6699 33.9191 72.8817 34.0128 73.1097 34.0821C72.0427 33.7685 72.7513 33.9273 73.0609 34.0821C73.2279 34.1676 73.3949 34.2613 73.5578 34.3549C74.0139 34.6238 74.4538 34.9211 74.8774 35.2347C74.9833 35.3121 75.0851 35.3895 75.1869 35.4668C74.3683 34.86 74.8081 35.1736 74.9833 35.3161C75.1951 35.4872 75.4068 35.6623 75.6146 35.8375C76.0504 36.204 76.4739 36.5828 76.8935 36.9697C78.657 38.5867 80.3269 40.2973 82.1067 41.8979C84.0006 43.6003 86.0004 45.2091 88.3911 46.1459C90.676 47.0419 92.9853 46.6591 95.1358 45.6124C97.2863 44.5656 99.0335 42.965 100.728 41.4051C102.422 39.8452 104.153 38.0775 105.933 36.4891C106.348 36.1185 106.768 35.756 107.204 35.4058C107.306 35.3202 107.416 35.2388 107.517 35.1573C106.743 35.8008 107.13 35.4546 107.314 35.3161C107.517 35.1655 107.721 35.0188 107.929 34.8722C108.316 34.6075 108.719 34.3549 109.134 34.135C109.326 34.0332 109.529 33.9517 109.721 33.854C108.719 34.3753 109.35 34.0088 109.664 33.9151C109.851 33.8581 110.038 33.8214 110.226 33.7766C110.678 33.6666 109.322 33.8499 109.782 33.8336C109.871 33.8336 109.961 33.8214 110.055 33.8173C110.478 33.8092 110.857 34.0576 109.863 33.7562C110.055 33.8133 110.262 33.8703 110.458 33.9191C109.558 33.6911 109.851 33.6381 110.197 33.8377C110.543 34.0373 110.796 34.4486 110.083 33.7114C110.209 33.8418 110.356 33.9517 110.478 34.0821C110.543 34.1513 110.6 34.2246 110.666 34.2898C110.971 34.6156 110.132 33.5282 110.482 34.0536C110.69 34.3712 110.89 34.6889 111.061 35.027C111.158 35.2225 111.24 35.4302 111.342 35.6257C110.812 34.5586 111.268 35.4668 111.37 35.7642C111.712 36.7335 111.969 37.7354 112.197 38.7374C112.694 40.9571 113.028 43.2053 113.451 45.4372C113.875 47.6691 114.4 49.8807 115.341 51.9742C116.282 54.0676 117.919 55.6886 120.155 56.4584C122.204 57.163 124.558 57.0734 126.684 56.886C128.081 56.7598 129.47 56.5684 130.859 56.3769C131.433 56.2995 132.007 56.2181 132.582 56.1366C132.855 56.1 133.132 56.0633 133.404 56.0226C132.236 56.1855 133.498 56.0104 133.779 55.9778C134.911 55.8352 136.044 55.7171 137.184 55.6683C137.701 55.6438 138.223 55.6397 138.74 55.656C138.984 55.6642 139.225 55.6764 139.469 55.7008C139.546 55.709 139.624 55.7171 139.705 55.7253C140.41 55.7864 138.98 55.5949 139.461 55.6927C139.88 55.7782 140.284 55.8719 140.695 55.9982C141.31 56.1896 139.893 55.5949 140.593 55.9615C140.76 56.047 140.911 56.1529 141.07 56.2507C141.448 56.4869 140.426 55.6805 140.736 55.9982C140.797 56.0633 140.87 56.1203 140.931 56.1855C140.992 56.2507 141.045 56.3281 141.11 56.3892C140.446 55.7579 140.695 55.8027 140.846 56.0633C141.041 56.4014 141.102 56.886 140.825 55.8923C140.878 56.0796 140.943 56.267 140.996 56.4584C141.188 57.1467 140.947 55.6072 140.976 56.2547C140.984 56.4543 140.996 56.6539 140.992 56.8535C140.988 57.0652 140.951 57.273 140.947 57.4848C140.984 56.2873 140.984 57.2037 140.911 57.5581C140.699 58.5559 140.361 59.5212 139.986 60.4702C139.933 60.6005 139.88 60.7268 139.831 60.8571C139.62 61.3784 140.149 60.124 139.921 60.6453C139.827 60.8652 139.73 61.0852 139.632 61.301C139.371 61.8834 139.098 62.4618 138.825 63.0401C138.304 64.1276 137.771 65.211 137.249 66.2984C135.396 70.1839 132.639 75.6009 135.311 79.7633C136.557 81.702 138.483 83.0909 140.422 84.2842C142.361 85.4776 144.377 86.4795 146.364 87.5507C147.309 88.0598 148.25 88.5811 149.166 89.1431C149.614 89.416 150.058 89.7011 150.49 89.9984C150.661 90.1166 150.832 90.2387 150.999 90.3609C151.203 90.5076 151.516 90.8415 150.771 90.1776C150.861 90.255 150.959 90.3243 151.048 90.4017C151.394 90.6868 151.732 90.9881 152.042 91.314C152.188 91.4647 152.319 91.6276 152.457 91.7824C152.71 92.0634 152.14 91.4117 152.164 91.4036C152.176 91.3995 152.323 91.6276 152.335 91.6439C152.441 91.8027 152.539 91.9656 152.628 92.1367C152.983 92.8209 152.4 91.4076 152.571 91.9941C152.62 92.1652 152.661 92.3363 152.706 92.5114C152.816 92.9513 152.641 91.5991 152.645 92.0512C152.645 92.1408 152.653 92.2304 152.657 92.32C152.677 93.9165 154.046 95.4479 155.712 95.3746C157.377 95.3013 158.791 94.0306 158.766 92.32C158.701 87.3918 153.618 84.5408 149.826 82.4759C147.794 81.368 145.717 80.3376 143.733 79.1402C143.289 78.8714 142.853 78.5944 142.426 78.3052C142.238 78.179 142.055 78.0487 141.872 77.9142C141.79 77.8572 141.713 77.7921 141.632 77.735C142.511 78.35 141.994 78.0161 141.795 77.8532C141.461 77.5762 141.135 77.287 140.837 76.9693C140.699 76.8227 140.581 76.6639 140.442 76.5172C141.212 77.344 140.67 76.8186 140.491 76.5172C140.292 76.1833 140.251 75.6782 140.524 76.6924C140.487 76.5498 140.422 76.4154 140.381 76.2729C140.284 75.9063 140.349 75.3158 140.369 76.4317C140.369 76.1996 140.332 75.9674 140.336 75.7312C140.336 75.5194 140.361 75.3076 140.377 75.0958C140.41 74.5949 140.231 75.9674 140.324 75.4665C140.345 75.3524 140.361 75.2425 140.381 75.1284C140.479 74.6112 140.618 74.098 140.776 73.5929C140.923 73.1286 141.086 72.6725 141.261 72.2163C141.363 71.9556 141.465 71.6991 141.571 71.4425C141.786 70.9171 141.253 72.1715 141.485 71.6502C141.562 71.475 141.64 71.2958 141.717 71.1207C142.202 70.0292 142.727 68.9539 143.249 67.8828C144.369 65.5816 145.525 63.2641 146.34 60.8367C147.024 58.7921 147.497 56.3525 146.719 54.2631C144.788 49.0621 138.646 49.282 134.076 49.8318C132.659 50.0029 131.25 50.2065 129.837 50.402C129.539 50.4428 129.238 50.4835 128.941 50.5242C130.093 50.3654 128.981 50.5161 128.713 50.5527C128.134 50.626 127.552 50.6912 126.969 50.7482C125.857 50.8541 124.737 50.9274 123.617 50.8867C123.377 50.8786 123.133 50.8623 122.892 50.8419C122.778 50.8297 122.66 50.8093 122.546 50.8053C123.577 50.8541 123.186 50.8989 122.909 50.85C122.489 50.7727 122.09 50.6668 121.683 50.5364C121.072 50.3369 122.485 50.9397 121.793 50.569C121.63 50.4794 121.483 50.3654 121.32 50.2758C122.216 50.7808 121.748 50.6301 121.475 50.3532C121.214 50.0925 120.897 49.4653 121.475 50.4102C121.284 50.0966 121.068 49.8033 120.897 49.4734C120.795 49.282 120.709 49.0865 120.616 48.891C120.404 48.443 120.921 49.6771 120.75 49.2046C120.697 49.058 120.64 48.9154 120.587 48.7729C119.846 46.7242 119.467 44.5493 119.088 42.4111C118.689 40.1629 118.339 37.8983 117.744 35.6908C117.15 33.4834 116.331 31.3084 114.743 29.6915C113.016 27.928 110.507 27.317 108.145 27.9891C105.819 28.6529 103.844 30.2332 102.052 31.789C100.259 33.3449 98.5203 35.1247 96.7446 36.7783C95.9056 37.5603 95.0503 38.3178 94.1542 39.0347C93.7266 39.3809 94.7856 38.5622 94.3457 38.884C94.2398 38.9614 94.1339 39.0428 94.028 39.1202C93.8203 39.2709 93.6126 39.4175 93.3967 39.556C92.965 39.8411 92.5211 40.1058 92.0568 40.3298C91.959 40.3787 91.849 40.4154 91.7553 40.4724C92.6065 40.004 92.35 40.2362 92.0852 40.3258C91.8897 40.3909 91.6943 40.4602 91.4906 40.5131C91.3318 40.5538 91.1648 40.5742 91.0059 40.6149C92.0893 40.3258 91.4702 40.5701 91.0589 40.5579C90.9652 40.5579 90.8675 40.5457 90.7738 40.5416C90.3054 40.5253 91.6616 40.7086 91.2014 40.5987C91.0059 40.5498 90.8104 40.5131 90.6149 40.4561C90.4194 40.3991 90.2199 40.3054 90.0203 40.2443C91.12 40.5864 90.2484 40.3339 89.9388 40.171C89.5478 39.9633 89.1691 39.7311 88.8025 39.4827C88.5907 39.3401 88.3789 39.1894 88.1712 39.0387C88.0653 38.9614 87.9594 38.8799 87.8535 38.7984C88.7088 39.4257 88.1264 39.0102 87.9391 38.8555C87.043 38.1305 86.1877 37.3526 85.3447 36.5624C83.5811 34.9048 81.8868 33.1697 80.0458 31.5935C78.2049 30.0173 76.2825 28.49 73.9773 27.9239C71.672 27.3578 69.0288 27.9931 67.3792 29.8829C65.8519 31.6343 65.0373 33.8336 64.4671 36.0574C63.3797 40.3135 63.2086 44.8548 61.6406 48.9806C61.5998 49.0865 61.551 49.1924 61.5143 49.2983C61.8361 48.3371 61.7587 48.7403 61.6446 48.9765C61.551 49.168 61.4614 49.3635 61.3595 49.5508C61.2618 49.73 61.16 49.9051 61.05 50.0762C60.997 50.1577 60.94 50.235 60.8871 50.3165C60.6427 50.6953 61.4899 49.616 61.0744 50.0681C60.9522 50.2025 60.8341 50.3369 60.6997 50.4591C60.6549 50.4998 60.5246 50.5772 60.5002 50.6301C60.5002 50.6301 61.2048 50.1454 60.9075 50.3124C60.7445 50.402 60.5898 50.5079 60.4269 50.5975C60.1825 50.7319 59.8485 50.7442 60.8056 50.4509C60.6794 50.4916 60.5572 50.5446 60.4309 50.5853C60.0196 50.7197 59.596 50.7767 59.1765 50.8663C60.3413 50.6138 59.5023 50.8215 59.1765 50.8419C58.8873 50.8623 58.6022 50.8745 58.313 50.8786C57.2256 50.8949 56.1341 50.8134 55.0507 50.7034C54.4642 50.6423 53.8818 50.5731 53.2993 50.4998C53.1527 50.4794 53.002 50.4591 52.8554 50.4428C53.8899 50.5731 53.2993 50.5039 53.0713 50.4713C52.7699 50.4305 52.4725 50.3898 52.1712 50.345C50.7131 50.1414 49.255 49.9296 47.7928 49.7626C45.4672 49.4979 43.1009 49.3553 40.7916 49.8603C38.3316 50.398 36.344 52.0108 35.5254 54.4138C34.8004 56.5398 35.3339 59.008 36.0507 61.0648C36.902 63.5004 38.0668 65.8219 39.1909 68.1394C39.7123 69.2105 40.2295 70.2817 40.706 71.3732C40.763 71.5036 40.8201 71.638 40.8771 71.7683C40.4617 70.8478 40.702 71.3529 40.7875 71.5606C40.8934 71.8172 40.9952 72.0737 41.093 72.3303C41.2925 72.8598 41.4799 73.3974 41.6387 73.9432C41.7731 74.4034 41.8749 74.8677 41.9646 75.3402C42.099 76.0407 41.8994 74.4971 41.9401 75.1895C41.9564 75.4339 41.9727 75.6782 41.9686 75.9226C41.9605 76.3014 41.7446 76.896 42.0216 75.8004C41.9768 75.9837 41.9523 76.1711 41.8994 76.3543C41.875 76.4399 41.8424 76.5213 41.8139 76.6028C41.6835 77.0223 42.2008 75.8086 41.9849 76.1914C41.879 76.3747 41.7854 76.5621 41.6672 76.7413C41.2355 77.3888 42.1641 76.1833 41.7365 76.6598C41.6224 76.7861 41.5125 76.9123 41.3943 77.0345C41.0604 77.3766 40.6979 77.6821 40.3313 77.9876C39.9444 78.3134 40.9952 77.5029 40.5757 77.7961C40.478 77.8654 40.3802 77.9387 40.2825 78.0079C40.0788 78.1545 39.8752 78.293 39.6674 78.4315C39.2113 78.7329 38.747 79.0221 38.2786 79.299C34.3198 81.645 29.8396 83.3678 26.4103 86.5161C24.773 88.0231 23.4167 90.1736 23.5389 92.4829C23.6611 94.7922 24.9766 96.8775 26.7524 98.3926C30.3121 101.423 34.723 103.138 38.6818 105.549C39.1217 105.817 39.5575 106.094 39.9811 106.388C40.1806 106.526 40.3761 106.673 40.5757 106.815C40.9911 107.113 39.9403 106.302 40.3313 106.624C40.4494 106.722 40.5676 106.815 40.6857 106.913C41.0115 107.19 41.321 107.483 41.6061 107.801C41.8179 108.037 42.0827 108.559 41.5043 107.638C41.6184 107.821 41.7528 107.992 41.8627 108.18C41.9075 108.257 41.9442 108.339 41.989 108.416C42.2089 108.803 41.6876 107.585 41.8179 108.005C41.8709 108.18 41.932 108.347 41.9727 108.526C42.1478 109.304 41.936 107.732 41.9605 108.383C41.9686 108.624 41.9808 108.86 41.9686 109.096C41.9605 109.275 41.932 109.455 41.9238 109.634C41.9646 108.461 41.9727 109.267 41.9075 109.605C41.8016 110.127 41.6591 110.64 41.4962 111.149C41.3332 111.658 41.15 112.159 40.9504 112.656C40.8527 112.9 40.4209 113.861 40.8812 112.835C40.7631 113.1 40.6531 113.364 40.535 113.629C40.0259 114.766 39.476 115.886 38.9303 117.01C37.8184 119.295 36.6698 121.604 35.8919 124.031C35.2484 126.039 34.837 128.418 35.6272 130.442C36.5762 132.869 38.6818 134.393 41.2274 134.824C43.6141 135.232 45.9926 135.065 48.3834 134.771C49.8252 134.596 51.2629 134.385 52.7006 134.185C52.9613 134.148 53.9999 134.018 52.8595 134.161C53.1568 134.124 53.45 134.083 53.7473 134.046C54.3705 133.969 54.9977 133.9 55.6249 133.843C56.6839 133.749 57.751 133.688 58.8181 133.737C59.0584 133.749 59.2987 133.77 59.5349 133.79C59.8119 133.81 60.2069 133.957 59.1806 133.737C59.2905 133.761 59.4005 133.77 59.5105 133.79C59.9626 133.871 60.3739 134.022 60.8097 134.156C59.763 133.835 60.378 133.965 60.6794 134.144C60.9808 134.323 61.2333 134.674 60.5083 133.973C60.6346 134.095 60.7771 134.205 60.8993 134.332C60.9645 134.397 61.0215 134.466 61.0826 134.535C61.4939 134.987 60.6509 133.908 60.8952 134.287C61.1152 134.629 61.331 134.967 61.5143 135.334C61.6528 135.61 61.8809 136.388 61.5225 135.305C61.608 135.562 61.7179 135.81 61.8075 136.067C63.2575 140.262 63.4326 144.783 64.6056 149.051C65.188 151.169 66.0352 153.417 67.6358 154.989C69.4197 156.736 71.9775 157.343 74.356 156.569C76.6939 155.812 78.6529 154.244 80.4735 152.639C82.2941 151.034 83.9273 149.356 85.6746 147.735C86.1022 147.336 86.5339 146.945 86.9738 146.562C87.1856 146.375 87.4015 146.192 87.6173 146.013C87.8332 145.833 88.7781 145.129 87.8535 145.809C88.6559 145.222 89.4582 144.681 90.3461 144.233C90.5946 144.106 90.9612 144.07 90.0203 144.363C90.1221 144.33 90.2199 144.286 90.3176 144.249C90.5131 144.18 90.7086 144.119 90.9082 144.07C91.0059 144.045 91.1037 144.033 91.2014 144.009C91.6616 143.899 90.3054 144.082 90.7738 144.066C90.9978 144.058 91.2137 144.049 91.4377 144.058C92.0771 144.078 90.5049 143.874 91.2992 144.049C91.4661 144.086 91.6291 144.131 91.7879 144.184C92.1097 144.286 92.7206 144.673 91.7553 144.143C91.9875 144.269 92.2359 144.367 92.4681 144.493C92.8957 144.726 93.3112 144.99 93.7144 145.271C93.9302 145.418 94.138 145.577 94.3457 145.732C94.7815 146.057 93.7225 145.239 94.1542 145.581C94.2805 145.683 94.4027 145.78 94.529 145.882C95.4454 146.632 96.3169 147.434 97.1804 148.249C98.9358 149.906 100.626 151.637 102.471 153.189C104.206 154.651 106.226 156.256 108.515 156.72C110.914 157.205 113.362 156.549 114.987 154.647C117.989 151.14 118.396 146 119.182 141.638C119.565 139.52 120.005 137.431 120.746 135.407C120.917 134.934 120.4 136.173 120.612 135.72C120.66 135.623 120.701 135.521 120.75 135.423C120.832 135.248 120.921 135.077 121.015 134.91C121.108 134.743 121.198 134.592 121.304 134.437C121.748 133.774 120.77 135.036 121.288 134.454C121.406 134.319 121.536 134.197 121.666 134.075C122.098 133.664 120.897 134.588 121.548 134.181C121.711 134.079 121.886 134.01 122.049 133.916C121.239 134.393 121.398 134.169 121.683 134.075C121.813 134.034 121.939 133.985 122.07 133.949C122.241 133.9 122.412 133.859 122.583 133.822C122.909 133.753 123.711 133.749 122.542 133.806C123.068 133.782 123.589 133.717 124.118 133.713C125.214 133.704 126.31 133.79 127.397 133.904C127.983 133.965 128.57 134.038 129.152 134.112C129.38 134.14 129.967 134.226 128.937 134.083C129.087 134.104 129.234 134.124 129.385 134.144C129.735 134.193 130.085 134.242 130.431 134.291C131.836 134.486 133.242 134.69 134.655 134.845C139.111 135.342 145.314 135.305 146.829 130.006C147.46 127.799 146.918 125.383 146.161 123.282C145.285 120.867 144.128 118.561 143.012 116.252C142.483 115.165 141.97 114.069 141.481 112.961C141.253 112.44 141.782 113.69 141.566 113.169C141.514 113.039 141.461 112.908 141.408 112.782C141.306 112.53 141.208 112.273 141.114 112.016C140.935 111.532 140.772 111.039 140.63 110.538C140.499 110.078 140.41 109.617 140.32 109.149C140.222 108.652 140.402 110.021 140.373 109.52C140.365 109.414 140.353 109.304 140.345 109.198C140.328 108.958 140.328 108.717 140.341 108.477C140.385 107.667 140.165 109.235 140.316 108.616C140.353 108.465 140.389 108.314 140.434 108.163C140.459 108.082 140.503 108.005 140.524 107.923C140.336 108.77 140.202 108.616 140.361 108.334C140.467 108.147 140.573 107.968 140.691 107.789C141.029 107.267 140.108 108.473 140.634 107.874C140.768 107.719 140.911 107.569 141.057 107.426C141.212 107.276 141.371 107.129 141.534 106.986C141.77 106.779 142.585 106.261 141.632 106.885C142.491 106.327 143.31 105.724 144.198 105.207C146.205 104.029 148.295 102.999 150.327 101.871C153.981 99.8507 158.705 97.0364 158.766 92.3037C158.787 90.7071 157.345 89.1757 155.712 89.249C154.078 89.3223 152.681 90.589 152.657 92.3037L152.665 92.3241Z" fill="#FF4409"/>
<path d="M64.6792 64.0381C64.6792 64.0381 61.5309 80.244 65.844 81.3274C73.6965 83.2946 71.6438 80.0689 79.0035 67.1009" fill="#FAF1E7"/>
<path d="M62.3256 63.3865C61.9468 65.3456 61.678 67.3331 61.458 69.3166C61.1078 72.4812 60.8919 75.7517 61.5028 78.9C61.7676 80.2604 62.3174 81.7185 63.3723 82.6675C64.696 83.8567 66.6591 84.0807 68.3615 84.2599C69.6974 84.3984 71.0782 84.207 72.2674 83.5513C73.4567 82.8955 74.2835 81.8081 74.9433 80.684C75.823 79.177 76.4828 77.5438 77.216 75.9676C78.4174 73.3732 79.7086 70.8276 81.1178 68.3391C81.7491 67.2272 81.4191 65.6184 80.2421 64.9953C79.065 64.3721 77.5703 64.6858 76.8983 65.871C75.6642 68.0499 74.5156 70.2778 73.4445 72.5423C72.7317 74.0493 72.0719 75.5847 71.3307 77.0754C71.0659 77.609 70.789 78.1384 70.4631 78.6394C70.402 78.7331 70.341 78.8227 70.2758 78.9163C69.9581 79.3807 70.6627 78.4561 70.4102 78.7494C70.2636 78.9204 70.121 79.0874 69.954 79.2381C69.7504 79.4255 69.3961 79.5639 70.1536 79.0996C70.0803 79.1444 70.0111 79.2014 69.9337 79.2503C69.8563 79.2992 69.7789 79.3359 69.7056 79.3807C69.2494 79.6332 70.4021 79.1485 69.897 79.2992C69.7178 79.3521 69.5427 79.3969 69.3594 79.4377C68.9155 79.5354 70.1577 79.3766 69.5956 79.401C69.4694 79.4051 69.339 79.4173 69.2128 79.4173C68.9521 79.4173 68.6955 79.4051 68.4389 79.3807C68.2027 79.3562 67.6814 79.2462 68.6222 79.4132C68.4267 79.3807 68.2312 79.3521 68.0357 79.3155C67.7262 79.2585 67.4166 79.1933 67.1071 79.12C66.9035 79.0752 66.6998 79.0304 66.4962 78.9734C66.4554 78.9612 66.4106 78.9448 66.3699 78.9367C66.0156 78.8593 67.0012 79.2625 66.7324 79.0956C66.655 79.0467 66.5654 78.9897 66.484 78.9489C66.6632 79.0385 67.0338 79.4254 66.712 79.1037C66.6469 79.0385 66.5898 78.9571 66.5247 78.896C67.1275 79.4825 66.8139 79.2911 66.655 79.0222C66.5939 78.9204 66.545 78.8145 66.4921 78.7127C66.2681 78.2932 66.7405 79.3725 66.5817 78.9245C66.484 78.6475 66.3944 78.3665 66.3251 78.0773C66.2559 77.7882 66.1989 77.4949 66.15 77.2017C66.0482 76.5622 66.1988 77.6497 66.1663 77.3361C66.1459 77.1446 66.1215 76.9492 66.1052 76.7577C66.0441 76.0409 66.0196 75.3241 66.0196 74.6073C66.0196 73.1003 66.1215 71.5933 66.2681 70.0945C66.3455 69.3288 66.4351 68.5631 66.5328 67.7974C66.5817 67.4024 66.4351 68.502 66.4921 68.111C66.5043 68.0296 66.5165 67.9481 66.5247 67.8667C66.5491 67.6834 66.5776 67.5042 66.6021 67.3209C66.6428 67.0399 66.6876 66.7588 66.7324 66.4819C66.8261 65.8872 66.9238 65.2885 67.0379 64.698C67.2822 63.4476 66.6876 62.0017 65.3313 61.6922C64.1217 61.4152 62.5862 62.0587 62.3256 63.3987V63.3865Z" fill="#FF4409"/>
<path d="M87.5386 67.9189C87.5386 67.9189 84.3902 84.1249 88.7034 85.2083C96.5559 87.1755 94.5032 83.9497 101.863 70.9817" fill="#FAF1E7"/>
<path d="M85.1791 67.2674C84.8003 69.2264 84.5315 71.214 84.3115 73.1975C83.9613 76.3621 83.7454 79.6326 84.3564 82.7809C84.6211 84.1412 85.1709 85.5993 86.2258 86.5483C87.5495 87.7376 89.5126 87.9616 91.215 88.1408C92.551 88.2793 93.9316 88.0879 95.1209 87.4321C96.3102 86.7764 97.137 85.6889 97.7968 84.5648C98.6766 83.0579 99.3363 81.4247 100.069 79.8485C101.271 77.254 102.562 74.7085 103.971 72.22C104.603 71.1081 104.273 69.4993 103.096 68.8761C101.919 68.253 100.424 68.5666 99.7518 69.7518C98.5177 71.9308 97.3691 74.1587 96.298 76.4232C95.5852 77.9301 94.9254 79.4656 94.1842 80.9563C93.9194 81.4898 93.6425 82.0193 93.3167 82.5203C93.2556 82.6139 93.1945 82.7035 93.1293 82.7972C92.8116 83.2615 93.5162 82.337 93.2637 82.6302C93.1171 82.8013 92.9745 82.9683 92.8076 83.119C92.6039 83.3063 92.2496 83.4448 93.0071 82.9805C92.9338 83.0253 92.8646 83.0823 92.7872 83.1312C92.7098 83.1801 92.6324 83.2167 92.5591 83.2615C92.103 83.514 93.2556 83.0294 92.7505 83.1801C92.5713 83.233 92.3962 83.2778 92.2129 83.3185C91.769 83.4163 93.0112 83.2574 92.4491 83.2819C92.3229 83.2859 92.1925 83.2982 92.0663 83.2982C91.8056 83.2982 91.5491 83.286 91.2925 83.2615C91.0562 83.2371 90.5349 83.1271 91.4757 83.2941C91.2802 83.2615 91.0847 83.233 90.8893 83.1964C90.5797 83.1393 90.2702 83.0742 89.9606 83.0008C89.757 82.956 89.5533 82.9113 89.3497 82.8542C89.309 82.842 89.2641 82.8257 89.2234 82.8176C88.8691 82.7402 89.8547 83.1434 89.5859 82.9764C89.5085 82.9275 89.4189 82.8705 89.3375 82.8298C89.5167 82.9194 89.8873 83.3063 89.5656 82.9846C89.5004 82.9194 89.4433 82.8379 89.3782 82.7768C89.981 83.3633 89.6674 83.1719 89.5085 82.9031C89.4474 82.8013 89.3986 82.6954 89.3456 82.5936C89.1216 82.1741 89.5941 83.2534 89.4352 82.8053C89.3375 82.5284 89.2479 82.2474 89.1786 81.9582C89.1094 81.669 89.0524 81.3758 89.0035 81.0825C88.9017 80.4431 89.0524 81.5305 89.0198 81.2169C88.9994 81.0255 88.975 80.83 88.9587 80.6386C88.8976 79.9218 88.8732 79.2049 88.8732 78.4881C88.8732 76.9812 88.975 75.4742 89.1216 73.9754C89.199 73.2097 89.2886 72.444 89.3863 71.6783C89.4352 71.2832 89.2886 72.3829 89.3456 71.9919C89.3578 71.9104 89.37 71.829 89.3782 71.7475C89.4026 71.5642 89.4312 71.385 89.4556 71.2018C89.4963 70.9207 89.5411 70.6397 89.5859 70.3627C89.6796 69.7681 89.7773 69.1694 89.8914 68.5788C90.1357 67.3285 89.5411 65.8826 88.1848 65.573C86.9752 65.2961 85.4397 65.9396 85.1791 67.2796V67.2674Z" fill="#FF4409"/>
<path d="M54.8223 92.3242C54.8223 92.3242 91.2703 114.656 109.598 97.957L54.8223 92.3242Z" fill="#FAF1E7"/>
<path d="M53.5891 94.4339C54.8314 95.1955 56.1184 95.8839 57.4095 96.5599C60.7492 98.3113 64.1908 99.8793 67.6935 101.28C71.9903 102.999 76.4175 104.433 80.9506 105.382C85.7851 106.392 90.8192 106.942 95.7474 106.376C100.676 105.809 105.665 104.156 109.742 101.003C110.287 100.584 110.817 100.148 111.33 99.6838C112.279 98.8245 112.271 97.0894 111.33 96.226C110.316 95.2933 108.886 95.3096 107.872 96.226C107.656 96.4215 107.437 96.617 107.208 96.8043C107.103 96.8899 107.001 96.9794 106.895 97.065C106.834 97.1139 106.773 97.1627 106.716 97.2116C106.41 97.4601 107.123 96.9061 106.891 97.0772C106.43 97.4152 105.97 97.7533 105.49 98.0628C104.533 98.6819 103.522 99.2277 102.484 99.6961C102.358 99.7531 102.211 99.8427 102.077 99.8753C102.02 99.8916 102.643 99.6431 102.402 99.7368C102.333 99.7653 102.264 99.7938 102.195 99.8223C101.918 99.9323 101.641 100.038 101.364 100.14C100.838 100.327 100.309 100.498 99.7754 100.653C98.6798 100.967 97.5679 101.211 96.4438 101.39C96.2972 101.415 96.1465 101.435 95.9999 101.46C95.9429 101.468 95.8899 101.476 95.8329 101.484C95.5396 101.529 96.4438 101.407 96.1465 101.443C95.8492 101.48 95.5478 101.517 95.2464 101.545C94.6803 101.602 94.1141 101.643 93.5439 101.671C92.375 101.728 91.2061 101.728 90.0413 101.68C88.8764 101.631 87.6831 101.533 86.5101 101.394C86.3757 101.378 86.2413 101.362 86.1028 101.346C85.5041 101.268 86.5183 101.407 86.1721 101.358C85.8625 101.313 85.553 101.268 85.2475 101.223C84.6692 101.134 84.0949 101.036 83.5166 100.926C78.9916 100.079 74.5644 98.7186 70.2675 97.0731C69.29 96.6984 68.3207 96.3034 67.3514 95.9001C67.1151 95.8024 67.7749 96.0793 67.7057 96.0508C67.6446 96.0264 67.5835 95.9979 67.5224 95.9735C67.4002 95.9205 67.2821 95.8716 67.1599 95.8187C66.9237 95.7169 66.6875 95.615 66.4513 95.5091C66.0236 95.3218 65.5959 95.1304 65.1683 94.9349C63.6532 94.2466 62.1544 93.5216 60.6719 92.76C59.1282 91.9698 57.6335 91.1105 56.1225 90.2592C56.1021 90.247 56.0817 90.2348 56.0614 90.2226C54.9698 89.5546 53.3244 89.9497 52.7176 91.0982C52.1107 92.2468 52.4284 93.7293 53.5932 94.4421L53.5891 94.4339Z" fill="#FF4409"/>
<path d="M108.564 90.3535C108.389 92.7484 108.251 95.3061 109.44 97.3955C110.572 99.379 112.759 100.589 115.004 101.024C117.248 101.46 119.561 101.22 121.822 100.902" fill="#FAF1E7"/>
<path d="M106.119 90.3537C105.899 93.4246 105.879 96.8092 107.834 99.3791C109.919 102.124 113.08 103.399 116.452 103.66C118.468 103.815 120.48 103.533 122.472 103.257C123.034 103.179 123.661 102.597 123.934 102.132C124.24 101.607 124.37 100.837 124.179 100.251C123.987 99.6643 123.621 99.09 123.054 98.7886C122.431 98.4587 121.861 98.4465 121.173 98.5442C121.042 98.5646 120.912 98.5809 120.786 98.5972C121.112 98.5524 121.132 98.5483 120.851 98.5849C120.623 98.6094 120.395 98.642 120.167 98.6664C119.678 98.7193 119.189 98.7601 118.7 98.7886C118.244 98.813 117.788 98.8252 117.332 98.813C116.913 98.8049 116.371 98.8456 115.972 98.7275C116.57 98.9067 115.902 98.7112 115.752 98.6868C115.568 98.6542 115.389 98.6135 115.21 98.5727C114.864 98.4872 114.518 98.3854 114.18 98.2632C114.082 98.2265 113.988 98.194 113.89 98.1532C114.237 98.3039 114.29 98.3243 114.049 98.2184C113.911 98.1532 113.772 98.088 113.634 98.0188C113.296 97.8437 112.97 97.6482 112.656 97.4283C112.159 97.078 112.962 97.7215 112.612 97.3916C112.465 97.2531 112.31 97.1269 112.168 96.9802C112.062 96.8743 111.964 96.7562 111.862 96.6503C111.699 96.4508 111.732 96.4996 111.96 96.7929C111.899 96.7114 111.842 96.63 111.785 96.5485C111.699 96.4223 111.622 96.2919 111.544 96.1616C111.487 96.0638 111.435 95.962 111.382 95.8602C111.268 95.6158 111.28 95.6565 111.418 95.9824C111.223 95.6932 111.141 95.1882 111.064 94.8583C111.019 94.6668 110.991 94.4713 110.95 94.2758C110.921 94.0885 110.929 94.1659 110.978 94.5039C110.966 94.3899 110.954 94.2758 110.942 94.1618C110.905 93.7586 110.889 93.3595 110.885 92.9562C110.877 92.0887 110.938 91.2212 110.999 90.3577C111.092 89.0789 109.809 87.857 108.555 87.914C107.154 87.9751 106.209 88.9893 106.111 90.3577L106.119 90.3537Z" fill="#FF4409"/>
<path d="M78.8375 84.3256C75.9498 82.5539 72.0928 80.8067 69.4332 82.9042C67.0139 84.8103 67.5353 88.9117 69.7509 91.0459C71.9665 93.18 75.2248 93.7869 78.2958 94.0028" fill="#FAF1E7"/>
<path d="M80.0705 82.2156C77.9201 80.9001 75.5945 79.8045 73.0611 79.5438C70.5278 79.2831 67.9171 80.4113 66.4712 82.5944C65.2331 84.4638 65.1231 87.0542 65.8155 89.1435C66.5812 91.4488 68.1655 93.2775 70.2875 94.4505C72.7394 95.8068 75.5374 96.2466 78.2948 96.4462C79.5737 96.5399 80.7955 95.2569 80.7385 94.0025C80.6774 92.6014 79.6633 91.6565 78.2948 91.5588C77.8427 91.5262 77.3865 91.4854 76.9385 91.4366C76.8326 91.4244 76.6371 91.3592 76.5394 91.3877C76.5842 91.3755 77.1462 91.4814 76.7104 91.4081C76.4457 91.3633 76.181 91.3225 75.9162 91.2696C75.6922 91.2248 73.2974 90.5487 73.3096 90.5243C73.334 90.4876 73.7983 90.7483 73.4603 90.5853C73.3422 90.5283 73.2241 90.4754 73.106 90.4143C72.9186 90.3206 72.7353 90.2229 72.5561 90.117C72.3525 89.9989 72.157 89.8726 71.9615 89.7382C71.8759 89.6812 71.7945 89.6079 71.7089 89.5549L71.9574 89.7423C71.8759 89.6771 71.7945 89.6079 71.7171 89.5386C71.5745 89.4124 71.432 89.278 71.3017 89.1395C71.2406 89.0743 71.1876 89.0091 71.1265 88.944C70.8659 88.6711 71.2446 89.0987 71.2609 89.1313C71.0736 88.7851 70.817 88.4797 70.6378 88.1213C70.6011 88.052 70.5685 87.9502 70.5237 87.881C70.8414 88.3656 70.6704 88.2597 70.5971 88.0357C70.54 87.8687 70.483 87.7018 70.4342 87.5307C70.3812 87.3393 70.3445 87.1479 70.2997 86.9524C70.2549 86.7569 70.312 86.5654 70.3283 87.213C70.3283 87.0827 70.2997 86.9524 70.2916 86.8261C70.2712 86.4799 70.312 86.1459 70.3201 85.8038C70.2957 86.5736 70.2957 86.036 70.3608 85.7753C70.4097 85.5961 70.4912 85.425 70.536 85.2458C70.3894 85.8405 70.3527 85.6368 70.4708 85.4372C70.5115 85.368 70.5482 85.2906 70.593 85.2214C70.6378 85.1521 70.6867 85.0829 70.7274 85.0137C70.874 84.7449 70.2997 85.4902 70.6093 85.1644C70.7274 85.0422 70.8455 84.9241 70.9636 84.8019C71.094 84.6675 71.2487 84.6797 70.7885 84.9241C70.9188 84.8548 71.041 84.7489 71.1673 84.6756C71.2528 84.6267 71.3424 84.5819 71.4279 84.5331C71.6234 84.4272 71.7008 84.5249 71.2487 84.6064C71.432 84.5738 71.6194 84.4801 71.8026 84.4394C71.8515 84.4272 72.0348 84.415 72.0877 84.3824C71.7823 84.5697 71.5868 84.4353 71.9452 84.4109C72.1651 84.3946 72.3891 84.3946 72.609 84.4027C72.7353 84.4068 72.8575 84.4231 72.9837 84.4312C73.2933 84.4516 72.4217 84.3294 72.8656 84.415C73.1222 84.4638 73.3788 84.5168 73.6313 84.5819C74.1527 84.7204 74.6455 84.9526 75.1587 85.1033C75.1016 85.087 74.6414 84.8711 75.0283 85.0544C75.179 85.1236 75.3297 85.1929 75.4763 85.2621C75.7248 85.3802 75.9692 85.5065 76.2095 85.6368C76.6819 85.8893 77.1462 86.1581 77.6024 86.4392C78.6939 87.1071 80.3394 86.7121 80.9462 85.5635C81.5531 84.415 81.2354 82.9324 80.0705 82.2197V82.2156Z" fill="#FF4409"/>
</svg>
