<svg width="86" height="83" viewBox="0 0 86 83" fill="none" xmlns="http://www.w3.org/2000/svg">
<path d="M84.0639 41.0571C84.0639 44.9399 73.6193 47.122 72.4829 50.6243C71.3051 54.256 78.4287 62.1536 76.2311 65.1744C74.0101 68.2262 64.2825 63.8775 61.2306 66.0984C58.2098 68.2987 59.3514 78.9039 55.7223 80.0816C52.22 81.218 46.9239 72.0029 43.0437 72.0029C39.1635 72.0029 33.8674 81.218 30.3651 80.0816C26.7334 78.9039 27.8776 68.2961 24.8568 66.0984C21.8049 63.8775 12.0772 68.2262 9.8563 65.1744C7.65606 62.1536 14.7822 54.2534 13.6045 50.6243C12.4681 47.122 2.02344 44.9373 2.02344 41.0571C2.02344 37.1769 12.4681 34.9922 13.6045 31.49C14.7822 27.8583 7.65864 19.9607 9.8563 16.9399C12.0772 13.888 21.8049 18.2367 24.8568 16.0158C27.8776 13.8156 26.736 3.2104 30.3651 2.03262C33.8674 0.896265 39.1635 10.1114 43.0437 10.1114C46.9239 10.1114 52.22 0.896265 55.7223 2.03262C59.3539 3.2104 58.2098 13.8181 61.2306 16.0158C64.2825 18.2367 74.0101 13.888 76.2311 16.9399C78.4313 19.9607 71.3051 27.8609 72.4829 31.49C73.6193 34.9922 84.0639 37.1769 84.0639 41.0571Z" fill="#FAF1E7"/>
<path d="M82.122 41.0575C82.122 41.1145 82.1168 41.1714 82.1143 41.2284C82.1143 41.5157 82.2256 40.6563 82.1531 40.9359C82.1246 41.0472 82.0987 41.1559 82.0677 41.2646C81.959 41.6374 82.3291 40.7392 82.1039 41.174C82.0392 41.3009 81.9615 41.4173 81.8839 41.5364C81.6638 41.8729 82.2307 41.1352 81.9538 41.4484C81.8658 41.5494 81.7778 41.6503 81.682 41.7461C81.462 41.9713 81.2212 42.1706 80.9805 42.3725C80.7397 42.5744 81.3972 42.0645 81.1306 42.256C81.0763 42.2948 81.0245 42.3337 80.9727 42.3725C80.8537 42.4579 80.732 42.5434 80.6103 42.6262C80.3075 42.8307 79.9968 43.0248 79.6836 43.2138C79.0676 43.5813 78.436 43.9256 77.8018 44.2647C76.5464 44.9351 75.2676 45.5771 74.0666 46.3459C72.8655 47.1147 71.7007 47.9715 71.0095 49.1907C69.4383 51.9759 71.271 55.4005 72.4953 57.9425C72.8267 58.6336 73.1684 59.3195 73.4945 60.0107C73.6524 60.3472 73.8077 60.6837 73.9552 61.0254C73.9785 61.0797 74.0018 61.1367 74.0277 61.191C74.1727 61.5224 73.8362 60.7251 73.9708 61.0564C74.0459 61.2454 74.1235 61.4344 74.1934 61.6233C74.416 62.2161 74.592 62.814 74.7111 63.4353C74.7447 63.6165 74.7007 63.8443 74.68 63.1971C74.68 63.2644 74.6956 63.3317 74.6982 63.399C74.7085 63.5285 74.7111 63.6605 74.7085 63.7899C74.7033 64.0436 74.5506 64.3723 74.7396 63.7019C74.7085 63.8158 74.6956 63.9323 74.6593 64.0462C74.5144 64.5069 74.9 63.6217 74.7007 63.9504C74.5687 64.1704 74.3332 64.318 74.7836 63.8909C74.7008 63.9685 74.6231 64.0565 74.5428 64.1394C74.3461 64.3413 74.9958 63.8313 74.7551 63.9789C74.7059 64.0099 74.6567 64.0462 74.6076 64.0747C74.504 64.1368 74.3927 64.1834 74.2866 64.2403C74.9001 63.8986 74.5506 64.1316 74.3332 64.1963C74.2038 64.2351 74.0717 64.2662 73.9423 64.2947C73.8724 64.3076 73.8051 64.318 73.7352 64.3335C73.4298 64.3956 74.3383 64.274 73.8905 64.3128C72.5057 64.4319 71.1234 64.2817 69.7515 64.1005C69.6065 64.0824 69.2338 64.0281 69.8887 64.1187C69.7929 64.1057 69.6997 64.0928 69.604 64.0798C69.4461 64.0591 69.2856 64.0358 69.1277 64.0125C68.5763 63.9349 68.0224 63.8598 67.471 63.7847C66.7359 63.6864 66.0007 63.5958 65.263 63.5414C63.9377 63.4431 62.4855 63.4327 61.2327 63.9323C60.5209 64.217 59.8659 64.5975 59.3664 65.1929C58.8228 65.84 58.4759 66.5104 58.1549 67.287C57.6398 68.5347 57.3836 69.8807 57.1402 71.2034C56.8814 72.6168 56.6665 74.043 56.3326 75.4434C56.1851 76.0673 56.0039 76.6781 55.7813 77.2813C55.7243 77.434 55.5742 77.6747 55.8667 77.0871C55.8356 77.1492 55.8097 77.2165 55.7787 77.2813C55.7217 77.4055 55.6596 77.5272 55.5923 77.6488C55.5405 77.7446 55.4836 77.8378 55.4266 77.931C55.393 77.9853 55.3567 78.0345 55.3205 78.0889C55.1005 78.4228 55.6311 77.7317 55.437 77.9388C55.3568 78.0242 55.2817 78.1148 55.1963 78.195C54.8468 78.5238 55.6053 77.9387 55.2817 78.1406C55.1963 78.195 55.1057 78.2416 55.0203 78.2934C54.8727 78.3814 54.7019 78.3296 55.3076 78.1743C55.2351 78.1924 55.1678 78.2235 55.0953 78.2442C55.0409 78.2571 54.984 78.2649 54.9296 78.2804C55.5095 78.1044 55.424 78.2338 55.2221 78.2364C55.1082 78.2364 54.9944 78.2364 54.8805 78.2313C54.588 78.2235 55.4499 78.3374 55.1626 78.2675C55.1031 78.252 55.0435 78.2442 54.984 78.2287C54.8624 78.1976 54.7433 78.1588 54.6242 78.1174C54.4611 78.0656 54.2696 77.918 54.8442 78.2157C54.7847 78.1846 54.72 78.1614 54.6579 78.1303C54.531 78.0682 54.4042 78.0009 54.2825 77.931C54.0055 77.7731 53.7363 77.5945 53.4775 77.4081C53.3403 77.3097 52.9002 76.9396 53.4438 77.39C53.3118 77.2813 53.1772 77.1751 53.0452 77.0664C52.7475 76.8179 52.455 76.5591 52.1677 76.2976C51.0443 75.2726 49.983 74.1854 48.8544 73.1655C47.7879 72.2026 46.6464 71.2112 45.3211 70.6262C44.5756 70.2974 43.812 70.0463 42.9811 70.0645C42.1501 70.0826 41.3891 70.3311 40.6333 70.6805C39.2795 71.307 38.1095 72.3527 37.0197 73.3519C35.9014 74.3769 34.8402 75.4667 33.709 76.4788C33.4657 76.6963 33.2197 76.9111 32.9687 77.1182C32.8366 77.2269 32.3164 77.6152 32.8962 77.1855C32.7435 77.2994 32.5933 77.4133 32.438 77.522C32.2102 77.6799 31.9773 77.83 31.7339 77.9672C31.6097 78.0345 31.4854 78.0966 31.3586 78.1588C31.1955 78.239 30.9884 78.2416 31.576 78.0708C31.4932 78.094 31.4156 78.1329 31.3327 78.1588C31.2136 78.1976 31.0946 78.2235 30.9755 78.2545C30.582 78.3503 31.5786 78.2157 31.0842 78.2364C30.9884 78.2416 30.8952 78.2313 30.7995 78.2313C30.5121 78.2261 31.3689 78.3477 31.0946 78.2675C31.0221 78.2468 30.9496 78.2287 30.8771 78.2105C30.5096 78.1122 31.4 78.4797 30.9859 78.252C30.8875 78.1976 30.7995 78.1303 30.7063 78.0708C31.2783 78.428 30.9936 78.2985 30.8409 78.151C30.6804 77.9957 30.4423 77.5789 30.8305 78.1846C30.6908 77.9672 30.5432 77.7576 30.4216 77.5272C30.3568 77.4029 30.3025 77.2761 30.2404 77.1492C30.1213 76.9033 30.3672 77.4392 30.3517 77.4133C30.3025 77.3356 30.2766 77.2243 30.2455 77.1363C30.0203 76.5306 29.8521 75.9016 29.7071 75.2726C29.0522 72.433 28.8866 69.4484 27.701 66.7564C27.1057 65.4051 26.122 64.4008 24.732 63.8831C23.4559 63.4094 21.9778 63.4431 20.6421 63.5544C19.7413 63.6268 18.8457 63.7511 17.9527 63.8727C17.5877 63.9219 17.2227 63.9737 16.8577 64.0255C16.6688 64.0514 16.4772 64.0772 16.2882 64.1057C15.9129 64.1575 16.8008 64.0384 16.4254 64.0876C16.3012 64.1031 16.1743 64.1212 16.0501 64.1368C15.3279 64.2274 14.6057 64.3076 13.8783 64.3413C13.5729 64.3568 13.2674 64.362 12.962 64.3568C12.8041 64.3542 12.6488 64.3464 12.4909 64.3361C12.2657 64.3205 11.6755 64.1652 12.4158 64.3413C12.1725 64.2817 11.924 64.2533 11.6833 64.1756C11.6211 64.1575 11.5616 64.1316 11.5021 64.1135C11.2173 64.0255 11.9965 64.3516 11.735 64.2144C11.6108 64.1471 11.4891 64.0824 11.3701 64.0099C11.0413 63.808 11.792 64.3956 11.4477 64.0591C11.4063 64.0177 11.3701 63.9737 11.3286 63.9349C11.1293 63.7381 11.6315 64.3878 11.4917 64.1445C11.4451 64.0617 11.3959 63.9789 11.3468 63.8986C11.2018 63.6553 11.5331 64.4241 11.4529 64.1523C11.4322 64.0772 11.4037 64.0073 11.383 63.9323C11.3675 63.8753 11.3597 63.8158 11.3442 63.7588C11.2717 63.4715 11.3934 64.3335 11.3804 64.0358C11.3752 63.909 11.3623 63.7847 11.3649 63.6579C11.3649 63.5466 11.3752 63.4379 11.3804 63.3292C11.3908 63.1557 11.4814 62.9072 11.3416 63.5725C11.3597 63.4793 11.3701 63.3835 11.3882 63.2903C11.5072 62.6639 11.7117 62.053 11.9421 61.4576C12.0042 61.2946 12.0741 61.1315 12.1389 60.9684C11.8748 61.6389 12.1259 61.0047 12.1932 60.8519C12.3433 60.5103 12.5012 60.1712 12.6617 59.8347C13.0034 59.1125 13.358 58.398 13.7023 57.6784C14.3624 56.2962 15.0535 54.8725 15.4159 53.3763C15.7654 51.9423 15.8068 50.384 15.0043 49.0845C14.2537 47.8705 13.0578 46.9956 11.8671 46.2501C10.653 45.4917 9.36913 44.8471 8.10853 44.1715C7.45363 43.8195 6.80132 43.4623 6.16714 43.074C5.9057 42.9135 5.64685 42.7478 5.39317 42.5744C5.26116 42.4838 5.13173 42.3906 5.0023 42.2974C4.87288 42.2043 4.67097 41.992 5.14726 42.4139C5.07219 42.3466 4.98937 42.2897 4.91171 42.225C4.7124 42.0567 4.51825 41.8807 4.33705 41.6917C4.24387 41.596 4.16103 41.4924 4.07302 41.3941C3.8737 41.1688 4.38105 41.8341 4.22057 41.583C4.17656 41.5131 4.12739 41.4484 4.08338 41.3785C4.02126 41.2776 3.97207 41.1688 3.91253 41.0627C3.8064 40.8738 4.03938 41.3682 4.03938 41.3656C4.04715 41.3371 3.99278 41.2336 3.98243 41.2025C3.94878 41.0938 3.93325 40.9825 3.90478 40.8738C4.08338 41.5545 3.94878 41.2077 3.95137 40.9385C3.95137 40.5476 3.82712 41.5364 3.93843 41.0653C3.96172 40.9644 4.00314 40.866 4.03161 40.7676C4.08597 40.5631 3.78311 41.2905 3.91512 41.0446C3.9436 40.9928 3.96689 40.9385 3.99537 40.8867C4.06526 40.7599 4.1455 40.646 4.22316 40.5243C4.38365 40.2758 3.87629 40.9385 4.07561 40.7133C4.11962 40.6641 4.16103 40.6123 4.20245 40.5631C4.29304 40.4622 4.38883 40.3638 4.4846 40.268C4.69427 40.0635 4.92724 39.8875 5.14726 39.6934C4.60626 40.1697 5.04372 39.7762 5.19385 39.6701C5.32587 39.5769 5.46047 39.4837 5.59766 39.3957C5.8824 39.2093 6.16973 39.0281 6.46482 38.8547C7.08348 38.4871 7.71766 38.1429 8.35185 37.8064C9.63058 37.1256 10.93 36.4707 12.144 35.6812C13.2649 34.9512 14.4892 34.0504 15.1156 32.8261C15.8249 31.4412 15.7446 29.901 15.3331 28.4333C14.9215 26.9656 14.2097 25.4928 13.5315 24.0872C13.1976 23.3987 12.8585 22.7127 12.5349 22.019C12.377 21.6825 12.2243 21.346 12.0767 21.0069C12.0198 20.8749 11.8955 20.5409 12.1311 21.1389C12.0974 21.0561 12.0638 20.9758 12.0301 20.893C11.9551 20.7066 11.8826 20.5202 11.8153 20.3313C11.6004 19.7411 11.4633 19.1509 11.3338 18.5374C11.484 19.257 11.3726 18.8429 11.3623 18.6462C11.3545 18.5167 11.3519 18.3873 11.3571 18.2579C11.3597 18.1957 11.3675 18.1336 11.3701 18.0715C11.383 17.7738 11.2613 18.6358 11.3338 18.3485C11.3675 18.2165 11.4011 18.087 11.4399 17.955C11.5202 17.6832 11.1889 18.452 11.3338 18.2087C11.3623 18.1595 11.3856 18.1077 11.4167 18.0586C11.6444 17.6832 11.1733 18.3148 11.3157 18.1725C11.3959 18.0922 11.4865 18.0146 11.5616 17.9317C11.1837 18.3433 11.1863 18.1983 11.3545 18.0948C11.4218 18.0534 11.4865 18.0094 11.5564 17.9731C11.6108 17.9447 11.6652 17.9188 11.7195 17.8903C11.9784 17.7505 11.2018 18.0793 11.4865 17.9913C11.5901 17.9602 11.691 17.9214 11.7946 17.8903C11.9266 17.8541 12.0586 17.823 12.1906 17.7971C12.2605 17.7842 12.333 17.779 12.4003 17.7609C11.7299 17.9214 12.0534 17.8049 12.2476 17.7868C13.6298 17.6522 15.038 17.8385 16.4073 18.0197C16.7826 18.0689 15.8948 17.9498 16.2701 18.0016C16.3659 18.0146 16.4591 18.0275 16.5549 18.0404C16.7464 18.0663 16.9354 18.0948 17.1269 18.1207C17.6472 18.1932 18.1675 18.2656 18.6878 18.3329C19.4203 18.4287 20.1529 18.5193 20.8906 18.5711C22.4023 18.6772 23.9632 18.6099 25.3506 17.955C26.7381 17.3001 27.4396 16.011 27.9625 14.6883C28.9772 12.1127 29.1014 9.2576 29.7511 6.58366C29.9038 5.94947 30.098 5.336 30.3232 4.72769C30.4034 4.51285 30.0954 5.23504 30.2248 4.95807C30.2559 4.89335 30.2818 4.82864 30.3128 4.76652C30.3724 4.64486 30.4345 4.5232 30.5018 4.40413C30.5691 4.28506 30.6338 4.18151 30.7063 4.07538C30.9936 3.65345 30.3672 4.4533 30.7037 4.08315C30.7684 4.01067 30.8383 3.94596 30.9082 3.87866C31.1826 3.60945 30.4293 4.19964 30.828 3.94337C30.9211 3.88384 31.0221 3.83983 31.1179 3.78547C30.5303 4.12198 30.8279 3.91749 31.079 3.84501C31.3534 3.76735 30.4992 3.88901 30.7839 3.88124C30.8305 3.88124 30.8771 3.87607 30.9237 3.87348C31.0299 3.87348 31.1334 3.88642 31.2395 3.88901C30.5251 3.87607 30.9004 3.83724 31.136 3.89936C31.2809 3.93819 31.4155 3.99773 31.5605 4.04174C30.8823 3.84242 31.3327 3.94337 31.5294 4.04174C31.6356 4.0961 31.7417 4.15563 31.8452 4.21516C32.1352 4.38601 32.4147 4.57497 32.6839 4.77428C32.7512 4.82347 32.8159 4.87265 32.8806 4.92183C32.3604 4.53614 32.6399 4.73546 32.7512 4.82606C32.8858 4.93478 33.0204 5.04608 33.1524 5.15739C33.4294 5.39036 33.6986 5.63109 33.9652 5.877C35.0861 6.90464 36.1474 7.99181 37.2785 9.0091C38.4822 10.0911 39.7532 11.1136 41.2726 11.7089C42.7248 12.2784 44.1925 12.0351 45.5592 11.3698C46.9259 10.7046 48.0364 9.68729 49.1132 8.69589C50.1901 7.70448 51.2902 6.58107 52.4214 5.57154C52.6854 5.33599 52.952 5.10562 53.229 4.88301C53.2937 4.82865 53.3636 4.77687 53.4283 4.7251C52.9365 5.13409 53.1824 4.91407 53.2989 4.82606C53.4283 4.73028 53.5577 4.63709 53.6898 4.5439C53.9357 4.37565 54.1919 4.21516 54.4559 4.07538C54.5776 4.01067 54.707 3.9589 54.8287 3.89677C54.1919 4.2281 54.5931 3.99514 54.7925 3.93561C54.9115 3.89937 55.0306 3.87607 55.1497 3.8476C55.437 3.77771 54.575 3.89419 54.8675 3.88383C54.9245 3.88383 54.9814 3.87607 55.041 3.87348C55.3102 3.8683 55.5509 4.0262 54.9193 3.83465C55.041 3.87089 55.173 3.90713 55.2972 3.93819C54.7252 3.79323 54.9115 3.75959 55.1315 3.88642C55.3516 4.01326 55.512 4.2747 55.0591 3.80618C55.1393 3.88901 55.2325 3.9589 55.3102 4.04174C55.3516 4.08574 55.3878 4.13233 55.4292 4.17375C55.6234 4.38083 55.0901 3.6897 55.3128 4.02362C55.4448 4.22552 55.5716 4.42742 55.6803 4.64227C55.7424 4.76652 55.7942 4.89853 55.8589 5.02278C55.5224 4.34459 55.8123 4.92183 55.877 5.11079C56.0945 5.72686 56.2576 6.36364 56.4025 7.00041C56.7183 8.41115 56.9306 9.84001 57.1998 11.2585C57.469 12.677 57.8029 14.0826 58.4008 15.4131C58.9988 16.7436 60.0394 17.7738 61.4605 18.263C62.7625 18.7109 64.2587 18.6539 65.6099 18.5348C66.4977 18.4546 67.3804 18.3329 68.2631 18.2113C68.6281 18.1621 68.9931 18.1103 69.3581 18.0586C69.5315 18.0353 69.7075 18.012 69.8809 17.9861C69.138 18.0896 69.9405 17.9783 70.1191 17.9576C70.8387 17.867 71.5583 17.7919 72.2831 17.7609C72.6118 17.7454 72.9432 17.7428 73.2719 17.7531C73.4272 17.7583 73.5799 17.7661 73.7352 17.7816C73.7844 17.7868 73.8336 17.7919 73.8854 17.7971C74.3332 17.8359 73.4246 17.7143 73.73 17.7764C73.9967 17.8308 74.2529 17.8903 74.5144 17.9706C74.9052 18.0922 74.0044 17.7143 74.4497 17.9473C74.5558 18.0016 74.6516 18.0689 74.7525 18.131C74.9933 18.2812 74.3435 17.7686 74.5402 17.9706C74.5791 18.012 74.6257 18.0482 74.6645 18.0896C74.7033 18.131 74.737 18.1802 74.7784 18.219C74.3565 17.8178 74.5144 17.8463 74.6101 18.012C74.7344 18.2268 74.7732 18.5348 74.5972 17.9032C74.6309 18.0223 74.6723 18.1414 74.7059 18.263C74.8276 18.7005 74.6749 17.722 74.693 18.1336C74.6982 18.2605 74.7059 18.3873 74.7033 18.5141C74.7007 18.6487 74.6774 18.7808 74.6749 18.9154C74.6982 18.1543 74.6982 18.7367 74.6516 18.962C74.517 19.5961 74.3021 20.2096 74.064 20.8127C74.0303 20.8956 73.9967 20.9758 73.9656 21.0587C73.831 21.39 74.1675 20.5927 74.0225 20.9241C73.963 21.0638 73.9009 21.2036 73.8388 21.3408C73.6731 21.711 73.4997 22.0785 73.3262 22.4461C72.9949 23.1372 72.6558 23.8258 72.3245 24.5169C71.1467 26.9864 69.3943 30.4291 71.0924 33.0745C71.8844 34.3067 73.1088 35.1894 74.341 35.9478C75.5731 36.7062 76.8544 37.343 78.1176 38.0238C78.7181 38.3474 79.3161 38.6787 79.8985 39.0359C80.1832 39.2093 80.4654 39.3905 80.7398 39.5795C80.8485 39.6546 80.9572 39.7322 81.0633 39.8099C81.1928 39.9031 81.3921 40.1153 80.9184 39.6934C80.9753 39.7426 81.0374 39.7866 81.0944 39.8358C81.3144 40.017 81.5292 40.2085 81.726 40.4156C81.8192 40.5114 81.902 40.6149 81.99 40.7133C82.1505 40.8919 81.7881 40.4777 81.8036 40.4725C81.8114 40.47 81.9046 40.6149 81.9124 40.6253C81.9797 40.7262 82.0418 40.8298 82.0987 40.9385C82.3239 41.3733 81.9538 40.4751 82.0625 40.8479C82.0936 40.9566 82.1194 41.0653 82.1479 41.1766C82.2178 41.4562 82.1065 40.5968 82.1091 40.8841C82.1091 40.9411 82.1143 40.998 82.1168 41.055C82.1298 42.0697 82.9995 43.0429 84.0582 42.9963C85.1169 42.9497 86.0152 42.1421 85.9996 41.055C85.9582 37.9228 82.7277 36.1109 80.3178 34.7985C79.0262 34.0944 77.706 33.4395 76.4454 32.6785C76.1633 32.5077 75.8863 32.3316 75.6145 32.1479C75.4954 32.0676 75.3789 31.9848 75.2625 31.8994C75.2107 31.8631 75.1615 31.8217 75.1097 31.7855C75.6689 32.1763 75.3401 31.9641 75.2133 31.8605C75.001 31.6845 74.7939 31.5007 74.605 31.2988C74.5169 31.2056 74.4419 31.1047 74.3539 31.0115C74.8431 31.537 74.4988 31.203 74.3849 31.0115C74.2581 30.7992 74.2322 30.4783 74.4057 31.1228C74.3824 31.0322 74.3409 30.9468 74.315 30.8562C74.2529 30.6232 74.2944 30.2479 74.3073 30.9571C74.3073 30.8096 74.284 30.6621 74.2866 30.5119C74.2866 30.3773 74.3021 30.2427 74.3125 30.1081C74.3332 29.7897 74.2193 30.6621 74.2788 30.3437C74.2917 30.2712 74.3021 30.2013 74.315 30.1288C74.3772 29.8001 74.4652 29.4739 74.5662 29.1529C74.6593 28.8579 74.7629 28.5679 74.8742 28.278C74.9389 28.1124 75.0036 27.9493 75.0709 27.7862C75.2081 27.4523 74.869 28.2496 75.0166 27.9182C75.0657 27.8069 75.1149 27.693 75.1641 27.5817C75.4721 26.888 75.806 26.2046 76.1374 25.5238C76.8492 24.0613 77.5843 22.5885 78.1021 21.0457C78.5369 19.7463 78.8372 18.1958 78.3428 16.8678C77.1158 13.5623 73.2123 13.7021 70.308 14.0515C69.4072 14.1602 68.5116 14.2897 67.6134 14.4139C67.4244 14.4398 67.2329 14.4657 67.0439 14.4916C67.7765 14.3906 67.0698 14.4864 66.899 14.5097C66.5314 14.5563 66.1612 14.5977 65.7911 14.6339C65.0844 14.7013 64.3726 14.7478 63.6607 14.722C63.508 14.7168 63.3527 14.7064 63.2 14.6935C63.1275 14.6857 63.0524 14.6728 62.9799 14.6702C63.6348 14.7013 63.3863 14.7297 63.2103 14.6987C62.9437 14.6495 62.69 14.5822 62.4312 14.4993C62.0429 14.3725 62.9411 14.7556 62.501 14.5201C62.3975 14.4631 62.3043 14.3906 62.2008 14.3337C62.7703 14.6547 62.4726 14.5589 62.2992 14.3829C62.1335 14.2172 61.9316 13.8186 62.2992 14.4191C62.1775 14.2198 62.0403 14.0334 61.9316 13.8237C61.8669 13.7021 61.8125 13.5778 61.753 13.4536C61.6184 13.1688 61.9471 13.9532 61.8384 13.6529C61.8048 13.5597 61.7685 13.4691 61.7349 13.3785C61.2637 12.0765 61.023 10.6942 60.7823 9.33525C60.5286 7.90639 60.306 6.46717 59.9281 5.0642C59.5502 3.66122 59.0299 2.27896 58.0203 1.25132C56.9228 0.130487 55.3283 -0.257796 53.827 0.169309C52.3489 0.591237 51.0935 1.59559 49.9545 2.5844C48.8156 3.57321 47.7103 4.7044 46.5817 5.75534C46.0484 6.25233 45.5048 6.73379 44.9354 7.18937C44.6636 7.40939 45.3366 6.8891 45.0571 7.09359C44.9897 7.14278 44.9224 7.19455 44.8551 7.24373C44.7231 7.33951 44.5911 7.43269 44.4539 7.5207C44.1795 7.70189 43.8974 7.87015 43.6023 8.01252C43.5402 8.04359 43.4703 8.06688 43.4107 8.10312C43.9517 7.80544 43.7887 7.95298 43.6204 8.00993C43.4962 8.05135 43.3719 8.09535 43.2425 8.129C43.1415 8.15489 43.0354 8.16783 42.9344 8.19372C43.623 8.00993 43.2295 8.16525 42.9681 8.15748C42.9086 8.15748 42.8465 8.14971 42.7869 8.14712C42.4892 8.13677 43.3512 8.25326 43.0587 8.18337C42.9344 8.1523 42.8102 8.12901 42.686 8.09277C42.5617 8.05653 42.4349 7.99699 42.308 7.95816C43.0069 8.17559 42.453 8.01511 42.2563 7.91157C42.0078 7.77955 41.767 7.63201 41.5341 7.47411C41.3995 7.38351 41.2649 7.28773 41.1328 7.19196C41.0655 7.14278 40.9982 7.09101 40.9309 7.03924C41.4745 7.43787 41.1044 7.17384 40.9853 7.07548C40.4158 6.61473 39.8722 6.12032 39.3364 5.61814C38.2156 4.56462 37.1388 3.46191 35.9688 2.46015C34.7987 1.45839 33.577 0.487696 32.1119 0.127892C30.6467 -0.231912 28.9668 0.171896 27.9185 1.37297C26.9478 2.48603 26.4301 3.88383 26.0677 5.29716C25.3765 8.00216 25.2678 10.8884 24.2712 13.5105C24.2453 13.5778 24.2143 13.6451 24.191 13.7124C24.3955 13.1015 24.3463 13.3578 24.2738 13.5079C24.2143 13.6296 24.1573 13.7539 24.0926 13.8729C24.0305 13.9868 23.9658 14.0981 23.8959 14.2068C23.8622 14.2586 23.826 14.3078 23.7924 14.3596C23.6371 14.6003 24.1755 13.9143 23.9114 14.2017C23.8338 14.2871 23.7587 14.3725 23.6733 14.4502C23.6448 14.4761 23.562 14.5252 23.5465 14.5589C23.5465 14.5589 23.9943 14.2508 23.8053 14.357C23.7018 14.4139 23.6034 14.4812 23.4999 14.5382C23.3445 14.6236 23.1323 14.6314 23.7406 14.445C23.6603 14.4709 23.5827 14.5045 23.5025 14.5304C23.241 14.6158 22.9718 14.6521 22.7052 14.709C23.4455 14.5485 22.9123 14.6805 22.7052 14.6935C22.5214 14.7064 22.3402 14.7142 22.1564 14.7168C21.4653 14.7271 20.7716 14.6754 20.083 14.6055C19.7103 14.5667 19.3401 14.5226 18.97 14.4761C18.8768 14.4631 18.781 14.4502 18.6878 14.4398C19.3453 14.5226 18.97 14.4786 18.825 14.4579C18.6334 14.432 18.4445 14.4062 18.2529 14.3777C17.3262 14.2483 16.3996 14.1137 15.4703 14.0075C13.9922 13.8393 12.4883 13.7487 11.0206 14.0697C9.45714 14.4113 8.19395 15.4364 7.67366 16.9636C7.2129 18.3148 7.55199 19.8835 8.00757 21.1907C8.54857 22.7386 9.28889 24.2141 10.0033 25.6869C10.3347 26.3677 10.6634 27.0485 10.9662 27.7422C11.0025 27.825 11.0387 27.9105 11.075 27.9933C10.8109 27.4083 10.9637 27.7293 11.018 27.8613C11.0853 28.0244 11.15 28.1874 11.2122 28.3505C11.339 28.687 11.4581 29.0287 11.559 29.3756C11.6444 29.6681 11.7092 29.9632 11.7661 30.2634C11.8515 30.7086 11.7247 29.7276 11.7506 30.1676C11.7609 30.323 11.7713 30.4783 11.7687 30.6336C11.7635 30.8743 11.6263 31.2522 11.8023 30.5559C11.7739 30.6724 11.7583 30.7915 11.7247 30.908C11.7092 30.9623 11.6884 31.0141 11.6703 31.0659C11.5875 31.3325 11.9162 30.5611 11.779 30.8044C11.7117 30.9209 11.6522 31.04 11.5771 31.1539C11.3028 31.5654 11.8929 30.7992 11.6211 31.1021C11.5487 31.1823 11.4788 31.2626 11.4037 31.3402C11.1914 31.5577 10.9611 31.7518 10.7281 31.946C10.4822 32.153 11.15 31.6379 10.8834 31.8243C10.8213 31.8683 10.7592 31.9149 10.697 31.9589C10.5676 32.0521 10.4382 32.1401 10.3062 32.2281C10.0163 32.4197 9.72118 32.6034 9.4235 32.7795C6.90746 34.2704 4.06008 35.3654 1.88055 37.3663C0.839968 38.3241 -0.0220058 39.6908 0.0556497 41.1585C0.133305 42.6262 0.9694 43.9515 2.09799 44.9144C4.36036 46.8403 7.16372 47.9301 9.67976 49.4625C9.95932 49.6333 10.2363 49.8093 10.5055 49.9957C10.6323 50.0837 10.7566 50.1769 10.8834 50.2675C11.1475 50.4565 10.4796 49.9413 10.7281 50.1458C10.8032 50.208 10.8782 50.2675 10.9533 50.3296C11.1604 50.5056 11.3571 50.692 11.5383 50.8939C11.6729 51.044 11.8412 51.3754 11.4736 50.7904C11.5461 50.9069 11.6315 51.0156 11.7014 51.1346C11.7299 51.1838 11.7532 51.2356 11.7816 51.2848C11.9214 51.5307 11.5901 50.7567 11.6729 51.0233C11.7066 51.1346 11.7454 51.2408 11.7713 51.3547C11.8826 51.8491 11.748 50.8499 11.7635 51.2641C11.7687 51.4168 11.7765 51.5669 11.7687 51.7171C11.7635 51.8309 11.7454 51.9448 11.7402 52.0587C11.7661 51.3132 11.7713 51.8258 11.7299 52.0406C11.6626 52.3719 11.572 52.6981 11.4684 53.0217C11.3649 53.3452 11.2484 53.6636 11.1216 53.9794C11.0594 54.1347 10.7851 54.7456 11.0776 54.0933C11.0025 54.2616 10.9326 54.4298 10.8575 54.5981C10.534 55.3203 10.1845 56.0321 9.83765 56.7466C9.13099 58.1987 8.40104 59.6664 7.90663 61.2092C7.49764 62.4853 7.2362 63.997 7.73837 65.2835C8.34149 66.8262 9.67976 67.7943 11.2976 68.0687C12.8145 68.3276 14.3262 68.2215 15.8456 68.0351C16.7619 67.9238 17.6757 67.7892 18.5894 67.6623C18.7551 67.639 19.4152 67.5562 18.6904 67.6468C18.8794 67.6235 19.0657 67.5976 19.2547 67.5743C19.6507 67.5251 20.0494 67.4811 20.448 67.4449C21.121 67.3854 21.7992 67.3465 22.4774 67.3776C22.6301 67.3854 22.7828 67.3983 22.933 67.4112C23.109 67.4242 23.3601 67.5174 22.7078 67.3776C22.7777 67.3931 22.8476 67.3983 22.9174 67.4112C23.2048 67.463 23.4662 67.5588 23.7432 67.6442C23.0779 67.4397 23.4688 67.5225 23.6603 67.6364C23.8519 67.7503 24.0124 67.973 23.5516 67.5277C23.6319 67.6054 23.7225 67.6753 23.8001 67.7555C23.8415 67.7969 23.8778 67.8409 23.9166 67.8849C24.178 68.1723 23.6422 67.4863 23.7975 67.727C23.9373 67.9445 24.0745 68.1593 24.191 68.3923C24.279 68.5683 24.424 69.0627 24.1962 68.3742C24.2505 68.5373 24.3204 68.6952 24.3774 68.8582C25.2989 71.5244 25.4102 74.3977 26.1557 77.1104C26.5258 78.4565 27.0642 79.8853 28.0815 80.8845C29.2153 81.995 30.8409 82.3806 32.3526 81.8888C33.8384 81.4074 35.0835 80.4108 36.2405 79.3909C37.3976 78.371 38.4356 77.3046 39.5461 76.2743C39.8179 76.0206 40.0923 75.7722 40.3718 75.5288C40.5064 75.4098 40.6436 75.2933 40.7808 75.1794C40.918 75.0655 41.5185 74.6177 40.9309 75.05C41.4409 74.6772 41.9508 74.3329 42.5151 74.0482C42.673 73.968 42.906 73.9447 42.308 74.131C42.3728 74.1103 42.4349 74.0818 42.497 74.0585C42.6213 74.0145 42.7455 73.9757 42.8723 73.9447C42.9344 73.9291 42.9966 73.9214 43.0587 73.9058C43.3512 73.8359 42.4892 73.9524 42.7869 73.9421C42.9293 73.9369 43.0665 73.9317 43.2088 73.9369C43.6152 73.9498 42.6161 73.8204 43.1208 73.9317C43.2269 73.955 43.3305 73.9835 43.4315 74.0171C43.6359 74.0819 44.0242 74.3278 43.4107 73.9913C43.5583 74.0715 43.7162 74.1336 43.8637 74.2139C44.1355 74.3614 44.3996 74.5297 44.6558 74.7083C44.793 74.8015 44.925 74.9024 45.0571 75.0008C45.334 75.2079 44.661 74.6876 44.9354 74.905C45.0156 74.9697 45.0933 75.0318 45.1735 75.0965C45.7559 75.5728 46.3099 76.0828 46.8587 76.6005C47.9743 77.654 49.0485 78.7541 50.2211 79.7403C51.3238 80.6696 52.6077 81.6895 54.0625 81.9846C55.5871 82.2926 57.1428 81.8759 58.1756 80.667C60.0834 78.4383 60.3422 75.1716 60.8418 72.3993C61.0852 71.0533 61.3647 69.7254 61.8358 68.4389C61.9445 68.1386 61.6158 68.9255 61.7504 68.6382C61.7815 68.5761 61.8073 68.5114 61.8384 68.4492C61.8902 68.3379 61.9471 68.2292 62.0067 68.1231C62.0662 68.017 62.1231 67.9212 62.1904 67.8228C62.4726 67.4009 61.8513 68.2033 62.1801 67.8332C62.2551 67.7477 62.338 67.6701 62.4208 67.5924C62.6952 67.331 61.9316 67.9186 62.3457 67.6597C62.4493 67.595 62.5606 67.551 62.6641 67.4915C62.149 67.7943 62.25 67.652 62.4312 67.5924C62.514 67.5666 62.5942 67.5355 62.6771 67.5122C62.7858 67.4811 62.8945 67.4552 63.0032 67.432C63.2103 67.3879 63.7203 67.3854 62.9774 67.4216C63.3113 67.4061 63.6426 67.3646 63.9791 67.3621C64.6754 67.3569 65.3717 67.4112 66.0629 67.4837C66.4356 67.5226 66.8084 67.5691 67.1785 67.6157C67.3235 67.6339 67.6962 67.6882 67.0413 67.5976C67.1371 67.6106 67.2303 67.6235 67.326 67.6364C67.5487 67.6675 67.7713 67.6986 67.9913 67.7296C68.8844 67.8539 69.7774 67.9833 70.6756 68.0817C73.5074 68.3975 77.4498 68.3742 78.4127 65.0065C78.8139 63.6035 78.4696 62.0685 77.9882 60.7329C77.4316 59.1979 76.6965 57.7328 75.9873 56.2651C75.6507 55.5739 75.3246 54.8776 75.014 54.1736C74.869 53.8422 75.2055 54.6369 75.0683 54.3056C75.0347 54.2227 75.001 54.1399 74.9674 54.0597C74.9026 53.8992 74.8405 53.7361 74.781 53.573C74.6671 53.265 74.5635 52.9518 74.4729 52.6334C74.3901 52.3409 74.3332 52.0484 74.2762 51.7507C74.2141 51.4349 74.328 52.3047 74.3099 51.9863C74.3047 51.919 74.2969 51.8491 74.2918 51.7818C74.2814 51.629 74.2814 51.4763 74.2892 51.3236C74.3176 50.8085 74.1779 51.8051 74.2737 51.4116C74.297 51.3158 74.3202 51.2201 74.3487 51.1243C74.3642 51.0725 74.3927 51.0233 74.4057 50.9716C74.2866 51.51 74.2012 51.4116 74.3021 51.233C74.3694 51.1139 74.4367 51 74.5118 50.8862C74.7266 50.5548 74.1416 51.321 74.4755 50.9405C74.561 50.8421 74.6516 50.7464 74.7448 50.6558C74.8431 50.56 74.9441 50.4668 75.0476 50.3762C75.1977 50.2442 75.7155 49.9154 75.1097 50.3115C75.6559 49.9569 76.1762 49.5738 76.7405 49.245C78.0166 48.4969 79.3445 47.842 80.6362 47.125C82.9581 45.8411 85.9608 44.0525 85.9996 41.0446C86.0126 40.0299 85.0962 39.0566 84.0582 39.1032C83.0202 39.1498 82.1324 39.9548 82.1168 41.0446L82.122 41.0575Z" fill="#FF4409"/>
</svg>
