<svg width="393" height="405" viewBox="0 0 393 405" fill="none" xmlns="http://www.w3.org/2000/svg">
<path d="M92.8108 119.959C75.4405 104.71 63.3434 84.2996 54.0895 63.1267C46.438 66.0528 38.7893 68.9862 31.1118 71.9306C23.7988 75.8741 50.9973 116.613 54.4101 121.431C71.7075 145.789 99.8351 164.828 129.786 168.838C136.365 169.719 187.52 167.498 186.378 157.343C184.571 141.207 181.47 140.971 165.409 141.504C158.796 141.725 152.195 143.079 145.572 142.776C126.197 141.909 107.202 132.607 92.7992 119.971L92.8108 119.959Z" fill="#FAF1E7"/>
<path d="M95.7118 116.361C93.986 114.842 92.3096 113.279 90.6797 111.665C90.3586 111.342 90.0276 111.015 89.7065 110.692C89.5051 110.488 89.3038 110.285 89.1096 110.078L88.9899 109.959C88.6351 109.591 88.6732 109.626 89.1024 110.081C88.9546 110.104 88.1315 109.049 88.0444 108.95C87.6197 108.486 87.195 108.021 86.7702 107.556C83.787 104.231 80.9796 100.741 78.3501 97.1334C75.7206 93.5257 73.2937 89.8654 70.9934 86.0827C69.8236 84.1616 68.6944 82.2169 67.5984 80.2513C67.3424 79.7963 67.0964 79.3458 66.8476 78.8881C66.71 78.6354 66.2722 77.9198 66.8586 78.9169C66.7429 78.7218 66.6362 78.5068 66.5278 78.309C65.9818 77.2883 65.4458 76.272 64.9214 75.2431C62.5999 70.7344 60.443 66.1381 58.4085 61.4952C57.4036 59.2062 54.8743 57.8944 52.4405 58.8225C47.7746 60.6019 43.1141 62.3957 38.4509 64.1823C36.1179 65.072 33.7777 65.9644 31.4475 66.8613C29.7337 67.5149 28.1133 68.0669 26.9262 69.5175C24.2806 72.7451 25.3011 77.3458 26.4179 80.9448C27.7294 85.1624 29.7225 89.1778 31.7547 93.0792C34.3339 98.0258 37.1137 102.871 40.0149 107.645C44.0676 114.315 48.2125 121.031 52.9509 127.249C62.7221 140.068 74.9757 150.81 88.8011 159.056C95.5033 163.048 102.601 166.371 110.001 168.86C113.898 170.17 117.866 171.296 121.884 172.164C124.508 172.73 127.208 173.301 129.887 173.491C133.43 173.741 136.996 173.642 140.542 173.511C145.408 173.338 150.273 173.008 155.126 172.543C160.288 172.043 165.444 171.396 170.537 170.411C174.954 169.559 179.58 168.603 183.667 166.649C187.483 164.822 191.247 161.911 191.015 157.215C190.862 154.09 190.197 150.855 189.389 147.847C188.794 145.617 187.834 143.294 186.274 141.563C184.336 139.399 182.032 138.158 179.232 137.436C176.68 136.776 173.946 136.788 171.335 136.777C167.679 136.769 164.013 136.889 160.375 137.212C155.776 137.63 151.191 138.282 146.559 138.225C146.327 138.223 146.084 138.233 145.853 138.214C146.98 138.312 145.951 138.21 145.733 138.202C145.33 138.182 144.924 138.156 144.525 138.126C143.466 138.052 142.413 137.951 141.359 137.825C139.397 137.591 137.447 137.279 135.509 136.889C133.57 136.498 131.741 136.049 129.877 135.531C129.611 135.459 127.946 134.923 129.25 135.358C128.815 135.21 128.373 135.09 127.937 134.943C126.921 134.613 125.906 134.266 124.897 133.892C121.198 132.539 117.59 130.93 114.105 129.1C113.239 128.647 112.388 128.188 111.538 127.712C110.688 127.236 109.621 126.793 108.887 126.166C109.611 126.789 109.385 126.479 109.112 126.303C108.896 126.17 108.678 126.031 108.463 125.899C108.072 125.652 107.691 125.41 107.297 125.156C106.442 124.599 105.598 124.03 104.758 123.451C101.609 121.271 98.5861 118.902 95.7029 116.381C93.881 114.783 90.6395 115.128 89.2009 117.087C87.6701 119.172 87.954 121.884 89.9072 123.589C101.924 134.1 116.45 142.02 132.05 145.598C135.747 146.447 139.511 147.016 143.302 147.269C148.019 147.59 152.662 147.288 157.355 146.81C161.417 146.39 165.457 146.104 169.546 146.012C170.962 145.984 172.376 145.972 173.79 146.002C174.471 146.015 173.176 145.972 173.189 145.984C173.308 146.037 173.541 145.998 173.668 146.007C173.947 146.025 174.225 146.042 174.497 146.062C175.067 146.109 175.633 146.165 176.203 146.253C176.66 146.326 177.119 146.407 177.575 146.521C177.667 146.544 177.768 146.572 177.859 146.595C178.516 146.74 176.726 146.219 177.204 146.391C177.442 146.473 177.686 146.553 177.92 146.646C178.24 146.771 178.649 147.11 178.983 147.164C178.701 147.115 177.845 146.386 178.508 146.891C178.708 147.046 178.911 147.191 179.102 147.366C179.226 147.476 179.341 147.605 179.475 147.719C178.227 146.652 178.846 147.043 179.161 147.434C179.431 147.777 179.654 148.145 179.885 148.511C180.177 148.952 179.243 147.238 179.533 147.87C179.569 147.963 179.626 148.049 179.666 148.132C179.778 148.362 179.886 148.601 179.977 148.839C180.181 149.33 180.358 149.84 180.512 150.35C180.596 150.615 180.664 150.878 180.741 151.145C180.77 151.266 180.803 151.394 180.839 151.512C181.057 152.278 180.597 150.4 180.719 150.98C180.864 151.684 181.016 152.385 181.139 153.097C181.413 154.658 181.567 156.232 181.785 157.799C181.794 157.82 181.814 158.176 181.806 158.178C181.782 158.18 181.902 156.591 181.809 157.386C181.794 157.498 181.746 157.608 181.735 157.711C181.829 156.314 182.177 156.511 181.927 157.003C181.889 157.075 181.755 157.266 181.754 157.349C181.761 157.239 182.61 156.132 182.15 156.678C181.962 156.899 181.773 157.119 181.585 157.339C182.734 155.961 182.21 156.771 181.726 157.145C181.445 157.36 181.151 157.562 180.852 157.751C180.704 157.84 180.557 157.929 180.407 158.011C179.743 158.413 181.703 157.344 180.919 157.733C180.537 157.92 180.157 158.115 179.769 158.287C178.027 159.059 176.202 159.639 174.365 160.142C173.873 160.28 173.376 160.404 172.879 160.527C172.645 160.584 171.655 160.821 172.63 160.589C173.606 160.357 172.411 160.64 172.188 160.684C171.062 160.932 169.938 161.162 168.805 161.372C166.332 161.828 163.845 162.207 161.349 162.541C152.295 163.734 143.114 164.422 133.98 164.434C133.27 164.432 132.557 164.423 131.842 164.408C130.684 164.379 133.176 164.468 132.111 164.421C131.859 164.409 131.614 164.395 131.36 164.377C128.739 164.189 126.101 163.628 123.533 163.081C121.692 162.686 119.866 162.245 118.049 161.741C117.57 161.611 117.092 161.48 116.617 161.339C116.432 161.286 116.234 161.221 116.049 161.168C117.156 161.455 116.573 161.331 116.328 161.251C115.381 160.953 114.434 160.654 113.489 160.338C109.898 159.118 106.381 157.704 102.942 156.104C99.503 154.504 96.1169 152.719 92.8365 150.778C92.6664 150.678 92.4935 150.571 92.3234 150.471C92.2383 150.421 91.3715 149.943 92.0555 150.309C92.7394 150.675 91.8727 150.197 91.7876 150.147C91.6147 150.04 91.4419 149.933 91.2789 149.83C90.4245 149.298 89.5817 148.753 88.7506 148.196C87.1591 147.137 85.5952 146.043 84.052 144.916C81.018 142.691 78.0923 140.318 75.2732 137.813C73.851 136.55 72.4593 135.258 71.1025 133.927C70.4586 133.299 69.8219 132.667 69.1969 132.023C68.9773 131.794 67.9475 130.693 68.8857 131.705C68.5482 131.339 68.1989 130.985 67.8614 130.619C61.6575 123.954 56.55 116.573 51.6674 108.917C49.0559 104.816 46.5109 100.673 44.0801 96.4617C43.4326 95.3477 42.7996 94.2282 42.1709 93.0989C41.8775 92.5674 41.5841 92.036 41.2935 91.5118C42.1555 93.08 41.5021 91.8858 41.3144 91.545C41.1603 91.2491 41.0018 90.9632 40.8477 90.6673C39.7283 88.5539 38.6494 86.4168 37.6569 84.2467C36.8041 82.378 35.9988 80.483 35.3404 78.5401C35.0836 77.7803 34.9736 76.7996 34.6115 76.0881C34.7155 76.2959 34.9245 77.5358 34.7647 76.706C34.7249 76.515 34.6878 76.3312 34.6551 76.1375C34.5946 75.8059 34.5486 75.4688 34.5196 75.1334C34.4928 74.8468 34.4903 74.559 34.4806 74.2741C34.4543 73.5995 34.3514 75.7089 34.4575 74.9922C34.4756 74.845 34.4838 74.6935 34.5119 74.5508C34.5293 74.4452 34.58 74.3186 34.5831 74.2185C34.5974 73.8666 34.121 75.6236 34.3618 74.9792C34.3947 74.8924 34.4735 74.7964 34.4865 74.7007C34.5448 74.464 33.6598 75.9067 34.079 75.3839C34.5449 74.8104 33.2364 76.1589 33.4733 75.9366C33.546 75.8676 33.6269 75.8203 33.7051 75.7657C34.0644 75.4967 33.3092 76.4363 33.1136 76.1397C33.1191 76.1541 33.8913 75.8432 33.8337 75.8651C34.4313 75.6372 35.0362 75.4065 35.6338 75.1786C37.9092 74.3109 40.1846 73.4432 42.4572 72.5683C46.8856 70.8795 51.3084 69.1763 55.734 67.4803L49.7661 64.8076C57.1488 81.6795 66.2086 98.1263 78.404 112.025C81.9932 116.116 85.8247 119.999 89.9099 123.596C91.7246 125.197 94.9779 124.839 96.412 122.89C97.95 120.802 97.6544 118.103 95.7057 116.388L95.7118 116.361Z" fill="#FF4409"/>
<path d="M295.266 250.051C315.232 260.786 329.003 276.936 343.877 293.552C344.709 294.487 345.7 295.493 346.953 295.505C347.878 295.515 348.714 294.963 349.473 294.434C355.107 290.521 360.74 286.607 366.374 282.693C340.734 241.299 300.656 205.844 248.23 210.774C241.628 211.393 192.28 225.08 195.673 234.72C201.068 250.035 204.142 249.567 219.67 245.431C226.064 243.727 232.191 240.921 238.712 239.725C257.784 236.208 278.386 240.993 295.264 250.061L295.266 250.051Z" fill="#FAF1E7"/>
<path d="M293.254 254.215C294.65 254.967 296.034 255.755 297.4 256.573C298.002 256.93 298.591 257.296 299.184 257.668C299.525 257.885 299.865 258.102 300.21 258.325C300.304 258.382 300.795 258.712 300.29 258.374C299.784 258.036 300.412 258.459 300.51 258.522C303.03 260.2 305.483 261.987 307.86 263.853C312.575 267.556 317.005 271.608 321.251 275.83C325.534 280.092 329.625 284.539 333.67 289.026C335.721 291.306 337.764 293.601 339.809 295.885C340.952 297.159 341.971 298.304 343.464 299.186C345.27 300.257 347.666 300.411 349.594 299.618C351.508 298.833 353.173 297.483 354.864 296.31C356.427 295.223 357.996 294.132 359.559 293.045C362.691 290.867 365.817 288.693 368.954 286.521C371.062 285.059 371.551 282.261 370.214 280.105C363.648 269.513 356.209 259.517 347.897 250.237C339.903 241.32 331.002 233.169 321.136 226.372C311.27 219.574 299.774 213.696 287.825 210.071C275.806 206.428 263.078 205.072 250.558 205.933C243.932 206.392 237.438 208.349 231.105 210.226C222.633 212.732 214.168 215.568 206.174 219.34C202.715 220.977 199.145 222.697 196.159 225.12C193.393 227.359 190.723 230.294 190.915 234.119C190.973 235.214 191.32 236.215 191.683 237.225C192.157 238.539 192.662 239.844 193.216 241.124C194.149 243.273 195.161 245.499 196.638 247.339C198.044 249.086 199.697 250.65 201.818 251.499C203.939 252.349 206.114 252.615 208.366 252.486C210.854 252.347 213.327 251.772 215.744 251.197C218.82 250.468 221.882 249.665 224.892 248.701C228.727 247.472 232.498 246.024 236.387 244.972C237.297 244.723 238.221 244.511 239.144 244.309C239.381 244.261 239.94 244.043 239.012 244.333C239.195 244.274 239.426 244.259 239.61 244.228C240.058 244.15 240.507 244.071 240.958 244.01C242.607 243.756 244.267 243.56 245.931 243.426C249.374 243.147 252.83 243.11 256.27 243.297C256.473 243.309 256.68 243.327 256.879 243.333C256.768 243.333 255.816 243.257 256.616 243.315C257.02 243.349 257.43 243.38 257.835 243.415C258.703 243.491 259.562 243.582 260.42 243.684C262.096 243.886 263.764 244.13 265.421 244.428C268.85 245.04 272.245 245.851 275.576 246.844C276.363 247.077 277.142 247.324 277.921 247.571C278.167 247.648 278.742 247.772 277.671 247.489C277.865 247.544 278.066 247.622 278.248 247.686C278.681 247.832 279.117 247.984 279.547 248.141C281.176 248.727 282.792 249.35 284.389 250.014C287.407 251.273 290.367 252.682 293.256 254.232C295.391 255.379 298.472 254.312 299.432 252.08C300.454 249.704 299.567 247.125 297.28 245.904C285.286 239.477 271.842 235.204 258.233 234.236C250.938 233.714 243.727 234.008 236.553 235.475C232.717 236.26 229.026 237.551 225.324 238.812C221.955 239.961 218.562 240.977 215.118 241.861C213.924 242.171 212.722 242.468 211.515 242.73C211.242 242.793 210.97 242.846 210.703 242.904C209.633 243.122 211.611 242.749 210.906 242.861C210.389 242.948 209.877 243.042 209.358 243.112C208.48 243.228 207.593 243.304 206.702 243.29C206.27 243.283 205.555 243.131 207.159 243.335C206.975 243.31 206.793 243.302 206.603 243.282C206.229 243.236 205.863 243.147 205.495 243.07C204.665 242.884 206.045 243.155 206.06 243.275C206.052 243.234 205.637 243.114 205.585 243.093C205.437 243.025 204.681 242.521 204.579 242.562C204.735 242.504 205.77 243.396 205.05 242.849C204.93 242.753 204.81 242.657 204.692 242.551C204.555 242.43 204.418 242.308 204.293 242.178C204.229 242.11 204.164 242.042 204.094 241.978C203.596 241.514 204.57 242.494 204.579 242.534C204.544 242.288 203.975 241.788 203.829 241.571C203.55 241.183 203.301 240.784 203.06 240.37C202.819 239.956 202.58 239.504 202.35 239.064C202.09 238.58 202.871 240.144 202.637 239.643C202.578 239.515 202.518 239.397 202.46 239.269C202.322 238.981 202.191 238.689 202.059 238.396C201.517 237.173 201.033 235.929 200.576 234.667C200.384 234.147 200.218 233.609 200.019 233.092C199.771 232.46 200.212 233.807 200.165 233.904C200.195 233.837 200.134 233.609 200.132 233.536C200.078 232.709 199.872 234.973 200.11 234.043C200.127 233.957 200.156 233.863 200.173 233.778C200.24 233.269 199.643 235.062 199.941 234.482C200.047 234.28 200.138 234.071 200.233 233.867C200.556 233.214 199.93 234.396 199.812 234.484C199.915 234.415 199.989 234.236 200.059 234.133C200.412 233.663 200.821 233.25 201.234 232.842C201.848 232.235 200.892 233.286 200.74 233.267C200.8 233.273 201.053 233.001 201.113 232.951C201.392 232.718 201.68 232.496 201.968 232.275C203.262 231.313 204.638 230.473 206.041 229.688C206.877 229.219 207.735 228.782 208.593 228.345C209.21 228.033 207.347 228.95 208.194 228.539C208.409 228.431 208.629 228.33 208.845 228.223C209.316 227.999 209.788 227.775 210.268 227.564C212.214 226.674 214.186 225.851 216.178 225.07C220.308 223.438 224.509 221.981 228.735 220.628C232.556 219.408 236.406 218.27 240.28 217.237C241.815 216.828 243.363 216.438 244.912 216.076C245.535 215.926 246.157 215.787 246.793 215.656C247.037 215.604 247.291 215.554 247.534 215.502C248.009 215.407 246.076 215.777 246.813 215.644C246.951 215.615 247.094 215.593 247.233 215.565C248.902 215.271 250.601 215.188 252.291 215.093C255.357 214.917 258.427 214.87 261.494 214.973C262.234 214.996 262.978 215.026 263.719 215.066C264.038 215.084 264.367 215.104 264.686 215.123C263.255 215.053 264.805 215.135 265.16 215.166C266.614 215.285 268.068 215.431 269.52 215.617C272.469 215.985 275.401 216.494 278.303 217.125C281.168 217.755 284.002 218.506 286.803 219.372C287.143 219.478 287.477 219.588 287.817 219.694C287.984 219.749 288.151 219.804 288.318 219.859C288.256 219.835 287.235 219.491 287.948 219.736C288.66 219.981 289.362 220.225 290.073 220.481C291.436 220.976 292.789 221.498 294.135 222.051C299.464 224.236 304.616 226.847 309.549 229.81C310.795 230.56 312.027 231.33 313.248 232.125C313.49 232.278 313.942 232.633 312.914 231.904C313.055 232.004 313.209 232.095 313.351 232.195C313.646 232.386 313.94 232.588 314.229 232.784C314.812 233.182 315.394 233.579 315.975 233.988C318.373 235.664 320.708 237.427 322.997 239.26C327.603 242.952 331.98 246.938 336.13 251.141C338.191 253.229 340.193 255.366 342.145 257.554C342.909 258.415 341.465 256.776 342.222 257.641C342.463 257.916 342.699 258.185 342.939 258.46C343.441 259.041 343.943 259.623 344.439 260.209C345.409 261.349 346.36 262.503 347.298 263.664C351.022 268.283 354.542 273.067 357.857 277.989C359.468 280.388 361.037 282.806 362.559 285.265L363.819 278.849C358.443 282.58 353.072 286.318 347.697 290.049C347.39 290.255 347.091 290.474 346.784 290.68C346.611 290.796 345.743 291.259 346.409 290.979C347.075 290.698 346.516 290.944 346.4 290.966C346.394 290.97 347.349 290.83 346.838 290.885C346.276 290.947 347.514 290.979 347.657 291.013C348.393 291.168 347.402 290.757 348.017 291.189C348.632 291.621 347.908 291.068 347.766 290.94C347.564 290.75 347.369 290.556 347.187 290.354C346.696 289.83 346.226 289.282 345.747 288.749C343.739 286.506 341.737 284.258 339.727 282.025C331.908 273.342 323.863 264.792 314.72 257.482C309.272 253.13 303.438 249.213 297.303 245.897C295.175 244.746 292.086 245.828 291.127 248.05C290.103 250.436 290.995 252.994 293.28 254.226L293.254 254.215Z" fill="#FF4409"/>
<path d="M374.023 281.737C373.261 270.527 360.947 262.234 346.518 263.214C332.089 264.195 321.009 274.078 321.771 285.288C322.533 296.498 334.847 304.791 349.276 303.811C363.705 302.83 374.785 292.947 374.023 281.737Z" fill="#FF4409"/>
<path d="M369.405 282.024C369.435 282.552 369.439 283.069 369.434 283.601C369.432 283.723 369.409 283.841 369.418 283.965C369.425 284.016 369.53 282.915 369.455 283.383C369.406 283.657 369.401 283.939 369.359 284.209C369.286 284.722 369.187 285.225 369.072 285.729C369.002 285.999 368.928 286.262 368.858 286.532C368.683 287.225 369.24 285.524 368.894 286.433C368.519 287.409 368.093 288.364 367.57 289.272C367.434 289.512 367.243 289.752 367.126 290.007C367.105 290.058 367.743 289.128 367.445 289.514C367.371 289.61 367.305 289.72 367.235 289.822C366.896 290.3 366.539 290.763 366.169 291.207C365.843 291.593 365.502 291.97 365.147 292.339C364.938 292.553 364.729 292.768 364.505 292.974C364.41 293.066 364.316 293.148 364.22 293.24C363.753 293.692 364.456 293.025 364.567 292.942C363.625 293.695 362.711 294.448 361.698 295.11C361.244 295.415 360.772 295.695 360.296 295.968C360.015 296.129 359.729 296.284 359.45 296.435C359.326 296.499 359.202 296.564 359.078 296.628C358.539 296.916 360 296.204 359.435 296.454C358.248 296.982 357.068 297.477 355.832 297.89C355.268 298.073 354.702 298.24 354.134 298.389C353.795 298.478 353.462 298.563 353.124 298.641C352.979 298.673 352.834 298.706 352.682 298.743C352.088 298.882 352.735 298.725 352.975 298.695C351.644 298.855 350.339 299.11 348.992 299.206C347.646 299.303 346.353 299.271 345.026 299.244C344.517 299.233 345.507 299.283 345.485 299.278C345.344 299.262 345.201 299.256 345.053 299.243C344.72 299.217 344.393 299.186 344.061 299.149C343.458 299.08 342.853 298.995 342.252 298.888C341.033 298.676 339.833 298.396 338.648 298.041C338.521 298.005 338.391 297.963 338.26 297.92C337.777 297.781 338.78 298.1 338.744 298.088C338.502 297.99 338.245 297.912 337.991 297.823C337.417 297.605 336.846 297.376 336.289 297.128C335.238 296.655 334.23 296.107 333.24 295.518C333.135 295.459 333.03 295.371 332.919 295.316C332.863 295.289 333.799 295.922 333.401 295.633C333.201 295.488 332.989 295.352 332.79 295.208C332.327 294.878 331.875 294.523 331.436 294.159C331.035 293.824 330.653 293.477 330.28 293.115C330.113 292.949 329.945 292.783 329.774 292.61C329.474 292.302 328.902 291.451 329.802 292.666C329.201 291.854 328.559 291.106 328.024 290.24C327.901 290.043 327.789 289.849 327.673 289.649C327.557 289.448 327.129 288.603 327.523 289.397C327.917 290.191 327.54 289.423 327.46 289.235C327.353 288.992 327.256 288.75 327.161 288.499C326.984 288.042 326.826 287.572 326.696 287.102C326.634 286.885 326.584 286.658 326.525 286.447C326.272 285.475 326.672 287.481 326.53 286.509C326.387 285.537 326.317 284.479 326.327 283.442C326.334 282.472 326.223 284.31 326.312 283.545C326.341 283.312 326.366 283.072 326.402 282.835C326.477 282.283 326.584 281.738 326.723 281.199C326.78 280.966 326.852 280.741 326.909 280.508C327.103 279.746 326.551 281.454 326.828 280.72C327.025 280.197 327.228 279.671 327.466 279.168C327.687 278.695 327.929 278.226 328.197 277.767C328.316 277.558 328.456 277.352 328.575 277.142C328.809 276.716 328.215 277.671 328.252 277.628C328.377 277.47 328.486 277.286 328.607 277.121C329.243 276.229 329.945 275.395 330.71 274.613C330.891 274.426 331.07 274.25 331.255 274.07C331.379 273.95 331.507 273.836 331.63 273.716C332.001 273.356 331.136 274.141 331.187 274.107C331.669 273.718 332.131 273.315 332.626 272.945C333.564 272.241 334.551 271.596 335.582 271.016C335.825 270.88 336.068 270.745 336.315 270.616C336.439 270.551 336.563 270.487 336.687 270.422C337.226 270.134 335.769 270.853 336.33 270.596C336.892 270.34 337.453 270.084 338.025 269.857C339.248 269.37 340.501 268.955 341.776 268.628C342.069 268.552 342.355 268.481 342.645 268.416C342.959 268.344 344.066 268.195 342.799 268.368C343.455 268.281 344.104 268.141 344.764 268.06C346.121 267.882 347.482 267.794 348.85 267.785C349.433 267.783 350.019 267.798 350.598 267.818C351.415 267.845 349.681 267.738 350.714 267.824C351.047 267.85 351.374 267.881 351.706 267.919C352.955 268.064 354.195 268.28 355.41 268.568C355.941 268.695 356.463 268.836 356.983 268.988C357.303 269.079 358.277 269.465 357.012 268.978C357.301 269.09 357.594 269.181 357.883 269.293C358.938 269.689 359.97 270.147 360.966 270.676C361.454 270.933 361.93 271.198 362.401 271.485C362.51 271.551 362.613 271.621 362.718 271.681C363.148 271.921 362.193 271.328 362.236 271.364C362.491 271.564 362.784 271.738 363.052 271.93C363.903 272.547 364.709 273.222 365.459 273.952C365.655 274.146 365.85 274.34 366.043 274.544C366.18 274.693 366.764 275.341 366.187 274.689C365.609 274.037 366.18 274.693 366.305 274.851C366.502 275.09 366.687 275.337 366.871 275.584C367.142 275.96 367.402 276.333 367.641 276.73C367.785 276.958 367.918 277.184 368.049 277.421C368.157 277.608 368.598 278.473 368.199 277.672C367.801 276.872 368.236 277.768 368.307 277.943C368.4 278.15 368.486 278.362 368.562 278.571C368.754 279.064 368.916 279.568 369.054 280.078C369.117 280.296 369.163 280.516 369.219 280.738C369.416 281.488 369.059 279.685 369.169 280.456C369.248 280.988 369.316 281.518 369.36 282.054C369.542 284.467 371.757 286.646 374.263 286.383C376.77 286.12 378.78 284.054 378.592 281.48C377.725 269.975 367.902 262.109 357.313 259.529C345.563 256.672 331.944 259.905 323.515 268.779C319.588 272.911 317.31 278.228 317.093 283.917C316.903 288.955 318.917 294.138 322.181 297.933C330.063 307.084 342.812 310.032 354.389 307.78C365.359 305.648 376.801 297.749 378.406 285.902C378.604 284.442 378.68 282.952 378.592 281.48C378.444 279.063 376.167 276.888 373.689 277.151C371.21 277.414 369.206 279.475 369.36 282.054L369.405 282.024Z" fill="#FF4409"/>
<path d="M88.3876 4.49491L31.8647 65.5868C29.9859 67.6175 30.1091 70.7867 32.1397 72.6655L37.9039 77.9986C39.9345 79.8773 43.1037 79.7542 44.9825 77.7236L101.505 16.6316C103.384 14.601 103.261 11.4317 101.23 9.55296L95.4663 4.21992C93.4357 2.34114 90.2664 2.46425 88.3876 4.49491Z" fill="#FF4409"/>
<path d="M57.3304 21.7702C53.7409 21.506 50.4562 23.9876 48.7905 27.7735C46.5539 26.6882 44.1318 26.0035 41.5701 25.8176C28.6242 24.8739 17.204 36.8417 16.0611 52.5524C14.9182 68.2631 24.4838 81.7541 37.4369 82.6949C50.3829 83.6386 61.803 71.6707 62.946 55.96C63.3012 51.0739 62.6168 46.4027 61.1226 42.2466C63.4429 40.372 65.0967 37.2257 65.3622 33.5532C65.8096 27.3947 62.2139 22.1183 57.3376 21.7674L57.3304 21.7702Z" fill="#FF4409"/>
<path d="M58.0824 17.211C55.0265 17.0485 52.251 17.6863 49.7064 19.4485C47.4296 21.0261 45.6983 23.3854 44.563 25.8802L50.6763 23.5489C45.1343 20.9117 38.9861 20.5346 33.1243 22.1844C28.2747 23.5472 24.0207 26.5799 20.6143 30.213C13.13 38.2056 10.0643 50.237 11.7934 60.9348C13.5224 71.6325 19.7924 81.91 30.1413 85.7327C35.2688 87.6291 40.6247 87.7887 45.8768 86.3136C50.7624 84.9371 55.0541 81.8735 58.4756 78.1934C66.2671 69.795 69.2975 56.9358 66.8808 45.8405C66.493 44.0666 66.0476 42.3148 65.4355 40.6017L63.8572 45.9791C68.64 42.0189 70.9627 35.3927 69.7147 29.287C68.4667 23.1812 64.4463 17.7863 58.0923 17.2155C55.6856 17.0034 53.0894 18.414 52.7711 21.018C52.49 23.3521 54.0026 26.1073 56.5736 26.3393C57.0194 26.3837 57.443 26.4779 57.8782 26.5593C58.4019 26.6565 56.8585 26.1564 57.5404 26.4737C57.7592 26.5717 57.9825 26.6598 58.1897 26.7705C58.3543 26.8562 59.02 27.1961 58.3063 26.8167C57.5925 26.4374 58.2421 26.8 58.3961 26.9227C58.5927 27.0704 58.7776 27.2308 58.9625 27.3912C59.0994 27.5122 59.6705 28.0367 59.0712 27.4817C58.4719 26.9268 59.0315 27.4639 59.155 27.6148C59.3149 27.8177 59.4675 28.0234 59.613 28.2319C59.7375 28.4071 59.8432 28.5977 59.9633 28.7828C60.279 29.2645 59.4661 27.76 59.8103 28.5113C60.0176 28.9683 60.2149 29.4209 60.379 29.8945C60.4542 30.1132 60.515 30.3375 60.5829 30.559C60.8868 31.5071 60.4117 29.4614 60.5589 30.4527C60.6283 30.9376 60.7094 31.4098 60.7473 31.8984C60.7697 32.1951 60.775 32.49 60.7902 32.7894C60.8237 33.6343 60.8602 32.0863 60.8066 32.6594C60.7529 33.2324 60.701 33.7883 60.6031 34.3535C60.5576 34.6018 60.5021 34.8457 60.4395 35.0923C60.2737 35.7823 60.2883 35.3231 60.4974 34.9629C60.2427 35.3982 60.126 35.9788 59.9067 36.4419C59.8059 36.6535 59.688 36.8634 59.5873 37.075C59.1709 37.9514 60.1933 36.2418 59.6312 37.0171C59.3662 37.382 59.1112 37.7514 58.8137 38.0958C58.6488 38.2907 58.4297 38.4732 58.2748 38.6725L58.7619 38.1981C58.6327 38.3133 58.5007 38.4214 58.3687 38.5295C56.7571 39.8616 56.073 41.8958 56.7904 43.9068C57.0121 44.5316 57.2222 45.169 57.408 45.8075C57.5 46.1353 57.5893 46.4559 57.6741 46.7864C57.7036 46.9071 57.8448 47.4719 57.6961 46.844C57.5336 46.1802 57.7102 46.9459 57.7424 47.0738C58.0492 48.5486 58.2496 50.0475 58.3527 51.5505C58.4027 52.2655 58.4256 52.9744 58.434 53.6887C58.4341 53.8619 58.394 54.9246 58.4405 54.3543C58.4869 53.784 58.437 54.3886 58.4312 54.4815C58.4173 54.726 58.4033 54.9705 58.3894 55.215C58.304 56.4188 58.1501 57.6157 57.9421 58.8002C57.734 59.9848 57.4312 61.1807 57.1059 62.3605C56.9706 62.8492 57.2628 61.8635 57.2494 61.8933C57.1987 62.0199 57.1679 62.1554 57.1199 62.2891C57.0384 62.5512 56.9469 62.8087 56.8554 63.0663C56.6547 63.6212 56.444 64.1717 56.2134 64.7133C55.7789 65.7367 55.3019 66.7352 54.7679 67.7141C54.6411 67.9439 54.5143 68.1737 54.3776 68.399C54.3142 68.5139 54.2408 68.6244 54.1774 68.7393C54.1524 68.7818 54.7282 67.8694 54.4482 68.2814C54.1109 68.7812 53.7935 69.2898 53.4364 69.7807C52.8143 70.6365 52.1541 71.4574 51.4459 72.2388C51.1151 72.6042 50.7218 72.9356 50.4137 73.317C50.3743 73.3651 51.1998 72.5884 50.8309 72.9187C50.7394 73.0031 50.6478 73.0875 50.5635 73.1692C50.3499 73.3661 50.1381 73.5459 49.9217 73.7356C49.1569 74.3901 48.3485 74.9954 47.5037 75.5485C47.0669 75.8305 46.6191 76.0837 46.1768 76.3514C45.7346 76.619 46.8235 76.014 46.7443 76.0443C46.6363 76.0854 46.532 76.1582 46.4268 76.2066C46.1758 76.327 45.9348 76.452 45.681 76.5652C44.7913 76.9788 43.8741 77.3203 42.9376 77.6114C42.7161 77.6794 42.4847 77.7429 42.2604 77.8037C42.1569 77.8349 42.0272 77.8844 41.9227 77.8913C41.8181 77.8982 43.0642 77.6622 42.5577 77.7398C42.0512 77.8175 41.5585 77.9312 41.0493 78.0017C40.0209 78.1382 38.9996 78.0987 37.9708 78.1694C37.9077 78.177 39.0545 78.2428 38.5716 78.1877C38.4516 78.1758 38.3271 78.1737 38.2098 78.169C37.9626 78.1478 37.7081 78.1294 37.4581 78.101C36.9238 78.0408 36.3912 77.9635 35.8648 77.8591C35.3826 77.7626 34.9093 77.6462 34.4333 77.5225C34.3149 77.4934 34.1983 77.4472 34.0827 77.4253C34.0286 77.4129 35.0777 77.7634 34.6312 77.5873C34.3681 77.4814 34.0917 77.4054 33.8214 77.3022C32.8299 76.9298 31.874 76.4778 30.9592 75.9607C30.8542 75.9017 30.7465 75.8356 30.6416 75.7766C30.2173 75.5508 31.1729 76.1101 31.1276 76.0779C30.9383 75.9274 30.7112 75.8078 30.5129 75.6772C30.0684 75.3766 29.6427 75.0606 29.2215 74.7346C28.3962 74.0844 27.6956 73.3288 26.908 72.6477C26.8699 72.6127 27.6195 73.4321 27.3036 73.0577C27.2264 72.9634 27.1321 72.8674 27.0477 72.7759C26.848 72.5551 26.6555 72.3316 26.4675 72.0981C26.1152 71.6716 25.7673 71.2352 25.4383 70.7834C24.7956 69.8985 24.2295 68.9762 23.675 68.0412C23.4145 67.5962 23.9721 68.6042 23.9502 68.5466C23.8963 68.427 23.828 68.3128 23.7669 68.1959C23.6447 67.962 23.5271 67.7182 23.4093 67.4744C23.1574 66.9437 22.9227 66.4146 22.6996 65.8729C22.2452 64.7678 21.8555 63.638 21.5334 62.4906C21.4562 62.2232 21.3862 61.953 21.3161 61.6828C21.095 60.8433 21.5181 62.645 21.3429 61.7963C21.2196 61.1917 21.1034 60.5844 21.0045 59.9789C20.8192 58.7794 20.6899 57.575 20.6308 56.3604C20.6031 55.7688 20.5899 55.1718 20.5938 54.5765C20.5957 54.2788 20.6121 53.9757 20.6068 53.6808C20.6286 54.9921 20.6151 53.7024 20.6421 53.3622C20.7274 52.1584 20.8813 50.9616 21.0893 49.777C21.2974 48.5924 21.5673 47.4833 21.8848 46.3478C22.1139 45.5428 21.5946 47.209 21.8635 46.4219C21.955 46.1643 22.0365 45.9023 22.128 45.6447C22.3366 45.0455 22.5652 44.4552 22.8108 43.8667C23.2453 42.8432 23.7223 41.8448 24.2563 40.8659C24.3831 40.6361 24.5099 40.4063 24.6466 40.1809C24.71 40.066 24.7834 39.9556 24.8468 39.8407C24.8718 39.7981 24.296 40.7105 24.576 40.2986C24.8855 39.8341 25.1851 39.3652 25.5145 38.9097C26.1266 38.0494 26.794 37.2258 27.5022 36.4444C27.8608 36.0437 28.2845 35.6842 28.6232 35.2746C28.6626 35.2265 27.8371 36.0032 28.206 35.6729C28.2975 35.5885 28.3891 35.5041 28.4734 35.4224C28.687 35.2255 28.8988 35.0457 29.1152 34.856C29.88 34.2015 30.6884 33.5962 31.5332 33.0431C31.9368 32.782 32.3485 32.5425 32.7575 32.2958C33.4498 31.8834 31.7735 32.7866 32.5048 32.4334C32.7558 32.313 32.9969 32.188 33.2478 32.0676C34.1709 31.6331 35.1213 31.2706 36.0993 30.9802C36.3208 30.9122 36.5522 30.8487 36.7765 30.7879C36.88 30.7567 37.0096 30.7072 37.1142 30.7003C37.2188 30.6934 35.9727 30.9295 36.4792 30.8518C36.9857 30.7741 37.4784 30.6604 37.9876 30.5899C38.9773 30.46 39.955 30.45 40.9488 30.4174C41.4385 30.4039 40.2838 30.3824 40.3552 30.3964C40.4707 30.4183 40.5997 30.4104 40.717 30.4151C41.0915 30.4455 41.4587 30.4786 41.8288 30.519C42.5373 30.6034 43.2379 30.7321 43.928 30.8979C44.0905 30.9349 45.0807 31.2171 44.4627 31.0239C43.8446 30.8307 44.8169 31.1527 44.9778 31.2068C45.6394 31.4494 46.2804 31.7245 46.9153 32.0268C49.1835 33.1083 52.0092 31.9317 53.0286 29.6954C53.1578 29.407 53.5742 28.877 53.5906 28.5738C53.5753 28.9013 53.096 29.3316 53.5388 28.6761C53.6488 28.5104 53.7688 28.3492 53.8915 28.1951C54.1342 27.8799 54.4078 27.6024 54.6587 27.3087C55.0351 26.8683 53.961 27.88 54.4201 27.5482C54.607 27.4109 54.7828 27.2449 54.9697 27.1077C55.1161 26.9941 55.2779 26.8994 55.427 26.7931C55.9454 26.4222 55.2319 26.9087 55.0492 26.9701C55.3903 26.8483 55.7041 26.6544 56.048 26.5397C56.2136 26.4766 56.4029 26.4539 56.563 26.3763C55.6057 26.8074 55.8162 26.5374 56.2767 26.469C56.6597 26.4137 57.9615 26.4534 56.5801 26.3781C57.8613 26.4503 58.9981 26.3385 60.0715 25.5415C60.9681 24.8861 61.7588 23.6938 61.8987 22.5683C62.1756 20.31 60.6729 17.386 58.0961 17.247L58.0824 17.211Z" fill="#FF4409"/>
<path d="M245.945 393.514H204.33V268.285H227.835L245.945 393.514Z" fill="#FAF1E7"/>
<path d="M245.945 388.891H204.33L208.954 393.515V283.737C208.954 278.667 209.101 273.565 208.954 268.494C208.954 268.425 208.954 268.355 208.954 268.286L204.33 272.91H227.835L223.373 269.519C223.974 273.688 224.583 277.865 225.184 282.034C226.625 291.983 228.058 301.932 229.499 311.889C231.249 323.98 232.998 336.071 234.747 348.17C236.25 358.566 237.753 368.962 239.256 379.358C239.988 384.406 240.55 389.515 241.452 394.532C241.467 394.601 241.475 394.678 241.483 394.748C241.637 395.811 242.724 396.998 243.61 397.514C244.604 398.092 246.06 398.339 247.17 397.977C248.28 397.615 249.367 396.921 249.937 395.85C250.561 394.679 250.592 393.592 250.399 392.29C249.798 388.12 249.189 383.943 248.588 379.774C247.147 369.825 245.714 359.876 244.273 349.92C242.523 337.828 240.774 325.737 239.025 313.638C237.522 303.242 236.019 292.846 234.516 282.45C234.023 279.021 233.522 275.592 233.029 272.17C232.798 270.544 232.636 268.887 232.32 267.277C232.305 267.207 232.297 267.13 232.289 267.061C232.004 265.088 229.677 263.67 227.827 263.67H204.323C201.826 263.67 199.699 265.789 199.699 268.294V378.071C199.699 383.15 199.599 388.236 199.699 393.314C199.699 393.384 199.699 393.453 199.699 393.523C199.699 396.019 201.818 398.146 204.323 398.146H245.937C248.357 398.146 250.677 396.019 250.561 393.523C250.445 391.026 248.526 388.899 245.937 388.899L245.945 388.891Z" fill="#FF4409"/>
<path d="M278.73 400.068H210.081C206.921 400.068 204.332 397.479 204.332 394.319V378.845C204.332 375.685 206.921 373.096 210.081 373.096H263.255C274.93 373.096 284.478 382.644 284.478 394.319C284.478 397.479 281.889 400.068 278.73 400.068Z" fill="#FF4409"/>
<path d="M278.73 395.443C275.562 395.443 272.403 395.443 269.235 395.443C262.045 395.443 254.855 395.443 247.673 395.443H224.746C220.13 395.443 215.514 395.443 210.898 395.443C210.628 395.443 210.359 395.443 210.081 395.443C209.989 395.443 209.827 395.443 209.804 395.443C209.025 395.443 210.906 395.698 209.865 395.428C209.696 395.382 209.534 395.32 209.372 395.274C208.933 395.158 209.881 395.482 209.889 395.49C209.827 395.389 208.548 394.65 209.295 395.166C210.089 395.721 208.679 394.31 209.233 395.104C209.688 395.752 209.149 394.904 209.025 394.734C208.632 394.156 209.172 395.012 209.172 395.143C209.172 395.027 209.033 394.75 209.01 394.657C208.971 394.511 208.956 394.272 208.887 394.149C208.964 394.303 208.956 395.235 208.956 394.588C208.979 391.821 208.956 389.055 208.956 386.296V379.275C208.956 379.16 208.956 379.044 208.956 378.928C208.956 378.905 208.956 378.882 208.956 378.851C208.956 378.759 208.956 378.605 208.956 378.582C208.956 377.765 208.748 379.422 208.91 378.898C208.987 378.643 209.149 378.289 209.164 378.027C209.118 378.836 208.763 378.821 209.018 378.435C209.11 378.297 209.203 378.142 209.28 378.004C209.557 377.526 209.488 378.166 209.018 378.335C209.102 378.304 209.21 378.119 209.28 378.058C209.449 377.911 209.873 377.642 209.28 378.004C208.602 378.412 209.28 378.019 209.434 377.927C209.519 377.873 209.842 377.742 209.881 377.68C209.835 377.757 208.771 378.05 209.488 377.857C209.696 377.796 210.721 377.626 209.889 377.711C209.056 377.796 209.889 377.734 210.097 377.734C210.482 377.734 210.875 377.734 211.26 377.734H251.187C255.202 377.734 259.217 377.711 263.24 377.734C263.694 377.734 264.141 377.749 264.596 377.78C264.904 377.803 265.22 377.826 265.529 377.857C265.721 377.88 266.346 377.934 265.575 377.857C264.75 377.773 265.552 377.857 265.744 377.896C267.062 378.135 268.365 378.497 269.613 378.975C270.638 379.368 268.704 378.528 269.69 379.006C269.96 379.137 270.23 379.26 270.499 379.391C271.1 379.699 271.694 380.038 272.264 380.4C272.549 380.585 272.834 380.77 273.104 380.963C273.489 381.233 274.052 381.926 273.181 381.002C273.636 381.487 274.222 381.872 274.699 382.335C275.154 382.774 275.593 383.236 276.002 383.714C276.194 383.93 276.356 384.192 276.572 384.392C275.817 383.676 276.102 383.768 276.31 384.061C276.433 384.23 276.557 384.4 276.68 384.577C277.435 385.664 278.052 386.812 278.622 388.007C278.946 388.685 278.475 387.668 278.46 387.606C278.498 387.76 278.591 387.937 278.645 388.084C278.768 388.407 278.884 388.731 278.984 389.055C279.2 389.717 279.377 390.38 279.523 391.058C279.585 391.359 279.647 391.659 279.701 391.96C279.893 393.077 279.593 390.904 279.716 392.037C279.793 392.746 279.839 393.463 279.839 394.179C279.839 394.403 279.801 394.634 279.816 394.85C279.739 393.887 279.97 393.994 279.855 394.395C279.809 394.557 279.755 394.727 279.716 394.896C279.585 395.42 279.431 394.858 279.893 394.503C279.816 394.565 279.685 394.888 279.647 394.95C279.585 395.05 279.493 395.158 279.439 395.266C279.207 395.759 280.117 394.588 279.685 394.919C279.57 395.012 279.408 395.15 279.331 395.274C279.107 395.605 279.716 394.973 279.778 394.95C279.631 394.996 278.984 395.358 278.907 395.474C278.969 395.389 280.009 395.12 279.3 395.297C279.138 395.335 278.961 395.389 278.799 395.436C278.637 395.482 278.159 395.536 278.899 395.443C279.762 395.335 278.868 395.42 278.714 395.42C276.295 395.474 273.975 397.509 274.09 400.044C274.206 402.579 276.125 404.729 278.714 404.668C283.269 404.56 287.076 401.732 288.586 397.455C289.149 395.859 289.156 394.079 289.002 392.415C288.848 390.75 288.594 388.97 288.124 387.313C286.351 381.071 282.205 375.661 276.695 372.247C272.58 369.696 267.764 368.448 262.947 368.448C261.198 368.448 259.456 368.448 257.707 368.448H214.366C212.948 368.448 211.53 368.425 210.12 368.448C206.559 368.502 203.485 370.213 201.442 373.095C200.101 374.991 199.701 377.287 199.701 379.56V390.342C199.701 391.605 199.693 392.862 199.701 394.125C199.724 397.724 201.419 400.869 204.348 402.926C206.567 404.483 209.11 404.668 211.692 404.668C213.827 404.668 215.961 404.668 218.096 404.668C225.355 404.668 232.622 404.668 239.882 404.668C247.827 404.668 255.78 404.668 263.725 404.668C268.496 404.668 273.258 404.668 278.028 404.668H278.714C281.134 404.668 283.454 402.541 283.338 400.044C283.223 397.547 281.304 395.42 278.714 395.42L278.73 395.443Z" fill="#FF4409"/>
<path d="M142.678 393.514H184.292V268.285H160.788L142.678 393.514Z" fill="#FAF1E7"/>
<path d="M142.679 398.139C147.38 398.139 152.08 398.139 156.774 398.139C164.226 398.139 171.678 398.139 179.138 398.139C180.856 398.139 182.575 398.139 184.293 398.139C186.79 398.139 188.917 396.019 188.917 393.515C188.917 389.338 188.917 385.161 188.917 380.984C188.917 371.02 188.917 361.056 188.917 351.099V314.979C188.917 304.568 188.917 294.156 188.917 283.745C188.917 278.667 189.017 273.58 188.917 268.502C188.917 268.432 188.917 268.363 188.917 268.294C188.917 265.797 186.798 263.67 184.293 263.67C177.427 263.67 170.568 263.67 163.702 263.67C162.731 263.67 161.76 263.67 160.789 263.67C158.97 263.67 156.612 265.096 156.327 267.061C155.726 271.23 155.117 275.407 154.516 279.576L150.2 309.43C148.451 321.522 146.701 333.613 144.952 345.712C143.449 356.108 141.947 366.504 140.444 376.9C139.712 381.955 138.972 387.018 138.247 392.074C138.24 392.143 138.224 392.22 138.217 392.29C138.032 393.569 138.001 394.686 138.679 395.85C139.242 396.805 140.344 397.723 141.446 397.977C143.634 398.478 146.763 397.306 147.133 394.748C147.734 390.579 148.343 386.402 148.944 382.233C150.385 372.284 151.818 362.335 153.26 352.378C155.009 340.287 156.758 328.195 158.508 316.096C160.01 305.701 161.513 295.305 163.016 284.909C163.748 279.861 164.634 274.806 165.212 269.735C165.22 269.665 165.235 269.588 165.243 269.519L160.781 272.91C167.647 272.91 174.506 272.91 181.372 272.91C182.343 272.91 183.314 272.91 184.285 272.91L179.662 268.286C179.662 272.463 179.662 276.64 179.662 280.817C179.662 290.781 179.662 300.745 179.662 310.702C179.662 322.739 179.662 334.784 179.662 346.822C179.662 357.233 179.662 367.644 179.662 378.056C179.662 383.127 179.515 388.228 179.662 393.299C179.662 393.368 179.662 393.438 179.662 393.507L184.285 388.883C179.585 388.883 174.884 388.883 170.19 388.883C162.738 388.883 155.286 388.883 147.827 388.883C146.108 388.883 144.389 388.883 142.671 388.883C140.251 388.883 137.932 391.01 138.047 393.507C138.163 396.004 140.082 398.131 142.671 398.131L142.679 398.139Z" fill="#FF4409"/>
<path d="M109.897 400.066H178.546C181.706 400.066 184.295 397.477 184.295 394.317V378.843C184.295 375.683 181.706 373.094 178.546 373.094H125.372C113.697 373.094 104.148 382.642 104.148 394.317C104.148 397.477 106.738 400.066 109.897 400.066Z" fill="#FF4409"/>
<path d="M109.898 404.69C113.296 404.69 116.687 404.69 120.085 404.69C127.645 404.69 135.213 404.69 142.773 404.69C150.541 404.69 158.301 404.69 166.069 404.69C170.169 404.69 174.269 404.721 178.369 404.69C184.257 404.651 188.88 399.966 188.911 394.094C188.934 390.803 188.911 387.505 188.911 384.214C188.911 380.415 189.412 376.153 187.015 372.916C184.95 370.134 181.96 368.524 178.477 368.47C178.014 368.47 177.552 368.47 177.09 368.47H158.903C151.003 368.47 143.104 368.47 135.205 368.47C130.296 368.47 125.149 368.092 120.301 368.986C113.859 370.181 108.272 374.095 104.403 379.29C102.569 381.748 101.22 384.638 100.419 387.589C99.6173 390.541 98.9237 394.664 100.118 397.723C101.744 401.869 105.389 404.59 109.898 404.698C112.317 404.751 114.629 402.532 114.521 400.074C114.414 397.615 112.487 395.512 109.898 395.45C109.828 395.45 109.451 395.388 109.358 395.427C109.481 395.381 110.499 395.697 109.813 395.465C109.612 395.396 108.649 395.08 109.389 395.365C110.129 395.65 109.112 395.126 108.942 395.041C108.557 394.841 109.374 395.342 109.381 395.373C109.381 395.35 108.865 394.841 108.842 394.833C108.873 394.841 109.374 395.658 109.173 395.273C109.096 395.126 108.996 394.98 108.903 394.849C108.341 394.001 109.096 395.604 108.903 394.91C108.857 394.749 108.819 394.571 108.765 394.41C108.534 393.724 108.85 394.733 108.803 394.864C108.88 394.664 108.78 394.155 108.78 393.924C108.796 393.254 108.842 392.591 108.911 391.92C108.996 391.096 108.742 392.992 108.911 391.974C108.981 391.589 109.058 391.204 109.142 390.818C109.289 390.186 109.466 389.562 109.666 388.946C109.774 388.622 109.89 388.298 110.013 387.975C110.059 387.859 110.113 387.736 110.152 387.613C109.697 388.915 109.952 388.075 110.098 387.774C110.653 386.58 111.316 385.439 112.086 384.368C112.163 384.268 112.233 384.16 112.31 384.06C112.741 383.459 112.094 384.353 112.048 384.391C112.287 384.183 112.487 383.852 112.695 383.613C113.142 383.104 113.612 382.619 114.098 382.156C114.344 381.925 114.591 381.702 114.853 381.478C114.999 381.355 115.832 380.715 115.169 381.201C114.506 381.686 115.361 381.062 115.516 380.954C115.824 380.738 116.147 380.523 116.463 380.322C117.003 379.983 117.558 379.667 118.12 379.382C118.421 379.228 118.737 379.089 119.045 378.943C119.323 378.812 119.816 378.696 118.644 379.105C118.806 379.051 118.96 378.974 119.122 378.92C120.425 378.426 121.765 378.087 123.129 377.841C123.939 377.694 122.043 377.956 123.083 377.841C123.438 377.802 123.792 377.771 124.147 377.756C124.555 377.733 124.964 377.725 125.372 377.717C125.727 377.717 126.081 377.717 126.428 377.717H132.786C140.13 377.717 147.482 377.717 154.826 377.717C161.476 377.717 168.127 377.717 174.77 377.717C176.018 377.717 177.267 377.694 178.508 377.717C178.508 377.717 178.523 377.717 178.531 377.717C178.623 377.717 178.962 377.717 178.8 377.717C179.247 377.717 179.201 377.979 178.361 377.648C178.623 377.756 178.962 377.81 179.24 377.887C179.779 378.041 178.431 377.363 178.839 377.725C178.97 377.841 179.24 377.964 179.386 378.049C179.864 378.326 179.224 378.257 179.055 377.787C179.086 377.872 179.271 377.979 179.332 378.049C180.018 378.835 178.893 377.178 179.402 378.095C179.463 378.203 179.525 378.319 179.594 378.419C179.987 378.989 179.471 378.134 179.448 378.01C179.486 378.226 179.771 379.49 179.687 378.65C179.602 377.81 179.664 378.673 179.664 378.912C179.664 379.051 179.664 379.189 179.664 379.336V381.077C179.664 384.715 179.664 388.36 179.664 391.997C179.664 392.899 179.64 393.808 179.648 394.71C179.648 395.303 179.872 393.701 179.702 394.263C179.656 394.425 179.625 394.602 179.571 394.764C179.278 395.704 180.01 394.086 179.586 394.718C179.494 394.849 179.402 395.011 179.324 395.149C179.055 395.627 179.101 395.003 179.586 394.818C179.517 394.841 179.263 395.157 179.24 395.18C178.847 395.635 179.417 395.003 179.594 394.941C179.448 394.987 178.8 395.35 178.723 395.465C178.785 395.381 179.825 395.111 179.116 395.288C178.955 395.327 178.777 395.381 178.615 395.427C177.883 395.643 179.764 395.381 178.662 395.411C178.608 395.411 178.562 395.411 178.515 395.411C175.171 395.473 171.818 395.411 168.482 395.411C161.253 395.411 154.032 395.411 146.803 395.411C139.174 395.411 131.545 395.411 123.908 395.411C119.446 395.411 114.984 395.411 110.522 395.411H109.875C107.455 395.411 105.135 397.538 105.251 400.035C105.366 402.532 107.285 404.659 109.875 404.659L109.898 404.69Z" fill="#FF4409"/>
<path d="M315.102 177.099C315.102 188.659 284.006 195.155 280.623 205.582C277.117 216.394 298.325 239.906 291.782 248.9C285.17 257.986 256.21 245.039 247.124 251.651C238.13 258.201 241.529 289.775 230.724 293.281C220.298 296.664 204.53 269.229 192.979 269.229C181.427 269.229 165.659 296.664 155.233 293.281C144.421 289.775 147.827 258.194 138.834 251.651C129.748 245.039 100.787 257.986 94.175 248.9C87.6246 239.906 108.84 216.387 105.334 205.582C101.951 195.155 70.8555 188.651 70.8555 177.099C70.8555 165.548 101.951 159.043 105.334 148.617C108.84 137.805 87.6323 114.292 94.175 105.299C100.787 96.2132 129.748 109.16 138.834 102.548C147.827 95.9974 144.428 64.4243 155.233 60.9179C165.659 57.5348 181.427 84.9695 192.979 84.9695C204.53 84.9695 220.298 57.5348 230.724 60.9179C241.537 64.4243 238.13 96.0051 247.124 102.548C256.21 109.16 285.17 96.2132 291.782 105.299C298.333 114.292 277.117 137.812 280.623 148.617C284.006 159.043 315.102 165.548 315.102 177.099Z" fill="#FAF1E7"/>
<path d="M309.322 177.097C309.322 177.267 309.307 177.437 309.299 177.606C309.299 178.461 309.63 175.903 309.415 176.735C309.33 177.067 309.253 177.39 309.16 177.714C308.837 178.824 309.939 176.15 309.268 177.444C309.076 177.822 308.844 178.169 308.613 178.523C307.958 179.525 309.646 177.329 308.821 178.261C308.559 178.562 308.297 178.862 308.012 179.147C307.357 179.818 306.64 180.411 305.924 181.012C305.207 181.613 307.164 180.095 306.371 180.665C306.209 180.781 306.055 180.897 305.901 181.012C305.546 181.267 305.184 181.521 304.822 181.768C303.92 182.376 302.995 182.954 302.063 183.517C300.229 184.611 298.348 185.636 296.46 186.646C292.723 188.642 288.916 190.553 285.34 192.842C281.764 195.13 278.296 197.681 276.239 201.311C271.561 209.603 277.017 219.799 280.662 227.366C281.649 229.424 282.666 231.466 283.637 233.524C284.107 234.525 284.569 235.527 285.008 236.545C285.078 236.706 285.147 236.876 285.224 237.038C285.656 238.024 284.654 235.651 285.055 236.637C285.278 237.2 285.509 237.762 285.717 238.325C286.38 240.089 286.904 241.87 287.259 243.719C287.359 244.259 287.228 244.937 287.166 243.01C287.166 243.211 287.213 243.411 287.22 243.611C287.251 243.997 287.259 244.39 287.251 244.775C287.236 245.53 286.781 246.509 287.344 244.513C287.251 244.852 287.213 245.199 287.105 245.538C286.673 246.91 287.821 244.274 287.228 245.253C286.835 245.908 286.134 246.347 287.475 245.075C287.228 245.307 286.997 245.569 286.758 245.815C286.172 246.416 288.107 244.898 287.39 245.337C287.243 245.43 287.097 245.538 286.95 245.623C286.642 245.808 286.311 245.946 285.995 246.116C287.821 245.099 286.781 245.792 286.134 245.985C285.748 246.1 285.355 246.193 284.97 246.278C284.762 246.316 284.562 246.347 284.353 246.393C283.444 246.578 286.149 246.216 284.816 246.332C280.693 246.686 276.578 246.239 272.493 245.7C272.062 245.646 270.952 245.484 272.902 245.754C272.617 245.715 272.339 245.677 272.054 245.638C271.584 245.576 271.106 245.507 270.636 245.438C268.995 245.206 267.345 244.983 265.704 244.759C263.515 244.467 261.327 244.197 259.13 244.035C255.185 243.742 250.862 243.711 247.132 245.199C245.012 246.046 243.063 247.179 241.575 248.952C239.957 250.878 238.924 252.874 237.969 255.186C236.435 258.901 235.672 262.908 234.948 266.846C234.177 271.054 233.538 275.3 232.543 279.469C232.104 281.326 231.565 283.145 230.902 284.941C230.732 285.395 230.286 286.112 231.156 284.363C231.064 284.548 230.987 284.748 230.894 284.941C230.725 285.311 230.54 285.673 230.339 286.035C230.185 286.32 230.016 286.597 229.846 286.875C229.746 287.037 229.638 287.183 229.53 287.345C228.875 288.339 230.455 286.282 229.877 286.898C229.638 287.152 229.415 287.422 229.16 287.661C228.12 288.64 230.378 286.898 229.415 287.499C229.16 287.661 228.891 287.8 228.636 287.954C228.197 288.216 227.688 288.062 229.492 287.599C229.276 287.653 229.076 287.746 228.86 287.807C228.698 287.846 228.528 287.869 228.367 287.915C230.093 287.391 229.838 287.777 229.237 287.784C228.898 287.784 228.559 287.784 228.22 287.769C227.349 287.746 229.916 288.085 229.06 287.877C228.883 287.831 228.706 287.807 228.528 287.761C228.166 287.669 227.812 287.553 227.457 287.43C226.972 287.276 226.401 286.836 228.112 287.723C227.935 287.63 227.742 287.561 227.557 287.468C227.18 287.283 226.802 287.083 226.44 286.875C225.615 286.405 224.814 285.873 224.043 285.318C223.635 285.025 222.325 283.923 223.943 285.264C223.55 284.941 223.149 284.625 222.756 284.301C221.87 283.561 220.999 282.791 220.144 282.012C216.799 278.96 213.64 275.724 210.28 272.687C207.105 269.821 203.706 266.869 199.76 265.128C197.541 264.149 195.268 263.401 192.794 263.455C190.32 263.509 188.054 264.249 185.804 265.289C181.774 267.154 178.29 270.268 175.046 273.242C171.717 276.294 168.557 279.538 165.19 282.552C164.465 283.199 163.733 283.839 162.986 284.455C162.593 284.779 161.044 285.935 162.77 284.655C162.315 284.995 161.868 285.334 161.406 285.657C160.728 286.127 160.034 286.574 159.31 286.983C158.94 287.183 158.57 287.368 158.192 287.553C157.707 287.792 157.09 287.8 158.84 287.291C158.593 287.36 158.362 287.476 158.115 287.553C157.761 287.669 157.406 287.746 157.052 287.838C155.88 288.123 158.847 287.723 157.375 287.784C157.09 287.8 156.813 287.769 156.528 287.769C155.672 287.753 158.223 288.116 157.406 287.877C157.19 287.815 156.975 287.761 156.759 287.707C155.665 287.414 158.316 288.509 157.082 287.831C156.79 287.669 156.528 287.468 156.25 287.291C157.953 288.355 157.106 287.969 156.651 287.53C156.173 287.068 155.464 285.827 156.62 287.63C156.204 286.983 155.765 286.359 155.402 285.673C155.21 285.303 155.048 284.925 154.863 284.548C154.509 283.815 155.241 285.411 155.194 285.334C155.048 285.102 154.971 284.771 154.878 284.509C154.208 282.706 153.707 280.833 153.276 278.96C151.326 270.507 150.833 261.621 147.303 253.606C145.531 249.584 142.602 246.594 138.464 245.052C134.665 243.642 130.264 243.742 126.288 244.074C123.606 244.289 120.94 244.659 118.281 245.022C117.194 245.168 116.108 245.322 115.021 245.476C114.458 245.553 113.888 245.63 113.326 245.715C112.208 245.869 114.851 245.515 113.734 245.661C113.364 245.707 112.987 245.761 112.617 245.808C110.467 246.077 108.316 246.316 106.151 246.416C105.242 246.463 104.332 246.478 103.423 246.463C102.953 246.455 102.49 246.432 102.02 246.401C101.35 246.355 99.5928 245.892 101.797 246.416C101.072 246.239 100.333 246.154 99.6159 245.923C99.431 245.869 99.2537 245.792 99.0765 245.738C98.2288 245.476 100.548 246.447 99.7701 246.039C99.4002 245.838 99.038 245.646 98.6835 245.43C97.7047 244.829 99.9396 246.578 98.9147 245.576C98.7914 245.453 98.6835 245.322 98.5602 245.206C97.9668 244.621 99.4618 246.555 99.0457 245.831C98.907 245.584 98.7605 245.337 98.6141 245.099C98.1826 244.374 99.169 246.663 98.9301 245.854C98.8684 245.63 98.7837 245.422 98.722 245.199C98.6758 245.029 98.6527 244.852 98.6064 244.682C98.3906 243.827 98.7528 246.393 98.7143 245.507C98.6989 245.129 98.6604 244.76 98.6681 244.382C98.6681 244.051 98.6989 243.727 98.7143 243.403C98.7451 242.887 99.0148 242.147 98.5987 244.128C98.6526 243.85 98.6835 243.565 98.7374 243.288C99.0919 241.423 99.7007 239.604 100.387 237.831C100.572 237.346 100.78 236.86 100.972 236.375C100.186 238.371 100.934 236.483 101.134 236.028C101.581 235.011 102.051 234.001 102.529 233C103.546 230.85 104.602 228.723 105.627 226.58C107.592 222.465 109.65 218.226 110.729 213.772C111.769 209.503 111.892 204.864 109.503 200.995C107.268 197.381 103.708 194.776 100.163 192.556C96.5488 190.298 92.7264 188.38 88.9734 186.368C87.0237 185.32 85.0817 184.257 83.1936 183.101C82.4153 182.623 81.6447 182.13 80.8894 181.613C80.4964 181.344 80.1111 181.066 79.7258 180.789C79.3404 180.511 78.7393 179.879 80.1573 181.136C79.9338 180.935 79.6873 180.766 79.4561 180.573C78.8627 180.072 78.2847 179.548 77.7452 178.986C77.4678 178.7 77.2212 178.392 76.9592 178.099C76.3658 177.429 77.8762 179.409 77.3984 178.662C77.2674 178.454 77.121 178.261 76.99 178.053C76.8051 177.752 76.6586 177.429 76.4814 177.113C76.1654 176.55 76.859 178.022 76.859 178.014C76.8821 177.93 76.7203 177.621 76.6894 177.529C76.5893 177.205 76.543 176.874 76.4583 176.55C76.99 178.577 76.5893 177.544 76.597 176.743C76.597 175.579 76.2271 178.523 76.5585 177.121C76.6278 176.82 76.7511 176.527 76.8359 176.234C76.9977 175.626 76.096 177.791 76.4891 177.059C76.5738 176.905 76.6432 176.743 76.728 176.589C76.936 176.211 77.1749 175.872 77.4061 175.51C77.8839 174.77 76.3735 176.743 76.9669 176.072C77.0979 175.926 77.2212 175.772 77.3445 175.626C77.6142 175.325 77.8994 175.032 78.1845 174.747C78.8087 174.138 79.5023 173.614 80.1573 173.036C78.5467 174.454 79.8491 173.283 80.296 172.967C80.6891 172.689 81.0898 172.412 81.4982 172.15C82.3459 171.595 83.2014 171.056 84.0799 170.539C85.9217 169.445 87.8098 168.42 89.6978 167.418C93.5048 165.391 97.3734 163.442 100.988 161.091C104.325 158.918 107.97 156.236 109.835 152.591C111.946 148.468 111.707 143.883 110.482 139.513C109.257 135.144 107.137 130.759 105.118 126.574C104.124 124.524 103.115 122.482 102.151 120.417C101.681 119.415 101.227 118.413 100.787 117.404C100.618 117.011 100.248 116.017 100.949 117.797C100.849 117.55 100.749 117.311 100.649 117.065C100.425 116.51 100.209 115.955 100.009 115.392C99.3694 113.635 98.9609 111.878 98.5756 110.052C99.0226 112.194 98.6912 110.961 98.6604 110.376C98.6372 109.99 98.6295 109.605 98.6449 109.22C98.6526 109.035 98.6758 108.85 98.6835 108.665C98.722 107.778 98.3598 110.345 98.5756 109.489C98.6758 109.096 98.7759 108.711 98.8915 108.318C99.1304 107.509 98.144 109.798 98.5756 109.073C98.6604 108.927 98.7297 108.773 98.8222 108.626C99.5004 107.509 98.0978 109.389 98.5217 108.965C98.7606 108.726 99.0303 108.495 99.2538 108.249C98.1286 109.474 98.1363 109.042 98.6372 108.734C98.8376 108.611 99.0303 108.48 99.2383 108.372C99.4002 108.287 99.562 108.21 99.7238 108.125C100.494 107.709 98.1826 108.688 99.0303 108.426C99.3385 108.333 99.6391 108.218 99.9473 108.125C100.34 108.017 100.733 107.925 101.126 107.848C101.334 107.809 101.55 107.794 101.751 107.74C99.7547 108.218 100.718 107.871 101.296 107.817C105.411 107.416 109.603 107.971 113.68 108.511C114.798 108.657 112.154 108.303 113.272 108.457C113.557 108.495 113.834 108.534 114.119 108.572C114.69 108.649 115.252 108.734 115.823 108.811C117.371 109.027 118.92 109.243 120.469 109.443C122.65 109.728 124.831 109.998 127.028 110.152C131.528 110.468 136.175 110.268 140.306 108.318C144.436 106.368 146.525 102.53 148.081 98.5925C151.102 90.9246 151.472 82.4245 153.407 74.4638C153.861 72.5757 154.439 70.7493 155.11 68.9383C155.349 68.2987 154.431 70.4487 154.817 69.6242C154.909 69.4315 154.986 69.2388 155.079 69.0539C155.256 68.6917 155.441 68.3295 155.641 67.975C155.842 67.6205 156.034 67.3122 156.25 66.9963C157.106 65.7401 155.241 68.1214 156.242 67.0194C156.435 66.8036 156.643 66.611 156.851 66.4106C157.668 65.6091 155.426 67.3662 156.612 66.6033C156.89 66.426 157.19 66.295 157.476 66.1332C155.726 67.135 156.612 66.5262 157.36 66.3104C158.177 66.0792 155.634 66.4414 156.481 66.4183C156.62 66.4183 156.759 66.4029 156.898 66.3952C157.214 66.3952 157.522 66.4337 157.838 66.4414C155.711 66.4029 156.828 66.2873 157.529 66.4722C157.961 66.5878 158.362 66.7651 158.793 66.8961C156.774 66.3027 158.115 66.6033 158.701 66.8961C159.017 67.0579 159.333 67.2352 159.641 67.4124C160.504 67.921 161.336 68.4836 162.138 69.077C162.338 69.2234 162.531 69.3699 162.724 69.5163C161.175 68.368 162.007 68.9614 162.338 69.2311C162.739 69.5548 163.14 69.8862 163.533 70.2176C164.357 70.9111 165.159 71.6278 165.953 72.3599C169.289 75.4194 172.449 78.656 175.817 81.6846C179.4 84.9059 183.184 87.95 187.708 89.7224C192.031 91.4178 196.4 90.6934 200.469 88.7129C204.538 86.7323 207.844 83.7037 211.05 80.7522C214.256 77.8006 217.531 74.4561 220.899 71.4506C221.685 70.7493 222.479 70.0634 223.303 69.4007C223.496 69.2389 223.704 69.0847 223.897 68.9306C222.433 70.1482 223.165 69.4932 223.512 69.2311C223.897 68.946 224.282 68.6686 224.675 68.3911C225.407 67.8902 226.17 67.4124 226.956 66.9963C227.318 66.8036 227.704 66.6495 228.066 66.4645C226.17 67.4509 227.365 66.7574 227.958 66.5801C228.313 66.4723 228.667 66.4029 229.022 66.3181C229.877 66.1101 227.311 66.4568 228.182 66.426C228.351 66.426 228.521 66.4029 228.698 66.3952C229.499 66.3798 230.216 66.8499 228.336 66.2796C228.698 66.3875 229.091 66.4954 229.461 66.5878C227.758 66.1563 228.313 66.0561 228.968 66.4337C229.623 66.8113 230.1 67.5897 228.752 66.1948C228.991 66.4414 229.268 66.6495 229.499 66.8961C229.623 67.0271 229.731 67.1658 229.854 67.2891C230.432 67.9056 228.844 65.848 229.507 66.8422C229.9 67.4433 230.278 68.0443 230.601 68.684C230.786 69.0539 230.941 69.4469 231.133 69.8168C230.131 67.7977 230.994 69.5163 231.187 70.0788C231.834 71.9129 232.32 73.8087 232.752 75.7045C233.692 79.9045 234.324 84.1584 235.125 88.3815C235.927 92.6046 236.921 96.7892 238.701 100.75C240.481 104.711 243.579 107.778 247.81 109.235C251.686 110.568 256.14 110.399 260.163 110.044C262.806 109.805 265.434 109.443 268.062 109.081C269.149 108.934 270.235 108.78 271.322 108.626C271.838 108.557 272.362 108.487 272.879 108.41C270.667 108.719 273.056 108.387 273.588 108.326C275.73 108.056 277.872 107.832 280.03 107.74C281.009 107.694 281.995 107.686 282.974 107.717C283.436 107.732 283.891 107.755 284.353 107.802C284.5 107.817 284.646 107.832 284.8 107.848C286.134 107.963 283.429 107.601 284.338 107.786C285.132 107.948 285.895 108.125 286.673 108.364C287.837 108.726 285.155 107.601 286.48 108.295C286.796 108.457 287.082 108.657 287.382 108.842C288.099 109.289 286.164 107.763 286.75 108.364C286.866 108.487 287.005 108.595 287.12 108.719C287.236 108.842 287.336 108.988 287.459 109.104C286.203 107.909 286.673 107.994 286.958 108.487C287.328 109.127 287.444 110.044 286.92 108.164C287.02 108.518 287.143 108.873 287.243 109.235C287.606 110.537 287.151 107.624 287.205 108.85C287.22 109.227 287.243 109.605 287.236 109.982C287.228 110.383 287.159 110.776 287.151 111.177C287.22 108.911 287.22 110.645 287.082 111.316C286.681 113.204 286.041 115.03 285.332 116.826C285.232 117.072 285.132 117.311 285.039 117.558C284.639 118.544 285.64 116.171 285.209 117.157C285.032 117.573 284.847 117.989 284.662 118.398C284.169 119.5 283.652 120.594 283.136 121.689C282.149 123.746 281.14 125.796 280.154 127.854C276.647 135.206 271.43 145.455 276.485 153.331C278.843 156.999 282.489 159.627 286.157 161.885C289.825 164.143 293.64 166.039 297.4 168.066C299.188 169.029 300.968 170.015 302.702 171.079C303.55 171.595 304.39 172.135 305.207 172.697C305.531 172.921 305.854 173.152 306.17 173.383C306.556 173.66 307.149 174.292 305.739 173.036C305.908 173.183 306.093 173.314 306.263 173.46C306.918 173.999 307.557 174.57 308.143 175.186C308.42 175.471 308.667 175.78 308.929 176.072C309.407 176.604 308.328 175.371 308.374 175.356C308.397 175.348 308.675 175.78 308.698 175.81C308.898 176.111 309.083 176.419 309.253 176.743C309.923 178.038 308.821 175.363 309.145 176.473C309.237 176.797 309.314 177.121 309.399 177.452C309.607 178.284 309.276 175.726 309.284 176.581C309.284 176.751 309.299 176.92 309.307 177.09C309.345 180.111 311.935 183.008 315.087 182.87C318.238 182.731 320.913 180.326 320.866 177.09C320.743 167.765 311.125 162.371 303.951 158.463C300.105 156.367 296.175 154.418 292.422 152.152C291.582 151.643 290.757 151.119 289.948 150.572C289.594 150.333 289.247 150.087 288.9 149.832C288.746 149.724 288.6 149.601 288.446 149.493C290.11 150.657 289.131 150.025 288.754 149.717C288.122 149.193 287.505 148.645 286.943 148.044C286.681 147.767 286.457 147.466 286.195 147.189C287.652 148.753 286.627 147.759 286.288 147.189C285.91 146.557 285.833 145.601 286.349 147.52C286.28 147.251 286.157 146.996 286.08 146.727C285.895 146.033 286.018 144.916 286.057 147.027C286.057 146.588 285.987 146.149 285.995 145.702C285.995 145.301 286.041 144.9 286.072 144.499C286.134 143.552 285.795 146.149 285.972 145.201C286.01 144.985 286.041 144.777 286.08 144.561C286.265 143.582 286.527 142.611 286.827 141.656C287.105 140.777 287.413 139.914 287.744 139.051C287.937 138.558 288.13 138.072 288.33 137.587C288.738 136.593 287.729 138.966 288.168 137.98C288.315 137.648 288.461 137.309 288.607 136.978C289.524 134.913 290.519 132.878 291.505 130.851C293.624 126.497 295.813 122.112 297.354 117.519C298.649 113.651 299.543 109.035 298.071 105.081C294.418 95.2402 282.797 95.6563 274.15 96.6967C271.468 97.0204 268.802 97.4057 266.128 97.7756C265.565 97.8526 264.995 97.9297 264.432 98.0068C266.613 97.7062 264.51 97.9914 264.001 98.0607C262.907 98.1994 261.805 98.3227 260.703 98.4306C258.599 98.631 256.48 98.7697 254.36 98.6926C253.906 98.6772 253.443 98.6464 252.988 98.6079C252.773 98.5848 252.549 98.5462 252.333 98.5385C254.283 98.631 253.543 98.7158 253.019 98.6233C252.226 98.4769 251.47 98.2765 250.7 98.0299C249.544 97.6523 252.218 98.7928 250.908 98.0915C250.599 97.922 250.322 97.7062 250.014 97.5367C251.709 98.4923 250.823 98.2071 250.307 97.6831C249.813 97.1899 249.212 96.0031 250.307 97.791C249.944 97.1976 249.536 96.6427 249.212 96.0185C249.02 95.6563 248.858 95.2864 248.681 94.9165C248.28 94.0688 249.259 96.4038 248.935 95.5099C248.835 95.2325 248.727 94.9628 248.627 94.693C247.224 90.8167 246.507 86.7015 245.791 82.6557C245.036 78.4017 244.373 74.117 243.248 69.9401C242.122 65.7633 240.573 61.6481 237.568 58.5886C234.3 55.2518 229.553 54.0958 225.084 55.3673C220.683 56.6235 216.946 59.6136 213.555 62.5574C210.164 65.5013 206.873 68.8689 203.513 71.9977C201.926 73.4774 200.308 74.9107 198.612 76.2671C197.803 76.9221 199.807 75.3731 198.974 75.9819C198.774 76.1283 198.574 76.2825 198.373 76.4289C197.98 76.714 197.587 76.9915 197.179 77.2535C196.362 77.7929 195.522 78.2939 194.643 78.7177C194.459 78.8102 194.25 78.8795 194.073 78.9874C195.684 78.1012 195.198 78.5405 194.697 78.71C194.327 78.8333 193.958 78.9643 193.572 79.0645C193.272 79.1415 192.956 79.1801 192.655 79.2571C194.705 78.71 193.534 79.1724 192.755 79.1493C192.578 79.1493 192.393 79.1261 192.216 79.1184C191.33 79.0876 193.896 79.4344 193.025 79.2263C192.655 79.1339 192.285 79.0645 191.915 78.9566C191.545 78.8487 191.168 78.6715 190.79 78.5559C192.871 79.2032 191.222 78.7254 190.636 78.4171C189.896 78.0241 189.18 77.5849 188.486 77.1148C188.085 76.845 187.685 76.5599 187.292 76.2748C187.091 76.1283 186.891 75.9742 186.69 75.8201C188.309 77.0069 187.207 76.2208 186.852 75.928C185.157 74.5563 183.539 73.0843 181.943 71.5893C178.606 68.4528 175.401 65.1699 171.917 62.1875C168.434 59.2051 164.797 56.3152 160.435 55.244C156.073 54.1728 151.072 55.375 147.95 58.9508C145.061 62.2646 143.519 66.426 142.44 70.6337C140.383 78.6869 140.059 87.2795 137.092 95.0861C137.015 95.2864 136.923 95.4868 136.853 95.6872C137.462 93.8685 137.316 94.6314 137.1 95.0783C136.923 95.4405 136.753 95.8105 136.56 96.165C136.375 96.504 136.183 96.8354 135.975 97.1591C135.874 97.3132 135.767 97.4596 135.666 97.6138C135.204 98.3305 136.807 96.2883 136.021 97.1437C135.79 97.398 135.566 97.6523 135.312 97.8835C135.227 97.9605 134.981 98.107 134.934 98.2071C134.934 98.2071 136.268 97.2901 135.705 97.606C135.397 97.7756 135.104 97.976 134.796 98.1455C134.333 98.3998 133.701 98.4229 135.512 97.8681C135.273 97.9451 135.042 98.0453 134.803 98.1224C134.025 98.3767 133.224 98.4846 132.43 98.6541C134.634 98.1763 133.046 98.5694 132.43 98.6079C131.883 98.6464 131.343 98.6695 130.796 98.6772C128.738 98.7081 126.673 98.5539 124.623 98.3459C123.513 98.2303 122.411 98.0993 121.309 97.9606C121.032 97.922 120.747 97.8835 120.469 97.8527C122.427 98.0993 121.309 97.9683 120.878 97.9066C120.308 97.8295 119.745 97.7525 119.175 97.6677C116.416 97.2824 113.657 96.8817 110.89 96.5657C106.49 96.0648 102.013 95.7951 97.6431 96.7506C92.9885 97.7679 89.2277 100.82 87.6788 105.366C86.307 109.389 87.3165 114.059 88.6729 117.951C90.2835 122.559 92.4875 126.952 94.6145 131.337C95.6009 133.364 96.5796 135.39 97.4813 137.456C97.5892 137.702 97.6971 137.957 97.805 138.203C97.0189 136.462 97.4736 137.417 97.6354 137.81C97.8358 138.296 98.0284 138.781 98.2134 139.267C98.591 140.269 98.9455 141.286 99.2461 142.319C99.5004 143.189 99.693 144.068 99.8626 144.962C100.117 146.287 99.7393 143.367 99.8163 144.677C99.8471 145.139 99.878 145.601 99.8703 146.064C99.8549 146.781 99.4464 147.906 99.9705 145.833C99.8857 146.179 99.8395 146.534 99.7393 146.881C99.693 147.043 99.6314 147.197 99.5774 147.351C99.3308 148.145 100.31 145.848 99.9011 146.572C99.7007 146.919 99.5235 147.274 99.3 147.613C98.4831 148.838 100.24 146.557 99.431 147.459C99.2152 147.698 99.0071 147.936 98.7836 148.168C98.1517 148.815 97.4659 149.393 96.7723 149.971C96.0402 150.587 98.0285 149.054 97.2347 149.609C97.0497 149.74 96.8648 149.878 96.6798 150.009C96.2945 150.287 95.9092 150.549 95.5161 150.811C94.653 151.381 93.7745 151.928 92.8883 152.452C85.3977 156.891 76.9206 160.151 70.4319 166.108C67.3339 168.959 64.7677 173.028 64.9989 177.398C65.2301 181.768 67.7192 185.713 71.0792 188.58C77.8146 194.314 86.1606 197.558 93.6512 202.12C94.4835 202.629 95.3081 203.153 96.1096 203.708C96.4872 203.97 96.8571 204.247 97.2347 204.517C98.0208 205.079 96.0325 203.546 96.7723 204.155C96.9958 204.34 97.2193 204.517 97.4427 204.702C98.0593 205.226 98.6449 205.781 99.1844 206.382C99.5851 206.829 100.086 207.815 98.9917 206.073C99.2075 206.42 99.4618 206.744 99.6699 207.098C99.7547 207.245 99.824 207.399 99.9088 207.545C100.325 208.277 99.3385 205.973 99.5851 206.767C99.6853 207.098 99.8009 207.414 99.878 207.753C100.209 209.225 99.8086 206.251 99.8548 207.484C99.8703 207.938 99.8934 208.385 99.8703 208.832C99.8549 209.171 99.8009 209.51 99.7855 209.85C99.8626 207.63 99.878 209.156 99.7547 209.796C99.5543 210.782 99.2846 211.753 98.9763 212.716C98.668 213.68 98.3213 214.628 97.9437 215.568C97.7587 216.03 96.9419 217.849 97.8127 215.907C97.5892 216.408 97.3811 216.909 97.1576 217.41C96.1943 219.56 95.1539 221.679 94.1213 223.806C92.0174 228.129 89.8443 232.499 88.3724 237.092C87.1547 240.891 86.3764 245.391 87.8714 249.222C89.667 253.815 93.6512 256.697 98.4677 257.514C102.984 258.284 107.484 257.968 112.008 257.413C114.736 257.082 117.456 256.681 120.177 256.304C120.67 256.234 122.635 255.988 120.477 256.257C121.04 256.188 121.595 256.111 122.157 256.042C123.336 255.895 124.523 255.764 125.71 255.656C127.713 255.479 129.733 255.363 131.752 255.456C132.206 255.479 132.661 255.518 133.108 255.556C133.632 255.595 134.379 255.872 132.437 255.456C132.646 255.502 132.854 255.518 133.062 255.556C133.917 255.71 134.695 255.995 135.52 256.25C133.539 255.641 134.703 255.888 135.273 256.227C135.844 256.566 136.321 257.228 134.95 255.903C135.189 256.134 135.458 256.342 135.69 256.581C135.813 256.704 135.921 256.835 136.036 256.966C136.815 257.822 135.219 255.78 135.682 256.496C136.098 257.144 136.506 257.783 136.853 258.477C137.115 259.001 137.547 260.473 136.869 258.423C137.03 258.908 137.239 259.379 137.408 259.864C140.152 267.802 140.483 276.356 142.702 284.432C143.804 288.439 145.407 292.693 148.436 295.668C151.811 298.974 156.651 300.122 161.151 298.658C165.575 297.225 169.282 294.258 172.726 291.221C176.171 288.185 179.261 285.01 182.568 281.943C183.377 281.188 184.194 280.448 185.026 279.723C185.427 279.369 185.835 279.022 186.243 278.683C186.652 278.344 188.44 277.011 186.69 278.298C188.209 277.188 189.727 276.163 191.407 275.315C191.877 275.076 192.57 275.007 190.79 275.562C190.983 275.5 191.168 275.416 191.353 275.346C191.723 275.215 192.093 275.1 192.47 275.007C192.655 274.961 192.84 274.938 193.025 274.891C193.896 274.683 191.33 275.03 192.216 274.999C192.64 274.984 193.048 274.969 193.472 274.984C194.682 275.023 191.707 274.637 193.21 274.969C193.526 275.038 193.834 275.123 194.135 275.223C194.744 275.416 195.9 276.148 194.073 275.146C194.512 275.385 194.982 275.57 195.422 275.809C196.231 276.248 197.017 276.749 197.78 277.28C198.188 277.558 198.581 277.858 198.974 278.151C199.799 278.768 197.795 277.219 198.612 277.866C198.851 278.059 199.082 278.244 199.321 278.436C201.055 279.854 202.704 281.373 204.338 282.914C207.66 286.05 210.858 289.326 214.349 292.262C217.632 295.028 221.454 298.065 225.785 298.943C230.324 299.86 234.956 298.619 238.03 295.021C243.71 288.385 244.481 278.66 245.968 270.406C246.692 266.399 247.525 262.446 248.927 258.616C249.251 257.722 248.272 260.064 248.673 259.209C248.765 259.024 248.842 258.831 248.935 258.646C249.089 258.315 249.259 257.991 249.436 257.675C249.613 257.359 249.783 257.074 249.983 256.781C250.823 255.525 248.973 257.914 249.952 256.812C250.176 256.558 250.422 256.327 250.669 256.096C251.486 255.317 249.212 257.067 250.445 256.296C250.754 256.103 251.085 255.972 251.393 255.795C249.86 256.697 250.16 256.273 250.7 256.096C250.946 256.019 251.185 255.926 251.432 255.857C251.755 255.764 252.079 255.687 252.403 255.618C253.019 255.487 254.537 255.479 252.326 255.587C253.32 255.541 254.306 255.417 255.308 255.41C257.381 255.394 259.454 255.556 261.512 255.772C262.621 255.888 263.731 256.026 264.833 256.165C265.265 256.219 266.374 256.381 264.425 256.111C264.71 256.15 264.987 256.188 265.272 256.227C265.935 256.319 266.598 256.412 267.253 256.504C269.912 256.874 272.57 257.259 275.245 257.552C283.675 258.492 295.412 258.423 298.279 248.397C299.473 244.22 298.448 239.65 297.015 235.674C295.358 231.104 293.17 226.742 291.058 222.372C290.056 220.315 289.085 218.242 288.16 216.146C287.729 215.159 288.731 217.525 288.322 216.539C288.222 216.292 288.122 216.046 288.022 215.807C287.829 215.329 287.644 214.843 287.467 214.358C287.128 213.441 286.819 212.508 286.55 211.56C286.303 210.69 286.134 209.819 285.964 208.933C285.779 207.992 286.118 210.582 286.064 209.634C286.049 209.433 286.026 209.225 286.01 209.025C285.98 208.57 285.98 208.116 286.003 207.661C286.087 206.127 285.671 209.094 285.956 207.923C286.026 207.638 286.095 207.353 286.18 207.068C286.226 206.913 286.311 206.767 286.349 206.613C285.995 208.216 285.741 207.923 286.041 207.391C286.242 207.037 286.442 206.698 286.665 206.359C287.305 205.372 285.563 207.653 286.557 206.52C286.812 206.228 287.082 205.942 287.359 205.673C287.652 205.388 287.952 205.11 288.261 204.84C288.708 204.447 290.249 203.469 288.446 204.648C290.072 203.592 291.621 202.451 293.301 201.473C297.1 199.246 301.053 197.296 304.899 195.161C311.811 191.339 320.751 186.014 320.866 177.059C320.905 174.038 318.177 171.14 315.087 171.279C311.996 171.418 309.353 173.815 309.307 177.059L309.322 177.097Z" fill="#FF4409"/>
<path d="M142.842 123.576C142.842 123.576 136.885 154.24 145.046 156.29C159.904 160.012 156.02 153.909 169.946 129.371" fill="#FAF1E7"/>
<path d="M138.388 122.343C137.671 126.05 137.163 129.811 136.746 133.564C136.084 139.552 135.675 145.74 136.831 151.697C137.332 154.271 138.373 157.03 140.369 158.825C142.873 161.075 146.588 161.499 149.809 161.838C152.337 162.1 154.949 161.738 157.199 160.498C159.45 159.257 161.014 157.199 162.262 155.072C163.927 152.221 165.175 149.131 166.563 146.148C168.836 141.239 171.279 136.423 173.945 131.714C175.14 129.61 174.515 126.566 172.288 125.387C170.061 124.208 167.233 124.802 165.961 127.044C163.626 131.167 161.453 135.382 159.426 139.667C158.078 142.519 156.829 145.424 155.427 148.244C154.926 149.254 154.402 150.256 153.785 151.204C153.67 151.381 153.554 151.55 153.431 151.728C152.83 152.606 154.163 150.857 153.685 151.412C153.408 151.735 153.138 152.051 152.822 152.336C152.437 152.691 151.766 152.953 153.2 152.074C153.061 152.159 152.93 152.267 152.783 152.36C152.637 152.452 152.491 152.521 152.352 152.606C151.489 153.084 153.67 152.167 152.714 152.452C152.375 152.552 152.044 152.637 151.697 152.714C150.857 152.899 153.207 152.598 152.144 152.645C151.905 152.652 151.658 152.676 151.419 152.676C150.926 152.676 150.441 152.652 149.955 152.606C149.508 152.56 148.522 152.352 150.302 152.668C149.932 152.606 149.562 152.552 149.192 152.483C148.607 152.375 148.021 152.252 147.435 152.113C147.05 152.028 146.665 151.943 146.279 151.836C146.202 151.812 146.117 151.782 146.04 151.766C145.37 151.62 147.235 152.383 146.726 152.067C146.58 151.974 146.41 151.866 146.256 151.789C146.595 151.959 147.297 152.691 146.688 152.082C146.564 151.959 146.457 151.805 146.333 151.689C147.474 152.799 146.88 152.437 146.58 151.928C146.464 151.735 146.372 151.535 146.272 151.342C145.848 150.549 146.742 152.591 146.441 151.743C146.256 151.219 146.087 150.687 145.956 150.14C145.825 149.593 145.717 149.038 145.624 148.483C145.432 147.273 145.717 149.331 145.655 148.738C145.617 148.375 145.57 148.005 145.54 147.643C145.424 146.287 145.378 144.931 145.378 143.574C145.378 140.723 145.57 137.872 145.848 135.036C145.994 133.587 146.164 132.138 146.349 130.689C146.441 129.942 146.164 132.022 146.272 131.283C146.295 131.128 146.318 130.974 146.333 130.82C146.379 130.473 146.433 130.134 146.48 129.788C146.557 129.256 146.641 128.724 146.726 128.2C146.904 127.075 147.088 125.942 147.304 124.825C147.767 122.459 146.641 119.723 144.075 119.137C141.786 118.613 138.881 119.831 138.388 122.366V122.343Z" fill="#FF4409"/>
<path d="M186.09 130.92C186.09 130.92 180.133 161.584 188.294 163.634C203.152 167.356 199.268 161.252 213.194 136.715" fill="#FAF1E7"/>
<path d="M181.628 129.687C180.911 133.394 180.403 137.154 179.987 140.907C179.324 146.895 178.916 153.084 180.072 159.041C180.572 161.614 181.613 164.373 183.609 166.169C186.113 168.419 189.828 168.843 193.049 169.182C195.577 169.444 198.189 169.082 200.439 167.841C202.69 166.601 204.254 164.543 205.503 162.416C207.167 159.565 208.416 156.474 209.803 153.492C212.076 148.583 214.519 143.767 217.185 139.058C218.38 136.954 217.756 133.91 215.529 132.731C213.301 131.552 210.473 132.145 209.202 134.388C206.867 138.511 204.693 142.726 202.667 147.011C201.318 149.862 200.07 152.768 198.667 155.588C198.166 156.598 197.642 157.599 197.026 158.547C196.91 158.725 196.794 158.894 196.671 159.071C196.07 159.95 197.403 158.201 196.925 158.755C196.648 159.079 196.378 159.395 196.062 159.68C195.677 160.035 195.006 160.297 196.44 159.418C196.301 159.503 196.17 159.611 196.024 159.703C195.877 159.796 195.731 159.865 195.592 159.95C194.729 160.428 196.91 159.511 195.954 159.796C195.615 159.896 195.284 159.981 194.937 160.058C194.097 160.243 196.448 159.942 195.384 159.988C195.145 159.996 194.899 160.019 194.66 160.019C194.166 160.019 193.681 159.996 193.196 159.95C192.749 159.904 191.762 159.696 193.542 160.012C193.172 159.95 192.802 159.896 192.433 159.827C191.847 159.719 191.261 159.595 190.676 159.457C190.29 159.372 189.905 159.287 189.52 159.179C189.442 159.156 189.358 159.125 189.281 159.11C188.61 158.963 190.475 159.726 189.966 159.41C189.82 159.318 189.651 159.21 189.496 159.133C189.835 159.303 190.537 160.035 189.928 159.426C189.805 159.303 189.697 159.148 189.573 159.033C190.714 160.143 190.121 159.78 189.82 159.272C189.705 159.079 189.612 158.879 189.512 158.686C189.088 157.892 189.982 159.934 189.681 159.087C189.496 158.563 189.327 158.031 189.196 157.484C189.065 156.937 188.957 156.382 188.864 155.827C188.672 154.617 188.957 156.675 188.895 156.081C188.857 155.719 188.811 155.349 188.78 154.987C188.664 153.631 188.618 152.274 188.618 150.918C188.618 148.067 188.811 145.215 189.088 142.379C189.234 140.931 189.404 139.482 189.589 138.033C189.681 137.285 189.404 139.366 189.512 138.626C189.535 138.472 189.558 138.318 189.573 138.164C189.62 137.817 189.674 137.478 189.72 137.131C189.797 136.6 189.882 136.068 189.966 135.544C190.144 134.419 190.329 133.286 190.544 132.168C191.007 129.803 189.882 127.067 187.315 126.481C185.027 125.957 182.121 127.175 181.628 129.71V129.687Z" fill="#FF4409"/>
<path d="M124.191 177.096C124.191 177.096 193.156 219.35 227.835 187.754Z" fill="#FAF1E7"/>
<path d="M121.856 181.089C124.207 182.531 126.642 183.833 129.085 185.112C135.404 188.426 141.916 191.393 148.544 194.044C156.674 197.296 165.051 200.009 173.628 201.804C182.775 203.715 192.301 204.756 201.625 203.685C210.95 202.613 220.39 199.485 228.104 193.52C229.137 192.726 230.139 191.901 231.11 191.023C232.905 189.397 232.89 186.114 231.11 184.48C229.191 182.715 226.486 182.746 224.567 184.48C224.159 184.85 223.743 185.22 223.311 185.575C223.111 185.736 222.918 185.906 222.718 186.068C222.602 186.16 222.486 186.253 222.379 186.345C221.801 186.815 223.149 185.767 222.71 186.091C221.839 186.73 220.968 187.37 220.059 187.956C218.248 189.127 216.337 190.16 214.372 191.046C214.133 191.154 213.855 191.324 213.601 191.385C213.493 191.416 214.672 190.946 214.217 191.123C214.086 191.177 213.955 191.231 213.824 191.285C213.3 191.493 212.776 191.693 212.252 191.886C211.258 192.241 210.256 192.564 209.247 192.857C207.174 193.45 205.07 193.913 202.943 194.252C202.666 194.298 202.38 194.337 202.103 194.383C201.995 194.398 201.895 194.414 201.787 194.429C201.232 194.514 202.943 194.283 202.38 194.352C201.818 194.421 201.248 194.491 200.677 194.545C199.606 194.653 198.535 194.73 197.456 194.784C195.244 194.892 193.033 194.892 190.829 194.799C188.625 194.707 186.367 194.522 184.147 194.26C183.893 194.229 183.639 194.198 183.377 194.167C182.244 194.021 184.163 194.283 183.508 194.19C182.922 194.105 182.336 194.021 181.758 193.936C180.664 193.766 179.577 193.581 178.483 193.373C169.921 191.77 161.544 189.197 153.414 186.083C151.565 185.374 149.73 184.627 147.896 183.864C147.449 183.679 148.698 184.203 148.567 184.149C148.451 184.103 148.336 184.049 148.22 184.002C147.989 183.902 147.765 183.81 147.534 183.71C147.087 183.517 146.64 183.324 146.193 183.124C145.384 182.769 144.575 182.407 143.766 182.037C140.899 180.735 138.063 179.363 135.258 177.922C132.337 176.427 129.509 174.801 126.65 173.19C126.611 173.167 126.573 173.144 126.534 173.121C124.469 171.857 121.356 172.605 120.207 174.778C119.059 176.951 119.66 179.756 121.864 181.105L121.856 181.089Z" fill="#FF4409"/>
<path d="M225.876 173.369C225.545 177.9 225.283 182.74 227.533 186.693C229.675 190.447 233.814 192.735 238.06 193.56C242.306 194.384 246.683 193.93 250.96 193.329" fill="#FAF1E7"/>
<path d="M221.253 173.37C220.837 179.18 220.799 185.584 224.498 190.447C228.444 195.641 234.424 198.053 240.805 198.547C244.619 198.839 248.426 198.308 252.195 197.784C253.258 197.637 254.445 196.535 254.961 195.657C255.539 194.663 255.786 193.206 255.424 192.096C255.061 190.987 254.368 189.9 253.297 189.33C252.118 188.705 251.039 188.682 249.736 188.867C249.49 188.906 249.243 188.937 249.004 188.967C249.621 188.883 249.659 188.875 249.127 188.944C248.696 188.991 248.264 189.052 247.833 189.098C246.908 189.199 245.983 189.276 245.058 189.33C244.195 189.376 243.332 189.399 242.469 189.376C241.675 189.36 240.65 189.438 239.895 189.214C241.028 189.553 239.764 189.183 239.479 189.137C239.132 189.075 238.793 188.998 238.454 188.921C237.799 188.759 237.144 188.567 236.504 188.336C236.319 188.266 236.142 188.205 235.957 188.128C236.612 188.413 236.713 188.451 236.258 188.251C235.996 188.128 235.734 188.004 235.472 187.873C234.832 187.542 234.216 187.172 233.622 186.756C232.682 186.093 234.2 187.311 233.537 186.686C233.26 186.424 232.967 186.185 232.697 185.908C232.497 185.708 232.312 185.484 232.12 185.284C231.811 184.906 231.873 184.999 232.304 185.554C232.189 185.399 232.081 185.245 231.973 185.091C231.811 184.852 231.665 184.606 231.518 184.359C231.411 184.174 231.31 183.981 231.21 183.789C230.994 183.326 231.017 183.403 231.279 184.02C230.91 183.473 230.755 182.517 230.609 181.893C230.524 181.531 230.47 181.161 230.393 180.791C230.339 180.437 230.355 180.583 230.447 181.223C230.424 181.007 230.401 180.791 230.378 180.575C230.309 179.812 230.278 179.057 230.27 178.294C230.255 176.653 230.37 175.011 230.486 173.377C230.663 170.958 228.235 168.646 225.862 168.754C223.211 168.869 221.423 170.788 221.238 173.377L221.253 173.37Z" fill="#FF4409"/>
<path d="M169.629 161.965C164.165 158.613 156.867 155.307 151.835 159.275C147.258 162.882 148.244 170.642 152.436 174.68C156.629 178.719 162.794 179.867 168.604 180.275" fill="#FAF1E7"/>
<path d="M171.964 157.973C167.895 155.484 163.494 153.411 158.701 152.918C153.908 152.424 148.968 154.559 146.232 158.69C143.889 162.227 143.681 167.128 144.991 171.082C146.44 175.443 149.438 178.904 153.453 181.123C158.092 183.689 163.387 184.522 168.604 184.899C171.024 185.076 173.336 182.649 173.228 180.275C173.112 177.624 171.193 175.836 168.604 175.651C167.748 175.59 166.885 175.513 166.038 175.42C165.837 175.397 165.467 175.274 165.282 175.328C165.367 175.305 166.431 175.505 165.606 175.366C165.105 175.282 164.604 175.204 164.103 175.104C163.679 175.02 159.148 173.74 159.171 173.694C159.217 173.625 160.096 174.118 159.456 173.81C159.233 173.702 159.009 173.602 158.786 173.486C158.431 173.309 158.085 173.124 157.746 172.923C157.36 172.7 156.99 172.461 156.62 172.207C156.459 172.099 156.304 171.96 156.143 171.86L156.613 172.214C156.459 172.091 156.304 171.96 156.158 171.829C155.888 171.59 155.619 171.336 155.372 171.074C155.256 170.951 155.156 170.827 155.041 170.704C154.547 170.188 155.264 170.997 155.295 171.058C154.94 170.403 154.455 169.825 154.116 169.147C154.046 169.016 153.985 168.824 153.9 168.693C154.501 169.61 154.177 169.409 154.039 168.985C153.931 168.669 153.823 168.353 153.731 168.03C153.63 167.668 153.561 167.305 153.476 166.936C153.391 166.566 153.499 166.203 153.53 167.429C153.53 167.182 153.476 166.936 153.461 166.697C153.422 166.042 153.499 165.41 153.515 164.762C153.468 166.219 153.468 165.202 153.592 164.708C153.684 164.369 153.838 164.046 153.923 163.707C153.646 164.832 153.576 164.446 153.8 164.069C153.877 163.938 153.946 163.791 154.031 163.66C154.116 163.529 154.208 163.398 154.285 163.267C154.563 162.759 153.476 164.169 154.062 163.552C154.285 163.321 154.509 163.098 154.732 162.867C154.979 162.612 155.272 162.635 154.401 163.098C154.648 162.967 154.879 162.766 155.118 162.628C155.279 162.535 155.449 162.45 155.611 162.358C155.981 162.158 156.127 162.343 155.272 162.497C155.619 162.435 155.973 162.258 156.32 162.181C156.412 162.158 156.759 162.134 156.859 162.073C156.281 162.427 155.911 162.173 156.59 162.127C157.006 162.096 157.43 162.096 157.846 162.111C158.085 162.119 158.316 162.15 158.555 162.165C159.14 162.204 157.491 161.973 158.331 162.134C158.817 162.227 159.302 162.327 159.78 162.45C160.766 162.712 161.699 163.152 162.67 163.437C162.562 163.406 161.691 162.998 162.423 163.344C162.708 163.475 162.994 163.606 163.271 163.737C163.741 163.961 164.203 164.2 164.658 164.446C165.552 164.924 166.431 165.433 167.294 165.965C169.359 167.228 172.472 166.481 173.621 164.308C174.769 162.134 174.168 159.329 171.964 157.981V157.973Z" fill="#FF4409"/>
</svg>
