<svg width="14" height="9" viewBox="0 0 14 9" fill="none" xmlns="http://www.w3.org/2000/svg">
<path d="M13.7072 1.40562C13.6281 1.1338 13.4721 0.885702 13.2549 0.686184C13.0376 0.486665 12.7667 0.342725 12.4693 0.268776C11.3779 6.34467e-08 7 0 7 0C7 0 2.62208 6.34467e-08 1.53008 0.268776C1.23282 0.342855 0.962088 0.486848 0.744962 0.686353C0.527836 0.885859 0.371928 1.13388 0.292833 1.40562C0 2.40834 0 4.5 0 4.5C0 4.5 0 6.59166 0.292833 7.59438C0.371925 7.8662 0.527902 8.1143 0.745145 8.31382C0.962388 8.51334 1.23327 8.65728 1.53067 8.73123C2.62208 9 7 9 7 9C7 9 11.3779 9 12.4699 8.73123C12.7673 8.65733 13.0383 8.5134 13.2555 8.31387C13.4728 8.11435 13.6287 7.86623 13.7077 7.59438C14 6.59166 14 4.5 14 4.5C14 4.5 14 2.40834 13.7072 1.40562ZM5.56792 6.39899V2.60101L9.22717 4.5L5.56792 6.39899Z" fill="#fff"/>
</svg>
