<?xml version="1.0" encoding="UTF-8"?>
<svg id="_레이어_1" data-name="레이어 1" xmlns="http://www.w3.org/2000/svg" version="1.1" viewBox="0 0 97.5 52.5">
  <defs>
    <style>
      .cls-1 {
        fill: #ff4408;
      }

      .cls-1, .cls-2 {
        stroke-width: 0px;
      }

      .cls-2 {
        fill: #fff;
      }
    </style>
  </defs>
  <path class="cls-1" d="M48.75,2.23c0-8.89-59.51,14.47-42.21,16.57-17.29-2.1,5.44,35.7,16.12,26.81-10.69,8.89,62.87,8.89,52.18,0,10.69,8.89,33.42-28.91,16.12-26.81,17.29-2.1-42.21-25.46-42.21-16.57Z"/>
  <g>
    <path class="cls-2" d="M53.65,15.9h-14.98s0,0,0,0v20.86h6.79c1.49,0,2.69-1.2,2.69-2.69v-2.98c0,3.13,2.54,5.67,5.67,5.67h3.81v-10.43h-3.98c2.2,0,3.98-1.78,3.98-3.98v-2.47c0-2.2-1.78-3.98-3.98-3.98h0ZM48.53,27.32c0,.1-.09.19-.19.19h-.38c-.1,0-.19-.09-.19-.19v-6.64c0-.1.09-.19.19-.19h.38c.1,0,.19.09.19.19v6.64Z"/>
    <path class="cls-2" d="M31.39,17.23v11c0,.1-.09.19-.19.19h-.38c-.1,0-.19-.09-.19-.19v-10.28c0-1.05-.78-1.96-1.83-2.04-.05,0-.1,0-.15,0h-1.6c-.05,0-.1,0-.15,0-1.04.08-1.83.99-1.83,2.04v10.28c0,.1-.09.19-.19.19h-.38c-.1,0-.19-.09-.19-.19v-11.1c0-.68-.55-1.22-1.22-1.22h-4.72v14.61s0,.07,0,.1c0,.03,0,.07,0,.1v6.06h5.5c1.37,0,2.58-.7,3.29-1.75.21-.32.33-.69.37-1.08v-.02c.08-.64.16-1.34.27-1.97h.09c.11.63.19,1.33.27,1.97h0c.04.39.16.77.37,1.09.72,1.06,1.92,1.75,3.29,1.75h5.5v-6.06c0-.05,0-.1,0-.15,0-.05,0-.1,0-.15v-14.5h-4.62c-.73,0-1.33.59-1.33,1.33h0Z"/>
    <path class="cls-2" d="M77.93,15.9h-5.5c-1.22,0-2.3.55-3.03,1.41-.37.43-.58.97-.64,1.54-.08.64-.16,1.34-.27,1.97h-.09c-.11-.63-.19-1.33-.27-1.97h0c-.05-.56-.26-1.09-.62-1.52-.73-.87-1.82-1.42-3.05-1.42h-5.5v6.06c0,.05,0,.1,0,.15,0,.05,0,.1,0,.15v14.5h4.62c.73,0,1.33-.59,1.33-1.33v-10.87c0-.1.09-.19.19-.19h.38c.1,0,.19.09.19.19v10.12c0,1.15.93,2.08,2.08,2.08h1.41c1.15,0,2.08-.93,2.08-2.08v-10.12c0-.1.09-.19.19-.19h.38c.1,0,.19.09.19.19v10.97c0,.68.55,1.22,1.22,1.22h4.72v-14.61s0-.07,0-.1c0-.03,0-.07,0-.1v-6.06h0Z"/>
  </g>
</svg>