<svg width="105" height="128" viewBox="0 0 105 128" fill="none" xmlns="http://www.w3.org/2000/svg">
<path d="M52.2095 0L0 23.1554V57.8886C0 90.0167 22.276 120.061 52.2095 127.355C82.1429 120.061 104.419 90.0167 104.419 57.8886V23.1554L52.2095 0ZM70.0767 86.8329L52.2095 76.1235L34.4002 86.8329L39.0991 66.5719L23.3782 53.0259L44.146 51.2314L52.2095 32.1282L60.2729 51.1735L81.0407 52.9681L65.3198 66.5719L70.0767 86.8329Z" fill="#F7E1CD"/>
<circle cx="52.2079" cy="61.9989" r="34.5888" fill="#F7E1CD"/>
<path d="M51.1626 43.6724C60.0598 43.6724 66.2194 48.8843 66.2194 56.5707C66.2194 61.5194 62.5868 65.152 59.0069 65.7837C62.9554 66.4155 67.3776 69.8375 67.3776 75.3653C67.3776 83.6308 60.3757 88.7901 51.4785 88.7901C42.0549 88.7901 36.2111 83.5255 35.5267 75.26H44.9504C45.3189 78.682 47.4774 80.7352 51.4785 80.7352C55.427 80.7352 58.0593 78.5768 58.0593 75.418C58.0593 71.838 55.0584 69.9428 50.5835 69.9428H46.3192V62.1512H50.5835C54.4793 62.1512 56.7958 60.0453 56.7958 56.7813C56.7958 53.6225 54.6899 51.6746 51.11 51.6746C47.3721 51.6746 45.6348 54.6754 45.6348 57.7289H36.2111C36.2111 49.5687 42.3707 43.6724 51.1626 43.6724Z" fill="#FA4008"/>
</svg>
