<svg width="743" height="907" viewBox="0 0 743 907" fill="none" xmlns="http://www.w3.org/2000/svg">
<path d="M125.517 255.049C101.086 208.802 91.9656 155.894 89.4719 103.666C70.9348 103.683 52.3977 103.718 33.7909 103.753C15.1492 106.194 39.8072 214.26 43.138 227.2C60.0707 292.646 104.19 355.582 164.283 388.209C177.484 395.376 287.433 431.927 293.205 409.536C302.395 373.962 296.03 370.962 261.642 359.139C247.482 354.274 232.432 351.815 218.673 345.833C178.408 328.378 145.746 293.396 125.482 255.066L125.517 255.049Z" fill="#FAF1E7"/>
<path d="M134.551 249.783C132.127 245.179 129.842 240.523 127.697 235.797C127.279 234.856 126.843 233.897 126.424 232.955C126.163 232.362 125.901 231.769 125.657 231.176L125.5 230.827C125.047 229.764 125.099 229.868 125.64 231.176C125.308 231.106 124.419 228.212 124.314 227.933C123.791 226.607 123.268 225.282 122.745 223.957C119.118 214.522 115.996 204.879 113.346 195.131C110.695 185.383 108.515 175.687 106.701 165.834C105.777 160.829 104.958 155.807 104.225 150.767C104.051 149.599 103.894 148.448 103.737 147.28C103.65 146.635 103.301 144.769 103.737 147.35C103.65 146.844 103.597 146.303 103.528 145.798C103.196 143.199 102.882 140.618 102.603 138.02C101.33 126.615 100.476 115.158 99.918 103.701C99.639 98.051 95.3491 93.238 89.4549 93.238C78.1548 93.238 66.8547 93.2729 55.5546 93.2904C49.9045 93.2904 44.237 93.2904 38.5869 93.3078C34.4366 93.3078 30.5653 93.1683 26.8858 95.2784C18.6897 99.9693 17.1376 110.52 16.5971 119.03C15.9693 129.004 16.9458 139.101 18.0967 148.989C19.5616 161.527 21.5322 174.013 23.8166 186.447C27.0078 203.815 30.356 221.358 35.3608 238.326C45.6844 273.307 62.931 305.9 85.5138 334.481C96.4651 348.328 108.794 361.075 122.431 372.305C129.616 378.217 137.097 383.797 144.892 388.872C149.984 392.185 155.233 395.568 160.743 398.132C168.033 401.515 175.653 404.183 183.256 406.764C193.684 410.321 204.235 413.547 214.872 416.477C226.19 419.581 237.612 422.371 249.174 424.394C259.201 426.155 269.751 427.864 279.97 427.027C289.509 426.243 299.815 423.121 303.111 413.007C305.308 406.276 306.511 398.899 307.226 391.889C307.767 386.692 307.61 381.007 305.709 376.09C303.355 369.951 299.483 365.47 294.147 361.685C289.282 358.233 283.492 356.053 277.982 353.925C270.257 350.961 262.409 348.258 254.457 346.008C244.395 343.183 234.176 340.864 224.428 337.01C223.94 336.818 223.417 336.644 222.946 336.417C225.248 337.533 223.155 336.487 222.702 336.295C221.865 335.929 221.028 335.545 220.208 335.162C218.029 334.15 215.884 333.086 213.756 331.97C209.798 329.895 205.926 327.663 202.142 325.274C198.358 322.885 194.853 320.461 191.33 317.863C190.825 317.496 187.738 315.02 190.144 316.991C189.342 316.328 188.505 315.718 187.703 315.055C185.82 313.538 183.954 311.986 182.123 310.382C175.391 304.54 169.061 298.227 163.167 291.548C161.702 289.891 160.272 288.235 158.86 286.543C157.447 284.852 155.547 283.055 154.5 281.137C155.529 283.038 155.302 282.201 154.867 281.608C154.518 281.155 154.169 280.684 153.82 280.23C153.192 279.393 152.582 278.574 151.954 277.719C150.594 275.853 149.269 273.97 147.961 272.069C143.061 264.92 138.579 257.473 134.516 249.818C131.952 244.97 124.82 243.087 120.199 246.069C115.281 249.242 113.694 255.206 116.45 260.386C133.382 292.298 157.709 320.757 187.808 340.899C194.94 345.677 202.438 349.914 210.251 353.507C219.964 357.988 230.026 361.093 240.332 363.865C249.261 366.254 258.032 368.905 266.752 372.009C269.768 373.09 272.768 374.206 275.732 375.409C277.162 375.985 274.459 374.851 274.477 374.886C274.686 375.096 275.209 375.2 275.471 375.322C276.046 375.584 276.622 375.845 277.18 376.107C278.348 376.665 279.499 377.241 280.633 377.886C281.539 378.409 282.446 378.949 283.318 379.56C283.492 379.682 283.684 379.821 283.859 379.944C285.132 380.781 281.766 378.235 282.638 378.984C283.074 379.351 283.527 379.717 283.946 380.1C284.521 380.624 285.114 381.67 285.777 382.054C285.219 381.722 283.998 379.49 284.992 381.094C285.289 381.583 285.603 382.054 285.864 382.577C286.038 382.908 286.178 383.274 286.37 383.623C284.591 380.362 285.585 381.687 285.934 382.769C286.23 383.71 286.405 384.669 286.596 385.628C286.858 386.797 286.265 382.42 286.37 383.989C286.37 384.216 286.422 384.443 286.439 384.652C286.492 385.227 286.527 385.82 286.527 386.396C286.562 387.599 286.527 388.82 286.439 390.023C286.405 390.651 286.335 391.261 286.283 391.889C286.248 392.168 286.213 392.464 286.195 392.743C286.038 394.539 286.579 390.197 286.37 391.523C286.108 393.127 285.864 394.731 285.55 396.336C284.87 399.858 283.928 403.311 283.126 406.799C283.126 406.851 282.882 407.618 282.865 407.618C282.812 407.601 284.347 404.34 283.51 405.944C283.388 406.171 283.196 406.363 283.091 406.572C284.417 403.695 284.992 404.392 284.068 405.229C283.928 405.351 283.492 405.648 283.423 405.822C283.527 405.595 286.213 403.939 284.8 404.724C284.225 405.037 283.649 405.351 283.074 405.665C286.614 403.677 284.853 404.968 283.527 405.369C282.76 405.595 281.975 405.787 281.191 405.944C280.807 406.014 280.423 406.084 280.04 406.136C278.313 406.45 283.318 405.77 281.347 405.962C280.388 406.049 279.429 406.153 278.47 406.206C274.163 406.432 269.838 406.188 265.548 405.77C264.397 405.665 263.246 405.526 262.095 405.386C261.555 405.316 259.27 405.02 261.52 405.316C263.77 405.613 261.014 405.247 260.509 405.16C257.928 404.776 255.364 404.357 252.801 403.887C247.203 402.858 241.64 401.654 236.095 400.346C215.988 395.568 196.021 389.622 176.699 382.28C175.2 381.705 173.7 381.112 172.2 380.502C169.776 379.508 174.973 381.705 172.758 380.746C172.235 380.519 171.729 380.292 171.206 380.048C165.818 377.537 160.691 374.224 155.704 370.998C152.129 368.678 148.623 366.272 145.188 363.743C144.281 363.081 143.375 362.418 142.485 361.738C142.136 361.476 141.77 361.18 141.421 360.918C143.531 362.418 142.398 361.685 141.945 361.319C140.183 359.924 138.422 358.529 136.678 357.099C130.069 351.623 123.774 345.799 117.792 339.643C111.811 333.488 106.091 326.983 100.72 320.234C100.441 319.886 100.162 319.519 99.8831 319.171C99.7436 318.996 98.2962 317.287 99.4471 318.613C100.598 319.938 99.1506 318.229 99.0111 318.054C98.7321 317.688 98.4532 317.322 98.1916 316.973C96.8139 315.16 95.4712 313.329 94.1633 311.48C91.6522 307.958 89.2281 304.383 86.8739 300.756C82.2528 293.606 77.9804 286.229 74.0393 278.661C72.0513 274.842 70.1505 270.988 68.3543 267.082C67.4998 265.233 66.6628 263.385 65.8606 261.519C65.5816 260.856 64.2912 257.7 65.4596 260.595C65.0411 259.548 64.5877 258.52 64.1692 257.473C56.4265 238.378 51.5786 218.655 47.4282 198.531C45.2135 187.754 43.1732 176.943 41.4294 166.078C40.9585 163.201 40.5227 160.324 40.1041 157.429C39.9123 156.069 39.7205 154.709 39.5286 153.366C40.0867 157.377 39.6682 154.325 39.5461 153.453C39.4589 152.703 39.3542 151.971 39.267 151.221C38.6044 145.85 38.0464 140.461 37.6976 135.073C37.4012 130.434 37.2267 125.778 37.4011 121.14C37.4709 119.326 38.0289 117.164 37.8371 115.367C37.8894 115.891 37.3314 118.681 37.6627 116.797C37.7325 116.361 37.8022 115.943 37.8894 115.507C38.0289 114.757 38.2033 114.007 38.4126 113.275C38.5869 112.647 38.8136 112.037 39.0229 111.426C39.5111 109.979 37.5929 114.356 38.3951 112.926C38.552 112.63 38.6916 112.316 38.866 112.037C38.988 111.827 39.1973 111.601 39.2845 111.391C39.5984 110.659 37.1744 113.99 38.2033 112.821C38.3428 112.664 38.5869 112.525 38.6915 112.333C39.0054 111.88 35.9711 114.216 37.279 113.449C38.7264 112.612 34.8725 114.408 35.5526 114.129C35.7619 114.042 35.9712 114.007 36.1805 113.955C37.157 113.676 34.8028 115.054 34.6284 114.269C34.6284 114.304 36.5118 114.269 36.3723 114.269C37.8197 114.269 39.2845 114.269 40.7319 114.269C46.2424 114.269 51.753 114.269 57.2635 114.251C67.9882 114.251 78.7128 114.217 89.4374 114.199L78.9744 103.736C80.9798 145.362 86.874 187.441 101.453 226.66C105.742 238.204 110.712 249.504 116.45 260.403C118.996 265.251 126.163 267.117 130.767 264.152C135.702 260.978 137.254 255.032 134.516 249.835L134.551 249.783Z" fill="#FF4409"/>
<path d="M612.011 568.731C635.972 614.088 641.465 661.8 648.44 711.779C648.824 714.586 649.417 717.725 651.753 719.329C653.48 720.515 655.747 720.533 657.839 720.498C673.36 720.254 688.88 720.01 704.4 719.765C708.463 609.659 677.911 492.49 573.211 435.606C560.027 428.439 450.06 391.888 444.271 414.279C435.081 449.853 441.446 452.853 475.834 464.676C489.994 469.541 505.044 472 518.803 477.981C559.068 495.437 591.73 530.419 611.994 568.749L612.011 568.731Z" fill="#FAF1E7"/>
<path d="M602.978 574.016C604.652 577.19 606.257 580.416 607.791 583.677C608.471 585.107 609.117 586.537 609.762 587.984C610.128 588.821 610.494 589.658 610.86 590.513C610.965 590.739 611.471 591.977 610.948 590.704C610.425 589.431 611.07 591.018 611.174 591.262C613.79 597.593 616.144 604.045 618.254 610.549C622.439 623.454 625.648 636.655 628.299 649.943C630.967 663.353 633.042 676.868 634.978 690.4C635.954 697.271 636.896 704.159 637.855 711.03C638.396 714.866 638.867 718.302 640.558 721.842C642.598 726.131 646.906 729.445 651.527 730.386C656.113 731.328 660.944 730.892 665.6 730.822C669.907 730.753 674.232 730.683 678.539 730.613C687.171 730.474 695.786 730.334 704.418 730.212C710.225 730.125 714.671 725.486 714.881 719.749C715.91 691.568 714.55 663.405 710.643 635.486C706.877 608.649 700.442 582.107 690.484 556.891C680.527 531.675 666.35 506.128 648.475 484.243C630.496 462.235 608.297 443.629 583.691 429.451C570.665 421.953 555.999 417.436 541.734 412.972C522.657 406.99 503.178 401.637 483.403 398.637C474.841 397.347 465.964 396.074 457.298 396.859C449.276 397.574 440.557 399.719 436.092 407.147C434.819 409.275 434.209 411.594 433.616 413.948C432.849 417.018 432.151 420.104 431.576 423.208C430.617 428.422 429.71 433.881 430.163 439.199C430.599 444.256 431.733 449.279 434.645 453.551C437.557 457.824 441.306 461.067 445.701 463.665C450.549 466.543 455.92 468.583 461.186 470.554C467.883 473.065 474.649 475.419 481.52 477.407C490.274 479.936 499.185 481.976 507.817 484.905C509.84 485.586 511.845 486.353 513.833 487.138C514.339 487.347 515.664 487.643 513.554 487.016C513.973 487.138 514.426 487.399 514.81 487.574C515.751 487.992 516.693 488.411 517.617 488.864C521.035 490.468 524.401 492.195 527.697 494.043C534.515 497.862 541.054 502.152 547.28 506.843C547.646 507.122 548.012 507.418 548.379 507.68C548.169 507.541 546.478 506.198 547.908 507.314C548.623 507.889 549.355 508.465 550.07 509.04C551.605 510.278 553.104 511.534 554.587 512.807C557.481 515.301 560.306 517.864 563.044 520.515C568.712 525.99 574.065 531.797 579.07 537.866C580.256 539.296 581.407 540.743 582.558 542.191C582.924 542.644 583.848 543.603 582.192 541.72C582.488 542.069 582.767 542.47 583.029 542.819C583.656 543.638 584.284 544.475 584.895 545.312C587.214 548.469 589.464 551.677 591.626 554.938C595.707 561.111 599.491 567.494 602.961 574.051C605.524 578.899 612.657 580.782 617.278 577.8C622.195 574.626 623.782 568.662 621.027 563.483C606.606 536.279 586.743 511.29 562.399 492.299C549.355 482.115 535.439 473.57 520.111 467.275C511.915 463.91 503.353 461.677 494.808 459.376C487.03 457.283 479.375 454.911 471.789 452.226C469.156 451.302 466.522 450.342 463.924 449.314C463.331 449.087 462.756 448.843 462.18 448.616C459.896 447.674 464.081 449.47 462.616 448.79C461.535 448.302 460.454 447.831 459.39 447.308C457.594 446.419 455.833 445.442 454.176 444.291C453.374 443.733 452.223 442.548 454.978 444.954C454.664 444.675 454.333 444.431 454.002 444.152C453.356 443.594 452.781 442.966 452.188 442.356C450.863 440.961 453.112 443.21 452.99 443.454C453.025 443.367 452.397 442.617 452.328 442.513C452.136 442.199 451.351 440.298 451.107 440.246C451.473 440.333 452.293 443.315 451.63 441.379C451.525 441.048 451.421 440.716 451.334 440.368C451.229 439.967 451.124 439.566 451.054 439.164C451.02 438.955 450.985 438.746 450.932 438.537C450.584 437.037 451.177 440.106 451.142 440.193C451.386 439.688 450.95 438.031 450.95 437.438C450.915 436.357 450.95 435.293 451.02 434.212C451.09 433.131 451.211 431.98 451.334 430.864C451.456 429.626 450.95 433.549 451.142 432.311C451.194 431.997 451.229 431.701 451.281 431.387C451.386 430.672 451.508 429.957 451.63 429.242C452.153 426.26 452.816 423.313 453.548 420.366C453.845 419.145 454.211 417.924 454.49 416.704C454.821 415.204 453.949 418.291 453.74 418.413C453.88 418.325 454.054 417.82 454.141 417.68C455.083 416.058 451.839 420.052 453.461 418.604C453.6 418.465 453.775 418.325 453.914 418.186C454.682 417.314 451.299 419.93 452.589 419.215C453.042 418.971 453.478 418.692 453.914 418.43C455.344 417.611 452.676 419.04 452.345 419.058C452.624 419.058 452.99 418.814 453.252 418.709C454.507 418.273 455.798 418.012 457.088 417.767C459.007 417.401 455.885 418.168 455.624 417.942C455.728 418.029 456.548 417.837 456.722 417.82C457.542 417.733 458.361 417.68 459.181 417.628C462.825 417.454 466.47 417.611 470.097 417.907C472.26 418.081 474.422 418.343 476.584 418.604C478.136 418.796 473.48 418.169 475.59 418.465C476.131 418.535 476.672 418.622 477.212 418.692C478.381 418.866 479.549 419.04 480.717 419.25C485.495 420.034 490.239 420.976 494.965 422.022C504.782 424.167 514.513 426.731 524.156 429.521C532.876 432.05 541.543 434.77 550.122 437.717C553.523 438.885 556.923 440.106 560.289 441.379C561.649 441.885 562.992 442.408 564.352 442.966C564.875 443.175 565.416 443.402 565.939 443.611C566.95 444.03 562.852 442.286 564.404 442.966C564.701 443.088 564.997 443.228 565.294 443.35C568.799 444.902 572.095 446.89 575.391 448.843C581.372 452.383 587.196 456.167 592.829 460.23C594.189 461.207 595.549 462.201 596.892 463.212C597.468 463.648 598.061 464.101 598.636 464.537C596.038 462.602 598.845 464.712 599.473 465.217C602.054 467.275 604.6 469.385 607.094 471.565C612.168 475.977 617.034 480.633 621.69 485.481C626.276 490.277 630.653 495.264 634.821 500.426C635.327 501.053 635.815 501.681 636.321 502.309C636.565 502.623 636.809 502.937 637.053 503.251C636.966 503.129 635.484 501.193 636.512 502.553C637.541 503.913 638.553 505.256 639.564 506.634C641.5 509.284 643.383 511.97 645.214 514.708C652.469 525.537 658.851 536.942 664.379 548.73C665.774 551.712 667.117 554.712 668.407 557.746C668.669 558.339 669.07 559.577 668.059 556.909C668.198 557.275 668.372 557.641 668.512 558.007C668.826 558.74 669.122 559.49 669.419 560.222C670.012 561.704 670.605 563.187 671.18 564.686C673.569 570.86 675.732 577.12 677.72 583.45C681.713 596.198 684.904 609.207 687.398 622.338C688.636 628.86 689.7 635.399 690.607 641.973C690.955 644.554 690.31 639.654 690.641 642.235C690.746 643.055 690.851 643.857 690.955 644.676C691.165 646.403 691.374 648.129 691.566 649.856C691.949 653.221 692.28 656.587 692.577 659.953C693.745 673.328 694.321 686.755 694.338 700.183C694.338 706.722 694.234 713.244 693.99 719.784L704.453 709.321C689.647 709.547 674.842 709.792 660.037 710.018C659.2 710.018 658.363 710.053 657.526 710.053C657.055 710.053 654.84 709.827 656.445 710.14C658.049 710.454 656.689 710.21 656.445 710.105C656.427 710.105 658.398 711.047 657.369 710.507C656.235 709.914 658.52 711.535 658.747 711.78C659.932 713 658.59 710.977 659.2 712.564C659.81 714.151 659.147 712.198 659.043 711.78C658.903 711.169 658.781 710.559 658.694 709.948C658.433 708.344 658.241 706.722 658.014 705.118C657.072 698.369 656.148 691.621 655.189 684.889C651.457 658.714 647.132 632.504 639.18 607.236C634.437 592.187 628.421 577.469 621.079 563.501C618.533 558.653 611.366 556.787 606.762 559.751C601.827 562.942 600.275 568.872 603.013 574.068L602.978 574.016Z" fill="#FF4409"/>
<path d="M719.981 727.616C732.694 705.597 720.024 674.482 691.683 658.119C663.341 641.755 630.06 646.341 617.347 668.36C604.634 690.38 617.304 721.495 645.645 737.858C673.987 754.221 707.268 749.635 719.981 727.616Z" fill="#FF4409"/>
<path d="M710.942 722.327C710.331 723.356 709.686 724.333 709.006 725.327C708.849 725.553 708.657 725.745 708.518 725.989C708.465 726.094 710.052 724.158 709.32 724.943C708.884 725.396 708.518 725.92 708.099 726.373C707.314 727.245 706.495 728.065 705.641 728.867C705.17 729.285 704.699 729.686 704.228 730.105C703.025 731.186 706.216 728.692 704.42 729.965C702.484 731.326 700.479 732.581 698.351 733.627C697.793 733.906 697.13 734.116 696.59 734.447C696.485 734.517 698.857 733.575 697.81 733.924C697.549 734.011 697.287 734.133 697.026 734.238C695.788 734.709 694.532 735.127 693.277 735.493C692.178 735.807 691.062 736.086 689.928 736.33C689.266 736.47 688.603 736.609 687.923 736.714C687.627 736.766 687.348 736.801 687.051 736.853C685.604 737.115 687.766 736.749 688.08 736.731C685.36 736.958 682.691 737.22 679.954 737.185C678.715 737.185 677.477 737.115 676.239 737.028C675.507 736.976 674.774 736.906 674.059 736.836C673.745 736.801 673.432 736.766 673.118 736.731C671.74 736.592 675.385 737.098 674.007 736.853C671.112 736.348 668.27 735.79 665.427 735.005C664.137 734.639 662.864 734.238 661.608 733.802C660.859 733.54 660.126 733.279 659.394 733C659.08 732.878 658.766 732.755 658.435 732.633C657.144 732.145 658.557 732.668 659.045 732.912C656.342 731.535 653.569 730.366 650.919 728.849C648.268 727.332 645.879 725.641 643.42 723.914C642.478 723.251 644.275 724.594 644.24 724.559C643.996 724.35 643.734 724.158 643.472 723.949C642.88 723.478 642.304 723.007 641.729 722.519C640.682 721.63 639.653 720.705 638.659 719.746C636.637 717.811 634.736 715.77 632.957 713.608C632.765 713.381 632.573 713.137 632.382 712.893C631.649 712.021 633.131 713.887 633.079 713.817C632.748 713.329 632.364 712.858 631.998 712.37C631.196 711.236 630.411 710.085 629.679 708.917C628.301 706.702 627.098 704.401 625.982 702.046C625.86 701.802 625.772 701.506 625.633 701.262C625.563 701.14 626.522 703.511 626.139 702.465C625.947 701.942 625.72 701.419 625.528 700.895C625.075 699.692 624.674 698.454 624.308 697.216C623.976 696.082 623.697 694.949 623.453 693.798C623.349 693.275 623.244 692.752 623.139 692.211C622.965 691.252 622.965 688.933 623.122 692.351C623.017 690.066 622.755 687.851 622.843 685.55C622.86 685.026 622.895 684.521 622.93 683.998C622.965 683.474 623.226 681.347 622.965 683.335C622.703 685.323 622.965 683.405 623.052 682.951C623.157 682.358 623.279 681.783 623.418 681.19C623.662 680.109 623.959 679.028 624.308 677.981C624.465 677.493 624.656 677.005 624.813 676.534C625.563 674.389 623.784 678.661 624.744 676.656C625.703 674.651 626.906 672.575 628.231 670.64C629.469 668.826 626.941 672.139 628.074 670.814C628.423 670.413 628.772 669.995 629.138 669.593C629.975 668.652 630.864 667.762 631.806 666.925C632.207 666.559 632.626 666.228 633.027 665.862C634.352 664.676 631.161 667.187 632.608 666.158C633.637 665.426 634.683 664.693 635.765 664.048C636.776 663.438 637.822 662.862 638.904 662.339C639.392 662.095 639.915 661.886 640.403 661.641C641.38 661.136 639.06 662.182 639.182 662.147C639.618 662.008 640.054 661.798 640.49 661.641C642.81 660.769 645.181 660.089 647.605 659.584C648.181 659.462 648.739 659.357 649.314 659.252C649.698 659.183 650.082 659.13 650.465 659.061C651.616 658.851 649 659.235 649.14 659.235C650.535 659.113 651.913 658.939 653.308 658.869C655.958 658.729 658.626 658.764 661.294 658.973C661.922 659.026 662.55 659.078 663.178 659.148C663.492 659.183 663.806 659.217 664.12 659.252C665.497 659.392 661.853 658.904 663.23 659.13C664.608 659.357 665.985 659.584 667.346 659.88C670.258 660.508 673.135 661.31 675.943 662.304C676.588 662.531 677.216 662.758 677.844 663.002C678.524 663.263 680.791 664.379 678.192 663.106C679.535 663.769 680.93 664.327 682.273 665.007C685.046 666.385 687.714 667.937 690.295 669.646C691.393 670.378 692.474 671.145 693.538 671.913C695.038 672.994 691.916 670.605 693.747 672.07C694.34 672.541 694.916 673.011 695.491 673.5C697.654 675.348 699.711 677.319 701.63 679.394C702.467 680.301 703.269 681.225 704.054 682.167C704.542 682.742 705.885 684.695 704.123 682.184C704.525 682.759 704.96 683.3 705.361 683.875C706.844 685.951 708.204 688.113 709.407 690.363C710 691.461 710.558 692.56 711.081 693.693C711.203 693.955 711.308 694.216 711.43 694.461C711.936 695.455 710.889 693.135 710.924 693.257C711.151 693.955 711.482 694.652 711.744 695.35C712.564 697.582 713.226 699.866 713.715 702.186C713.837 702.796 713.959 703.407 714.063 704.034C714.133 704.488 714.412 706.441 714.151 704.488C713.889 702.535 714.133 704.488 714.168 704.941C714.238 705.639 714.273 706.336 714.307 707.034C714.342 708.08 714.36 709.109 714.307 710.155C714.29 710.766 714.255 711.359 714.203 711.969C714.168 712.457 713.906 714.637 714.168 712.632C714.429 710.626 714.116 712.858 714.028 713.277C713.941 713.782 713.837 714.288 713.715 714.776C713.453 715.945 713.122 717.096 712.738 718.229C712.581 718.717 712.389 719.188 712.215 719.677C711.639 721.333 713.244 717.497 712.476 719.084C711.953 720.182 711.413 721.264 710.82 722.327C708.117 727.088 709.529 733.976 714.569 736.644C719.609 739.312 725.991 737.97 728.886 732.895C741.773 710.19 733.245 683.021 716.609 664.815C698.142 644.622 668.479 633.513 641.45 639.547C628.859 642.355 617.873 649.469 610.287 659.88C603.573 669.105 600.818 681.382 602.161 692.63C605.422 719.764 625.65 741.388 650.239 751.763C673.536 761.599 704.995 761.198 722.957 740.969C725.171 738.475 727.194 735.772 728.886 732.895C731.659 728.169 730.124 721.211 725.137 718.578C720.149 715.945 713.784 717.288 710.82 722.327H710.942Z" fill="#FF4409"/>
<path d="M219.965 24.1393L37.6209 71.2632C31.5599 72.8296 27.9163 79.0128 29.4826 85.0738L33.9289 102.278C35.4952 108.339 41.6785 111.983 47.7395 110.417L230.084 63.2927C236.145 61.7263 239.789 55.5431 238.222 49.4821L233.776 32.2776C232.21 26.2166 226.026 22.5729 219.965 24.1393Z" fill="#FA4008"/>
<path d="M129.665 18.8436C122.288 15.3908 113.342 17.9892 106.768 24.6507C102.914 20.5526 98.3453 17.1522 93.0789 14.6933C66.4679 2.25973 32.6722 18.3554 17.5879 50.6514C2.50369 82.9474 11.8507 119.184 38.4792 131.618C65.0902 144.052 98.886 127.956 113.97 95.66C118.661 85.6155 120.981 75.1873 121.172 65.1951C127.59 63.1024 133.623 57.7837 137.146 50.2328C143.058 37.5725 139.709 23.5171 129.682 18.8436H129.665Z" fill="#FF4409"/>
<path d="M134.932 9.81106C128.602 7.00348 122.219 6.11411 115.418 7.7882C109.332 9.2879 103.77 12.8802 99.3577 17.2399H114.163C104.572 7.19531 91.8765 1.44065 78.1525 0.202518C66.8001 -0.82635 55.3604 2.15559 45.2287 7.09067C22.9598 17.9548 6.777 40.9213 1.80704 64.934C-3.16291 88.9468 1.80699 115.732 20.6056 132.159C29.9178 140.303 41.1132 144.959 53.4073 146.075C64.847 147.104 76.3913 144.087 86.5928 139.065C109.838 127.59 126.614 102.845 130.45 77.4373C131.061 73.3742 131.532 69.3111 131.619 65.1956L123.946 75.2925C137.251 70.7759 147.505 58.6387 149.79 44.7229C152.074 30.807 147.924 16.1587 134.95 9.82852C130.032 7.43945 123.405 8.3288 120.633 13.5778C118.156 18.2862 119.133 25.3313 124.382 27.8947C125.289 28.3481 126.108 28.8888 126.963 29.4119C127.992 30.0397 125.132 27.7378 126.317 28.9585C126.701 29.3421 127.102 29.7084 127.451 30.1094C127.73 30.4233 128.864 31.6789 127.66 30.3012C126.457 28.9236 127.538 30.2141 127.765 30.5977C128.061 31.0686 128.323 31.5568 128.585 32.0451C128.776 32.4113 129.561 33.9808 128.741 32.3241C127.922 30.6674 128.672 32.2544 128.811 32.6729C128.986 33.2309 129.143 33.7889 129.282 34.347C129.404 34.8178 129.474 35.3061 129.579 35.7943C129.858 37.0673 129.352 33.2309 129.474 35.0968C129.544 36.2303 129.596 37.3464 129.561 38.4799C129.544 39.003 129.491 39.5262 129.456 40.0493C129.334 42.2989 129.98 37.5905 129.491 39.8052C129.247 40.8864 129.038 41.9501 128.724 43.0139C128.532 43.6591 128.305 44.2869 128.096 44.9321C127.486 46.7457 128.811 43.5022 128.236 44.6705C127.66 45.8389 127.102 46.9724 126.44 48.0885C126.143 48.5767 125.829 49.0476 125.498 49.5184C124.591 50.8438 124.992 49.8846 125.725 49.2917C124.835 50.0067 124.12 51.1402 123.283 51.9424C122.9 52.3086 122.481 52.6573 122.097 53.0235C120.51 54.5407 124.051 51.7505 122.237 52.9364C121.382 53.4944 120.545 54.0698 119.639 54.5581C119.133 54.8371 118.522 55.0464 118.034 55.3429L119.447 54.7325C119.081 54.872 118.714 54.9941 118.348 55.1162C113.867 56.6333 110.78 60.3826 110.675 65.213C110.64 66.7127 110.571 68.2299 110.449 69.7296C110.379 70.4969 110.309 71.2467 110.222 72.014C110.187 72.293 110.03 73.6009 110.222 72.1535C110.414 70.6189 110.17 72.3802 110.135 72.6767C109.594 76.0423 108.809 79.373 107.815 82.634C107.344 84.1861 106.821 85.7032 106.263 87.2203C106.124 87.5866 105.182 89.8012 105.74 88.6329C106.298 87.4645 105.705 88.7026 105.618 88.8944C105.391 89.4001 105.165 89.9058 104.938 90.4116C103.787 92.8878 102.497 95.2943 101.102 97.6311C99.7065 99.9678 98.1021 102.252 96.4629 104.484C95.7828 105.409 97.1953 103.56 97.143 103.612C96.9337 103.839 96.7594 104.101 96.5501 104.345C96.1665 104.833 95.7653 105.304 95.3642 105.775C94.4923 106.786 93.603 107.78 92.6787 108.739C90.9349 110.553 89.1213 112.279 87.203 113.919C86.7496 114.302 86.2963 114.686 85.8255 115.052C85.5988 115.244 85.3546 115.418 85.1279 115.61C85.0407 115.68 86.9939 114.215 86.0696 114.86C84.9536 115.645 83.8723 116.465 82.7214 117.214C80.7159 118.522 78.6582 119.726 76.5307 120.807C75.5367 121.312 74.4381 121.696 73.479 122.254C73.3569 122.324 75.7286 121.347 74.6823 121.748C74.4207 121.853 74.1591 121.958 73.915 122.062C73.3046 122.306 72.7118 122.516 72.1014 122.742C69.9565 123.51 67.7592 124.137 65.5271 124.626C64.3761 124.87 63.2252 125.044 62.0743 125.254C60.9234 125.463 63.7135 125.062 63.5217 125.062C63.2601 125.062 62.9811 125.132 62.7195 125.149C62.0917 125.201 61.4814 125.271 60.8536 125.306C58.6389 125.463 56.4242 125.445 54.2095 125.306C53.6864 125.271 53.1458 125.219 52.6227 125.166C52.3786 125.149 52.0646 125.149 51.8379 125.079C51.6112 125.009 54.4362 125.515 53.3027 125.271C52.1692 125.027 51.0358 124.87 49.9023 124.608C47.6179 124.068 45.4904 123.161 43.2583 122.481C43.1187 122.446 45.4903 123.51 44.5138 123.004C44.2696 122.882 44.0081 122.777 43.7639 122.673C43.2582 122.429 42.7351 122.184 42.2293 121.923C41.1482 121.365 40.0844 120.772 39.0555 120.127C38.1139 119.534 37.207 118.906 36.3002 118.261C36.0735 118.104 35.8643 117.912 35.6376 117.772C35.5329 117.703 37.4686 119.29 36.6665 118.557C36.1956 118.121 35.6725 117.738 35.1842 117.302C33.3881 115.715 31.7314 113.988 30.2142 112.157C30.0398 111.948 29.8655 111.721 29.6911 111.512C28.9761 110.692 30.5456 112.646 30.4758 112.541C30.1968 112.07 29.8132 111.634 29.4993 111.198C28.8018 110.204 28.1565 109.193 27.5287 108.164C26.3081 106.124 25.4361 103.961 24.32 101.886C24.2677 101.781 25.192 104.118 24.8258 103.072C24.7386 102.81 24.6166 102.531 24.5119 102.27C24.2678 101.642 24.0411 101.014 23.8318 100.369C23.4307 99.1831 23.0471 97.9799 22.7157 96.7592C22.0705 94.3701 21.6171 91.9636 21.1986 89.5396C21.0068 88.3887 21.3729 90.9696 21.3729 90.8301C21.3555 90.5337 21.3032 90.2372 21.2683 89.9407C21.1985 89.3478 21.1463 88.7375 21.094 88.1271C20.9893 86.8018 20.9196 85.4939 20.8847 84.1686C20.815 81.4657 20.9021 78.7627 21.1462 76.0772C21.1985 75.4494 21.2684 74.8216 21.3381 74.1938C21.5474 72.2407 20.9893 76.3911 21.3032 74.4554C21.5299 73.0778 21.774 71.7001 22.0531 70.3399C22.6285 67.6544 23.3261 65.0037 24.1806 62.388C24.5991 61.115 25.0525 59.842 25.5407 58.5864C25.7849 57.9586 26.0639 57.3309 26.2906 56.7031C25.2792 59.4932 26.2906 56.7554 26.6219 56.0579C27.7729 53.5816 29.0633 51.1751 30.4584 48.8383C31.8535 46.5016 33.3183 44.3741 34.9052 42.2291C36.0387 40.712 33.5973 43.8161 34.8005 42.3687C35.2016 41.8978 35.5853 41.4095 35.9863 40.9387C36.9106 39.8401 37.8697 38.7763 38.8637 37.73C40.6076 35.9164 42.4212 34.19 44.3394 32.5508C44.7928 32.1672 45.2462 31.7835 45.717 31.4173C45.9437 31.2255 46.1879 31.0511 46.4146 30.8593C46.5018 30.7895 44.5486 32.2543 45.4729 31.6091C46.5017 30.8767 47.5132 30.1269 48.577 29.4293C50.5649 28.104 52.6401 26.9007 54.7676 25.8195C55.8488 25.2615 57.0346 24.843 58.0809 24.2501C58.203 24.1803 55.8314 25.1569 56.8777 24.7558C57.1393 24.6512 57.4008 24.5466 57.645 24.4419C58.2553 24.1978 58.8482 23.9885 59.4585 23.7618C61.6035 22.9945 63.8007 22.3668 66.0329 21.8785C67.0966 21.6518 68.1603 21.4774 69.224 21.2856C71.0202 20.9717 66.7478 21.5297 68.5788 21.3728C69.2066 21.3204 69.8169 21.2507 70.4447 21.1984C72.7466 21.024 75.0485 21.024 77.3504 21.1984C77.8736 21.2332 78.4141 21.2856 78.9372 21.3379C79.1814 21.3553 79.4953 21.3553 79.722 21.4251C79.9487 21.4948 77.1236 20.9891 78.2571 21.2333C79.3906 21.4774 80.5241 21.6343 81.6576 21.8959C83.8549 22.419 85.9301 23.1863 88.0576 23.9188C89.1039 24.285 86.6799 23.3084 86.8195 23.3956C87.0462 23.5351 87.3252 23.6223 87.5693 23.727C88.3366 24.0932 89.0864 24.4593 89.8363 24.843C91.2662 25.5928 92.6439 26.4299 93.9692 27.3367C94.2831 27.546 96.149 28.9411 94.9981 28.0343C93.8472 27.1275 95.6433 28.5923 95.9397 28.8364C97.143 29.8827 98.2765 30.9814 99.3752 32.1323C103.299 36.2478 110.222 36.0385 114.18 32.1323C114.686 31.6266 115.994 30.8418 116.273 30.2141C115.977 30.8942 114.616 31.4173 116.081 30.3885C116.447 30.1269 116.831 29.8827 117.215 29.656C117.982 29.1852 118.784 28.819 119.551 28.4005C120.702 27.7727 117.616 29.0457 118.854 28.7143C119.36 28.5748 119.865 28.3656 120.371 28.2261C120.772 28.104 121.191 28.0343 121.592 27.9296C122.987 27.5634 121.086 28.0168 120.65 27.9993C121.47 28.0168 122.289 27.8598 123.109 27.8947C123.51 27.8947 123.928 27.9994 124.33 27.9645C121.958 28.104 122.621 27.7029 123.649 27.9296C124.504 28.1215 127.224 29.255 124.364 27.9819C127.015 29.1678 129.509 29.8479 132.421 29.0283C134.845 28.3656 137.478 26.4822 138.681 24.2152C141.088 19.6638 140.268 12.2699 134.932 9.89829V9.81106Z" fill="#FF4409"/>
<path d="M488.657 881.42H394.489V598.045H447.677L488.657 881.42Z" fill="#FAF1E7"/>
<path d="M488.657 870.956H394.489L404.953 881.419V633.008C404.953 621.534 405.284 609.99 404.953 598.515C404.953 598.358 404.953 598.201 404.953 598.044L394.489 608.507H447.677L437.58 600.834C438.94 610.269 440.318 619.72 441.678 629.154C444.939 651.668 448.183 674.181 451.443 696.711C455.402 724.072 459.36 751.433 463.319 778.811C466.719 802.336 470.12 825.86 473.52 849.385C475.177 860.807 476.45 872.368 478.491 883.721C478.525 883.878 478.543 884.052 478.56 884.209C478.909 886.616 481.368 889.301 483.373 890.469C485.623 891.777 488.919 892.335 491.43 891.516C493.941 890.696 496.4 889.127 497.69 886.703C499.103 884.052 499.173 881.593 498.737 878.646C497.376 869.212 495.999 859.76 494.639 850.326C491.378 827.813 488.134 805.3 484.873 782.77C480.914 755.409 476.956 728.048 472.997 700.669C469.597 677.145 466.196 653.621 462.796 630.096C461.68 622.336 460.546 614.576 459.43 606.833C458.907 603.154 458.541 599.404 457.826 595.76C457.791 595.603 457.774 595.428 457.756 595.271C457.111 590.807 451.845 587.599 447.659 587.599H394.472C388.822 587.599 384.009 592.394 384.009 598.062V846.472C384.009 857.964 383.782 869.474 384.009 880.966C384.009 881.122 384.009 881.279 384.009 881.436C384.009 887.086 388.805 891.899 394.472 891.899H488.64C494.115 891.899 499.364 887.086 499.103 881.436C498.841 875.786 494.499 870.973 488.64 870.973L488.657 870.956Z" fill="#FF4409"/>
<path d="M562.838 896.242H407.496C400.347 896.242 394.487 890.383 394.487 883.233V848.217C394.487 841.067 400.347 835.208 407.496 835.208H527.822C554.241 835.208 575.847 856.814 575.847 883.233C575.847 890.383 569.988 896.242 562.838 896.242Z" fill="#FA4008"/>
<path d="M562.838 885.78C555.671 885.78 548.521 885.78 541.354 885.78C525.084 885.78 508.814 885.78 492.561 885.78H440.682C430.236 885.78 419.791 885.78 409.345 885.78C408.735 885.78 408.124 885.78 407.496 885.78C407.287 885.78 406.921 885.78 406.869 885.78C405.107 885.78 409.362 886.356 407.008 885.745C406.625 885.641 406.258 885.501 405.892 885.396C404.898 885.135 407.043 885.867 407.06 885.885C406.921 885.658 404.026 883.984 405.718 885.152C407.514 886.408 404.323 883.217 405.578 885.013C406.607 886.478 405.386 884.559 405.107 884.176C404.218 882.868 405.439 884.804 405.439 885.1C405.439 884.838 405.125 884.211 405.072 884.001C404.985 883.67 404.95 883.129 404.793 882.85C404.968 883.199 404.95 885.309 404.95 883.844C405.003 877.584 404.95 871.324 404.95 865.081V849.194C404.95 848.933 404.95 848.671 404.95 848.41C404.95 848.357 404.95 848.305 404.95 848.235C404.95 848.026 404.95 847.677 404.95 847.625C404.95 845.776 404.479 849.526 404.846 848.34C405.02 847.764 405.386 846.962 405.421 846.369C405.317 848.2 404.514 848.165 405.09 847.293C405.299 846.98 405.508 846.631 405.683 846.317C406.311 845.236 406.154 846.683 405.09 847.067C405.282 846.997 405.526 846.578 405.683 846.439C406.067 846.108 407.026 845.497 405.683 846.317C404.148 847.241 405.683 846.352 406.032 846.143C406.223 846.02 406.956 845.724 407.043 845.584C406.938 845.759 404.532 846.422 406.154 845.986C406.624 845.846 408.944 845.462 407.06 845.654C405.177 845.846 407.06 845.707 407.531 845.707C408.403 845.707 409.293 845.707 410.164 845.707H500.513C509.599 845.707 518.684 845.654 527.787 845.707C528.816 845.707 529.827 845.741 530.856 845.811C531.553 845.864 532.269 845.916 532.966 845.986C533.402 846.038 534.814 846.16 533.071 845.986C531.205 845.794 533.018 845.986 533.454 846.073C536.436 846.613 539.383 847.433 542.208 848.514C544.528 849.404 540.151 847.503 542.383 848.584C542.993 848.88 543.603 849.159 544.214 849.456C545.574 850.153 546.917 850.921 548.207 851.74C548.852 852.159 549.498 852.577 550.108 853.013C550.98 853.624 552.253 855.193 550.282 853.1C551.311 854.199 552.637 855.071 553.718 856.117C554.747 857.111 555.741 858.158 556.665 859.239C557.101 859.727 557.467 860.32 557.955 860.773C556.246 859.152 556.892 859.361 557.362 860.023C557.641 860.407 557.92 860.791 558.199 861.192C559.908 863.651 561.304 866.249 562.594 868.952C563.326 870.487 562.263 868.185 562.228 868.045C562.315 868.394 562.524 868.795 562.646 869.126C562.925 869.859 563.187 870.591 563.414 871.324C563.902 872.823 564.303 874.323 564.634 875.858C564.774 876.538 564.913 877.218 565.035 877.898C565.471 880.426 564.791 875.509 565.07 878.072C565.244 879.677 565.349 881.298 565.349 882.92C565.349 883.426 565.262 883.949 565.297 884.437C565.122 882.257 565.646 882.502 565.384 883.408C565.279 883.775 565.157 884.158 565.07 884.542C564.774 885.728 564.425 884.455 565.471 883.653C565.297 883.792 565 884.524 564.913 884.664C564.774 884.891 564.564 885.135 564.442 885.379C563.919 886.495 565.977 883.844 565 884.594C564.739 884.804 564.373 885.117 564.198 885.396C563.692 886.146 565.07 884.716 565.21 884.664C564.878 884.769 563.414 885.588 563.239 885.85C563.379 885.658 565.733 885.048 564.129 885.449C563.762 885.536 563.361 885.658 562.995 885.763C562.629 885.867 561.548 885.989 563.222 885.78C565.175 885.536 563.152 885.728 562.803 885.728C557.328 885.85 552.079 890.454 552.34 896.191C552.602 901.928 556.944 906.793 562.803 906.654C573.109 906.41 581.724 900.01 585.142 890.331C586.415 886.722 586.432 882.694 586.084 878.927C585.735 875.16 585.159 871.132 584.096 867.383C580.085 853.257 570.703 841.016 558.234 833.29C548.922 827.518 538.023 824.693 527.124 824.693C523.166 824.693 519.225 824.693 515.266 824.693H417.192C413.984 824.693 410.775 824.641 407.584 824.693C399.527 824.815 392.569 828.687 387.948 835.209C384.914 839.498 384.007 844.695 384.007 849.839V874.236C384.007 877.096 383.989 879.938 384.007 882.798C384.059 890.942 387.896 898.057 394.522 902.713C399.544 906.235 405.299 906.654 411.141 906.654C415.972 906.654 420.802 906.654 425.632 906.654C442.059 906.654 458.504 906.654 474.931 906.654C492.91 906.654 510.906 906.654 528.885 906.654C539.68 906.654 550.457 906.654 561.251 906.654H562.803C568.279 906.654 573.528 901.841 573.266 896.191C573.005 890.541 568.663 885.728 562.803 885.728L562.838 885.78Z" fill="#FA4008"/>
<path d="M254.98 881.42H349.148V598.045H295.961L254.98 881.42Z" fill="#FAF1E7"/>
<path d="M254.981 891.882C265.619 891.882 276.256 891.882 286.876 891.882C303.739 891.882 320.602 891.882 337.482 891.882C341.371 891.882 345.26 891.882 349.149 891.882C354.799 891.882 359.612 887.086 359.612 881.419C359.612 871.967 359.612 862.516 359.612 853.064C359.612 830.516 359.612 807.968 359.612 785.438V703.704C359.612 680.144 359.612 656.585 359.612 633.026C359.612 621.534 359.838 610.025 359.612 598.533C359.612 598.376 359.612 598.219 359.612 598.062C359.612 592.412 354.816 587.599 349.149 587.599C333.611 587.599 318.091 587.599 302.553 587.599C300.356 587.599 298.159 587.599 295.961 587.599C291.846 587.599 286.51 590.825 285.865 595.271C284.504 604.706 283.127 614.157 281.767 623.592L272.001 691.148C268.043 718.509 264.084 745.87 260.125 773.248C256.725 796.773 253.324 820.297 249.924 843.822C248.267 855.261 246.593 866.718 244.954 878.158C244.937 878.315 244.902 878.489 244.884 878.646C244.466 881.541 244.396 884.07 245.931 886.703C247.204 888.865 249.697 890.94 252.191 891.516C257.144 892.649 264.224 889.999 265.061 884.209C266.421 874.775 267.798 865.323 269.159 855.889C272.42 833.376 275.663 810.863 278.924 788.333C282.883 760.972 286.841 733.611 290.8 706.232C294.2 682.708 297.601 659.183 301.001 635.659C302.658 624.237 304.663 612.797 305.971 601.323C305.989 601.166 306.023 600.991 306.041 600.834L295.944 608.507C311.482 608.507 327.002 608.507 342.54 608.507C344.737 608.507 346.934 608.507 349.131 608.507L338.668 598.044C338.668 607.496 338.668 616.948 338.668 626.399C338.668 648.947 338.668 671.495 338.668 694.025C338.668 721.264 338.668 748.521 338.668 775.759C338.668 799.319 338.668 822.878 338.668 846.437C338.668 857.912 338.337 869.456 338.668 880.931C338.668 881.088 338.668 881.245 338.668 881.401L349.131 870.938C338.494 870.938 327.856 870.938 317.236 870.938C300.373 870.938 283.51 870.938 266.63 870.938C262.741 870.938 258.852 870.938 254.964 870.938C249.488 870.938 244.239 875.751 244.501 881.401C244.762 887.052 249.104 891.865 254.964 891.865L254.981 891.882Z" fill="#FF4409"/>
<path d="M180.799 896.243H336.141C343.29 896.243 349.15 890.383 349.15 883.233V848.217C349.15 841.067 343.29 835.208 336.141 835.208H215.815C189.396 835.208 167.79 856.814 167.79 883.233C167.79 890.383 173.649 896.243 180.799 896.243Z" fill="#FA4008"/>
<path d="M180.797 906.705C188.488 906.705 196.16 906.705 203.851 906.705C220.958 906.705 238.082 906.705 255.19 906.705C272.768 906.705 290.328 906.705 307.906 906.705C317.183 906.705 326.46 906.775 335.738 906.705C349.061 906.618 359.524 896.016 359.594 882.727C359.646 875.281 359.594 867.818 359.594 860.371C359.594 851.774 360.727 842.131 355.304 834.807C350.63 828.511 343.864 824.867 335.982 824.745C334.936 824.745 333.889 824.745 332.843 824.745H291.688C273.814 824.745 255.939 824.745 238.065 824.745C226.957 824.745 215.308 823.89 204.339 825.913C189.761 828.616 177.118 837.475 168.364 849.228C164.213 854.791 161.161 861.33 159.348 868.009C157.534 874.688 155.965 884.018 158.668 890.941C162.347 900.323 170.596 906.479 180.797 906.723C186.273 906.845 191.504 901.823 191.26 896.26C191.016 890.697 186.657 885.936 180.797 885.797C180.64 885.797 179.786 885.657 179.577 885.744C179.856 885.64 182.157 886.355 180.605 885.832C180.152 885.675 177.972 884.96 179.646 885.605C181.32 886.25 179.018 885.064 178.635 884.872C177.763 884.419 179.611 885.552 179.629 885.622C179.629 885.57 178.46 884.419 178.408 884.402C178.478 884.419 179.611 886.268 179.158 885.396C178.984 885.064 178.757 884.733 178.548 884.436C177.275 882.518 178.984 886.145 178.548 884.576C178.443 884.21 178.356 883.809 178.234 883.442C177.711 881.89 178.426 884.175 178.321 884.471C178.495 884.018 178.269 882.867 178.269 882.344C178.304 880.827 178.408 879.327 178.565 877.81C178.757 875.944 178.181 880.234 178.565 877.932C178.722 877.06 178.896 876.188 179.088 875.316C179.42 873.886 179.821 872.474 180.274 871.079C180.518 870.346 180.78 869.614 181.059 868.881C181.163 868.62 181.285 868.341 181.373 868.062C180.344 871.009 180.919 869.108 181.251 868.428C182.506 865.725 184.006 863.144 185.75 860.72C185.924 860.493 186.081 860.249 186.255 860.023C187.232 858.662 185.767 860.685 185.663 860.772C186.203 860.302 186.657 859.552 187.127 859.011C188.139 857.86 189.202 856.762 190.301 855.715C190.859 855.192 191.417 854.686 192.01 854.181C192.341 853.902 194.225 852.454 192.725 853.553C191.225 854.652 193.161 853.239 193.51 852.995C194.207 852.507 194.94 852.018 195.655 851.565C196.875 850.798 198.131 850.083 199.404 849.437C200.084 849.089 200.799 848.775 201.497 848.444C202.124 848.147 203.24 847.885 200.59 848.81C200.956 848.688 201.305 848.513 201.671 848.391C204.618 847.275 207.652 846.508 210.739 845.95C212.57 845.618 208.28 846.211 210.634 845.95C211.437 845.863 212.239 845.793 213.041 845.758C213.965 845.706 214.889 845.688 215.814 845.671C216.616 845.671 217.418 845.671 218.203 845.671H232.589C249.208 845.671 265.844 845.671 282.463 845.671C297.513 845.671 312.562 845.671 327.594 845.671C330.419 845.671 333.244 845.618 336.052 845.671C336.052 845.671 336.087 845.671 336.104 845.671C336.313 845.671 337.081 845.671 336.714 845.671C337.726 845.671 337.621 846.264 335.72 845.514C336.313 845.758 337.081 845.88 337.708 846.054C338.929 846.403 335.877 844.869 336.801 845.688C337.098 845.95 337.708 846.229 338.04 846.421C339.121 847.048 337.673 846.892 337.29 845.828C337.36 846.02 337.778 846.264 337.918 846.421C339.47 848.199 336.924 844.45 338.075 846.525C338.214 846.769 338.354 847.031 338.511 847.258C339.4 848.548 338.231 846.612 338.179 846.333C338.266 846.822 338.912 849.682 338.72 847.781C338.528 845.88 338.667 847.833 338.667 848.374C338.667 848.688 338.667 849.001 338.667 849.333V853.274C338.667 861.505 338.667 869.753 338.667 877.984C338.667 880.025 338.615 882.082 338.632 884.123C338.632 885.465 339.138 881.838 338.755 883.111C338.65 883.477 338.58 883.878 338.458 884.245C337.795 886.372 339.452 882.71 338.493 884.14C338.284 884.436 338.074 884.803 337.9 885.117C337.29 886.198 337.394 884.785 338.493 884.367C338.336 884.419 337.761 885.134 337.708 885.186C336.819 886.215 338.109 884.785 338.511 884.646C338.179 884.75 336.714 885.57 336.54 885.832C336.679 885.64 339.034 885.029 337.429 885.43C337.063 885.518 336.662 885.64 336.296 885.744C334.639 886.233 338.894 885.64 336.4 885.709C336.278 885.709 336.174 885.709 336.069 885.709C328.501 885.849 320.915 885.709 313.364 885.709C297.007 885.709 280.667 885.709 264.31 885.709C247.046 885.709 229.782 885.709 212.5 885.709C202.403 885.709 192.307 885.709 182.21 885.709H180.745C175.269 885.709 170.02 890.522 170.282 896.173C170.543 901.823 174.886 906.636 180.745 906.636L180.797 906.705Z" fill="#FA4008"/>
<path d="M645.147 391.695C645.147 417.853 574.783 432.553 567.128 456.147C559.193 480.614 607.184 533.818 592.378 554.169C577.416 574.729 511.883 545.432 491.323 560.394C470.972 575.217 478.662 646.662 454.214 654.597C430.619 662.252 394.94 600.172 368.8 600.172C342.66 600.172 306.981 662.252 283.387 654.597C258.921 646.662 266.628 575.2 246.278 560.394C225.718 545.432 160.184 574.729 145.222 554.169C130.399 533.818 178.407 480.596 170.473 456.147C162.817 432.553 92.4531 417.835 92.4531 391.695C92.4531 365.555 162.817 350.837 170.473 327.242C178.407 302.776 130.417 249.572 145.222 229.221C160.184 208.661 225.718 237.958 246.278 222.995C266.628 208.173 258.938 136.727 283.387 128.793C306.981 121.137 342.66 183.218 368.8 183.218C394.94 183.218 430.619 121.137 454.214 128.793C478.68 136.727 470.972 208.19 491.323 222.995C511.883 237.958 577.416 208.661 592.378 229.221C607.201 249.572 559.193 302.794 567.128 327.242C574.783 350.837 645.147 365.555 645.147 391.695Z" fill="#FAF1E7"/>
<path d="M632.069 391.696C632.069 392.079 632.034 392.463 632.017 392.847C632.017 394.782 632.767 388.993 632.278 390.876C632.087 391.626 631.912 392.358 631.703 393.091C630.971 395.602 633.464 389.551 631.947 392.48C631.511 393.335 630.988 394.12 630.465 394.922C628.982 397.189 632.801 392.219 630.936 394.329C630.343 395.009 629.75 395.689 629.105 396.334C627.622 397.851 626 399.194 624.379 400.554C622.757 401.915 627.186 398.479 625.39 399.77C625.024 400.031 624.675 400.293 624.327 400.554C623.524 401.13 622.705 401.705 621.885 402.263C619.845 403.641 617.752 404.949 615.642 406.222C611.492 408.698 607.237 411.017 602.964 413.302C594.507 417.818 585.892 422.143 577.801 427.322C569.709 432.502 561.862 438.274 557.206 446.487C546.621 465.251 558.967 488.322 567.216 505.447C569.448 510.103 571.75 514.724 573.947 519.38C575.011 521.647 576.057 523.914 577.051 526.216C577.208 526.582 577.365 526.966 577.539 527.332C578.516 529.564 576.249 524.193 577.155 526.425C577.661 527.698 578.184 528.971 578.655 530.244C580.155 534.237 581.341 538.266 582.143 542.451C582.37 543.672 582.073 545.206 581.934 540.847C581.934 541.3 582.038 541.753 582.056 542.207C582.126 543.079 582.143 543.968 582.125 544.84C582.09 546.549 581.062 548.764 582.335 544.247C582.125 545.014 582.038 545.799 581.794 546.566C580.818 549.67 583.416 543.707 582.073 545.921C581.184 547.403 579.597 548.397 582.631 545.52C582.073 546.043 581.55 546.636 581.009 547.194C579.684 548.554 584.061 545.119 582.439 546.113C582.108 546.322 581.777 546.566 581.445 546.758C580.748 547.177 579.998 547.491 579.283 547.874C583.416 545.572 581.062 547.142 579.597 547.578C578.725 547.839 577.836 548.049 576.964 548.241C576.493 548.328 576.039 548.398 575.569 548.502C573.511 548.921 579.632 548.101 576.615 548.363C567.285 549.165 557.973 548.153 548.731 546.933C547.754 546.811 545.243 546.444 549.655 547.055C549.01 546.968 548.382 546.88 547.737 546.793C546.673 546.654 545.592 546.497 544.528 546.34C540.814 545.817 537.082 545.311 533.368 544.805C528.415 544.142 523.462 543.532 518.493 543.166C509.564 542.503 499.781 542.434 491.341 545.799C486.545 547.717 482.133 550.281 478.768 554.292C475.106 558.651 472.769 563.168 470.607 568.399C467.136 576.805 465.41 585.873 463.771 594.784C462.027 604.305 460.579 613.914 458.33 623.348C457.336 627.551 456.115 631.666 454.616 635.729C454.232 636.758 453.221 638.38 455.191 634.421C454.982 634.84 454.807 635.293 454.598 635.729C454.214 636.566 453.796 637.386 453.343 638.206C452.994 638.851 452.61 639.478 452.226 640.106C452 640.472 451.756 640.804 451.511 641.17C450.029 643.419 453.604 638.763 452.296 640.159C451.756 640.734 451.25 641.344 450.674 641.885C448.32 644.1 453.43 640.159 451.25 641.519C450.675 641.885 450.064 642.199 449.489 642.548C448.495 643.141 447.344 642.792 451.424 641.745C450.936 641.867 450.483 642.077 449.994 642.216C449.628 642.304 449.244 642.356 448.878 642.46C452.784 641.275 452.209 642.146 450.849 642.164C450.081 642.164 449.314 642.164 448.547 642.129C446.576 642.077 452.383 642.844 450.448 642.373C450.047 642.269 449.646 642.216 449.245 642.112C448.425 641.902 447.623 641.641 446.821 641.362C445.722 641.013 444.431 640.019 448.303 642.024C447.902 641.815 447.466 641.658 447.047 641.449C446.193 641.031 445.338 640.577 444.519 640.106C442.653 639.042 440.839 637.839 439.095 636.584C438.171 635.921 435.206 633.427 438.869 636.462C437.979 635.729 437.073 635.014 436.183 634.282C434.178 632.608 432.207 630.864 430.272 629.103C422.703 622.197 415.553 614.873 407.95 608.002C400.766 601.515 393.075 594.836 384.147 590.895C379.124 588.68 373.98 586.989 368.383 587.111C362.785 587.233 357.658 588.907 352.566 591.261C343.446 595.481 335.563 602.526 328.222 609.258C320.688 616.163 313.539 623.505 305.918 630.323C304.279 631.788 302.622 633.235 300.93 634.631C300.041 635.363 296.536 637.979 300.442 635.084C299.413 635.851 298.402 636.619 297.356 637.351C295.821 638.415 294.252 639.426 292.612 640.35C291.775 640.804 290.938 641.222 290.084 641.641C288.985 642.181 287.59 642.199 291.549 641.048C290.991 641.205 290.468 641.466 289.91 641.641C289.107 641.902 288.305 642.077 287.503 642.286C284.852 642.931 291.566 642.024 288.235 642.164C287.59 642.199 286.962 642.129 286.317 642.129C284.381 642.094 290.154 642.914 288.305 642.373C287.817 642.234 287.329 642.112 286.84 641.99C284.364 641.327 290.363 643.803 287.573 642.269C286.91 641.902 286.317 641.449 285.689 641.048C289.543 643.454 287.625 642.582 286.596 641.588C285.515 640.542 283.911 637.735 286.526 641.815C285.585 640.35 284.591 638.938 283.771 637.386C283.335 636.549 282.969 635.694 282.55 634.84C281.748 633.183 283.405 636.793 283.3 636.619C282.969 636.095 282.795 635.346 282.585 634.753C281.068 630.672 279.935 626.434 278.958 622.197C274.546 603.067 273.43 582.96 265.443 564.824C261.432 555.722 254.806 548.955 245.441 545.468C236.844 542.277 226.887 542.503 217.889 543.253C211.82 543.741 205.786 544.578 199.77 545.398C197.311 545.729 194.852 546.078 192.394 546.427C191.121 546.601 189.83 546.776 188.557 546.968C186.029 547.316 192.01 546.514 189.481 546.845C188.644 546.95 187.79 547.072 186.953 547.177C182.088 547.787 177.222 548.328 172.322 548.554C170.264 548.659 168.207 548.694 166.149 548.659C165.085 548.642 164.039 548.589 162.975 548.52C161.458 548.415 157.482 547.369 162.469 548.554C160.83 548.153 159.156 547.961 157.534 547.438C157.116 547.316 156.715 547.142 156.314 547.02C154.395 546.427 159.644 548.624 157.883 547.7C157.046 547.247 156.226 546.811 155.424 546.322C153.209 544.962 158.267 548.921 155.947 546.654C155.668 546.375 155.424 546.078 155.145 545.817C153.802 544.491 157.185 548.868 156.244 547.229C155.93 546.671 155.599 546.113 155.267 545.572C154.291 543.933 156.523 549.112 155.982 547.281C155.843 546.776 155.651 546.305 155.511 545.799C155.407 545.415 155.354 545.014 155.25 544.631C154.762 542.695 155.581 548.502 155.494 546.497C155.459 545.642 155.372 544.805 155.389 543.951C155.389 543.201 155.459 542.468 155.494 541.736C155.564 540.568 156.174 538.894 155.232 543.375C155.354 542.747 155.424 542.102 155.546 541.474C156.348 537.254 157.726 533.139 159.278 529.128C159.697 528.029 160.167 526.931 160.603 525.832C158.825 530.349 160.516 526.076 160.97 525.047C161.981 522.746 163.045 520.461 164.126 518.194C166.428 513.329 168.817 508.516 171.136 503.668C175.583 494.356 180.239 484.765 182.68 474.685C185.035 465.024 185.314 454.526 179.908 445.772C174.851 437.594 166.794 431.699 158.772 426.677C150.594 421.568 141.944 417.226 133.452 412.674C129.04 410.302 124.645 407.896 120.373 405.28C118.612 404.199 116.868 403.083 115.159 401.915C114.269 401.304 113.398 400.676 112.526 400.049C111.654 399.421 110.293 397.991 113.502 400.833C112.996 400.38 112.438 399.996 111.915 399.56C110.573 398.427 109.265 397.241 108.044 395.968C107.416 395.323 106.858 394.625 106.265 393.963C104.922 392.445 108.34 396.927 107.259 395.236C106.963 394.765 106.631 394.329 106.335 393.858C105.916 393.178 105.585 392.445 105.184 391.731C104.469 390.458 106.039 393.788 106.039 393.771C106.091 393.579 105.725 392.881 105.655 392.672C105.428 391.94 105.324 391.19 105.132 390.458C106.335 395.044 105.428 392.707 105.446 390.893C105.446 388.26 104.609 394.922 105.358 391.748C105.515 391.068 105.794 390.405 105.986 389.743C106.352 388.365 104.312 393.265 105.201 391.608C105.393 391.26 105.55 390.893 105.742 390.545C106.213 389.69 106.753 388.923 107.277 388.103C108.358 386.429 104.94 390.893 106.283 389.376C106.579 389.045 106.858 388.696 107.137 388.365C107.747 387.685 108.393 387.022 109.038 386.377C110.45 384.999 112.02 383.813 113.502 382.506C109.858 385.714 112.805 383.064 113.816 382.349C114.705 381.721 115.612 381.093 116.536 380.5C118.455 379.245 120.39 378.024 122.378 376.856C126.546 374.379 130.819 372.06 135.091 369.793C143.706 365.207 152.46 360.795 160.638 355.476C168.189 350.558 176.438 344.49 180.658 336.241C185.436 326.912 184.895 316.536 182.122 306.648C179.35 296.761 174.554 286.838 169.985 277.369C167.736 272.731 165.451 268.109 163.271 263.436C162.208 261.169 161.179 258.902 160.185 256.617C159.801 255.728 158.964 253.479 160.551 257.507C160.324 256.949 160.098 256.408 159.871 255.85C159.365 254.595 158.877 253.339 158.424 252.066C156.976 248.09 156.052 244.114 155.18 239.981C156.191 244.829 155.442 242.039 155.372 240.714C155.32 239.842 155.302 238.97 155.337 238.098C155.354 237.679 155.407 237.261 155.424 236.842C155.511 234.837 154.692 240.644 155.18 238.708C155.407 237.819 155.633 236.947 155.895 236.058C156.436 234.227 154.204 239.406 155.18 237.767C155.372 237.435 155.529 237.086 155.738 236.755C157.273 234.227 154.099 238.482 155.058 237.522C155.599 236.982 156.209 236.459 156.715 235.901C154.169 238.673 154.186 237.697 155.32 236.999C155.773 236.72 156.209 236.424 156.68 236.18C157.046 235.988 157.412 235.813 157.778 235.622C159.522 234.68 154.291 236.895 156.209 236.302C156.906 236.092 157.587 235.831 158.284 235.622C159.173 235.377 160.063 235.168 160.952 234.994C161.423 234.907 161.911 234.872 162.365 234.75C157.848 235.831 160.028 235.046 161.336 234.924C170.648 234.017 180.134 235.273 189.359 236.494C191.888 236.825 185.907 236.023 188.435 236.371C189.08 236.459 189.708 236.546 190.353 236.633C191.644 236.807 192.917 236.999 194.207 237.174C197.712 237.662 201.218 238.15 204.723 238.604C209.658 239.249 214.593 239.859 219.563 240.208C229.747 240.923 240.262 240.47 249.609 236.058C258.956 231.646 263.682 222.961 267.205 214.05C274.04 196.699 274.877 177.464 279.255 159.45C280.283 155.178 281.591 151.045 283.108 146.947C283.649 145.5 281.574 150.365 282.446 148.499C282.655 148.063 282.829 147.627 283.039 147.209C283.44 146.389 283.858 145.57 284.312 144.767C284.765 143.965 285.201 143.268 285.689 142.553C287.625 139.71 283.405 145.099 285.672 142.605C286.108 142.117 286.579 141.681 287.05 141.227C288.898 139.414 283.823 143.39 286.509 141.663C287.137 141.262 287.817 140.966 288.462 140.6C284.504 142.867 286.509 141.489 288.2 141.001C290.049 140.477 284.294 141.297 286.212 141.245C286.526 141.245 286.84 141.21 287.154 141.192C287.869 141.192 288.567 141.28 289.282 141.297C284.469 141.21 286.997 140.948 288.584 141.367C289.561 141.628 290.467 142.03 291.444 142.326C286.875 140.983 289.909 141.663 291.235 142.326C291.95 142.692 292.665 143.093 293.362 143.494C295.315 144.645 297.199 145.918 299.012 147.261C299.466 147.592 299.902 147.924 300.338 148.255C296.833 145.657 298.716 146.999 299.466 147.61C300.373 148.342 301.279 149.092 302.169 149.842C304.035 151.411 305.848 153.033 307.644 154.69C315.195 161.613 322.345 168.937 329.966 175.79C338.074 183.08 346.637 189.968 356.873 193.979C366.656 197.815 376.544 196.176 385.751 191.694C394.959 187.213 402.44 180.359 409.694 173.68C416.948 167.001 424.36 159.433 431.98 152.632C433.759 151.045 435.555 149.493 437.421 147.993C437.857 147.627 438.328 147.278 438.764 146.93C435.451 149.685 437.107 148.203 437.892 147.61C438.764 146.965 439.636 146.337 440.525 145.709C442.182 144.575 443.908 143.494 445.687 142.553C446.507 142.117 447.379 141.768 448.198 141.349C443.908 143.581 446.611 142.012 447.954 141.611C448.756 141.367 449.558 141.21 450.361 141.018C452.296 140.547 446.489 141.332 448.46 141.262C448.843 141.262 449.227 141.21 449.628 141.192C451.442 141.158 453.064 142.221 448.809 140.931C449.628 141.175 450.517 141.419 451.355 141.628C447.501 140.652 448.756 140.425 450.238 141.28C451.721 142.134 452.802 143.895 449.75 140.739C450.291 141.297 450.919 141.768 451.442 142.326C451.721 142.622 451.965 142.936 452.244 143.215C453.552 144.61 449.96 139.954 451.459 142.204C452.349 143.564 453.203 144.924 453.935 146.372C454.354 147.209 454.703 148.098 455.139 148.935C452.872 144.366 454.825 148.255 455.261 149.528C456.726 153.678 457.824 157.968 458.801 162.258C460.928 171.762 462.358 181.388 464.172 190.944C465.985 200.501 468.235 209.97 472.263 218.933C476.292 227.896 483.302 234.837 492.876 238.133C501.647 241.15 511.726 240.766 520.829 239.964C526.811 239.423 532.757 238.604 538.704 237.784C541.162 237.453 543.621 237.104 546.08 236.755C547.249 236.598 548.434 236.441 549.603 236.267C544.598 236.964 550.004 236.214 551.207 236.075C556.055 235.465 560.903 234.959 565.786 234.75C568 234.645 570.232 234.628 572.447 234.697C573.493 234.732 574.522 234.785 575.569 234.889C575.9 234.924 576.231 234.959 576.58 234.994C579.597 235.255 573.476 234.436 575.534 234.854C577.33 235.221 579.056 235.622 580.818 236.162C583.451 236.982 577.382 234.436 580.382 236.005C581.096 236.371 581.742 236.825 582.422 237.243C584.044 238.255 579.667 234.802 580.992 236.162C581.253 236.441 581.567 236.685 581.829 236.964C582.091 237.243 582.317 237.575 582.596 237.836C579.754 235.133 580.817 235.325 581.463 236.441C582.3 237.889 582.561 239.964 581.376 235.709C581.602 236.511 581.881 237.313 582.108 238.133C582.928 241.08 581.899 234.488 582.021 237.261C582.056 238.115 582.108 238.97 582.09 239.824C582.073 240.731 581.916 241.62 581.899 242.527C582.056 237.4 582.056 241.324 581.742 242.841C580.835 247.114 579.388 251.246 577.783 255.31C577.557 255.868 577.33 256.408 577.121 256.966C576.214 259.198 578.481 253.827 577.504 256.059C577.103 257.001 576.685 257.943 576.266 258.867C575.15 261.361 573.982 263.837 572.813 266.313C570.581 270.969 568.297 275.608 566.065 280.264C558.13 296.9 546.324 320.093 557.764 337.915C563.1 346.216 571.349 352.163 579.649 357.272C587.95 362.382 596.582 366.672 605.092 371.258C609.138 373.438 613.166 375.67 617.09 378.076C619.008 379.245 620.909 380.465 622.757 381.738C623.489 382.244 624.222 382.767 624.937 383.29C625.809 383.918 627.151 385.348 623.96 382.506C624.344 382.837 624.762 383.133 625.146 383.465C626.628 384.685 628.076 385.976 629.401 387.371C630.029 388.016 630.587 388.714 631.18 389.376C632.261 390.58 629.82 387.789 629.924 387.755C629.977 387.737 630.604 388.714 630.657 388.783C631.11 389.464 631.529 390.161 631.912 390.893C633.429 393.823 630.936 387.772 631.668 390.283C631.877 391.016 632.052 391.748 632.243 392.498C632.714 394.381 631.964 388.592 631.982 390.527C631.982 390.911 632.017 391.295 632.034 391.678C632.121 398.514 637.981 405.071 645.113 404.757C652.245 404.443 658.297 399.002 658.192 391.678C657.913 370.578 636.15 358.371 619.915 349.529C611.213 344.786 602.319 340.374 593.827 335.247C591.926 334.096 590.06 332.911 588.229 331.673C587.427 331.132 586.642 330.574 585.857 329.998C585.508 329.754 585.177 329.475 584.828 329.231C588.595 331.864 586.38 330.434 585.526 329.737C584.096 328.551 582.701 327.313 581.428 325.953C580.835 325.325 580.329 324.645 579.736 324.017C583.032 327.557 580.713 325.307 579.946 324.017C579.091 322.587 578.917 320.425 580.085 324.767C579.928 324.157 579.649 323.581 579.475 322.971C579.056 321.401 579.335 318.873 579.423 323.651C579.423 322.657 579.265 321.663 579.283 320.651C579.283 319.745 579.387 318.838 579.457 317.931C579.597 315.786 578.829 321.663 579.231 319.518C579.318 319.03 579.388 318.559 579.475 318.071C579.893 315.856 580.486 313.659 581.166 311.496C581.794 309.508 582.492 307.555 583.241 305.602C583.677 304.486 584.113 303.387 584.567 302.289C585.491 300.039 583.207 305.41 584.201 303.178C584.532 302.428 584.863 301.661 585.195 300.911C587.27 296.238 589.519 291.634 591.751 287.048C596.547 277.195 601.499 267.272 604.987 256.879C607.917 248.125 609.94 237.679 606.609 228.733C598.343 206.465 572.046 207.406 552.48 209.76C546.411 210.493 540.378 211.365 534.327 212.202C533.054 212.376 531.763 212.551 530.49 212.725C535.425 212.045 530.665 212.69 529.514 212.847C527.037 213.161 524.544 213.44 522.05 213.684C517.289 214.137 512.494 214.451 507.698 214.277C506.669 214.242 505.623 214.172 504.594 214.085C504.106 214.033 503.6 213.946 503.112 213.928C507.524 214.137 505.85 214.329 504.664 214.12C502.868 213.789 501.159 213.335 499.415 212.777C496.799 211.923 502.85 214.504 499.886 212.917C499.188 212.533 498.56 212.045 497.863 211.661C501.699 213.824 499.694 213.178 498.526 211.993C497.41 210.876 496.049 208.191 498.526 212.237C497.706 210.894 496.782 209.638 496.049 208.226C495.613 207.406 495.247 206.569 494.846 205.732C493.939 203.814 496.154 209.098 495.422 207.075C495.195 206.447 494.951 205.837 494.724 205.226C491.55 196.455 489.928 187.143 488.307 177.988C486.598 168.362 485.098 158.666 482.552 149.214C480.006 139.762 476.501 130.45 469.7 123.527C462.306 115.976 451.564 113.361 441.45 116.238C431.492 119.08 423.034 125.847 415.362 132.508C407.689 139.17 400.242 146.79 392.639 153.87C389.047 157.218 385.385 160.462 381.548 163.531C379.717 165.013 384.252 161.508 382.368 162.886C381.915 163.217 381.461 163.566 381.008 163.897C380.119 164.543 379.229 165.17 378.305 165.763C376.456 166.984 374.556 168.117 372.568 169.077C372.149 169.286 371.678 169.443 371.277 169.687C374.922 167.681 373.823 168.675 372.69 169.059C371.853 169.338 371.016 169.635 370.144 169.861C369.464 170.036 368.749 170.123 368.069 170.297C372.707 169.059 370.057 170.105 368.295 170.053C367.894 170.053 367.476 170.001 367.075 169.983C365.069 169.914 370.876 170.698 368.906 170.227C368.068 170.018 367.232 169.861 366.395 169.617C365.557 169.373 364.703 168.972 363.849 168.71C368.557 170.175 364.825 169.094 363.5 168.396C361.826 167.507 360.204 166.513 358.634 165.449C357.728 164.839 356.821 164.194 355.931 163.549C355.478 163.217 355.025 162.868 354.571 162.52C358.233 165.205 355.74 163.426 354.937 162.764C351.101 159.66 347.439 156.329 343.829 152.946C336.278 145.849 329.024 138.42 321.142 131.671C313.26 124.922 305.029 118.383 295.158 115.959C285.288 113.535 273.971 116.255 266.908 124.347C260.369 131.845 256.881 141.262 254.44 150.784C249.784 169.007 249.051 188.451 242.337 206.116C242.163 206.569 241.954 207.023 241.797 207.476C243.174 203.36 242.843 205.087 242.355 206.098C241.954 206.918 241.57 207.755 241.134 208.557C240.716 209.324 240.28 210.074 239.809 210.807C239.582 211.155 239.338 211.487 239.111 211.836C238.065 213.457 241.692 208.836 239.913 210.772C239.39 211.347 238.885 211.923 238.309 212.446C238.117 212.62 237.559 212.952 237.455 213.178C237.455 213.178 240.471 211.103 239.198 211.818C238.501 212.202 237.838 212.655 237.141 213.039C236.094 213.614 234.664 213.667 238.763 212.411C238.222 212.585 237.699 212.812 237.158 212.987C235.397 213.562 233.583 213.806 231.787 214.19C236.775 213.109 233.182 213.998 231.787 214.085C230.549 214.172 229.328 214.225 228.09 214.242C223.434 214.312 218.761 213.963 214.122 213.492C211.611 213.231 209.117 212.934 206.623 212.62C205.996 212.533 205.35 212.446 204.723 212.376C209.152 212.934 206.623 212.638 205.647 212.498C204.356 212.324 203.083 212.149 201.793 211.958C195.55 211.086 189.307 210.179 183.047 209.464C173.089 208.33 162.958 207.72 153.07 209.882C142.537 212.184 134.027 219.09 130.522 229.379C127.418 238.481 129.702 249.049 132.772 257.856C136.416 268.284 141.404 278.224 146.217 288.146C148.449 292.732 150.663 297.319 152.704 301.992C152.948 302.55 153.192 303.126 153.436 303.684C151.658 299.743 152.686 301.905 153.053 302.794C153.506 303.893 153.942 304.992 154.36 306.09C155.215 308.357 156.017 310.659 156.697 312.996C157.273 314.967 157.709 316.954 158.092 318.977C158.668 321.977 157.813 315.368 157.988 318.332C158.057 319.378 158.127 320.425 158.11 321.471C158.075 323.093 157.151 325.639 158.336 320.948C158.145 321.733 158.04 322.535 157.813 323.32C157.709 323.686 157.569 324.035 157.447 324.383C156.889 326.179 159.104 320.983 158.179 322.622C157.726 323.407 157.325 324.209 156.819 324.976C154.971 327.749 158.947 322.587 157.116 324.627C156.627 325.168 156.157 325.709 155.651 326.232C154.221 327.697 152.669 329.004 151.099 330.312C149.443 331.707 153.942 328.237 152.146 329.493C151.727 329.789 151.309 330.103 150.89 330.4C150.018 331.027 149.146 331.62 148.257 332.213C146.304 333.504 144.316 334.742 142.31 335.928C125.36 345.972 106.178 353.349 91.4948 366.828C84.4846 373.281 78.6776 382.488 79.2008 392.376C79.7239 402.263 85.3566 411.192 92.9597 417.679C108.201 430.653 127.087 437.995 144.037 448.318C145.92 449.469 147.786 450.655 149.6 451.911C150.454 452.504 151.291 453.131 152.146 453.742C153.925 455.015 149.425 451.544 151.099 452.922C151.605 453.341 152.111 453.742 152.617 454.16C154.012 455.346 155.337 456.602 156.558 457.962C157.464 458.973 158.598 461.205 156.122 457.264C156.61 458.049 157.185 458.781 157.656 459.583C157.848 459.915 158.005 460.264 158.197 460.595C159.139 462.252 156.906 457.037 157.465 458.834C157.691 459.583 157.953 460.298 158.127 461.066C158.877 464.397 157.97 457.665 158.075 460.455C158.11 461.484 158.162 462.496 158.11 463.507C158.075 464.274 157.953 465.042 157.918 465.809C158.092 460.787 158.127 464.24 157.848 465.687C157.395 467.919 156.784 470.116 156.087 472.296C155.389 474.476 154.605 476.621 153.75 478.748C153.332 479.795 151.483 483.91 153.454 479.516C152.948 480.649 152.477 481.783 151.971 482.916C149.792 487.781 147.437 492.577 145.101 497.39C140.34 507.173 135.422 517.061 132.092 527.454C129.336 536.051 127.575 546.235 130.958 554.902C135.021 565.295 144.037 571.817 154.936 573.666C165.155 575.41 175.339 574.695 185.575 573.439C191.748 572.689 197.904 571.782 204.06 570.928C205.176 570.771 209.623 570.213 204.74 570.823C206.013 570.666 207.269 570.492 208.542 570.335C211.21 570.004 213.895 569.707 216.581 569.463C221.115 569.062 225.684 568.8 230.253 569.01C231.281 569.062 232.31 569.149 233.322 569.236C234.508 569.324 236.199 569.951 231.805 569.01C232.275 569.114 232.746 569.149 233.217 569.236C235.153 569.585 236.914 570.23 238.78 570.806C234.298 569.428 236.931 569.986 238.222 570.754C239.512 571.521 240.593 573.021 237.489 570.021C238.03 570.544 238.64 571.015 239.164 571.556C239.443 571.835 239.687 572.131 239.948 572.428C241.71 574.363 238.1 569.742 239.146 571.364C240.088 572.829 241.012 574.276 241.797 575.846C242.39 577.031 243.366 580.362 241.832 575.724C242.198 576.822 242.669 577.886 243.052 578.984C249.26 596.946 250.01 616.303 255.033 634.578C257.526 643.646 261.153 653.272 268.007 660.004C275.645 667.485 286.596 670.083 296.78 666.77C306.79 663.526 315.178 656.812 322.973 649.942C330.768 643.071 337.761 635.886 345.242 628.946C347.073 627.237 348.921 625.563 350.805 623.923C351.711 623.121 352.636 622.336 353.56 621.569C354.484 620.802 358.53 617.785 354.571 620.697C358.007 618.186 361.442 615.867 365.243 613.949C366.307 613.408 367.877 613.251 363.849 614.507C364.285 614.367 364.703 614.175 365.122 614.018C365.959 613.722 366.796 613.46 367.65 613.251C368.069 613.146 368.487 613.094 368.906 612.989C370.876 612.519 365.069 613.303 367.075 613.234C368.034 613.199 368.958 613.164 369.917 613.199C372.655 613.286 365.924 612.414 369.324 613.164C370.039 613.321 370.737 613.513 371.417 613.739C372.794 614.175 375.41 615.832 371.277 613.565C372.271 614.106 373.335 614.524 374.329 615.065C376.16 616.059 377.939 617.192 379.665 618.395C380.589 619.023 381.479 619.703 382.368 620.366C384.234 621.761 379.7 618.256 381.548 619.721C382.089 620.157 382.612 620.575 383.153 621.011C387.076 624.22 390.808 627.655 394.505 631.143C402.021 638.24 409.258 645.652 417.158 652.296C424.587 658.556 433.236 665.427 443.036 667.415C453.308 669.49 463.788 666.682 470.746 658.539C483.598 643.524 485.342 621.517 488.708 602.84C490.347 593.772 492.23 584.826 495.404 576.159C496.136 574.137 493.922 579.438 494.829 577.502C495.038 577.084 495.212 576.648 495.422 576.229C495.77 575.479 496.154 574.747 496.555 574.032C496.956 573.317 497.34 572.672 497.793 572.009C499.694 569.167 495.509 574.573 497.723 572.079C498.229 571.503 498.787 570.98 499.345 570.457C501.194 568.696 496.049 572.654 498.839 570.91C499.537 570.475 500.287 570.178 500.984 569.777C497.514 571.817 498.194 570.858 499.415 570.457C499.973 570.283 500.514 570.073 501.072 569.917C501.804 569.707 502.536 569.533 503.269 569.376C504.664 569.079 508.099 569.062 503.094 569.306C505.344 569.202 507.576 568.922 509.843 568.905C514.534 568.87 519.225 569.236 523.881 569.725C526.392 569.986 528.903 570.3 531.397 570.614C532.374 570.736 534.885 571.102 530.473 570.492C531.118 570.579 531.746 570.666 532.391 570.754C533.891 570.963 535.39 571.172 536.873 571.381C542.889 572.218 548.905 573.09 554.956 573.753C574.034 575.88 600.593 575.724 607.08 553.036C609.783 543.584 607.464 533.243 604.22 524.245C600.471 513.904 595.518 504.034 590.74 494.146C588.473 489.49 586.276 484.8 584.183 480.056C583.207 477.824 585.474 483.178 584.549 480.946C584.323 480.388 584.096 479.83 583.869 479.289C583.433 478.208 583.015 477.109 582.614 476.011C581.846 473.935 581.149 471.825 580.538 469.68C579.98 467.71 579.597 465.739 579.213 463.734C578.795 461.606 579.562 467.466 579.44 465.321C579.405 464.867 579.353 464.396 579.318 463.943C579.248 462.914 579.248 461.885 579.3 460.857C579.492 457.386 578.551 464.1 579.196 461.449C579.353 460.804 579.51 460.159 579.701 459.514C579.806 459.165 579.998 458.834 580.085 458.485C579.283 462.112 578.708 461.449 579.388 460.246C579.841 459.444 580.294 458.677 580.8 457.909C582.247 455.677 578.306 460.839 580.556 458.276C581.131 457.613 581.742 456.968 582.37 456.357C583.032 455.712 583.712 455.084 584.41 454.474C585.421 453.585 588.909 451.37 584.828 454.038C588.508 451.649 592.013 449.068 595.815 446.853C604.412 441.814 613.358 437.402 622.059 432.571C637.702 423.922 657.93 411.872 658.192 391.608C658.279 384.773 652.106 378.216 645.113 378.53C638.12 378.844 632.139 384.267 632.034 391.608L632.069 391.696Z" fill="#FF4409"/>
<path d="M255.344 270.587C255.344 270.587 241.865 339.974 260.332 344.613C293.953 353.036 285.164 339.224 316.675 283.7" fill="#FAF1E7"/>
<path d="M245.266 267.796C243.644 276.184 242.493 284.694 241.551 293.186C240.051 306.736 239.127 320.739 241.743 334.219C242.876 340.043 245.231 346.286 249.747 350.349C255.415 355.441 263.82 356.401 271.109 357.168C276.829 357.761 282.741 356.941 287.833 354.134C292.925 351.326 296.465 346.67 299.29 341.857C303.057 335.405 305.882 328.412 309.021 321.663C314.165 310.555 319.693 299.656 325.727 289.001C328.43 284.24 327.017 277.352 321.977 274.684C316.938 272.016 310.538 273.359 307.66 278.433C302.377 287.763 297.459 297.302 292.872 306.997C289.821 313.45 286.996 320.024 283.822 326.406C282.688 328.691 281.503 330.958 280.108 333.103C279.846 333.504 279.584 333.888 279.305 334.289C277.945 336.277 280.962 332.318 279.881 333.574C279.253 334.306 278.643 335.021 277.928 335.666C277.056 336.468 275.539 337.061 278.782 335.073C278.468 335.265 278.172 335.509 277.841 335.719C277.509 335.928 277.178 336.085 276.864 336.277C274.911 337.358 279.846 335.283 277.684 335.928C276.916 336.155 276.167 336.346 275.382 336.521C273.481 336.939 278.8 336.259 276.393 336.364C275.853 336.381 275.295 336.434 274.754 336.434C273.638 336.434 272.539 336.381 271.441 336.277C270.429 336.172 268.197 335.701 272.225 336.416C271.388 336.277 270.551 336.155 269.714 335.998C268.389 335.753 267.064 335.474 265.738 335.161C264.866 334.969 263.994 334.777 263.123 334.533C262.948 334.48 262.756 334.411 262.582 334.376C261.065 334.044 265.285 335.771 264.134 335.056C263.803 334.847 263.419 334.603 263.07 334.428C263.838 334.812 265.424 336.468 264.047 335.091C263.768 334.812 263.524 334.463 263.245 334.201C265.825 336.713 264.483 335.893 263.803 334.742C263.541 334.306 263.332 333.853 263.105 333.417C262.146 331.621 264.169 336.242 263.489 334.323C263.07 333.138 262.687 331.934 262.39 330.696C262.094 329.458 261.85 328.203 261.64 326.947C261.204 324.209 261.85 328.865 261.71 327.523C261.623 326.703 261.518 325.866 261.448 325.046C261.187 321.977 261.082 318.908 261.082 315.839C261.082 309.387 261.518 302.934 262.146 296.517C262.477 293.239 262.861 289.96 263.28 286.682C263.489 284.99 262.861 289.699 263.105 288.024C263.157 287.676 263.21 287.327 263.245 286.978C263.349 286.193 263.471 285.426 263.576 284.641C263.75 283.438 263.942 282.235 264.134 281.049C264.535 278.503 264.954 275.94 265.442 273.411C266.488 268.057 263.942 261.867 258.135 260.541C252.956 259.356 246.382 262.111 245.266 267.848V267.796Z" fill="#FF4409"/>
<path d="M353.21 287.204C353.21 287.204 339.73 356.592 358.197 361.231C391.818 369.653 383.029 355.842 414.541 300.318" fill="#FAF1E7"/>
<path d="M343.113 284.415C341.491 292.803 340.34 301.313 339.399 309.805C337.899 323.355 336.975 337.358 339.591 350.838C340.724 356.662 343.078 362.905 347.595 366.968C353.262 372.06 361.668 373.019 368.957 373.787C374.677 374.38 380.588 373.56 385.68 370.752C390.772 367.945 394.313 363.289 397.138 358.476C400.904 352.024 403.729 345.031 406.868 338.282C412.012 327.174 417.541 316.275 423.574 305.62C426.277 300.859 424.865 293.971 419.825 291.303C414.785 288.635 408.385 289.978 405.508 295.052C400.224 304.382 395.306 313.921 390.72 323.616C387.668 330.069 384.843 336.643 381.67 343.025C380.536 345.31 379.35 347.577 377.955 349.722C377.694 350.123 377.432 350.506 377.153 350.908C375.793 352.896 378.81 348.937 377.729 350.193C377.101 350.925 376.49 351.64 375.775 352.285C374.904 353.087 373.386 353.68 376.63 351.692C376.316 351.884 376.019 352.128 375.688 352.338C375.357 352.547 375.026 352.704 374.712 352.896C372.759 353.977 377.694 351.902 375.531 352.547C374.764 352.773 374.014 352.965 373.229 353.14C371.329 353.558 376.647 352.878 374.241 352.983C373.7 353 373.142 353.052 372.602 353.052C371.485 353.052 370.387 353 369.288 352.896C368.277 352.791 366.045 352.32 370.073 353.035C369.236 352.896 368.399 352.773 367.562 352.617C366.237 352.372 364.911 352.093 363.586 351.779C362.714 351.588 361.842 351.396 360.97 351.152C360.796 351.099 360.604 351.03 360.43 350.995C358.912 350.663 363.133 352.39 361.982 351.675C361.65 351.466 361.267 351.221 360.918 351.047C361.685 351.431 363.272 353.087 361.895 351.71C361.615 351.431 361.371 351.082 361.092 350.82C363.673 353.331 362.33 352.512 361.65 351.361C361.389 350.925 361.179 350.472 360.953 350.036C359.994 348.239 362.016 352.861 361.336 350.942C360.918 349.757 360.534 348.553 360.238 347.315C359.941 346.077 359.697 344.822 359.488 343.566C359.052 340.828 359.697 345.484 359.558 344.141C359.47 343.322 359.366 342.485 359.296 341.665C359.035 338.596 358.93 335.527 358.93 332.458C358.93 326.005 359.366 319.553 359.994 313.136C360.325 309.857 360.709 306.579 361.127 303.301C361.336 301.609 360.709 306.317 360.953 304.643C361.005 304.295 361.057 303.946 361.092 303.597C361.197 302.812 361.319 302.045 361.424 301.26C361.598 300.057 361.79 298.854 361.982 297.668C362.383 295.122 362.801 292.559 363.289 290.03C364.336 284.676 361.79 278.486 355.983 277.16C350.804 275.975 344.229 278.73 343.113 284.467V284.415Z" fill="#FF4409"/>
<path d="M213.146 391.695C213.146 391.695 369.203 487.31 447.676 415.813L213.146 391.695Z" fill="#FAF1E7"/>
<path d="M207.863 400.729C213.181 403.99 218.692 406.937 224.22 409.832C238.519 417.33 253.255 424.044 268.252 430.043C286.65 437.402 305.605 443.54 325.014 447.603C345.714 451.928 367.268 454.282 388.368 451.858C409.469 449.435 430.831 442.355 448.286 428.857C450.623 427.061 452.89 425.195 455.088 423.207C459.151 419.528 459.116 412.099 455.088 408.402C450.745 404.408 444.624 404.478 440.282 408.402C439.358 409.239 438.416 410.076 437.44 410.878C436.986 411.244 436.55 411.628 436.097 411.994C435.835 412.203 435.574 412.413 435.33 412.622C434.022 413.686 437.074 411.314 436.08 412.047C434.109 413.494 432.139 414.941 430.081 416.267C425.983 418.917 421.658 421.254 417.211 423.259C416.671 423.504 416.043 423.887 415.467 424.027C415.223 424.097 417.891 423.033 416.862 423.434C416.566 423.556 416.269 423.678 415.973 423.8C414.787 424.271 413.602 424.724 412.416 425.16C410.166 425.962 407.899 426.695 405.615 427.357C400.924 428.7 396.163 429.747 391.35 430.514C390.722 430.618 390.077 430.706 389.449 430.81C389.205 430.845 388.978 430.88 388.734 430.915C387.479 431.107 391.35 430.584 390.077 430.741C388.804 430.897 387.514 431.054 386.223 431.177C383.799 431.421 381.375 431.595 378.934 431.717C373.929 431.961 368.924 431.961 363.937 431.752C358.949 431.543 353.84 431.124 348.818 430.531C348.242 430.462 347.667 430.392 347.074 430.322C344.51 429.991 348.852 430.584 347.37 430.374C346.045 430.182 344.72 429.991 343.412 429.799C340.936 429.415 338.477 428.997 336 428.526C316.626 424.899 297.671 419.074 279.273 412.029C275.088 410.425 270.938 408.733 266.787 407.007C265.776 406.588 268.601 407.774 268.304 407.652C268.043 407.547 267.781 407.425 267.52 407.321C266.996 407.094 266.491 406.885 265.968 406.658C264.956 406.222 263.945 405.786 262.933 405.333C261.102 404.531 259.271 403.711 257.44 402.874C250.953 399.927 244.536 396.823 238.188 393.562C231.579 390.179 225.179 386.499 218.709 382.855C218.622 382.802 218.535 382.75 218.448 382.698C213.774 379.838 206.729 381.529 204.131 386.447C201.533 391.365 202.893 397.712 207.88 400.764L207.863 400.729Z" fill="#FF4409"/>
<path d="M443.249 383.254C442.499 393.508 441.906 404.459 446.998 413.405C451.846 421.898 461.211 427.077 470.819 428.943C480.428 430.809 490.333 429.78 500.011 428.419" fill="#FAF1E7"/>
<path d="M408.784 383.255C407.842 396.404 407.755 410.895 416.126 421.899C425.054 433.652 438.586 439.11 453.025 440.227C461.657 440.889 470.272 439.686 478.799 438.5C481.206 438.169 483.891 435.675 485.06 433.687C486.368 431.438 486.926 428.142 486.106 425.631C485.287 423.119 483.717 420.661 481.293 419.37C478.625 417.958 476.184 417.905 473.237 418.324C472.679 418.411 472.121 418.481 471.58 418.551C472.975 418.359 473.062 418.341 471.859 418.498C470.882 418.603 469.906 418.742 468.929 418.847C466.837 419.074 464.744 419.248 462.651 419.37C460.698 419.475 458.745 419.527 456.792 419.475C454.996 419.44 452.677 419.614 450.968 419.109C453.531 419.876 450.671 419.039 450.026 418.934C449.241 418.795 448.474 418.62 447.707 418.446C446.225 418.08 444.742 417.644 443.295 417.121C442.876 416.964 442.475 416.824 442.057 416.65C443.539 417.295 443.766 417.382 442.737 416.929C442.144 416.65 441.551 416.371 440.958 416.074C439.511 415.324 438.116 414.487 436.773 413.546C434.645 412.046 438.081 414.801 436.581 413.389C435.953 412.796 435.291 412.255 434.68 411.627C434.227 411.174 433.808 410.668 433.372 410.215C432.675 409.36 432.814 409.57 433.791 410.825C433.529 410.477 433.285 410.128 433.041 409.779C432.675 409.238 432.344 408.68 432.012 408.122C431.768 407.704 431.541 407.268 431.315 406.832C430.826 405.786 430.879 405.96 431.472 407.355C430.634 406.117 430.286 403.955 429.954 402.542C429.763 401.722 429.64 400.885 429.466 400.048C429.344 399.246 429.379 399.577 429.588 401.025C429.536 400.537 429.484 400.048 429.431 399.56C429.274 397.834 429.205 396.125 429.187 394.398C429.152 390.684 429.414 386.97 429.675 383.273C430.076 377.797 424.583 372.565 419.212 372.809C413.213 373.071 409.168 377.413 408.749 383.273L408.784 383.255Z" fill="#FF4409"/>
<path d="M315.964 357.446C303.6 349.861 287.086 342.379 275.698 351.36C265.34 359.521 267.572 377.082 277.058 386.22C286.545 395.357 300.496 397.956 313.644 398.88" fill="#FAF1E7"/>
<path d="M321.246 348.413C312.039 342.781 302.081 338.09 291.235 336.974C280.388 335.858 269.21 340.688 263.019 350.035C257.718 358.039 257.247 369.13 260.212 378.076C263.49 387.946 270.274 395.776 279.359 400.798C289.857 406.605 301.837 408.489 313.643 409.343C319.119 409.744 324.35 404.251 324.106 398.88C323.845 392.881 319.503 388.836 313.643 388.417C311.708 388.278 309.754 388.103 307.836 387.894C307.383 387.842 306.546 387.563 306.127 387.685C306.319 387.632 308.726 388.086 306.86 387.772C305.726 387.58 304.593 387.406 303.459 387.179C302.5 386.987 292.246 384.092 292.299 383.988C292.403 383.831 294.391 384.947 292.944 384.249C292.438 384.005 291.932 383.779 291.427 383.517C290.624 383.116 289.84 382.697 289.072 382.244C288.2 381.738 287.363 381.198 286.526 380.622C286.16 380.378 285.811 380.064 285.445 379.837L286.509 380.64C286.16 380.361 285.811 380.064 285.48 379.768C284.87 379.227 284.259 378.652 283.701 378.059C283.44 377.78 283.213 377.501 282.951 377.222C281.835 376.053 283.457 377.884 283.527 378.024C282.725 376.542 281.626 375.234 280.859 373.699C280.702 373.403 280.562 372.967 280.371 372.67C281.731 374.745 280.998 374.292 280.684 373.333C280.44 372.618 280.196 371.903 279.987 371.17C279.76 370.351 279.603 369.531 279.412 368.694C279.22 367.857 279.464 367.038 279.534 369.81C279.534 369.252 279.411 368.694 279.377 368.154C279.289 366.671 279.464 365.241 279.499 363.777C279.394 367.072 279.394 364.771 279.673 363.655C279.882 362.887 280.231 362.155 280.423 361.388C279.795 363.934 279.638 363.062 280.144 362.207C280.318 361.911 280.475 361.579 280.667 361.283C280.859 360.986 281.068 360.69 281.243 360.394C281.87 359.243 279.412 362.434 280.737 361.039C281.243 360.516 281.748 360.01 282.254 359.487C282.812 358.911 283.475 358.964 281.504 360.01C282.062 359.713 282.585 359.26 283.126 358.946C283.492 358.737 283.876 358.545 284.242 358.336C285.079 357.882 285.41 358.301 283.475 358.65C284.259 358.51 285.062 358.109 285.846 357.935C286.056 357.882 286.84 357.83 287.067 357.691C285.759 358.493 284.922 357.917 286.457 357.813C287.398 357.743 288.357 357.743 289.299 357.778C289.84 357.795 290.363 357.865 290.903 357.9C292.229 357.987 288.497 357.464 290.398 357.83C291.496 358.039 292.595 358.266 293.676 358.545C295.908 359.138 298.018 360.132 300.216 360.777C299.971 360.707 298.001 359.783 299.658 360.568C300.303 360.864 300.948 361.161 301.576 361.457C302.639 361.963 303.686 362.504 304.715 363.062C306.738 364.143 308.726 365.294 310.679 366.497C315.352 369.357 322.397 367.665 324.996 362.748C327.594 357.83 326.234 351.482 321.246 348.431V348.413Z" fill="#FF4409"/>
</svg>
