<svg width="64" height="104" viewBox="0 0 64 104" fill="none" xmlns="http://www.w3.org/2000/svg">
<path d="M0 0H63.7302V103.889L31.8651 87.1326L0 103.889V0Z" fill="#FF4409"/>
<path d="M22.3327 58.0635V54.3885L31.7827 45.4635C32.5294 44.7868 33.0777 44.1801 33.4277 43.6435C33.7777 43.1068 34.0111 42.6168 34.1277 42.1735C34.2677 41.7301 34.3377 41.3218 34.3377 40.9485C34.3377 39.9685 33.9994 39.2218 33.3227 38.7085C32.6694 38.1718 31.7011 37.9035 30.4177 37.9035C29.3911 37.9035 28.4344 38.1018 27.5477 38.4985C26.6844 38.8951 25.9494 39.5135 25.3427 40.3535L21.2127 37.6935C22.1461 36.2935 23.4527 35.1851 25.1327 34.3685C26.8127 33.5518 28.7494 33.1435 30.9427 33.1435C32.7627 33.1435 34.3494 33.4468 35.7027 34.0535C37.0794 34.6368 38.1411 35.4651 38.8877 36.5385C39.6577 37.6118 40.0427 38.8951 40.0427 40.3885C40.0427 41.1818 39.9377 41.9751 39.7277 42.7685C39.5411 43.5385 39.1444 44.3551 38.5377 45.2185C37.9544 46.0818 37.0911 47.0501 35.9477 48.1235L28.1077 55.5085L27.0227 53.4435H40.8477V58.0635H22.3327Z" fill="white"/>
</svg>
