<svg width="319" height="122" viewBox="0 0 319 122" fill="none" xmlns="http://www.w3.org/2000/svg">
<path d="M182.211 1.8584H132.211V34.7207H182.211V1.8584Z" fill="#FF4409"/>
<path d="M109.53 1.85834H145.31C153.14 1.85834 159.49 8.64855 159.49 16.9976V104.15C159.49 112.51 153.13 119.29 145.31 119.29H109.49V1.89027C109.49 1.89027 109.51 1.84766 109.53 1.84766V1.85834Z" fill="#FF4409"/>
<path d="M181.08 1.8584H188.49C200.08 1.8584 209.49 11.905 209.49 24.2791V38.1586C209.49 50.5327 200.08 60.5794 188.49 60.5794H181.08C169.16 60.5794 159.49 50.2551 159.49 37.5286V24.909C159.49 12.1826 169.16 1.8584 181.08 1.8584Z" fill="#FF4409"/>
<path d="M159.49 60.5791H209.49V119.3H189.4C172.89 119.3 159.49 104.993 159.49 87.3665V60.5791Z" fill="#FF4409"/>
<path d="M173.68 28.8799H173.67C165.839 28.8799 159.49 35.6581 159.49 44.0193V72.4616C159.49 80.8228 165.839 87.6008 173.67 87.6008H173.68C181.512 87.6008 187.86 80.8228 187.86 72.4616V44.0193C187.86 35.6581 181.512 28.8799 173.68 28.8799Z" fill="#FF4409"/>
<path d="M161.49 27.6943H157.49V67.1975H161.49V27.6943Z" fill="#FAF1E7"/>
<path d="M14.1997 70.0488H35.8297C43.6597 70.0488 50.0098 76.839 50.0098 85.1881V96.879C50.0098 109.253 40.5998 119.3 29.0098 119.3H0.00976562V85.1881C0.00976562 76.8284 6.3697 70.0488 14.1897 70.0488H14.1997Z" fill="#FF4409"/>
<path d="M64.1997 70.0488H85.8297C93.6597 70.0488 100.01 76.839 100.01 85.1881V119.3H71.0098C59.4198 119.3 50.0098 109.253 50.0098 96.879V85.1881C50.0098 76.8284 56.3697 70.0488 64.1897 70.0488H64.1997Z" fill="#FF4409"/>
<path d="M0.0100098 1.8584H25.4C28.96 1.8584 31.84 4.94386 31.84 8.73403V84.0677C31.84 92.7157 25.27 99.7301 17.17 99.7301H14.67C6.57004 99.7301 0 92.7157 0 84.0677V1.8584H0.0100098Z" fill="#FF4409"/>
<path d="M34.8496 16.8477H65.1796V90.9536C65.1796 95.8007 61.4896 99.7296 56.9596 99.7296H43.0796C38.5396 99.7296 34.8596 95.79 34.8596 90.9536V16.8477H34.8496Z" fill="#FF4409"/>
<path d="M54.2396 1.8584H45.7897C39.7477 1.8584 34.8496 7.08771 34.8496 13.5385V35.9058C34.8496 42.3565 39.7477 47.586 45.7897 47.586H54.2396C60.2816 47.586 65.1796 42.3565 65.1796 35.9058V13.5385C65.1796 7.08771 60.2816 1.8584 54.2396 1.8584Z" fill="#FF4409"/>
<path d="M75.1794 1.8584H100.01V83.4698C100.01 92.4381 93.1896 99.7195 84.7896 99.7195H83.4095C75.0095 99.7195 68.1895 92.4381 68.1895 83.4698V9.33198C68.1895 5.21083 71.3295 1.8584 75.1895 1.8584H75.1794Z" fill="#FF4409"/>
<path d="M31.3496 1.8584H35.3496V68.9818C35.3496 69.569 34.8996 70.0494 34.3496 70.0494H32.3496C31.7996 70.0494 31.3496 69.569 31.3496 68.9818V1.8584Z" fill="#FAF1E7"/>
<path d="M64.6797 1.8584H68.6797V68.9818C68.6797 69.569 68.2297 70.0494 67.6797 70.0494H65.6797C65.1297 70.0494 64.6797 69.569 64.6797 68.9818V1.8584Z" fill="#FAF1E7"/>
<path d="M50.2589 92.2129C50.8189 95.7575 51.279 99.6971 51.669 103.284C51.859 105.473 52.1289 108.527 52.4789 110.662C52.8789 114.548 52.1489 118.114 50.2589 121.733H49.7589C48.3789 119.278 47.8389 116.812 47.5089 114.356C47.1489 111.879 47.7989 109.423 48.0089 106.978L48.3489 103.284C48.7489 99.6971 49.1989 95.7682 49.7589 92.2129H50.2589Z" fill="#FAF1E7"/>
<path d="M304.79 51.1191L283.16 51.1191C275.33 51.1191 268.98 44.3289 268.98 35.9799V24.289C268.98 11.9149 278.39 1.86826 289.98 1.86826L318.98 1.86826V35.9799C318.98 44.3396 312.62 51.1191 304.8 51.1191H304.79Z" fill="#FF4409"/>
<path d="M254.79 51.1191L233.16 51.1191C225.33 51.1191 218.98 44.3289 218.98 35.9799V1.86826L247.98 1.86826C259.57 1.86826 268.98 11.9149 268.98 24.289V35.9799C268.98 44.3396 262.62 51.1191 254.8 51.1191H254.79Z" fill="#FF4409"/>
<path d="M318.97 119.311H293.58C290.02 119.311 287.141 116.225 287.141 112.435V37.1012C287.141 28.4532 293.71 21.4387 301.81 21.4387H304.31C312.41 21.4387 318.98 28.4532 318.98 37.1012V119.311H318.97Z" fill="#FF4409"/>
<path d="M284.141 104.321H253.811V30.2149C253.811 25.3678 257.501 21.4388 262.031 21.4388H275.911C280.451 21.4388 284.131 25.3784 284.131 30.2149V104.321H284.141Z" fill="#FF4409"/>
<path d="M264.751 119.3H273.201C279.243 119.3 284.141 114.07 284.141 107.62V85.2523C284.141 78.8015 279.243 73.5721 273.201 73.5721H264.751C258.709 73.5721 253.811 78.8015 253.811 85.2523V107.62C253.811 114.07 258.709 119.3 264.751 119.3Z" fill="#FF4409"/>
<path d="M243.799 119.311H218.969V37.6991C218.969 28.7309 225.789 21.4494 234.189 21.4494H235.569C243.969 21.4494 250.789 28.7309 250.789 37.6991V111.837C250.789 115.958 247.649 119.311 243.789 119.311H243.799Z" fill="#FF4409"/>
<path d="M283.629 119.311H287.629V51.1195H283.629V119.311Z" fill="#FAF1E7"/>
<path d="M250.311 119.311H254.311V51.1195H250.311V119.311Z" fill="#FAF1E7"/>
<path d="M268.721 29.5205C268.151 25.9759 267.7 22.0363 267.31 18.449C267.12 16.2603 266.851 13.2069 266.501 11.0716C266.101 7.18531 266.831 3.61935 268.721 0H269.221C270.601 2.4556 271.141 4.92179 271.471 7.37739C271.831 9.85435 271.181 12.31 270.971 14.7549L270.631 18.449C270.231 22.0363 269.781 25.9652 269.221 29.5205H268.721Z" fill="#FAF1E7"/>
</svg>
