<svg width="624" height="596" viewBox="0 0 624 596" fill="none" xmlns="http://www.w3.org/2000/svg">
<path d="M609.891 298.061C609.891 326.248 534.068 342.089 525.819 367.514C517.268 393.878 568.982 451.211 553.029 473.14C536.905 495.295 466.287 463.726 444.132 479.849C422.203 495.821 430.49 572.81 404.144 581.36C378.719 589.609 340.272 522.712 312.104 522.712C283.936 522.712 245.488 589.609 220.064 581.36C193.699 572.81 202.005 495.803 180.075 479.849C157.92 463.726 87.3023 495.295 71.1792 473.14C55.2065 451.211 106.939 393.859 98.3892 367.514C90.1397 342.089 14.3164 326.229 14.3164 298.061C14.3164 269.892 90.1397 254.032 98.3892 228.608C106.939 202.243 55.2253 144.911 71.1792 122.981C87.3023 100.826 157.92 132.396 180.075 116.273C202.005 100.3 193.718 23.3115 220.064 14.7614C245.488 6.51195 283.936 73.4094 312.104 73.4094C340.272 73.4094 378.719 6.51195 404.144 14.7614C430.509 23.3115 422.203 100.319 444.132 116.273C466.287 132.396 536.905 100.826 553.029 122.981C569.001 144.911 517.268 202.262 525.819 228.608C534.068 254.032 609.891 269.892 609.891 298.061Z" fill="#FAF1E7"/>
<path d="M595.798 298.058C595.798 298.472 595.76 298.885 595.742 299.298C595.742 301.384 596.55 295.146 596.024 297.175C595.817 297.983 595.629 298.772 595.404 299.562C594.614 302.267 597.302 295.747 595.667 298.904C595.197 299.825 594.633 300.67 594.069 301.535C592.472 303.977 596.587 298.622 594.577 300.896C593.938 301.629 593.299 302.361 592.604 303.057C591.006 304.692 589.259 306.139 587.511 307.604C585.763 309.07 590.537 305.368 588.601 306.759C588.206 307.04 587.831 307.322 587.455 307.604C586.59 308.224 585.707 308.845 584.824 309.446C582.625 310.93 580.37 312.34 578.096 313.711C573.624 316.38 569.039 318.879 564.435 321.341C555.322 326.208 546.038 330.868 537.319 336.449C528.6 342.03 520.144 348.25 515.127 357.101C503.72 377.32 517.025 402.181 525.913 420.635C528.318 425.652 530.799 430.632 533.166 435.649C534.313 438.092 535.44 440.535 536.511 443.015C536.68 443.41 536.849 443.823 537.037 444.218C538.09 446.623 535.647 440.835 536.624 443.241C537.169 444.612 537.733 445.984 538.24 447.356C539.856 451.659 541.134 456 541.998 460.51C542.243 461.825 541.923 463.479 541.773 458.781C541.773 459.27 541.886 459.758 541.904 460.247C541.98 461.186 541.998 462.145 541.979 463.084C541.942 464.926 540.833 467.312 542.205 462.445C541.979 463.272 541.886 464.118 541.623 464.945C540.57 468.29 543.37 461.863 541.923 464.249C540.965 465.847 539.255 466.918 542.524 463.817C541.923 464.381 541.359 465.02 540.777 465.621C539.349 467.087 544.065 463.385 542.318 464.456C541.961 464.682 541.604 464.945 541.247 465.151C540.495 465.602 539.687 465.941 538.916 466.354C543.37 463.874 540.833 465.565 539.255 466.035C538.315 466.316 537.357 466.542 536.417 466.749C535.91 466.843 535.421 466.918 534.914 467.031C532.697 467.482 539.292 466.598 536.041 466.88C525.988 467.745 515.953 466.655 505.994 465.339C504.942 465.208 502.236 464.813 506.99 465.471C506.295 465.377 505.618 465.283 504.923 465.189C503.777 465.039 502.612 464.87 501.465 464.7C497.463 464.137 493.441 463.592 489.439 463.047C484.102 462.333 478.765 461.675 473.41 461.28C463.788 460.566 453.247 460.491 444.152 464.118C438.984 466.185 434.23 468.947 430.603 473.269C426.657 477.967 424.139 482.834 421.809 488.472C418.069 497.529 416.209 507.301 414.442 516.903C412.563 527.163 411.003 537.517 408.579 547.683C407.508 552.212 406.193 556.647 404.577 561.025C404.163 562.134 403.074 563.881 405.197 559.616C404.971 560.067 404.783 560.555 404.558 561.025C404.145 561.927 403.694 562.81 403.205 563.694C402.829 564.389 402.416 565.065 402.002 565.742C401.758 566.136 401.495 566.493 401.232 566.888C399.635 569.312 403.487 564.295 402.078 565.798C401.495 566.418 400.95 567.076 400.33 567.659C397.793 570.045 403.299 565.798 400.95 567.264C400.33 567.659 399.672 567.997 399.052 568.373C397.981 569.012 396.741 568.636 401.138 567.508C400.612 567.64 400.123 567.865 399.597 568.016C399.202 568.11 398.789 568.166 398.394 568.279C402.604 567.001 401.983 567.94 400.518 567.959C399.691 567.959 398.864 567.959 398.037 567.922C395.914 567.865 402.171 568.692 400.086 568.185C399.653 568.072 399.221 568.016 398.789 567.903C397.906 567.677 397.041 567.396 396.177 567.095C394.993 566.719 393.603 565.648 397.774 567.809C397.342 567.583 396.872 567.414 396.421 567.189C395.501 566.738 394.58 566.249 393.696 565.742C391.686 564.596 389.731 563.299 387.852 561.946C386.856 561.232 383.662 558.545 387.608 561.815C386.65 561.025 385.673 560.255 384.714 559.466C382.553 557.662 380.43 555.782 378.344 553.884C370.189 546.443 362.484 538.551 354.291 531.147C346.549 524.156 338.262 516.959 328.641 512.713C323.229 510.326 317.685 508.503 311.653 508.635C305.621 508.766 300.097 510.57 294.609 513.107C284.782 517.655 276.288 525.246 268.377 532.5C260.259 539.941 252.554 547.852 244.342 555.2C242.576 556.778 240.791 558.338 238.968 559.841C238.01 560.631 234.233 563.449 238.442 560.33C237.333 561.157 236.243 561.984 235.116 562.773C233.462 563.919 231.771 565.009 230.005 566.005C229.103 566.494 228.201 566.944 227.28 567.396C226.096 567.978 224.593 567.997 228.858 566.757C228.257 566.926 227.693 567.208 227.092 567.396C226.228 567.677 225.363 567.865 224.499 568.091C221.642 568.786 228.877 567.809 225.288 567.959C224.593 567.997 223.916 567.922 223.221 567.922C221.135 567.884 227.355 568.767 225.363 568.185C224.837 568.034 224.311 567.903 223.785 567.771C221.116 567.057 227.58 569.726 224.574 568.072C223.86 567.677 223.221 567.189 222.544 566.757C226.697 569.35 224.63 568.41 223.522 567.339C222.356 566.212 220.628 563.186 223.446 567.583C222.432 566.005 221.361 564.483 220.477 562.81C220.008 561.908 219.613 560.988 219.162 560.067C218.298 558.282 220.083 562.171 219.97 561.984C219.613 561.42 219.425 560.612 219.2 559.973C217.565 555.576 216.343 551.009 215.291 546.443C210.537 525.829 209.334 504.162 200.728 484.619C196.406 474.81 189.265 467.519 179.174 463.761C169.91 460.322 159.18 460.566 149.483 461.374C142.944 461.901 136.442 462.802 129.959 463.686C127.31 464.043 124.66 464.419 122.01 464.794C120.639 464.982 119.248 465.17 117.876 465.377C115.151 465.753 121.597 464.888 118.872 465.245C117.97 465.358 117.049 465.49 116.147 465.602C110.905 466.26 105.662 466.843 100.381 467.087C98.164 467.2 95.9467 467.237 93.7293 467.2C92.583 467.181 91.4555 467.124 90.3092 467.049C88.6744 466.937 84.39 465.809 89.7643 467.087C87.9979 466.655 86.1939 466.448 84.4463 465.884C83.9953 465.753 83.5631 465.565 83.1309 465.433C81.0638 464.794 86.7201 467.162 84.8222 466.166C83.9202 465.678 83.0369 465.208 82.1725 464.682C79.786 463.216 85.2356 467.482 82.7364 465.039C82.4357 464.738 82.1726 464.419 81.8719 464.137C80.425 462.709 84.0705 467.425 83.0558 465.659C82.7175 465.057 82.3605 464.456 82.0035 463.874C80.9511 462.107 83.3564 467.688 82.7738 465.715C82.6235 465.17 82.4169 464.663 82.2666 464.118C82.1538 463.704 82.0974 463.272 81.9846 462.859C81.4585 460.773 82.3417 467.031 82.2477 464.87C82.2102 463.949 82.1162 463.047 82.135 462.126C82.135 461.318 82.2102 460.529 82.2477 459.74C82.3229 458.481 82.9806 456.677 81.9658 461.506C82.0974 460.829 82.1725 460.134 82.3041 459.458C83.1685 454.91 84.653 450.475 86.3255 446.153C86.7765 444.969 87.2838 443.786 87.7536 442.602C85.8369 447.469 87.6597 442.865 88.1483 441.756C89.2382 439.276 90.3845 436.814 91.5495 434.371C94.03 429.128 96.6043 423.942 99.1036 418.718C103.895 408.683 108.913 398.348 111.543 387.487C114.08 377.076 114.381 365.764 108.556 356.33C103.106 347.517 94.4246 341.166 85.7805 335.754C76.9674 330.248 67.6468 325.569 58.4954 320.664C53.7412 318.109 49.0057 315.515 44.4018 312.697C42.5039 311.532 40.6248 310.329 38.7832 309.07C37.8249 308.412 36.8853 307.736 35.9457 307.059C35.0061 306.383 33.5404 304.842 36.998 307.905C36.4531 307.416 35.8518 307.003 35.288 306.533C33.8411 305.312 32.4317 304.034 31.1163 302.662C30.4398 301.967 29.8384 301.215 29.1995 300.501C27.7526 298.866 31.4357 303.696 30.2707 301.873C29.9512 301.366 29.5942 300.896 29.2748 300.388C28.8238 299.655 28.4667 298.866 28.0345 298.096C27.264 296.724 28.9553 300.313 28.9553 300.294C29.0117 300.088 28.617 299.336 28.5419 299.111C28.2976 298.321 28.1849 297.513 27.9782 296.724C29.2748 301.666 28.2976 299.148 28.3164 297.194C28.3164 294.356 27.4144 301.535 28.2225 298.115C28.3916 297.382 28.6922 296.668 28.8989 295.954C29.2935 294.469 27.0949 299.749 28.0533 297.964C28.26 297.588 28.4291 297.194 28.6358 296.818C29.1432 295.897 29.7257 295.07 30.2895 294.187C31.4545 292.383 27.7714 297.194 29.2183 295.559C29.5378 295.202 29.8384 294.826 30.1391 294.469C30.7968 293.736 31.4921 293.022 32.1874 292.327C33.7095 290.842 35.4007 289.564 36.998 288.155C33.0706 291.613 36.2463 288.756 37.3362 287.986C38.2946 287.31 39.2718 286.633 40.2677 285.994C42.3348 284.641 44.4207 283.326 46.5629 282.067C51.054 279.398 55.6579 276.899 60.2618 274.456C69.5447 269.514 78.9781 264.76 87.7912 259.028C95.9279 253.729 104.816 247.19 109.364 238.302C114.513 228.248 113.93 217.067 110.942 206.412C107.954 195.758 102.787 185.065 97.8634 174.862C95.4393 169.863 92.9776 164.883 90.6286 159.847C89.4824 157.405 88.3738 154.962 87.3026 152.5C86.8892 151.542 85.9872 149.118 87.6972 153.458C87.4529 152.857 87.2087 152.274 86.9644 151.673C86.4195 150.32 85.8933 148.967 85.4047 147.595C83.845 143.311 82.8491 139.027 81.9095 134.573C82.9994 139.797 82.1914 136.79 82.1162 135.362C82.0598 134.423 82.041 133.483 82.0786 132.543C82.0974 132.092 82.1537 131.641 82.1725 131.19C82.2665 129.029 81.3834 135.287 81.9095 133.201C82.1538 132.243 82.398 131.303 82.6799 130.345C83.2625 128.372 80.8572 133.953 81.9095 132.186C82.1162 131.829 82.2854 131.454 82.5109 131.097C84.1645 128.372 80.7444 132.957 81.778 131.923C82.3605 131.341 83.0182 130.777 83.5632 130.176C80.8196 133.164 80.8383 132.111 82.0598 131.36C82.5483 131.059 83.0182 130.739 83.5256 130.476C83.9202 130.27 84.3148 130.082 84.7094 129.875C86.5886 128.86 80.9511 131.247 83.0182 130.608C83.7698 130.382 84.5027 130.101 85.2543 129.875C86.2127 129.612 87.1711 129.387 88.1295 129.199C88.6368 129.105 89.163 129.067 89.6516 128.936C84.7846 130.101 87.1335 129.255 88.5428 129.123C98.5774 128.146 108.8 129.499 118.741 130.815C121.465 131.172 115.02 130.307 117.745 130.683C118.44 130.777 119.116 130.871 119.812 130.965C121.202 131.153 122.574 131.36 123.965 131.548C127.742 132.074 131.519 132.6 135.296 133.088C140.614 133.784 145.932 134.441 151.287 134.817C162.262 135.588 173.593 135.099 183.665 130.345C193.737 125.591 198.83 116.233 202.626 106.63C209.992 87.9327 210.894 67.2057 215.61 47.7942C216.719 43.1903 218.128 38.7368 219.763 34.3208C220.346 32.7611 218.11 38.0039 219.049 35.9932C219.275 35.5234 219.463 35.0537 219.688 34.6027C220.12 33.7195 220.571 32.8363 221.06 31.9719C221.548 31.1075 222.018 30.3558 222.544 29.5853C224.63 26.5223 220.083 32.3289 222.526 29.6417C222.995 29.1155 223.503 28.6458 224.01 28.1572C226.002 26.2029 220.534 30.4874 223.428 28.627C224.104 28.1948 224.837 27.8753 225.532 27.4807C221.267 29.9236 223.428 28.4391 225.25 27.9129C227.242 27.3492 221.041 28.2323 223.108 28.176C223.446 28.176 223.785 28.1384 224.123 28.1196C224.893 28.1196 225.645 28.2136 226.415 28.2323C221.229 28.1384 223.954 27.8565 225.664 28.3075C226.716 28.5894 227.693 29.0216 228.745 29.3411C223.822 27.8942 227.092 28.627 228.52 29.3411C229.29 29.7357 230.061 30.1679 230.813 30.6001C232.917 31.8403 234.947 33.2121 236.901 34.659C237.39 35.0161 237.859 35.3731 238.329 35.7302C234.552 32.9302 236.582 34.3772 237.39 35.0349C238.367 35.8241 239.344 36.6322 240.302 37.4402C242.313 39.1314 244.267 40.879 246.203 42.6642C254.339 50.1244 262.044 58.0167 270.256 65.4017C278.994 73.2566 288.22 80.6792 299.251 85.0012C309.793 89.1353 320.448 87.3689 330.369 82.5396C340.291 77.7102 348.353 70.3251 356.17 63.128C363.987 55.9309 371.974 47.7754 380.186 40.4468C382.102 38.7367 384.038 37.0644 386.048 35.4483C386.518 35.0537 387.026 34.6778 387.495 34.302C383.925 37.271 385.71 35.6738 386.556 35.0349C387.495 34.3396 388.435 33.6631 389.393 32.9866C391.179 31.7651 393.039 30.6001 394.956 29.5853C395.839 29.1155 396.778 28.7397 397.662 28.2887C393.039 30.694 395.952 29.0028 397.399 28.5706C398.263 28.3076 399.127 28.1384 399.992 27.9317C402.078 27.4244 395.82 28.27 397.943 28.1948C398.357 28.1948 398.77 28.1384 399.202 28.1196C401.157 28.082 402.904 29.2283 398.319 27.8377C399.202 28.1008 400.161 28.3639 401.063 28.5894C396.91 27.5371 398.263 27.2928 399.86 28.2136C401.457 29.1344 402.622 31.0323 399.334 27.6311C399.916 28.2324 400.593 28.7398 401.157 29.3411C401.457 29.6605 401.72 29.9988 402.021 30.2994C403.43 31.8027 399.56 26.7854 401.176 29.2095C402.134 30.6753 403.055 32.141 403.844 33.7007C404.295 34.6026 404.671 35.561 405.141 36.463C402.698 31.5396 404.802 35.7301 405.272 37.1019C406.85 41.5743 408.034 46.197 409.087 50.8197C411.379 61.061 412.92 71.4338 414.874 81.7315C416.829 92.0292 419.253 102.233 423.594 111.892C427.934 121.551 435.489 129.029 445.805 132.581C455.257 135.832 466.119 135.419 475.928 134.554C482.373 133.972 488.781 133.088 495.189 132.205C497.838 131.848 500.488 131.472 503.138 131.097C504.397 130.927 505.674 130.758 506.933 130.57C501.54 131.322 507.366 130.514 508.662 130.364C513.886 129.706 519.11 129.161 524.372 128.936C526.758 128.823 529.164 128.804 531.55 128.879C532.678 128.917 533.786 128.973 534.914 129.086C535.271 129.123 535.628 129.161 536.004 129.199C539.255 129.48 532.659 128.597 534.876 129.048C536.812 129.443 538.672 129.875 540.57 130.458C543.408 131.341 536.868 128.597 540.1 130.289C540.871 130.683 541.566 131.172 542.299 131.623C544.047 132.713 539.33 128.992 540.758 130.458C541.04 130.758 541.378 131.021 541.66 131.322C541.942 131.623 542.186 131.98 542.487 132.262C539.424 129.349 540.57 129.556 541.265 130.758C542.167 132.318 542.449 134.554 541.172 129.969C541.416 130.833 541.716 131.698 541.961 132.581C542.844 135.757 541.735 128.654 541.867 131.641C541.904 132.562 541.961 133.483 541.942 134.404C541.923 135.381 541.754 136.339 541.735 137.317C541.904 131.792 541.904 136.02 541.566 137.655C540.589 142.259 539.029 146.712 537.3 151.091C537.056 151.692 536.812 152.274 536.586 152.876C535.609 155.281 538.052 149.493 537 151.899C536.568 152.913 536.117 153.928 535.666 154.924C534.463 157.611 533.204 160.28 531.945 162.948C529.54 167.965 527.078 172.964 524.673 177.981C516.123 195.908 503.401 220.901 515.728 240.105C521.478 249.05 530.367 255.458 539.311 260.964C548.256 266.47 557.558 271.093 566.728 276.035C571.087 278.384 575.428 280.789 579.656 283.382C581.723 284.641 583.772 285.957 585.764 287.328C586.553 287.873 587.342 288.437 588.112 289.001C589.052 289.677 590.499 291.218 587.06 288.155C587.473 288.512 587.925 288.832 588.338 289.189C589.935 290.504 591.495 291.895 592.923 293.398C593.599 294.093 594.201 294.845 594.84 295.559C596.005 296.856 593.374 293.849 593.487 293.811C593.543 293.793 594.22 294.845 594.276 294.92C594.765 295.653 595.216 296.405 595.629 297.194C597.264 300.351 594.577 293.83 595.366 296.536C595.591 297.325 595.779 298.115 595.986 298.923C596.493 300.952 595.685 294.713 595.704 296.799C595.704 297.213 595.742 297.626 595.76 298.039C595.854 305.406 602.168 312.471 609.854 312.133C617.54 311.795 624.06 305.932 623.948 298.039C623.647 275.302 600.195 262.148 582.701 252.621C573.324 247.509 563.74 242.755 554.589 237.23C552.54 235.99 550.53 234.712 548.556 233.378C547.692 232.796 546.846 232.194 546.001 231.574C545.625 231.311 545.268 231.01 544.892 230.747C548.951 233.585 546.565 232.044 545.644 231.292C544.103 230.015 542.6 228.68 541.228 227.215C540.589 226.538 540.044 225.805 539.405 225.129C542.957 228.943 540.457 226.519 539.631 225.129C538.71 223.588 538.522 221.258 539.781 225.937C539.612 225.279 539.311 224.659 539.123 224.001C538.672 222.31 538.973 219.585 539.067 224.734C539.067 223.663 538.898 222.592 538.916 221.502C538.916 220.525 539.029 219.548 539.104 218.571C539.255 216.259 538.428 222.592 538.86 220.281C538.954 219.754 539.029 219.247 539.123 218.721C539.574 216.334 540.213 213.967 540.946 211.637C541.623 209.494 542.374 207.39 543.182 205.285C543.652 204.082 544.122 202.898 544.61 201.715C545.606 199.291 543.145 205.078 544.216 202.673C544.573 201.865 544.93 201.038 545.287 200.23C547.523 195.194 549.947 190.233 552.352 185.291C557.52 174.674 562.857 163.981 566.615 152.782C569.772 143.349 571.952 132.092 568.363 122.452C559.456 98.4559 531.118 99.4706 510.034 102.007C503.495 102.797 496.993 103.736 490.472 104.638C489.1 104.826 487.71 105.014 486.338 105.202C491.656 104.469 486.526 105.164 485.286 105.333C482.618 105.672 479.93 105.972 477.243 106.235C472.113 106.724 466.946 107.062 461.778 106.874C460.669 106.837 459.542 106.762 458.433 106.668C457.907 106.611 457.362 106.517 456.836 106.499C461.59 106.724 459.786 106.931 458.508 106.705C456.573 106.348 454.731 105.86 452.852 105.258C450.033 104.338 456.554 107.119 453.359 105.409C452.608 104.995 451.931 104.469 451.18 104.056C455.314 106.386 453.153 105.691 451.894 104.413C450.691 103.21 449.225 100.316 451.894 104.676C451.01 103.229 450.014 101.876 449.225 100.354C448.755 99.4706 448.361 98.5686 447.929 97.6666C446.952 95.5996 449.338 101.293 448.549 99.1135C448.304 98.437 448.041 97.7794 447.797 97.1217C444.377 87.6696 442.629 77.635 440.882 67.7695C439.04 57.3966 437.424 46.9486 434.681 36.7637C431.937 26.5787 428.16 16.5441 420.831 9.08395C412.864 0.947276 401.288 -1.87148 390.389 1.2291C379.659 4.2921 370.545 11.5832 362.277 18.7615C354.009 25.9398 345.985 34.1517 337.792 41.781C333.921 45.3889 329.975 48.8841 325.841 52.1914C323.868 53.7887 328.754 50.0116 326.724 51.4961C326.235 51.8532 325.747 52.229 325.258 52.5861C324.3 53.2813 323.341 53.9578 322.346 54.5967C320.354 55.9121 318.306 57.1336 316.163 58.1671C315.712 58.3926 315.205 58.5617 314.773 58.8248C318.7 56.6637 317.516 57.7349 316.295 58.1483C315.393 58.449 314.491 58.7684 313.551 59.0127C312.818 59.2006 312.048 59.2946 311.315 59.4825C316.313 58.1483 313.457 59.2758 311.559 59.2194C311.127 59.2194 310.676 59.163 310.244 59.1442C308.083 59.0691 314.34 59.9147 312.217 59.4073C311.315 59.1819 310.413 59.0127 309.511 58.7496C308.609 58.4866 307.688 58.0543 306.768 57.7724C311.841 59.3509 307.82 58.1859 306.392 57.4342C304.588 56.4759 302.84 55.4047 301.149 54.2585C300.172 53.6008 299.195 52.9055 298.236 52.2102C297.748 51.8532 297.259 51.4773 296.77 51.1015C300.717 53.9954 298.03 52.0787 297.165 51.3646C293.031 48.0198 289.085 44.4306 285.195 40.7851C277.058 33.137 269.241 25.1318 260.747 17.8595C252.254 10.5872 243.384 3.54044 232.748 0.928433C222.112 -1.68357 209.917 1.24788 202.306 9.9671C195.259 18.0474 191.501 28.1948 188.87 38.4549C183.853 58.0919 183.064 79.0443 175.829 98.08C175.641 98.5686 175.416 99.0572 175.246 99.5458C176.731 95.111 176.374 96.9713 175.848 98.0612C175.416 98.9444 175.002 99.8464 174.532 100.711C174.081 101.538 173.612 102.346 173.104 103.135C172.86 103.511 172.597 103.868 172.353 104.244C171.225 105.991 175.134 101.012 173.217 103.097C172.653 103.717 172.108 104.338 171.488 104.901C171.281 105.089 170.68 105.446 170.567 105.691C170.567 105.691 173.818 103.454 172.447 104.225C171.695 104.638 170.981 105.127 170.229 105.54C169.102 106.16 167.561 106.217 171.977 104.864C171.394 105.052 170.83 105.296 170.248 105.484C168.35 106.104 166.396 106.367 164.46 106.78C169.835 105.615 165.963 106.574 164.46 106.668C163.126 106.762 161.811 106.818 160.476 106.837C155.459 106.912 150.423 106.536 145.424 106.029C142.718 105.747 140.031 105.427 137.344 105.089C136.668 104.995 135.972 104.901 135.296 104.826C140.069 105.427 137.344 105.108 136.292 104.958C134.901 104.77 133.529 104.582 132.139 104.375C125.412 103.436 118.684 102.458 111.938 101.688C101.208 100.467 90.2905 99.8089 79.6357 102.139C68.2857 104.619 59.1155 112.061 55.3384 123.148C51.9936 132.957 54.4552 144.345 57.7625 153.834C61.6899 165.071 67.0643 175.783 72.2507 186.475C74.656 191.417 77.0425 196.359 79.2411 201.395C79.5041 201.997 79.7673 202.617 80.0304 203.218C78.1137 198.971 79.2223 201.301 79.6169 202.26C80.1055 203.443 80.5753 204.627 81.0263 205.811C81.947 208.254 82.8115 210.735 83.5444 213.253C84.1645 215.376 84.6342 217.518 85.0477 219.698C85.6678 222.93 84.747 215.808 84.9349 219.003C85.0101 220.13 85.0853 221.258 85.0665 222.385C85.0289 224.133 84.0329 226.876 85.3108 221.821C85.1041 222.667 84.9913 223.531 84.747 224.377C84.6343 224.772 84.4839 225.148 84.3524 225.523C83.7511 227.459 86.1375 221.859 85.1416 223.625C84.653 224.471 84.2209 225.335 83.6759 226.162C81.684 229.15 85.9684 223.588 83.9953 225.786C83.4692 226.369 82.9618 226.952 82.4168 227.515C80.8759 229.094 79.2035 230.503 77.5123 231.912C75.7271 233.416 80.5753 229.676 78.6398 231.029C78.1888 231.349 77.7378 231.687 77.2868 232.006C76.3472 232.683 75.4076 233.322 74.4493 233.961C72.3446 235.351 70.2025 236.685 68.0415 237.963C49.7762 248.787 29.1056 256.736 13.2833 271.262C5.72912 278.215 -0.5284 288.136 0.0353428 298.791C0.599085 309.446 6.66874 319.067 14.8618 326.057C31.2855 340.038 51.6365 347.949 69.9018 359.074C71.9313 360.314 73.9419 361.592 75.8962 362.945C76.817 363.584 77.7191 364.26 78.6398 364.918C80.5566 366.29 75.7083 362.55 77.5123 364.035C78.0572 364.486 78.6022 364.918 79.1471 365.369C80.6504 366.647 82.0786 368 83.394 369.466C84.3712 370.555 85.5926 372.961 82.9242 368.714C83.4504 369.56 84.0705 370.349 84.5779 371.213C84.7846 371.57 84.9537 371.946 85.1604 372.303C86.1751 374.088 83.7699 368.47 84.3712 370.405C84.6155 371.213 84.8974 371.984 85.0853 372.81C85.8933 376.4 84.9161 369.146 85.0288 372.153C85.0664 373.261 85.1228 374.351 85.0665 375.441C85.0289 376.268 84.8974 377.095 84.8598 377.922C85.0477 372.51 85.0852 376.23 84.7845 377.79C84.296 380.195 83.6383 382.563 82.8866 384.912C82.1349 387.261 81.2894 389.572 80.3686 391.865C79.9176 392.992 77.9258 397.427 80.0492 392.692C79.5042 393.913 78.9968 395.135 78.4519 396.356C76.1029 401.599 73.5661 406.767 71.048 411.953C65.918 422.495 60.6189 433.15 57.0297 444.349C54.0607 453.614 52.1627 464.588 55.8082 473.927C60.1866 485.127 69.9018 492.155 81.6464 494.147C92.6582 496.026 103.632 495.255 114.663 493.902C121.315 493.094 127.948 492.117 134.582 491.196C135.784 491.027 140.576 490.426 135.315 491.084C136.686 490.914 138.039 490.727 139.411 490.557C142.286 490.2 145.18 489.881 148.074 489.618C152.96 489.186 157.883 488.904 162.807 489.129C163.915 489.186 165.024 489.28 166.114 489.374C167.392 489.467 169.214 490.144 164.479 489.129C164.986 489.242 165.494 489.28 166.001 489.374C168.087 489.749 169.985 490.445 171.996 491.065C167.166 489.58 170.004 490.182 171.394 491.008C172.785 491.835 173.95 493.451 170.605 490.219C171.187 490.783 171.845 491.29 172.409 491.873C172.71 492.173 172.973 492.493 173.255 492.812C175.152 494.898 171.263 489.919 172.39 491.666C173.405 493.245 174.401 494.804 175.246 496.496C175.885 497.773 176.938 501.362 175.284 496.364C175.679 497.548 176.186 498.694 176.599 499.878C183.289 519.233 184.097 540.092 189.509 559.785C192.196 569.557 196.105 579.929 203.49 587.183C211.72 595.244 223.521 598.044 234.496 594.474C245.282 590.979 254.321 583.744 262.72 576.34C271.12 568.936 278.656 561.194 286.717 553.715C288.69 551.874 290.682 550.07 292.712 548.303C293.689 547.439 294.685 546.593 295.681 545.767C296.677 544.94 301.036 541.689 296.77 544.827C300.472 542.121 304.174 539.622 308.271 537.555C309.417 536.972 311.108 536.803 306.768 538.156C307.237 538.006 307.688 537.799 308.139 537.63C309.041 537.31 309.943 537.029 310.864 536.803C311.315 536.69 311.766 536.634 312.217 536.521C314.34 536.014 308.083 536.859 310.244 536.784C311.277 536.747 312.273 536.709 313.307 536.747C316.257 536.841 309.004 535.901 312.668 536.709C313.438 536.878 314.19 537.085 314.923 537.329C316.408 537.799 319.226 539.584 314.773 537.141C315.844 537.724 316.99 538.175 318.061 538.757C320.034 539.828 321.951 541.05 323.811 542.346C324.807 543.023 325.766 543.756 326.724 544.47C328.735 545.973 323.849 542.196 325.841 543.775C326.423 544.244 326.987 544.695 327.57 545.165C331.798 548.623 335.819 552.325 339.803 556.083C347.902 563.731 355.7 571.717 364.213 578.877C372.218 585.623 381.538 593.027 392.099 595.169C403.167 597.405 414.461 594.38 421.959 585.604C435.808 569.425 437.687 545.71 441.314 525.585C443.08 515.813 445.11 506.173 448.53 496.834C449.319 494.654 446.933 500.366 447.91 498.281C448.135 497.83 448.323 497.36 448.549 496.909C448.924 496.101 449.338 495.312 449.77 494.541C450.202 493.771 450.616 493.075 451.104 492.361C453.153 489.298 448.643 495.124 451.029 492.437C451.574 491.816 452.175 491.253 452.777 490.689C454.769 488.791 449.225 493.057 452.232 491.178C452.983 490.708 453.791 490.388 454.543 489.956C450.804 492.155 451.537 491.121 452.852 490.689C453.453 490.501 454.036 490.276 454.637 490.106C455.426 489.881 456.216 489.693 457.005 489.524C458.508 489.204 462.21 489.186 456.817 489.449C459.241 489.336 461.646 489.035 464.089 489.016C469.144 488.979 474.199 489.374 479.216 489.9C481.922 490.182 484.628 490.52 487.315 490.858C488.368 490.99 491.074 491.384 486.319 490.727C487.015 490.821 487.691 490.914 488.386 491.008C490.002 491.234 491.619 491.459 493.216 491.685C499.699 492.587 506.182 493.526 512.703 494.241C533.26 496.533 561.88 496.364 568.87 471.916C571.783 461.731 569.284 450.588 565.788 440.892C561.748 429.748 556.411 419.112 551.263 408.458C548.82 403.44 546.452 398.386 544.197 393.274C543.145 390.869 545.587 396.638 544.591 394.233C544.347 393.631 544.103 393.03 543.859 392.448C543.389 391.282 542.938 390.099 542.506 388.915C541.679 386.679 540.927 384.405 540.269 382.093C539.668 379.97 539.255 377.846 538.841 375.685C538.39 373.393 539.217 379.707 539.086 377.396C539.048 376.907 538.992 376.4 538.954 375.911C538.879 374.802 538.879 373.694 538.935 372.585C539.142 368.845 538.127 376.08 538.823 373.224C538.992 372.529 539.161 371.833 539.367 371.138C539.48 370.762 539.687 370.405 539.781 370.029C538.917 373.938 538.296 373.224 539.029 371.927C539.518 371.063 540.006 370.236 540.551 369.409C542.111 367.004 537.864 372.566 540.288 369.804C540.908 369.09 541.566 368.394 542.243 367.737C542.957 367.041 543.69 366.365 544.441 365.707C545.531 364.749 549.289 362.362 544.892 365.237C548.857 362.663 552.634 359.882 556.731 357.495C565.995 352.065 575.635 347.31 585.012 342.105C601.868 332.785 623.666 319.8 623.948 297.964C624.042 290.598 617.389 283.532 609.854 283.871C602.319 284.209 595.873 290.053 595.76 297.964L595.798 298.058Z" fill="black"/>
<path d="M189.845 167.551C189.845 167.551 175.319 242.322 195.219 247.32C231.449 256.397 221.978 241.514 255.935 181.682" fill="#FAF1E7"/>
<path d="M178.984 164.545C177.237 173.583 175.997 182.754 174.982 191.905C173.366 206.506 172.37 221.595 175.188 236.121C176.41 242.398 178.947 249.125 183.814 253.503C189.921 258.99 198.978 260.024 206.833 260.851C212.997 261.49 219.367 260.606 224.854 257.581C230.341 254.556 234.156 249.538 237.2 244.352C241.259 237.399 244.303 229.864 247.686 222.591C253.229 210.621 259.186 198.877 265.688 187.395C268.601 182.265 267.078 174.842 261.648 171.967C256.217 169.092 249.321 170.539 246.22 176.008C240.526 186.061 235.227 196.34 230.285 206.788C226.996 213.741 223.952 220.825 220.532 227.703C219.311 230.164 218.033 232.607 216.53 234.919C216.248 235.351 215.966 235.764 215.665 236.196C214.199 238.339 217.45 234.073 216.285 235.426C215.609 236.215 214.951 236.986 214.181 237.681C213.241 238.545 211.606 239.184 215.102 237.042C214.763 237.249 214.444 237.512 214.087 237.737C213.73 237.963 213.373 238.132 213.034 238.339C210.93 239.504 216.248 237.268 213.918 237.963C213.091 238.207 212.283 238.414 211.437 238.602C209.389 239.053 215.12 238.32 212.527 238.433C211.945 238.451 211.343 238.508 210.761 238.508C209.558 238.508 208.374 238.451 207.19 238.339C206.1 238.226 203.695 237.719 208.036 238.489C207.134 238.339 206.232 238.207 205.33 238.038C203.902 237.775 202.474 237.474 201.045 237.136C200.106 236.929 199.166 236.723 198.227 236.46C198.039 236.403 197.832 236.328 197.644 236.29C196.009 235.933 200.557 237.794 199.317 237.023C198.96 236.798 198.546 236.535 198.17 236.347C198.997 236.76 200.707 238.545 199.223 237.061C198.922 236.76 198.659 236.384 198.358 236.102C201.139 238.808 199.693 237.925 198.96 236.685C198.678 236.215 198.452 235.727 198.208 235.257C197.174 233.321 199.354 238.301 198.621 236.234C198.17 234.956 197.757 233.66 197.438 232.325C197.118 230.991 196.855 229.638 196.63 228.285C196.16 225.335 196.855 230.352 196.705 228.905C196.611 228.022 196.498 227.12 196.423 226.237C196.141 222.93 196.028 219.622 196.028 216.315C196.028 209.362 196.498 202.409 197.174 195.494C197.531 191.961 197.945 188.429 198.396 184.896C198.621 183.073 197.945 188.147 198.208 186.343C198.264 185.967 198.321 185.591 198.358 185.215C198.471 184.37 198.603 183.543 198.715 182.697C198.903 181.401 199.11 180.104 199.317 178.826C199.749 176.083 200.2 173.32 200.726 170.596C201.854 164.827 199.11 158.156 192.852 156.728C187.271 155.45 180.187 158.419 178.984 164.601V164.545Z" fill="black"/>
<path d="M295.302 185.458C295.302 185.458 280.776 260.229 300.677 265.228C336.906 274.304 327.435 259.421 361.392 199.589" fill="#FAF1E7"/>
<path d="M284.423 182.452C282.676 191.491 281.435 200.661 280.421 209.812C278.805 224.413 277.809 239.503 280.627 254.028C281.849 260.305 284.386 267.032 289.253 271.41C295.36 276.898 304.417 277.931 312.272 278.758C318.436 279.397 324.806 278.514 330.293 275.488C335.78 272.463 339.595 267.446 342.639 262.259C346.698 255.306 349.742 247.771 353.125 240.499C358.668 228.529 364.625 216.784 371.127 205.302C374.04 200.172 372.517 192.75 367.087 189.875C361.656 187 354.759 188.446 351.659 193.915C345.965 203.968 340.666 214.247 335.724 224.695C332.435 231.648 329.391 238.732 325.971 245.61C324.75 248.072 323.472 250.514 321.969 252.826C321.687 253.258 321.405 253.671 321.104 254.104C319.639 256.246 322.889 251.98 321.724 253.333C321.048 254.122 320.39 254.893 319.62 255.588C318.68 256.453 317.045 257.091 320.54 254.949C320.202 255.156 319.883 255.419 319.526 255.645C319.169 255.87 318.812 256.039 318.473 256.246C316.369 257.411 321.687 255.175 319.357 255.87C318.53 256.114 317.722 256.321 316.876 256.509C314.828 256.96 320.559 256.227 317.966 256.34C317.383 256.359 316.782 256.415 316.199 256.415C314.997 256.415 313.813 256.359 312.629 256.246C311.539 256.133 309.134 255.626 313.475 256.396C312.573 256.246 311.671 256.114 310.769 255.945C309.341 255.682 307.913 255.381 306.484 255.043C305.545 254.836 304.605 254.63 303.666 254.367C303.478 254.31 303.271 254.235 303.083 254.198C301.448 253.841 305.996 255.701 304.756 254.93C304.399 254.705 303.985 254.442 303.609 254.254C304.436 254.667 306.146 256.453 304.662 254.968C304.361 254.667 304.098 254.292 303.797 254.01C306.578 256.716 305.132 255.832 304.399 254.592C304.117 254.122 303.891 253.634 303.647 253.164C302.613 251.229 304.793 256.208 304.06 254.141C303.609 252.863 303.196 251.567 302.876 250.233C302.557 248.898 302.294 247.545 302.068 246.192C301.599 243.242 302.294 248.259 302.144 246.813C302.05 245.929 301.937 245.027 301.862 244.144C301.58 240.837 301.467 237.53 301.467 234.222C301.467 227.27 301.937 220.317 302.613 213.401C302.97 209.869 303.384 206.336 303.835 202.803C304.06 200.98 303.384 206.054 303.647 204.25C303.703 203.874 303.76 203.498 303.797 203.123C303.91 202.277 304.042 201.45 304.154 200.604C304.342 199.308 304.549 198.011 304.756 196.733C305.188 193.99 305.639 191.228 306.165 188.503C307.292 182.734 304.549 176.063 298.291 174.635C292.71 173.357 285.626 176.326 284.423 182.508V182.452Z" fill="black"/>
<path d="M144.372 298.057C144.372 298.057 312.536 401.09 397.098 324.045L144.372 298.057Z" fill="#FAF1E7"/>
<path d="M138.678 307.794C144.41 311.308 150.348 314.483 156.305 317.603C171.713 325.683 187.592 332.918 203.753 339.382C223.578 347.312 244.004 353.926 264.919 358.305C287.224 362.965 310.45 365.502 333.188 362.89C355.926 360.278 378.945 352.649 397.755 338.104C400.273 336.169 402.716 334.158 405.084 332.016C409.462 328.051 409.425 320.046 405.084 316.062C400.405 311.759 393.809 311.834 389.13 316.062C388.134 316.964 387.119 317.866 386.067 318.73C385.579 319.125 385.109 319.538 384.62 319.933C384.338 320.158 384.057 320.384 383.793 320.609C382.384 321.756 385.672 319.2 384.601 319.989C382.478 321.549 380.355 323.109 378.137 324.537C373.721 327.393 369.061 329.911 364.269 332.072C363.687 332.335 363.01 332.749 362.39 332.899C362.127 332.974 365.002 331.828 363.893 332.26C363.574 332.392 363.254 332.523 362.935 332.655C361.657 333.162 360.379 333.651 359.102 334.12C356.677 334.985 354.234 335.774 351.773 336.488C346.718 337.935 341.588 339.062 336.401 339.889C335.725 340.002 335.03 340.096 334.353 340.209C334.09 340.246 333.846 340.284 333.583 340.321C332.23 340.528 336.401 339.964 335.03 340.134C333.658 340.303 332.267 340.472 330.877 340.603C328.265 340.866 325.653 341.054 323.022 341.186C317.629 341.449 312.236 341.449 306.861 341.224C301.487 340.998 295.981 340.547 290.569 339.908C289.949 339.833 289.329 339.758 288.69 339.683C285.928 339.326 290.607 339.964 289.009 339.739C287.581 339.532 286.153 339.326 284.744 339.119C282.076 338.705 279.426 338.254 276.758 337.747C255.88 333.838 235.454 327.562 215.629 319.97C211.119 318.242 206.647 316.419 202.174 314.558C201.085 314.107 204.129 315.385 203.809 315.254C203.527 315.141 203.246 315.009 202.964 314.897C202.4 314.652 201.855 314.427 201.291 314.183C200.201 313.713 199.111 313.243 198.021 312.754C196.048 311.89 194.075 311.007 192.102 310.105C185.112 306.929 178.197 303.584 171.356 300.07C164.235 296.425 157.338 292.46 150.366 288.532C150.273 288.476 150.179 288.42 150.085 288.363C145.048 285.281 137.457 287.104 134.657 292.403C131.857 297.703 133.323 304.543 138.697 307.831L138.678 307.794Z" fill="black"/>
<path d="M392.323 288.964C391.515 300.013 390.876 311.814 396.363 321.454C401.587 330.606 411.678 336.187 422.032 338.197C432.386 340.208 443.06 339.099 453.489 337.634" fill="#FAF1E7"/>
<path d="M381.049 288.965C380.034 303.134 379.94 318.749 388.96 330.607C398.581 343.272 413.163 349.154 428.723 350.357C438.024 351.071 447.307 349.774 456.496 348.496C459.089 348.139 461.983 345.452 463.242 343.31C464.652 340.886 465.253 337.334 464.37 334.628C463.487 331.922 461.796 329.273 459.184 327.882C456.308 326.36 453.678 326.304 450.502 326.755C449.901 326.849 449.299 326.924 448.717 326.999C450.22 326.792 450.314 326.773 449.017 326.943C447.965 327.055 446.913 327.206 445.86 327.318C443.605 327.563 441.35 327.751 439.095 327.882C436.991 327.995 434.886 328.051 432.782 327.995C430.846 327.957 428.347 328.145 426.505 327.6C429.268 328.427 426.186 327.525 425.49 327.412C424.645 327.262 423.818 327.074 422.991 326.886C421.394 326.492 419.797 326.022 418.237 325.458C417.786 325.289 417.354 325.139 416.903 324.951C418.5 325.646 418.744 325.74 417.636 325.251C416.997 324.951 416.358 324.65 415.719 324.331C414.159 323.523 412.656 322.621 411.209 321.606C408.916 319.99 412.618 322.959 411.002 321.437C410.326 320.798 409.612 320.215 408.954 319.539C408.466 319.05 408.015 318.505 407.545 318.017C406.793 317.096 406.943 317.321 407.996 318.674C407.714 318.299 407.451 317.923 407.188 317.547C406.793 316.964 406.436 316.363 406.079 315.762C405.816 315.311 405.572 314.841 405.327 314.371C404.801 313.244 404.857 313.432 405.496 314.935C404.594 313.601 404.219 311.271 403.862 309.748C403.655 308.865 403.523 307.963 403.335 307.061C403.204 306.197 403.241 306.554 403.467 308.114C403.411 307.587 403.354 307.061 403.298 306.535C403.129 304.675 403.054 302.833 403.035 300.973C402.997 296.97 403.279 292.968 403.561 288.984C403.993 283.083 398.074 277.446 392.286 277.709C385.822 277.991 381.462 282.67 381.011 288.984L381.049 288.965Z" fill="black"/>
<path d="M255.167 261.153C241.844 252.978 224.048 244.917 211.777 254.594C200.615 263.389 203.02 282.312 213.243 292.158C223.466 302.005 238.499 304.805 252.667 305.801" fill="#FAF1E7"/>
<path d="M260.859 251.419C250.937 245.349 240.207 240.294 228.519 239.091C216.831 237.889 204.786 243.094 198.115 253.166C192.402 261.791 191.895 273.743 195.089 283.383C198.622 294.019 205.932 302.456 215.722 307.868C227.035 314.126 239.944 316.155 252.666 317.076C258.567 317.508 264.204 311.589 263.941 305.801C263.659 299.337 258.98 294.977 252.666 294.526C250.58 294.376 248.476 294.188 246.409 293.962C245.92 293.906 245.018 293.605 244.567 293.737C244.774 293.681 247.367 294.169 245.356 293.831C244.135 293.624 242.913 293.436 241.692 293.192C240.658 292.985 229.609 289.866 229.665 289.753C229.778 289.584 231.92 290.787 230.361 290.035C229.816 289.772 229.271 289.528 228.726 289.246C227.862 288.814 227.016 288.363 226.189 287.874C225.249 287.329 224.348 286.746 223.446 286.126C223.051 285.863 222.675 285.525 222.28 285.281L223.427 286.145C223.051 285.844 222.675 285.525 222.318 285.206C221.66 284.623 221.003 284.003 220.401 283.364C220.119 283.063 219.875 282.763 219.593 282.462C218.391 281.203 220.138 283.176 220.213 283.326C219.349 281.729 218.165 280.32 217.338 278.666C217.169 278.347 217.019 277.877 216.812 277.557C218.278 279.794 217.489 279.305 217.15 278.272C216.887 277.501 216.624 276.731 216.399 275.941C216.154 275.058 215.985 274.175 215.779 273.273C215.572 272.371 215.835 271.488 215.91 274.476C215.91 273.874 215.779 273.273 215.741 272.691C215.647 271.093 215.835 269.552 215.873 267.974C215.76 271.525 215.76 269.045 216.06 267.842C216.286 267.015 216.662 266.226 216.869 265.399C216.192 268.143 216.023 267.203 216.568 266.283C216.756 265.963 216.925 265.606 217.132 265.287C217.338 264.967 217.564 264.648 217.752 264.328C218.428 263.088 215.779 266.527 217.207 265.024C217.752 264.46 218.297 263.915 218.842 263.351C219.443 262.731 220.157 262.787 218.034 263.915C218.635 263.595 219.199 263.107 219.781 262.769C220.176 262.543 220.589 262.336 220.984 262.111C221.886 261.622 222.243 262.073 220.157 262.449C221.003 262.299 221.867 261.867 222.713 261.679C222.938 261.622 223.784 261.566 224.028 261.416C222.619 262.28 221.717 261.66 223.37 261.547C224.385 261.472 225.419 261.472 226.433 261.51C227.016 261.528 227.58 261.604 228.162 261.641C229.59 261.735 225.569 261.171 227.617 261.566C228.801 261.791 229.985 262.036 231.15 262.336C233.555 262.975 235.829 264.046 238.197 264.742C237.934 264.667 235.81 263.671 237.595 264.516C238.291 264.836 238.986 265.155 239.662 265.475C240.809 266.02 241.936 266.602 243.045 267.203C245.225 268.368 247.367 269.609 249.472 270.905C254.508 273.987 262.099 272.164 264.899 266.865C267.699 261.566 266.234 254.726 260.859 251.437V251.419Z" fill="black"/>
</svg>
