<svg width="107" height="151" viewBox="0 0 107 151" fill="none" xmlns="http://www.w3.org/2000/svg">
<path d="M20.8436 42.3503C16.7869 34.6713 15.2725 25.8861 14.8584 17.2139C11.7804 17.2168 8.70245 17.2226 5.61288 17.2283C2.51751 17.6337 6.61184 35.5776 7.1649 37.7261C9.9765 48.5932 17.3023 59.0433 27.2804 64.4609C29.4724 65.651 47.7289 71.7201 48.6874 68.0022C50.2133 62.0952 49.1564 61.5972 43.4464 59.634C41.0952 58.8261 38.5963 58.4178 36.3117 57.4246C29.6258 54.5262 24.2024 48.7177 20.8378 42.3532L20.8436 42.3503Z" fill="#FAF1E7"/>
<path d="M22.3429 41.476C21.9404 40.7115 21.5611 39.9384 21.2049 39.1537C21.1354 38.9973 21.063 38.8381 20.9936 38.6817C20.9501 38.5833 20.9067 38.4848 20.8661 38.3864L20.8401 38.3285C20.7648 38.1518 20.7735 38.1692 20.8632 38.3864C20.8082 38.3748 20.6605 37.8941 20.6432 37.8478C20.5563 37.6277 20.4695 37.4077 20.3826 37.1876C19.7803 35.6211 19.262 34.0199 18.8219 32.4012C18.3817 30.7826 18.0198 29.1727 17.7186 27.5367C17.5652 26.7056 17.4291 25.8717 17.3075 25.0349C17.2785 24.8409 17.2525 24.6498 17.2264 24.4558C17.2119 24.3487 17.154 24.0388 17.2264 24.4674C17.2119 24.3834 17.2033 24.2936 17.1917 24.2097C17.1367 23.7782 17.0845 23.3497 17.0382 22.9183C16.8268 21.0245 16.6849 19.1222 16.5923 17.2198C16.5459 16.2816 15.8336 15.4824 14.8549 15.4824C12.9786 15.4824 11.1023 15.4882 9.22596 15.4911C8.28779 15.4911 7.34674 15.4911 6.40857 15.494C5.71943 15.494 5.07659 15.4708 4.46562 15.8212C3.1047 16.6001 2.84703 18.3519 2.75726 19.765C2.65302 21.4212 2.81517 23.0978 3.00628 24.7396C3.24951 26.8215 3.57668 28.8947 3.956 30.9592C4.48589 33.8432 5.04187 36.7562 5.8729 39.5736C7.58708 45.3821 10.4508 50.7939 14.2005 55.5397C16.0189 57.8388 18.0661 59.9555 20.3305 61.8202C21.5234 62.8018 22.7656 63.7284 24.06 64.571C24.9055 65.1212 25.777 65.6829 26.692 66.1086C27.9024 66.6703 29.1677 67.1133 30.4302 67.5419C32.1618 68.1326 33.9136 68.6682 35.6799 69.1547C37.5591 69.6701 39.4557 70.1334 41.3755 70.4693C43.0404 70.7617 44.7922 71.0455 46.489 70.9065C48.0729 70.7762 49.7842 70.2579 50.3314 68.5785C50.6963 67.4608 50.8961 66.236 51.0148 65.0719C51.1046 64.2091 51.0785 63.2651 50.7629 62.4486C50.372 61.4293 49.7292 60.6852 48.8431 60.0568C48.0353 59.4835 47.0739 59.1216 46.1589 58.7683C44.8762 58.276 43.5732 57.8272 42.2528 57.4537C40.5821 56.9846 38.8853 56.5995 37.2666 55.9596C37.1856 55.9277 37.0987 55.8988 37.0205 55.8611C37.4027 56.0465 37.0553 55.8727 36.98 55.8409C36.841 55.7801 36.702 55.7164 36.5659 55.6527C36.204 55.4847 35.8478 55.3081 35.4946 55.1228C34.8373 54.7782 34.1944 54.4076 33.5661 54.0109C32.9378 53.6142 32.3558 53.2117 31.7709 52.7802C31.6869 52.7194 31.1744 52.3083 31.5739 52.6355C31.4407 52.5254 31.3018 52.4241 31.1686 52.3141C30.8559 52.0622 30.546 51.8044 30.242 51.5381C29.1243 50.568 28.0732 49.5198 27.0945 48.4108C26.8513 48.1358 26.6138 47.8607 26.3793 47.5798C26.1448 47.2989 25.8291 47.0007 25.6554 46.6822C25.8263 46.9978 25.7886 46.8588 25.7162 46.7604C25.6583 46.6851 25.6004 46.6069 25.5425 46.5316C25.4382 46.3926 25.3369 46.2565 25.2327 46.1147C25.0068 45.8048 24.7867 45.4921 24.5696 45.1765C23.7559 43.9893 23.0118 42.7529 22.3371 41.4817C21.9115 40.6768 20.7271 40.3641 19.9598 40.8592C19.1433 41.3862 18.8798 42.3765 19.3373 43.2365C22.1489 48.5353 26.1882 53.2609 31.1859 56.6053C32.3702 57.3987 33.6153 58.1023 34.9125 58.6988C36.5254 59.443 38.1961 59.9584 39.9074 60.4188C41.3899 60.8155 42.8464 61.2556 44.2942 61.771C44.7951 61.9505 45.2932 62.1358 45.7854 62.3356C46.0229 62.4312 45.574 62.243 45.5769 62.2488C45.6117 62.2835 45.6985 62.3009 45.742 62.3212C45.8375 62.3646 45.9331 62.408 46.0257 62.4515C46.2197 62.5441 46.4108 62.6397 46.5991 62.7468C46.7496 62.8337 46.9002 62.9234 47.045 63.0248C47.0739 63.045 47.1058 63.0682 47.1348 63.0885C47.3461 63.2275 46.7873 62.8047 46.932 62.9292C47.0044 62.99 47.0797 63.0508 47.1492 63.1145C47.2448 63.2014 47.3432 63.3751 47.4533 63.4388C47.3606 63.3838 47.1579 63.0132 47.3229 63.2796C47.3722 63.3607 47.4243 63.4388 47.4677 63.5257C47.4967 63.5807 47.5199 63.6415 47.5517 63.6994C47.2564 63.158 47.4214 63.378 47.4793 63.5576C47.5285 63.7139 47.5575 63.8732 47.5894 64.0324C47.6328 64.2264 47.5343 63.4996 47.5517 63.7603C47.5517 63.7979 47.5604 63.8355 47.5633 63.8703C47.572 63.9658 47.5778 64.0643 47.5778 64.1598C47.5835 64.3596 47.5778 64.5623 47.5633 64.7621C47.5575 64.8664 47.5459 64.9677 47.5372 65.0719C47.5314 65.1183 47.5257 65.1675 47.5228 65.2138C47.4967 65.5121 47.5865 64.7911 47.5517 65.0111C47.5083 65.2775 47.4677 65.5439 47.4156 65.8103C47.3027 66.3952 47.1463 66.9685 47.0131 67.5476C47.0131 67.5563 46.9726 67.6837 46.9697 67.6837C46.961 67.6808 47.2158 67.1394 47.0768 67.4058C47.0566 67.4434 47.0247 67.4753 47.0073 67.51C47.2274 67.0322 47.323 67.1481 47.1695 67.2871C47.1463 67.3073 47.074 67.3565 47.0624 67.3855C47.0797 67.3479 47.5256 67.0728 47.2911 67.2031C47.1955 67.2552 47.1 67.3073 47.0044 67.3594C47.5922 67.0293 47.2998 67.2436 47.0797 67.3102C46.9523 67.3479 46.822 67.3797 46.6917 67.4058C46.628 67.4174 46.5643 67.4289 46.5006 67.4376C46.214 67.4897 47.045 67.3768 46.7178 67.4087C46.5585 67.4231 46.3993 67.4405 46.24 67.4492C45.5248 67.4868 44.8067 67.4463 44.0944 67.3768C43.9033 67.3594 43.7122 67.3363 43.5211 67.3131C43.4313 67.3015 43.052 67.2523 43.4255 67.3015C43.799 67.3508 43.3416 67.29 43.2576 67.2755C42.829 67.2118 42.4034 67.1423 41.9777 67.0641C41.0483 66.8933 40.1246 66.6935 39.2038 66.4763C35.8652 65.6829 32.5498 64.6955 29.3415 63.4765C29.0924 63.3809 28.8434 63.2825 28.5944 63.1811C28.1919 63.0161 29.0548 63.3809 28.6871 63.2217C28.6002 63.184 28.5162 63.1464 28.4294 63.1059C27.5346 62.6889 26.6833 62.1387 25.8552 61.603C25.2616 61.2179 24.6796 60.8184 24.1092 60.3985C23.9586 60.2885 23.808 60.1784 23.6604 60.0655C23.6025 60.0221 23.5416 59.9728 23.4837 59.9294C23.8341 60.1784 23.6459 60.0568 23.5706 59.996C23.2782 59.7644 22.9857 59.5327 22.6961 59.2953C21.5987 58.3861 20.5534 57.419 19.5602 56.3968C18.567 55.3747 17.6173 54.2946 16.7255 53.174C16.6792 53.1161 16.6328 53.0553 16.5865 52.9974C16.5633 52.9685 16.323 52.6847 16.5141 52.9048C16.7052 53.1248 16.4649 52.8411 16.4417 52.8121C16.3954 52.7513 16.349 52.6905 16.3056 52.6326C16.0769 52.3314 15.8539 52.0274 15.6368 51.7205C15.2198 51.1356 14.8173 50.542 14.4264 49.9397C13.6591 48.7525 12.9497 47.5277 12.2953 46.271C11.9652 45.6369 11.6495 44.997 11.3513 44.3484C11.2094 44.0414 11.0704 43.7345 10.9372 43.4247C10.8909 43.3146 10.6766 42.7905 10.8706 43.2712C10.8011 43.0975 10.7258 42.9266 10.6564 42.7529C9.37072 39.5823 8.56576 36.3074 7.87661 32.9659C7.50887 31.1764 7.17011 29.3812 6.88055 27.5772C6.80237 27.0995 6.72998 26.6217 6.66049 26.141C6.62863 25.9152 6.59676 25.6893 6.56491 25.4663C6.65757 26.1323 6.58808 25.6256 6.56781 25.4808C6.55333 25.3563 6.53598 25.2347 6.5215 25.1102C6.41147 24.2184 6.31881 23.3236 6.2609 22.4289C6.21167 21.6587 6.1827 20.8856 6.21166 20.1153C6.22324 19.8142 6.3159 19.4551 6.28405 19.1569C6.29273 19.2438 6.20008 19.7071 6.2551 19.3943C6.26668 19.3219 6.27827 19.2525 6.29274 19.1801C6.31591 19.0556 6.34488 18.9311 6.37962 18.8094C6.40858 18.7052 6.44622 18.6039 6.48096 18.5025C6.56204 18.2622 6.24353 18.989 6.37673 18.7515C6.40279 18.7023 6.42592 18.6502 6.45488 18.6038C6.47515 18.5691 6.50992 18.5315 6.5244 18.4967C6.57652 18.3751 6.17401 18.9282 6.34484 18.7341C6.36801 18.7081 6.40855 18.6849 6.42593 18.6531C6.47805 18.5778 5.97424 18.9658 6.19141 18.8384C6.43174 18.6994 5.79182 18.9976 5.90475 18.9513C5.93949 18.9368 5.97424 18.931 6.00898 18.9224C6.17113 18.876 5.78023 19.1048 5.75127 18.9745C5.75127 18.9803 6.06399 18.9745 6.04083 18.9745C6.28116 18.9745 6.52439 18.9745 6.76472 18.9745C7.67972 18.9745 8.59472 18.9745 9.50972 18.9716C11.2905 18.9716 13.0713 18.9658 14.852 18.9629L13.1147 17.2256C13.4477 24.1373 14.4264 31.1243 16.8471 37.6364C17.5594 39.5533 18.3847 41.4296 19.3373 43.2394C19.76 44.0443 20.9501 44.3541 21.7145 43.8619C22.534 43.3349 22.7917 42.3475 22.3371 41.4846L22.3429 41.476Z" fill="#FF4409"/>
<path d="M85.1177 97.9065C89.0963 105.438 90.0084 113.36 91.1666 121.659C91.2303 122.125 91.3288 122.646 91.7168 122.913C92.0034 123.11 92.3798 123.112 92.7273 123.107C95.3044 123.066 97.8814 123.026 100.458 122.985C101.133 104.702 96.0601 85.2471 78.6751 75.8017C76.486 74.6116 58.2266 68.5425 57.2653 72.2604C55.7393 78.1674 56.7962 78.6654 62.5062 80.6286C64.8574 81.4365 67.3563 81.8448 69.6409 82.838C76.3268 85.7364 81.7502 91.5449 85.1148 97.9094L85.1177 97.9065Z" fill="#FAF1E7"/>
<path d="M83.6174 98.7847C83.8954 99.3117 84.1618 99.8474 84.4166 100.389C84.5295 100.626 84.6366 100.864 84.7438 101.104C84.8046 101.243 84.8654 101.382 84.9262 101.524C84.9436 101.562 85.0276 101.767 84.9407 101.556C84.8538 101.344 84.961 101.608 84.9783 101.648C85.4127 102.7 85.8036 103.771 86.1539 104.851C86.8489 106.994 87.3816 109.186 87.8218 111.392C88.2619 113.598 88.6094 115.863 88.9308 118.11C89.0929 119.251 89.2493 120.394 89.4086 121.535C89.4983 122.172 89.5765 122.743 89.8574 123.33C90.1961 124.043 90.9114 124.593 91.6787 124.749C92.4402 124.906 93.2423 124.833 94.0154 124.822C94.7306 124.81 95.4487 124.799 96.1639 124.787C97.5972 124.764 99.0276 124.741 100.461 124.72C101.425 124.706 102.164 123.936 102.198 122.983C102.369 118.304 102.143 113.627 101.495 108.992C100.869 104.535 99.8008 100.128 98.1474 95.9413C96.4245 91.5806 94.1399 87.5123 91.172 83.8783C88.1866 80.2241 84.5006 77.1346 80.4149 74.7805C78.2519 73.5354 75.8167 72.7854 73.4482 72.0441C70.2804 71.051 67.0461 70.162 63.7625 69.664C62.3408 69.4497 60.8669 69.2383 59.4278 69.3686C58.0959 69.4874 56.6481 69.8435 55.9068 71.077C55.6954 71.4303 55.5941 71.8154 55.4956 72.2063C55.3682 72.7159 55.2524 73.2284 55.1569 73.7438C54.9976 74.6096 54.847 75.5159 54.9223 76.3991C54.9947 77.2388 55.1829 78.0727 55.6665 78.7821C56.1501 79.4916 56.7726 80.0301 57.5023 80.4616C58.3072 80.9393 59.1991 81.2781 60.0735 81.6053C61.1854 82.0223 62.3089 82.4132 63.4498 82.7433C64.9034 83.1631 66.383 83.5019 67.8163 83.9884C68.1522 84.1013 68.4852 84.2287 68.8152 84.359C68.8992 84.3938 69.1193 84.443 68.7689 84.3387C68.8384 84.359 68.9137 84.4024 68.9774 84.4314C69.1338 84.5009 69.2901 84.5704 69.4436 84.6457C70.0111 84.9121 70.57 85.1987 71.1172 85.5056C72.2494 86.1398 73.3352 86.8521 74.369 87.631C74.4298 87.6773 74.4906 87.7266 74.5514 87.77C74.5166 87.7468 74.2358 87.5239 74.4732 87.7092C74.5919 87.8047 74.7135 87.9003 74.8323 87.9958C75.0871 88.2014 75.3361 88.4099 75.5822 88.6213C76.0629 89.0353 76.532 89.461 76.9866 89.9011C77.9276 90.8103 78.8166 91.7746 79.6476 92.7822C79.8445 93.0196 80.0356 93.26 80.2267 93.5003C80.2875 93.5756 80.441 93.7349 80.1659 93.4221C80.2151 93.4801 80.2614 93.5467 80.3049 93.6046C80.4091 93.7407 80.5133 93.8796 80.6147 94.0186C80.9998 94.5427 81.3734 95.0755 81.7324 95.617C82.41 96.642 83.0383 97.7018 83.6145 98.7905C84.0402 99.5955 85.2245 99.9082 85.9918 99.4131C86.8083 98.8861 87.0718 97.8958 86.6143 97.0358C84.2197 92.5187 80.9217 88.3694 76.8794 85.2161C74.7136 83.5251 72.4029 82.1063 69.8577 81.061C68.4968 80.5021 67.075 80.1315 65.6562 79.7493C64.3648 79.4018 63.0936 79.008 61.834 78.5621C61.3968 78.4086 60.9596 78.2494 60.5281 78.0785C60.4297 78.0409 60.3341 78.0003 60.2386 77.9627C59.8593 77.8063 60.5542 78.1046 60.311 77.9916C60.1314 77.9106 59.9519 77.8324 59.7753 77.7455C59.477 77.5979 59.1846 77.4357 58.9095 77.2446C58.7763 77.1519 58.5852 76.955 59.0427 77.3546C58.9906 77.3083 58.9356 77.2678 58.8806 77.2214C58.7734 77.1288 58.6779 77.0245 58.5794 76.9232C58.3594 76.6915 58.7329 77.0651 58.7126 77.1056C58.7184 77.0911 58.6142 76.9666 58.6026 76.9492C58.5708 76.8971 58.4404 76.5815 58.3999 76.5728C58.4607 76.5873 58.5968 77.0824 58.4868 76.761C58.4694 76.706 58.452 76.651 58.4375 76.5931C58.4202 76.5265 58.4028 76.4599 58.3912 76.3933C58.3854 76.3586 58.3796 76.3238 58.3709 76.2891C58.313 76.04 58.4115 76.5496 58.4057 76.5641C58.4462 76.4802 58.3738 76.2051 58.3738 76.1066C58.3681 75.9271 58.3739 75.7505 58.3854 75.5709C58.397 75.3914 58.4173 75.2003 58.4375 75.015C58.4578 74.8094 58.3738 75.4609 58.4057 75.2553C58.4144 75.2032 58.4202 75.154 58.4288 75.1019C58.4462 74.9832 58.4665 74.8644 58.4868 74.7457C58.5736 74.2506 58.6837 73.7612 58.8053 73.2719C58.8545 73.0692 58.9153 72.8665 58.9617 72.6638C59.0167 72.4148 58.8719 72.9273 58.8371 72.9476C58.8603 72.9331 58.8892 72.8491 58.9037 72.826C59.0601 72.5567 58.5215 73.2197 58.7908 72.9794C58.814 72.9562 58.8429 72.9331 58.8661 72.9099C58.9935 72.7651 58.4317 73.1995 58.646 73.0808C58.7213 73.0402 58.7937 72.9939 58.8661 72.9505C59.1035 72.8144 58.6605 73.0518 58.6055 73.0547C58.6518 73.0547 58.7126 73.0142 58.756 72.9968C58.9645 72.9244 59.1788 72.881 59.3931 72.8404C59.7116 72.7796 59.1933 72.907 59.1499 72.8694C59.1672 72.8839 59.3033 72.852 59.3323 72.8491C59.4684 72.8346 59.6045 72.8259 59.7405 72.8173C60.3457 72.7883 60.9509 72.8144 61.5532 72.8636C61.9122 72.8926 62.2713 72.936 62.6303 72.9794C62.888 73.0113 62.1149 72.907 62.4653 72.9563C62.555 72.9678 62.6448 72.9823 62.7346 72.9939C62.9286 73.0229 63.1226 73.0518 63.3166 73.0865C64.11 73.2168 64.8976 73.3732 65.6823 73.5469C67.3125 73.9031 68.9282 74.3287 70.5294 74.792C71.9772 75.2119 73.4163 75.6636 74.8409 76.153C75.4056 76.347 75.9702 76.5496 76.5291 76.761C76.7549 76.845 76.9779 76.9319 77.2037 77.0245C77.2906 77.0593 77.3803 77.0969 77.4672 77.1317C77.6352 77.2012 76.9547 76.9116 77.2124 77.0245C77.2616 77.0448 77.3109 77.068 77.3601 77.0882C77.9421 77.3459 78.4894 77.676 79.0366 78.0003C80.0298 78.5881 80.9969 79.2165 81.9322 79.8911C82.158 80.0533 82.3839 80.2183 82.6068 80.3863C82.7024 80.4587 82.8008 80.534 82.8964 80.6063C82.465 80.2849 82.9312 80.6353 83.0354 80.7193C83.464 81.061 83.8867 81.4113 84.3008 81.7733C85.1434 82.5058 85.9513 83.279 86.7244 84.0839C87.4859 84.8802 88.2127 85.7083 88.9047 86.5654C88.9887 86.6697 89.0698 86.7739 89.1538 86.8781C89.1943 86.9303 89.2348 86.9824 89.2754 87.0345C89.2609 87.0142 89.0148 86.6928 89.1856 86.9187C89.3564 87.1445 89.5244 87.3675 89.6923 87.5963C90.0137 88.0364 90.3265 88.4823 90.6305 88.9369C91.835 90.7351 92.8948 92.6287 93.8127 94.5861C94.0444 95.0813 94.2673 95.5793 94.4816 96.0832C94.525 96.1816 94.5916 96.3872 94.4237 95.9442C94.4468 96.005 94.4758 96.0658 94.499 96.1266C94.5511 96.2482 94.6003 96.3727 94.6495 96.4943C94.748 96.7405 94.8464 96.9866 94.942 97.2356C95.3387 98.2606 95.6977 99.3001 96.0278 100.351C96.6909 102.468 97.2208 104.628 97.6349 106.808C97.8404 107.891 98.0171 108.977 98.1677 110.069C98.2256 110.497 98.1184 109.684 98.1734 110.112C98.1908 110.248 98.2082 110.381 98.2256 110.518C98.2603 110.804 98.2951 111.091 98.3269 111.378C98.3906 111.936 98.4456 112.495 98.4948 113.054C98.6888 115.275 98.7844 117.505 98.7873 119.734C98.7873 120.82 98.7699 121.903 98.7294 122.989L100.467 121.251C98.0084 121.289 95.5501 121.33 93.0917 121.367C92.9527 121.367 92.8137 121.373 92.6747 121.373C92.5966 121.373 92.2288 121.335 92.4952 121.388C92.7616 121.44 92.5358 121.399 92.4952 121.382C92.4923 121.382 92.8195 121.538 92.6487 121.448C92.4605 121.35 92.8398 121.619 92.8775 121.66C93.0744 121.862 92.8514 121.527 92.9527 121.79C93.0541 122.054 92.944 121.729 92.9267 121.66C92.9035 121.558 92.8832 121.457 92.8688 121.356C92.8253 121.089 92.7935 120.82 92.7558 120.554C92.5995 119.433 92.446 118.312 92.2868 117.195C91.6671 112.849 90.949 108.496 89.6286 104.301C88.841 101.802 87.842 99.3581 86.623 97.0387C86.2002 96.2337 85.0102 95.9239 84.2457 96.4161C83.4263 96.946 83.1686 97.9305 83.6232 98.7934L83.6174 98.7847Z" fill="#FF4409"/>
<path d="M103.044 124.293C105.155 120.637 103.051 115.47 98.3449 112.753C93.639 110.036 88.1128 110.798 86.0018 114.454C83.8909 118.11 85.9946 123.277 90.7006 125.994C95.4066 128.711 100.933 127.949 103.044 124.293Z" fill="#FF4409"/>
<path d="M101.541 123.414C101.44 123.585 101.333 123.747 101.22 123.912C101.194 123.95 101.162 123.982 101.139 124.022C101.13 124.04 101.394 123.718 101.272 123.849C101.2 123.924 101.139 124.011 101.069 124.086C100.939 124.231 100.803 124.367 100.661 124.5C100.583 124.57 100.505 124.636 100.426 124.706C100.227 124.885 100.757 124.471 100.458 124.683C100.137 124.908 99.8039 125.117 99.4507 125.291C99.358 125.337 99.248 125.372 99.1582 125.427C99.1409 125.438 99.5346 125.282 99.3609 125.34C99.3175 125.354 99.2741 125.375 99.2306 125.392C99.025 125.47 98.8166 125.54 98.6081 125.6C98.4256 125.653 98.2404 125.699 98.0521 125.739C97.9421 125.763 97.8321 125.786 97.7191 125.803C97.6699 125.812 97.6236 125.818 97.5744 125.826C97.334 125.87 97.6931 125.809 97.7452 125.806C97.2935 125.844 96.8505 125.887 96.3959 125.881C96.1903 125.881 95.9847 125.87 95.7791 125.855C95.6575 125.847 95.5359 125.835 95.4171 125.823C95.365 125.818 95.3129 125.812 95.2608 125.806C95.0321 125.783 95.6372 125.867 95.4085 125.826C94.9278 125.742 94.4558 125.65 93.9839 125.519C93.7696 125.459 93.5582 125.392 93.3497 125.32C93.2252 125.276 93.1036 125.233 92.982 125.186C92.9299 125.166 92.8777 125.146 92.8227 125.126C92.6085 125.044 92.843 125.131 92.9241 125.172C92.4753 124.943 92.0149 124.749 91.5748 124.497C91.1346 124.245 90.7379 123.964 90.3296 123.678C90.1733 123.568 90.4715 123.791 90.4657 123.785C90.4252 123.75 90.3818 123.718 90.3383 123.684C90.2399 123.605 90.1443 123.527 90.0488 123.446C89.8751 123.298 89.7042 123.145 89.5392 122.986C89.2033 122.664 88.8877 122.326 88.5923 121.966C88.5605 121.929 88.5286 121.888 88.4968 121.848C88.3752 121.703 88.6212 122.013 88.6126 122.001C88.5575 121.92 88.4938 121.842 88.433 121.761C88.2998 121.573 88.1696 121.382 88.0479 121.188C87.8192 120.82 87.6194 120.438 87.4341 120.047C87.4138 120.006 87.3993 119.957 87.3762 119.916C87.3646 119.896 87.5238 120.29 87.4601 120.116C87.4283 120.029 87.3906 119.942 87.3588 119.856C87.2835 119.656 87.2169 119.45 87.1561 119.245C87.1011 119.056 87.0548 118.868 87.0142 118.677C86.9969 118.59 86.9795 118.503 86.9621 118.414C86.9331 118.254 86.9331 117.869 86.9592 118.437C86.9418 118.057 86.8984 117.69 86.9129 117.308C86.9158 117.221 86.9216 117.137 86.9274 117.05C86.9331 116.963 86.9766 116.61 86.9332 116.94C86.8897 117.27 86.9331 116.951 86.9476 116.876C86.965 116.778 86.9853 116.682 87.0084 116.584C87.049 116.404 87.0982 116.225 87.1561 116.051C87.1822 115.97 87.214 115.889 87.2401 115.811C87.3646 115.454 87.0692 116.164 87.2285 115.831C87.3878 115.498 87.5876 115.153 87.8076 114.832C88.0132 114.531 87.5933 115.081 87.7815 114.861C87.8394 114.794 87.8974 114.725 87.9582 114.658C88.0972 114.502 88.2448 114.354 88.4012 114.215C88.4678 114.154 88.5373 114.099 88.6039 114.038C88.824 113.842 88.2941 114.258 88.5344 114.088C88.7052 113.966 88.879 113.844 89.0585 113.737C89.2264 113.636 89.4002 113.54 89.5797 113.454C89.6608 113.413 89.7476 113.378 89.8287 113.338C89.9909 113.254 89.6057 113.427 89.626 113.422C89.6984 113.398 89.7708 113.364 89.8432 113.338C90.2283 113.193 90.6221 113.08 91.0246 112.996C91.1201 112.976 91.2128 112.958 91.3084 112.941C91.3721 112.929 91.4358 112.921 91.4995 112.909C91.6906 112.874 91.2562 112.938 91.2794 112.938C91.511 112.918 91.7398 112.889 91.9714 112.877C92.4116 112.854 92.8546 112.86 93.2976 112.895C93.4018 112.903 93.5061 112.912 93.6103 112.924C93.6624 112.929 93.7146 112.935 93.7667 112.941C93.9954 112.964 93.3903 112.883 93.619 112.921C93.8478 112.958 94.0765 112.996 94.3024 113.045C94.7859 113.149 95.2637 113.283 95.7299 113.448C95.837 113.485 95.9413 113.523 96.0455 113.564C96.1584 113.607 96.5348 113.792 96.1034 113.581C96.3264 113.691 96.558 113.784 96.781 113.897C97.2414 114.125 97.6844 114.383 98.1129 114.667C98.2954 114.788 98.4749 114.916 98.6515 115.043C98.9005 115.223 98.3822 114.826 98.6863 115.069C98.7847 115.147 98.8803 115.226 98.9758 115.307C99.3349 115.614 99.6765 115.941 99.9951 116.285C100.134 116.436 100.267 116.589 100.398 116.746C100.479 116.841 100.702 117.166 100.409 116.749C100.476 116.844 100.548 116.934 100.615 117.03C100.861 117.374 101.087 117.733 101.286 118.107C101.385 118.289 101.478 118.472 101.564 118.66C101.585 118.703 101.602 118.747 101.622 118.787C101.706 118.952 101.533 118.567 101.538 118.587C101.576 118.703 101.631 118.819 101.675 118.935C101.811 119.305 101.921 119.685 102.002 120.07C102.022 120.171 102.042 120.273 102.06 120.377C102.071 120.452 102.118 120.776 102.074 120.452C102.031 120.128 102.071 120.452 102.077 120.527C102.089 120.643 102.094 120.759 102.1 120.875C102.106 121.049 102.109 121.219 102.1 121.393C102.097 121.494 102.091 121.593 102.083 121.694C102.077 121.775 102.034 122.137 102.077 121.804C102.12 121.471 102.068 121.842 102.054 121.911C102.039 121.995 102.022 122.079 102.002 122.16C101.958 122.354 101.903 122.546 101.84 122.734C101.813 122.815 101.782 122.893 101.753 122.974C101.657 123.249 101.924 122.612 101.796 122.876C101.709 123.058 101.619 123.238 101.521 123.414C101.072 124.205 101.307 125.349 102.144 125.792C102.98 126.235 104.04 126.012 104.521 125.169C106.661 121.399 105.245 116.888 102.482 113.865C99.4159 110.512 94.4906 108.667 90.0024 109.669C87.9118 110.135 86.0876 111.317 84.8281 113.045C83.7133 114.577 83.2558 116.615 83.4787 118.483C84.0202 122.989 87.3791 126.579 91.4618 128.302C95.3303 129.935 100.554 129.868 103.536 126.51C103.904 126.096 104.24 125.647 104.521 125.169C104.981 124.384 104.726 123.229 103.898 122.792C103.07 122.354 102.013 122.577 101.521 123.414H101.541Z" fill="#FF4409"/>
<path d="M34.7486 1.22968L6.72563 15.1099C5.79416 15.5713 5.41308 16.7004 5.87445 17.6319L7.18408 20.2759C7.64545 21.2074 8.77456 21.5884 9.70603 21.1271L37.729 7.24683C38.6604 6.78546 39.0415 5.65634 38.5802 4.72488L37.2705 2.08086C36.8092 1.1494 35.68 0.76831 34.7486 1.22968Z" fill="#FFA14C"/>
<path d="M21.5298 3.12801C20.305 2.55469 18.8196 2.98613 17.728 4.09224C17.088 3.41178 16.3294 2.84715 15.4549 2.43887C11.0363 0.374332 5.42467 3.04694 2.92001 8.40954C0.415339 13.7721 1.96736 19.7891 6.38889 21.8537C10.8075 23.9182 16.4192 21.2456 18.9238 15.883C19.7027 14.2152 20.0878 12.4836 20.1197 10.8244C21.1853 10.477 22.1871 9.59382 22.7721 8.34004C23.7537 6.23785 23.1977 3.90402 21.5327 3.12801H21.5298Z" fill="#FF4409"/>
<path d="M22.4048 1.62908C21.3538 1.16289 20.294 1.01522 19.1647 1.29319C18.1541 1.54221 17.2305 2.1387 16.4979 2.8626H18.9562C17.3637 1.19475 15.2557 0.239213 12.9769 0.0336272C11.0918 -0.137211 9.19235 0.357926 7.51002 1.17737C3.81238 2.98131 1.12529 6.79478 0.300049 10.782C-0.525189 14.7692 0.300057 19.2168 3.42148 21.9444C4.96771 23.2966 6.82669 24.0697 8.86806 24.2551C10.7676 24.4259 12.6844 23.925 14.3783 23.091C18.2381 21.1858 21.0236 17.0769 21.6607 12.8581C21.762 12.1834 21.8402 11.5088 21.8547 10.8254L20.5806 12.5019C22.7899 11.752 24.4926 9.73668 24.8719 7.42602C25.2512 5.11535 24.562 2.68307 22.4077 1.63198C21.5912 1.23529 20.4909 1.38296 20.0305 2.25452C19.6193 3.03633 19.7814 4.20614 20.653 4.63178C20.8036 4.70707 20.9397 4.79684 21.0816 4.88371C21.2524 4.98795 20.7775 4.60573 20.9744 4.80842C21.0381 4.87212 21.1047 4.93293 21.1626 4.99953C21.209 5.05165 21.3972 5.26012 21.1974 5.03137C20.9976 4.80262 21.1771 5.0169 21.2148 5.0806C21.264 5.15878 21.3074 5.23985 21.3509 5.32093C21.3827 5.38174 21.513 5.64234 21.3769 5.36726C21.2408 5.09218 21.3653 5.35568 21.3885 5.42518C21.4175 5.51783 21.4435 5.61049 21.4667 5.70315C21.487 5.78133 21.4985 5.8624 21.5159 5.94348C21.5622 6.15485 21.4783 5.51783 21.4985 5.82766C21.5101 6.01587 21.5188 6.20118 21.513 6.3894C21.5101 6.47626 21.5014 6.56313 21.4956 6.65C21.4754 7.02352 21.5825 6.24173 21.5014 6.60946C21.4609 6.78899 21.4261 6.96562 21.374 7.14225C21.3422 7.24938 21.3045 7.35362 21.2698 7.46076C21.1684 7.7619 21.3885 7.22333 21.2929 7.41733C21.1974 7.61133 21.1047 7.79954 20.9947 7.98486C20.9455 8.06593 20.8934 8.14412 20.8383 8.2223C20.6878 8.44236 20.7544 8.2831 20.876 8.18465C20.7283 8.30337 20.6096 8.49158 20.4706 8.62478C20.4069 8.68558 20.3374 8.74349 20.2737 8.8043C20.0102 9.05622 20.598 8.59293 20.2969 8.78983C20.155 8.88248 20.016 8.97804 19.8654 9.05911C19.7815 9.10544 19.6801 9.14019 19.599 9.18942L19.8336 9.08807C19.7728 9.11123 19.712 9.1315 19.6512 9.15177C18.907 9.40369 18.3945 10.0262 18.3771 10.8283C18.3713 11.0773 18.3597 11.3292 18.3395 11.5783C18.3279 11.7057 18.3163 11.8302 18.3018 11.9576C18.296 12.0039 18.27 12.2211 18.3018 11.9807C18.3337 11.7259 18.2931 12.0184 18.2873 12.0676C18.1976 12.6265 18.0673 13.1795 17.9022 13.721C17.824 13.9787 17.7372 14.2306 17.6445 14.4825C17.6213 14.5433 17.465 14.9111 17.5577 14.7171C17.6503 14.5231 17.5519 14.7286 17.5374 14.7605C17.4997 14.8445 17.4621 14.9284 17.4244 15.0124C17.2333 15.4236 17.0191 15.8232 16.7874 16.2112C16.5558 16.5992 16.2894 16.9785 16.0172 17.3491C15.9043 17.5026 16.1388 17.1957 16.1301 17.2044C16.0954 17.242 16.0664 17.2854 16.0317 17.326C15.968 17.407 15.9014 17.4852 15.8348 17.5634C15.69 17.7313 15.5424 17.8964 15.3889 18.0556C15.0993 18.3568 14.7982 18.6434 14.4797 18.9156C14.4044 18.9793 14.3291 19.043 14.2509 19.1038C14.2133 19.1357 14.1727 19.1647 14.1351 19.1965C14.1206 19.2081 14.4449 18.9649 14.2915 19.072C14.1061 19.2023 13.9266 19.3384 13.7355 19.4629C13.4025 19.6801 13.0609 19.8799 12.7076 20.0594C12.5425 20.1434 12.3601 20.2071 12.2009 20.2997C12.1806 20.3113 12.5744 20.1491 12.4006 20.2157C12.3572 20.2331 12.3138 20.2505 12.2733 20.2679C12.1719 20.3084 12.0734 20.3431 11.9721 20.3808C11.6159 20.5082 11.2511 20.6124 10.8805 20.6935C10.6894 20.734 10.4983 20.763 10.3072 20.7978C10.116 20.8325 10.5793 20.7659 10.5475 20.7659C10.504 20.7659 10.4577 20.7775 10.4143 20.7804C10.31 20.7891 10.2087 20.8006 10.1045 20.8064C9.73674 20.8325 9.36899 20.8296 9.00125 20.8064C8.91438 20.8006 8.82461 20.792 8.73774 20.7833C8.6972 20.7804 8.6451 20.7804 8.60746 20.7688C8.56981 20.7572 9.03889 20.8412 8.85067 20.8007C8.66246 20.7601 8.47426 20.7341 8.28605 20.6906C7.90673 20.6009 7.55346 20.4503 7.18282 20.3374C7.15966 20.3316 7.55348 20.5082 7.39133 20.4242C7.35079 20.404 7.30734 20.3866 7.26681 20.3692C7.18283 20.3287 7.09597 20.2881 7.01199 20.2447C6.83247 20.152 6.65585 20.0536 6.48502 19.9465C6.32865 19.848 6.17806 19.7438 6.02749 19.6366C5.98985 19.6106 5.9551 19.5787 5.91746 19.5556C5.90009 19.544 6.22152 19.8075 6.08832 19.6859C6.01014 19.6135 5.92325 19.5498 5.84217 19.4774C5.54393 19.2139 5.26886 18.9272 5.01694 18.6232C4.98799 18.5884 4.95905 18.5508 4.9301 18.516C4.81138 18.38 5.07197 18.7043 5.06038 18.6869C5.01405 18.6087 4.95033 18.5363 4.89821 18.4639C4.78239 18.2989 4.67525 18.1309 4.57101 17.9601C4.36832 17.6213 4.22355 17.2623 4.03824 16.9177C4.02955 16.9003 4.18303 17.2883 4.12222 17.1146C4.10774 17.0712 4.08746 17.0248 4.07009 16.9814C4.02955 16.8772 3.9919 16.7729 3.95715 16.6658C3.89056 16.4689 3.82688 16.2691 3.77187 16.0664C3.66473 15.6697 3.58941 15.2701 3.51992 14.8676C3.48807 14.6765 3.5489 15.1051 3.5489 15.0819C3.54601 15.0327 3.5373 14.9835 3.53151 14.9342C3.51993 14.8358 3.51125 14.7344 3.50256 14.6331C3.48519 14.413 3.47361 14.1959 3.46782 13.9758C3.45624 13.527 3.47072 13.0782 3.51126 12.6322C3.51995 12.528 3.53152 12.4238 3.54311 12.3195C3.57785 11.9952 3.48519 12.6844 3.53731 12.363C3.57495 12.1342 3.61551 11.9055 3.66184 11.6796C3.75739 11.2337 3.8732 10.7936 4.01509 10.3592C4.08458 10.1478 4.15987 9.93647 4.24095 9.72799C4.28149 9.62375 4.3278 9.51951 4.36544 9.41527C4.1975 9.87856 4.36546 9.42396 4.42047 9.30814C4.61158 8.89697 4.82584 8.49737 5.05748 8.10937C5.28913 7.72136 5.53237 7.3681 5.79587 7.01194C5.98408 6.76003 5.57868 7.27544 5.77848 7.03511C5.84508 6.95693 5.90879 6.87585 5.97539 6.79767C6.12886 6.61525 6.28809 6.43862 6.45313 6.26489C6.74269 5.96375 7.04383 5.67709 7.36235 5.4049C7.43763 5.3412 7.51293 5.2775 7.59111 5.21669C7.62875 5.18484 7.66929 5.15589 7.70694 5.12403C7.72142 5.11245 7.3971 5.35568 7.55057 5.24854C7.7214 5.12693 7.88936 5.00242 8.06598 4.8866C8.39608 4.66653 8.74063 4.46674 9.09389 4.28721C9.27342 4.19455 9.47032 4.12506 9.64406 4.02661C9.66432 4.01503 9.27054 4.17718 9.44428 4.11059C9.48771 4.09321 9.53113 4.07584 9.57167 4.05847C9.67301 4.01793 9.77147 3.98318 9.87282 3.94554C10.229 3.81813 10.5938 3.71389 10.9645 3.63282C11.1411 3.59518 11.3177 3.56622 11.4943 3.53437C11.7926 3.48225 11.0832 3.5749 11.3872 3.54884C11.4914 3.54016 11.5928 3.52857 11.697 3.51989C12.0793 3.49093 12.4615 3.49093 12.8437 3.51989C12.9305 3.52568 13.0203 3.53437 13.1072 3.54306C13.1477 3.54595 13.1998 3.54595 13.2375 3.55753C13.2751 3.56911 12.806 3.48515 12.9942 3.52568C13.1825 3.56622 13.3707 3.59227 13.5589 3.63571C13.9237 3.72257 14.2683 3.84998 14.6216 3.97159C14.7953 4.0324 14.3928 3.87025 14.4159 3.88473C14.4536 3.9079 14.4999 3.92237 14.5405 3.93975C14.6679 4.00055 14.7924 4.06136 14.9169 4.12506C15.1543 4.24957 15.3831 4.38856 15.6032 4.53913C15.6553 4.57388 15.9651 4.80552 15.774 4.65495C15.5829 4.50438 15.8811 4.74761 15.9304 4.78815C16.1302 4.96188 16.3184 5.14431 16.5008 5.33541C17.1523 6.01877 18.3018 5.98402 18.9591 5.33541C19.0431 5.25144 19.2602 5.12114 19.3066 5.0169C19.2573 5.12983 19.0315 5.2167 19.2747 5.04586C19.3355 5.00242 19.3992 4.96188 19.4629 4.92424C19.5903 4.84606 19.7235 4.78525 19.8509 4.71576C20.042 4.61152 19.5295 4.82289 19.7351 4.76788C19.8191 4.74471 19.9031 4.70997 19.9871 4.6868C20.0537 4.66653 20.1231 4.65495 20.1897 4.63758C20.4214 4.57677 20.1057 4.65205 20.0334 4.64916C20.1695 4.65205 20.3056 4.62599 20.4416 4.63178C20.5082 4.63178 20.5777 4.64916 20.6443 4.64337C20.2505 4.66653 20.3605 4.59994 20.5314 4.63758C20.6733 4.66943 21.125 4.85764 20.6501 4.64627C21.0902 4.84317 21.5043 4.95609 21.9879 4.82C22.3904 4.70997 22.8276 4.39725 23.0274 4.02082C23.427 3.26508 23.2909 2.03736 22.4048 1.64356V1.62908Z" fill="#FF4409"/>
<path d="M72.1615 146.355H56.5254V99.302H65.3569L72.1615 146.355Z" fill="#FAF1E7"/>
<path d="M72.1628 144.183H56.5267L58.6984 146.355V105.107C58.6984 103.199 58.7418 101.285 58.6984 99.3797C58.6984 99.3537 58.6984 99.3276 58.6984 99.3015L56.5267 101.473H65.3582C64.6603 100.94 63.9625 100.411 63.2647 99.8777C63.4905 101.444 63.7193 103.014 63.9451 104.58C64.4866 108.318 65.0252 112.057 65.5666 115.798C66.2239 120.341 66.8812 124.884 67.5385 129.43L69.2324 141.148C69.5075 143.045 69.7276 144.962 70.0577 146.85C70.0635 146.876 70.0664 146.905 70.0693 146.931C70.1417 147.432 70.6542 147.985 71.0682 148.228C71.5344 148.5 72.2207 148.616 72.7419 148.448C73.2631 148.28 73.7756 147.953 74.0391 147.449C74.3315 146.896 74.346 146.386 74.2591 145.775C74.0333 144.209 73.8046 142.64 73.5787 141.073C73.0372 137.335 72.4987 133.597 71.9572 129.856C71.2999 125.312 70.6426 120.769 69.9853 116.223C69.4206 112.317 68.856 108.411 68.2914 104.505L67.7325 100.642C67.6428 100.031 67.582 99.4087 67.4662 98.8035C67.4604 98.7774 67.4575 98.7485 67.4546 98.7224C67.3909 98.2765 67.0116 97.8537 66.6757 97.5931C66.2963 97.3007 65.8504 97.127 65.3611 97.127H56.5296C55.3569 97.127 54.3579 98.123 54.3579 99.2986V140.546C54.3579 142.454 54.3261 144.365 54.3579 146.273C54.3579 146.3 54.3579 146.326 54.3579 146.352C54.3579 147.524 55.354 148.523 56.5296 148.523H72.1657C73.3007 148.523 74.3895 147.524 74.3373 146.352C74.2852 145.176 73.3818 144.18 72.1657 144.18L72.1628 144.183Z" fill="#FF4409"/>
<path d="M84.4812 148.816H58.6874C57.5002 148.816 56.5273 147.843 56.5273 146.656V140.842C56.5273 139.655 57.5002 138.682 58.6874 138.682H78.6669C83.0536 138.682 86.6413 142.269 86.6413 146.656C86.6413 147.843 85.6684 148.816 84.4812 148.816Z" fill="#FF4409"/>
<path d="M84.4803 146.645C83.6174 146.645 82.7545 146.645 81.8888 146.645C79.8184 146.645 77.7481 146.645 75.6778 146.645H68.184C66.0384 146.645 63.8957 146.645 61.7501 146.645C60.7395 146.645 59.7261 146.659 58.7126 146.645C58.6026 146.645 58.4955 146.636 58.3854 146.624L58.9617 146.703C58.7677 146.671 58.5852 146.619 58.3999 146.543L58.9182 146.763C58.8024 146.708 58.6953 146.645 58.5823 146.581C58.2638 146.396 59.0138 146.969 58.6924 146.651C58.371 146.332 58.9472 147.079 58.7619 146.761C58.6981 146.651 58.6315 146.543 58.5794 146.425L58.7995 146.943C58.7242 146.761 58.6721 146.578 58.6403 146.381L58.7184 146.957C58.675 146.581 58.6982 146.193 58.6982 145.817V141.688C58.6982 141.311 58.675 140.92 58.7184 140.547L58.6403 141.123C58.6721 140.929 58.7242 140.746 58.7995 140.561L58.5794 141.079C58.6344 140.964 58.6981 140.857 58.7619 140.744C58.9472 140.425 58.3738 141.175 58.6924 140.854C59.0109 140.532 58.2638 141.108 58.5823 140.923C58.6924 140.859 58.7995 140.793 58.9182 140.741L58.3999 140.961C58.5823 140.885 58.7648 140.833 58.9617 140.802L58.3854 140.88C59.1354 140.793 59.9201 140.859 60.6729 140.859H76.587C77.6381 140.859 78.7239 140.796 79.7663 140.935L79.1901 140.857C79.8706 140.955 80.5278 141.137 81.162 141.401L80.6437 141.181C81.1128 141.384 81.5645 141.624 81.9901 141.908C82.0943 141.977 82.1986 142.052 82.3028 142.128C82.5953 142.336 81.8309 141.743 82.2363 142.081C82.4187 142.235 82.5953 142.394 82.7632 142.562C82.9312 142.73 83.0933 142.907 83.2439 143.089C83.5856 143.497 82.9891 142.73 83.1976 143.022C83.2729 143.127 83.3452 143.228 83.4176 143.335C83.7014 143.761 83.9417 144.212 84.1444 144.682L83.9244 144.163C84.1879 144.797 84.3674 145.455 84.4687 146.135L84.3905 145.559C84.4513 146.019 84.5006 146.5 84.4456 146.963L84.5237 146.387C84.4919 146.581 84.4398 146.763 84.3645 146.949L84.5846 146.43C84.5295 146.546 84.4658 146.653 84.4021 146.766C84.2168 147.085 84.7901 146.335 84.4716 146.656C84.1531 146.978 84.9002 146.402 84.5817 146.587C84.4716 146.651 84.3645 146.717 84.2458 146.769L84.7641 146.549C84.5817 146.624 84.3992 146.677 84.2023 146.708L84.7785 146.63C84.6772 146.642 84.5788 146.648 84.4774 146.651C83.3424 146.677 82.2536 147.629 82.3057 148.822C82.3579 150.015 83.2613 151.023 84.4774 150.994C86.3885 150.95 87.9753 149.76 88.6065 147.965C88.8295 147.328 88.8381 146.622 88.7802 145.956C88.7223 145.29 88.621 144.583 88.4356 143.923C87.7378 141.47 86.1076 139.345 83.9417 138.004C82.3318 137.008 80.441 136.519 78.556 136.516C77.8987 136.516 77.2443 136.516 76.587 136.516H60.3023C59.7695 136.516 59.2367 136.507 58.7069 136.516C57.2098 136.539 55.9271 137.263 55.07 138.479C54.5227 139.252 54.3548 140.199 54.3548 141.129V145.18C54.3548 145.654 54.3519 146.126 54.3548 146.601C54.3635 148.113 55.0874 149.422 56.318 150.284C57.2127 150.913 58.2522 151 59.2975 151C60.0996 151 60.9017 151 61.7038 151C64.4314 151 67.1619 151 69.8895 151C72.8749 151 75.8631 151 78.8484 151C80.6408 151 82.4303 151 84.2226 151H84.4803C85.6154 151 86.7041 150.001 86.652 148.828C86.5999 147.652 85.6965 146.656 84.4803 146.656V146.645Z" fill="#FF4409"/>
<path d="M33.3613 146.355H48.9974V99.3015H40.1659L33.3613 146.355Z" fill="#FAF1E7"/>
<path d="M33.362 148.525C35.1283 148.525 36.8946 148.525 38.658 148.525C41.458 148.525 44.258 148.525 47.0609 148.525C47.7067 148.525 48.3523 148.525 48.9981 148.525C50.1708 148.525 51.1697 147.529 51.1697 146.354C51.1697 144.784 51.1697 143.215 51.1697 141.645C51.1697 137.901 51.1697 134.157 51.1697 130.416V116.845C51.1697 112.933 51.1697 109.021 51.1697 105.109C51.1697 103.201 51.2016 101.29 51.1697 99.3817C51.1697 99.3556 51.1697 99.3296 51.1697 99.3035C51.1697 98.1308 50.1737 97.1318 48.9981 97.1318C46.4181 97.1318 43.8411 97.1318 41.2611 97.1318C40.8963 97.1318 40.5314 97.1318 40.1666 97.1318C39.683 97.1318 39.2284 97.3056 38.852 97.598C38.5161 97.8586 38.1368 98.2872 38.0731 98.7273C37.8472 100.294 37.6185 101.863 37.3926 103.43L35.7711 114.647C35.1138 119.19 34.4565 123.733 33.7992 128.279C33.2346 132.186 32.67 136.092 32.1053 139.998C31.8302 141.897 31.5523 143.8 31.2801 145.699C31.2772 145.725 31.2714 145.754 31.2685 145.78C31.1816 146.383 31.1672 146.907 31.4886 147.454C31.7521 147.906 32.2675 148.334 32.7858 148.453C33.3417 148.58 33.9643 148.551 34.4594 148.233C34.8995 147.949 35.3773 147.48 35.4584 146.936C35.6842 145.369 35.913 143.8 36.1388 142.233L37.7603 131.016C38.4176 126.473 39.0749 121.929 39.7322 117.383C40.2969 113.477 40.8615 109.571 41.4261 105.665C41.7012 103.766 42.0226 101.869 42.2514 99.9637C42.2543 99.9376 42.2601 99.9087 42.263 99.8826L40.1695 101.478C42.7494 101.478 45.3265 101.478 47.9064 101.478C48.2713 101.478 48.6361 101.478 49.001 101.478L46.8293 99.3064C46.8293 100.876 46.8293 102.445 46.8293 104.015C46.8293 107.759 46.8293 111.503 46.8293 115.244C46.8293 119.766 46.8293 124.292 46.8293 128.815V140.551C46.8293 142.459 46.7858 144.373 46.8293 146.278C46.8293 146.304 46.8293 146.33 46.8293 146.357L49.001 144.185C47.2347 144.185 45.4684 144.185 43.7049 144.185C40.9049 144.185 38.1049 144.185 35.302 144.185C34.6563 144.185 34.0106 144.185 33.3649 144.185C32.2298 144.185 31.1411 145.184 31.1932 146.357C31.2453 147.532 32.1487 148.528 33.3649 148.528L33.362 148.525Z" fill="#FF4409"/>
<path d="M21.0429 148.816H46.8366C48.0238 148.816 48.9967 147.843 48.9967 146.656V140.842C48.9967 139.655 48.0238 138.682 46.8366 138.682H26.8572C22.4704 138.682 18.8828 142.269 18.8828 146.656C18.8828 147.843 19.8557 148.816 21.0429 148.816Z" fill="#FF4409"/>
<path d="M21.0443 150.989C22.3213 150.989 23.5954 150.989 24.8723 150.989C27.7129 150.989 30.5563 150.989 33.3969 150.989C36.2374 150.989 39.2314 150.989 42.1502 150.989C43.6906 150.989 45.2311 151.001 46.7715 150.989C49.2212 150.972 51.1525 149.017 51.167 146.573C51.1757 145.337 51.167 144.097 51.167 142.861C51.167 141.352 51.3465 139.688 50.3938 138.396C49.5252 137.223 48.2859 136.534 46.8091 136.508C46.6354 136.508 46.4617 136.508 46.2879 136.508H39.4544C36.4864 136.508 33.5185 136.508 30.5505 136.508C28.6626 136.508 26.6994 136.372 24.8347 136.717C22.2982 137.186 20.1207 138.746 18.6034 140.785C17.894 141.738 17.3728 142.864 17.0629 144.008C16.8834 144.671 16.7879 145.363 16.7357 146.046C16.6836 146.73 16.7068 147.419 16.9529 148.047C17.6334 149.793 19.1449 150.943 21.0472 150.986C22.1823 151.012 23.271 149.967 23.2189 148.814C23.1668 147.662 22.2663 146.672 21.0472 146.643C20.9459 146.643 20.8475 146.634 20.7461 146.622L21.3223 146.701C21.1283 146.669 20.9459 146.617 20.7606 146.541L21.2789 146.761C21.1631 146.706 21.0559 146.643 20.943 146.579C20.6245 146.394 21.3745 146.967 21.053 146.648C20.7316 146.33 21.3079 147.077 21.1225 146.759C21.0588 146.648 20.9922 146.541 20.9401 146.423L21.1602 146.941C21.0849 146.759 21.0328 146.576 21.0009 146.379L21.0791 146.955C21.0241 146.492 21.0733 146.011 21.1341 145.551L21.0559 146.127C21.1544 145.447 21.3368 144.79 21.6003 144.155L21.3802 144.674C21.5829 144.205 21.8233 143.753 22.107 143.327C22.1765 143.223 22.2518 143.119 22.3271 143.015C22.5356 142.722 21.942 143.487 22.2808 143.081C22.4342 142.899 22.5935 142.722 22.7614 142.554C22.9294 142.386 23.106 142.224 23.2884 142.073C23.6967 141.732 22.9294 142.328 23.2218 142.12C23.3261 142.045 23.4274 141.972 23.5346 141.9C23.9602 141.616 24.4119 141.376 24.881 141.173L24.3627 141.393C24.9968 141.13 25.6541 140.95 26.3346 140.849L25.7583 140.927C26.6618 140.805 27.5883 140.852 28.4975 140.852C30.0901 140.852 31.6827 140.852 33.2752 140.852C36.9758 140.852 40.6792 140.852 44.3798 140.852C45.2861 140.852 46.2387 140.768 47.1421 140.872L46.5659 140.794C46.7599 140.825 46.9423 140.878 47.1277 140.953L46.6093 140.733C46.7252 140.788 46.8323 140.852 46.9452 140.915C47.2638 141.101 46.5138 140.527 46.8352 140.846C47.1566 141.164 46.5804 140.417 46.7657 140.736C46.8294 140.846 46.896 140.953 46.9481 141.072L46.7281 140.553C46.8034 140.736 46.8555 140.918 46.8873 141.115L46.8091 140.539C46.8526 140.915 46.8294 141.303 46.8294 141.68V143.744C46.8294 144.433 46.8294 145.12 46.8294 145.809C46.8294 146.185 46.8526 146.576 46.8091 146.95L46.8873 146.373C46.8555 146.567 46.8034 146.75 46.7281 146.935L46.9481 146.417C46.8931 146.533 46.8294 146.64 46.7657 146.753C46.5804 147.071 47.1537 146.321 46.8352 146.643C46.5167 146.964 47.2638 146.388 46.9452 146.573C46.8352 146.637 46.7281 146.703 46.6093 146.756L47.1277 146.536C46.9452 146.611 46.7628 146.663 46.5659 146.695L47.1421 146.617C46.2416 146.721 45.2918 146.637 44.3855 146.637C42.3384 146.637 40.2912 146.637 38.244 146.637C35.7481 146.637 33.2521 146.637 30.7561 146.637C28.5902 146.637 26.4243 146.637 24.2585 146.637C23.2045 146.637 22.1476 146.614 21.0936 146.637C21.0791 146.637 21.0646 146.637 21.0472 146.637C19.9122 146.637 18.8234 147.636 18.8756 148.809C18.9277 149.981 19.8311 150.98 21.0472 150.98L21.0443 150.989Z" fill="#FF4409"/>
<path d="M76.0007 44.9463C108.249 50.3234 108.249 79.7511 76.0007 85.131C74.33 85.409 73.0154 86.7265 72.7345 88.3972C67.3574 120.645 37.9298 120.645 32.5498 88.3972C32.2718 86.7265 30.9544 85.4119 29.2836 85.131C-2.96433 79.754 -2.96433 50.3263 29.2836 44.9463C30.9544 44.6683 32.2689 43.3509 32.5498 41.6801C37.9269 9.43215 67.3546 9.43215 72.7345 41.6801C73.0125 43.3509 74.33 44.6654 76.0007 44.9463Z" fill="#FAF1E7"/>
<path d="M75.421 47.0401C78.8726 47.6192 82.2777 48.5168 85.5063 49.8778L84.988 49.6577C87.3653 50.6654 89.6151 51.922 91.6768 53.4828C91.0021 52.9702 91.4914 53.3409 91.6449 53.4625C91.7607 53.5551 91.8736 53.6478 91.9866 53.7405C92.2095 53.9258 92.4267 54.114 92.6439 54.308C93.0608 54.6844 93.4662 55.0724 93.8542 55.4807C94.2422 55.889 94.5868 56.277 94.9285 56.6968C94.998 56.7837 95.0675 56.8706 95.1341 56.9545C95.3367 57.2065 94.7634 56.4652 94.9545 56.7229C94.9951 56.775 95.0327 56.8271 95.0733 56.8792C95.2296 57.0877 95.3802 57.2991 95.525 57.5134C96.1562 58.44 96.7006 59.4245 97.1378 60.4582L96.9177 59.9399C97.4274 61.1589 97.7835 62.433 97.963 63.7447L97.8848 63.1684C98.047 64.4106 98.047 65.6702 97.8848 66.9124L97.963 66.3362C97.7864 67.645 97.4303 68.9219 96.9177 70.141L97.1378 69.6227C96.7498 70.5377 96.2807 71.415 95.7364 72.246C95.609 72.4429 95.4758 72.6369 95.3397 72.8309C95.2644 72.9381 95.1891 73.0423 95.1109 73.1466C95.0733 73.1987 95.0327 73.2508 94.9922 73.3029C94.7287 73.6533 95.331 72.8715 95.1312 73.1234C94.8097 73.5259 94.4797 73.9197 94.1322 74.299C93.3649 75.1358 92.5281 75.906 91.642 76.6155C91.4886 76.74 90.9963 77.1077 91.6739 76.5952C91.5754 76.6705 91.4741 76.7458 91.3756 76.821C91.1121 77.0179 90.8428 77.209 90.5706 77.3973C90.0755 77.7389 89.5659 78.0632 89.0505 78.3731C87.7475 79.152 86.3837 79.8266 84.988 80.4202L85.5063 80.2002C82.3762 81.5177 79.081 82.4037 75.7395 82.9828C73.3681 83.394 71.3759 85.0618 70.7273 87.4159C70.487 88.2904 70.3943 89.2228 70.2032 90.1117C70.0208 90.9717 69.8152 91.8259 69.5865 92.6772C69.1058 94.455 68.5151 96.204 67.8028 97.9037L68.0228 97.3854C67.0152 99.7626 65.7585 102.012 64.1978 104.074C64.7103 103.399 64.3397 103.889 64.2181 104.042C64.1254 104.158 64.0328 104.271 63.9401 104.384C63.7548 104.607 63.5666 104.824 63.3726 105.041C62.9962 105.458 62.6081 105.864 62.1999 106.252C61.7916 106.64 61.4036 106.984 60.9837 107.326C60.8969 107.395 60.81 107.465 60.726 107.531C60.4741 107.734 61.2154 107.161 60.9577 107.352C60.9056 107.392 60.8534 107.43 60.8013 107.471C60.5928 107.627 60.3814 107.778 60.1672 107.922C59.2406 108.554 58.2561 109.098 57.2224 109.535L57.7407 109.315C56.5216 109.825 55.2476 110.181 53.9359 110.36L54.5121 110.282C53.2699 110.444 52.0104 110.444 50.7682 110.282L51.3444 110.36C50.0356 110.184 48.7586 109.828 47.5396 109.315L48.0579 109.535C47.1429 109.147 46.2655 108.678 45.4345 108.134C45.2376 108.006 45.0436 107.873 44.8496 107.737C44.7425 107.662 44.6382 107.586 44.534 107.508C44.4819 107.471 44.4298 107.43 44.3776 107.39C44.0273 107.126 44.8091 107.728 44.5572 107.529C44.1547 107.207 43.7609 106.877 43.3816 106.53C42.5447 105.762 41.7745 104.925 41.0651 104.039C40.9406 103.886 40.5729 103.394 41.0854 104.071C41.0101 103.973 40.9348 103.871 40.8595 103.773C40.6626 103.509 40.4715 103.24 40.2833 102.968C39.9416 102.473 39.6173 101.963 39.3075 101.448C38.5286 100.145 37.8539 98.781 37.2603 97.3854L37.4804 97.9037C36.1629 94.7736 35.2769 91.4784 34.6977 88.1369C34.2866 85.7654 32.6187 83.7733 30.2646 83.1247C29.3902 82.8844 28.4578 82.7917 27.5689 82.6006C26.7089 82.4182 25.8547 82.2126 25.0034 81.9838C23.2255 81.5032 21.4766 80.9125 19.7769 80.2002L20.2952 80.4202C17.9179 79.4126 15.6681 78.1559 13.6064 76.5952C14.2811 77.1077 13.7917 76.7371 13.6383 76.6155C13.5224 76.5228 13.4095 76.4301 13.2966 76.3375C13.0736 76.1522 12.8565 75.9639 12.6393 75.7699C12.2224 75.3935 11.817 75.0055 11.4289 74.5972C11.0409 74.189 10.6964 73.801 10.3547 73.3811C10.2852 73.2942 10.2157 73.2074 10.1491 73.1234C9.9464 72.8715 10.5197 73.6128 10.3286 73.355C10.2881 73.3029 10.2505 73.2508 10.2099 73.1987C10.0536 72.9902 9.90298 72.7788 9.7582 72.5645C9.12697 71.638 8.58261 70.6535 8.14538 69.6198L8.36545 70.1381C7.85583 68.919 7.49968 67.645 7.32015 66.3333L7.3983 66.9095C7.23615 65.6673 7.23615 64.4077 7.3983 63.1655L7.32015 63.7418C7.49678 62.433 7.85293 61.156 8.36545 59.937L8.14538 60.4553C8.53339 59.5403 9.00246 58.6629 9.54683 57.8319C9.67423 57.635 9.80743 57.441 9.94352 57.247C10.0188 57.1399 10.0941 57.0356 10.1723 56.9314C10.2099 56.8793 10.2504 56.8271 10.291 56.775C10.5545 56.4247 9.9522 57.2065 10.152 56.9545C10.4734 56.5521 10.8035 56.1583 11.151 55.7789C11.9183 54.9421 12.7551 54.1719 13.6412 53.4625C13.7946 53.338 14.2869 52.9702 13.6093 53.4828C13.7078 53.4075 13.8091 53.3322 13.9076 53.2569C14.1711 53.06 14.4403 52.8689 14.7125 52.6807C15.2077 52.339 15.7173 52.0147 16.2327 51.7049C17.5357 50.926 18.8995 50.2513 20.2952 49.6577L19.7769 49.8778C22.907 48.5603 26.2022 47.6742 29.5436 47.0951C31.9151 46.684 33.9073 45.0161 34.5559 42.662C34.7962 41.7876 34.8889 40.8552 35.08 39.9662C35.2711 39.0773 35.468 38.2521 35.6967 37.4008C36.1774 35.6229 36.7681 33.874 37.4804 32.1743L37.2603 32.6926C38.268 30.3153 39.5247 28.0654 41.0854 26.0038C40.5729 26.6785 40.9435 26.1891 41.0651 26.0357C41.1578 25.9198 41.2504 25.8069 41.3431 25.694C41.5284 25.471 41.7166 25.2538 41.9106 25.0367C42.287 24.6197 42.675 24.2143 43.0833 23.8263C43.4916 23.4383 43.8796 23.0938 44.2995 22.7521C44.3863 22.6826 44.4732 22.6131 44.5572 22.5465C44.8091 22.3438 44.0678 22.9171 44.3255 22.726C44.3776 22.6855 44.4298 22.6478 44.4819 22.6073C44.6904 22.4509 44.9017 22.3004 45.116 22.1556C46.0426 21.5244 47.0271 20.98 48.0608 20.5428L47.5425 20.7628C48.7615 20.2532 50.0356 19.897 51.3473 19.7175L50.7711 19.7957C52.0133 19.6336 53.2728 19.6336 54.515 19.7957L53.9388 19.7175C55.2476 19.8941 56.5245 20.2503 57.7436 20.7628L57.2253 20.5428C58.1403 20.9308 59.0176 21.3998 59.8487 21.9442C60.0456 22.0716 60.2396 22.2048 60.4336 22.3409C60.5407 22.4162 60.6449 22.4915 60.7492 22.5697C60.8013 22.6073 60.8534 22.6478 60.9055 22.6884C61.2559 22.9519 60.4741 22.3496 60.726 22.5494C61.1285 22.8708 61.5223 23.2009 61.9016 23.5484C62.7385 24.3157 63.5087 25.1525 64.2181 26.0385C64.3426 26.192 64.7103 26.6843 64.1978 26.0067C64.2731 26.1051 64.3484 26.2065 64.4237 26.3049C64.6206 26.5684 64.8117 26.8377 64.9999 27.1099C65.3416 27.605 65.6659 28.1147 65.9757 28.6301C66.7546 29.9331 67.4293 31.2969 68.0228 32.6926L67.8028 32.1743C68.5614 33.9811 69.1811 35.8429 69.6762 37.7366C69.9455 38.7617 70.18 39.7983 70.3827 40.8378C70.6202 42.0539 70.7621 43.2556 71.4657 44.3183C72.372 45.685 73.7821 46.7448 75.421 47.0401C76.0059 47.1444 76.5648 47.1328 77.0947 46.82C77.5464 46.5565 77.9749 46.0411 78.0936 45.5228C78.334 44.463 77.7722 43.0674 76.5764 42.8502C76.2723 42.7952 75.9828 42.7112 75.6961 42.5954L76.2144 42.8155C76.0001 42.7228 75.7917 42.6157 75.5948 42.4883C75.1431 42.1958 75.9017 42.772 75.6353 42.5317C75.5484 42.4535 75.4616 42.3782 75.3805 42.2972C75.2994 42.2161 75.2242 42.1263 75.146 42.0424C74.8883 41.7586 75.479 42.5143 75.2184 42.1234C75.0794 41.915 74.9635 41.692 74.8651 41.4632L75.0851 41.9816C74.784 41.2374 74.7174 40.4122 74.564 39.6275C74.4105 38.8428 74.2425 38.0754 74.0543 37.3081C73.7069 35.898 73.2986 34.4994 72.8121 33.1298C71.8913 30.5296 70.7389 27.9844 69.2477 25.6563C66.856 21.9268 63.5695 18.5622 59.4433 16.7988C57.4685 15.9533 55.4329 15.4321 53.2786 15.3365C51.3444 15.2497 49.3493 15.5363 47.5135 16.1473C43.1557 17.598 39.6579 20.6296 36.9766 24.2925C33.6785 28.798 31.7558 34.2938 30.7047 39.7346C30.56 40.4845 30.4934 41.2721 30.2038 41.9844L30.4239 41.4661C30.3312 41.6804 30.2241 41.8889 30.0967 42.0858C29.8042 42.5375 30.3805 41.7789 30.1401 42.0453C30.0619 42.1321 29.9867 42.219 29.9056 42.3001C29.8245 42.3811 29.7348 42.4564 29.6508 42.5346C29.367 42.7923 30.1227 42.2016 29.7318 42.4622C29.5234 42.6012 29.3004 42.717 29.0717 42.8155L29.59 42.5954C28.8458 42.8966 28.0206 42.9631 27.2359 43.1166C26.4512 43.2701 25.6838 43.438 24.9165 43.6262C23.5064 43.9737 22.1078 44.382 20.7382 44.8684C18.138 45.7892 15.5928 46.9417 13.2647 48.4329C9.53524 50.8246 6.1706 54.1111 4.40719 58.2373C3.56169 60.2121 3.04047 62.2476 2.94492 64.4019C2.85805 66.3362 3.14472 68.3312 3.75569 70.167C5.20637 74.5249 8.23803 78.0227 11.9009 80.704C16.4064 84.0021 21.9022 85.9247 27.343 86.9758C28.0929 87.1206 28.8805 87.1872 29.5929 87.4767L29.0745 87.2567C29.2888 87.3493 29.4973 87.4565 29.6942 87.5839C30.1459 87.8763 29.3873 87.3001 29.6536 87.5404C29.7405 87.6186 29.8274 87.6939 29.9085 87.775C29.9895 87.8561 30.0648 87.9458 30.143 88.0298C30.4007 88.3136 29.81 87.5578 30.0706 87.9487C30.2096 88.1572 30.3254 88.3801 30.4239 88.6089L30.2038 88.0906C30.505 88.8348 30.5716 89.66 30.725 90.4447C30.8756 91.2207 31.0464 91.9967 31.2347 92.764C31.5821 94.1742 31.9904 95.5727 32.4768 96.9423C33.3976 99.5426 34.5501 102.088 36.0413 104.416C38.433 108.145 41.7195 111.51 45.8457 113.273C47.8205 114.119 49.8561 114.64 52.0104 114.736C53.9446 114.822 55.9397 114.536 57.7755 113.925C62.1333 112.474 65.6311 109.443 68.3124 105.78C71.6105 101.274 73.5331 95.7783 74.5842 90.3375C74.729 89.5876 74.7956 88.8 75.0851 88.0877L74.8651 88.606C74.9577 88.3917 75.0649 88.1833 75.1923 87.9864C75.4847 87.5346 74.9085 88.2933 75.1489 88.0269C75.2271 87.94 75.3023 87.8532 75.3834 87.7721C75.4645 87.691 75.5542 87.6157 75.6382 87.5375C75.922 87.2798 75.1662 87.8705 75.5571 87.6099C75.7656 87.4709 75.9886 87.3551 76.2173 87.2567L75.699 87.4767C76.4432 87.1756 77.2684 87.109 78.0531 86.9555C78.8378 86.8021 79.5704 86.6399 80.3232 86.4575C81.7363 86.1129 83.1348 85.7017 84.5073 85.2182C87.0873 84.309 89.6122 83.171 91.9229 81.703C95.6263 79.3489 99.0083 76.1 100.798 72.0318C101.658 70.0744 102.196 68.0735 102.332 65.9308C102.454 64.0313 102.202 62.0652 101.646 60.2439C100.317 55.9034 97.3752 52.4027 93.8137 49.6838C89.4877 46.3799 84.1599 44.408 78.8755 43.2846C78.1139 43.1224 77.3495 42.9805 76.5822 42.8502C75.9915 42.7518 75.4442 42.7547 74.9085 43.0703C74.4568 43.3338 74.0283 43.8492 73.9096 44.3675C73.6692 45.4186 74.2281 46.8374 75.4268 47.0401H75.421Z" fill="#FF4409"/>
<path d="M27.406 43.5965C27.1367 44.9892 26.9456 46.4023 26.7892 47.8124C26.5402 50.0623 26.3867 52.3874 26.821 54.6257C27.0093 55.5928 27.4001 56.6294 28.1501 57.3041C29.0912 58.1496 30.4868 58.3089 31.6972 58.4363C32.6469 58.5347 33.6285 58.3986 34.474 57.9324C35.3195 57.4663 35.9073 56.6931 36.3764 55.894C37.0019 54.8226 37.4709 53.6615 37.9921 52.5409C38.8463 50.6964 39.7642 48.8867 40.7661 47.1175C41.2149 46.327 40.9804 45.1832 40.1436 44.7402C39.3067 44.2972 38.244 44.5202 37.7663 45.3628C36.8889 46.9119 36.0724 48.4958 35.3108 50.1057C34.8041 51.1771 34.335 52.2687 33.8081 53.3285C33.6198 53.7078 33.4229 54.0842 33.1913 54.4404C33.1479 54.507 33.1044 54.5707 33.0581 54.6373C32.8322 54.9674 33.3332 54.3101 33.1537 54.5186C33.0494 54.6402 32.9481 54.7589 32.8293 54.866C32.6846 54.9992 32.4327 55.0977 32.9712 54.7676C32.9191 54.7994 32.8699 54.84 32.8149 54.8747C32.7598 54.9095 32.7048 54.9355 32.6527 54.9674C32.3284 55.1469 33.1479 54.8023 32.7888 54.9095C32.6614 54.9471 32.5369 54.979 32.4066 55.0079C32.091 55.0774 32.9741 54.9645 32.5745 54.9819C32.4848 54.9847 32.3921 54.9934 32.3023 54.9934C32.117 54.9934 31.9346 54.9848 31.7522 54.9674C31.5842 54.95 31.2136 54.8718 31.8825 54.9905C31.7435 54.9674 31.6045 54.9471 31.4655 54.921C31.2454 54.8805 31.0254 54.8342 30.8053 54.7821C30.6606 54.7502 30.5158 54.7184 30.371 54.6778C30.3421 54.6691 30.3102 54.6575 30.2812 54.6518C30.0293 54.5967 30.7301 54.8834 30.5389 54.7647C30.4839 54.7299 30.4202 54.6894 30.3623 54.6604C30.4897 54.7241 30.7532 54.9992 30.5245 54.7705C30.4781 54.7241 30.4376 54.6662 30.3913 54.6228C30.8198 55.0398 30.5969 54.9037 30.4839 54.7126C30.4405 54.6402 30.4058 54.5649 30.3681 54.4925C30.2089 54.1943 30.5447 54.9616 30.4318 54.6431C30.3623 54.4462 30.2986 54.2464 30.2494 54.0408C30.2002 53.8352 30.1596 53.6267 30.1249 53.4182C30.0525 52.9636 30.1596 53.7368 30.1365 53.5138C30.122 53.3777 30.1046 53.2387 30.093 53.1026C30.0496 52.593 30.0322 52.0834 30.0322 51.5738C30.0322 50.5024 30.1046 49.431 30.2088 48.3655C30.2639 47.8211 30.3276 47.2767 30.3971 46.7324C30.4318 46.4515 30.3276 47.2333 30.3681 46.9553C30.3768 46.8974 30.3855 46.8395 30.3913 46.7816C30.4086 46.6513 30.4289 46.5239 30.4463 46.3936C30.4753 46.1938 30.5071 45.994 30.5389 45.7971C30.6055 45.3744 30.675 44.9487 30.7561 44.5288C30.9298 43.6399 30.5071 42.612 29.5429 42.3919C28.6829 42.195 27.5913 42.6525 27.406 43.6052V43.5965Z" fill="#FF4409"/>
<path d="M45.3313 46.8191C45.3313 46.8191 43.093 58.3406 46.1594 59.1108C51.7421 60.5093 50.2828 58.2161 55.515 48.9966" fill="#FAF1E7"/>
<path d="M43.654 46.3555C43.3847 47.7483 43.1936 49.1613 43.0372 50.5715C42.7882 52.8213 42.6348 55.1465 43.0691 57.3847C43.2573 58.3518 43.6482 59.3885 44.3981 60.0631C45.3392 60.9086 46.7349 61.0679 47.9452 61.1953C48.895 61.2937 49.8766 61.1577 50.7221 60.6915C51.5676 60.2253 52.1554 59.4522 52.6245 58.653C53.2499 57.5816 53.719 56.4205 54.2402 55.2999C55.0944 53.4554 56.0123 51.6457 57.0142 49.8765C57.463 49.086 57.2284 47.9423 56.3916 47.4993C55.5548 47.0562 54.4921 47.2792 54.0143 48.1218C53.137 49.6709 52.3204 51.2548 51.5589 52.8647C51.0522 53.9361 50.5831 55.0277 50.0561 56.0875C49.8679 56.4668 49.671 56.8433 49.4393 57.1994C49.3959 57.266 49.3525 57.3297 49.3062 57.3963C49.0803 57.7264 49.5812 57.0691 49.4017 57.2776C49.2975 57.3992 49.1961 57.5179 49.0774 57.6251C48.9326 57.7583 48.6807 57.8567 49.2193 57.5266C49.1672 57.5585 49.1179 57.599 49.0629 57.6338C49.0079 57.6685 48.9529 57.6946 48.9008 57.7264C48.5765 57.9059 49.3959 57.5614 49.0369 57.6685C48.9095 57.7061 48.785 57.738 48.6547 57.7669C48.339 57.8364 49.2222 57.7235 48.8226 57.7409C48.7328 57.7438 48.6401 57.7525 48.5504 57.7525C48.3651 57.7525 48.1827 57.7438 48.0003 57.7264C47.8323 57.709 47.4617 57.6309 48.1305 57.7496C47.9916 57.7264 47.8526 57.7061 47.7136 57.6801C47.4935 57.6395 47.2735 57.5932 47.0534 57.5411C46.9086 57.5092 46.7638 57.4774 46.6191 57.4369C46.5901 57.4282 46.5582 57.4166 46.5293 57.4108C46.2774 57.3558 46.9781 57.6424 46.787 57.5237C46.732 57.489 46.6683 57.4484 46.6104 57.4195C46.7378 57.4832 47.0013 57.7583 46.7725 57.5295C46.7262 57.4832 46.6856 57.4253 46.6393 57.3818C47.0679 57.7988 46.8449 57.6627 46.732 57.4716C46.6886 57.3992 46.6538 57.3239 46.6162 57.2515C46.4569 56.9533 46.7928 57.7206 46.6799 57.4021C46.6104 57.2052 46.5467 57.0054 46.4974 56.7998C46.4482 56.5942 46.4077 56.3858 46.3729 56.1773C46.3006 55.7227 46.4077 56.4958 46.3845 56.2728C46.37 56.1367 46.3526 55.9978 46.3411 55.8617C46.2976 55.352 46.2803 54.8424 46.2803 54.3328C46.2803 53.2614 46.3527 52.1901 46.4569 51.1245C46.5119 50.5801 46.5756 50.0358 46.6451 49.4914C46.6799 49.2105 46.5756 49.9923 46.6162 49.7144C46.6249 49.6565 46.6335 49.5985 46.6393 49.5406C46.6567 49.4103 46.677 49.2829 46.6943 49.1526C46.7233 48.9528 46.7551 48.753 46.787 48.5561C46.8536 48.1334 46.9231 47.7077 47.0042 47.2879C47.1779 46.3989 46.7552 45.371 45.7909 45.1509C44.9309 44.954 43.8393 45.4115 43.654 46.3642V46.3555Z" fill="#FF4409"/>
<path d="M22.0723 67.0664C22.0723 67.0664 47.9847 82.9428 61.0148 71.071L22.0723 67.0664Z" fill="#FAF1E7"/>
<path d="M21.1953 68.5665C22.0784 69.1079 22.9934 69.5973 23.9113 70.0779C26.2857 71.323 28.7324 72.4378 31.2226 73.4339C34.2775 74.6558 37.425 75.6751 40.6477 76.3497C44.0848 77.0678 47.6637 77.4587 51.1673 77.0563C54.6709 76.6538 58.218 75.4782 61.1165 73.237C61.5045 72.9388 61.8809 72.6289 62.2458 72.2988C62.9204 71.6879 62.9146 70.4544 62.2458 69.8405C61.5248 69.1774 60.5084 69.189 59.7874 69.8405C59.634 69.9795 59.4776 70.1185 59.3154 70.2517C59.2402 70.3125 59.1678 70.3762 59.0925 70.437C59.049 70.4717 59.0056 70.5065 58.9651 70.5412C58.7479 70.7179 59.2546 70.3241 59.0896 70.4457C58.7624 70.686 58.4352 70.9263 58.0935 71.1464C57.4131 71.5865 56.695 71.9745 55.9566 72.3075C55.8668 72.3481 55.7626 72.4118 55.667 72.4349C55.6265 72.4465 56.0695 72.2699 55.8987 72.3365C55.8494 72.3568 55.8002 72.377 55.751 72.3973C55.5541 72.4755 55.3572 72.5508 55.1603 72.6231C54.7868 72.7563 54.4104 72.878 54.031 72.988C53.2521 73.2109 52.4616 73.3847 51.6624 73.5121C51.5582 73.5295 51.4511 73.5439 51.3468 73.5613C51.3063 73.5671 51.2686 73.5729 51.2281 73.5787C51.0196 73.6105 51.6624 73.5237 51.4511 73.5497C51.2397 73.5758 51.0254 73.6019 50.8112 73.6221C50.4087 73.6627 50.0062 73.6916 49.6008 73.7119C48.7698 73.7524 47.9387 73.7524 47.1106 73.7177C46.2825 73.6829 45.4341 73.6134 44.6002 73.515C44.5046 73.5034 44.4091 73.4918 44.3106 73.4802C43.885 73.4252 44.6059 73.5237 44.3598 73.4889C44.1398 73.4571 43.9197 73.4252 43.7025 73.3934C43.2914 73.3297 42.8831 73.2602 42.4719 73.182C39.2549 72.5797 36.1075 71.6126 33.0526 70.4428C32.3577 70.1764 31.6686 69.8955 30.9794 69.6089C30.8115 69.5394 31.2805 69.7363 31.2313 69.716C31.1879 69.6986 31.1444 69.6784 31.101 69.661C31.0141 69.6233 30.9302 69.5886 30.8433 69.551C30.6754 69.4786 30.5074 69.4062 30.3395 69.3309C30.0355 69.1977 29.7314 69.0616 29.4274 68.9226C28.3502 68.4333 27.2847 67.9178 26.2307 67.3764C25.1332 66.8146 24.0706 66.2037 22.9963 65.5985C22.9818 65.5898 22.9674 65.5811 22.9529 65.5724C22.1769 65.0976 21.0071 65.3784 20.5756 66.195C20.1268 67.0434 20.37 68.0655 21.1982 68.5722L21.1953 68.5665Z" fill="#FF4409"/>
<path d="M60.2791 65.6636C60.1546 67.3662 60.0562 69.1846 60.9017 70.67C61.7067 72.0802 63.2616 72.9402 64.8571 73.25C66.4525 73.5598 68.0972 73.389 69.7042 73.1631" fill="#FAF1E7"/>
<path d="M58.5417 65.6633C58.3853 67.8466 58.3709 70.2528 59.7608 72.0799C61.2433 74.0315 63.4902 74.9378 65.8878 75.1231C67.3211 75.2332 68.7515 75.0334 70.1674 74.8365C70.567 74.7815 71.0129 74.3674 71.2069 74.0373C71.4241 73.6638 71.5168 73.1165 71.3807 72.6995C71.2446 72.2826 70.984 71.8743 70.5815 71.66C70.1385 71.4255 69.7331 71.4168 69.2438 71.4863C69.1511 71.5008 69.0584 71.5124 68.9687 71.5239C69.2003 71.4921 69.2148 71.4892 69.015 71.5152C68.8528 71.5326 68.6907 71.5558 68.5285 71.5732C68.1811 71.6108 67.8336 71.6398 67.4861 71.66C67.1618 71.6774 66.8375 71.6861 66.5132 71.6774C66.215 71.6716 65.8299 71.7006 65.5461 71.6166C65.9718 71.744 65.4969 71.605 65.3897 71.5876C65.2594 71.5645 65.132 71.5355 65.0046 71.5066C64.7585 71.4458 64.5124 71.3734 64.2721 71.2865C64.2026 71.2604 64.136 71.2373 64.0665 71.2083C64.3126 71.3154 64.3502 71.3299 64.1794 71.2547C64.081 71.2083 63.9825 71.162 63.8841 71.1128C63.6437 70.9883 63.4121 70.8493 63.1891 70.6929C62.8359 70.4439 63.4063 70.9014 63.1573 70.6668C63.053 70.5684 62.943 70.4786 62.8417 70.3744C62.7664 70.2991 62.6969 70.2151 62.6245 70.1398C62.5087 69.998 62.5318 70.0327 62.694 70.2412C62.6505 70.1833 62.61 70.1254 62.5695 70.0675C62.5086 69.9777 62.4536 69.8851 62.3986 69.7924C62.3581 69.7229 62.3204 69.6505 62.2828 69.5781C62.2017 69.4044 62.2104 69.4333 62.3088 69.665C62.1699 69.4594 62.112 69.1003 62.0569 68.8658C62.0251 68.7297 62.0048 68.5907 61.9759 68.4517C61.9556 68.3185 61.9614 68.3736 61.9961 68.6139C61.9875 68.5328 61.9788 68.4517 61.9701 68.3707C61.944 68.084 61.9324 67.8002 61.9295 67.5136C61.9238 66.8968 61.9672 66.2801 62.0106 65.6662C62.0772 64.757 61.1651 63.8883 60.2733 63.9289C59.2772 63.9723 58.6054 64.6933 58.5359 65.6662L58.5417 65.6633Z" fill="#FF4409"/>
<path d="M37.9847 59.3522C35.9317 58.0926 33.1896 56.8505 31.2988 58.3417C29.5788 59.6968 29.9495 62.6126 31.5247 64.1299C33.0999 65.6472 35.4163 66.0786 37.5996 66.2321" fill="#FAF1E7"/>
<path d="M38.8623 57.8525C37.3335 56.9173 35.6801 56.1384 33.8791 55.953C32.078 55.7677 30.222 56.5698 29.194 58.1218C28.3138 59.4509 28.2356 61.2925 28.7279 62.7779C29.2722 64.4168 30.3986 65.7169 31.9072 66.5508C33.6503 67.5151 35.6396 67.8278 37.5999 67.9697C38.5091 68.0363 39.3778 67.1241 39.3372 66.2323C39.2938 65.2362 38.5728 64.5645 37.5999 64.495C37.2785 64.4718 36.9542 64.4428 36.6357 64.4081C36.5604 64.3994 36.4214 64.3531 36.3519 64.3734C36.3837 64.3647 36.7833 64.44 36.4735 64.3878C36.2853 64.356 36.0971 64.327 35.9089 64.2894C35.7496 64.2575 34.047 63.7769 34.0557 63.7595C34.0731 63.7334 34.4032 63.9187 34.1628 63.8029C34.0789 63.7624 33.9949 63.7248 33.9109 63.6813C33.7777 63.6147 33.6474 63.5452 33.52 63.4699C33.3753 63.386 33.2362 63.2962 33.0973 63.2007C33.0364 63.1601 32.9785 63.108 32.9177 63.0703L33.0944 63.2035C33.0364 63.1572 32.9785 63.108 32.9235 63.0588C32.8222 62.969 32.7208 62.8735 32.6282 62.775C32.5847 62.7287 32.5471 62.6823 32.5037 62.636C32.3184 62.442 32.5876 62.746 32.5992 62.7692C32.466 62.5231 32.2836 62.3059 32.1562 62.0511C32.1301 62.0019 32.107 61.9295 32.0751 61.8803C32.301 62.2248 32.1794 62.1496 32.1272 61.9903C32.0867 61.8716 32.0462 61.7529 32.0114 61.6312C31.9738 61.4952 31.9477 61.3591 31.9159 61.2201C31.884 61.0811 31.9245 60.945 31.9361 61.4054C31.9361 61.3127 31.9159 61.2201 31.9101 61.1303C31.8956 60.8842 31.9246 60.6468 31.9304 60.4035C31.913 60.9508 31.913 60.5686 31.9593 60.3833C31.9941 60.2559 32.052 60.1342 32.0838 60.0068C31.9796 60.4296 31.9535 60.2848 32.0375 60.1429C32.0665 60.0937 32.0925 60.0387 32.1243 59.9895C32.1562 59.9402 32.191 59.891 32.2199 59.8418C32.3242 59.6507 31.9159 60.1806 32.1359 59.9489C32.2199 59.8621 32.3039 59.7781 32.3879 59.6912C32.4805 59.5957 32.5905 59.6044 32.2633 59.7781C32.356 59.7289 32.4429 59.6536 32.5326 59.6015C32.5934 59.5667 32.6571 59.5349 32.718 59.5001C32.8569 59.4248 32.9119 59.4943 32.5905 59.5522C32.7208 59.5291 32.854 59.4625 32.9843 59.4335C33.0191 59.4248 33.1494 59.4161 33.187 59.393C32.9699 59.5262 32.8309 59.4306 33.0857 59.4132C33.2421 59.4017 33.4013 59.4017 33.5577 59.4075C33.6474 59.4104 33.7343 59.4219 33.824 59.4277C34.0441 59.4422 33.4245 59.3553 33.7401 59.4161C33.9225 59.4509 34.1049 59.4885 34.2844 59.5349C34.6551 59.6333 35.0054 59.7984 35.3703 59.9055C35.3297 59.8939 35.0025 59.7404 35.2776 59.8707C35.3848 59.92 35.4919 59.9692 35.5961 60.0184C35.7728 60.1024 35.9465 60.1922 36.1173 60.2848C36.4532 60.4643 36.7833 60.6554 37.1076 60.8552C37.8836 61.3301 39.0535 61.0492 39.4849 60.2327C39.9163 59.4161 39.6905 58.3621 38.8623 57.8554V57.8525Z" fill="#FF4409"/>
</svg>
