<svg width="981" height="196" viewBox="0 0 981 196" fill="none" xmlns="http://www.w3.org/2000/svg">
<path d="M93.524 179.799C87.05 191.502 75.845 195.237 51.941 195.237C27.788 195.237 16.583 191.502 10.109 179.799C3.63497 168.345 0.895969 156.891 0.895969 97.629C0.895969 38.367 3.63497 27.411 10.109 15.708C16.583 4.254 27.788 0.26999 51.941 0.26999C75.845 0.26999 87.05 4.254 93.524 15.708C99.998 27.411 102.737 38.367 102.737 97.629C102.737 156.891 99.998 168.345 93.524 179.799ZM61.652 148.674C63.146 143.694 63.893 136.971 63.893 96.633C63.893 55.05 63.146 48.327 61.652 43.596C60.407 40.359 58.166 38.865 51.941 38.865C45.716 38.865 43.226 40.359 42.23 43.596C40.487 48.327 39.74 55.05 39.74 96.633C39.74 136.971 40.487 143.694 42.23 148.674C43.226 151.911 45.716 153.156 51.941 153.156C58.166 153.156 60.407 151.911 61.652 148.674ZM177.717 133.983V3.50699H216.561V133.983C215.814 165.108 212.826 173.076 207.597 181.542C201.123 192 189.918 195.237 166.014 195.237C141.861 195.237 130.656 192 124.182 181.542C118.704 173.076 114.969 165.108 114.969 133.983V3.50699H155.058V133.983C155.058 151.662 156.801 153.156 166.512 153.156C176.223 153.156 177.717 151.662 177.717 133.983ZM335.064 192H293.481C291.489 185.775 290.742 182.04 285.762 138.465C284.019 121.035 281.778 118.545 276.798 118.545H270.822V192H231.729V3.50699H288.75C322.614 3.50699 331.329 17.949 331.329 54.303C331.329 93.147 325.851 95.886 315.144 102.111V103.605C317.136 105.348 319.377 106.842 321.12 111.324C323.859 117.3 326.598 128.505 329.337 150.417C333.072 181.044 333.321 185.277 335.064 190.755V192ZM270.822 83.436H281.778C288.999 83.436 291.738 78.456 291.738 61.026C291.738 46.086 288.501 42.351 280.782 42.351H270.822V83.436ZM544.761 192H508.905V78.954H507.411L478.776 192H461.595L432.711 78.954H431.217V192H395.61V3.50699H450.888L468.318 85.428H470.061L489.483 3.50699H544.512L544.761 192ZM650.856 179.799C644.382 191.502 633.177 195.237 609.273 195.237C585.12 195.237 573.915 191.502 567.441 179.799C560.967 168.345 558.228 156.891 558.228 97.629C558.228 38.367 560.967 27.411 567.441 15.708C573.915 4.254 585.12 0.26999 609.273 0.26999C633.177 0.26999 644.382 4.254 650.856 15.708C657.33 27.411 660.069 38.367 660.069 97.629C660.069 156.891 657.33 168.345 650.856 179.799ZM618.984 148.674C620.478 143.694 621.225 136.971 621.225 96.633C621.225 55.05 620.478 48.327 618.984 43.596C617.739 40.359 615.498 38.865 609.273 38.865C603.048 38.865 600.558 40.359 599.562 43.596C597.819 48.327 597.072 55.05 597.072 96.633C597.072 136.971 597.819 143.694 599.562 148.674C600.558 151.911 603.048 153.156 609.273 153.156C615.498 153.156 617.739 151.911 618.984 148.674ZM735.107 192H696.014V43.347H666.383V3.50699H764.738V43.347H735.107V192ZM842.343 192H803.25V43.347H773.619V3.50699H871.974V43.347H842.343V192ZM970.86 179.799C964.386 191.502 953.181 195.237 929.277 195.237C905.124 195.237 893.919 191.502 887.445 179.799C880.971 168.345 878.232 156.891 878.232 97.629C878.232 38.367 880.971 27.411 887.445 15.708C893.919 4.254 905.124 0.26999 929.277 0.26999C953.181 0.26999 964.386 4.254 970.86 15.708C977.334 27.411 980.073 38.367 980.073 97.629C980.073 156.891 977.334 168.345 970.86 179.799ZM938.988 148.674C940.482 143.694 941.229 136.971 941.229 96.633C941.229 55.05 940.482 48.327 938.988 43.596C937.743 40.359 935.502 38.865 929.277 38.865C923.052 38.865 920.562 40.359 919.566 43.596C917.823 48.327 917.076 55.05 917.076 96.633C917.076 136.971 917.823 143.694 919.566 148.674C920.562 151.911 923.052 153.156 929.277 153.156C935.502 153.156 937.743 151.911 938.988 148.674Z" fill="#FAF1E7"/>
</svg>
