<svg width="34" height="31" viewBox="0 0 34 31" fill="none" xmlns="http://www.w3.org/2000/svg">
<path d="M17.17 26.2698L17 26.4387L16.813 26.2698C8.738 18.9886 3.4 14.1738 3.4 9.29155C3.4 5.91281 5.95 3.37875 9.35 3.37875C11.968 3.37875 14.518 5.06812 15.419 7.36567H18.581C19.482 5.06812 22.032 3.37875 24.65 3.37875C28.05 3.37875 30.6 5.91281 30.6 9.29155C30.6 14.1738 25.262 18.9886 17.17 26.2698ZM24.65 0C21.692 0 18.853 1.36839 17 3.5139C15.147 1.36839 12.308 0 9.35 0C4.114 0 0 4.07139 0 9.29155C0 15.6605 5.78 20.8807 14.535 28.77L17 31L19.465 28.77C28.22 20.8807 34 15.6605 34 9.29155C34 4.07139 29.886 0 24.65 0Z" fill="#FF4409"/>
</svg>
