<svg width="36" height="30" viewBox="0 0 36 30" fill="none" xmlns="http://www.w3.org/2000/svg">
<path d="M9.81818 0C13.2545 0 16.2425 1.51097 18 4.04309C19.7575 1.51097 22.7455 0 26.1818 0C28.7848 0.00295591 31.2804 1.01251 33.121 2.80719C34.9616 4.60188 35.997 7.03514 36 9.57321C36 14.2322 33.0218 19.081 27.1473 23.9825C24.4554 26.219 21.5476 28.1961 18.4647 29.886C18.3219 29.9608 18.1622 30 18 30C17.8378 30 17.6781 29.9608 17.5353 29.886C14.4524 28.1961 11.5446 26.219 8.85273 23.9825C2.97818 19.081 1.54972e-06 14.2322 1.54972e-06 9.57321C0.0030331 7.03514 1.03842 4.60188 2.87903 2.80719C4.71964 1.01251 7.21517 0.00295591 9.81818 0ZM18 27.9394C20.6853 26.4284 34.0364 18.4635 34.0364 9.57321C34.0342 7.54268 33.206 5.59592 31.7334 4.16012C30.2609 2.72431 28.2643 1.91675 26.1818 1.91464C22.8633 1.91464 20.0765 3.64261 18.9082 6.42522C18.8342 6.6008 18.7084 6.75098 18.5467 6.85667C18.385 6.96236 18.1947 7.01879 18 7.01879C17.8053 7.01879 17.615 6.96236 17.4533 6.85667C17.2916 6.75098 17.1658 6.6008 17.0918 6.42522C15.9235 3.64261 13.1367 1.91464 9.81818 1.91464C7.73569 1.91675 5.73912 2.72431 4.26657 4.16012C2.79403 5.59592 1.9658 7.54268 1.96364 9.57321C1.96364 18.4635 15.3147 26.4284 18 27.9394Z" fill="black"/>
</svg>
