<svg width="105" height="128" viewBox="0 0 105 128" fill="none" xmlns="http://www.w3.org/2000/svg">
<path d="M52.2095 0L0 23.1554V57.8886C0 90.0167 22.276 120.061 52.2095 127.355C82.1429 120.061 104.419 90.0167 104.419 57.8886V23.1554L52.2095 0ZM70.0767 86.8329L52.2095 76.1235L34.4002 86.8329L39.0991 66.5719L23.3782 53.0259L44.146 51.2314L52.2095 32.1282L60.2729 51.1735L81.0407 52.9681L65.3198 66.5719L70.0767 86.8329Z" fill="#F7E1CD"/>
<circle cx="52.2079" cy="61.9989" r="34.5888" fill="#F7E1CD"/>
<path d="M54.532 87.7372V79.1032H35.2635V71.2063L51.847 44.8306H63.5871V71.2063H69.2202V79.1032H63.5871V87.7372H54.532ZM44.4239 71.2063H54.532V54.6754L44.4239 71.2063Z" fill="#FA4008"/>
</svg>
