<svg width="105" height="128" viewBox="0 0 105 128" fill="none" xmlns="http://www.w3.org/2000/svg">
<path d="M52.2095 0L0 23.1554V57.8886C0 90.0167 22.276 120.061 52.2095 127.355C82.1429 120.061 104.419 90.0167 104.419 57.8886V23.1554L52.2095 0ZM70.0767 86.8329L52.2095 76.1235L34.4002 86.8329L39.0991 66.5719L23.3782 53.0259L44.146 51.2314L52.2095 32.1282L60.2729 51.1735L81.0407 52.9681L65.3198 66.5719L70.0767 86.8329Z" fill="#F7E1CD"/>
<circle cx="52.2079" cy="61.9989" r="34.5888" fill="#F7E1CD"/>
<path d="M50.952 43.6724C60.5863 43.6724 66.2721 49.3582 66.2721 57.1498C66.2721 61.6247 64.1136 65.4679 56.5852 73.2595L50.4256 79.6297H67.1144V87.7372H36.4217V82.262L50.4782 67.7843C55.6376 62.467 56.8484 59.6768 56.8484 57.2551C56.8484 54.0963 55.1111 51.9905 50.952 51.9905C47.0562 51.9905 44.9504 55.1492 44.9504 58.4133H35.5267C35.5267 49.9899 41.8969 43.6724 50.952 43.6724Z" fill="#FA4008"/>
</svg>
