<svg width="64" height="104" viewBox="0 0 64 104" fill="none" xmlns="http://www.w3.org/2000/svg">
<path d="M0 0H63.7302V103.889L31.8651 87.1326L0 103.889V0Z" fill="#FF4409"/>
<path d="M30.4536 58.4835C28.7502 58.4835 27.0586 58.2618 25.3786 57.8185C23.6986 57.3518 22.2752 56.6985 21.1086 55.8585L23.3136 51.5185C24.2469 52.1951 25.3319 52.7318 26.5686 53.1285C27.8052 53.5251 29.0536 53.7235 30.3136 53.7235C31.7369 53.7235 32.8569 53.4435 33.6736 52.8835C34.4902 52.3235 34.8986 51.5535 34.8986 50.5735C34.8986 49.6401 34.5369 48.9051 33.8136 48.3685C33.0902 47.8318 31.9236 47.5635 30.3136 47.5635H27.7236V43.8185L34.5486 36.0835L35.1786 38.1135H22.3336V33.5635H39.4836V37.2385L32.6936 44.9735L29.8236 43.3285H31.4686C34.4786 43.3285 36.7536 44.0051 38.2936 45.3585C39.8336 46.7118 40.6036 48.4501 40.6036 50.5735C40.6036 51.9501 40.2419 53.2451 39.5186 54.4585C38.7952 55.6485 37.6869 56.6168 36.1936 57.3635C34.7002 58.1101 32.7869 58.4835 30.4536 58.4835Z" fill="white"/>
</svg>
