<svg width="474" height="239" viewBox="0 0 474 239" fill="none" xmlns="http://www.w3.org/2000/svg">
<path d="M80.7526 82L71.0145 1.51144H86.1185L90.8882 48.4134L96.9497 1.61081H108.775L115.134 48.1153L120.003 1.51144H134.908L125.27 82H109.768L102.912 33.4088L96.4528 82H80.7526ZM133.692 82L148.895 1.51144H169.167L184.171 82H167.775L165.092 65.008H153.268L150.485 82H133.692ZM154.858 54.3755H163.403L159.13 22.9751L154.858 54.3755ZM194.092 82V49.109L178.789 1.51144H195.582L203.234 26.9498L210.09 1.51144H226.188L211.183 49.109V82H194.092ZM246.461 82V1.51144H268.621C274.053 1.51144 278.756 2.10765 282.731 3.30008C286.706 4.4925 289.786 6.64549 291.972 9.75903C294.225 12.8063 295.351 17.1454 295.351 22.7763C295.351 26.0886 295.086 29.0365 294.556 31.6201C294.026 34.2037 293.032 36.4561 291.575 38.3772C290.184 40.2321 288.163 41.7888 285.513 43.0475L296.543 82H278.16L269.316 45.9292H264.248V82H246.461ZM264.248 35.6942H269.217C271.734 35.6942 273.688 35.2636 275.08 34.4024C276.471 33.475 277.431 32.1832 277.961 30.5271C278.557 28.8047 278.856 26.7511 278.856 24.3662C278.856 20.9214 278.226 18.2385 276.968 16.3174C275.709 14.3962 273.39 13.4357 270.012 13.4357H264.248V35.6942ZM324.739 83.1924C318.578 83.1924 313.742 82.1987 310.231 80.2114C306.786 78.1577 304.368 75.2098 302.977 71.3676C301.586 67.4591 300.891 62.6894 300.891 57.0585V1.51144H318.479V59.7414C318.479 61.3976 318.611 63.0537 318.876 64.7099C319.141 66.366 319.704 67.724 320.565 68.784C321.493 69.8439 322.884 70.3739 324.739 70.3739C326.66 70.3739 328.051 69.8439 328.912 68.784C329.774 67.724 330.304 66.366 330.502 64.7099C330.767 63.0537 330.9 61.3976 330.9 59.7414V1.51144H348.587V57.0585C348.587 62.6894 347.859 67.4591 346.401 71.3676C345.01 75.2098 342.592 78.1577 339.147 80.2114C335.703 82.1987 330.9 83.1924 324.739 83.1924ZM355.93 82V1.51144H368.45L384.945 40.2652V1.51144H399.652V82H387.628L371.133 40.2652V82H355.93ZM6.10662 170L7.49778 89.5114H26.5766L35.4204 136.314L44.9597 89.5114H63.3429L64.7341 170H52.1143L50.6237 116.44L41.2831 170H30.0545L20.1176 116.043L18.9252 170H6.10662ZM72.3956 170V89.5114H108.566V101.634H90.1825V121.607H104.194V133.929H90.1825V157.976H108.764V170H72.3956ZM108.99 170L124.193 89.5114H144.464L159.469 170H143.073L140.39 153.008H128.565L125.783 170H108.99ZM130.155 142.376H138.701L134.428 110.975L130.155 142.376ZM292.318 170V89.5114H304.839L321.334 128.265V89.5114H336.041V170H324.017L307.522 128.265V170H292.318ZM344.144 170V89.5114H361.931V170H344.144ZM369.958 170V89.5114H382.478L398.974 128.265V89.5114H413.68V170H401.656L385.161 128.265V170H369.958ZM442.651 171.192C437.086 171.192 432.681 170.033 429.435 167.715C426.255 165.396 423.969 162.15 422.578 157.976C421.253 153.737 420.591 148.868 420.591 143.369V116.341C420.591 110.644 421.32 105.709 422.777 101.535C424.234 97.3616 426.719 94.1486 430.23 91.8963C433.807 89.5777 438.643 88.4184 444.737 88.4184C450.7 88.4184 455.37 89.4121 458.748 91.3994C462.193 93.3868 464.644 96.136 466.102 99.647C467.559 103.158 468.288 107.265 468.288 111.969V117.136H450.898V110.578C450.898 108.855 450.766 107.265 450.501 105.808C450.302 104.35 449.772 103.191 448.911 102.33C448.116 101.403 446.791 100.939 444.936 100.939C443.015 100.939 441.624 101.469 440.763 102.529C439.901 103.522 439.338 104.781 439.073 106.305C438.875 107.828 438.775 109.418 438.775 111.074V148.338C438.775 150.126 438.941 151.816 439.272 153.405C439.67 154.929 440.332 156.188 441.26 157.181C442.253 158.109 443.644 158.573 445.433 158.573C447.288 158.573 448.712 158.076 449.706 157.082C450.7 156.088 451.395 154.797 451.793 153.207C452.19 151.617 452.389 149.928 452.389 148.139V138.699H445.135V128.265H468.387V170H456.662L455.668 163.342C454.608 165.595 453.051 167.483 450.998 169.006C448.944 170.464 446.162 171.192 442.651 171.192Z" fill="#FF4409"/>
<path d="M284.855 154.897C290.817 166.183 292.184 178.055 293.919 190.49C294.015 191.189 294.162 191.97 294.744 192.369C295.173 192.664 295.737 192.669 296.258 192.66C300.12 192.599 303.982 192.538 307.843 192.478C308.854 165.081 301.252 135.927 275.201 121.773C271.92 119.989 244.558 110.895 243.118 116.466C240.831 125.318 242.415 126.064 250.971 129.006C254.495 130.217 258.239 130.828 261.663 132.317C271.682 136.66 279.809 145.364 284.851 154.901L284.855 154.897Z" fill="#FAF1E7"/>
<path d="M282.607 156.212C283.024 157.002 283.423 157.805 283.805 158.616C283.974 158.972 284.135 159.328 284.295 159.688C284.386 159.896 284.477 160.104 284.568 160.317C284.594 160.373 284.72 160.681 284.59 160.365C284.46 160.048 284.621 160.443 284.647 160.504C285.297 162.079 285.883 163.684 286.408 165.303C287.45 168.513 288.248 171.798 288.907 175.105C289.571 178.441 290.088 181.804 290.569 185.171C290.812 186.881 291.047 188.595 291.285 190.304C291.42 191.259 291.537 192.114 291.958 192.994C292.466 194.062 293.537 194.886 294.687 195.121C295.828 195.355 297.03 195.246 298.189 195.229C299.26 195.212 300.337 195.194 301.408 195.177C303.556 195.142 305.7 195.108 307.847 195.077C309.292 195.056 310.399 193.901 310.451 192.474C310.707 185.462 310.369 178.454 309.397 171.507C308.459 164.83 306.858 158.226 304.381 151.951C301.903 145.677 298.375 139.32 293.928 133.875C289.454 128.399 283.931 123.769 277.808 120.241C274.567 118.376 270.918 117.252 267.368 116.141C262.621 114.653 257.775 113.321 252.854 112.574C250.724 112.253 248.515 111.937 246.359 112.132C244.363 112.31 242.193 112.843 241.082 114.692C240.766 115.221 240.614 115.798 240.466 116.384C240.275 117.148 240.102 117.916 239.959 118.688C239.72 119.985 239.494 121.344 239.607 122.667C239.716 123.925 239.998 125.175 240.722 126.238C241.447 127.301 242.38 128.108 243.473 128.755C244.679 129.471 246.016 129.978 247.326 130.469C248.992 131.093 250.676 131.679 252.386 132.174C254.564 132.803 256.781 133.311 258.929 134.04C259.432 134.209 259.931 134.4 260.426 134.595C260.552 134.647 260.882 134.721 260.356 134.565C260.461 134.595 260.573 134.66 260.669 134.704C260.903 134.808 261.138 134.912 261.367 135.025C262.218 135.424 263.055 135.853 263.875 136.313C265.572 137.264 267.199 138.331 268.748 139.498C268.839 139.568 268.93 139.641 269.022 139.706C268.97 139.672 268.549 139.338 268.904 139.615C269.082 139.759 269.265 139.902 269.442 140.045C269.824 140.353 270.197 140.665 270.566 140.982C271.287 141.603 271.99 142.24 272.671 142.9C274.081 144.262 275.413 145.707 276.658 147.217C276.953 147.573 277.24 147.933 277.526 148.293C277.617 148.406 277.847 148.645 277.435 148.176C277.509 148.263 277.578 148.363 277.643 148.45C277.799 148.654 277.956 148.862 278.108 149.07C278.685 149.856 279.244 150.654 279.782 151.465C280.798 153.001 281.739 154.589 282.603 156.221C283.241 157.427 285.015 157.896 286.165 157.154C287.389 156.364 287.784 154.88 287.098 153.591C283.51 146.823 278.568 140.605 272.51 135.879C269.265 133.345 265.802 131.219 261.988 129.653C259.949 128.815 257.818 128.26 255.692 127.687C253.757 127.167 251.852 126.576 249.964 125.908C249.309 125.678 248.654 125.44 248.007 125.184C247.86 125.127 247.717 125.066 247.574 125.01C247.005 124.776 248.047 125.223 247.682 125.053C247.413 124.932 247.144 124.815 246.879 124.685C246.432 124.463 245.994 124.22 245.582 123.934C245.382 123.795 245.096 123.5 245.782 124.099C245.703 124.029 245.621 123.969 245.539 123.899C245.378 123.76 245.235 123.604 245.087 123.452C244.758 123.105 245.317 123.665 245.287 123.726C245.296 123.704 245.139 123.517 245.122 123.491C245.074 123.413 244.879 122.94 244.818 122.927C244.909 122.949 245.113 123.691 244.948 123.209C244.922 123.127 244.896 123.045 244.875 122.958C244.849 122.858 244.823 122.758 244.805 122.658C244.797 122.606 244.788 122.554 244.775 122.502C244.688 122.129 244.836 122.893 244.827 122.914C244.888 122.788 244.779 122.376 244.779 122.229C244.771 121.96 244.779 121.695 244.797 121.426C244.814 121.157 244.844 120.871 244.875 120.593C244.905 120.285 244.779 121.261 244.827 120.953C244.84 120.875 244.849 120.801 244.862 120.723C244.888 120.545 244.918 120.367 244.948 120.189C245.079 119.447 245.244 118.714 245.426 117.981C245.5 117.677 245.591 117.373 245.66 117.07C245.743 116.696 245.526 117.464 245.473 117.495C245.508 117.473 245.552 117.347 245.573 117.313C245.808 116.909 245.001 117.903 245.404 117.543C245.439 117.508 245.482 117.473 245.517 117.438C245.708 117.221 244.866 117.872 245.187 117.694C245.3 117.634 245.408 117.564 245.517 117.499C245.873 117.295 245.209 117.651 245.126 117.655C245.196 117.655 245.287 117.595 245.352 117.569C245.664 117.46 245.986 117.395 246.307 117.334C246.784 117.243 246.007 117.434 245.942 117.378C245.968 117.399 246.172 117.352 246.215 117.347C246.419 117.326 246.623 117.313 246.827 117.3C247.734 117.256 248.641 117.295 249.544 117.369C250.082 117.412 250.62 117.477 251.158 117.543C251.544 117.59 250.385 117.434 250.91 117.508C251.045 117.525 251.179 117.547 251.314 117.564C251.605 117.608 251.895 117.651 252.186 117.703C253.375 117.898 254.555 118.133 255.731 118.393C258.174 118.927 260.595 119.565 262.995 120.259C265.164 120.888 267.321 121.565 269.455 122.298C270.302 122.589 271.148 122.893 271.985 123.209C272.324 123.335 272.658 123.465 272.996 123.604C273.126 123.656 273.261 123.713 273.391 123.765C273.643 123.869 272.623 123.435 273.009 123.604C273.083 123.635 273.157 123.669 273.23 123.7C274.103 124.086 274.923 124.581 275.743 125.067C277.231 125.947 278.68 126.889 280.082 127.9C280.42 128.143 280.759 128.39 281.093 128.642C281.236 128.75 281.384 128.863 281.527 128.972C280.88 128.49 281.579 129.015 281.735 129.141C282.377 129.653 283.011 130.178 283.631 130.72C284.894 131.818 286.104 132.977 287.263 134.183C288.404 135.376 289.493 136.617 290.53 137.901C290.656 138.058 290.778 138.214 290.903 138.37C290.964 138.448 291.025 138.526 291.086 138.604C291.064 138.574 290.695 138.092 290.951 138.431C291.207 138.769 291.459 139.103 291.711 139.446C292.192 140.106 292.661 140.774 293.116 141.455C294.921 144.15 296.51 146.987 297.885 149.921C298.232 150.663 298.566 151.409 298.887 152.164C298.952 152.311 299.052 152.62 298.801 151.956C298.835 152.047 298.879 152.138 298.913 152.229C298.991 152.411 299.065 152.598 299.139 152.78C299.287 153.149 299.434 153.518 299.577 153.891C300.172 155.427 300.71 156.985 301.204 158.56C302.198 161.732 302.992 164.968 303.613 168.236C303.921 169.859 304.185 171.486 304.411 173.122C304.498 173.764 304.337 172.544 304.42 173.187C304.446 173.391 304.472 173.59 304.498 173.794C304.55 174.224 304.602 174.653 304.65 175.083C304.745 175.92 304.827 176.758 304.901 177.595C305.192 180.923 305.335 184.264 305.34 187.605C305.34 189.233 305.313 190.855 305.253 192.482L307.856 189.879C304.172 189.935 300.488 189.996 296.805 190.053C296.596 190.053 296.388 190.061 296.18 190.061C296.063 190.061 295.512 190.005 295.911 190.083C296.31 190.161 295.971 190.1 295.911 190.074C295.906 190.074 296.397 190.309 296.141 190.174C295.859 190.027 296.427 190.43 296.484 190.491C296.779 190.795 296.444 190.291 296.596 190.686C296.748 191.081 296.583 190.595 296.557 190.491C296.523 190.339 296.492 190.187 296.47 190.035C296.405 189.636 296.358 189.233 296.301 188.833C296.067 187.154 295.837 185.475 295.598 183.8C294.67 177.287 293.594 170.765 291.615 164.478C290.435 160.734 288.938 157.071 287.111 153.596C286.478 152.39 284.694 151.925 283.549 152.663C282.321 153.457 281.935 154.932 282.616 156.225L282.607 156.212Z" fill="#FF4409"/>
<path d="M311.718 194.431C314.881 188.952 311.729 181.21 304.677 177.139C297.625 173.067 289.344 174.208 286.181 179.687C283.017 185.166 286.17 192.908 293.222 196.98C300.274 201.051 308.555 199.91 311.718 194.431Z" fill="#FF4409"/>
<path d="M309.469 193.115C309.317 193.371 309.156 193.614 308.987 193.862C308.948 193.918 308.9 193.966 308.866 194.027C308.853 194.053 309.247 193.571 309.065 193.766C308.957 193.879 308.866 194.009 308.761 194.122C308.566 194.339 308.362 194.543 308.15 194.743C308.032 194.847 307.915 194.946 307.798 195.051C307.499 195.32 308.293 194.699 307.846 195.016C307.364 195.354 306.865 195.667 306.336 195.927C306.197 195.997 306.032 196.049 305.898 196.131C305.872 196.148 306.462 195.914 306.201 196.001C306.136 196.023 306.071 196.053 306.006 196.079C305.698 196.196 305.386 196.3 305.073 196.391C304.8 196.469 304.522 196.539 304.24 196.6C304.075 196.634 303.91 196.669 303.741 196.695C303.667 196.708 303.598 196.717 303.524 196.73C303.164 196.795 303.702 196.704 303.78 196.699C303.103 196.756 302.439 196.821 301.758 196.812C301.45 196.812 301.142 196.795 300.834 196.773C300.652 196.76 300.469 196.743 300.292 196.725C300.213 196.717 300.135 196.708 300.057 196.699C299.714 196.665 300.621 196.791 300.279 196.73C299.558 196.604 298.851 196.465 298.144 196.27C297.823 196.179 297.506 196.079 297.193 195.97C297.007 195.905 296.825 195.84 296.642 195.771C296.564 195.741 296.486 195.71 296.404 195.68C296.083 195.558 296.434 195.688 296.556 195.749C295.883 195.406 295.193 195.116 294.534 194.738C293.874 194.361 293.28 193.94 292.668 193.51C292.434 193.345 292.88 193.679 292.872 193.671C292.811 193.619 292.746 193.571 292.681 193.519C292.533 193.402 292.39 193.285 292.247 193.163C291.987 192.942 291.731 192.712 291.483 192.473C290.98 191.992 290.507 191.484 290.064 190.946C290.017 190.889 289.969 190.829 289.921 190.768C289.739 190.551 290.108 191.015 290.095 190.998C290.012 190.876 289.917 190.759 289.826 190.638C289.626 190.356 289.431 190.069 289.249 189.779C288.906 189.228 288.606 188.655 288.329 188.069C288.298 188.008 288.277 187.935 288.242 187.874C288.225 187.843 288.463 188.434 288.368 188.173C288.32 188.043 288.264 187.913 288.216 187.783C288.103 187.483 288.003 187.175 287.912 186.867C287.83 186.585 287.76 186.303 287.7 186.017C287.674 185.886 287.648 185.756 287.621 185.622C287.578 185.383 287.578 184.806 287.617 185.657C287.591 185.088 287.526 184.537 287.548 183.964C287.552 183.834 287.561 183.708 287.569 183.578C287.578 183.448 287.643 182.919 287.578 183.413C287.513 183.908 287.578 183.431 287.6 183.318C287.626 183.17 287.656 183.027 287.691 182.88C287.752 182.611 287.825 182.342 287.912 182.081C287.951 181.96 287.999 181.838 288.038 181.721C288.225 181.187 287.782 182.25 288.021 181.751C288.259 181.252 288.559 180.736 288.889 180.254C289.197 179.803 288.567 180.628 288.849 180.298C288.936 180.198 289.023 180.094 289.114 179.994C289.322 179.76 289.544 179.538 289.778 179.33C289.878 179.239 289.982 179.157 290.082 179.066C290.412 178.77 289.617 179.395 289.978 179.139C290.234 178.957 290.494 178.775 290.763 178.614C291.015 178.462 291.275 178.319 291.544 178.189C291.666 178.128 291.796 178.076 291.917 178.015C292.16 177.89 291.583 178.15 291.613 178.141C291.722 178.107 291.83 178.054 291.939 178.015C292.516 177.798 293.106 177.629 293.709 177.503C293.852 177.473 293.991 177.447 294.134 177.421C294.23 177.404 294.325 177.391 294.421 177.373C294.707 177.321 294.056 177.417 294.091 177.417C294.438 177.386 294.781 177.343 295.128 177.326C295.788 177.291 296.451 177.3 297.115 177.352C297.272 177.365 297.428 177.378 297.584 177.395C297.662 177.404 297.74 177.412 297.818 177.421C298.161 177.456 297.254 177.334 297.597 177.391C297.94 177.447 298.283 177.503 298.621 177.577C299.346 177.733 300.062 177.933 300.76 178.18C300.921 178.237 301.077 178.293 301.233 178.354C301.402 178.419 301.966 178.697 301.32 178.38C301.654 178.545 302.001 178.684 302.335 178.853C303.025 179.196 303.689 179.582 304.331 180.007C304.605 180.189 304.874 180.38 305.138 180.571C305.511 180.84 304.735 180.246 305.19 180.61C305.338 180.727 305.481 180.845 305.624 180.966C306.162 181.426 306.674 181.916 307.152 182.433C307.36 182.658 307.559 182.888 307.755 183.123C307.876 183.266 308.21 183.752 307.772 183.127C307.872 183.27 307.98 183.405 308.08 183.548C308.449 184.064 308.787 184.602 309.087 185.162C309.234 185.435 309.373 185.709 309.503 185.991C309.534 186.056 309.56 186.121 309.59 186.182C309.716 186.429 309.456 185.852 309.464 185.882C309.521 186.056 309.603 186.229 309.668 186.403C309.872 186.958 310.037 187.527 310.159 188.104C310.189 188.256 310.219 188.408 310.245 188.564C310.263 188.677 310.332 189.162 310.267 188.677C310.202 188.191 310.263 188.677 310.271 188.789C310.289 188.963 310.297 189.136 310.306 189.31C310.315 189.57 310.319 189.826 310.306 190.087C310.302 190.239 310.293 190.386 310.28 190.538C310.271 190.659 310.206 191.202 310.271 190.703C310.336 190.204 310.258 190.759 310.237 190.863C310.215 190.989 310.189 191.115 310.159 191.237C310.094 191.527 310.011 191.814 309.916 192.096C309.877 192.217 309.829 192.334 309.785 192.456C309.642 192.868 310.041 191.913 309.85 192.308C309.72 192.582 309.586 192.851 309.438 193.115C308.766 194.3 309.117 196.014 310.371 196.678C311.625 197.342 313.213 197.008 313.934 195.745C317.14 190.095 315.018 183.335 310.879 178.805C306.284 173.781 298.903 171.017 292.178 172.518C289.045 173.216 286.311 174.987 284.424 177.577C282.753 179.873 282.067 182.927 282.402 185.726C283.213 192.478 288.246 197.858 294.364 200.44C300.161 202.887 307.989 202.787 312.458 197.754C313.009 197.133 313.513 196.461 313.934 195.745C314.623 194.569 314.242 192.838 313.001 192.182C311.76 191.527 310.176 191.861 309.438 193.115H309.469Z" fill="#FF4409"/>
<path d="M164.667 143.233C158.588 154.74 156.319 167.905 155.698 180.901C151.086 180.896 146.473 180.888 141.843 180.879C137.205 180.271 143.34 153.382 144.169 150.163C148.382 133.878 159.36 118.219 174.313 110.1C177.597 108.317 204.955 99.2221 206.391 104.793C208.678 113.645 207.094 114.391 198.538 117.333C195.014 118.544 191.27 119.156 187.846 120.644C177.827 124.987 169.7 133.692 164.658 143.229L164.667 143.233Z" fill="#FAF1E7"/>
<path d="M166.914 144.544C166.311 145.689 165.742 146.848 165.209 148.024C165.105 148.258 164.996 148.496 164.892 148.731C164.827 148.878 164.762 149.026 164.701 149.173L164.662 149.26C164.549 149.525 164.562 149.499 164.697 149.173C164.614 149.191 164.393 149.911 164.367 149.98C164.237 150.31 164.107 150.64 163.976 150.97C163.074 153.317 162.297 155.717 161.638 158.142C160.978 160.568 160.436 162.98 159.984 165.432C159.755 166.677 159.551 167.927 159.368 169.181C159.325 169.472 159.286 169.758 159.247 170.049C159.225 170.209 159.138 170.673 159.247 170.031C159.225 170.157 159.212 170.292 159.195 170.417C159.112 171.064 159.034 171.706 158.965 172.353C158.648 175.19 158.435 178.041 158.297 180.892C158.227 182.298 157.16 183.495 155.693 183.495C152.881 183.495 150.07 183.487 147.258 183.482C145.852 183.482 144.442 183.482 143.036 183.478C142.003 183.478 141.04 183.513 140.125 182.988C138.085 181.82 137.699 179.195 137.565 177.078C137.408 174.596 137.651 172.084 137.938 169.623C138.302 166.504 138.793 163.397 139.361 160.303C140.155 155.981 140.988 151.616 142.233 147.394C144.802 138.69 149.093 130.581 154.713 123.469C157.437 120.024 160.505 116.852 163.898 114.057C165.686 112.586 167.547 111.198 169.487 109.935C170.754 109.111 172.06 108.269 173.431 107.631C175.245 106.789 177.141 106.126 179.033 105.483C181.628 104.598 184.253 103.795 186.9 103.067C189.716 102.294 192.558 101.6 195.435 101.097C197.93 100.658 200.555 100.233 203.097 100.441C205.471 100.637 208.035 101.413 208.855 103.93C209.402 105.605 209.701 107.44 209.879 109.185C210.014 110.478 209.975 111.892 209.502 113.116C208.916 114.643 207.953 115.758 206.625 116.7C205.414 117.559 203.974 118.101 202.603 118.631C200.681 119.368 198.728 120.041 196.749 120.601C194.246 121.304 191.703 121.881 189.277 122.84C189.156 122.887 189.026 122.931 188.909 122.987C189.481 122.709 188.961 122.97 188.848 123.018C188.64 123.109 188.431 123.204 188.227 123.3C187.685 123.551 187.151 123.816 186.622 124.094C185.637 124.61 184.674 125.165 183.732 125.76C182.791 126.354 181.918 126.957 181.042 127.604C180.916 127.695 180.148 128.311 180.747 127.821C180.547 127.986 180.339 128.138 180.139 128.303C179.671 128.68 179.207 129.066 178.751 129.465C177.076 130.919 175.501 132.49 174.034 134.152C173.67 134.564 173.314 134.976 172.963 135.397C172.611 135.818 172.138 136.265 171.878 136.742C172.134 136.269 172.077 136.477 171.969 136.625C171.882 136.738 171.795 136.855 171.709 136.968C171.552 137.176 171.401 137.38 171.244 137.592C170.906 138.057 170.576 138.525 170.251 138.998C169.031 140.777 167.916 142.63 166.905 144.535C166.267 145.741 164.493 146.21 163.343 145.468C162.119 144.678 161.724 143.194 162.41 141.905C166.623 133.965 172.676 126.884 180.165 121.872C181.94 120.683 183.806 119.629 185.75 118.735C188.167 117.62 190.67 116.847 193.235 116.157C195.456 115.563 197.639 114.903 199.808 114.131C200.559 113.862 201.305 113.584 202.043 113.285C202.399 113.142 201.726 113.424 201.731 113.415C201.783 113.363 201.913 113.337 201.978 113.307C202.121 113.242 202.264 113.177 202.403 113.111C202.694 112.973 202.98 112.829 203.262 112.669C203.488 112.539 203.714 112.404 203.93 112.252C203.974 112.222 204.022 112.187 204.065 112.157C204.382 111.949 203.544 112.582 203.761 112.396C203.87 112.304 203.983 112.213 204.087 112.118C204.23 111.988 204.377 111.727 204.542 111.632C204.403 111.714 204.1 112.27 204.347 111.87C204.421 111.749 204.499 111.632 204.564 111.502C204.607 111.419 204.642 111.328 204.69 111.241C204.247 112.053 204.495 111.723 204.581 111.454C204.655 111.22 204.698 110.981 204.746 110.742C204.811 110.452 204.664 111.541 204.69 111.15C204.69 111.094 204.703 111.037 204.707 110.985C204.72 110.842 204.729 110.695 204.729 110.551C204.738 110.252 204.729 109.948 204.707 109.649C204.698 109.493 204.681 109.341 204.668 109.185C204.659 109.115 204.651 109.041 204.646 108.972C204.607 108.525 204.742 109.605 204.69 109.276C204.625 108.877 204.564 108.477 204.486 108.078C204.317 107.202 204.082 106.343 203.883 105.475C203.883 105.462 203.822 105.271 203.818 105.271C203.805 105.275 204.186 106.087 203.978 105.687C203.948 105.631 203.9 105.583 203.874 105.531C204.204 106.247 204.347 106.073 204.117 105.865C204.082 105.835 203.974 105.761 203.957 105.718C203.983 105.774 204.651 106.186 204.299 105.991C204.156 105.913 204.013 105.835 203.87 105.757C204.751 106.251 204.312 105.93 203.983 105.831C203.792 105.774 203.596 105.726 203.401 105.687C203.306 105.67 203.21 105.653 203.115 105.64C202.685 105.561 203.93 105.731 203.44 105.683C203.202 105.661 202.963 105.635 202.724 105.622C201.652 105.566 200.576 105.627 199.509 105.731C199.223 105.757 198.936 105.791 198.65 105.826C198.515 105.844 197.947 105.917 198.507 105.844C199.066 105.77 198.381 105.861 198.255 105.883C197.613 105.978 196.975 106.082 196.337 106.199C194.944 106.455 193.56 106.755 192.18 107.08C187.177 108.269 182.209 109.749 177.401 111.575C177.028 111.719 176.655 111.866 176.282 112.018C175.679 112.265 176.972 111.719 176.421 111.957C176.291 112.014 176.165 112.07 176.035 112.131C174.694 112.756 173.418 113.58 172.177 114.383C171.288 114.96 170.416 115.559 169.561 116.188C169.335 116.353 169.11 116.518 168.888 116.687C168.801 116.752 168.71 116.826 168.624 116.891C169.149 116.518 168.867 116.7 168.754 116.791C168.315 117.138 167.877 117.485 167.443 117.841C165.799 119.204 164.232 120.653 162.744 122.184C161.256 123.716 159.833 125.335 158.496 127.014C158.427 127.101 158.357 127.192 158.288 127.278C158.253 127.322 157.893 127.747 158.179 127.417C158.466 127.088 158.106 127.513 158.071 127.556C158.002 127.647 157.932 127.738 157.867 127.825C157.524 128.276 157.19 128.732 156.865 129.192C156.24 130.068 155.637 130.958 155.051 131.861C153.901 133.64 152.838 135.475 151.857 137.358C151.363 138.308 150.89 139.267 150.443 140.239C150.23 140.699 150.022 141.159 149.822 141.623C149.753 141.788 149.432 142.574 149.723 141.853C149.618 142.114 149.506 142.37 149.402 142.63C147.475 147.381 146.269 152.289 145.236 157.296C144.685 159.978 144.177 162.668 143.743 165.371C143.626 166.087 143.518 166.803 143.414 167.523C143.366 167.862 143.318 168.2 143.27 168.534C143.409 167.536 143.305 168.296 143.275 168.513C143.253 168.699 143.227 168.881 143.205 169.068C143.04 170.404 142.902 171.745 142.815 173.086C142.741 174.24 142.698 175.399 142.741 176.553C142.758 177.004 142.897 177.542 142.85 177.989C142.863 177.859 142.724 177.165 142.806 177.633C142.824 177.742 142.841 177.846 142.863 177.954C142.897 178.141 142.941 178.328 142.993 178.51C143.036 178.666 143.093 178.818 143.145 178.97C143.266 179.33 142.789 178.241 142.988 178.597C143.027 178.67 143.062 178.748 143.106 178.818C143.136 178.87 143.188 178.926 143.21 178.978C143.288 179.161 142.685 178.332 142.941 178.623C142.975 178.662 143.036 178.696 143.062 178.744C143.14 178.857 142.385 178.275 142.711 178.466C143.071 178.675 142.112 178.228 142.281 178.297C142.333 178.319 142.385 178.328 142.437 178.341C142.68 178.41 142.095 178.067 142.051 178.262C142.051 178.254 142.52 178.262 142.485 178.262C142.845 178.262 143.21 178.262 143.57 178.262C144.941 178.262 146.312 178.262 147.683 178.267C150.352 178.267 153.02 178.275 155.689 178.28L153.085 180.883C153.584 170.526 155.051 160.056 158.678 150.297C159.746 147.425 160.982 144.613 162.41 141.901C163.044 140.695 164.827 140.231 165.972 140.968C167.2 141.758 167.587 143.238 166.905 144.531L166.914 144.544Z" fill="#FF4409"/>
<path d="M188.163 200.688L142.792 188.963C141.284 188.573 140.377 187.035 140.767 185.526L141.874 181.246C142.263 179.737 143.802 178.831 145.31 179.221L190.681 190.946C192.189 191.336 193.096 192.874 192.706 194.382L191.6 198.663C191.21 200.171 189.672 201.078 188.163 200.688Z" fill="#FFAD62"/>
<path d="M165.694 202.006C163.859 202.865 161.633 202.218 159.997 200.561C159.038 201.581 157.901 202.427 156.591 203.039C149.969 206.132 141.56 202.127 137.807 194.091C134.054 186.055 136.379 177.039 143.005 173.945C149.627 170.851 158.036 174.856 161.789 182.892C162.956 185.392 163.533 187.986 163.581 190.473C165.178 190.993 166.679 192.317 167.556 194.196C169.026 197.346 168.193 200.843 165.698 202.006L165.694 202.006Z" fill="#FF4409"/>
<path d="M167.006 204.254C165.431 204.952 163.842 205.174 162.15 204.757C160.636 204.384 159.252 203.49 158.154 202.405L161.838 202.405C159.451 204.904 156.293 206.336 152.878 206.644C150.053 206.9 147.207 206.158 144.686 204.931C139.145 202.227 135.118 196.513 133.881 190.538C132.645 184.563 133.881 177.898 138.559 173.811C140.876 171.784 143.661 170.626 146.721 170.348C149.567 170.092 152.439 170.843 154.978 172.093C160.762 174.948 164.936 181.105 165.891 187.427C166.042 188.438 166.16 189.449 166.181 190.473L164.272 187.96C167.583 189.084 170.134 192.104 170.703 195.567C171.271 199.029 170.238 202.674 167.01 204.249C165.786 204.844 164.138 204.622 163.448 203.316C162.831 202.145 163.074 200.392 164.381 199.754C164.606 199.641 164.81 199.507 165.023 199.377C165.279 199.22 164.567 199.793 164.862 199.489C164.958 199.394 165.057 199.303 165.144 199.203C165.214 199.125 165.496 198.812 165.196 199.155C164.897 199.498 165.166 199.177 165.222 199.081C165.296 198.964 165.361 198.843 165.426 198.721C165.474 198.63 165.669 198.24 165.465 198.652C165.261 199.064 165.448 198.669 165.483 198.565C165.526 198.426 165.565 198.287 165.6 198.149C165.63 198.031 165.648 197.91 165.674 197.788C165.743 197.472 165.617 198.426 165.648 197.962C165.665 197.68 165.678 197.402 165.669 197.12C165.665 196.99 165.652 196.86 165.643 196.73C165.613 196.17 165.773 197.341 165.652 196.79C165.591 196.521 165.539 196.257 165.461 195.992C165.413 195.831 165.357 195.675 165.305 195.515C165.153 195.063 165.483 195.871 165.339 195.58C165.196 195.289 165.057 195.007 164.893 194.729C164.819 194.608 164.741 194.491 164.658 194.374C164.433 194.044 164.532 194.282 164.715 194.43C164.493 194.252 164.315 193.97 164.107 193.77C164.012 193.679 163.908 193.593 163.812 193.501C163.417 193.124 164.298 193.818 163.847 193.523C163.634 193.384 163.426 193.241 163.2 193.12C163.074 193.05 162.923 192.998 162.801 192.924L163.153 193.076C163.061 193.041 162.97 193.011 162.879 192.981C161.764 192.603 160.996 191.67 160.97 190.468C160.961 190.095 160.944 189.718 160.914 189.345C160.896 189.154 160.879 188.967 160.857 188.776C160.849 188.707 160.809 188.381 160.857 188.741C160.905 189.123 160.844 188.685 160.836 188.611C160.701 187.774 160.506 186.945 160.258 186.134C160.141 185.748 160.011 185.37 159.872 184.993C159.838 184.901 159.603 184.35 159.742 184.641C159.881 184.932 159.733 184.624 159.712 184.576C159.655 184.45 159.599 184.324 159.542 184.198C159.256 183.582 158.935 182.984 158.588 182.402C158.241 181.821 157.842 181.252 157.434 180.697C157.264 180.467 157.616 180.927 157.603 180.914C157.551 180.857 157.507 180.792 157.455 180.732C157.36 180.61 157.26 180.493 157.16 180.376C156.943 180.124 156.722 179.877 156.492 179.638C156.058 179.187 155.607 178.757 155.13 178.349C155.017 178.254 154.904 178.159 154.787 178.067C154.73 178.02 154.67 177.976 154.613 177.929C154.592 177.911 155.078 178.276 154.848 178.115C154.57 177.92 154.301 177.716 154.014 177.529C153.516 177.204 153.003 176.905 152.474 176.636C152.227 176.51 151.953 176.414 151.715 176.275C151.684 176.258 152.275 176.501 152.014 176.401C151.949 176.375 151.884 176.349 151.823 176.323C151.671 176.262 151.524 176.21 151.372 176.154C150.838 175.963 150.292 175.807 149.736 175.685C149.45 175.625 149.163 175.581 148.877 175.529C148.591 175.477 149.285 175.577 149.237 175.577C149.172 175.577 149.103 175.559 149.038 175.555C148.881 175.542 148.73 175.525 148.573 175.516C148.022 175.477 147.471 175.481 146.92 175.516C146.79 175.525 146.655 175.538 146.525 175.551C146.465 175.555 146.386 175.555 146.33 175.572C146.274 175.59 146.977 175.464 146.694 175.525C146.412 175.585 146.13 175.624 145.848 175.69C145.28 175.824 144.751 176.05 144.195 176.219C144.161 176.228 144.751 175.963 144.508 176.089C144.447 176.119 144.382 176.145 144.321 176.171C144.195 176.232 144.065 176.293 143.939 176.358C143.67 176.497 143.405 176.644 143.149 176.805C142.915 176.952 142.69 177.108 142.464 177.269C142.408 177.308 142.355 177.356 142.299 177.39C142.273 177.408 142.755 177.013 142.555 177.195C142.438 177.304 142.308 177.399 142.186 177.508C141.739 177.902 141.327 178.332 140.95 178.788C140.906 178.84 140.863 178.896 140.819 178.948C140.642 179.152 141.032 178.666 141.015 178.692C140.945 178.809 140.85 178.918 140.772 179.026C140.598 179.274 140.438 179.525 140.281 179.781C139.978 180.289 139.761 180.827 139.483 181.343C139.47 181.369 139.7 180.788 139.609 181.048C139.587 181.113 139.557 181.183 139.531 181.248C139.47 181.404 139.414 181.56 139.362 181.721C139.262 182.016 139.166 182.315 139.084 182.619C138.923 183.214 138.81 183.812 138.706 184.415C138.659 184.702 138.75 184.06 138.75 184.094C138.745 184.168 138.732 184.242 138.724 184.316C138.706 184.463 138.693 184.615 138.68 184.767C138.654 185.097 138.637 185.422 138.628 185.752C138.611 186.424 138.633 187.097 138.693 187.765C138.706 187.921 138.724 188.078 138.741 188.234C138.793 188.72 138.654 187.687 138.732 188.169C138.789 188.512 138.849 188.854 138.919 189.193C139.062 189.861 139.236 190.52 139.448 191.171C139.552 191.488 139.665 191.805 139.787 192.117C139.847 192.273 139.917 192.43 139.973 192.586C139.722 191.892 139.973 192.573 140.056 192.746C140.342 193.363 140.663 193.961 141.01 194.543C141.357 195.124 141.722 195.654 142.117 196.187C142.399 196.565 141.791 195.792 142.091 196.153C142.191 196.27 142.286 196.391 142.386 196.508C142.616 196.782 142.854 197.046 143.102 197.307C143.536 197.758 143.987 198.188 144.464 198.595C144.577 198.691 144.69 198.786 144.807 198.878C144.863 198.925 144.924 198.969 144.981 199.016C145.002 199.034 144.516 198.669 144.746 198.83C145.002 199.012 145.254 199.199 145.519 199.372C146.013 199.702 146.53 200.001 147.059 200.27C147.328 200.409 147.623 200.513 147.883 200.661C147.914 200.678 147.324 200.435 147.584 200.535C147.649 200.561 147.714 200.587 147.775 200.613C147.927 200.674 148.074 200.726 148.226 200.782C148.76 200.973 149.307 201.129 149.862 201.251C150.127 201.307 150.391 201.351 150.656 201.399C151.103 201.477 150.04 201.338 150.496 201.377C150.652 201.39 150.804 201.407 150.96 201.42C151.533 201.464 152.105 201.464 152.678 201.42C152.808 201.412 152.943 201.399 153.073 201.385C153.134 201.381 153.212 201.381 153.268 201.364C153.325 201.346 152.622 201.472 152.904 201.412C153.186 201.351 153.468 201.312 153.75 201.247C154.297 201.116 154.813 200.926 155.342 200.743C155.603 200.652 154.999 200.895 155.034 200.873C155.091 200.839 155.16 200.817 155.221 200.791C155.412 200.7 155.598 200.609 155.785 200.513C156.141 200.327 156.483 200.118 156.813 199.893C156.891 199.841 157.356 199.494 157.069 199.719C156.783 199.945 157.23 199.58 157.304 199.52C157.603 199.259 157.885 198.986 158.158 198.7C159.135 197.676 160.857 197.728 161.842 198.7C161.968 198.825 162.293 199.021 162.363 199.177C162.289 199.008 161.951 198.878 162.315 199.134C162.406 199.199 162.502 199.259 162.597 199.316C162.788 199.433 162.988 199.524 163.179 199.628C163.465 199.784 162.697 199.468 163.005 199.55C163.131 199.585 163.257 199.637 163.383 199.672C163.482 199.702 163.586 199.719 163.686 199.745C164.033 199.836 163.56 199.724 163.452 199.728C163.656 199.724 163.86 199.763 164.064 199.754C164.164 199.754 164.268 199.728 164.368 199.737C163.777 199.702 163.942 199.802 164.198 199.745C164.411 199.698 165.088 199.416 164.376 199.732C165.036 199.437 165.656 199.268 166.381 199.472C166.984 199.637 167.639 200.105 167.939 200.67C168.537 201.802 168.333 203.642 167.006 204.232L167.006 204.254Z" fill="#FF4409"/>
<path d="M254.159 232.701H230.729V162.192H243.963L254.159 232.701Z" fill="#FAF1E7"/>
<path d="M254.159 230.098H230.729L233.332 232.701V170.891C233.332 168.036 233.414 165.164 233.332 162.309C233.332 162.269 233.332 162.23 233.332 162.191L230.729 164.795H243.963L241.45 162.886C241.789 165.233 242.132 167.585 242.47 169.932C243.281 175.534 244.089 181.136 244.9 186.742C245.885 193.55 246.87 200.358 247.855 207.17C248.701 213.023 249.547 218.877 250.393 224.73C250.805 227.572 251.122 230.449 251.63 233.274C251.639 233.313 251.643 233.356 251.647 233.395C251.734 233.994 252.346 234.662 252.845 234.953C253.404 235.279 254.225 235.417 254.849 235.213C255.474 235.009 256.086 234.619 256.407 234.016C256.759 233.356 256.776 232.744 256.667 232.011C256.329 229.664 255.986 227.312 255.648 224.965C254.836 219.363 254.029 213.761 253.218 208.155C252.233 201.347 251.248 194.539 250.263 187.727C249.417 181.873 248.571 176.02 247.725 170.167C247.447 168.236 247.165 166.305 246.887 164.378C246.757 163.463 246.666 162.53 246.488 161.623C246.479 161.584 246.475 161.541 246.471 161.501C246.31 160.391 245 159.592 243.958 159.592H230.724C229.318 159.592 228.121 160.786 228.121 162.196V224.006C228.121 226.865 228.064 229.729 228.121 232.588C228.121 232.627 228.121 232.666 228.121 232.705C228.121 234.111 229.314 235.309 230.724 235.309H254.155C255.518 235.309 256.824 234.111 256.759 232.705C256.693 231.3 255.613 230.102 254.155 230.102L254.159 230.098Z" fill="#FF4409"/>
<path d="M272.617 236.389H233.964C232.185 236.389 230.728 234.931 230.728 233.152V224.439C230.728 222.66 232.185 221.202 233.964 221.202H263.904C270.478 221.202 275.854 226.578 275.854 233.152C275.854 234.931 274.396 236.389 272.617 236.389Z" fill="#FF4409"/>
<path d="M272.617 233.786C270.834 233.786 269.055 233.786 267.271 233.786C263.223 233.786 259.175 233.786 255.131 233.786H242.222C239.623 233.786 237.024 233.786 234.425 233.786C234.273 233.786 234.121 233.786 233.965 233.786C233.913 233.786 233.822 233.786 233.809 233.786C233.37 233.786 234.429 233.929 233.843 233.777C233.748 233.751 233.657 233.716 233.566 233.69C233.318 233.625 233.852 233.807 233.856 233.812C233.822 233.755 233.101 233.339 233.522 233.629C233.969 233.942 233.175 233.148 233.488 233.595C233.744 233.959 233.44 233.482 233.37 233.386C233.149 233.061 233.453 233.543 233.453 233.616C233.453 233.551 233.375 233.395 233.362 233.343C233.34 233.261 233.331 233.126 233.292 233.057C233.336 233.143 233.331 233.668 233.331 233.304C233.344 231.746 233.331 230.189 233.331 228.635V224.682C233.331 224.617 233.331 224.552 233.331 224.487C233.331 224.474 233.331 224.461 233.331 224.444C233.331 224.392 233.331 224.305 233.331 224.292C233.331 223.832 233.214 224.765 233.305 224.47C233.349 224.326 233.44 224.127 233.448 223.979C233.422 224.435 233.223 224.426 233.366 224.209C233.418 224.131 233.47 224.044 233.514 223.966C233.67 223.697 233.631 224.057 233.366 224.153C233.414 224.136 233.475 224.031 233.514 223.997C233.609 223.914 233.848 223.762 233.514 223.966C233.132 224.196 233.514 223.975 233.6 223.923C233.648 223.893 233.83 223.819 233.852 223.784C233.826 223.827 233.227 223.992 233.631 223.884C233.748 223.849 234.325 223.754 233.856 223.801C233.388 223.849 233.856 223.814 233.973 223.814C234.19 223.814 234.412 223.814 234.629 223.814H257.109C259.37 223.814 261.631 223.801 263.896 223.814C264.152 223.814 264.403 223.823 264.659 223.84C264.833 223.854 265.011 223.867 265.184 223.884C265.293 223.897 265.644 223.927 265.21 223.884C264.746 223.836 265.197 223.884 265.306 223.906C266.048 224.04 266.781 224.244 267.484 224.513C268.061 224.734 266.972 224.261 267.527 224.53C267.679 224.604 267.831 224.674 267.983 224.747C268.321 224.921 268.656 225.112 268.977 225.316C269.137 225.42 269.298 225.524 269.45 225.633C269.667 225.784 269.983 226.175 269.493 225.654C269.749 225.928 270.079 226.145 270.348 226.405C270.604 226.652 270.851 226.913 271.081 227.182C271.19 227.303 271.281 227.451 271.402 227.563C270.977 227.16 271.138 227.212 271.255 227.377C271.324 227.472 271.394 227.568 271.463 227.668C271.888 228.279 272.235 228.926 272.556 229.598C272.739 229.98 272.474 229.408 272.465 229.373C272.487 229.46 272.539 229.559 272.569 229.642C272.639 229.824 272.704 230.006 272.76 230.189C272.882 230.562 272.982 230.935 273.064 231.317C273.099 231.486 273.134 231.655 273.164 231.824C273.272 232.454 273.103 231.23 273.173 231.868C273.216 232.267 273.242 232.67 273.242 233.074C273.242 233.2 273.22 233.33 273.229 233.451C273.186 232.909 273.316 232.97 273.251 233.195C273.225 233.287 273.194 233.382 273.173 233.478C273.099 233.773 273.012 233.456 273.272 233.256C273.229 233.291 273.155 233.473 273.134 233.508C273.099 233.564 273.047 233.625 273.016 233.686C272.886 233.964 273.398 233.304 273.155 233.491C273.09 233.543 272.999 233.621 272.956 233.69C272.83 233.877 273.173 233.521 273.207 233.508C273.125 233.534 272.76 233.738 272.717 233.803C272.752 233.755 273.337 233.603 272.938 233.703C272.847 233.725 272.747 233.755 272.656 233.781C272.565 233.807 272.296 233.838 272.713 233.786C273.199 233.725 272.695 233.773 272.609 233.773C271.246 233.803 269.94 234.948 270.005 236.376C270.07 237.804 271.151 239.014 272.609 238.979C275.173 238.919 277.316 237.326 278.167 234.918C278.484 234.02 278.488 233.018 278.401 232.08C278.314 231.143 278.171 230.141 277.906 229.208C276.908 225.693 274.574 222.647 271.472 220.725C269.155 219.289 266.443 218.586 263.731 218.586C262.746 218.586 261.765 218.586 260.78 218.586H236.377C235.579 218.586 234.781 218.573 233.987 218.586C231.982 218.616 230.251 219.58 229.101 221.202C228.346 222.27 228.12 223.563 228.12 224.843V230.913C228.12 231.625 228.116 232.332 228.12 233.044C228.133 235.07 229.088 236.84 230.737 237.999C231.986 238.875 233.418 238.979 234.872 238.979C236.074 238.979 237.276 238.979 238.477 238.979C242.565 238.979 246.657 238.979 250.744 238.979C255.218 238.979 259.695 238.979 264.169 238.979C266.855 238.979 269.536 238.979 272.222 238.979H272.609C273.971 238.979 275.277 237.782 275.212 236.376C275.147 234.97 274.066 233.773 272.609 233.773L272.617 233.786Z" fill="#FF4409"/>
<path d="M196.017 232.701H219.448V162.191H206.213L196.017 232.701Z" fill="#FAF1E7"/>
<path d="M196.017 235.304C198.664 235.304 201.311 235.304 203.953 235.304C208.149 235.304 212.345 235.304 216.545 235.304C217.513 235.304 218.481 235.304 219.448 235.304C220.854 235.304 222.052 234.111 222.052 232.701C222.052 230.349 222.052 227.997 222.052 225.646C222.052 220.035 222.052 214.425 222.052 208.819V188.482C222.052 182.619 222.052 176.757 222.052 170.895C222.052 168.036 222.108 165.172 222.052 162.313C222.052 162.274 222.052 162.235 222.052 162.195C222.052 160.79 220.858 159.592 219.448 159.592C215.582 159.592 211.72 159.592 207.854 159.592C207.308 159.592 206.761 159.592 206.214 159.592C205.19 159.592 203.862 160.395 203.702 161.501C203.363 163.849 203.021 166.2 202.682 168.548L200.252 185.357C199.267 192.165 198.282 198.973 197.297 205.786C196.451 211.639 195.605 217.492 194.759 223.346C194.347 226.192 193.93 229.043 193.522 231.889C193.518 231.929 193.509 231.972 193.505 232.011C193.401 232.731 193.384 233.36 193.765 234.016C194.082 234.554 194.703 235.07 195.323 235.213C196.555 235.495 198.317 234.836 198.525 233.395C198.864 231.048 199.207 228.696 199.545 226.348C200.356 220.747 201.163 215.145 201.975 209.539C202.96 202.731 203.945 195.923 204.93 189.111C205.776 183.257 206.622 177.404 207.468 171.55C207.88 168.708 208.379 165.862 208.705 163.007C208.709 162.968 208.718 162.924 208.722 162.885L206.21 164.795C210.076 164.795 213.938 164.795 217.804 164.795C218.35 164.795 218.897 164.795 219.444 164.795L216.84 162.191C216.84 164.543 216.84 166.895 216.84 169.246C216.84 174.857 216.84 180.467 216.84 186.073C216.84 192.851 216.84 199.633 216.84 206.41C216.84 212.273 216.84 218.135 216.84 223.997C216.84 226.852 216.758 229.724 216.84 232.579C216.84 232.618 216.84 232.657 216.84 232.697L219.444 230.093C216.797 230.093 214.15 230.093 211.508 230.093C207.312 230.093 203.116 230.093 198.916 230.093C197.948 230.093 196.981 230.093 196.013 230.093C194.651 230.093 193.344 231.291 193.41 232.697C193.475 234.102 194.555 235.3 196.013 235.3L196.017 235.304Z" fill="#FF4409"/>
<path d="M177.558 236.389H216.211C217.99 236.389 219.448 234.931 219.448 233.152V224.439C219.448 222.66 217.99 221.202 216.211 221.202H186.271C179.697 221.202 174.321 226.578 174.321 233.152C174.321 234.931 175.779 236.389 177.558 236.389Z" fill="#FF4409"/>
<path d="M177.557 238.992C179.471 238.992 181.38 238.992 183.293 238.992C187.55 238.992 191.811 238.992 196.067 238.992C200.441 238.992 204.811 238.992 209.184 238.992C211.493 238.992 213.801 239.01 216.11 238.992C219.425 238.971 222.028 236.333 222.045 233.026C222.058 231.173 222.045 229.316 222.045 227.463C222.045 225.324 222.327 222.925 220.978 221.102C219.815 219.536 218.132 218.629 216.17 218.599C215.91 218.599 215.65 218.599 215.389 218.599H205.149C200.702 218.599 196.254 218.599 191.806 218.599C189.042 218.599 186.144 218.386 183.415 218.889C179.787 219.562 176.641 221.766 174.463 224.691C173.431 226.075 172.671 227.702 172.22 229.364C171.769 231.026 171.378 233.347 172.051 235.07C172.966 237.404 175.019 238.936 177.557 238.997C178.919 239.027 180.221 237.777 180.16 236.393C180.1 235.009 179.015 233.825 177.557 233.79C177.518 233.79 177.305 233.755 177.253 233.777C177.323 233.751 177.895 233.929 177.509 233.799C177.396 233.759 176.854 233.582 177.271 233.742C177.687 233.903 177.114 233.608 177.019 233.56C176.802 233.447 177.262 233.729 177.266 233.746C177.266 233.733 176.976 233.447 176.963 233.443C176.98 233.447 177.262 233.907 177.149 233.69C177.106 233.608 177.049 233.525 176.997 233.451C176.681 232.974 177.106 233.877 176.997 233.486C176.971 233.395 176.95 233.295 176.919 233.204C176.789 232.818 176.967 233.386 176.941 233.46C176.984 233.347 176.928 233.061 176.928 232.931C176.937 232.553 176.963 232.18 177.002 231.803C177.049 231.338 176.906 232.406 177.002 231.833C177.041 231.616 177.084 231.399 177.132 231.182C177.214 230.826 177.314 230.475 177.427 230.128C177.488 229.945 177.553 229.763 177.622 229.581C177.648 229.516 177.678 229.446 177.7 229.377C177.444 230.11 177.587 229.637 177.67 229.468C177.982 228.796 178.355 228.153 178.789 227.55C178.833 227.494 178.872 227.433 178.915 227.377C179.158 227.038 178.794 227.542 178.768 227.563C178.902 227.446 179.015 227.26 179.132 227.125C179.384 226.839 179.648 226.565 179.922 226.305C180.061 226.175 180.2 226.049 180.347 225.923C180.429 225.854 180.898 225.494 180.525 225.767C180.152 226.04 180.633 225.689 180.72 225.628C180.894 225.507 181.076 225.385 181.254 225.272C181.558 225.081 181.87 224.903 182.187 224.743C182.356 224.656 182.534 224.578 182.707 224.496C182.864 224.422 183.141 224.357 182.482 224.587C182.573 224.556 182.66 224.513 182.751 224.483C183.484 224.205 184.239 224.014 185.007 223.875C185.463 223.793 184.395 223.94 184.981 223.875C185.181 223.853 185.38 223.836 185.58 223.827C185.81 223.814 186.04 223.81 186.27 223.806C186.469 223.806 186.669 223.806 186.864 223.806H190.444C194.579 223.806 198.719 223.806 202.854 223.806C206.598 223.806 210.343 223.806 214.083 223.806C214.786 223.806 215.489 223.793 216.188 223.806C216.188 223.806 216.196 223.806 216.201 223.806C216.253 223.806 216.444 223.806 216.353 223.806C216.604 223.806 216.578 223.953 216.105 223.767C216.253 223.827 216.444 223.858 216.6 223.901C216.904 223.988 216.144 223.606 216.374 223.81C216.448 223.875 216.6 223.945 216.682 223.992C216.951 224.148 216.591 224.109 216.496 223.845C216.513 223.892 216.617 223.953 216.652 223.992C217.038 224.435 216.405 223.502 216.691 224.018C216.726 224.079 216.76 224.144 216.799 224.201C217.021 224.522 216.73 224.04 216.717 223.971C216.739 224.092 216.899 224.804 216.852 224.331C216.804 223.858 216.839 224.344 216.839 224.478C216.839 224.556 216.839 224.634 216.839 224.717V225.697C216.839 227.746 216.839 229.798 216.839 231.846C216.839 232.354 216.825 232.866 216.83 233.373C216.83 233.707 216.956 232.805 216.86 233.122C216.834 233.213 216.817 233.313 216.786 233.404C216.622 233.933 217.034 233.022 216.795 233.378C216.743 233.451 216.691 233.543 216.648 233.621C216.496 233.89 216.522 233.538 216.795 233.434C216.756 233.447 216.613 233.625 216.6 233.638C216.379 233.894 216.7 233.538 216.799 233.503C216.717 233.529 216.353 233.733 216.309 233.799C216.344 233.751 216.93 233.599 216.53 233.699C216.439 233.72 216.34 233.751 216.248 233.777C215.836 233.898 216.895 233.751 216.274 233.768C216.244 233.768 216.218 233.768 216.192 233.768C214.309 233.803 212.421 233.768 210.543 233.768C206.472 233.768 202.407 233.768 198.337 233.768C194.041 233.768 189.745 233.768 185.445 233.768C182.933 233.768 180.421 233.768 177.908 233.768H177.544C176.182 233.768 174.875 234.966 174.941 236.372C175.006 237.777 176.086 238.975 177.544 238.975L177.557 238.992Z" fill="#FF4409"/>
<path d="M293.097 110.847C293.097 117.356 275.589 121.013 273.684 126.884C271.71 132.972 283.651 146.21 279.967 151.274C276.244 156.39 259.938 149.1 254.823 152.823C249.759 156.511 251.672 174.288 245.589 176.263C239.718 178.168 230.841 162.72 224.336 162.72C217.832 162.72 208.954 178.168 203.084 176.263C196.996 174.288 198.914 156.507 193.85 152.823C188.734 149.1 172.428 156.39 168.705 151.274C165.017 146.21 176.962 132.968 174.988 126.884C173.083 121.013 155.575 117.351 155.575 110.847C155.575 104.343 173.083 100.681 174.988 94.8098C176.962 88.7221 165.021 75.4836 168.705 70.4199C172.428 65.3042 188.734 72.5938 193.85 68.8709C198.914 65.1827 197 47.4056 203.084 45.4313C208.954 43.5264 217.832 58.9735 224.336 58.9735C230.841 58.9735 239.718 43.5264 245.589 45.4313C251.677 47.4056 249.759 65.187 254.823 68.8709C259.938 72.5938 276.244 65.3042 279.967 70.4199C283.656 75.4836 271.71 88.7264 273.684 94.8098C275.589 100.681 293.097 104.343 293.097 110.847Z" fill="#FAF1E7"/>
<path d="M289.843 110.847C289.843 110.942 289.835 111.038 289.83 111.133C289.83 111.615 290.017 110.174 289.895 110.643C289.848 110.829 289.804 111.012 289.752 111.194C289.57 111.819 290.19 110.313 289.813 111.042C289.704 111.255 289.574 111.45 289.444 111.65C289.075 112.214 290.025 110.977 289.561 111.502C289.414 111.671 289.266 111.84 289.106 112.001C288.737 112.378 288.333 112.713 287.93 113.051C287.526 113.389 288.628 112.535 288.181 112.856C288.09 112.921 288.004 112.986 287.917 113.051C287.717 113.194 287.513 113.337 287.309 113.476C286.802 113.819 286.281 114.144 285.756 114.461C284.723 115.077 283.664 115.654 282.601 116.223C280.497 117.347 278.353 118.423 276.34 119.711C274.327 121 272.374 122.436 271.216 124.48C268.582 129.149 271.654 134.89 273.706 139.15C274.262 140.309 274.834 141.459 275.381 142.617C275.646 143.181 275.906 143.746 276.153 144.318C276.193 144.409 276.232 144.505 276.275 144.596C276.518 145.151 275.954 143.815 276.18 144.37C276.305 144.687 276.436 145.004 276.553 145.321C276.926 146.314 277.221 147.317 277.421 148.358C277.477 148.662 277.403 149.044 277.368 147.959C277.368 148.072 277.395 148.184 277.399 148.297C277.416 148.514 277.421 148.735 277.416 148.952C277.407 149.378 277.151 149.929 277.468 148.805C277.416 148.996 277.395 149.191 277.334 149.382C277.091 150.154 277.737 148.67 277.403 149.221C277.182 149.59 276.787 149.838 277.542 149.122C277.403 149.252 277.273 149.399 277.138 149.538C276.809 149.877 277.898 149.022 277.494 149.269C277.412 149.321 277.329 149.382 277.247 149.43C277.073 149.534 276.887 149.612 276.709 149.707C277.737 149.135 277.152 149.525 276.787 149.634C276.57 149.699 276.349 149.751 276.132 149.799C276.015 149.82 275.902 149.838 275.785 149.864C275.273 149.968 276.796 149.764 276.045 149.829C273.724 150.029 271.407 149.777 269.107 149.473C268.864 149.443 268.239 149.352 269.337 149.503C269.176 149.482 269.02 149.46 268.86 149.438C268.595 149.404 268.326 149.365 268.061 149.326C267.137 149.195 266.208 149.07 265.284 148.944C264.052 148.779 262.82 148.627 261.583 148.536C259.361 148.371 256.927 148.354 254.827 149.191C253.634 149.668 252.536 150.306 251.699 151.304C250.787 152.389 250.206 153.513 249.668 154.814C248.804 156.906 248.375 159.162 247.967 161.379C247.533 163.749 247.173 166.139 246.613 168.487C246.366 169.533 246.062 170.557 245.689 171.568C245.594 171.824 245.342 172.227 245.832 171.242C245.78 171.346 245.737 171.459 245.685 171.568C245.589 171.776 245.485 171.98 245.372 172.184C245.285 172.344 245.19 172.5 245.095 172.657C245.038 172.748 244.977 172.83 244.917 172.921C244.548 173.481 245.437 172.323 245.112 172.67C244.977 172.813 244.852 172.965 244.708 173.099C244.123 173.65 245.394 172.67 244.852 173.008C244.708 173.099 244.556 173.177 244.413 173.264C244.166 173.412 243.88 173.325 244.895 173.065C244.773 173.095 244.661 173.147 244.539 173.182C244.448 173.203 244.353 173.216 244.261 173.242C245.233 172.947 245.09 173.164 244.752 173.169C244.561 173.169 244.37 173.169 244.179 173.16C243.689 173.147 245.134 173.338 244.652 173.221C244.552 173.195 244.452 173.182 244.353 173.156C244.149 173.104 243.949 173.039 243.749 172.969C243.476 172.882 243.155 172.635 244.118 173.134C244.018 173.082 243.91 173.043 243.806 172.991C243.593 172.887 243.381 172.774 243.177 172.657C242.712 172.392 242.261 172.093 241.827 171.78C241.597 171.615 240.86 170.995 241.771 171.75C241.549 171.568 241.324 171.39 241.103 171.207C240.604 170.791 240.113 170.357 239.632 169.919C237.749 168.2 235.969 166.378 234.078 164.668C232.29 163.054 230.376 161.393 228.155 160.412C226.905 159.861 225.625 159.44 224.232 159.47C222.84 159.501 221.564 159.917 220.297 160.503C218.027 161.553 216.066 163.306 214.239 164.981C212.365 166.699 210.586 168.526 208.69 170.222C208.282 170.587 207.87 170.947 207.449 171.294C207.228 171.476 206.355 172.127 207.327 171.407C207.071 171.598 206.82 171.789 206.559 171.971C206.177 172.236 205.787 172.487 205.379 172.717C205.171 172.83 204.963 172.934 204.75 173.039C204.477 173.173 204.129 173.177 205.114 172.891C204.976 172.93 204.845 172.995 204.707 173.039C204.507 173.104 204.307 173.147 204.108 173.199C203.448 173.36 205.119 173.134 204.29 173.169C204.129 173.177 203.973 173.16 203.813 173.16C203.331 173.151 204.767 173.355 204.307 173.221C204.186 173.186 204.064 173.156 203.943 173.125C203.327 172.96 204.819 173.577 204.125 173.195C203.96 173.104 203.813 172.991 203.656 172.891C204.615 173.49 204.138 173.273 203.882 173.025C203.613 172.765 203.214 172.067 203.865 173.082C203.63 172.717 203.383 172.366 203.179 171.98C203.071 171.772 202.98 171.559 202.875 171.346C202.676 170.934 203.088 171.832 203.062 171.789C202.98 171.659 202.936 171.472 202.884 171.325C202.507 170.309 202.225 169.255 201.982 168.2C200.884 163.441 200.606 158.438 198.619 153.925C197.621 151.66 195.972 149.976 193.642 149.109C191.503 148.315 189.025 148.371 186.786 148.558C185.276 148.679 183.775 148.887 182.278 149.091C181.666 149.174 181.054 149.26 180.443 149.347C180.126 149.391 179.805 149.434 179.488 149.482C178.859 149.569 180.347 149.369 179.718 149.451C179.51 149.477 179.297 149.508 179.089 149.534C177.878 149.686 176.668 149.82 175.448 149.877C174.936 149.903 174.424 149.911 173.912 149.903C173.648 149.898 173.387 149.885 173.123 149.868C172.745 149.842 171.756 149.582 172.997 149.877C172.589 149.777 172.172 149.729 171.769 149.599C171.665 149.569 171.565 149.525 171.465 149.495C170.988 149.347 172.294 149.894 171.856 149.664C171.647 149.551 171.443 149.443 171.244 149.321C170.693 148.983 171.951 149.968 171.374 149.404C171.304 149.334 171.244 149.26 171.174 149.195C170.84 148.866 171.682 149.955 171.448 149.547C171.37 149.408 171.287 149.269 171.205 149.135C170.962 148.727 171.517 150.015 171.383 149.56C171.348 149.434 171.3 149.317 171.265 149.191C171.239 149.096 171.226 148.996 171.2 148.9C171.079 148.419 171.283 149.864 171.261 149.365C171.252 149.152 171.231 148.944 171.235 148.731C171.235 148.545 171.252 148.362 171.261 148.18C171.278 147.889 171.43 147.473 171.196 148.588C171.226 148.432 171.244 148.271 171.274 148.115C171.474 147.065 171.816 146.041 172.203 145.043C172.307 144.77 172.424 144.496 172.532 144.223C172.09 145.347 172.511 144.284 172.624 144.028C172.875 143.455 173.14 142.886 173.409 142.322C173.982 141.112 174.576 139.914 175.153 138.708C176.26 136.391 177.418 134.004 178.026 131.496C178.611 129.093 178.681 126.48 177.336 124.302C176.077 122.267 174.073 120.801 172.077 119.551C170.042 118.28 167.89 117.199 165.777 116.067C164.679 115.477 163.585 114.878 162.522 114.227C162.084 113.958 161.65 113.68 161.225 113.389C161.004 113.238 160.787 113.081 160.57 112.925C160.353 112.769 160.014 112.413 160.813 113.12C160.687 113.008 160.548 112.912 160.418 112.804C160.084 112.522 159.758 112.227 159.454 111.91C159.298 111.749 159.159 111.576 159.012 111.411C158.678 111.033 159.528 112.149 159.259 111.728C159.185 111.61 159.103 111.502 159.029 111.385C158.925 111.216 158.843 111.033 158.743 110.855C158.565 110.539 158.956 111.367 158.956 111.363C158.969 111.315 158.877 111.142 158.86 111.09C158.804 110.908 158.778 110.721 158.73 110.539C159.029 111.68 158.804 111.098 158.808 110.647C158.808 109.992 158.6 111.65 158.786 110.86C158.825 110.691 158.895 110.526 158.942 110.361C159.034 110.018 158.526 111.237 158.747 110.825C158.795 110.738 158.834 110.647 158.882 110.56C158.999 110.348 159.133 110.157 159.264 109.953C159.533 109.536 158.682 110.647 159.016 110.27C159.09 110.187 159.159 110.1 159.229 110.018C159.381 109.849 159.541 109.684 159.702 109.523C160.053 109.181 160.444 108.886 160.813 108.56C159.906 109.358 160.639 108.699 160.891 108.521C161.112 108.365 161.338 108.209 161.568 108.061C162.045 107.749 162.527 107.445 163.021 107.154C164.058 106.538 165.121 105.961 166.184 105.397C168.328 104.256 170.506 103.158 172.541 101.835C174.42 100.611 176.472 99.101 177.522 97.0486C178.711 94.7272 178.577 92.1454 177.887 89.6852C177.197 87.2249 176.004 84.756 174.867 82.3999C174.307 81.2457 173.739 80.0959 173.196 78.933C172.932 78.3689 172.676 77.8048 172.428 77.2364C172.333 77.0151 172.125 76.4554 172.519 77.4577C172.463 77.3189 172.407 77.1844 172.35 77.0455C172.224 76.7331 172.103 76.4207 171.99 76.1039C171.63 75.1146 171.4 74.1253 171.183 73.097C171.435 74.3032 171.248 73.609 171.231 73.2792C171.218 73.0623 171.213 72.8453 171.222 72.6284C171.226 72.5242 171.239 72.4201 171.244 72.3159C171.265 71.8169 171.061 73.2619 171.183 72.7802C171.239 72.5589 171.296 72.342 171.361 72.1207C171.495 71.6651 170.94 72.9538 171.183 72.5459C171.231 72.4635 171.27 72.3767 171.322 72.2942C171.704 71.6651 170.914 72.7238 171.153 72.4852C171.287 72.3507 171.439 72.2205 171.565 72.0816C170.931 72.7715 170.936 72.5286 171.218 72.355C171.33 72.2856 171.439 72.2118 171.556 72.1511C171.647 72.1033 171.738 72.0599 171.829 72.0122C172.263 71.7779 170.962 72.329 171.439 72.1814C171.613 72.1294 171.782 72.0643 171.955 72.0122C172.177 71.9515 172.398 71.8994 172.619 71.856C172.736 71.8343 172.858 71.8256 172.971 71.7953C171.847 72.0643 172.389 71.869 172.715 71.8386C175.032 71.613 177.392 71.9254 179.688 72.2292C180.317 72.3116 178.828 72.112 179.458 72.1988C179.618 72.2205 179.774 72.2422 179.935 72.2639C180.256 72.3073 180.573 72.355 180.894 72.3984C181.766 72.5199 182.638 72.6414 183.51 72.7542C184.738 72.9147 185.966 73.0666 187.203 73.1534C189.737 73.3313 192.353 73.2185 194.679 72.1207C197.005 71.0229 198.181 68.862 199.057 66.6448C200.758 62.3274 200.966 57.5414 202.055 53.0592C202.311 51.9961 202.637 50.9678 203.014 49.9481C203.149 49.588 202.632 50.7985 202.849 50.3343C202.902 50.2258 202.945 50.1173 202.997 50.0132C203.097 49.8092 203.201 49.6053 203.314 49.4057C203.427 49.2061 203.535 49.0325 203.656 48.8546C204.138 48.1474 203.088 49.4881 203.652 48.8677C203.761 48.7462 203.878 48.6377 203.995 48.5249C204.455 48.0736 203.192 49.0629 203.86 48.6334C204.017 48.5336 204.186 48.4598 204.346 48.3687C203.361 48.9327 203.86 48.59 204.281 48.4685C204.741 48.3383 203.309 48.5422 203.787 48.5292C203.865 48.5292 203.943 48.5205 204.021 48.5162C204.199 48.5162 204.372 48.5379 204.55 48.5422C203.353 48.5205 203.982 48.4555 204.377 48.5596C204.62 48.6247 204.845 48.7245 205.088 48.7982C203.952 48.4641 204.707 48.6334 205.036 48.7982C205.214 48.8894 205.392 48.9892 205.566 49.089C206.052 49.3753 206.52 49.6921 206.972 50.0262C207.084 50.1086 207.193 50.1911 207.301 50.2735C206.429 49.627 206.898 49.9611 207.084 50.113C207.31 50.2952 207.536 50.4818 207.757 50.6684C208.221 51.0589 208.672 51.4624 209.119 51.8746C210.998 53.5972 212.777 55.4196 214.673 57.1249C216.691 58.9386 218.822 60.6526 221.369 61.6505C223.803 62.6051 226.263 62.1973 228.554 61.0821C230.845 59.967 232.706 58.2617 234.512 56.5999C236.317 54.938 238.161 53.0548 240.057 51.3626C240.499 50.9678 240.946 50.5816 241.411 50.2084C241.519 50.1173 241.636 50.0305 241.745 49.9437C240.92 50.6293 241.333 50.2605 241.528 50.113C241.745 49.9524 241.962 49.7962 242.183 49.64C242.595 49.358 243.025 49.0889 243.467 48.8546C243.671 48.7462 243.888 48.6594 244.092 48.5552C243.025 49.1106 243.697 48.7201 244.031 48.6203C244.231 48.5596 244.431 48.5205 244.63 48.4728C245.112 48.3557 243.667 48.5509 244.157 48.5336C244.253 48.5336 244.348 48.5205 244.448 48.5162C244.899 48.5075 245.303 48.7722 244.244 48.4511C244.448 48.5119 244.669 48.5726 244.878 48.6247C243.919 48.3817 244.231 48.3253 244.6 48.5379C244.969 48.7505 245.238 49.1888 244.478 48.4034C244.613 48.5422 244.769 48.6594 244.899 48.7982C244.969 48.872 245.029 48.9501 245.099 49.0195C245.424 49.3667 244.53 48.2081 244.904 48.7679C245.125 49.1063 245.338 49.4448 245.52 49.8049C245.624 50.0132 245.711 50.2345 245.819 50.4427C245.255 49.3059 245.741 50.2735 245.85 50.5903C246.214 51.623 246.487 52.6904 246.73 53.7578C247.26 56.1226 247.616 58.5177 248.067 60.8955C248.518 63.2733 249.078 65.6295 250.08 67.8597C251.082 70.09 252.827 71.8169 255.209 72.637C257.391 73.3877 259.899 73.2922 262.164 73.0926C263.653 72.9581 265.132 72.7542 266.612 72.5503C267.224 72.4678 267.836 72.381 268.447 72.2942C268.738 72.2552 269.033 72.2161 269.324 72.1728C268.078 72.3463 269.424 72.1597 269.723 72.125C270.929 71.9732 272.136 71.8473 273.35 71.7953C273.902 71.7692 274.457 71.7649 275.008 71.7822C275.268 71.7909 275.524 71.8039 275.785 71.83C275.867 71.8386 275.95 71.8473 276.036 71.856C276.787 71.9211 275.264 71.7172 275.776 71.8213C276.223 71.9124 276.652 72.0122 277.091 72.1467C277.746 72.3507 276.236 71.7172 276.982 72.1077C277.16 72.1988 277.321 72.3116 277.49 72.4157C277.893 72.6674 276.804 71.8083 277.134 72.1467C277.199 72.2161 277.277 72.2769 277.342 72.3463C277.408 72.4157 277.464 72.4982 277.533 72.5633C276.826 71.8907 277.091 71.9384 277.251 72.2161C277.46 72.5763 277.525 73.0926 277.23 72.0339C277.286 72.2335 277.355 72.4331 277.412 72.637C277.616 73.3703 277.36 71.7302 277.39 72.4201C277.399 72.6327 277.412 72.8453 277.407 73.0579C277.403 73.2835 277.364 73.5048 277.36 73.7305C277.399 72.4548 277.399 73.4311 277.321 73.8086C277.095 74.8716 276.735 75.9 276.336 76.911C276.279 77.0499 276.223 77.1844 276.171 77.3232C275.945 77.8786 276.509 76.5422 276.266 77.0976C276.167 77.3319 276.062 77.5662 275.958 77.7962C275.681 78.4167 275.39 79.0328 275.099 79.6489C274.544 80.8075 273.975 81.9617 273.42 83.1202C271.446 87.2597 268.508 93.0306 271.355 97.4651C272.682 99.5305 274.735 101.01 276.8 102.281C278.865 103.553 281.013 104.62 283.131 105.761C284.137 106.304 285.14 106.859 286.116 107.458C286.593 107.749 287.066 108.052 287.526 108.369C287.708 108.495 287.891 108.625 288.069 108.755C288.286 108.912 288.62 109.267 287.826 108.56C287.921 108.643 288.025 108.716 288.121 108.799C288.489 109.102 288.85 109.424 289.179 109.771C289.336 109.931 289.474 110.105 289.622 110.27C289.891 110.569 289.284 109.875 289.31 109.866C289.323 109.862 289.479 110.105 289.492 110.122C289.605 110.291 289.709 110.465 289.804 110.647C290.182 111.376 289.561 109.87 289.743 110.495C289.796 110.678 289.839 110.86 289.887 111.046C290.004 111.515 289.817 110.074 289.822 110.556C289.822 110.652 289.83 110.747 289.835 110.842C289.856 112.543 291.314 114.175 293.089 114.097C294.864 114.019 296.369 112.665 296.343 110.842C296.274 105.592 290.859 102.555 286.819 100.355C284.654 99.1747 282.441 98.0769 280.328 96.8012C279.855 96.5149 279.39 96.2198 278.935 95.9117C278.735 95.7772 278.54 95.6384 278.345 95.4952C278.258 95.4345 278.176 95.365 278.089 95.3043C279.026 95.9595 278.475 95.6037 278.262 95.4301C277.907 95.1351 277.559 94.827 277.243 94.4885C277.095 94.3323 276.969 94.1631 276.822 94.0069C277.642 94.8877 277.065 94.328 276.874 94.0069C276.661 93.6511 276.618 93.1131 276.909 94.1935C276.869 94.0416 276.8 93.8984 276.757 93.7466C276.652 93.356 276.722 92.7269 276.744 93.9158C276.744 93.6684 276.705 93.4211 276.709 93.1695C276.709 92.9438 276.735 92.7182 276.752 92.4926C276.787 91.9589 276.596 93.4211 276.696 92.8874C276.718 92.7659 276.735 92.6488 276.757 92.5273C276.861 91.9762 277.008 91.4295 277.178 90.8915C277.334 90.3968 277.507 89.9108 277.694 89.4248C277.802 89.1471 277.911 88.8738 278.024 88.6004C278.254 88.0407 277.685 89.3771 277.933 88.8217C278.015 88.6351 278.097 88.4442 278.18 88.2576C278.696 87.0948 279.256 85.9493 279.811 84.8081C281.005 82.3565 282.237 79.8876 283.105 77.3015C283.834 75.1233 284.337 72.5242 283.508 70.2983C281.452 64.7573 274.908 64.9916 270.04 65.5774C268.53 65.7596 267.028 65.9766 265.523 66.1848C265.206 66.2282 264.885 66.2716 264.568 66.315C265.796 66.1458 264.612 66.3063 264.325 66.3454C263.709 66.4235 263.089 66.4929 262.468 66.5537C261.284 66.6665 260.09 66.7446 258.897 66.7012C258.641 66.6925 258.381 66.6752 258.125 66.6535C258.003 66.6405 257.877 66.6188 257.756 66.6144C258.854 66.6665 258.437 66.7142 258.142 66.6621C257.695 66.5797 257.27 66.4669 256.836 66.328C256.185 66.1154 257.691 66.7576 256.953 66.3627C256.78 66.2673 256.623 66.1458 256.45 66.0503C257.404 66.5884 256.905 66.4278 256.615 66.1328C256.337 65.8551 255.999 65.1869 256.615 66.1935C256.411 65.8594 256.181 65.547 255.999 65.1955C255.89 64.9916 255.799 64.7833 255.699 64.5751C255.474 64.0978 256.025 65.4125 255.842 64.9092C255.786 64.753 255.725 64.6011 255.669 64.4492C254.879 62.2667 254.476 59.9496 254.072 57.6716C253.647 55.2765 253.274 52.8639 252.64 50.5122C252.007 48.1604 251.134 45.8433 249.442 44.1207C247.603 42.2419 244.93 41.5911 242.413 42.307C239.935 43.0143 237.831 44.6978 235.922 46.3554C234.013 48.0129 232.16 49.909 230.268 51.6707C229.374 52.5038 228.463 53.3109 227.508 54.0745C227.053 54.4433 228.181 53.5712 227.712 53.914C227.599 53.9964 227.487 54.0832 227.374 54.1657C227.153 54.3262 226.931 54.4824 226.701 54.6299C226.241 54.9337 225.768 55.2157 225.274 55.4544C225.17 55.5064 225.052 55.5455 224.953 55.6062C225.859 55.1072 225.586 55.3546 225.304 55.45C225.096 55.5194 224.888 55.5932 224.671 55.6496C224.501 55.693 224.323 55.7147 224.154 55.7581C225.308 55.45 224.649 55.7104 224.211 55.6973C224.111 55.6973 224.007 55.6843 223.907 55.68C223.408 55.6626 224.853 55.8579 224.362 55.7407C224.154 55.6887 223.946 55.6496 223.738 55.5889C223.529 55.5281 223.317 55.4283 223.104 55.3632C224.276 55.7277 223.347 55.4587 223.017 55.2851C222.601 55.0638 222.197 54.8165 221.807 54.5518C221.581 54.4 221.356 54.2394 221.134 54.0789C221.021 53.9964 220.909 53.9097 220.796 53.8229C221.707 54.4911 221.087 54.0485 220.887 53.8836C219.932 53.1113 219.021 52.2825 218.123 51.4407C216.244 49.6747 214.439 47.8263 212.478 46.1471C210.517 44.4679 208.469 42.8407 206.013 42.2376C203.557 41.6344 200.741 42.3113 198.983 44.3247C197.356 46.1905 196.488 48.5336 195.881 50.9027C194.722 55.437 194.54 60.275 192.87 64.6705C192.826 64.7833 192.774 64.8961 192.735 65.009C193.078 63.9849 192.995 64.4145 192.874 64.6662C192.774 64.8701 192.679 65.0784 192.57 65.278C192.466 65.4689 192.358 65.6555 192.24 65.8377C192.184 65.9245 192.123 66.0069 192.067 66.0937C191.807 66.4973 192.709 65.3474 192.266 65.8291C192.136 65.9722 192.01 66.1154 191.867 66.2456C191.82 66.289 191.681 66.3714 191.655 66.4278C191.655 66.4278 192.405 65.9115 192.089 66.0894C191.915 66.1848 191.75 66.2977 191.577 66.3931C191.316 66.5363 190.96 66.5493 191.98 66.2369C191.846 66.2803 191.715 66.3367 191.581 66.3801C191.143 66.5233 190.691 66.584 190.244 66.6795C191.485 66.4105 190.592 66.6318 190.244 66.6535C189.936 66.6752 189.633 66.6882 189.325 66.6925C188.166 66.7099 187.003 66.6231 185.849 66.5059C185.224 66.4409 184.604 66.3671 183.983 66.289C183.827 66.2673 183.666 66.2456 183.51 66.2282C184.612 66.3671 183.983 66.2933 183.74 66.2586C183.419 66.2152 183.102 66.1718 182.781 66.1241C181.228 65.9072 179.675 65.6815 178.117 65.5036C175.639 65.2216 173.118 65.0697 170.658 65.6078C168.037 66.1805 165.92 67.8988 165.048 70.4588C164.275 72.7238 164.844 75.3533 165.607 77.5445C166.514 80.1393 167.755 82.6125 168.953 85.0815C169.508 86.2226 170.059 87.3638 170.567 88.5267C170.628 88.6655 170.688 88.8087 170.749 88.9476C170.306 87.9669 170.562 88.505 170.654 88.7263C170.766 88.9996 170.875 89.273 170.979 89.5463C171.192 90.1104 171.391 90.6832 171.56 91.2646C171.704 91.7549 171.812 92.2496 171.908 92.7529C172.051 93.4992 171.838 91.8547 171.882 92.5924C171.899 92.8527 171.916 93.1131 171.912 93.3734C171.903 93.7769 171.673 94.4104 171.968 93.2432C171.921 93.4385 171.895 93.6381 171.838 93.8333C171.812 93.9245 171.777 94.0112 171.747 94.098C171.608 94.5449 172.159 93.2519 171.929 93.6598C171.816 93.855 171.717 94.0546 171.591 94.2455C171.131 94.9355 172.12 93.6511 171.665 94.1588C171.543 94.2933 171.426 94.4278 171.3 94.558C170.944 94.9224 170.558 95.2479 170.168 95.5733C169.755 95.9204 170.875 95.057 170.428 95.3694C170.324 95.4431 170.22 95.5212 170.116 95.595C169.899 95.7512 169.682 95.8987 169.46 96.0463C168.974 96.3673 168.48 96.6754 167.981 96.9705C163.763 99.4698 158.99 101.305 155.337 104.659C153.592 106.265 152.148 108.556 152.278 111.016C152.408 113.476 153.809 115.698 155.701 117.312C159.494 120.54 164.193 122.367 168.41 124.936C168.879 125.222 169.343 125.517 169.794 125.83C170.007 125.977 170.215 126.133 170.428 126.285C170.871 126.602 169.751 125.738 170.168 126.081C170.293 126.185 170.419 126.285 170.545 126.389C170.892 126.684 171.222 126.997 171.526 127.335C171.751 127.587 172.033 128.142 171.417 127.162C171.539 127.357 171.682 127.539 171.799 127.739C171.847 127.821 171.886 127.908 171.934 127.99C172.168 128.403 171.613 127.105 171.751 127.552C171.808 127.739 171.873 127.917 171.916 128.108C172.103 128.936 171.877 127.261 171.903 127.956C171.912 128.212 171.925 128.463 171.912 128.715C171.903 128.906 171.873 129.097 171.864 129.288C171.908 128.038 171.916 128.897 171.847 129.257C171.734 129.813 171.582 130.36 171.409 130.902C171.235 131.444 171.04 131.978 170.827 132.507C170.723 132.768 170.263 133.792 170.753 132.698C170.628 132.98 170.51 133.262 170.385 133.544C169.842 134.755 169.256 135.948 168.675 137.146C167.49 139.58 166.267 142.04 165.438 144.626C164.752 146.766 164.314 149.3 165.156 151.456C166.167 154.042 168.41 155.665 171.122 156.125C173.665 156.559 176.199 156.381 178.746 156.068C180.282 155.882 181.814 155.656 183.345 155.444C183.623 155.405 184.73 155.266 183.515 155.418C183.831 155.379 184.144 155.335 184.46 155.296C185.124 155.214 185.793 155.14 186.461 155.079C187.589 154.979 188.726 154.914 189.863 154.966C190.119 154.979 190.375 155.001 190.626 155.023C190.921 155.044 191.342 155.201 190.249 154.966C190.366 154.992 190.483 155.001 190.6 155.023C191.082 155.11 191.52 155.27 191.984 155.413C190.869 155.07 191.524 155.209 191.846 155.4C192.167 155.591 192.436 155.964 191.663 155.218C191.798 155.348 191.95 155.465 192.08 155.6C192.149 155.669 192.21 155.743 192.275 155.817C192.713 156.298 191.815 155.149 192.076 155.552C192.31 155.917 192.54 156.277 192.735 156.667C192.883 156.962 193.126 157.791 192.744 156.637C192.835 156.91 192.952 157.175 193.047 157.448C194.592 161.918 194.779 166.734 196.028 171.281C196.649 173.538 197.551 175.933 199.257 177.608C201.157 179.469 203.882 180.116 206.416 179.291C208.907 178.484 210.994 176.814 212.933 175.104C214.873 173.394 216.613 171.607 218.474 169.88C218.93 169.454 219.39 169.038 219.859 168.63C220.084 168.43 220.314 168.235 220.544 168.044C220.774 167.853 221.781 167.103 220.796 167.827C221.651 167.202 222.505 166.625 223.451 166.148C223.716 166.014 224.107 165.975 223.104 166.287C223.213 166.252 223.317 166.205 223.421 166.165C223.629 166.092 223.837 166.027 224.05 165.975C224.154 165.949 224.258 165.935 224.362 165.909C224.853 165.792 223.408 165.988 223.907 165.97C224.146 165.962 224.376 165.953 224.614 165.962C225.295 165.983 223.62 165.766 224.467 165.953C224.645 165.992 224.818 166.04 224.987 166.096C225.33 166.205 225.981 166.617 224.953 166.053C225.2 166.187 225.465 166.291 225.712 166.426C226.168 166.673 226.61 166.955 227.04 167.255C227.27 167.411 227.491 167.58 227.712 167.745C228.177 168.092 227.048 167.22 227.508 167.584C227.643 167.693 227.773 167.797 227.908 167.905C228.884 168.704 229.812 169.559 230.732 170.426C232.602 172.192 234.403 174.037 236.369 175.69C238.217 177.247 240.369 178.957 242.808 179.452C245.364 179.968 247.971 179.269 249.703 177.243C252.9 173.507 253.334 168.031 254.172 163.384C254.58 161.128 255.048 158.902 255.838 156.745C256.02 156.242 255.469 157.561 255.695 157.079C255.747 156.975 255.79 156.867 255.842 156.763C255.929 156.576 256.025 156.394 256.124 156.216C256.224 156.038 256.32 155.878 256.432 155.713C256.905 155.005 255.864 156.351 256.415 155.73C256.541 155.587 256.68 155.457 256.819 155.326C257.279 154.888 255.999 155.873 256.693 155.439C256.866 155.331 257.053 155.257 257.227 155.157C256.363 155.665 256.532 155.426 256.836 155.326C256.975 155.283 257.109 155.231 257.248 155.192C257.43 155.14 257.613 155.097 257.795 155.057C258.142 154.984 258.997 154.979 257.752 155.04C258.311 155.014 258.867 154.945 259.431 154.94C260.598 154.932 261.765 155.023 262.924 155.144C263.549 155.209 264.173 155.287 264.794 155.366C265.037 155.396 265.662 155.487 264.564 155.335C264.724 155.357 264.881 155.379 265.041 155.4C265.414 155.452 265.788 155.504 266.156 155.556C267.653 155.765 269.15 155.982 270.656 156.147C275.403 156.676 282.011 156.637 283.625 150.992C284.298 148.64 283.721 146.067 282.914 143.828C281.981 141.255 280.749 138.799 279.56 136.339C278.996 135.18 278.449 134.013 277.928 132.833C277.685 132.277 278.249 133.609 278.019 133.054C277.963 132.915 277.906 132.776 277.85 132.642C277.742 132.373 277.637 132.1 277.538 131.826C277.347 131.31 277.173 130.785 277.021 130.251C276.882 129.761 276.787 129.27 276.692 128.771C276.587 128.242 276.778 129.7 276.748 129.166C276.739 129.053 276.726 128.936 276.718 128.824C276.7 128.568 276.7 128.312 276.713 128.056C276.761 127.192 276.527 128.863 276.687 128.203C276.726 128.042 276.765 127.882 276.813 127.721C276.839 127.635 276.887 127.552 276.909 127.465C276.709 128.368 276.566 128.203 276.735 127.904C276.848 127.704 276.961 127.513 277.086 127.322C277.447 126.767 276.466 128.051 277.026 127.413C277.169 127.248 277.321 127.088 277.477 126.936C277.642 126.775 277.811 126.619 277.985 126.467C278.236 126.246 279.104 125.695 278.089 126.359C279.004 125.764 279.876 125.122 280.822 124.571C282.961 123.317 285.187 122.219 287.353 121.018C291.245 118.865 296.278 115.867 296.343 110.825C296.365 109.124 294.829 107.493 293.089 107.571C291.349 107.649 289.861 108.998 289.835 110.825L289.843 110.847Z" fill="#FF4409"/>
<path d="M196.103 80.7126C196.103 80.7126 192.749 97.9778 197.344 99.132C205.71 101.228 203.523 97.7912 211.364 83.9756" fill="#FAF1E7"/>
<path d="M193.596 80.0182C193.192 82.1053 192.906 84.2228 192.672 86.3359C192.299 89.7073 192.069 93.1916 192.719 96.5457C193.001 97.9949 193.587 99.5483 194.711 100.559C196.121 101.826 198.213 102.065 200.026 102.256C201.45 102.403 202.921 102.2 204.188 101.501C205.455 100.802 206.335 99.6438 207.038 98.4462C207.976 96.8408 208.679 95.1008 209.46 93.4216C210.74 90.6576 212.115 87.9457 213.616 85.2945C214.289 84.11 213.937 82.396 212.683 81.7322C211.429 81.0683 209.837 81.4024 209.121 82.6651C207.806 84.9864 206.583 87.3599 205.442 89.7724C204.682 91.3779 203.979 93.0137 203.19 94.6018C202.908 95.1702 202.612 95.7343 202.265 96.268C202.2 96.3678 202.135 96.4633 202.066 96.5631C201.727 97.0577 202.478 96.0727 202.209 96.3852C202.053 96.5674 201.901 96.7453 201.723 96.9058C201.506 97.1054 201.129 97.253 201.936 96.7583C201.858 96.8061 201.784 96.8668 201.701 96.9189C201.619 96.9709 201.536 97.01 201.458 97.0577C200.972 97.3267 202.2 96.8104 201.662 96.9709C201.471 97.0273 201.285 97.0751 201.09 97.1185C200.617 97.2226 201.94 97.0534 201.341 97.0794C201.207 97.0837 201.068 97.0968 200.933 97.0968C200.656 97.0968 200.382 97.0838 200.109 97.0577C199.857 97.0317 199.302 96.9145 200.304 97.0924C200.096 97.0577 199.888 97.0273 199.679 96.9883C199.35 96.9275 199.02 96.8581 198.69 96.78C198.473 96.7323 198.256 96.6846 198.039 96.6238C197.996 96.6108 197.948 96.5934 197.905 96.5847C197.527 96.5023 198.577 96.9319 198.291 96.754C198.208 96.7019 198.113 96.6412 198.026 96.5978C198.217 96.6932 198.612 97.1054 198.269 96.7627C198.2 96.6932 198.139 96.6065 198.07 96.5414C198.712 97.1662 198.378 96.9623 198.208 96.6759C198.143 96.5674 198.091 96.4546 198.035 96.3461C197.796 95.8992 198.299 97.049 198.13 96.5717C198.026 96.2767 197.931 95.9773 197.857 95.6692C197.783 95.3611 197.722 95.0487 197.67 94.7363C197.562 94.0551 197.722 95.2136 197.688 94.8795C197.666 94.6756 197.64 94.4673 197.623 94.2634C197.558 93.4997 197.531 92.736 197.531 91.9723C197.531 90.3669 197.64 88.7614 197.796 87.1647C197.879 86.3489 197.974 85.5332 198.078 84.7174C198.13 84.2965 197.974 85.4681 198.035 85.0515C198.048 84.9648 198.061 84.878 198.07 84.7912C198.096 84.5959 198.126 84.405 198.152 84.2098C198.195 83.9104 198.243 83.611 198.291 83.3159C198.391 82.6824 198.495 82.0446 198.616 81.4154C198.877 80.0833 198.243 78.5429 196.798 78.2132C195.509 77.9181 193.874 78.6037 193.596 80.0312V80.0182Z" fill="#FF4409"/>
<path d="M220.456 84.8472C220.456 84.8472 217.102 102.112 221.697 103.266C230.062 105.362 227.876 101.926 235.716 88.1101" fill="#FAF1E7"/>
<path d="M217.945 84.1535C217.541 86.2406 217.255 88.358 217.02 90.4711C216.647 93.8426 216.417 97.3269 217.068 100.681C217.35 102.13 217.936 103.684 219.06 104.695C220.47 105.962 222.561 106.2 224.375 106.391C225.798 106.539 227.269 106.335 228.536 105.636C229.803 104.938 230.684 103.779 231.387 102.581C232.324 100.976 233.027 99.2361 233.808 97.5568C235.088 94.7929 236.464 92.0809 237.965 89.4298C238.638 88.2452 238.286 86.5313 237.032 85.8674C235.778 85.2035 234.186 85.5376 233.47 86.8003C232.155 89.1217 230.931 91.4952 229.79 93.9077C229.031 95.5131 228.328 97.149 227.538 98.7371C227.256 99.3055 226.961 99.8696 226.614 100.403C226.549 100.503 226.484 100.599 226.414 100.698C226.076 101.193 226.827 100.208 226.558 100.52C226.401 100.703 226.25 100.881 226.072 101.041C225.855 101.241 225.477 101.388 226.284 100.894C226.206 100.941 226.132 101.002 226.05 101.054C225.967 101.106 225.885 101.145 225.807 101.193C225.321 101.462 226.549 100.946 226.011 101.106C225.82 101.163 225.633 101.21 225.438 101.254C224.965 101.358 226.289 101.189 225.69 101.215C225.555 101.219 225.416 101.232 225.282 101.232C225.004 101.232 224.731 101.219 224.458 101.193C224.206 101.167 223.65 101.05 224.653 101.228C224.444 101.193 224.236 101.163 224.028 101.124C223.698 101.063 223.368 100.993 223.039 100.915C222.822 100.868 222.605 100.82 222.388 100.759C222.344 100.746 222.297 100.729 222.253 100.72C221.876 100.638 222.926 101.067 222.639 100.889C222.557 100.837 222.462 100.776 222.375 100.733C222.566 100.828 222.961 101.241 222.618 100.898C222.548 100.828 222.488 100.742 222.418 100.677C223.06 101.301 222.726 101.098 222.557 100.811C222.492 100.703 222.44 100.59 222.383 100.481C222.145 100.034 222.648 101.184 222.479 100.707C222.375 100.412 222.279 100.113 222.206 99.8045C222.132 99.4964 222.071 99.184 222.019 98.8716C221.91 98.1903 222.071 99.3489 222.036 99.0148C222.015 98.8108 221.989 98.6026 221.971 98.3986C221.906 97.6349 221.88 96.8713 221.88 96.1076C221.88 94.5021 221.989 92.8967 222.145 91.2999C222.227 90.4842 222.323 89.6684 222.427 88.8527C222.479 88.4318 222.323 89.6033 222.383 89.1868C222.396 89.1 222.409 89.0132 222.418 88.9264C222.444 88.7312 222.475 88.5403 222.501 88.345C222.544 88.0456 222.592 87.7462 222.639 87.4512C222.739 86.8177 222.843 86.1798 222.965 85.5507C223.225 84.2186 222.592 82.6782 221.147 82.3484C219.858 82.0534 218.222 82.7389 217.945 84.1665V84.1535Z" fill="#FF4409"/>
<path d="M185.608 110.847C185.608 110.847 224.439 134.638 243.964 116.848L185.608 110.847Z" fill="#FAF1E7"/>
<path d="M184.293 113.095C185.616 113.906 186.987 114.639 188.363 115.36C191.921 117.225 195.587 118.896 199.319 120.389C203.897 122.22 208.613 123.747 213.443 124.758C218.593 125.834 223.956 126.42 229.206 125.817C234.457 125.214 239.772 123.452 244.115 120.094C244.697 119.647 245.261 119.182 245.808 118.688C246.819 117.772 246.81 115.924 245.808 115.004C244.727 114.01 243.204 114.028 242.124 115.004C241.894 115.212 241.659 115.42 241.417 115.62C241.304 115.711 241.195 115.807 241.082 115.898C241.017 115.95 240.952 116.002 240.891 116.054C240.566 116.319 241.325 115.728 241.078 115.911C240.588 116.271 240.097 116.631 239.585 116.961C238.566 117.62 237.49 118.202 236.383 118.701C236.249 118.761 236.092 118.857 235.949 118.892C235.889 118.909 236.552 118.644 236.296 118.744C236.223 118.774 236.149 118.805 236.075 118.835C235.78 118.952 235.485 119.065 235.19 119.174C234.63 119.373 234.066 119.556 233.498 119.72C232.331 120.055 231.146 120.315 229.948 120.506C229.792 120.532 229.632 120.553 229.475 120.58C229.415 120.588 229.358 120.597 229.297 120.606C228.985 120.653 229.948 120.523 229.632 120.562C229.315 120.601 228.994 120.64 228.673 120.671C228.07 120.731 227.466 120.775 226.859 120.805C225.614 120.866 224.368 120.866 223.127 120.814C221.886 120.762 220.615 120.658 219.365 120.51C219.222 120.493 219.079 120.475 218.931 120.458C218.294 120.376 219.374 120.523 219.005 120.471C218.675 120.423 218.346 120.376 218.02 120.328C217.404 120.232 216.792 120.128 216.176 120.011C211.355 119.109 206.639 117.659 202.061 115.906C201.02 115.507 199.987 115.086 198.954 114.657C198.703 114.553 199.406 114.848 199.332 114.817C199.267 114.791 199.202 114.761 199.137 114.735C199.007 114.678 198.881 114.626 198.751 114.57C198.499 114.461 198.247 114.353 197.996 114.24C197.54 114.041 197.084 113.837 196.629 113.628C195.015 112.895 193.418 112.123 191.838 111.311C190.194 110.47 188.601 109.554 186.992 108.647C186.97 108.634 186.948 108.621 186.927 108.608C185.764 107.896 184.011 108.317 183.364 109.541C182.718 110.765 183.056 112.344 184.297 113.103L184.293 113.095Z" fill="#FF4409"/>
<path d="M242.861 108.746C242.674 111.298 242.527 114.023 243.794 116.249C245 118.362 247.33 119.65 249.721 120.115C252.112 120.579 254.576 120.323 256.985 119.985" fill="#FAF1E7"/>
<path d="M240.257 108.747C240.022 112.018 240.001 115.624 242.084 118.362C244.305 121.287 247.672 122.645 251.265 122.922C253.413 123.087 255.556 122.788 257.678 122.493C258.277 122.41 258.945 121.79 259.236 121.295C259.561 120.735 259.7 119.915 259.496 119.291C259.292 118.666 258.902 118.054 258.299 117.733C257.635 117.381 257.027 117.368 256.294 117.473C256.155 117.494 256.016 117.512 255.882 117.529C256.229 117.481 256.251 117.477 255.951 117.516C255.708 117.542 255.465 117.577 255.222 117.603C254.702 117.659 254.181 117.702 253.66 117.733C253.174 117.759 252.688 117.772 252.202 117.759C251.755 117.75 251.178 117.794 250.753 117.668C251.391 117.859 250.679 117.65 250.519 117.624C250.323 117.59 250.133 117.546 249.942 117.503C249.573 117.412 249.204 117.303 248.844 117.173C248.74 117.134 248.64 117.099 248.536 117.056C248.905 117.217 248.961 117.238 248.705 117.125C248.557 117.056 248.41 116.987 248.262 116.913C247.902 116.726 247.555 116.518 247.221 116.284C246.692 115.91 247.546 116.596 247.173 116.245C247.017 116.097 246.852 115.963 246.7 115.806C246.588 115.693 246.483 115.568 246.375 115.455C246.201 115.242 246.236 115.294 246.479 115.607C246.414 115.52 246.353 115.433 246.292 115.346C246.201 115.212 246.119 115.073 246.036 114.934C245.976 114.83 245.919 114.722 245.863 114.613C245.741 114.353 245.754 114.396 245.902 114.743C245.694 114.435 245.607 113.897 245.524 113.546C245.477 113.342 245.446 113.133 245.403 112.925C245.373 112.726 245.381 112.808 245.433 113.168C245.42 113.047 245.407 112.925 245.394 112.804C245.355 112.374 245.338 111.949 245.334 111.519C245.325 110.595 245.39 109.671 245.455 108.751C245.555 107.389 244.188 106.087 242.852 106.148C241.359 106.213 240.352 107.293 240.248 108.751L240.257 108.747Z" fill="#FF4409"/>
<path d="M211.19 102.325C208.114 100.437 204.005 98.5759 201.171 100.811C198.594 102.841 199.149 107.211 201.51 109.484C203.87 111.758 207.341 112.405 210.613 112.635" fill="#FAF1E7"/>
<path d="M212.505 100.077C210.214 98.6759 207.736 97.5087 205.037 97.231C202.338 96.9533 199.557 98.1553 198.016 100.481C196.697 102.473 196.58 105.232 197.318 107.458C198.134 109.914 199.822 111.862 202.082 113.112C204.694 114.557 207.675 115.026 210.613 115.238C211.975 115.338 213.277 113.971 213.216 112.635C213.151 111.142 212.071 110.135 210.613 110.031C210.131 109.997 209.645 109.953 209.168 109.901C209.055 109.888 208.847 109.819 208.743 109.849C208.79 109.836 209.389 109.949 208.925 109.871C208.643 109.823 208.361 109.78 208.079 109.723C207.84 109.675 205.289 108.955 205.302 108.929C205.328 108.89 205.822 109.168 205.462 108.994C205.336 108.933 205.211 108.877 205.085 108.812C204.885 108.712 204.69 108.608 204.499 108.495C204.282 108.369 204.074 108.235 203.866 108.092C203.774 108.031 203.688 107.953 203.596 107.896L203.861 108.096C203.774 108.027 203.688 107.953 203.605 107.879C203.453 107.745 203.301 107.601 203.163 107.454C203.098 107.384 203.041 107.315 202.976 107.246C202.698 106.955 203.102 107.41 203.119 107.445C202.92 107.076 202.646 106.751 202.455 106.369C202.416 106.295 202.382 106.187 202.334 106.113C202.672 106.629 202.49 106.517 202.412 106.278C202.351 106.1 202.29 105.922 202.238 105.74C202.182 105.536 202.143 105.332 202.095 105.124C202.047 104.916 202.108 104.712 202.126 105.401C202.126 105.263 202.095 105.124 202.087 104.989C202.065 104.62 202.108 104.265 202.117 103.9C202.091 104.72 202.091 104.147 202.16 103.87C202.212 103.679 202.299 103.497 202.347 103.306C202.191 103.939 202.152 103.722 202.277 103.51C202.321 103.436 202.36 103.353 202.408 103.28C202.455 103.206 202.507 103.132 202.551 103.058C202.707 102.772 202.095 103.566 202.425 103.219C202.551 103.089 202.677 102.963 202.802 102.833C202.941 102.69 203.106 102.703 202.616 102.963C202.755 102.889 202.885 102.776 203.019 102.698C203.111 102.646 203.206 102.598 203.297 102.546C203.505 102.434 203.588 102.538 203.106 102.624C203.301 102.59 203.501 102.49 203.696 102.447C203.748 102.434 203.944 102.421 204 102.386C203.675 102.585 203.466 102.442 203.848 102.416C204.082 102.399 204.321 102.399 204.555 102.408C204.69 102.412 204.82 102.429 204.955 102.438C205.284 102.46 204.356 102.329 204.829 102.421C205.102 102.473 205.376 102.529 205.645 102.598C206.2 102.746 206.725 102.993 207.272 103.154C207.211 103.136 206.721 102.907 207.133 103.102C207.293 103.176 207.454 103.249 207.61 103.323C207.875 103.449 208.135 103.583 208.391 103.722C208.895 103.991 209.389 104.278 209.875 104.577C211.038 105.289 212.791 104.868 213.438 103.644C214.084 102.421 213.746 100.841 212.505 100.082V100.077Z" fill="#FF4409"/>
</svg>
