<svg width="122" height="149" viewBox="0 0 122 149" fill="none" xmlns="http://www.w3.org/2000/svg">
<path d="M23.6713 48.3179C19.0642 39.5968 17.3443 29.6195 16.874 19.7705C13.3784 19.7738 9.88269 19.7804 6.37386 19.7869C2.85846 20.2473 7.50841 40.6261 8.13651 43.0662C11.3296 55.4079 19.6495 67.2761 30.9817 73.4289C33.4711 74.7804 54.205 81.6731 55.2935 77.4507C57.0265 70.7422 55.8262 70.1765 49.3413 67.9469C46.6711 67.0294 43.8331 66.5658 41.2385 65.4378C33.6453 62.146 27.486 55.5493 23.6648 48.3212L23.6713 48.3179Z" fill="#FAF1E7"/>
<path d="M25.3742 47.3243C24.9171 46.4561 24.4863 45.5781 24.0818 44.6869C24.0029 44.5093 23.9207 44.3285 23.8418 44.1509C23.7924 44.0391 23.7431 43.9273 23.6971 43.8154L23.6675 43.7497C23.582 43.5491 23.5918 43.5688 23.6938 43.8154C23.6313 43.8023 23.4636 43.2564 23.4439 43.2038C23.3452 42.9539 23.2465 42.7039 23.1479 42.454C22.4639 40.6749 21.8753 38.8564 21.3754 37.0181C20.8756 35.1799 20.4645 33.3515 20.1225 31.4935C19.9482 30.5497 19.7936 29.6026 19.6555 28.6522C19.6226 28.4319 19.593 28.2148 19.5634 27.9945C19.547 27.8728 19.4812 27.521 19.5634 28.0077C19.547 27.9123 19.5371 27.8104 19.524 27.715C19.4615 27.225 19.4023 26.7383 19.3497 26.2483C19.1096 24.0977 18.9485 21.9371 18.8433 19.7766C18.7906 18.7111 17.9817 17.8035 16.8702 17.8035C14.7392 17.8035 12.6083 17.81 10.4773 17.8133C9.41187 17.8133 8.34309 17.8133 7.27762 17.8166C6.49496 17.8166 5.76493 17.7903 5.07106 18.1882C3.52546 19.0728 3.23278 21.0624 3.13084 22.6672C3.01245 24.5482 3.1966 26.4522 3.41364 28.3168C3.68988 30.6812 4.06148 33.0358 4.49228 35.3805C5.09407 38.6558 5.72546 41.964 6.66926 45.1637C8.61605 51.7605 11.8684 57.9066 16.127 63.2965C18.1921 65.9075 20.5171 68.3114 23.0887 70.4292C24.4436 71.544 25.8543 72.5963 27.3243 73.5533C28.2845 74.1781 29.2744 74.8161 30.3135 75.2995C31.6881 75.9374 33.1252 76.4406 34.559 76.9273C36.5255 77.5981 38.515 78.2065 40.521 78.759C42.6552 79.3443 44.8092 79.8705 46.9895 80.2519C48.8803 80.5841 50.8699 80.9064 52.797 80.7485C54.5958 80.6005 56.5392 80.0119 57.1608 78.1046C57.5751 76.8352 57.802 75.4442 57.9369 74.1222C58.0388 73.1422 58.0092 72.0702 57.6508 71.1428C57.2068 69.9853 56.4768 69.1401 55.4705 68.4265C54.553 67.7754 53.4612 67.3644 52.4221 66.9632C50.9653 66.4041 49.4854 65.8944 47.9859 65.4702C46.0884 64.9374 44.1614 64.5001 42.3231 63.7733C42.231 63.7371 42.1324 63.7043 42.0436 63.6615C42.4777 63.872 42.083 63.6747 41.9975 63.6385C41.8397 63.5694 41.6818 63.4971 41.5273 63.4247C41.1162 63.234 40.7117 63.0334 40.3105 62.8229C39.564 62.4316 38.834 62.0107 38.1204 61.5602C37.4068 61.1096 36.7458 60.6525 36.0815 60.1625C35.9862 60.0935 35.4041 59.6265 35.8579 59.9981C35.7067 59.8732 35.5488 59.7581 35.3975 59.6331C35.0424 59.347 34.6905 59.0543 34.3452 58.7518C33.0758 57.6501 31.8821 56.4597 30.7706 55.2002C30.4944 54.8878 30.2247 54.5754 29.9584 54.2564C29.692 53.9374 29.3336 53.5987 29.1362 53.237C29.3303 53.5954 29.2875 53.4376 29.2053 53.3258C29.1395 53.2403 29.0738 53.1515 29.008 53.066C28.8896 52.9081 28.7745 52.7536 28.6561 52.5924C28.3996 52.2406 28.1497 51.8854 27.9031 51.527C26.979 50.1787 26.1338 48.7745 25.3676 47.3309C24.8842 46.4166 23.5392 46.0615 22.6678 46.6238C21.7404 47.2223 21.4412 48.347 21.9607 49.3237C25.1539 55.3416 29.7413 60.7084 35.4173 64.5067C36.7623 65.4077 38.1763 66.2068 39.6495 66.8842C41.4812 67.7294 43.3787 68.3147 45.3222 68.8376C47.0059 69.2881 48.66 69.788 50.3043 70.3733C50.8732 70.5772 51.4388 70.7877 51.9979 71.0146C52.2675 71.1231 51.7578 70.9093 51.7611 70.9159C51.8005 70.9554 51.8992 70.9751 51.9485 70.9981C52.057 71.0475 52.1656 71.0968 52.2708 71.1461C52.4911 71.2514 52.7082 71.3599 52.9219 71.4815C53.0929 71.5802 53.2639 71.6821 53.4283 71.7972C53.4612 71.8203 53.4974 71.8466 53.5303 71.8696C53.7703 72.0274 53.1357 71.5473 53.3001 71.6887C53.3823 71.7578 53.4678 71.8268 53.5467 71.8992C53.6552 71.9978 53.767 72.1952 53.892 72.2675C53.7868 72.205 53.5566 71.7841 53.744 72.0866C53.7999 72.1787 53.8591 72.2675 53.9085 72.3661C53.9414 72.4286 53.9677 72.4977 54.0038 72.5635C53.6684 71.9485 53.8558 72.1984 53.9216 72.4023C53.9775 72.5799 54.0104 72.7608 54.0466 72.9416C54.0959 73.162 53.9841 72.3366 54.0038 72.6325C54.0038 72.6753 54.0137 72.718 54.017 72.7575C54.0268 72.866 54.0334 72.9778 54.0334 73.0863C54.04 73.3132 54.0334 73.5434 54.017 73.7703C54.0104 73.8887 53.9973 74.0038 53.9874 74.1222C53.9808 74.1748 53.9742 74.2307 53.9709 74.2833C53.9414 74.6221 54.0433 73.8032 54.0038 74.0531C53.9545 74.3557 53.9085 74.6582 53.8493 74.9608C53.721 75.625 53.5434 76.2762 53.3922 76.9339C53.3922 76.9437 53.3461 77.0884 53.3428 77.0884C53.333 77.0851 53.6224 76.4702 53.4645 76.7727C53.4415 76.8155 53.4053 76.8517 53.3856 76.8911C53.6355 76.3485 53.744 76.4801 53.5697 76.6379C53.5434 76.6609 53.4612 76.7168 53.4481 76.7497C53.4678 76.707 53.9742 76.3946 53.7079 76.5425C53.5993 76.6017 53.4908 76.6609 53.3823 76.7201C54.0499 76.3452 53.7177 76.5886 53.4678 76.6642C53.3231 76.707 53.1751 76.7431 53.0272 76.7727C52.9548 76.7859 52.8824 76.799 52.8101 76.8089C52.4845 76.8681 53.4283 76.7398 53.0567 76.776C52.8759 76.7925 52.695 76.8122 52.5141 76.8221C51.7019 76.8648 50.8863 76.8188 50.0774 76.7398C49.8603 76.7201 49.6433 76.6938 49.4263 76.6675C49.3243 76.6543 48.8935 76.5984 49.3177 76.6543C49.7419 76.7103 49.2224 76.6412 49.127 76.6248C48.6403 76.5524 48.1569 76.4735 47.6735 76.3847C46.6179 76.1907 45.5688 75.9638 44.5231 75.7171C40.7315 74.8161 36.9661 73.6947 33.3225 72.3102C33.0397 72.2017 32.7569 72.0899 32.4741 71.9748C32.017 71.7874 32.9969 72.2017 32.5793 72.0209C32.4806 71.9781 32.3853 71.9354 32.2866 71.8893C31.2705 71.4158 30.3037 70.791 29.3632 70.1826C28.689 69.7452 28.028 69.2914 27.3802 68.8146C27.2092 68.6896 27.0382 68.5646 26.8705 68.4364C26.8047 68.3871 26.7356 68.3312 26.6699 68.2818C27.0678 68.5646 26.854 68.4265 26.7685 68.3575C26.4364 68.0944 26.1042 67.8313 25.7754 67.5617C24.5291 66.5291 23.3419 65.4307 22.214 64.2699C21.086 63.109 20.0074 61.8824 18.9945 60.6098C18.9419 60.544 18.8893 60.475 18.8367 60.4092C18.8104 60.3763 18.5374 60.054 18.7545 60.304C18.9715 60.5539 18.6986 60.2316 18.6723 60.1987C18.6196 60.1297 18.567 60.0606 18.5177 59.9948C18.2579 59.6528 18.0047 59.3075 17.7581 58.959C17.2845 58.2947 16.8274 57.6205 16.3835 56.9365C15.512 55.5883 14.7063 54.1972 13.9631 52.77C13.5882 52.0498 13.2298 51.3231 12.8911 50.5865C12.7299 50.2379 12.5721 49.8893 12.4208 49.5374C12.3682 49.4125 12.1249 48.8172 12.3452 49.3631C12.2663 49.1658 12.1808 48.9718 12.1019 48.7745C10.6418 45.1736 9.72755 41.4543 8.94489 37.6594C8.52725 35.6271 8.1425 33.5882 7.81365 31.5395C7.72486 30.9969 7.64266 30.4543 7.56374 29.9084C7.52757 29.6519 7.49139 29.3954 7.45521 29.1422C7.56044 29.8985 7.48152 29.3231 7.4585 29.1586C7.44206 29.0172 7.42232 28.8791 7.40588 28.7377C7.28091 27.7249 7.17569 26.7087 7.10992 25.6926C7.05402 24.8178 7.02112 23.9398 7.05401 23.0651C7.06716 22.7231 7.17239 22.3153 7.13622 21.9766C7.14608 22.0752 7.04086 22.6014 7.10334 22.2462C7.1165 22.164 7.12965 22.0851 7.14609 22.0029C7.1724 21.8615 7.20528 21.7201 7.24474 21.582C7.27763 21.4636 7.32037 21.3485 7.35983 21.2334C7.45191 20.9604 7.09018 21.7858 7.24145 21.5162C7.27105 21.4603 7.29736 21.4011 7.33025 21.3485C7.35327 21.309 7.39273 21.2663 7.40917 21.2268C7.46836 21.0887 7.01126 21.7168 7.20528 21.4964C7.23159 21.4669 7.27762 21.4405 7.29735 21.4044C7.35654 21.3189 6.78435 21.7595 7.03098 21.6148C7.30393 21.457 6.57718 21.7957 6.70543 21.7431C6.74489 21.7266 6.78437 21.7201 6.82383 21.7102C7.00798 21.6576 6.56403 21.9174 6.53115 21.7694C6.53115 21.776 6.8863 21.7694 6.86 21.7694C7.13294 21.7694 7.40917 21.7694 7.68212 21.7694C8.72128 21.7694 9.76044 21.7694 10.7996 21.7661C12.822 21.7661 14.8445 21.7595 16.8669 21.7562L14.8938 19.7831C15.272 27.6328 16.3835 35.5679 19.1327 42.9637C19.9416 45.1407 20.8788 47.2717 21.9607 49.327C22.4409 50.2412 23.7924 50.593 24.6606 50.034C25.5913 49.4355 25.8839 48.3141 25.3676 47.3341L25.3742 47.3243Z" fill="#FF4409"/>
<path d="M96.6664 111.412C101.185 119.966 102.221 128.963 103.536 138.388C103.608 138.917 103.72 139.509 104.161 139.812C104.486 140.035 104.914 140.039 105.309 140.032C108.235 139.986 111.162 139.94 114.089 139.894C114.855 119.13 109.094 97.0349 89.3495 86.3078C86.8634 84.9563 66.1262 78.0636 65.0344 82.286C63.3014 88.9945 64.5017 89.5602 70.9866 91.7898C73.6569 92.7073 76.4948 93.1709 79.0894 94.2989C86.6826 97.5907 92.8419 104.187 96.6631 111.415L96.6664 111.412Z" fill="#FAF1E7"/>
<path d="M94.9632 112.409C95.2789 113.008 95.5814 113.616 95.8708 114.231C95.9991 114.501 96.1208 114.77 96.2424 115.043C96.3115 115.201 96.3805 115.359 96.4496 115.52C96.4693 115.563 96.5647 115.796 96.466 115.556C96.3674 115.316 96.4891 115.616 96.5088 115.662C97.0021 116.855 97.446 118.072 97.8439 119.299C98.6332 121.732 99.2382 124.222 99.7381 126.727C100.238 129.233 100.633 131.805 100.998 134.357C101.182 135.652 101.359 136.951 101.54 138.247C101.642 138.97 101.731 139.618 102.05 140.286C102.435 141.095 103.247 141.72 104.118 141.897C104.983 142.075 105.894 141.993 106.772 141.979C107.584 141.966 108.4 141.953 109.212 141.94C110.84 141.914 112.465 141.887 114.092 141.864C115.187 141.848 116.026 140.973 116.065 139.891C116.259 134.577 116.003 129.266 115.266 124.001C114.53 118.736 113.343 113.935 111.465 109.18C109.508 104.228 106.914 99.6072 103.543 95.4802C100.152 91.3301 95.9662 87.8213 91.3261 85.1477C88.8696 83.7337 86.104 82.8819 83.414 82.0401C79.8164 80.9121 76.1432 79.9026 72.414 79.337C70.7994 79.0936 69.1255 78.8535 67.4911 79.0015C65.9784 79.1363 64.3342 79.5408 63.4923 80.9417C63.2523 81.3429 63.1372 81.7803 63.0254 82.2242C62.8807 82.803 62.7491 83.3851 62.6406 83.9704C62.4597 84.9537 62.2887 85.983 62.3742 86.986C62.4565 87.9396 62.6702 88.8867 63.2194 89.6924C63.7686 90.4981 64.4756 91.1097 65.3043 91.5997C66.2185 92.1423 67.2313 92.5271 68.2245 92.8987C69.4872 93.3722 70.7632 93.8162 72.0588 94.1911C73.7097 94.6679 75.3901 95.0526 77.0179 95.6051C77.3994 95.7334 77.7775 95.8781 78.1524 96.0261C78.2478 96.0655 78.4977 96.1214 78.0998 96.003C78.1787 96.0261 78.2642 96.0754 78.3366 96.1083C78.5142 96.1872 78.6917 96.2661 78.866 96.3516C79.5106 96.6542 80.1453 96.9797 80.7668 97.3283C82.0526 98.0485 83.2858 98.8574 84.4598 99.742C84.5288 99.7947 84.5979 99.8506 84.6669 99.8999C84.6275 99.8736 84.3085 99.6204 84.5781 99.8308C84.713 99.9393 84.8511 100.048 84.9859 100.156C85.2753 100.39 85.5581 100.627 85.8376 100.867C86.3835 101.337 86.9162 101.82 87.4325 102.32C88.5013 103.353 89.5109 104.448 90.4547 105.592C90.6783 105.862 90.8953 106.135 91.1124 106.408C91.1814 106.493 91.3557 106.674 91.0433 106.319C91.0992 106.385 91.1518 106.46 91.2012 106.526C91.3195 106.681 91.4379 106.839 91.553 106.996C91.9904 107.592 92.4146 108.197 92.8224 108.812C93.5919 109.976 94.3055 111.179 94.9599 112.416C95.4433 113.33 96.7883 113.685 97.6598 113.123C98.5871 112.524 98.8864 111.4 98.3668 110.423C95.6472 105.293 91.9016 100.581 87.3109 96.9994C84.8511 95.079 82.2269 93.4676 79.3363 92.2805C77.7907 91.6458 76.1761 91.2248 74.5647 90.7908C73.098 90.3961 71.6544 89.9489 70.2239 89.4425C69.7273 89.2682 69.2307 89.0873 68.7408 88.8933C68.629 88.8506 68.5204 88.8045 68.4119 88.7618C67.9811 88.5842 68.7704 88.9229 68.4941 88.7946C68.2902 88.7026 68.0863 88.6138 67.8857 88.5151C67.547 88.3474 67.2149 88.1633 66.9025 87.9462C66.7512 87.841 66.5342 87.6174 67.0538 88.0712C66.9946 88.0186 66.9321 87.9725 66.8696 87.9199C66.7479 87.8147 66.6394 87.6963 66.5276 87.5812C66.2777 87.3181 66.7019 87.7423 66.6789 87.7884C66.6854 87.7719 66.5671 87.6305 66.5539 87.6108C66.5177 87.5516 66.3697 87.1932 66.3237 87.1833C66.3928 87.1997 66.5473 87.7621 66.4224 87.397C66.4026 87.3345 66.3829 87.2721 66.3665 87.2063C66.3467 87.1307 66.327 87.055 66.3139 86.9794C66.3073 86.9399 66.3007 86.9005 66.2908 86.861C66.2251 86.5782 66.3369 87.157 66.3303 87.1734C66.3763 87.078 66.2941 86.7657 66.2941 86.6538C66.2875 86.45 66.2941 86.2494 66.3073 86.0455C66.3204 85.8416 66.3434 85.6245 66.3665 85.4141C66.3895 85.1806 66.2941 85.9205 66.3303 85.687C66.3402 85.6278 66.3467 85.5719 66.3566 85.5127C66.3763 85.3779 66.3994 85.2431 66.4224 85.1083C66.521 84.5459 66.646 83.9902 66.7841 83.4344C66.84 83.2042 66.9091 82.974 66.9617 82.7438C67.0242 82.461 66.8597 83.0431 66.8203 83.0661C66.8466 83.0496 66.8795 82.9543 66.8959 82.928C67.0735 82.6221 66.4618 83.3752 66.7677 83.1023C66.794 83.076 66.8269 83.0496 66.8532 83.0233C66.9979 82.8589 66.3599 83.3522 66.6032 83.2174C66.6887 83.1713 66.771 83.1187 66.8532 83.0694C67.1228 82.9148 66.6197 83.1845 66.5572 83.1878C66.6098 83.1878 66.6789 83.1417 66.7282 83.122C66.965 83.0398 67.2083 82.9905 67.4517 82.9444C67.8134 82.8754 67.2248 83.02 67.1754 82.9773C67.1952 82.9937 67.3497 82.9576 67.3826 82.9543C67.5372 82.9379 67.6917 82.928 67.8463 82.9181C68.5336 82.8852 69.2209 82.9148 69.9049 82.9707C70.3127 83.0036 70.7204 83.0529 71.1282 83.1023C71.4209 83.1384 70.5429 83.0201 70.9408 83.076C71.0427 83.0891 71.1446 83.1056 71.2466 83.1187C71.4669 83.1516 71.6873 83.1845 71.9076 83.2239C72.8086 83.3719 73.7031 83.5495 74.5943 83.7468C76.4457 84.1513 78.2807 84.6347 80.0992 85.1609C81.7435 85.6377 83.3778 86.1507 84.9958 86.7065C85.637 86.9268 86.2783 87.157 86.913 87.397C87.1695 87.4924 87.4227 87.5911 87.6792 87.6963C87.7778 87.7358 87.8798 87.7785 87.9784 87.818C88.1692 87.8969 87.3964 87.568 87.6891 87.6963C87.745 87.7193 87.8009 87.7456 87.8568 87.7686C88.5178 88.0613 89.1393 88.4362 89.7608 88.8045C90.8888 89.4721 91.9871 90.1857 93.0493 90.9519C93.3058 91.136 93.5623 91.3235 93.8155 91.5142C93.924 91.5964 94.0358 91.6819 94.1444 91.7642C93.6544 91.3991 94.1838 91.797 94.3022 91.8924C94.7889 92.2805 95.269 92.6783 95.7393 93.0894C96.6962 93.9214 97.6137 94.7994 98.4917 95.7136C99.3566 96.618 100.182 97.5585 100.968 98.5319C101.063 98.6503 101.155 98.7686 101.251 98.887C101.297 98.9462 101.343 99.0054 101.389 99.0646C101.372 99.0416 101.093 98.6766 101.287 98.9331C101.481 99.1896 101.672 99.4428 101.862 99.7026C102.227 100.202 102.583 100.709 102.928 101.225C104.296 103.267 105.5 105.418 106.542 107.641C106.805 108.203 107.058 108.769 107.302 109.341C107.351 109.453 107.427 109.686 107.236 109.183C107.262 109.252 107.295 109.321 107.321 109.39C107.381 109.529 107.436 109.67 107.492 109.808C107.604 110.088 107.716 110.367 107.824 110.65C108.275 111.814 108.683 112.995 109.058 114.188C109.811 116.592 110.413 119.045 110.883 121.522C111.116 122.752 111.317 123.985 111.488 125.225C111.554 125.711 111.432 124.787 111.494 125.274C111.514 125.428 111.534 125.58 111.554 125.734C111.593 126.06 111.633 126.385 111.669 126.711C111.741 127.346 111.804 127.98 111.859 128.615C112.08 131.137 112.188 133.669 112.192 136.202C112.192 137.435 112.172 138.665 112.126 139.898L114.099 137.925C111.307 137.967 108.515 138.014 105.723 138.056C105.565 138.056 105.407 138.063 105.25 138.063C105.161 138.063 104.743 138.02 105.046 138.079C105.348 138.138 105.092 138.092 105.046 138.073C105.042 138.073 105.414 138.25 105.22 138.148C105.006 138.037 105.437 138.342 105.48 138.388C105.703 138.619 105.45 138.237 105.565 138.536C105.68 138.836 105.555 138.467 105.536 138.388C105.509 138.273 105.486 138.158 105.47 138.043C105.421 137.741 105.384 137.435 105.342 137.132C105.164 135.86 104.99 134.587 104.809 133.318C104.105 128.382 103.29 123.439 101.79 118.674C100.896 115.836 99.7611 113.06 98.3767 110.426C97.8965 109.512 96.545 109.16 95.6768 109.719C94.7462 110.321 94.4535 111.439 94.9698 112.419L94.9632 112.409Z" fill="#FF4409"/>
<path d="M117.029 141.38C119.427 137.228 117.037 131.36 111.693 128.275C106.348 125.189 100.072 126.054 97.6748 130.206C95.2774 134.358 97.6666 140.226 103.011 143.312C108.356 146.397 114.632 145.533 117.029 141.38Z" fill="#FF4409"/>
<path d="M115.324 140.382C115.209 140.576 115.087 140.76 114.959 140.948C114.929 140.99 114.893 141.027 114.867 141.073C114.857 141.092 115.156 140.727 115.018 140.875C114.936 140.961 114.867 141.06 114.788 141.145C114.64 141.309 114.485 141.464 114.324 141.615C114.236 141.694 114.147 141.77 114.058 141.849C113.831 142.053 114.433 141.582 114.094 141.822C113.729 142.079 113.351 142.316 112.95 142.513C112.844 142.566 112.72 142.605 112.618 142.668C112.598 142.681 113.045 142.503 112.848 142.569C112.798 142.585 112.749 142.608 112.7 142.628C112.466 142.717 112.23 142.796 111.993 142.865C111.786 142.924 111.575 142.977 111.361 143.023C111.236 143.049 111.111 143.075 110.983 143.095C110.927 143.105 110.875 143.112 110.819 143.121C110.546 143.171 110.954 143.102 111.013 143.098C110.5 143.141 109.997 143.19 109.48 143.184C109.247 143.184 109.013 143.171 108.78 143.154C108.642 143.144 108.504 143.131 108.369 143.118C108.31 143.112 108.25 143.105 108.191 143.098C107.931 143.072 108.619 143.167 108.359 143.121C107.813 143.026 107.277 142.921 106.741 142.773C106.498 142.704 106.258 142.628 106.021 142.546C105.879 142.497 105.741 142.447 105.603 142.395C105.544 142.372 105.485 142.349 105.422 142.326C105.179 142.234 105.445 142.332 105.537 142.378C105.028 142.118 104.505 141.898 104.005 141.612C103.505 141.326 103.055 141.007 102.591 140.681C102.413 140.556 102.752 140.81 102.746 140.803C102.699 140.764 102.65 140.727 102.601 140.688C102.489 140.599 102.381 140.51 102.272 140.418C102.075 140.251 101.881 140.076 101.693 139.895C101.312 139.53 100.953 139.146 100.618 138.738C100.582 138.695 100.546 138.649 100.509 138.603C100.371 138.439 100.651 138.79 100.641 138.777C100.578 138.685 100.506 138.596 100.437 138.504C100.286 138.291 100.138 138.074 99.9996 137.853C99.7398 137.436 99.5129 137.002 99.3025 136.558C99.2794 136.512 99.263 136.456 99.2367 136.41C99.2235 136.387 99.4044 136.834 99.3321 136.637C99.2959 136.538 99.2531 136.439 99.217 136.341C99.1315 136.114 99.0558 135.88 98.9868 135.647C98.9243 135.433 98.8717 135.219 98.8256 135.002C98.8059 134.903 98.7862 134.805 98.7664 134.703C98.7336 134.522 98.7335 134.085 98.7631 134.729C98.7434 134.298 98.6941 133.881 98.7105 133.447C98.7138 133.348 98.7204 133.253 98.727 133.154C98.7336 133.055 98.7829 132.654 98.7336 133.029C98.6842 133.404 98.7336 133.042 98.75 132.957C98.7697 132.845 98.7928 132.736 98.8191 132.625C98.8651 132.421 98.921 132.217 98.9868 132.019C99.0164 131.927 99.0525 131.835 99.0821 131.747C99.2235 131.342 98.8881 132.148 99.069 131.77C99.2498 131.391 99.4767 131 99.7267 130.635C99.9602 130.293 99.4833 130.918 99.6971 130.668C99.7629 130.592 99.8286 130.513 99.8977 130.438C100.056 130.26 100.223 130.092 100.401 129.935C100.476 129.865 100.555 129.803 100.631 129.734C100.881 129.51 100.279 129.984 100.552 129.79C100.746 129.652 100.943 129.514 101.147 129.392C101.338 129.277 101.535 129.168 101.739 129.07C101.831 129.024 101.93 128.984 102.022 128.938C102.206 128.843 101.769 129.04 101.792 129.034C101.874 129.007 101.956 128.968 102.038 128.938C102.476 128.774 102.923 128.645 103.38 128.55C103.489 128.527 103.594 128.507 103.702 128.488C103.775 128.474 103.847 128.465 103.919 128.451C104.137 128.412 103.643 128.484 103.67 128.484C103.933 128.461 104.192 128.428 104.456 128.415C104.955 128.389 105.459 128.396 105.962 128.435C106.08 128.445 106.198 128.455 106.317 128.468C106.376 128.474 106.435 128.481 106.494 128.488C106.754 128.514 106.067 128.422 106.327 128.465C106.586 128.507 106.846 128.55 107.103 128.606C107.652 128.724 108.195 128.876 108.724 129.063C108.846 129.106 108.964 129.149 109.082 129.195C109.211 129.244 109.638 129.454 109.148 129.214C109.401 129.339 109.665 129.445 109.918 129.573C110.441 129.833 110.944 130.125 111.43 130.448C111.638 130.586 111.841 130.73 112.042 130.875C112.325 131.079 111.736 130.628 112.082 130.905C112.193 130.993 112.302 131.082 112.41 131.174C112.818 131.523 113.206 131.895 113.568 132.286C113.726 132.457 113.877 132.631 114.025 132.809C114.117 132.917 114.37 133.286 114.038 132.812C114.114 132.921 114.196 133.022 114.272 133.131C114.551 133.522 114.808 133.93 115.035 134.354C115.146 134.561 115.252 134.769 115.35 134.982C115.373 135.032 115.393 135.081 115.416 135.127C115.511 135.315 115.314 134.877 115.321 134.9C115.363 135.032 115.426 135.163 115.475 135.295C115.63 135.716 115.755 136.147 115.847 136.584C115.87 136.699 115.893 136.814 115.913 136.932C115.926 137.018 115.978 137.386 115.929 137.018C115.88 136.65 115.926 137.018 115.932 137.103C115.946 137.235 115.952 137.367 115.959 137.498C115.965 137.695 115.969 137.889 115.959 138.087C115.955 138.202 115.949 138.314 115.939 138.429C115.932 138.521 115.883 138.932 115.932 138.554C115.982 138.176 115.923 138.596 115.906 138.675C115.89 138.771 115.87 138.866 115.847 138.958C115.798 139.179 115.735 139.396 115.663 139.609C115.633 139.701 115.597 139.79 115.564 139.882C115.456 140.195 115.758 139.471 115.613 139.77C115.515 139.978 115.413 140.182 115.301 140.382C114.791 141.28 115.058 142.579 116.008 143.082C116.958 143.585 118.162 143.332 118.708 142.375C121.138 138.093 119.53 132.97 116.393 129.537C112.91 125.729 107.317 123.634 102.219 124.772C99.8451 125.301 97.7733 126.643 96.3428 128.606C95.0767 130.346 94.5572 132.661 94.8104 134.782C95.4253 139.899 99.24 143.976 103.877 145.933C108.27 147.788 114.203 147.712 117.59 143.898C118.007 143.427 118.389 142.918 118.708 142.375C119.231 141.484 118.941 140.172 118.001 139.675C117.06 139.179 115.86 139.432 115.301 140.382H115.324Z" fill="#FF4409"/>
<path d="M39.4578 1.60584L7.63223 17.3696C6.57436 17.8936 6.14156 19.1759 6.66554 20.2338L8.15288 23.2366C8.67686 24.2945 9.9592 24.7273 11.0171 24.2033L42.8427 8.43951C43.9005 7.91553 44.3333 6.6332 43.8094 5.57533L42.322 2.57253C41.798 1.51466 40.5157 1.08186 39.4578 1.60584Z" fill="#FFA14C"/>
<path d="M24.452 3.77323C23.061 3.12211 21.374 3.6121 20.1342 4.8683C19.4075 4.09551 18.5459 3.45425 17.5527 2.99058C12.5345 0.64588 6.16141 3.68116 3.31686 9.77145C0.472314 15.8617 2.23494 22.6952 7.25647 25.0399C12.2747 27.3846 18.6478 24.3493 21.4924 18.259C22.377 16.3649 22.8143 14.3984 22.8505 12.514C24.0607 12.1194 25.1985 11.1164 25.8628 9.69252C26.9776 7.30507 26.3462 4.65455 24.4553 3.77323H24.452Z" fill="#FF4409"/>
<path d="M25.4451 2.07085C24.2514 1.5414 23.0478 1.37368 21.7653 1.68938C20.6176 1.97219 19.5686 2.64962 18.7366 3.47175H21.5285C19.7199 1.57758 17.3258 0.492376 14.7378 0.258893C12.597 0.0648724 10.4397 0.627199 8.5291 1.55784C4.3297 3.60657 1.27799 7.93752 0.340767 12.4658C-0.596453 16.994 0.340757 22.0452 3.88575 25.1429C5.64181 26.6786 7.75302 27.5567 10.0714 27.7671C12.2287 27.9612 14.4057 27.3922 16.3294 26.4452C20.713 24.2813 23.8765 19.615 24.6 14.8236C24.7151 14.0574 24.8039 13.2912 24.8203 12.5151L23.3734 14.4191C25.8825 13.5674 27.8161 11.2786 28.2469 8.65442C28.6777 6.0302 27.895 3.26786 25.4484 2.07414C24.521 1.62361 23.2714 1.79133 22.7486 2.78116C22.2816 3.66906 22.4657 4.9976 23.4556 5.48101C23.6266 5.56651 23.7812 5.66846 23.9423 5.76712C24.1363 5.88551 23.597 5.45142 23.8206 5.68162C23.8929 5.75396 23.9686 5.82302 24.0344 5.89866C24.087 5.95785 24.3007 6.19462 24.0738 5.93483C23.8469 5.67503 24.0508 5.91839 24.0935 5.99073C24.1494 6.07952 24.1988 6.1716 24.2481 6.26368C24.2843 6.33273 24.4323 6.6287 24.2777 6.31629C24.1231 6.00389 24.2646 6.30314 24.2909 6.38207C24.3238 6.4873 24.3533 6.59253 24.3796 6.69776C24.4027 6.78655 24.4158 6.87862 24.4356 6.9707C24.4882 7.21076 24.3928 6.48729 24.4158 6.83916C24.429 7.05291 24.4388 7.26338 24.4323 7.47713C24.429 7.57578 24.4191 7.67444 24.4125 7.77309C24.3895 8.19731 24.5112 7.30942 24.4191 7.72706C24.3731 7.93094 24.3336 8.13154 24.2744 8.33214C24.2382 8.45381 24.1955 8.5722 24.156 8.69388C24.0409 9.03588 24.2909 8.42422 24.1823 8.64455C24.0738 8.86488 23.9686 9.07863 23.8436 9.28909C23.7877 9.38117 23.7285 9.46996 23.666 9.55875C23.495 9.80868 23.5707 9.62781 23.7088 9.516C23.5411 9.65083 23.4062 9.86458 23.2484 10.0158C23.1761 10.0849 23.0971 10.1507 23.0248 10.2197C22.7255 10.5058 23.3931 9.97968 23.0511 10.2033C22.89 10.3085 22.7321 10.417 22.5611 10.5091C22.4657 10.5617 22.3506 10.6012 22.2586 10.6571L22.5249 10.542C22.4559 10.5683 22.3868 10.5913 22.3178 10.6144C21.4726 10.9005 20.8906 11.6075 20.8708 12.5184C20.8643 12.8012 20.8511 13.0873 20.8281 13.3701C20.8149 13.5148 20.8018 13.6562 20.7853 13.8009C20.7787 13.8535 20.7491 14.1002 20.7853 13.8272C20.8215 13.5378 20.7755 13.87 20.7689 13.9259C20.6669 14.5605 20.519 15.1886 20.3315 15.8036C20.2427 16.0963 20.1441 16.3824 20.0388 16.6685C20.0125 16.7375 19.8349 17.1552 19.9402 16.9348C20.0454 16.7145 19.9336 16.948 19.9172 16.9842C19.8744 17.0795 19.8317 17.1749 19.7889 17.2703C19.5719 17.7372 19.3285 18.191 19.0654 18.6317C18.8024 19.0724 18.4998 19.5032 18.1907 19.9241C18.0624 20.0984 18.3288 19.7498 18.319 19.7597C18.2795 19.8024 18.2466 19.8517 18.2072 19.8978C18.1348 19.9899 18.0592 20.0786 17.9835 20.1674C17.8191 20.3582 17.6514 20.5456 17.4771 20.7265C17.1483 21.0685 16.8062 21.394 16.4445 21.7032C16.359 21.7755 16.2735 21.8478 16.1847 21.9169C16.142 21.9531 16.0959 21.986 16.0532 22.0221C16.0367 22.0353 16.4051 21.7591 16.2308 21.8807C16.0203 22.0287 15.8164 22.1833 15.5994 22.3247C15.2212 22.5713 14.8331 22.7982 14.432 23.0021C14.2445 23.0975 14.0373 23.1698 13.8565 23.2751C13.8334 23.2882 14.2807 23.104 14.0834 23.1797C14.034 23.1994 13.9847 23.2191 13.9387 23.2389C13.8236 23.2849 13.7118 23.3244 13.5967 23.3671C13.1922 23.5118 12.7778 23.6302 12.3569 23.7223C12.1399 23.7683 11.9228 23.8012 11.7058 23.8407C11.4888 23.8801 12.0149 23.8045 11.9787 23.8045C11.9294 23.8045 11.8768 23.8177 11.8275 23.8209C11.7091 23.8308 11.594 23.844 11.4756 23.8505C11.058 23.8801 10.6403 23.8768 10.2227 23.8505C10.124 23.844 10.0221 23.8341 9.92344 23.8242C9.8774 23.8209 9.8182 23.8209 9.77545 23.8078C9.7327 23.7946 10.2654 23.89 10.0517 23.844C9.83792 23.7979 9.62419 23.7683 9.41044 23.719C8.97964 23.6171 8.57845 23.4461 8.15752 23.3178C8.13121 23.3112 8.57844 23.5118 8.39428 23.4165C8.34824 23.3934 8.29892 23.3737 8.25288 23.354C8.15751 23.3079 8.05886 23.2619 7.96349 23.2126C7.7596 23.1073 7.559 22.9955 7.36498 22.8739C7.1874 22.762 7.0164 22.6437 6.8454 22.522C6.80265 22.4924 6.76318 22.4562 6.72043 22.4299C6.7007 22.4168 7.06573 22.716 6.91446 22.5779C6.82567 22.4957 6.72703 22.4233 6.63495 22.3411C6.29623 22.0419 5.98381 21.7163 5.69771 21.371C5.66483 21.3316 5.63195 21.2888 5.59906 21.2493C5.46424 21.0948 5.7602 21.4631 5.74705 21.4434C5.69443 21.3546 5.62209 21.2724 5.5629 21.1902C5.43136 21.0027 5.30968 20.812 5.19129 20.6179C4.9611 20.2332 4.79667 19.8254 4.5862 19.4341C4.57634 19.4144 4.75064 19.855 4.68158 19.6577C4.66514 19.6084 4.64212 19.5558 4.62239 19.5064C4.57635 19.3881 4.5336 19.2697 4.49414 19.148C4.4185 18.9244 4.34615 18.6975 4.28367 18.4673C4.16199 18.0168 4.07649 17.5629 3.99757 17.1058C3.9614 16.8888 4.03045 17.3755 4.03045 17.3492C4.02716 17.2933 4.01729 17.2374 4.01072 17.1815C3.99756 17.0697 3.98771 16.9546 3.97784 16.8395C3.95811 16.5895 3.94496 16.3429 3.93838 16.093C3.92523 15.5833 3.94166 15.0735 3.98769 14.5671C3.99756 14.4487 4.01073 14.3304 4.02388 14.212C4.06335 13.8437 3.95811 14.6263 4.0173 14.2613C4.06005 14.0015 4.10609 13.7417 4.1587 13.4852C4.26722 12.9788 4.39877 12.4789 4.55991 11.9857C4.63883 11.7456 4.72432 11.5055 4.8164 11.2688C4.86244 11.1504 4.91505 11.032 4.9578 10.9136C4.76707 11.4398 4.95781 10.9235 5.02029 10.7919C5.23733 10.325 5.48068 9.87115 5.74376 9.4305C6.00684 8.98984 6.28307 8.58864 6.58232 8.18415C6.79607 7.89806 6.33568 8.48341 6.56259 8.21047C6.63823 8.12168 6.71057 8.0296 6.78621 7.94081C6.9605 7.73363 7.14137 7.53304 7.32881 7.33573C7.65766 6.99372 7.99967 6.66816 8.36141 6.35904C8.44691 6.2867 8.5324 6.21435 8.62119 6.14529C8.66394 6.10912 8.70999 6.07623 8.75274 6.04006C8.76918 6.02691 8.40086 6.30314 8.57515 6.18146C8.76917 6.04335 8.95991 5.90194 9.16051 5.7704C9.5354 5.52048 9.92672 5.29357 10.3279 5.08968C10.5318 4.98445 10.7554 4.90553 10.9527 4.79372C10.9758 4.78056 10.5285 4.96472 10.7258 4.88909C10.7752 4.86936 10.8245 4.84963 10.8705 4.8299C10.9856 4.78386 11.0974 4.74439 11.2125 4.70164C11.617 4.55695 12.0314 4.43857 12.4523 4.34649C12.6529 4.30374 12.8535 4.27085 13.0541 4.23468C13.3928 4.17549 12.5871 4.28071 12.9324 4.25112C13.0508 4.24125 13.1659 4.2281 13.2843 4.21823C13.7184 4.18535 14.1524 4.18535 14.5865 4.21823C14.6852 4.22481 14.7871 4.23468 14.8858 4.24455C14.9318 4.24783 14.991 4.24783 15.0338 4.26098C15.0765 4.27414 14.5438 4.17878 14.7575 4.22482C14.9713 4.27085 15.185 4.30044 15.3988 4.34977C15.8131 4.44842 16.2045 4.59312 16.6057 4.73124C16.803 4.80029 16.3459 4.61614 16.3722 4.63259C16.4149 4.65889 16.4675 4.67534 16.5136 4.69507C16.6583 4.76413 16.7997 4.83318 16.9411 4.90553C17.2107 5.04693 17.4705 5.20479 17.7204 5.37579C17.7796 5.41525 18.1315 5.67833 17.9145 5.50733C17.6974 5.33632 18.0361 5.61255 18.092 5.65859C18.319 5.8559 18.5327 6.06308 18.7399 6.28012C19.4798 7.05621 20.7853 7.01675 21.5318 6.28012C21.6272 6.18476 21.8738 6.03677 21.9264 5.91839C21.8705 6.04664 21.614 6.1453 21.8902 5.95127C21.9593 5.90195 22.0317 5.8559 22.104 5.81315C22.2487 5.72436 22.4 5.6553 22.5447 5.57638C22.7617 5.458 22.1796 5.69805 22.4131 5.63557C22.5085 5.60926 22.6039 5.5698 22.6992 5.54349C22.7749 5.52047 22.8538 5.50733 22.9294 5.4876C23.1925 5.41854 22.834 5.50403 22.7518 5.50074C22.9064 5.50403 23.061 5.47443 23.2155 5.48101C23.2912 5.48101 23.3701 5.50075 23.4457 5.49417C22.9985 5.52048 23.1234 5.44485 23.3175 5.4876C23.4786 5.52377 23.9916 5.73752 23.4523 5.49746C23.9521 5.72108 24.4224 5.84933 24.9716 5.69477C25.4287 5.56981 25.9252 5.21465 26.1521 4.78714C26.606 3.92885 26.4514 2.53453 25.4451 2.08729V2.07085Z" fill="#FF4409"/>
<path d="M110.79 88.2391C85.719 98.5124 74.9064 109.322 64.6332 134.396C62.9396 138.527 57.0795 138.527 55.3859 134.396C45.1127 109.325 34.3034 98.5124 9.22862 88.2391C5.09827 86.5455 5.09827 80.6854 9.22862 78.9919C34.3001 68.7186 45.1127 57.9093 55.3859 32.8346C57.0795 28.7042 62.9396 28.7042 64.6332 32.8346C74.9064 57.906 85.7157 68.7186 110.79 78.9919C114.921 80.6854 114.921 86.5455 110.79 88.2391Z" fill="#FAF1E7"/>
<path d="M110.137 85.862C104.711 88.0883 99.3575 90.5152 94.2899 93.4814C89.9326 96.0333 85.7924 98.9962 82.083 102.426C78.4591 105.774 75.2857 109.598 72.5234 113.683C69.5308 118.109 67.048 122.861 64.8415 127.721C64.1509 129.244 63.4899 130.78 62.842 132.322C62.6941 132.677 62.5461 133.029 62.4014 133.384C62.1843 133.907 62.5757 133.039 62.4014 133.384C62.3192 133.548 62.2403 133.71 62.1449 133.867C62.0758 133.982 61.9739 134.091 61.918 134.213C61.9246 134.2 62.3356 133.716 62.0923 133.989C62.0429 134.045 61.9936 134.104 61.941 134.16C61.8522 134.255 61.7601 134.351 61.6648 134.44C61.6253 134.479 61.5793 134.512 61.5398 134.551C61.2405 134.844 61.9443 134.275 61.7371 134.407C61.5069 134.555 61.2866 134.709 61.04 134.834C61.0136 134.847 60.8492 134.933 60.8459 134.926C60.8295 134.907 61.3918 134.719 61.1847 134.782C61.0301 134.828 60.8821 134.89 60.7243 134.933C60.6026 134.966 60.4809 134.995 60.3592 135.018C59.7903 135.13 60.4908 134.939 60.5401 135.002C60.5072 134.956 59.7838 135.025 59.6851 135.018C59.1096 134.982 60.1323 135.11 59.81 135.045C59.6884 135.018 59.5634 134.999 59.4417 134.969C59.3201 134.939 59.1984 134.907 59.08 134.867C59.0109 134.844 58.9452 134.818 58.8761 134.798C58.5111 134.676 59.3661 135.041 59.1162 134.903C58.8958 134.778 58.6657 134.676 58.4519 134.532C58.3927 134.492 58.3335 134.446 58.271 134.407C58.0343 134.249 58.7084 134.795 58.5111 134.588C58.4092 134.479 58.2875 134.39 58.1823 134.282C58.0902 134.186 58.0047 134.084 57.9159 133.986C57.6725 133.713 58.0836 134.196 58.0902 134.209C58.0606 134.147 57.9948 134.071 57.9586 134.015C57.883 133.897 57.8106 133.779 57.7449 133.654C57.6561 133.486 57.4292 132.884 57.6955 133.594C57.37 132.73 56.982 131.881 56.6202 131.029C56.0349 129.655 55.4331 128.287 54.8083 126.929C53.6474 124.413 52.4076 121.93 51.0594 119.51C48.57 115.041 45.6761 110.789 42.312 106.931C39.0925 103.242 35.4029 100.006 31.4205 97.158C27.1455 94.0997 22.5218 91.5576 17.7765 89.3116C16.4447 88.6835 15.103 88.0751 13.7514 87.4898C12.8865 87.1149 12.0217 86.7466 11.1535 86.3849C10.8214 86.2467 10.4925 86.1086 10.1604 85.9738C9.7559 85.8094 10.6734 86.2237 10.1209 85.9508C9.97623 85.8784 9.83483 85.8028 9.69671 85.7173C9.4994 85.5956 9.16069 85.2503 9.71644 85.7666C9.61779 85.6745 9.51254 85.5956 9.41389 85.5068C9.31523 85.418 9.22646 85.3227 9.13767 85.2273C8.74634 84.7932 9.39746 85.6449 9.14425 85.2503C9.00613 85.0333 8.88116 84.8195 8.75948 84.5959C8.51284 84.1487 8.95021 85.1747 8.79894 84.688C8.75619 84.5499 8.70688 84.4183 8.67071 84.2769C8.63782 84.1552 8.61151 84.0336 8.58849 83.9119C8.58849 83.9119 8.56875 83.7146 8.5523 83.7014C8.56546 83.7146 8.6148 84.392 8.60493 84.0369C8.59507 83.7508 8.59507 83.4713 8.60493 83.1819C8.61809 82.8037 8.46681 83.8692 8.57862 83.3594C8.60493 83.2378 8.62794 83.1128 8.65754 82.9944C8.69371 82.8563 8.73318 82.7182 8.7825 82.5834C8.79895 82.534 8.82196 82.4814 8.8384 82.4321C8.92061 82.1591 8.56217 83.0141 8.73646 82.6754C8.86471 82.4321 8.99296 82.1986 9.14752 81.9717C9.41389 81.5705 8.79565 82.363 9.06531 82.0802C9.16725 81.9717 9.26591 81.8599 9.37443 81.7547C9.48295 81.6494 9.61122 81.5606 9.71974 81.4554C9.70658 81.4686 9.18699 81.8204 9.50268 81.633C9.55201 81.6034 9.60134 81.5672 9.65067 81.5376C9.76906 81.462 9.89073 81.3929 10.0157 81.3272C10.088 81.2877 10.1637 81.2548 10.236 81.2186C10.6438 81.0082 9.79206 81.3995 10.0913 81.2778C11.6665 80.653 13.222 79.9723 14.7676 79.285C17.3589 78.1373 19.9206 76.914 22.4265 75.5822C27.0139 73.1454 31.381 70.3206 35.3897 67.0156C39.1813 63.8916 42.506 60.2972 45.4624 56.3773C48.5568 52.2733 51.1449 47.8108 53.4172 43.2069C54.7951 40.415 56.0513 37.5672 57.2516 34.693C57.3996 34.3412 57.564 33.9893 57.6923 33.6276C57.6824 33.6506 57.4325 34.1734 57.6035 33.8446C57.6331 33.7887 57.6561 33.7328 57.6857 33.6802C57.7679 33.519 57.8567 33.3612 57.9553 33.2099C57.9882 33.1606 58.0277 33.1146 58.054 33.0652C58.1888 32.812 57.6791 33.496 57.8764 33.2856C57.9685 33.1902 58.0474 33.0817 58.1395 32.9863C58.2447 32.8778 58.3565 32.7824 58.4651 32.6772C58.5275 32.6147 58.715 32.4799 58.3861 32.7298C58.031 32.9995 58.3138 32.7857 58.4026 32.7265C58.6295 32.572 58.8728 32.4601 59.1096 32.3253C59.2938 32.2201 58.7709 32.493 58.7676 32.4667C58.7676 32.4601 58.9419 32.401 58.9682 32.3911C59.103 32.3451 59.2411 32.3023 59.3793 32.2661C59.5174 32.23 59.6588 32.2069 59.7969 32.1773C60.1882 32.0984 59.1293 32.2299 59.6193 32.2102C59.9087 32.1971 60.1849 32.2102 60.4743 32.2201C60.7637 32.2299 59.8495 32.1083 60.1356 32.1708C60.1882 32.1806 60.2408 32.1872 60.2935 32.1971C60.4349 32.2234 60.573 32.2563 60.7111 32.2957C60.8328 32.3286 60.9512 32.3714 61.0695 32.4108C61.5266 32.5588 60.4941 32.128 61.0268 32.3944C61.257 32.5095 61.4675 32.6476 61.6779 32.789C61.9936 32.9995 61.1781 32.3615 61.6089 32.7495C61.7207 32.8515 61.8259 32.9567 61.9278 33.0685C62.0035 33.154 62.3093 33.5223 62.0265 33.1737C61.7273 32.8021 62.0791 33.2757 62.1317 33.3612C62.2041 33.4829 62.2731 33.6078 62.3356 33.7328C62.3718 33.8018 62.3981 33.8939 62.4408 33.9564C62.3849 33.8709 62.2271 33.4434 62.3586 33.769C62.7171 34.6503 63.0887 35.525 63.4636 36.3998C64.6047 39.0733 65.8148 41.714 67.1302 44.3053C69.521 49.0177 72.2833 53.5032 75.5291 57.6697C78.4196 61.3824 81.741 64.7433 85.4241 67.6733C89.5314 70.9421 93.9709 73.7274 98.6373 76.1346C101.196 77.4566 103.807 78.67 106.447 79.8144C107.289 80.1795 108.134 80.5346 108.983 80.8898C109.17 80.9687 109.361 81.0476 109.548 81.1266C109.657 81.1726 110.2 81.3962 109.812 81.2318C109.424 81.0673 109.894 81.2745 109.979 81.3206C110.14 81.4028 110.288 81.5014 110.443 81.5935C110.897 81.8698 110.081 81.2679 110.364 81.5212C110.476 81.6231 110.591 81.7185 110.699 81.827C110.792 81.9191 110.874 82.021 110.963 82.1164C111.163 82.3236 110.63 81.6363 110.782 81.8763C110.831 81.952 110.887 82.0243 110.936 82.0999C110.976 82.1591 111.341 82.7313 111.298 82.7675C111.282 82.784 111.058 82.1295 111.173 82.4781C111.196 82.5472 111.222 82.613 111.242 82.682C111.285 82.8168 111.324 82.955 111.357 83.0964C111.387 83.218 111.4 83.343 111.43 83.4647C111.492 83.7508 111.38 82.8333 111.38 83.1259C111.38 83.1786 111.39 83.2345 111.393 83.2871C111.41 83.5567 111.383 83.8198 111.38 84.0895C111.38 84.3822 111.492 83.4647 111.43 83.7508C111.42 83.8034 111.413 83.856 111.403 83.9086C111.377 84.05 111.344 84.1881 111.305 84.3263C111.272 84.4479 111.229 84.563 111.189 84.6847C111.038 85.1747 111.426 84.2144 111.252 84.5433C111.124 84.7866 110.989 85.0168 110.841 85.247C110.565 85.6778 111.18 84.8689 110.923 85.1385C110.818 85.247 110.723 85.3589 110.614 85.4641C110.519 85.5562 110.41 85.6351 110.315 85.7272C110.108 85.9245 110.792 85.4147 110.535 85.5496C110.486 85.5759 110.436 85.6186 110.39 85.6482C110.117 85.8258 109.825 85.9705 109.525 86.0988C108.999 86.3224 108.536 87.0491 108.391 87.572C108.23 88.1639 108.302 88.9499 108.641 89.4727C108.98 89.9956 109.486 90.4626 110.114 90.6073C110.805 90.7651 111.367 90.6336 112.015 90.3573C114.784 89.1866 116.602 86.0593 116.306 83.07C116.139 81.3699 115.534 79.8802 114.412 78.5845C113.291 77.2889 111.699 76.7233 110.147 76.0721C110.055 76.0327 109.96 75.9899 109.867 75.9537C110.469 76.1872 110.17 76.082 110.038 76.0261C109.854 75.9472 109.67 75.8682 109.483 75.7893C109.118 75.6315 108.753 75.4736 108.388 75.3158C107.717 75.0231 107.053 74.7271 106.385 74.4213C105.043 73.8097 103.711 73.1783 102.389 72.5173C99.9724 71.3104 97.5981 70.0147 95.2929 68.6007C94.2077 67.9364 93.1389 67.2425 92.0932 66.5224C91.5802 66.1705 91.0738 65.812 90.5706 65.447C90.3306 65.2727 90.0905 65.0951 89.8537 64.9176C89.7419 64.8354 89.6334 64.7499 89.5216 64.6676C89.4591 64.6183 89.3966 64.5723 89.3341 64.523C89.0152 64.2829 89.7386 64.8386 89.5051 64.6578C87.6143 63.1747 85.7957 61.6028 84.089 59.9125C82.3856 58.2255 80.7873 56.4333 79.3009 54.5522C79.2023 54.4306 79.1069 54.3056 79.0116 54.1806C78.7024 53.786 79.3174 54.5818 79.074 54.2596C78.8833 54.0064 78.6926 53.7564 78.5018 53.5032C78.1335 53.0066 77.7718 52.5035 77.4166 51.9971C76.6899 50.9612 75.9927 49.9023 75.3219 48.8303C72.3195 44.0258 69.8432 38.9056 67.6268 33.6966C67.5972 33.6276 67.5676 33.5585 67.538 33.4894C67.413 33.1935 67.7353 33.9597 67.6104 33.6604C67.5413 33.496 67.4722 33.3316 67.4032 33.1672C67.1763 32.618 66.9592 32.0655 66.7192 31.5229C66.3969 30.806 65.9431 30.1582 65.4136 29.5761C64.4435 28.5139 63.0196 27.705 61.6056 27.4386C58.4355 26.8401 55.1075 28.1259 53.506 31.0231C53.0719 31.8123 52.7792 32.6903 52.4307 33.519C52.1939 34.0814 52.5852 33.1573 52.4142 33.5585C52.3353 33.7427 52.2564 33.9268 52.1775 34.1143C52.0196 34.4793 51.8618 34.8443 51.7039 35.2093C51.1087 36.574 50.4905 37.9289 49.8492 39.2739C48.6588 41.7699 47.3861 44.2264 45.9951 46.6171C44.7159 48.8204 43.3347 50.9645 41.8351 53.0231C41.6609 53.2632 41.4833 53.5032 41.3057 53.74C41.2103 53.8649 41.115 53.9932 41.0196 54.1182C40.9834 54.1642 40.9473 54.2135 40.9111 54.2596C40.6381 54.618 41.2136 53.8748 41.0459 54.0886C40.671 54.5654 40.2961 55.0422 39.9114 55.5092C39.1485 56.4333 38.3592 57.3376 37.5404 58.2156C35.9126 59.9651 34.1763 61.6126 32.3446 63.1484C31.8677 63.5496 31.3843 63.9442 30.8943 64.3322C30.7858 64.4177 30.6773 64.5032 30.5688 64.5854C30.138 64.9209 30.9634 64.2829 30.6477 64.523C30.3813 64.7268 30.1117 64.9307 29.842 65.128C28.839 65.8712 27.8163 66.5848 26.7771 67.2688C22.1733 70.3074 17.2405 72.8165 12.2025 75.0461C11.4988 75.3585 10.7918 75.6644 10.0848 75.9636C9.99268 76.0031 9.8973 76.0425 9.80522 76.082C9.84797 76.0656 10.361 75.8485 9.97294 76.0097C9.80851 76.0787 9.64409 76.1478 9.47966 76.2168C8.95679 76.4339 8.42736 76.6443 7.90777 76.8712C6.52989 77.4763 5.31315 78.6109 4.59297 79.9328C3.05395 82.7675 3.4716 86.2566 5.60583 88.6605C6.77982 89.9825 8.39446 90.5284 9.97294 91.1893C10.3774 91.3571 9.45335 90.969 10.0124 91.2058C10.1735 91.2748 10.3347 91.3439 10.4958 91.413C10.8608 91.5708 11.2259 91.7287 11.5909 91.8865C12.3045 92.1989 13.0148 92.5146 13.7251 92.8402C16.3 94.0142 18.8387 95.2704 21.3149 96.6417C23.584 97.8946 25.8005 99.2461 27.9347 100.716C28.4477 101.068 28.9541 101.426 29.454 101.795C29.694 101.969 29.9341 102.147 30.1709 102.324C30.2827 102.406 30.3912 102.492 30.503 102.574C30.5655 102.623 30.628 102.669 30.6904 102.719C30.9075 102.883 30.1643 102.308 30.5195 102.587C31.4698 103.33 32.4038 104.097 33.3114 104.892C35.1069 106.468 36.8038 108.151 38.3921 109.934C39.1945 110.832 39.9673 111.756 40.7138 112.703C40.8124 112.824 40.9078 112.949 41.0032 113.074C41.2465 113.387 40.6118 112.561 40.9407 112.995C41.1314 113.249 41.3221 113.498 41.5096 113.755C41.8779 114.252 42.2396 114.755 42.5948 115.261C45.686 119.684 48.2444 124.456 50.5036 129.346C51.1416 130.724 51.7532 132.111 52.3485 133.509C52.3879 133.601 52.4241 133.696 52.4669 133.788C52.2005 133.197 52.3386 133.486 52.3945 133.621C52.4734 133.808 52.5524 133.996 52.6313 134.186C52.8483 134.706 53.0522 135.232 53.2824 135.748C53.5948 136.442 54.0519 137.077 54.5649 137.636C56.7682 140.046 60.3724 140.51 63.263 139.195C64.6178 138.58 65.7951 137.445 66.5021 136.136C66.9296 135.341 67.2289 134.459 67.5775 133.624C67.7452 133.22 67.3769 134.094 67.5939 133.585C67.6728 133.4 67.7518 133.216 67.8307 133.032C67.9885 132.667 68.1464 132.302 68.3042 131.937C69.4684 129.28 70.7081 126.652 72.0564 124.084C73.2863 121.743 74.6083 119.451 76.0486 117.234C76.7293 116.185 77.4397 115.153 78.1763 114.143C78.3506 113.903 78.5282 113.663 78.7057 113.426C78.8011 113.301 78.8965 113.173 78.9918 113.048C79.028 113.002 79.0642 112.956 79.1004 112.907C79.2779 112.673 78.7222 113.393 78.9688 113.078C79.3437 112.601 79.7186 112.127 80.1066 111.66C81.6424 109.802 83.2866 108.036 85.0394 106.379C85.9108 105.557 86.8053 104.761 87.7228 103.991C88.17 103.617 88.6271 103.245 89.0842 102.883C89.2059 102.785 89.3308 102.689 89.4558 102.594C89.7682 102.35 88.9461 102.985 89.4229 102.62C89.6729 102.429 89.9261 102.239 90.1826 102.051C94.4346 98.9074 99.0549 96.2931 103.81 93.9977C105.099 93.3762 106.398 92.7777 107.704 92.1989C108.361 91.9062 109.019 91.6201 109.68 91.3406C109.756 91.3077 110.407 91.0315 110.012 91.1992C109.647 91.3538 110.173 91.1301 110.279 91.0874C110.657 90.9296 111.038 90.7717 111.416 90.6171C112.038 90.3639 112.538 90.0844 112.89 89.4826C113.199 88.9532 113.33 88.1738 113.14 87.5819C112.768 86.4342 111.383 85.3358 110.104 85.8587L110.137 85.862Z" fill="#FF4409"/>
<path d="M38.6141 61.4414C38.6141 61.4414 36.0721 74.5263 39.5546 75.4011C45.8948 76.9894 44.2374 74.3849 50.1797 63.9143" fill="#FAF1E7"/>
<path d="M36.7139 60.9154C36.4081 62.4972 36.1911 64.102 36.0135 65.7035C35.7307 68.2587 35.5564 70.8993 36.0497 73.4413C36.2634 74.5397 36.7074 75.717 37.5591 76.4832C38.6278 77.4434 40.2129 77.6243 41.5875 77.769C42.6661 77.8808 43.7809 77.7262 44.7412 77.1968C45.7014 76.6673 46.3689 75.7893 46.9017 74.8817C47.612 73.6649 48.1447 72.3463 48.7367 71.0736C49.7068 68.9788 50.7492 66.9235 51.887 64.9143C52.3968 64.0165 52.1304 62.7175 51.18 62.2144C50.2296 61.7113 49.0228 61.9645 48.4802 62.9214C47.4838 64.6808 46.5564 66.4796 45.6915 68.308C45.116 69.5247 44.5833 70.7645 43.9848 71.9681C43.771 72.3989 43.5474 72.8264 43.2843 73.2309C43.235 73.3065 43.1857 73.3788 43.1331 73.4545C42.8766 73.8294 43.4455 73.0829 43.2416 73.3196C43.1232 73.4578 43.0081 73.5926 42.8733 73.7143C42.7089 73.8655 42.4228 73.9773 43.0344 73.6025C42.9752 73.6386 42.9193 73.6847 42.8568 73.7241C42.7944 73.7636 42.7319 73.7932 42.6727 73.8294C42.3044 74.0333 43.235 73.6419 42.8273 73.7636C42.6826 73.8063 42.5412 73.8425 42.3932 73.8754C42.0347 73.9543 43.0377 73.8261 42.5839 73.8458C42.482 73.8491 42.3767 73.859 42.2748 73.859C42.0643 73.859 41.8571 73.8491 41.65 73.8294C41.4592 73.8096 41.0383 73.7208 41.798 73.8557C41.6401 73.8294 41.4823 73.8063 41.3244 73.7767C41.0745 73.7307 40.8245 73.6781 40.5746 73.6189C40.4102 73.5827 40.2458 73.5466 40.0814 73.5005C40.0485 73.4907 40.0123 73.4775 39.9794 73.4709C39.6933 73.4084 40.4891 73.734 40.2721 73.5992C40.2096 73.5597 40.1373 73.5137 40.0715 73.4808C40.2162 73.5531 40.5154 73.8655 40.2557 73.6057C40.203 73.5531 40.157 73.4874 40.1044 73.438C40.5911 73.9116 40.3379 73.757 40.2096 73.54C40.1603 73.4578 40.1208 73.3723 40.0781 73.29C39.8972 72.9513 40.2787 73.8228 40.1504 73.461C40.0715 73.2374 39.9991 73.0105 39.9432 72.777C39.8873 72.5436 39.8413 72.3068 39.8018 72.07C39.7196 71.5537 39.8413 72.4318 39.815 72.1785C39.7985 72.024 39.7788 71.8661 39.7657 71.7116C39.7163 71.1328 39.6966 70.554 39.6966 69.9753C39.6966 68.7585 39.7788 67.5418 39.8972 66.3316C39.9597 65.7134 40.032 65.0951 40.111 64.4769C40.1504 64.1579 40.032 65.0458 40.0781 64.7301C40.0879 64.6643 40.0978 64.5986 40.1044 64.5328C40.1241 64.3848 40.1471 64.2401 40.1669 64.0921C40.1997 63.8652 40.2359 63.6383 40.2721 63.4147C40.3477 62.9346 40.4266 62.4512 40.5187 61.9743C40.716 60.9648 40.2359 59.7974 39.1408 59.5474C38.1642 59.3238 36.9244 59.8434 36.7139 60.9253V60.9154Z" fill="#FF4409"/>
<path d="M57.0692 64.5757C57.0692 64.5757 54.5271 77.6606 58.0097 78.5353C64.3499 80.1237 62.6925 77.5192 68.6348 67.0486" fill="#FAF1E7"/>
<path d="M55.1651 64.0497C54.8593 65.6315 54.6422 67.2363 54.4646 68.8378C54.1818 71.3929 54.0076 74.0336 54.5008 76.5756C54.7146 77.674 55.1585 78.8512 56.0102 79.6175C57.079 80.5777 58.6641 80.7586 60.0386 80.9033C61.1173 81.0151 62.2321 80.8605 63.1923 80.331C64.1526 79.8016 64.8201 78.9236 65.3529 78.016C66.0632 76.7992 66.5959 75.4805 67.1878 74.2079C68.1579 72.1131 69.2004 70.0578 70.3382 68.0485C70.8479 67.1508 70.5816 65.8518 69.6312 65.3487C68.6808 64.8455 67.4739 65.0988 66.9313 66.0557C65.9349 67.8151 65.0076 69.6139 64.1427 71.4423C63.5672 72.659 63.0345 73.8988 62.436 75.1024C62.2222 75.5331 61.9986 75.9607 61.7355 76.3651C61.6862 76.4408 61.6369 76.5131 61.5842 76.5888C61.3277 76.9636 61.8967 76.2172 61.6928 76.4539C61.5744 76.592 61.4593 76.7269 61.3245 76.8485C61.16 76.9998 60.8739 77.1116 61.4856 76.7367C61.4264 76.7729 61.3705 76.8189 61.308 76.8584C61.2455 76.8979 61.183 76.9275 61.1238 76.9636C60.7555 77.1675 61.6862 76.7762 61.2784 76.8979C61.1337 76.9406 60.9923 76.9768 60.8443 77.0097C60.4859 77.0886 61.4889 76.9604 61.0351 76.9801C60.9331 76.9834 60.8279 76.9932 60.726 76.9932C60.5155 76.9932 60.3083 76.9834 60.1011 76.9636C59.9104 76.9439 59.4895 76.8551 60.2491 76.9899C60.0913 76.9636 59.9334 76.9406 59.7756 76.911C59.5256 76.865 59.2757 76.8124 59.0258 76.7532C58.8614 76.717 58.697 76.6808 58.5325 76.6348C58.4996 76.6249 58.4635 76.6118 58.4306 76.6052C58.1445 76.5427 58.9403 76.8683 58.7232 76.7334C58.6608 76.694 58.5884 76.6479 58.5227 76.6151C58.6673 76.6874 58.9666 76.9998 58.7068 76.74C58.6542 76.6874 58.6081 76.6216 58.5555 76.5723C59.0422 77.0459 58.789 76.8913 58.6608 76.6743C58.6114 76.592 58.572 76.5065 58.5292 76.4243C58.3484 76.0856 58.7298 76.9571 58.6016 76.5953C58.5227 76.3717 58.4503 76.1448 58.3944 75.9113C58.3385 75.6778 58.2925 75.4411 58.253 75.2043C58.1708 74.688 58.2925 75.566 58.2661 75.3128C58.2497 75.1583 58.23 75.0004 58.2168 74.8459C58.1675 74.2671 58.1478 73.6883 58.1478 73.1095C58.1478 71.8928 58.23 70.676 58.3484 69.4659C58.4108 68.8476 58.4832 68.2294 58.5621 67.6112C58.6016 67.2922 58.4832 68.1801 58.5292 67.8644C58.5391 67.7986 58.549 67.7328 58.5555 67.6671C58.5753 67.5191 58.5983 67.3744 58.618 67.2264C58.6509 66.9995 58.6871 66.7726 58.7232 66.549C58.7989 66.0689 58.8778 65.5855 58.9699 65.1086C59.1672 64.0991 58.6871 62.9316 57.592 62.6817C56.6153 62.4581 55.3756 62.9777 55.1651 64.0596V64.0497Z" fill="#FF4409"/>
<path d="M30.6582 87.5671C30.6582 87.5671 60.0869 105.598 74.8851 92.1151L30.6582 87.5671Z" fill="#FAF1E7"/>
<path d="M29.663 89.2707C30.666 89.8856 31.7052 90.4414 32.7476 90.9873C35.4442 92.4014 38.2229 93.6674 41.051 94.7987C44.5204 96.1864 48.095 97.344 51.7551 98.1102C55.6585 98.9257 59.7231 99.3697 63.7022 98.9126C67.6813 98.4555 71.7097 97.1203 75.0014 94.575C75.4421 94.2363 75.8696 93.8845 76.284 93.5096C77.0502 92.8157 77.0436 91.4148 76.284 90.7176C75.4651 89.9646 74.3109 89.9777 73.492 90.7176C73.3177 90.8755 73.1402 91.0333 72.956 91.1846C72.8705 91.2537 72.7883 91.326 72.7028 91.3951C72.6535 91.4345 72.6041 91.474 72.5581 91.5135C72.3115 91.7141 72.8869 91.2668 72.6995 91.4049C72.3279 91.6779 71.9563 91.9508 71.5683 92.2008C70.7955 92.7006 69.9799 93.1413 69.1414 93.5194C69.0394 93.5655 68.921 93.6378 68.8125 93.6641C68.7665 93.6773 69.2696 93.4767 69.0756 93.5523C69.0197 93.5753 68.9638 93.5984 68.9079 93.6214C68.6843 93.7102 68.4607 93.7957 68.237 93.8779C67.8128 94.0292 67.3853 94.1673 66.9545 94.2922C66.0699 94.5454 65.1722 94.7428 64.2645 94.8875C64.1461 94.9072 64.0245 94.9236 63.9061 94.9433C63.86 94.9499 63.8173 94.9565 63.7713 94.9631C63.5345 94.9993 64.2645 94.9006 64.0245 94.9302C63.7844 94.9598 63.5411 94.9894 63.2977 95.0124C62.8406 95.0585 62.3835 95.0913 61.9231 95.1144C60.9793 95.1604 60.0355 95.1604 59.095 95.1209C58.1545 95.0815 57.191 95.0026 56.2439 94.8907C56.1354 94.8776 56.0269 94.8644 55.915 94.8513C55.4316 94.7888 56.2505 94.9006 55.9709 94.8611C55.721 94.825 55.4711 94.7888 55.2245 94.7526C54.7575 94.6803 54.2938 94.6013 53.8269 94.5126C50.1733 93.8286 46.5987 92.7302 43.1294 91.4017C42.3401 91.0991 41.5575 90.7801 40.7748 90.4546C40.5841 90.3756 41.1168 90.5993 41.0609 90.5762C41.0116 90.5565 40.9623 90.5335 40.9129 90.5138C40.8143 90.471 40.7189 90.4315 40.6203 90.3888C40.4295 90.3066 40.2388 90.2244 40.0481 90.1389C39.7028 89.9876 39.3575 89.833 39.0122 89.6752C37.7889 89.1194 36.5787 88.5341 35.3817 87.9191C34.1354 87.2812 32.9285 86.5873 31.7084 85.9C31.692 85.8901 31.6756 85.8803 31.6591 85.8704C30.7778 85.3311 29.4493 85.6501 28.9593 86.5774C28.4496 87.541 28.7258 88.7018 29.6663 89.2773L29.663 89.2707Z" fill="#FF4409"/>
<path d="M74.05 85.9741C73.9086 87.9078 73.7968 89.9729 74.757 91.6599C75.6712 93.2614 77.4372 94.2381 79.2491 94.59C81.0611 94.9418 82.929 94.7478 84.7541 94.4913" fill="#FAF1E7"/>
<path d="M72.0767 85.9743C71.8992 88.4538 71.8827 91.1865 73.4612 93.2616C75.1449 95.478 77.6968 96.5073 80.4196 96.7178C82.0475 96.8427 83.672 96.6158 85.28 96.3922C85.7338 96.3297 86.2403 95.8595 86.4606 95.4846C86.7072 95.0604 86.8125 94.4389 86.6579 93.9653C86.5034 93.4918 86.2074 93.0281 85.7503 92.7847C85.2471 92.5184 84.7868 92.5085 84.231 92.5874C84.1258 92.6039 84.0205 92.617 83.9186 92.6302C84.1817 92.594 84.1981 92.5907 83.9712 92.6203C83.7871 92.64 83.6029 92.6664 83.4188 92.6861C83.0241 92.7288 82.6295 92.7617 82.2349 92.7847C81.8666 92.8045 81.4983 92.8143 81.13 92.8045C80.7912 92.7979 80.3539 92.8308 80.0316 92.7354C80.515 92.8801 79.9757 92.7223 79.854 92.7025C79.706 92.6762 79.5614 92.6433 79.4167 92.6105C79.1371 92.5414 78.8576 92.4592 78.5847 92.3605C78.5057 92.3309 78.4301 92.3046 78.3512 92.2717C78.6307 92.3934 78.6735 92.4099 78.4794 92.3244C78.3676 92.2717 78.2558 92.2191 78.144 92.1632C77.8711 92.0218 77.608 91.864 77.3548 91.6864C76.9536 91.4036 77.6014 91.9232 77.3186 91.6568C77.2002 91.545 77.0752 91.443 76.9601 91.3246C76.8746 91.2391 76.7957 91.1438 76.7135 91.0583C76.582 90.8971 76.6083 90.9366 76.7924 91.1734C76.7431 91.1076 76.6971 91.0418 76.651 90.9761C76.582 90.8741 76.5195 90.7689 76.457 90.6637C76.411 90.5848 76.3682 90.5025 76.3255 90.4203C76.2334 90.223 76.2432 90.2559 76.3551 90.519C76.1972 90.2855 76.1314 89.8777 76.069 89.6114C76.0328 89.4568 76.0098 89.299 75.9769 89.1411C75.9539 88.9898 75.9605 89.0523 75.9999 89.3253C75.99 89.2332 75.9802 89.1411 75.9703 89.049C75.9407 88.7235 75.9276 88.4012 75.9243 88.0756C75.9177 87.3752 75.967 86.6747 76.0164 85.9776C76.092 84.945 75.0561 83.9584 74.0433 84.0045C72.912 84.0538 72.1491 84.8726 72.0702 85.9776L72.0767 85.9743Z" fill="#FF4409"/>
<path d="M48.7312 78.8076C46.3997 77.3771 43.2855 75.9663 41.1381 77.6599C39.1847 79.1989 39.6056 82.5104 41.3946 84.2336C43.1835 85.9568 45.8143 86.4468 48.2938 86.621" fill="#FAF1E7"/>
<path d="M49.7278 77.1043C47.9915 76.0422 46.1137 75.1576 44.0683 74.9471C42.0228 74.7366 39.9149 75.6475 38.7475 77.4102C37.7478 78.9196 37.659 81.0111 38.2181 82.6981C38.8363 84.5593 40.1155 86.0359 41.8288 86.983C43.8085 88.078 46.0677 88.4332 48.294 88.5943C49.3266 88.67 50.3131 87.6341 50.2671 86.6212C50.2178 85.49 49.3989 84.7271 48.294 84.6481C47.929 84.6218 47.5607 84.5889 47.1989 84.5495C47.1134 84.5396 46.9556 84.487 46.8767 84.51C46.9128 84.5002 47.3666 84.5857 47.0148 84.5265C46.801 84.4903 46.5873 84.4574 46.3735 84.4147C46.1927 84.3785 44.259 83.8326 44.2689 83.8129C44.2886 83.7833 44.6635 83.9937 44.3906 83.8622C44.2952 83.8162 44.1998 83.7734 44.1045 83.7241C43.9532 83.6484 43.8052 83.5695 43.6605 83.484C43.4961 83.3886 43.3383 83.2867 43.1804 83.1782C43.1113 83.1321 43.0456 83.073 42.9765 83.0302L43.1771 83.1815C43.1113 83.1289 43.0456 83.073 42.9831 83.0171C42.868 82.9151 42.7529 82.8066 42.6476 82.6948C42.5983 82.6422 42.5556 82.5895 42.5062 82.5369C42.2958 82.3166 42.6016 82.6619 42.6148 82.6882C42.4635 82.4087 42.2563 82.162 42.1116 81.8726C42.082 81.8167 42.0557 81.7345 42.0196 81.6786C42.2761 82.07 42.1379 81.9845 42.0787 81.8036C42.0327 81.6688 41.9867 81.5339 41.9472 81.3958C41.9045 81.2413 41.8749 81.0867 41.8387 80.9288C41.8025 80.771 41.8486 80.6164 41.8617 81.1393C41.8617 81.0341 41.8387 80.9288 41.8321 80.8269C41.8157 80.5474 41.8486 80.2777 41.8551 80.0015C41.8354 80.623 41.8354 80.189 41.888 79.9785C41.9275 79.8338 41.9933 79.6957 42.0294 79.551C41.911 80.0311 41.8814 79.8667 41.9768 79.7055C42.0097 79.6496 42.0393 79.5871 42.0755 79.5312C42.1116 79.4753 42.1511 79.4194 42.184 79.3635C42.3024 79.1465 41.8387 79.7483 42.0886 79.4852C42.184 79.3866 42.2794 79.2912 42.3747 79.1925C42.48 79.084 42.6049 79.0939 42.2333 79.2912C42.3385 79.2353 42.4372 79.1498 42.5391 79.0906C42.6082 79.0511 42.6806 79.0149 42.7496 78.9755C42.9075 78.89 42.9699 78.9689 42.6049 79.0347C42.7529 79.0084 42.9042 78.9327 43.0521 78.8999C43.0916 78.89 43.2396 78.8801 43.2823 78.8538C43.0357 79.0051 42.8778 78.8966 43.1672 78.8768C43.3448 78.8637 43.5257 78.8637 43.7033 78.8703C43.8052 78.8735 43.9039 78.8867 44.0058 78.8933C44.2557 78.9097 43.552 78.8111 43.9104 78.8801C44.1176 78.9196 44.3248 78.9623 44.5287 79.0149C44.9496 79.1268 45.3475 79.3142 45.7619 79.4359C45.7158 79.4227 45.3442 79.2484 45.6566 79.3964C45.7783 79.4523 45.9 79.5082 46.0184 79.5641C46.219 79.6595 46.4163 79.7614 46.6103 79.8667C46.9918 80.0706 47.3666 80.2876 47.735 80.5145C48.6163 81.0538 49.9448 80.7348 50.4348 79.8075C50.9248 78.8801 50.6683 77.6831 49.7278 77.1076V77.1043Z" fill="#FF4409"/>
</svg>
