<svg width="122" height="149" viewBox="0 0 122 149" fill="none" xmlns="http://www.w3.org/2000/svg">
<path d="M23.6713 48.3179C19.0642 39.5968 17.3443 29.6195 16.874 19.7705C13.3783 19.7738 9.88269 19.7804 6.37387 19.7869C2.85847 20.2473 7.50839 40.6261 8.13649 43.0662C11.3296 55.4079 19.6495 67.2761 30.9816 73.4289C33.471 74.7804 54.205 81.6731 55.2935 77.4507C57.0265 70.7422 55.8262 70.1765 49.3413 67.9469C46.671 67.0294 43.8331 66.5658 41.2385 65.4378C33.6453 62.146 27.486 55.5493 23.6647 48.3212L23.6713 48.3179Z" fill="#FAF1E7"/>
<path d="M25.3742 47.3243C24.9171 46.4561 24.4863 45.5781 24.0818 44.6869C24.0029 44.5093 23.9207 44.3285 23.8418 44.1509C23.7924 44.0391 23.7431 43.9273 23.697 43.8154L23.6675 43.7497C23.582 43.5491 23.5918 43.5688 23.6938 43.8154C23.6313 43.8023 23.4636 43.2564 23.4438 43.2038C23.3452 42.9539 23.2465 42.7039 23.1479 42.454C22.4639 40.6749 21.8752 38.8564 21.3754 37.0181C20.8755 35.1799 20.4645 33.3515 20.1225 31.4935C19.9482 30.5497 19.7936 29.6026 19.6555 28.6522C19.6226 28.4319 19.593 28.2148 19.5634 27.9945C19.547 27.8728 19.4812 27.521 19.5634 28.0077C19.547 27.9123 19.5371 27.8104 19.524 27.715C19.4615 27.225 19.4023 26.7383 19.3497 26.2483C19.1096 24.0977 18.9485 21.9371 18.8432 19.7766C18.7906 18.7111 17.9816 17.8035 16.8701 17.8035C14.7392 17.8035 12.6083 17.81 10.4773 17.8133C9.41185 17.8133 8.34309 17.8133 7.27762 17.8166C6.49496 17.8166 5.76489 17.7903 5.07101 18.1882C3.52542 19.0728 3.23278 21.0624 3.13084 22.6672C3.01245 24.5482 3.1966 26.4522 3.41364 28.3168C3.68988 30.6812 4.06144 33.0358 4.49224 35.3805C5.09403 38.6558 5.72546 41.964 6.66926 45.1637C8.61605 51.7605 11.8683 57.9066 16.1269 63.2965C18.1921 65.9075 20.5171 68.3114 23.0887 70.4292C24.4435 71.544 25.8543 72.5963 27.3243 73.5533C28.2845 74.1781 29.2743 74.8161 30.3135 75.2995C31.6881 75.9374 33.1252 76.4406 34.5589 76.9273C36.5255 77.5981 38.515 78.2065 40.521 78.759C42.6552 79.3443 44.8092 79.8705 46.9895 80.2519C48.8803 80.5841 50.8699 80.9064 52.7969 80.7485C54.5957 80.6005 56.5392 80.0119 57.1608 78.1046C57.5751 76.8352 57.802 75.4442 57.9368 74.1222C58.0388 73.1422 58.0092 72.0702 57.6507 71.1428C57.2068 69.9853 56.4767 69.1401 55.4705 68.4265C54.553 67.7754 53.4612 67.3644 52.422 66.9632C50.9652 66.4041 49.4854 65.8944 47.9858 65.4702C46.0884 64.9374 44.1613 64.5001 42.3231 63.7733C42.231 63.7371 42.1323 63.7043 42.0436 63.6615C42.4776 63.872 42.083 63.6747 41.9975 63.6385C41.8397 63.5694 41.6818 63.4971 41.5273 63.4247C41.1162 63.234 40.7117 63.0334 40.3105 62.8229C39.564 62.4316 38.834 62.0107 38.1204 61.5602C37.4068 61.1096 36.7458 60.6525 36.0815 60.1625C35.9862 60.0935 35.4041 59.6265 35.8579 59.9981C35.7066 59.8732 35.5488 59.7581 35.3975 59.6331C35.0424 59.347 34.6905 59.0543 34.3452 58.7518C33.0758 57.6501 31.8821 56.4597 30.7706 55.2002C30.4944 54.8878 30.2247 54.5754 29.9583 54.2564C29.692 53.9374 29.3335 53.5987 29.1362 53.237C29.3302 53.5954 29.2875 53.4376 29.2053 53.3258C29.1395 53.2403 29.0737 53.1515 29.008 53.066C28.8896 52.9081 28.7745 52.7536 28.6561 52.5924C28.3996 52.2406 28.1497 51.8854 27.903 51.527C26.979 50.1787 26.1338 48.7745 25.3676 47.3309C24.8842 46.4166 23.5392 46.0615 22.6677 46.6238C21.7404 47.2223 21.4412 48.347 21.9607 49.3237C25.1539 55.3416 29.7413 60.7084 35.4172 64.5067C36.7622 65.4077 38.1763 66.2068 39.6495 66.8842C41.4812 67.7294 43.3787 68.3147 45.3222 68.8376C47.0059 69.2881 48.66 69.788 50.3043 70.3733C50.8732 70.5772 51.4388 70.7877 51.9978 71.0146C52.2675 71.1231 51.7578 70.9093 51.7611 70.9159C51.8005 70.9554 51.8992 70.9751 51.9485 70.9981C52.057 71.0475 52.1655 71.0968 52.2708 71.1461C52.4911 71.2514 52.7081 71.3599 52.9219 71.4815C53.0929 71.5802 53.2639 71.6821 53.4283 71.7972C53.4612 71.8203 53.4974 71.8466 53.5303 71.8696C53.7703 72.0274 53.1356 71.5473 53.3001 71.6887C53.3823 71.7578 53.4678 71.8268 53.5467 71.8992C53.6552 71.9978 53.767 72.1952 53.892 72.2675C53.7868 72.205 53.5566 71.7841 53.744 72.0866C53.7999 72.1787 53.8591 72.2675 53.9084 72.3661C53.9413 72.4286 53.9676 72.4977 54.0038 72.5635C53.6684 71.9485 53.8558 72.1984 53.9216 72.4023C53.9775 72.5799 54.0104 72.7608 54.0466 72.9416C54.0959 73.162 53.9841 72.3366 54.0038 72.6325C54.0038 72.6753 54.0137 72.718 54.017 72.7575C54.0268 72.866 54.0334 72.9778 54.0334 73.0863C54.04 73.3132 54.0334 73.5434 54.017 73.7703C54.0104 73.8887 53.9972 74.0038 53.9873 74.1222C53.9808 74.1748 53.9742 74.2307 53.9709 74.2833C53.9413 74.6221 54.0433 73.8032 54.0038 74.0531C53.9545 74.3557 53.9084 74.6582 53.8493 74.9608C53.721 75.625 53.5434 76.2762 53.3922 76.9339C53.3922 76.9437 53.3461 77.0884 53.3428 77.0884C53.333 77.0851 53.6223 76.4702 53.4645 76.7727C53.4415 76.8155 53.4053 76.8517 53.3856 76.8911C53.6355 76.3485 53.744 76.4801 53.5697 76.6379C53.5434 76.6609 53.4612 76.7168 53.4481 76.7497C53.4678 76.707 53.9742 76.3946 53.7078 76.5425C53.5993 76.6017 53.4908 76.6609 53.3823 76.7201C54.0498 76.3452 53.7177 76.5886 53.4678 76.6642C53.3231 76.707 53.1751 76.7431 53.0271 76.7727C52.9548 76.7859 52.8824 76.799 52.8101 76.8089C52.4845 76.8681 53.4283 76.7398 53.0567 76.776C52.8759 76.7925 52.695 76.8122 52.5141 76.8221C51.7019 76.8648 50.8863 76.8188 50.0774 76.7398C49.8603 76.7201 49.6432 76.6938 49.4262 76.6675C49.3243 76.6543 48.8935 76.5984 49.3177 76.6543C49.7419 76.7103 49.2224 76.6412 49.127 76.6248C48.6403 76.5524 48.1569 76.4735 47.6735 76.3847C46.6179 76.1907 45.5688 75.9638 44.5231 75.7171C40.7315 74.8161 36.9661 73.6947 33.3225 72.3102C33.0397 72.2017 32.7569 72.0899 32.4741 71.9748C32.017 71.7874 32.9969 72.2017 32.5793 72.0209C32.4806 71.9781 32.3852 71.9354 32.2866 71.8893C31.2704 71.4158 30.3036 70.791 29.3631 70.1826C28.689 69.7452 28.028 69.2914 27.3802 68.8146C27.2092 68.6896 27.0382 68.5646 26.8704 68.4364C26.8047 68.3871 26.7356 68.3312 26.6699 68.2818C27.0678 68.5646 26.854 68.4265 26.7685 68.3575C26.4364 68.0944 26.1042 67.8313 25.7754 67.5617C24.5291 66.5291 23.3419 65.4307 22.2139 64.2699C21.086 63.109 20.0074 61.8824 18.9945 60.6098C18.9419 60.544 18.8893 60.475 18.8367 60.4092C18.8104 60.3763 18.5374 60.054 18.7545 60.304C18.9715 60.5539 18.6986 60.2316 18.6723 60.1987C18.6196 60.1297 18.567 60.0606 18.5177 59.9948C18.2579 59.6528 18.0047 59.3075 17.758 58.959C17.2845 58.2947 16.8274 57.6205 16.3834 56.9365C15.512 55.5883 14.7063 54.1972 13.9631 52.77C13.5882 52.0498 13.2298 51.3231 12.8911 50.5865C12.7299 50.2379 12.5721 49.8893 12.4208 49.5374C12.3682 49.4125 12.1248 48.8172 12.3452 49.3631C12.2662 49.1658 12.1807 48.9718 12.1018 48.7745C10.6417 45.1736 9.72753 41.4543 8.94487 37.6594C8.52723 35.6271 8.1425 33.5882 7.81365 31.5395C7.72486 30.9969 7.64264 30.4543 7.56372 29.9084C7.52754 29.6519 7.49135 29.3954 7.45517 29.1422C7.5604 29.8985 7.48148 29.3231 7.45846 29.1586C7.44202 29.0172 7.42232 28.8791 7.40588 28.7377C7.28091 27.7249 7.17567 26.7087 7.1099 25.6926C7.054 24.8178 7.0211 23.9398 7.05399 23.0651C7.06714 22.7231 7.17237 22.3153 7.1362 21.9766C7.14606 22.0752 7.04084 22.6014 7.10332 22.2462C7.11648 22.164 7.12963 22.0851 7.14607 22.0029C7.17238 21.8615 7.20528 21.7201 7.24474 21.582C7.27763 21.4636 7.32037 21.3485 7.35983 21.2334C7.45191 20.9604 7.09018 21.7858 7.24145 21.5162C7.27105 21.4603 7.29732 21.4011 7.33021 21.3485C7.35323 21.309 7.39273 21.2663 7.40917 21.2268C7.46836 21.0887 7.01122 21.7168 7.20524 21.4964C7.23155 21.4669 7.2776 21.4405 7.29733 21.4044C7.35652 21.3189 6.78435 21.7595 7.03098 21.6148C7.30393 21.457 6.57718 21.7957 6.70543 21.7431C6.74489 21.7266 6.78435 21.7201 6.82381 21.7102C7.00796 21.6576 6.56401 21.9174 6.53113 21.7694C6.53113 21.776 6.88628 21.7694 6.85998 21.7694C7.13292 21.7694 7.40915 21.7694 7.6821 21.7694C8.72126 21.7694 9.76042 21.7694 10.7996 21.7661C12.822 21.7661 14.8444 21.7595 16.8668 21.7562L14.8937 19.7831C15.2719 27.6328 16.3834 35.5679 19.1326 42.9637C19.9416 45.1407 20.8788 47.2717 21.9607 49.327C22.4409 50.2412 23.7924 50.593 24.6606 50.034C25.5912 49.4355 25.8839 48.3141 25.3676 47.3341L25.3742 47.3243Z" fill="#FF4409"/>
<path d="M96.6684 111.412C101.187 119.966 102.223 128.963 103.538 138.388C103.61 138.917 103.722 139.509 104.163 139.812C104.488 140.035 104.916 140.039 105.311 140.032C108.237 139.986 111.164 139.94 114.091 139.894C114.857 119.131 109.096 97.0351 89.3515 86.3081C86.8654 84.9565 66.1282 78.0638 65.0364 82.2863C63.3033 88.9948 64.5036 89.5604 70.9885 91.79C73.6588 92.7075 76.4968 93.1712 79.0914 94.2991C86.6845 97.5909 92.8439 104.188 96.6651 111.416L96.6684 111.412Z" fill="#FAF1E7"/>
<path d="M94.9632 112.41C95.2789 113.008 95.5814 113.616 95.8708 114.231C95.9991 114.501 96.1208 114.771 96.2424 115.044C96.3115 115.201 96.3805 115.359 96.4496 115.52C96.4693 115.563 96.5647 115.797 96.4661 115.557C96.3674 115.317 96.4891 115.616 96.5088 115.662C97.0021 116.856 97.446 118.072 97.8439 119.299C98.6332 121.732 99.2382 124.222 99.7381 126.728C100.238 129.233 100.633 131.805 100.998 134.357C101.182 135.653 101.359 136.952 101.54 138.247C101.642 138.971 101.731 139.619 102.05 140.286C102.435 141.095 103.247 141.72 104.118 141.897C104.983 142.075 105.894 141.993 106.772 141.98C107.584 141.967 108.4 141.953 109.212 141.94C110.84 141.914 112.465 141.888 114.092 141.865C115.187 141.848 116.026 140.973 116.065 139.891C116.259 134.577 116.003 129.266 115.266 124.001C114.556 118.94 113.343 113.935 111.465 109.18C109.508 104.228 106.914 99.6075 103.543 95.4804C100.152 91.3303 95.9662 87.8215 91.3261 85.148C88.8696 83.7339 86.104 82.8822 83.414 82.0403C79.8164 80.9124 76.1432 79.9028 72.414 79.3372C70.7994 79.0938 69.1255 78.8538 67.4912 79.0018C65.9784 79.1366 64.3342 79.5411 63.4923 80.942C63.2523 81.3432 63.1372 81.7805 63.0254 82.2245C62.8807 82.8033 62.7491 83.3853 62.6406 83.9707C62.4598 84.9539 62.2887 85.9832 62.3742 86.9862C62.4565 87.9399 62.6702 88.887 63.2194 89.6927C63.7686 90.4983 64.4756 91.11 65.3043 91.6C66.2185 92.1426 67.2314 92.5273 68.2245 92.8989C69.4873 93.3725 70.7632 93.8164 72.0589 94.1913C73.7097 94.6681 75.3901 95.0529 77.0179 95.6054C77.3994 95.7336 77.7775 95.8783 78.1524 96.0263C78.2478 96.0658 78.4977 96.1217 78.0998 96.0033C78.1788 96.0263 78.2643 96.0756 78.3366 96.1085C78.5142 96.1874 78.6918 96.2664 78.866 96.3519C79.5106 96.6544 80.1453 96.9799 80.7668 97.3285C82.0526 98.0487 83.2858 98.8577 84.4598 99.7423C84.5288 99.7949 84.5979 99.8508 84.6669 99.9001C84.6275 99.8738 84.3085 99.6206 84.5782 99.8311C84.713 99.9396 84.8511 100.048 84.9859 100.157C85.2753 100.39 85.5581 100.627 85.8377 100.867C86.3836 101.337 86.9163 101.821 87.4326 102.32C88.5013 103.353 89.5109 104.448 90.4547 105.593C90.6783 105.862 90.8953 106.135 91.1124 106.408C91.1814 106.494 91.3557 106.674 91.0433 106.319C91.0992 106.385 91.1519 106.461 91.2012 106.526C91.3196 106.681 91.4379 106.839 91.553 106.997C91.9904 107.592 92.4147 108.197 92.8224 108.812C93.5919 109.976 94.3055 111.18 94.9599 112.416C95.4434 113.33 96.7883 113.686 97.6598 113.123C98.5871 112.525 98.8864 111.4 98.3668 110.423C95.6472 105.293 91.9016 100.581 87.3109 96.9997C84.8511 95.0792 82.2269 93.4678 79.3363 92.2807C77.7907 91.646 76.1761 91.2251 74.5647 90.791C73.098 90.3964 71.6544 89.9492 70.2239 89.4427C69.7273 89.2684 69.2307 89.0876 68.7408 88.8936C68.629 88.8508 68.5204 88.8048 68.4119 88.762C67.9811 88.5844 68.7704 88.9231 68.4941 88.7949C68.2902 88.7028 68.0864 88.614 67.8858 88.5154C67.547 88.3477 67.2149 88.1635 66.9025 87.9465C66.7512 87.8412 66.5342 87.6176 67.0538 88.0714C66.9946 88.0188 66.9321 87.9728 66.8696 87.9202C66.748 87.8149 66.6394 87.6965 66.5276 87.5814C66.2777 87.3183 66.7019 87.7426 66.6789 87.7886C66.6855 87.7722 66.5671 87.6308 66.5539 87.611C66.5178 87.5518 66.3698 87.1934 66.3237 87.1835C66.3928 87.2 66.5474 87.7623 66.4224 87.3973C66.4027 87.3348 66.3829 87.2723 66.3665 87.2066C66.3467 87.1309 66.327 87.0553 66.3139 86.9796C66.3073 86.9402 66.3007 86.9007 66.2908 86.8613C66.2251 86.5785 66.3369 87.1572 66.3303 87.1737C66.3763 87.0783 66.2941 86.7659 66.2941 86.6541C66.2876 86.4502 66.2942 86.2496 66.3073 86.0457C66.3205 85.8418 66.3435 85.6248 66.3665 85.4143C66.3895 85.1808 66.2941 85.9208 66.3303 85.6873C66.3402 85.6281 66.3467 85.5722 66.3566 85.513C66.3763 85.3781 66.3994 85.2433 66.4224 85.1085C66.5211 84.5462 66.646 83.9904 66.7841 83.4346C66.84 83.2044 66.9091 82.9743 66.9617 82.7441C67.0242 82.4613 66.8598 83.0433 66.8203 83.0663C66.8466 83.0499 66.8795 82.9545 66.8959 82.9282C67.0735 82.6224 66.4618 83.3754 66.7677 83.1025C66.794 83.0762 66.8269 83.0499 66.8532 83.0236C66.9979 82.8592 66.3599 83.3524 66.6032 83.2176C66.6887 83.1716 66.771 83.119 66.8532 83.0696C67.1228 82.9151 66.6197 83.1847 66.5572 83.188C66.6099 83.188 66.6789 83.142 66.7282 83.1222C66.965 83.04 67.2083 82.9907 67.4517 82.9447C67.8134 82.8756 67.2248 83.0203 67.1755 82.9775C67.1952 82.994 67.3497 82.9578 67.3826 82.9545C67.5372 82.9381 67.6917 82.9282 67.8463 82.9183C68.5336 82.8855 69.2209 82.9151 69.9049 82.971C70.3127 83.0039 70.7204 83.0532 71.1282 83.1025C71.4209 83.1387 70.5429 83.0203 70.9408 83.0762C71.0427 83.0894 71.1446 83.1058 71.2466 83.119C71.4669 83.1518 71.6873 83.1847 71.9076 83.2242C72.8086 83.3722 73.7031 83.5497 74.5943 83.7471C76.4457 84.1515 78.2807 84.6349 80.0992 85.1611C81.7435 85.6379 83.3779 86.1509 84.9958 86.7067C85.6371 86.927 86.2783 87.1572 86.913 87.3973C87.1695 87.4926 87.4227 87.5913 87.6792 87.6965C87.7779 87.736 87.8798 87.7787 87.9784 87.8182C88.1692 87.8971 87.3964 87.5683 87.6891 87.6965C87.745 87.7196 87.8009 87.7459 87.8568 87.7689C88.5178 88.0616 89.1393 88.4364 89.7608 88.8048C90.8888 89.4723 91.9871 90.1859 93.0493 90.9521C93.3058 91.1363 93.5623 91.3237 93.8155 91.5145C93.924 91.5967 94.0358 91.6822 94.1444 91.7644C93.6544 91.3994 94.1839 91.7973 94.3022 91.8927C94.7889 92.2807 95.2691 92.6786 95.7393 93.0897C96.6963 93.9216 97.6138 94.7997 98.4918 95.7139C99.3567 96.6182 100.182 97.5587 100.968 98.5321C101.063 98.6505 101.155 98.7689 101.251 98.8873C101.297 98.9465 101.343 99.0057 101.389 99.0649C101.372 99.0418 101.093 98.6768 101.287 98.9333C101.481 99.1898 101.672 99.443 101.862 99.7028C102.228 100.203 102.583 100.709 102.928 101.225C104.296 103.268 105.5 105.418 106.542 107.641C106.805 108.204 107.058 108.769 107.302 109.341C107.351 109.453 107.427 109.687 107.236 109.184C107.262 109.253 107.295 109.322 107.321 109.391C107.381 109.529 107.436 109.67 107.492 109.808C107.604 110.088 107.716 110.367 107.825 110.65C108.275 111.814 108.683 112.995 109.058 114.189C109.811 116.593 110.413 119.046 110.883 121.522C111.116 122.752 111.317 123.985 111.488 125.225C111.554 125.712 111.432 124.787 111.494 125.274C111.514 125.429 111.534 125.58 111.554 125.735C111.593 126.06 111.633 126.386 111.669 126.711C111.741 127.346 111.804 127.981 111.859 128.615C112.08 131.138 112.188 133.67 112.192 136.202C112.192 137.435 112.172 138.665 112.126 139.898L114.099 137.925C111.307 137.968 108.515 138.014 105.723 138.057C105.565 138.057 105.407 138.063 105.25 138.063C105.161 138.063 104.743 138.02 105.046 138.08C105.348 138.139 105.092 138.093 105.046 138.073C105.042 138.073 105.414 138.251 105.22 138.149C105.006 138.037 105.437 138.343 105.48 138.389C105.703 138.619 105.45 138.237 105.565 138.537C105.68 138.836 105.555 138.468 105.536 138.389C105.509 138.274 105.486 138.158 105.47 138.043C105.421 137.741 105.384 137.435 105.342 137.132C105.164 135.86 104.99 134.587 104.809 133.318C104.105 128.382 103.29 123.439 101.79 118.674C100.896 115.836 99.7611 113.061 98.3767 110.427C97.8965 109.512 96.545 109.161 95.6768 109.72C94.7462 110.321 94.4535 111.439 94.9698 112.419L94.9632 112.41Z" fill="#FF4409"/>
<path d="M117.027 141.38C119.425 137.228 117.035 131.36 111.691 128.274C106.346 125.189 100.07 126.053 97.6728 130.206C95.2755 134.358 97.6647 140.226 103.009 143.311C108.354 146.397 114.63 145.532 117.027 141.38Z" fill="#FF4409"/>
<path d="M115.322 140.382C115.207 140.576 115.085 140.76 114.957 140.947C114.927 140.99 114.891 141.026 114.865 141.072C114.855 141.092 115.154 140.727 115.016 140.875C114.934 140.961 114.865 141.059 114.786 141.145C114.638 141.309 114.484 141.464 114.322 141.615C114.234 141.694 114.145 141.77 114.056 141.849C113.829 142.052 114.431 141.582 114.092 141.822C113.727 142.079 113.349 142.315 112.948 142.513C112.843 142.565 112.718 142.605 112.616 142.667C112.596 142.681 113.043 142.503 112.846 142.569C112.796 142.585 112.747 142.608 112.698 142.628C112.464 142.717 112.228 142.796 111.991 142.865C111.784 142.924 111.573 142.976 111.359 143.023C111.234 143.049 111.11 143.075 110.981 143.095C110.925 143.105 110.873 143.111 110.817 143.121C110.544 143.17 110.952 143.101 111.011 143.098C110.498 143.141 109.995 143.19 109.478 143.184C109.245 143.184 109.011 143.17 108.778 143.154C108.64 143.144 108.502 143.131 108.367 143.118C108.308 143.111 108.249 143.105 108.189 143.098C107.93 143.072 108.617 143.167 108.357 143.121C107.811 143.026 107.275 142.921 106.739 142.773C106.496 142.704 106.256 142.628 106.019 142.546C105.878 142.496 105.739 142.447 105.601 142.394C105.542 142.371 105.483 142.348 105.42 142.325C105.177 142.233 105.443 142.332 105.535 142.378C105.026 142.118 104.503 141.898 104.003 141.612C103.503 141.326 103.053 141.007 102.589 140.681C102.411 140.556 102.75 140.809 102.744 140.803C102.698 140.763 102.648 140.727 102.599 140.688C102.487 140.599 102.379 140.51 102.27 140.418C102.073 140.25 101.879 140.076 101.691 139.895C101.31 139.53 100.951 139.145 100.616 138.738C100.58 138.695 100.544 138.649 100.507 138.603C100.369 138.438 100.649 138.79 100.639 138.777C100.576 138.685 100.504 138.596 100.435 138.504C100.284 138.29 100.136 138.073 99.9977 137.853C99.7379 137.435 99.511 137.001 99.3005 136.557C99.2775 136.511 99.2611 136.455 99.2348 136.409C99.2216 136.386 99.4025 136.834 99.3301 136.636C99.2939 136.538 99.2512 136.439 99.215 136.34C99.1295 136.113 99.0539 135.88 98.9848 135.646C98.9224 135.433 98.8698 135.219 98.8237 135.002C98.804 134.903 98.7842 134.805 98.7645 134.703C98.7316 134.522 98.7316 134.084 98.7612 134.729C98.7415 134.298 98.6921 133.88 98.7086 133.446C98.7119 133.348 98.7185 133.252 98.725 133.154C98.7316 133.055 98.781 132.654 98.7316 133.029C98.6823 133.404 98.7316 133.042 98.748 132.956C98.7678 132.845 98.7908 132.736 98.8171 132.624C98.8632 132.42 98.9191 132.217 98.9848 132.019C99.0144 131.927 99.0506 131.835 99.0802 131.746C99.2216 131.342 98.8862 132.147 99.0671 131.769C99.2479 131.391 99.4748 131 99.7248 130.635C99.9582 130.293 99.4814 130.918 99.6951 130.668C99.7609 130.592 99.8267 130.513 99.8958 130.437C100.054 130.26 100.221 130.092 100.399 129.934C100.475 129.865 100.553 129.803 100.629 129.734C100.879 129.51 100.277 129.984 100.55 129.79C100.744 129.651 100.941 129.513 101.145 129.392C101.336 129.277 101.533 129.168 101.737 129.069C101.829 129.023 101.928 128.984 102.02 128.938C102.204 128.843 101.767 129.04 101.79 129.033C101.872 129.007 101.954 128.967 102.037 128.938C102.474 128.773 102.921 128.645 103.378 128.55C103.487 128.527 103.592 128.507 103.701 128.487C103.773 128.474 103.845 128.464 103.918 128.451C104.135 128.412 103.641 128.484 103.668 128.484C103.931 128.461 104.191 128.428 104.454 128.415C104.953 128.389 105.457 128.395 105.96 128.435C106.078 128.445 106.196 128.454 106.315 128.468C106.374 128.474 106.433 128.481 106.492 128.487C106.752 128.514 106.065 128.422 106.325 128.464C106.585 128.507 106.844 128.55 107.101 128.606C107.65 128.724 108.193 128.875 108.722 129.063C108.844 129.106 108.962 129.148 109.081 129.194C109.209 129.244 109.636 129.454 109.146 129.214C109.399 129.339 109.663 129.444 109.916 129.573C110.439 129.832 110.942 130.125 111.428 130.447C111.636 130.585 111.84 130.73 112.04 130.875C112.323 131.079 111.734 130.628 112.08 130.904C112.191 130.993 112.3 131.082 112.408 131.174C112.816 131.523 113.204 131.894 113.566 132.286C113.724 132.457 113.875 132.631 114.023 132.808C114.115 132.917 114.368 133.285 114.036 132.812C114.112 132.92 114.194 133.022 114.27 133.131C114.549 133.522 114.806 133.93 115.033 134.354C115.144 134.561 115.25 134.768 115.348 134.982C115.371 135.031 115.391 135.081 115.414 135.127C115.51 135.314 115.312 134.877 115.319 134.9C115.362 135.031 115.424 135.163 115.473 135.295C115.628 135.715 115.753 136.146 115.845 136.584C115.868 136.699 115.891 136.814 115.911 136.932C115.924 137.018 115.976 137.386 115.927 137.018C115.878 136.649 115.924 137.018 115.93 137.103C115.944 137.235 115.95 137.366 115.957 137.498C115.963 137.695 115.967 137.889 115.957 138.086C115.953 138.202 115.947 138.313 115.937 138.428C115.93 138.521 115.881 138.932 115.93 138.553C115.98 138.175 115.921 138.596 115.904 138.675C115.888 138.77 115.868 138.866 115.845 138.958C115.796 139.178 115.733 139.395 115.661 139.609C115.631 139.701 115.595 139.79 115.562 139.882C115.454 140.194 115.756 139.471 115.611 139.77C115.513 139.977 115.411 140.181 115.299 140.382C114.789 141.28 115.056 142.579 116.006 143.082C116.956 143.585 118.16 143.332 118.706 142.375C121.136 138.093 119.528 132.97 116.391 129.536C112.908 125.728 107.315 123.634 102.217 124.771C99.8431 125.301 97.7714 126.643 96.3409 128.606C95.0748 130.345 94.5552 132.66 94.8084 134.782C95.4234 139.898 99.2381 143.976 103.875 145.933C108.268 147.788 114.201 147.712 117.588 143.897C118.005 143.427 118.387 142.917 118.706 142.375C119.229 141.484 118.939 140.171 117.999 139.675C117.058 139.178 115.858 139.431 115.299 140.382H115.322Z" fill="#FF4409"/>
<path d="M39.4637 1.6178L7.63809 17.3816C6.58022 17.9056 6.14742 19.1879 6.6714 20.2458L8.15874 23.2486C8.68272 24.3064 9.96506 24.7392 11.0229 24.2152L42.8485 8.45147C43.9064 7.9275 44.3392 6.64516 43.8152 5.5873L42.3279 2.58449C41.8039 1.52663 40.5216 1.09383 39.4637 1.6178Z" fill="#FFA14C"/>
<path d="M24.452 3.77323C23.061 3.12211 21.374 3.6121 20.1342 4.8683C19.4075 4.09551 18.5459 3.45425 17.5528 2.99058C12.5345 0.64588 6.16141 3.68116 3.31686 9.77145C0.472314 15.8617 2.23494 22.6952 7.25647 25.0399C12.2747 27.3846 18.6478 24.3493 21.4924 18.259C22.377 16.3649 22.8143 14.3984 22.8505 12.514C24.0607 12.1194 25.1985 11.1164 25.8628 9.69252C26.9776 7.30507 26.3462 4.65455 24.4553 3.77323H24.452Z" fill="#FF4409"/>
<path d="M25.4451 2.07085C24.2514 1.5414 23.0478 1.37368 21.7653 1.68938C20.6176 1.97219 19.5686 2.64962 18.7366 3.47175H21.5285C19.7199 1.57758 17.3258 0.492376 14.7378 0.258893C12.597 0.0648724 10.4397 0.627199 8.52912 1.55784C4.32971 3.60657 1.27798 7.93752 0.340765 12.4658C-0.596456 16.994 0.340774 22.0452 3.88577 25.1429C5.64182 26.6786 7.75306 27.5567 10.0714 27.7671C12.2287 27.9612 14.4056 27.3922 16.3294 26.4452C20.713 24.2813 23.8765 19.615 24.6 14.8236C24.7151 14.0574 24.8039 13.2912 24.8203 12.5151L23.3734 14.4191C25.8825 13.5674 27.8162 11.2786 28.247 8.65442C28.6777 6.0302 27.8951 3.26786 25.4484 2.07414C24.5211 1.62361 23.2714 1.79133 22.7486 2.78116C22.2816 3.66906 22.4658 4.9976 23.4556 5.48101C23.6266 5.56651 23.7811 5.66846 23.9423 5.76712C24.1363 5.88551 23.597 5.45142 23.8206 5.68162C23.893 5.75396 23.9686 5.82302 24.0344 5.89866C24.087 5.95785 24.3007 6.19462 24.0738 5.93483C23.8469 5.67503 24.0508 5.91839 24.0936 5.99073C24.1495 6.07952 24.1988 6.1716 24.2481 6.26368C24.2843 6.33273 24.4323 6.6287 24.2777 6.31629C24.1232 6.00389 24.2646 6.30314 24.2909 6.38207C24.3238 6.4873 24.3534 6.59253 24.3797 6.69776C24.4027 6.78655 24.4158 6.87862 24.4356 6.9707C24.4882 7.21076 24.3928 6.48729 24.4158 6.83916C24.429 7.05291 24.4388 7.26338 24.4323 7.47713C24.429 7.57578 24.4191 7.67444 24.4126 7.77309C24.3895 8.19731 24.5112 7.30942 24.4191 7.72706C24.3731 7.93094 24.3336 8.13154 24.2744 8.33214C24.2383 8.45381 24.1955 8.5722 24.156 8.69388C24.0409 9.03588 24.2909 8.42422 24.1823 8.64455C24.0738 8.86488 23.9686 9.07863 23.8437 9.28909C23.7877 9.38117 23.7285 9.46996 23.6661 9.55875C23.4951 9.80868 23.5707 9.62781 23.7088 9.516C23.5411 9.65083 23.4063 9.86458 23.2484 10.0158C23.1761 10.0849 23.0972 10.1507 23.0248 10.2197C22.7256 10.5058 23.3931 9.97968 23.0511 10.2033C22.89 10.3085 22.7321 10.417 22.5611 10.5091C22.4658 10.5617 22.3507 10.6012 22.2586 10.6571L22.525 10.542C22.4559 10.5683 22.3868 10.5913 22.3178 10.6144C21.4726 10.9005 20.8906 11.6075 20.8708 12.5184C20.8643 12.8012 20.8511 13.0873 20.8281 13.3701C20.8149 13.5148 20.8018 13.6562 20.7853 13.8009C20.7788 13.8535 20.7492 14.1002 20.7853 13.8272C20.8215 13.5378 20.7755 13.87 20.7689 13.9259C20.6669 14.5605 20.519 15.1886 20.3315 15.8036C20.2427 16.0963 20.1441 16.3824 20.0388 16.6685C20.0125 16.7375 19.835 17.1552 19.9402 16.9348C20.0454 16.7145 19.9336 16.948 19.9172 16.9842C19.8744 17.0795 19.8317 17.1749 19.7889 17.2703C19.5719 17.7372 19.3285 18.191 19.0655 18.6317C18.8024 19.0724 18.4998 19.5032 18.1907 19.9241C18.0625 20.0984 18.3288 19.7498 18.319 19.7597C18.2795 19.8024 18.2466 19.8517 18.2072 19.8978C18.1348 19.9899 18.0592 20.0786 17.9835 20.1674C17.8191 20.3582 17.6514 20.5456 17.4771 20.7265C17.1483 21.0685 16.8063 21.394 16.4445 21.7032C16.359 21.7755 16.2735 21.8478 16.1847 21.9169C16.142 21.9531 16.0959 21.986 16.0532 22.0221C16.0368 22.0353 16.4051 21.7591 16.2308 21.8807C16.0203 22.0287 15.8164 22.1833 15.5994 22.3247C15.2212 22.5713 14.8332 22.7982 14.432 23.0021C14.2445 23.0975 14.0374 23.1698 13.8565 23.2751C13.8335 23.2882 14.2807 23.104 14.0834 23.1797C14.0341 23.1994 13.9848 23.2191 13.9387 23.2389C13.8236 23.2849 13.7118 23.3244 13.5967 23.3671C13.1922 23.5118 12.7779 23.6302 12.3569 23.7223C12.1399 23.7683 11.9229 23.8012 11.7058 23.8407C11.4888 23.8801 12.0149 23.8045 11.9787 23.8045C11.9294 23.8045 11.8768 23.8177 11.8275 23.8209C11.7091 23.8308 11.594 23.844 11.4756 23.8505C11.058 23.8801 10.6403 23.8768 10.2227 23.8505C10.124 23.844 10.0221 23.8341 9.92344 23.8242C9.8774 23.8209 9.81822 23.8209 9.77547 23.8078C9.73272 23.7946 10.2654 23.89 10.0517 23.844C9.83794 23.7979 9.62421 23.7683 9.41045 23.719C8.97966 23.6171 8.57845 23.4461 8.15752 23.3178C8.13121 23.3112 8.57848 23.5118 8.39432 23.4165C8.34828 23.3934 8.29894 23.3737 8.2529 23.354C8.15753 23.3079 8.05888 23.2619 7.96351 23.2126C7.75962 23.1073 7.55904 22.9955 7.36502 22.8739C7.18744 22.762 7.01642 22.6437 6.84541 22.522C6.80266 22.4924 6.7632 22.4562 6.72045 22.4299C6.70072 22.4168 7.06577 22.716 6.9145 22.5779C6.82571 22.4957 6.72702 22.4233 6.63494 22.3411C6.29623 22.0419 5.98383 21.7163 5.69773 21.371C5.66485 21.3316 5.63199 21.2888 5.5991 21.2493C5.46427 21.0948 5.76022 21.4631 5.74707 21.4434C5.69445 21.3546 5.62209 21.2724 5.56289 21.1902C5.43135 21.0027 5.30968 20.812 5.19129 20.6179C4.9611 20.2332 4.79668 19.8254 4.58622 19.4341C4.57635 19.4144 4.75066 19.855 4.6816 19.6577C4.66516 19.6084 4.64212 19.5558 4.62239 19.5064C4.57635 19.3881 4.53359 19.2697 4.49413 19.148C4.4185 18.9244 4.34619 18.6975 4.2837 18.4673C4.16203 18.0168 4.07649 17.5629 3.99757 17.1058C3.96139 16.8888 4.03048 17.3755 4.03048 17.3492C4.0272 17.2933 4.01731 17.2374 4.01073 17.1815C3.99758 17.0697 3.98772 16.9546 3.97786 16.8395C3.95813 16.5895 3.94497 16.3429 3.9384 16.093C3.92524 15.5833 3.94169 15.0735 3.98773 14.5671C3.9976 14.4487 4.01075 14.3304 4.0239 14.212C4.06336 13.8437 3.95812 14.6263 4.01732 14.2613C4.06007 14.0015 4.10612 13.7417 4.15874 13.4852C4.26726 12.9788 4.39879 12.4789 4.55993 11.9857C4.63885 11.7456 4.72436 11.5055 4.81644 11.2688C4.86248 11.1504 4.91507 11.032 4.95782 10.9136C4.76709 11.4398 4.95784 10.9235 5.02032 10.7919C5.23736 10.325 5.4807 9.87115 5.74378 9.4305C6.00686 8.98984 6.2831 8.58864 6.58236 8.18415C6.79611 7.89806 6.3357 8.48341 6.56261 8.21047C6.63824 8.12168 6.71061 8.0296 6.78624 7.94081C6.96053 7.73363 7.14137 7.53304 7.32881 7.33573C7.65766 6.99372 7.99967 6.66816 8.3614 6.35904C8.4469 6.2867 8.53242 6.21435 8.62121 6.14529C8.66396 6.10912 8.71 6.07623 8.75276 6.04006C8.7692 6.02691 8.40087 6.30314 8.57516 6.18146C8.76919 6.04335 8.95993 5.90194 9.16053 5.7704C9.53541 5.52048 9.92672 5.29357 10.3279 5.08968C10.5318 4.98445 10.7554 4.90553 10.9527 4.79372C10.9758 4.78056 10.5285 4.96472 10.7259 4.88909C10.7752 4.86936 10.8245 4.84963 10.8705 4.8299C10.9856 4.78386 11.0974 4.74439 11.2125 4.70164C11.617 4.55695 12.0314 4.43857 12.4523 4.34649C12.6529 4.30374 12.8535 4.27085 13.0541 4.23468C13.3928 4.17549 12.5871 4.28071 12.9324 4.25112C13.0508 4.24125 13.1659 4.2281 13.2843 4.21823C13.7184 4.18535 14.1525 4.18535 14.5865 4.21823C14.6852 4.22481 14.7871 4.23468 14.8858 4.24455C14.9318 4.24783 14.991 4.24783 15.0338 4.26098C15.0765 4.27414 14.5438 4.17878 14.7575 4.22482C14.9713 4.27085 15.185 4.30044 15.3988 4.34977C15.8131 4.44842 16.2045 4.59312 16.6057 4.73124C16.803 4.80029 16.3459 4.61614 16.3722 4.63259C16.4149 4.65889 16.4676 4.67534 16.5136 4.69507C16.6583 4.76413 16.7997 4.83318 16.9411 4.90553C17.2108 5.04693 17.4706 5.20479 17.7205 5.37579C17.7797 5.41525 18.1315 5.67833 17.9145 5.50733C17.6975 5.33632 18.0362 5.61255 18.0921 5.65859C18.319 5.8559 18.5327 6.06308 18.7399 6.28012C19.4798 7.05621 20.7853 7.01675 21.5318 6.28012C21.6272 6.18476 21.8738 6.03677 21.9264 5.91839C21.8705 6.04664 21.614 6.1453 21.8903 5.95127C21.9593 5.90195 22.0317 5.8559 22.104 5.81315C22.2487 5.72436 22.4 5.6553 22.5447 5.57638C22.7617 5.458 22.1796 5.69805 22.4131 5.63557C22.5085 5.60926 22.6039 5.5698 22.6993 5.54349C22.7749 5.52047 22.8538 5.50733 22.9294 5.4876C23.1925 5.41854 22.8341 5.50403 22.7519 5.50074C22.9064 5.50403 23.061 5.47443 23.2155 5.48101C23.2912 5.48101 23.3701 5.50075 23.4457 5.49417C22.9985 5.52048 23.1234 5.44485 23.3175 5.4876C23.4786 5.52377 23.9916 5.73752 23.4523 5.49746C23.9522 5.72108 24.4224 5.84933 24.9716 5.69477C25.4287 5.56981 25.9253 5.21465 26.1522 4.78714C26.606 3.92885 26.4514 2.53453 25.4451 2.08729V2.07085Z" fill="#FF4409"/>
<path d="M86.3116 51.2662C122.936 57.373 122.936 90.7939 86.3116 96.904C84.4141 97.2197 82.9212 98.7159 82.6022 100.613C76.4954 137.237 43.0745 137.237 36.9645 100.613C36.6488 98.7159 35.1525 97.2229 33.2551 96.904C-3.36888 90.7972 -3.36888 57.3763 33.2551 51.2662C35.1525 50.9506 36.6455 49.4543 36.9645 47.5568C43.0712 10.9329 76.4922 10.9329 82.6022 47.5568C82.9179 49.4543 84.4141 50.9473 86.3116 51.2662Z" fill="#FAF1E7"/>
<path d="M85.6545 53.6441C89.5743 54.3018 93.4416 55.3212 97.1083 56.8668L96.5197 56.6169C99.2195 57.7613 101.775 59.1885 104.116 60.961C103.35 60.3789 103.906 60.7999 104.08 60.938C104.211 61.0432 104.34 61.1484 104.468 61.2537C104.721 61.4641 104.968 61.6779 105.214 61.8982C105.688 62.3257 106.148 62.7664 106.589 63.2301C107.03 63.6937 107.421 64.1344 107.809 64.6112C107.888 64.7099 107.967 64.8085 108.043 64.9039C108.273 65.19 107.622 64.3482 107.839 64.6408C107.885 64.7 107.927 64.7592 107.973 64.8184C108.151 65.0552 108.322 65.2952 108.486 65.5386C109.203 66.5909 109.822 67.709 110.318 68.883L110.068 68.2943C110.647 69.6788 111.051 71.1257 111.255 72.6154L111.167 71.961C111.351 73.3718 111.351 74.8023 111.167 76.213L111.255 75.5586C111.055 77.045 110.65 78.4952 110.068 79.8797L110.318 79.2911C109.878 80.3302 109.345 81.3266 108.727 82.2704C108.582 82.494 108.431 82.7144 108.276 82.9347C108.191 83.0564 108.105 83.1748 108.016 83.2932C107.973 83.3523 107.927 83.4115 107.881 83.4707C107.582 83.8686 108.266 82.9808 108.039 83.2669C107.674 83.724 107.299 84.1712 106.905 84.602C106.033 85.5524 105.083 86.4271 104.077 87.2328C103.902 87.3742 103.343 87.7918 104.113 87.2098C104.001 87.2953 103.886 87.3807 103.774 87.4662C103.475 87.6899 103.169 87.9069 102.86 88.1207C102.298 88.5087 101.719 88.877 101.133 89.2289C99.6536 90.1135 98.1047 90.8797 96.5197 91.5538L97.1083 91.3039C93.5534 92.8002 89.8111 93.8065 86.0162 94.4642C83.3229 94.9311 81.0605 96.8253 80.3238 99.4988C80.0509 100.492 79.9456 101.551 79.7286 102.56C79.5214 103.537 79.2879 104.507 79.0281 105.474C78.4823 107.493 77.8114 109.479 77.0024 111.41L77.2523 110.821C76.108 113.521 74.6808 116.076 72.9083 118.418C73.4903 117.651 73.0694 118.207 72.9313 118.381C72.8261 118.513 72.7208 118.641 72.6156 118.769C72.4051 119.023 72.1914 119.269 71.9711 119.516C71.5435 119.989 71.1029 120.45 70.6392 120.89C70.1755 121.331 69.7349 121.722 69.258 122.111C69.1594 122.189 69.0607 122.268 68.9654 122.344C68.6793 122.574 69.5211 121.923 69.2285 122.14C69.1693 122.186 69.1101 122.229 69.0509 122.275C68.8141 122.453 68.574 122.624 68.3307 122.788C67.2784 123.505 66.1603 124.123 64.9863 124.62L65.5749 124.37C64.1905 124.948 62.7436 125.353 61.2539 125.557L61.9083 125.468C60.4975 125.652 59.067 125.652 57.6562 125.468L58.3106 125.557C56.8242 125.356 55.374 124.952 53.9896 124.37L54.5782 124.62C53.539 124.179 52.5426 123.646 51.5988 123.028C51.3752 122.883 51.1549 122.732 50.9346 122.577C50.8129 122.492 50.6945 122.406 50.5761 122.318C50.5169 122.275 50.4577 122.229 50.3985 122.183C50.0006 121.884 50.8885 122.568 50.6024 122.341C50.1453 121.976 49.6981 121.601 49.2673 121.206C48.3169 120.335 47.4422 119.384 46.6365 118.378C46.4951 118.204 46.0775 117.645 46.6595 118.414C46.574 118.302 46.4885 118.187 46.403 118.076C46.1794 117.776 45.9624 117.47 45.7486 117.161C45.3606 116.599 44.9923 116.02 44.6404 115.435C43.7558 113.955 42.9895 112.406 42.3154 110.821L42.5653 111.41C41.0691 107.855 40.0628 104.113 39.4051 100.318C38.9381 97.6244 37.044 95.3619 34.3704 94.6253C33.3773 94.3524 32.3184 94.2471 31.3088 94.0301C30.3321 93.8229 29.362 93.5894 28.3952 93.3296C26.3761 92.7837 24.3898 92.1129 22.4595 91.3039L23.0481 91.5538C20.3483 90.4094 17.7931 88.9823 15.4517 87.2098C16.2179 87.7918 15.6622 87.3709 15.4879 87.2328C15.3563 87.1275 15.2281 87.0223 15.0998 86.9171C14.8466 86.7066 14.6 86.4929 14.3534 86.2725C13.8798 85.845 13.4194 85.4044 12.9788 84.9407C12.5381 84.477 12.1468 84.0363 11.7587 83.5595C11.6798 83.4609 11.6009 83.3622 11.5252 83.2669C11.295 82.9808 11.9462 83.8226 11.7291 83.5299C11.6831 83.4707 11.6404 83.4115 11.5943 83.3523C11.4167 83.1156 11.2457 82.8755 11.0813 82.6322C10.3644 81.5798 9.74619 80.4618 9.24963 79.2878L9.49956 79.8764C8.92078 78.492 8.5163 77.045 8.31242 75.5553L8.40117 76.2097C8.21702 74.799 8.21702 73.3685 8.40117 71.9577L8.31242 72.6121C8.51301 71.1257 8.91749 69.6755 9.49956 68.291L9.24963 68.8797C9.69029 67.8405 10.223 66.8441 10.8412 65.9003C10.9859 65.6767 11.1372 65.4564 11.2918 65.236C11.3773 65.1144 11.4628 64.996 11.5516 64.8776C11.5943 64.8184 11.6403 64.7592 11.6864 64.7C11.9856 64.3021 11.3016 65.19 11.5285 64.9039C11.8936 64.4468 12.2685 63.9996 12.6631 63.5688C13.5345 62.6184 14.4849 61.7437 15.4912 60.938C15.6655 60.7966 16.2245 60.3789 15.455 60.961C15.5668 60.8755 15.6819 60.79 15.7937 60.7045C16.093 60.4809 16.3988 60.2638 16.7079 60.0501C17.2702 59.662 17.849 59.2937 18.4344 58.9419C19.9142 58.0573 21.4631 57.291 23.0481 56.6169L22.4595 56.8668C26.0143 55.3706 29.7567 54.3643 33.5516 53.7066C36.2449 53.2396 38.5073 51.3455 39.244 48.6719C39.5169 47.6788 39.6222 46.6199 39.8392 45.6103C40.0562 44.6007 40.2799 43.6635 40.5396 42.6967C41.0855 40.6776 41.7564 38.6913 42.5653 36.761L42.3154 37.3496C43.4598 34.6498 44.887 32.0946 46.6595 29.7532C46.0775 30.5194 46.4984 29.9637 46.6365 29.7894C46.7417 29.6578 46.847 29.5296 46.9522 29.4013C47.1627 29.1481 47.3764 28.9015 47.5967 28.6548C48.0242 28.1813 48.4649 27.7209 48.9286 27.2803C49.3922 26.8396 49.8329 26.4483 50.3097 26.0602C50.4084 25.9813 50.5071 25.9024 50.6024 25.8267C50.8885 25.5966 50.0467 26.2477 50.3393 26.0306C50.3985 25.9846 50.4577 25.9418 50.5169 25.8958C50.7537 25.7182 50.9937 25.5472 51.2371 25.3828C52.2894 24.6659 53.4075 24.0477 54.5815 23.5511L53.9928 23.801C55.3773 23.2223 56.8242 22.8178 58.3139 22.6139L57.6595 22.7027C59.0703 22.5185 60.5008 22.5185 61.9116 22.7027L61.2572 22.6139C62.7436 22.8145 64.1937 23.219 65.5782 23.801L64.9896 23.5511C66.0288 23.9918 67.0251 24.5245 67.9689 25.1427C68.1926 25.2874 68.4129 25.4387 68.6332 25.5933C68.7549 25.6788 68.8733 25.7643 68.9917 25.853C69.0508 25.8958 69.1101 25.9418 69.1693 25.9879C69.5672 26.2871 68.6793 25.6031 68.9654 25.83C69.4225 26.195 69.8697 26.5699 70.3005 26.9646C71.2509 27.836 72.1256 28.7864 72.9313 29.7927C73.0727 29.967 73.4903 30.526 72.9083 29.7565C72.9938 29.8683 73.0793 29.9834 73.1648 30.0952C73.3884 30.3945 73.6054 30.7003 73.8192 31.0094C74.2072 31.5717 74.5755 32.1505 74.9274 32.7359C75.812 34.2157 76.5782 35.7646 77.2523 37.3496L77.0024 36.761C77.864 38.813 78.5678 40.9275 79.1301 43.0782C79.4359 44.2423 79.7023 45.4196 79.9325 46.6001C80.2021 47.9813 80.3633 49.346 81.1624 50.5529C82.1917 52.1051 83.7932 53.3087 85.6545 53.6441C86.3187 53.7625 86.9534 53.7493 87.5552 53.3942C88.0682 53.0949 88.5549 52.5096 88.6897 51.9209C88.9627 50.7173 88.3247 49.1323 86.9666 48.8857C86.6213 48.8232 86.2924 48.7278 85.9669 48.5963L86.5555 48.8462C86.3122 48.741 86.0754 48.6193 85.8518 48.4746C85.3388 48.1425 86.2004 48.7969 85.8978 48.5239C85.7992 48.4351 85.7005 48.3496 85.6084 48.2576C85.5163 48.1655 85.4309 48.0635 85.3421 47.9682C85.0494 47.6459 85.7203 48.5042 85.4243 48.0602C85.2664 47.8235 85.1349 47.5703 85.0231 47.3105L85.273 47.8991C84.931 47.054 84.8554 46.1167 84.6811 45.2256C84.5068 44.3344 84.3161 43.4629 84.1023 42.5915C83.7077 40.99 83.244 39.4016 82.6915 37.8462C81.6458 34.8931 80.337 32.0025 78.6434 29.3586C75.9271 25.123 72.1946 21.3018 67.5085 19.2991C65.2658 18.3388 62.954 17.7469 60.5074 17.6384C58.3107 17.5397 56.0449 17.8653 53.96 18.5592C49.0108 20.2067 45.0383 23.6498 41.9931 27.8097C38.2475 32.9266 36.064 39.1682 34.8703 45.3472C34.7058 46.199 34.6302 47.0934 34.3013 47.9024L34.5513 47.3138C34.446 47.5571 34.3244 47.7939 34.1797 48.0175C33.8475 48.5305 34.502 47.6689 34.229 47.9715C34.1402 48.0701 34.0547 48.1688 33.9627 48.2608C33.8706 48.3529 33.7686 48.4384 33.6733 48.5272C33.351 48.8199 34.2093 48.149 33.7653 48.445C33.5286 48.6028 33.2754 48.7344 33.0156 48.8462L33.6042 48.5963C32.759 48.9383 31.8218 49.0139 30.9306 49.1882C30.0395 49.3625 29.168 49.5532 28.2966 49.767C26.6951 50.1616 25.1067 50.6253 23.5513 51.1777C20.5982 52.2235 17.7076 53.5323 15.0637 55.2259C10.8281 57.9422 7.00687 61.6746 5.00417 66.3607C4.04393 68.6035 3.45199 70.9153 3.34347 73.3619C3.24481 75.5586 3.57039 77.8244 4.26426 79.9093C5.9118 84.8585 9.35485 88.831 13.5148 91.8761C18.6317 95.6217 24.8732 97.8053 31.0523 98.999C31.904 99.1634 32.7985 99.239 33.6075 99.5679L33.0188 99.318C33.2622 99.4232 33.499 99.5449 33.7226 99.6896C34.2356 100.022 33.374 99.3673 33.6765 99.6403C33.7752 99.729 33.8738 99.8145 33.9659 99.9066C34.058 99.9987 34.1435 100.101 34.2323 100.196C34.525 100.518 33.8541 99.66 34.1501 100.104C34.3079 100.341 34.4395 100.594 34.5513 100.854L34.3013 100.265C34.6434 101.11 34.719 102.047 34.8933 102.939C35.0643 103.82 35.2583 104.701 35.4721 105.573C35.8667 107.174 36.3303 108.763 36.8828 110.318C37.9285 113.271 39.2374 116.162 40.931 118.806C43.6473 123.041 47.3797 126.862 52.0658 128.865C54.3085 129.825 56.6204 130.417 59.067 130.526C61.2637 130.624 63.5295 130.299 65.6144 129.605C70.5636 127.957 74.5361 124.514 77.5812 120.354C81.3268 115.238 83.5104 108.996 84.7041 102.817C84.8685 101.965 84.9441 101.071 85.273 100.262L85.0231 100.85C85.1283 100.607 85.25 100.37 85.3947 100.147C85.7268 99.6337 85.0724 100.495 85.3454 100.193C85.4342 100.094 85.5196 99.9954 85.6117 99.9033C85.7038 99.8112 85.8057 99.7258 85.9011 99.637C86.2234 99.3443 85.3651 100.015 85.809 99.7192C86.0458 99.5613 86.299 99.4298 86.5588 99.318L85.9702 99.5679C86.8153 99.2259 87.7525 99.1503 88.6437 98.976C89.5349 98.8017 90.3669 98.6175 91.2219 98.4104C92.8267 98.019 94.415 97.5521 95.9738 97.0029C98.9038 95.9703 101.771 94.6779 104.396 93.0106C108.602 90.3371 112.443 86.6474 114.475 82.0271C115.452 79.8041 116.063 77.5317 116.218 75.0982C116.356 72.941 116.07 70.7081 115.438 68.6396C113.929 63.7102 110.588 59.7344 106.543 56.6465C101.63 52.8943 95.5792 50.6549 89.5777 49.3789C88.7128 49.1948 87.8446 49.0336 86.9732 48.8857C86.3023 48.7738 85.6808 48.7771 85.0724 49.1356C84.5594 49.4348 84.0727 50.0202 83.9379 50.6088C83.6649 51.8025 84.2996 53.4139 85.661 53.6441H85.6545Z" fill="#FF4409"/>
<path d="M31.1241 49.7338C30.8183 51.3156 30.6012 52.9204 30.4236 54.5219C30.1408 57.077 29.9665 59.7177 30.4598 62.2597C30.6736 63.358 31.1175 64.5353 31.9692 65.3015C33.038 66.2618 34.623 66.4426 35.9976 66.5873C37.0762 66.6991 38.191 66.5446 39.1513 66.0151C40.1115 65.4857 40.7791 64.6077 41.3118 63.7C42.0222 62.4833 42.5549 61.1646 43.1468 59.892C44.1169 57.7972 45.1593 55.7419 46.2972 53.7326C46.8069 52.8349 46.5405 51.5359 45.5902 51.0328C44.6398 50.5296 43.4329 50.7828 42.8903 51.7398C41.8939 53.4991 40.9665 55.2979 40.1017 57.1263C39.5262 58.3431 38.9935 59.5828 38.3949 60.7864C38.1812 61.2172 37.9576 61.6447 37.6945 62.0492C37.6452 62.1249 37.5958 62.1972 37.5432 62.2728C37.2867 62.6477 37.8556 61.9012 37.6517 62.138C37.5334 62.2761 37.4183 62.411 37.2834 62.5326C37.119 62.6839 36.8329 62.7957 37.4446 62.4208C37.3854 62.457 37.3295 62.503 37.267 62.5425C37.2045 62.582 37.142 62.6116 37.0828 62.6477C36.7145 62.8516 37.6452 62.4603 37.2374 62.582C37.0927 62.6247 36.9513 62.6609 36.8033 62.6938C36.4448 62.7727 37.4479 62.6444 36.994 62.6642C36.8921 62.6675 36.7868 62.6773 36.6849 62.6773C36.4744 62.6773 36.2673 62.6675 36.0601 62.6477C35.8694 62.628 35.4484 62.5392 36.2081 62.674C36.0502 62.6477 35.8924 62.6247 35.7345 62.5951C35.4846 62.5491 35.2347 62.4965 34.9848 62.4373C34.8204 62.4011 34.6559 62.3649 34.4915 62.3189C34.4586 62.309 34.4224 62.2958 34.3895 62.2893C34.1034 62.2268 34.8993 62.5524 34.6822 62.4175C34.6197 62.3781 34.5474 62.332 34.4816 62.2991C34.6263 62.3715 34.9256 62.6839 34.6658 62.4241C34.6132 62.3715 34.5671 62.3057 34.5145 62.2564C35.0012 62.7299 34.748 62.5754 34.6198 62.3583C34.5704 62.2761 34.531 62.1906 34.4882 62.1084C34.3073 61.7697 34.6888 62.6411 34.5606 62.2794C34.4816 62.0558 34.4093 61.8289 34.3534 61.5954C34.2975 61.3619 34.2514 61.1252 34.212 60.8884C34.1297 60.3721 34.2514 61.2501 34.2251 60.9969C34.2087 60.8423 34.1889 60.6845 34.1758 60.5299C34.1265 59.9512 34.1067 59.3724 34.1067 58.7936C34.1067 57.5769 34.1889 56.3601 34.3073 55.15C34.3698 54.5317 34.4422 53.9135 34.5211 53.2953C34.5606 52.9763 34.4422 53.8642 34.4882 53.5485C34.4981 53.4827 34.5079 53.4169 34.5145 53.3512C34.5342 53.2032 34.5573 53.0585 34.577 52.9105C34.6099 52.6836 34.6461 52.4567 34.6822 52.2331C34.7579 51.7529 34.8368 51.2695 34.9289 50.7927C35.1262 49.7831 34.6461 48.6157 33.551 48.3658C32.5743 48.1422 31.3346 48.6618 31.1241 49.7437V49.7338Z" fill="#FF4409"/>
<path d="M51.4793 53.3921C51.4793 53.3921 48.9373 66.477 52.4198 67.3517C58.76 68.9401 57.1026 66.3356 63.045 55.865" fill="#FAF1E7"/>
<path d="M49.5753 52.8661C49.2694 54.4479 49.0524 56.0527 48.8748 57.6542C48.592 60.2093 48.4177 62.85 48.911 65.392C49.1247 66.4904 49.5687 67.6676 50.4204 68.4339C51.4892 69.3941 53.0742 69.575 54.4488 69.7197C55.5274 69.8315 56.6422 69.6769 57.6024 69.1475C58.5627 68.618 59.2303 67.74 59.763 66.8324C60.4733 65.6156 61.006 64.2969 61.598 63.0243C62.5681 60.9295 63.6106 58.8742 64.7484 56.8649C65.2581 55.9672 64.9917 54.6682 64.0413 54.1651C63.091 53.662 61.8841 53.9152 61.3415 54.8721C60.345 56.6315 59.4177 58.4303 58.5528 60.2587C57.9773 61.4754 57.4446 62.7152 56.8461 63.9188C56.6324 64.3496 56.4087 64.7771 56.1457 65.1815C56.0963 65.2572 56.047 65.3295 55.9944 65.4052C55.7379 65.78 56.3068 65.0336 56.1029 65.2703C55.9845 65.4084 55.8694 65.5433 55.7346 65.665C55.5702 65.8162 55.2841 65.928 55.8957 65.5531C55.8365 65.5893 55.7806 65.6354 55.7181 65.6748C55.6557 65.7143 55.5932 65.7439 55.534 65.7801C55.1657 65.9839 56.0963 65.5926 55.6886 65.7143C55.5439 65.757 55.4025 65.7932 55.2545 65.8261C54.8961 65.905 55.899 65.7768 55.4452 65.7965C55.3433 65.7998 55.238 65.8096 55.1361 65.8096C54.9256 65.8096 54.7185 65.7998 54.5113 65.7801C54.3206 65.7603 53.8996 65.6715 54.6593 65.8064C54.5014 65.78 54.3436 65.757 54.1857 65.7274C53.9358 65.6814 53.6859 65.6288 53.436 65.5696C53.2715 65.5334 53.1071 65.4972 52.9427 65.4512C52.9098 65.4413 52.8736 65.4282 52.8407 65.4216C52.5546 65.3591 53.3504 65.6847 53.1334 65.5499C53.0709 65.5104 52.9986 65.4643 52.9328 65.4315C53.0775 65.5038 53.3768 65.8162 53.117 65.5564C53.0644 65.5038 53.0183 65.438 52.9657 65.3887C53.4524 65.8623 53.1992 65.7077 53.0709 65.4907C53.0216 65.4084 52.9821 65.3229 52.9394 65.2407C52.7585 64.902 53.14 65.7735 53.0117 65.4117C52.9328 65.1881 52.8605 64.9612 52.8045 64.7277C52.7486 64.4942 52.7026 64.2575 52.6632 64.0207C52.581 63.5044 52.7026 64.3824 52.6763 64.1292C52.6598 63.9747 52.6401 63.8168 52.627 63.6623C52.5776 63.0835 52.5579 62.5047 52.5579 61.9259C52.5579 60.7092 52.6401 59.4924 52.7585 58.2823C52.821 57.664 52.8933 57.0458 52.9723 56.4276C53.0117 56.1086 52.8933 56.9965 52.9394 56.6808C52.9493 56.615 52.9591 56.5492 52.9657 56.4835C52.9854 56.3355 53.0085 56.1908 53.0282 56.0428C53.0611 55.8159 53.0972 55.589 53.1334 55.3654C53.209 54.8853 53.288 54.4019 53.38 53.925C53.5773 52.9155 53.0972 51.748 52.0022 51.4981C51.0255 51.2745 49.7857 51.7941 49.5753 52.876V52.8661Z" fill="#FF4409"/>
<path d="M25.0645 76.3882C25.0645 76.3882 54.4932 94.419 69.2914 80.9362L25.0645 76.3882Z" fill="#FAF1E7"/>
<path d="M24.0693 78.0915C25.0723 78.7065 26.1114 79.2622 27.1539 79.8081C29.8504 81.2222 32.6292 82.4882 35.4573 83.6195C38.9267 85.0072 42.5013 86.1648 46.1614 86.931C50.0648 87.7465 54.1294 88.1905 58.1085 87.7334C62.0875 87.2763 66.1159 85.9411 69.4077 83.3958C69.8484 83.0571 70.2759 82.7053 70.6902 82.3304C71.4565 81.6365 71.4499 80.2356 70.6902 79.5384C69.8714 78.7854 68.7171 78.7985 67.8983 79.5384C67.724 79.6963 67.5464 79.8541 67.3623 80.0054C67.2768 80.0745 67.1946 80.1468 67.1091 80.2159C67.0597 80.2553 67.0104 80.2948 66.9644 80.3343C66.7178 80.5349 67.2932 80.0876 67.1058 80.2257C66.7342 80.4987 66.3626 80.7716 65.9745 81.0216C65.2018 81.5214 64.3862 81.9621 63.5476 82.3402C63.4457 82.3863 63.3273 82.4586 63.2188 82.4849C63.1727 82.4981 63.6759 82.2975 63.4818 82.3731C63.4259 82.3961 63.37 82.4192 63.3141 82.4422C63.0905 82.531 62.8669 82.6165 62.6433 82.6987C62.2191 82.85 61.7916 82.9881 61.3608 83.113C60.4762 83.3662 59.5784 83.5636 58.6708 83.7083C58.5524 83.728 58.4307 83.7444 58.3123 83.7641C58.2663 83.7707 58.2235 83.7773 58.1775 83.7839C57.9407 83.8201 58.6708 83.7214 58.4307 83.751C58.1907 83.7806 57.9473 83.8102 57.704 83.8332C57.2469 83.8793 56.7898 83.9121 56.3294 83.9352C55.3856 83.9812 54.4418 83.9812 53.5013 83.9417C52.5608 83.9023 51.5973 83.8234 50.6502 83.7115C50.5417 83.6984 50.4331 83.6852 50.3213 83.6721C49.8379 83.6096 50.6567 83.7214 50.3772 83.6819C50.1273 83.6458 49.8773 83.6096 49.6307 83.5734C49.1637 83.5011 48.7001 83.4221 48.2331 83.3334C44.5796 82.6494 41.005 81.551 37.5357 80.2225C36.7464 79.9199 35.9638 79.6009 35.1811 79.2754C34.9904 79.1964 35.5231 79.4201 35.4672 79.397C35.4179 79.3773 35.3685 79.3543 35.3192 79.3346C35.2205 79.2918 35.1252 79.2523 35.0265 79.2096C34.8358 79.1274 34.6451 79.0452 34.4543 78.9597C34.1091 78.8084 33.7638 78.6538 33.4185 78.496C32.1951 77.9402 30.985 77.3549 29.788 76.7399C28.5416 76.102 27.3347 75.4081 26.1147 74.7208C26.0983 74.7109 26.0818 74.7011 26.0654 74.6912C25.1841 74.1519 23.8555 74.4709 23.3655 75.3982C22.8558 76.3618 23.132 77.5226 24.0726 78.0981L24.0693 78.0915Z" fill="#FF4409"/>
<path d="M68.4582 74.7937C68.3168 76.7273 68.205 78.7925 69.1653 80.4795C70.0795 82.081 71.8454 83.0577 73.6574 83.4096C75.4693 83.7614 77.3372 83.5674 79.1623 83.3109" fill="#FAF1E7"/>
<path d="M66.4849 74.7939C66.3074 77.2734 66.2909 80.0061 67.8694 82.0812C69.5531 84.2976 72.105 85.3269 74.8278 85.5374C76.4556 85.6623 78.0802 85.4354 79.6882 85.2118C80.1421 85.1493 80.6485 84.6791 80.8688 84.3042C81.1154 83.88 81.2207 83.2585 81.0661 82.7849C80.9116 82.3114 80.6156 81.8477 80.1585 81.6043C79.6554 81.338 79.195 81.3281 78.6392 81.407C78.534 81.4235 78.4287 81.4366 78.3268 81.4498C78.5899 81.4136 78.6063 81.4103 78.3794 81.4399C78.1953 81.4596 78.0111 81.4859 77.8269 81.5057C77.4323 81.5484 77.0377 81.5813 76.6431 81.6043C76.2748 81.6241 75.9065 81.6339 75.5382 81.6241C75.1995 81.6175 74.7621 81.6504 74.4398 81.555C74.9232 81.6997 74.3839 81.5419 74.2622 81.5221C74.1143 81.4958 73.9696 81.4629 73.8249 81.4301C73.5454 81.361 73.2658 81.2788 72.9929 81.1801C72.914 81.1505 72.8383 81.1242 72.7594 81.0913C73.0389 81.213 73.0817 81.2295 72.8877 81.144C72.7759 81.0913 72.664 81.0387 72.5522 80.9828C72.2793 80.8414 72.0162 80.6836 71.763 80.506C71.3618 80.2232 72.0096 80.7427 71.7268 80.4764C71.6084 80.3646 71.4835 80.2626 71.3684 80.1442C71.2829 80.0587 71.204 79.9634 71.1217 79.8779C70.9902 79.7167 71.0165 79.7562 71.2007 79.993C71.1513 79.9272 71.1053 79.8614 71.0592 79.7957C70.9902 79.6937 70.9277 79.5885 70.8652 79.4833C70.8192 79.4043 70.7764 79.3221 70.7337 79.2399C70.6416 79.0426 70.6515 79.0755 70.7633 79.3386C70.6054 79.1051 70.5397 78.6973 70.4772 78.4309C70.441 78.2764 70.418 78.1185 70.3851 77.9607C70.3621 77.8094 70.3687 77.8719 70.4081 78.1448C70.3983 78.0528 70.3884 77.9607 70.3785 77.8686C70.3489 77.543 70.3358 77.2208 70.3325 76.8952C70.3259 76.1948 70.3752 75.4943 70.4245 74.7972C70.5002 73.7646 69.4643 72.778 68.4515 72.8241C67.3202 72.8734 66.5573 73.6922 66.4784 74.7972L66.4849 74.7939Z" fill="#FF4409"/>
<path d="M43.1374 67.6277C40.8059 66.1972 37.6917 64.7864 35.5443 66.48C33.591 68.019 34.0119 71.3305 35.8008 73.0537C37.5898 74.7768 40.2206 75.2668 42.7001 75.4411" fill="#FAF1E7"/>
<path d="M44.134 65.9247C42.3977 64.8625 40.52 63.9779 38.4746 63.7674C36.4291 63.5569 34.3212 64.4678 33.1538 66.2305C32.154 67.7399 32.0653 69.8314 32.6243 71.5184C33.2425 73.3797 34.5218 74.8562 36.2351 75.8033C38.2147 76.8984 40.4739 77.2535 42.7003 77.4146C43.7328 77.4903 44.7194 76.4544 44.6734 75.4416C44.624 74.3103 43.8052 73.5474 42.7003 73.4685C42.3352 73.4421 41.9669 73.4093 41.6052 73.3698C41.5197 73.3599 41.3618 73.3073 41.2829 73.3303C41.3191 73.3205 41.7729 73.406 41.421 73.3468C41.2073 73.3106 40.9935 73.2777 40.7798 73.235C40.5989 73.1988 38.6653 72.6529 38.6751 72.6332C38.6949 72.6036 39.0698 72.814 38.7968 72.6825C38.7015 72.6365 38.6061 72.5937 38.5107 72.5444C38.3594 72.4688 38.2115 72.3898 38.0668 72.3043C37.9024 72.209 37.7445 72.107 37.5866 71.9985C37.5176 71.9525 37.4518 71.8933 37.3827 71.8505L37.5833 72.0018C37.5176 71.9492 37.4518 71.8933 37.3893 71.8374C37.2742 71.7354 37.1591 71.6269 37.0539 71.5151C37.0046 71.4625 36.9618 71.4099 36.9125 71.3572C36.7021 71.1369 37.0079 71.4822 37.021 71.5085C36.8698 71.229 36.6626 70.9824 36.5179 70.693C36.4883 70.6371 36.462 70.5549 36.4258 70.4989C36.6823 70.8903 36.5442 70.8048 36.485 70.6239C36.439 70.4891 36.3929 70.3542 36.3534 70.2161C36.3107 70.0616 36.2811 69.907 36.2449 69.7492C36.2088 69.5913 36.2548 69.4368 36.2679 69.9596C36.2679 69.8544 36.2449 69.7492 36.2384 69.6472C36.2219 69.3677 36.2548 69.098 36.2614 68.8218C36.2417 69.4433 36.2417 69.0093 36.2943 68.7988C36.3337 68.6541 36.3995 68.516 36.4357 68.3713C36.3173 68.8514 36.2877 68.687 36.3831 68.5259C36.416 68.4699 36.4455 68.4075 36.4817 68.3516C36.5179 68.2957 36.5574 68.2397 36.5903 68.1838C36.7086 67.9668 36.2449 68.5686 36.4949 68.3055C36.5902 68.2069 36.6856 68.1115 36.781 68.0128C36.8862 67.9043 37.0111 67.9142 36.6395 68.1115C36.7448 68.0556 36.8435 67.9701 36.9454 67.9109C37.0145 67.8714 37.0868 67.8353 37.1559 67.7958C37.3137 67.7103 37.3762 67.7892 37.0111 67.855C37.1591 67.8287 37.3104 67.7531 37.4584 67.7202C37.4978 67.7103 37.6458 67.7004 37.6886 67.6741C37.442 67.8254 37.2841 67.7169 37.5735 67.6971C37.7511 67.684 37.932 67.684 38.1095 67.6906C38.2115 67.6939 38.3101 67.707 38.412 67.7136C38.662 67.73 37.9583 67.6314 38.3167 67.7004C38.5239 67.7399 38.731 67.7826 38.9349 67.8353C39.3558 67.9471 39.7537 68.1345 40.1681 68.2562C40.1221 68.243 39.7505 68.0687 40.0629 68.2167C40.1846 68.2726 40.3062 68.3285 40.4246 68.3844C40.6252 68.4798 40.8225 68.5818 41.0165 68.687C41.398 68.8909 41.7729 69.1079 42.1412 69.3348C43.0225 69.8741 44.3511 69.5551 44.8411 68.6278C45.3311 67.7004 45.0745 66.5034 44.134 65.9279V65.9247Z" fill="#FF4409"/>
</svg>
