<?xml version="1.0" encoding="UTF-8"?>
<svg id="_레이어_1" data-name="레이어 1" xmlns="http://www.w3.org/2000/svg" xmlns:xlink="http://www.w3.org/1999/xlink" viewBox="0 0 630 400">
  <defs>
    <style>
      .cls-1 {
        clip-path: url(#clippath);
      }

      .cls-2, .cls-3 {
        fill: #186ffb;
      }

      .cls-4 {
        font-family: GmarketSansMedium-KSCpc-EUC-H, 'Gmarket Sans';
        font-size: 16px;
        letter-spacing: .02em;
      }

      .cls-4, .cls-5 {
        fill: #fff;
      }

      .cls-6 {
        fill: #03e956;
      }

      .cls-6, .cls-3, .cls-5 {
        stroke-width: 0px;
      }

      .cls-7 {
        fill: none;
        stroke: #03e956;
        stroke-miterlimit: 10;
        stroke-width: .25px;
      }
    </style>
    <clipPath id="clippath">
      <path class="cls-3" d="M594,211c0-19.88,16.12-36,36-36V20c0-11.05-8.95-20-20-20H20C8.95,0,0,8.95,0,20v155c19.88,0,36,16.12,36,36S19.88,247,0,247v133c0,11.05,8.95,20,20,20h590c11.05,0,20-8.95,20-20v-133c-19.88,0-36-16.12-36-36Z"/>
    </clipPath>
  </defs>
  <g>
    <path class="cls-2" d="M594,211c0-19.88,16.12-36,36-36V20c0-11.05-8.95-20-20-20H20C8.95,0,0,8.95,0,20v155c19.88,0,36,16.12,36,36S19.88,247,0,247v133c0,11.05,8.95,20,20,20h590c11.05,0,20-8.95,20-20v-133c-19.88,0-36-16.12-36-36Z"/>
    <g class="cls-1">
      <path class="cls-7" d="M-6.41,75.58c4.61,18.29,20.32,32.2,37.8,39.31,17.48,7.11,36.69,8.43,55.54,9.2,173.52,7.13,349.22-24.6,520.01,6.89,13.32,2.45,28.13,6.38,34.83,18.15,7.3,12.83,1.01,30.02-10.41,39.38-11.42,9.35-26.55,12.62-41.13,14.89-50.09,7.79-101.05,7.22-151.73,6.63-52.53-.61-105.07-1.22-157.6-1.84-99.29-1.16-204.24-.89-289.82,49.47-18.68,10.99-36.74,25.05-45.73,44.77,3.06,1.92,6.12,3.85,9.18,5.77"/>
    </g>
  </g>
  <g>
    <g>
      <path class="cls-6" d="M118.31,323c-25.82,9.07-33.17,16.43-42.25,42.25-9.07-25.82-16.43-33.17-42.25-42.25,25.82-9.07,33.17-16.43,42.25-42.25,9.07,25.82,16.43,33.17,42.25,42.25Z"/>
      <path class="cls-6" d="M211.73,323c0,3.62-9.75,5.66-10.81,8.93s5.55,10.76,3.5,13.58c-2.07,2.85-11.15-1.21-14,.86s-1.75,11.95-5.14,13.05-8.21-7.54-11.84-7.54-8.57,8.6-11.84,7.54-2.32-11-5.14-13.05c-2.85-2.07-11.93,1.99-14-.86s4.6-10.19,3.5-13.58-10.81-5.31-10.81-8.93,9.75-5.66,10.81-8.93-5.55-10.76-3.5-13.58,11.15,1.21,14-.86,1.75-11.95,5.14-13.05,8.21,7.54,11.84,7.54,8.57-8.6,11.84-7.54,2.32,11,5.14,13.05c2.85,2.07,11.93-1.99,14,.86s-4.6,10.19-3.5,13.58,10.81,5.31,10.81,8.93Z"/>
      <path class="cls-6" d="M285.34,305.9c30.1,3.49,30.1,30.72,0,34.21-3.49,30.1-30.72,30.1-34.21,0-30.1-3.49-30.1-30.72,0-34.21,3.49-30.1,30.72-30.1,34.21,0Z"/>
    </g>
    <g>
      <path class="cls-6" d="M406.58,323c-25.82,9.07-33.17,16.43-42.25,42.25-9.07-25.82-16.43-33.17-42.25-42.25,25.82-9.07,33.17-16.43,42.25-42.25,9.07,25.82,16.43,33.17,42.25,42.25Z"/>
      <path class="cls-6" d="M500.01,323c0,3.62-9.75,5.66-10.81,8.93s5.55,10.76,3.5,13.58c-2.07,2.85-11.15-1.21-14,.86s-1.75,11.95-5.14,13.05-8.21-7.54-11.84-7.54-8.57,8.6-11.84,7.54-2.32-11-5.14-13.05c-2.85-2.07-11.93,1.99-14-.86s4.6-10.19,3.5-13.58-10.81-5.31-10.81-8.93,9.75-5.66,10.81-8.93-5.55-10.76-3.5-13.58,11.15,1.21,14-.86,1.75-11.95,5.14-13.05c3.27-1.06,8.21,7.54,11.84,7.54s8.57-8.6,11.84-7.54,2.32,11,5.14,13.05c2.85,2.07,11.93-1.99,14,.86s-4.6,10.19-3.5,13.58,10.81,5.31,10.81,8.93Z"/>
      <path class="cls-6" d="M573.62,305.9c30.1,3.49,30.1,30.72,0,34.21-3.49,30.1-30.72,30.1-34.21,0-30.1-3.49-30.1-30.72,0-34.21,3.49-30.1,30.72-30.1,34.21,0Z"/>
    </g>
  </g>
  <g>
    <path class="cls-5" d="M84.17,116.06l9.38-.8,9.22-.89.77,7.85-3.66,9.91-6.66,3.86-7.41,2.69-10.24.08-7.75-3.36-3.22-6.89-2.18-3.55-.28-5.46-.89-5.31.15-3.96,1.86-7.1,5.59-5.98,9.82-2.12,10.8-.42,7.47,3.06,3.73,6.07,1.15,5.16-9.15,1.6-8.59,2.92-1.19-4.24-1.16-.6-.9.94.09,6.81,2.35,6.44.94.94,2.02-1.46-2.07-6.21Z"/>
    <path class="cls-5" d="M140.74,125.59c-.33,4.36-2.05,7.6-5.16,9.73-3.1,2.13-7.21,3.19-12.31,3.19s-9.25-1.06-12.33-3.19c-3.09-2.12-4.79-5.37-5.13-9.73-.04-.63-.08-1.43-.14-2.41-.06-.98-.08-1.99-.08-3.02s.03-2.03.08-2.88c.05-.85.1-1.61.14-2.27.33-4.32,2.05-7.51,5.15-9.56,3.1-2.05,7.21-3.08,12.31-3.08s9.2,1.04,12.31,3.1c3.1,2.07,4.82,5.25,5.16,9.53.11,1.26.17,2.9.17,4.93,0,1.07,0,2.12-.03,3.13-.02,1.02-.06,1.86-.14,2.52ZM124.77,123.87v-7.37c0-.11-.07-.39-.19-.83-.13-.44-.56-.67-1.3-.67s-1.17.22-1.3.67c-.13.44-.19.72-.19.83v7.37c0,.15.06.44.19.86.13.43.56.64,1.3.64s1.17-.21,1.3-.64c.13-.42.19-.71.19-.86Z"/>
    <path class="cls-5" d="M168.01,102.36c2.77,0,4.95.35,6.54,1.05,1.59.7,2.76,1.67,3.52,2.91.76,1.24,1.25,2.67,1.47,4.3.22,1.63.33,3.36.33,5.21v21.79l-16.24.06v-20.57c0-.11-.06-.39-.19-.83-.13-.44-.56-.67-1.3-.67s-1.17.22-1.3.67c-.13.44-.19.72-.19.83v20.51h-16.41v-22.28c0-1.18,0-2.9.03-5.16.02-2.25-.12-4.56-.42-6.93h14.08c.44,2.33.67,4.73.67,7.21h.5c0-1.44.29-2.77.89-3.99.59-1.22,1.54-2.21,2.85-2.97,1.31-.76,3.04-1.14,5.18-1.14Z"/>
    <path class="cls-5" d="M219.06,110.67l.28,20.57c.04,2.66-.22,5.03-.78,7.1s-1.54,3.8-2.97,5.18c-1.42,1.39-3.43,2.44-6.01,3.16-2.59.72-5.91,1.08-9.98,1.08-.78,0-1.78-.03-3.02-.08-1.24-.06-2.57-.15-3.99-.28-1.42-.13-2.82-.3-4.18-.5-1.37-.2-2.55-.45-3.55-.75l1.22-15.19c2.18.74,4.07,1.2,5.68,1.39,1.61.19,3.11.28,4.52.28,1.81,0,3.45-.23,4.91-.69,1.46-.46,2.36-1.21,2.69-2.25-.33.15-.72.3-1.16.44-.44.15-1.08.28-1.91.39-.83.11-1.97.17-3.41.17-4.84,0-8.47-1.02-10.89-3.05-2.42-2.03-3.63-4.95-3.63-8.76v-3.82c0-3.99.92-7.1,2.77-9.34,1.85-2.24,5.06-3.35,9.64-3.35,2.62,0,4.67.47,6.15,1.41,1.48.94,2.29,2.49,2.44,4.63h.5c0-.85.03-1.71.08-2.58.06-.87.12-1.73.19-2.58h14.91c-.15,1.26-.27,2.5-.36,3.74-.09,1.24-.14,2.47-.14,3.69ZM201.88,121.26v-6.49c0-.15-.06-.43-.19-.86-.13-.42-.56-.64-1.3-.64s-1.17.21-1.3.64c-.13.43-.19.71-.19.86v6.49c0,.11.06.39.19.83.13.44.56.67,1.3.67s1.17-.22,1.3-.67c.13-.44.19-.72.19-.83Z"/>
    <path class="cls-5" d="M247.39,102.36c.44,0,.99.03,1.64.08.65.06,1.32.18,2.02.36l-1.66,17.96-.11.06c-.55-.22-1.22-.43-2-.64-.78-.2-1.72-.3-2.83-.3-.81,0-1.68.11-2.61.33s-1.71.61-2.36,1.16c-.65.55-.97,1.35-.97,2.38v13.91l-15.69-.06v-25.72c0-1.29-.02-2.69-.05-4.19-.04-1.5-.15-2.98-.33-4.46h12.92c.74,1.37,1.23,2.92,1.47,4.66.24,1.74.38,3.36.42,4.88h.44c0-.52.14-1.34.42-2.47.28-1.13.78-2.3,1.5-3.52.72-1.22,1.71-2.26,2.97-3.13,1.26-.87,2.86-1.3,4.82-1.3Z"/>
    <path class="cls-5" d="M286.8,137.62h-14.19c-.15-.7-.27-1.43-.36-2.19-.09-.76-.14-1.67-.14-2.74h-.5c0,.78-.27,1.62-.8,2.52-.54.91-1.4,1.68-2.58,2.33-1.18.65-2.77.97-4.77.97-2.74,0-4.9-.46-6.49-1.39s-2.72-2.11-3.38-3.58c-.67-1.46-1-3.04-1-4.74v-2.66c0-3.55,1.11-6.13,3.33-7.76,2.22-1.63,5.97-2.44,11.25-2.44.74,0,1.49.02,2.25.06.76.04,1.56.09,2.41.17.07-.63-.03-1.09-.3-1.39-.28-.3-.62-.46-1.03-.5-.7-.07-1.38-.14-2.02-.19-.65-.06-1.28-.08-1.91-.08-2.96,0-5.44.35-7.46,1.05-2.01.7-3.59,1.39-4.74,2.05l-1-11.97c3.25-.96,6.29-1.66,9.12-2.11,2.83-.44,5.42-.67,7.79-.67,5.1,0,9.04,1.03,11.83,3.08,2.79,2.05,4.18,5.04,4.18,8.95v16.8c.11,2.18.28,4.32.5,6.43ZM270.73,127.19v-3.49c0-.15-.07-.43-.19-.86-.13-.42-.56-.64-1.3-.64s-1.17.21-1.3.64c-.13.43-.19.71-.19.86v3.49c0,.11.06.39.19.83.13.44.56.67,1.3.67s1.17-.22,1.3-.67c.13-.44.19-.72.19-.83Z"/>
    <path class="cls-5" d="M311.97,124.26l1.16,13.47c-1.33.26-2.62.45-3.88.58-1.26.13-2.46.19-3.6.19-2.62,0-4.95-.4-6.99-1.19-2.03-.79-3.62-2.22-4.77-4.27-1.15-2.05-1.72-4.94-1.72-8.68v-9.15h-2.99v-11.97h3.1l.89-4.49,14.97-1.5v5.99h3.99v11.97h-3.99v5.54c0,1.37.26,2.3.78,2.8.52.5,1.24.75,2.16.75h.42c.17,0,.32-.02.47-.06Z"/>
    <path class="cls-5" d="M351.82,137.62h-14.13c-.26-1.11-.45-2.29-.58-3.55-.13-1.26-.19-2.49-.19-3.71h-.5c0,1.4-.29,2.73-.86,3.96-.57,1.24-1.5,2.24-2.77,2.99-1.28.76-3,1.14-5.18,1.14-2.77,0-4.96-.35-6.57-1.05s-2.79-1.66-3.55-2.88c-.76-1.22-1.25-2.64-1.47-4.27-.22-1.63-.35-3.36-.39-5.21v-21.78h16.24v20.51c0,.11.06.39.19.83.13.44.56.67,1.3.67s1.17-.22,1.3-.67c.13-.44.19-.72.19-.83v-20.51h16.41v22.28c0,.41,0,1.17.03,2.3.02,1.13.05,2.37.08,3.74.04,1.37.09,2.61.17,3.74.07,1.13.17,1.89.28,2.3Z"/>
    <path class="cls-5" d="M373.77,127.69l.89,9.7c-1.15.26-2.5.45-4.07.58-1.57.13-3.06.19-4.46.19-2.29,0-4.3-.38-6.01-1.14-1.72-.76-3.05-2.15-3.99-4.19-.94-2.03-1.41-4.97-1.41-8.81v-30.99h15.96v32.32c0,1.03.29,1.72.86,2.05.57.33,1.32.43,2.25.28Z"/>
    <path class="cls-5" d="M411.02,137.62h-14.19c-.15-.7-.27-1.43-.36-2.19-.09-.76-.14-1.67-.14-2.74h-.5c0,.78-.27,1.62-.8,2.52-.54.91-1.4,1.68-2.58,2.33-1.18.65-2.77.97-4.77.97-2.74,0-4.9-.46-6.49-1.39s-2.72-2.11-3.38-3.58c-.67-1.46-1-3.04-1-4.74v-2.66c0-3.55,1.11-6.13,3.33-7.76,2.22-1.63,5.97-2.44,11.25-2.44.74,0,1.49.02,2.25.06.76.04,1.56.09,2.41.17.07-.63-.03-1.09-.3-1.39-.28-.3-.62-.46-1.03-.5-.7-.07-1.38-.14-2.02-.19-.65-.06-1.29-.08-1.91-.08-2.96,0-5.44.35-7.46,1.05-2.01.7-3.59,1.39-4.74,2.05l-1-11.97c3.25-.96,6.29-1.66,9.12-2.11,2.83-.44,5.42-.67,7.79-.67,5.1,0,9.04,1.03,11.83,3.08,2.79,2.05,4.19,5.04,4.19,8.95v16.8c.11,2.18.28,4.32.5,6.43ZM394.95,127.19v-3.49c0-.15-.07-.43-.19-.86-.13-.42-.56-.64-1.3-.64s-1.17.21-1.3.64c-.13.43-.19.71-.19.86v3.49c0,.11.06.39.19.83.13.44.56.67,1.3.67s1.17-.22,1.3-.67c.13-.44.19-.72.19-.83Z"/>
    <path class="cls-5" d="M436.19,124.26l1.16,13.47c-1.33.26-2.62.45-3.88.58-1.26.13-2.46.19-3.6.19-2.62,0-4.95-.4-6.98-1.19-2.03-.79-3.62-2.22-4.77-4.27-1.15-2.05-1.72-4.94-1.72-8.68v-9.15h-2.99v-11.97h3.1l.89-4.49,14.97-1.5v5.99h3.99v11.97h-3.99v5.54c0,1.37.26,2.3.78,2.8s1.24.75,2.16.75h.42c.17,0,.32-.02.47-.06Z"/>
    <path class="cls-5" d="M440.18,101.75v-8.7h15.96v8.7h-15.96ZM456.15,137.62h-15.96v-34.37h15.96v34.37Z"/>
    <path class="cls-5" d="M494.5,125.59c-.33,4.36-2.05,7.6-5.16,9.73-3.1,2.13-7.21,3.19-12.31,3.19s-9.25-1.06-12.33-3.19c-3.09-2.12-4.79-5.37-5.13-9.73-.04-.63-.08-1.43-.14-2.41-.05-.98-.08-1.99-.08-3.02s.03-2.03.08-2.88c.06-.85.1-1.61.14-2.27.33-4.32,2.05-7.51,5.16-9.56,3.1-2.05,7.21-3.08,12.31-3.08s9.2,1.04,12.31,3.1c3.1,2.07,4.82,5.25,5.16,9.53.11,1.26.17,2.9.17,4.93,0,1.07,0,2.12-.03,3.13-.02,1.02-.06,1.86-.14,2.52ZM478.54,123.87v-7.37c0-.11-.06-.39-.19-.83-.13-.44-.56-.67-1.3-.67s-1.17.22-1.3.67c-.13.44-.19.72-.19.83v7.37c0,.15.06.44.19.86.13.43.56.64,1.3.64s1.17-.21,1.3-.64c.13-.42.19-.71.19-.86Z"/>
    <path class="cls-5" d="M521.78,102.36c2.77,0,4.95.35,6.54,1.05,1.59.7,2.76,1.67,3.52,2.91.76,1.24,1.25,2.67,1.47,4.3.22,1.63.33,3.36.33,5.21v21.79l-16.24.06v-20.57c0-.11-.06-.39-.19-.83-.13-.44-.56-.67-1.3-.67s-1.17.22-1.3.67c-.13.44-.19.72-.19.83v20.51h-16.41v-22.28c0-1.18,0-2.9.03-5.16.02-2.25-.12-4.56-.42-6.93h14.08c.44,2.33.67,4.73.67,7.21h.5c0-1.44.29-2.77.89-3.99.59-1.22,1.54-2.21,2.85-2.97,1.31-.76,3.04-1.14,5.18-1.14Z"/>
    <path class="cls-5" d="M566.62,118.38c-1.63-1-3.37-1.74-5.24-2.22-1.87-.48-4.09-.81-6.68-1-.26,0-.48,0-.67-.03-.18-.02-.37-.03-.55-.03-.67,0-1,.26-1,.78,0,.3.18.49.55.58.37.09.85.19,1.44.3,1.51.15,3.12.36,4.82.64,1.7.28,3.29.77,4.77,1.47,1.48.7,2.68,1.77,3.6,3.19.92,1.42,1.39,3.35,1.39,5.79,0,2.03-.46,3.73-1.39,5.1-.92,1.37-2.19,2.45-3.8,3.24-1.61.79-3.43,1.37-5.46,1.72-2.03.35-4.16.53-6.38.53-2.81,0-5.63-.21-8.45-.64-2.83-.42-5.31-.88-7.46-1.36l1.33-15.47c.7.48,1.56,1.03,2.58,1.64,1.02.61,2.37,1.17,4.07,1.69,1.7.52,3.95.91,6.76,1.16.15.04.29.06.42.06h.42c.67,0,1-.24,1-.72,0-.33-.15-.55-.44-.67-.3-.11-.76-.2-1.39-.28-1.66-.22-3.32-.5-4.96-.83-1.65-.33-3.15-.85-4.52-1.55-1.37-.7-2.47-1.69-3.3-2.97s-1.25-2.93-1.25-4.96c0-2.77.69-4.97,2.08-6.6,1.39-1.63,3.26-2.8,5.63-3.52,2.36-.72,4.99-1.08,7.87-1.08,2.48,0,5.04.19,7.71.58,2.66.39,5.28.9,7.87,1.52l-1.39,13.91Z"/>
    <path class="cls-5" d="M308.18,176.14l-6.79,8.68-6.41,3.04-7.16,1.29-7.05-1.71-6.49-2.59-6.83-8.59v-4.25s-.58-5.68-.58-5.68l1.27-5.43-.47-4.03,6.07-9.97,6.91-2.32,7.17-.11,7.17.21,6.65,2.69,6.32,9.28-.39,4.02,1.15,5.48-1.01,5.74.46,4.24ZM288.92,173.54l.85-7.26-.5-7.26-1.44-.84-1.88.84-.07,7.26.86,7.26,1.08,1.43,1.1-1.43Z"/>
    <path class="cls-5" d="M335.55,152.36c2.77,0,4.95.35,6.54,1.05,1.59.7,2.76,1.67,3.52,2.91.76,1.24,1.25,2.67,1.47,4.3.22,1.63.33,3.36.33,5.21v21.79l-16.24.06v-20.57c0-.11-.06-.39-.19-.83-.13-.44-.56-.67-1.3-.67s-1.17.22-1.3.67c-.13.44-.19.72-.19.83v20.51h-16.41v-22.28c0-1.18,0-2.9.03-5.16.02-2.25-.12-4.56-.42-6.93h14.08c.44,2.33.67,4.73.67,7.21h.5c0-1.44.29-2.77.89-3.99.59-1.22,1.54-2.21,2.85-2.97,1.31-.76,3.04-1.14,5.18-1.14Z"/>
    <path class="cls-5" d="M186.86,213.95l-6.59-2-7.78-2.23-.74-.14-.72-.09-1.27,1.41.84.43,1.59,1.12,4.6.19,4.71.87,4.26,2.02,2.14,4.19,1.2,5.41-1.13,6.49-4.92,4.01-6.82,2.49-8,.91-9.44-1.15-7.9-1.45.1-9.71.33-9.86,3.47,2.64,5.08,1.61,8.08,1.17.52-.41.47-.15,1.11.9.08-1.09-.7-.12-1.44-.87-5.86-1.47-5.42-1.61-3.53-3.7-2.44-5.64,3.33-8.02,6.5-4.22,9.27-1.49,9.11.65,9.08,2.08-.86,8.3-.27,8.52Z"/>
    <path class="cls-5" d="M192.54,201.75v-8.7h15.96v8.7h-15.96ZM208.5,237.62h-15.96v-34.37h15.96v34.37Z"/>
    <path class="cls-5" d="M248.03,210.67l.28,20.57c.04,2.66-.22,5.03-.78,7.1s-1.54,3.8-2.97,5.18c-1.42,1.38-3.43,2.44-6.01,3.16-2.59.72-5.91,1.08-9.98,1.08-.78,0-1.78-.03-3.02-.08-1.24-.06-2.57-.15-3.99-.28-1.42-.13-2.82-.29-4.18-.5-1.37-.2-2.55-.45-3.55-.75l1.22-15.19c2.18.74,4.07,1.2,5.68,1.39,1.61.19,3.11.28,4.52.28,1.81,0,3.45-.23,4.91-.69,1.46-.46,2.36-1.21,2.69-2.25-.33.15-.72.3-1.16.44-.44.15-1.08.28-1.91.39-.83.11-1.97.17-3.41.17-4.84,0-8.47-1.02-10.89-3.05-2.42-2.03-3.63-4.95-3.63-8.76v-3.82c0-3.99.92-7.1,2.77-9.34,1.85-2.24,5.06-3.35,9.64-3.35,2.62,0,4.67.47,6.15,1.41,1.48.94,2.29,2.49,2.44,4.63h.5c0-.85.03-1.71.08-2.58.06-.87.12-1.73.19-2.58h14.91c-.15,1.26-.27,2.5-.36,3.74-.09,1.24-.14,2.47-.14,3.69ZM230.84,221.26v-6.49c0-.15-.06-.43-.19-.86-.13-.42-.56-.64-1.3-.64s-1.17.21-1.3.64c-.13.43-.19.71-.19.86v6.49c0,.11.06.39.19.83.13.44.56.67,1.3.67s1.17-.22,1.3-.67c.13-.44.19-.72.19-.83Z"/>
    <path class="cls-5" d="M275.57,202.36c2.77,0,4.95.35,6.54,1.05,1.59.7,2.76,1.67,3.52,2.91.76,1.24,1.25,2.67,1.47,4.3.22,1.63.33,3.36.33,5.21v21.79l-16.24.06v-20.57c0-.11-.07-.39-.19-.83-.13-.44-.56-.67-1.3-.67s-1.17.22-1.3.67c-.13.44-.19.72-.19.83v20.51h-16.41v-22.28c0-1.18,0-2.9.03-5.16.02-2.25-.12-4.56-.42-6.93h14.08c.44,2.33.67,4.73.67,7.21h.5c0-1.44.3-2.77.89-3.99.59-1.22,1.54-2.21,2.85-2.97,1.31-.76,3.04-1.14,5.18-1.14Z"/>
    <path class="cls-5" d="M290.71,201.75v-8.7h15.96v8.7h-15.96ZM306.67,237.62h-15.96v-34.37h15.96v34.37Z"/>
    <path class="cls-5" d="M334.17,202.36c2.77,0,4.95.35,6.54,1.05,1.59.7,2.76,1.67,3.52,2.91.76,1.24,1.25,2.67,1.47,4.3.22,1.63.33,3.36.33,5.21v21.79l-16.24.06v-20.57c0-.11-.07-.39-.19-.83-.13-.44-.56-.67-1.3-.67s-1.17.22-1.3.67c-.13.44-.19.72-.19.83v20.51h-16.41v-22.28c0-1.18,0-2.9.03-5.16.02-2.25-.12-4.56-.42-6.93h14.08c.44,2.33.67,4.73.67,7.21h.5c0-1.44.3-2.77.89-3.99.59-1.22,1.54-2.21,2.85-2.97,1.31-.76,3.04-1.14,5.18-1.14Z"/>
    <path class="cls-5" d="M385.22,210.67l.28,20.57c.04,2.66-.22,5.03-.78,7.1s-1.54,3.8-2.97,5.18c-1.42,1.38-3.43,2.44-6.01,3.16-2.59.72-5.91,1.08-9.98,1.08-.78,0-1.78-.03-3.02-.08-1.24-.06-2.57-.15-3.99-.28-1.42-.13-2.82-.29-4.19-.5s-2.55-.45-3.55-.75l1.22-15.19c2.18.74,4.07,1.2,5.68,1.39,1.61.19,3.11.28,4.52.28,1.81,0,3.45-.23,4.91-.69,1.46-.46,2.36-1.21,2.69-2.25-.33.15-.72.3-1.16.44-.44.15-1.08.28-1.91.39-.83.11-1.97.17-3.41.17-4.84,0-8.47-1.02-10.89-3.05-2.42-2.03-3.63-4.95-3.63-8.76v-3.82c0-3.99.92-7.1,2.77-9.34,1.85-2.24,5.06-3.35,9.65-3.35,2.62,0,4.67.47,6.15,1.41,1.48.94,2.29,2.49,2.44,4.63h.5c0-.85.03-1.71.08-2.58.06-.87.12-1.73.19-2.58h14.91c-.15,1.26-.27,2.5-.36,3.74-.09,1.24-.14,2.47-.14,3.69ZM368.04,221.26v-6.49c0-.15-.07-.43-.19-.86-.13-.42-.56-.64-1.3-.64s-1.17.21-1.3.64c-.13.43-.19.71-.19.86v6.49c0,.11.06.39.19.83.13.44.56.67,1.3.67s1.17-.22,1.3-.67c.13-.44.19-.72.19-.83Z"/>
    <path class="cls-5" d="M440.32,237.62h-14.13c-.26-1.11-.45-2.29-.58-3.55-.13-1.26-.19-2.49-.19-3.71h-.5c0,1.4-.29,2.73-.86,3.96-.57,1.24-1.5,2.24-2.77,2.99-1.27.76-3,1.14-5.18,1.14-2.77,0-4.96-.35-6.57-1.05-1.61-.7-2.79-1.66-3.55-2.88-.76-1.22-1.25-2.64-1.47-4.27-.22-1.63-.35-3.36-.39-5.21v-21.78h16.24v20.51c0,.11.06.39.19.83.13.44.56.67,1.3.67s1.17-.22,1.3-.67c.13-.44.19-.72.19-.83v-20.51h16.41v22.28c0,.41,0,1.17.03,2.3.02,1.13.05,2.37.08,3.74.04,1.37.09,2.61.17,3.74.07,1.13.17,1.89.28,2.3Z"/>
    <path class="cls-5" d="M442.98,203.25h15.47c.15,1.07.23,2.31.25,3.71.02,1.4.03,2.64.03,3.71h.5c.33-2.59,1.28-4.62,2.86-6.1,1.57-1.48,3.72-2.22,6.46-2.22,2.47,0,4.46.44,5.96,1.3,1.5.87,2.63,2.1,3.41,3.69.78,1.59,1.3,3.46,1.58,5.63.28,2.16.42,4.54.42,7.12,0,2.4-.17,4.7-.5,6.9-.33,2.2-.98,4.16-1.94,5.88s-2.37,3.08-4.24,4.07c-1.87,1-4.35,1.5-7.46,1.5-1.52,0-2.77-.2-3.77-.61-1-.41-1.72-.79-2.16-1.16v9.48h-16.46l.06-36.31c0-1.11-.04-2.22-.11-3.33-.07-1.11-.18-2.2-.33-3.27ZM463.65,224.26v-7.48c0-.15-.06-.43-.19-.86-.13-.42-.56-.64-1.3-.64s-1.17.21-1.3.64c-.13.43-.19.71-.19.86v7.48c0,.11.06.39.19.83.13.44.56.67,1.3.67s1.17-.22,1.3-.67c.13-.44.19-.72.19-.83Z"/>
  </g>
  <text class="cls-4" transform="translate(174.67 68.06)"><tspan x="0" y="0">웨이런미닝과 함께 달릴 준비 되셨나요?</tspan></text>
</svg>