<svg width="97" height="66" viewBox="0 0 97 66" fill="none" xmlns="http://www.w3.org/2000/svg">
<path d="M48.5 2.52667C48.5 -8.65448 -11.0054 20.7402 6.28666 23.3803C-11.0054 20.7402 11.7231 68.3031 22.4102 57.1219C11.7231 68.3031 85.2769 68.3031 74.5898 57.1219C85.2769 68.3031 108.005 20.7426 90.7133 23.3803C108.005 20.7402 48.5 -8.65448 48.5 2.52667Z" fill="#FF4409"/>
<path d="M53.9991 19.6279H39.0213C39.0213 19.6279 39.0137 19.6327 39.0137 19.6375V45.886H45.8083C47.2936 45.886 48.4981 44.3702 48.4981 42.5011V38.7486C48.4981 42.6921 51.038 45.8884 54.1717 45.8884H57.9825V32.7593H53.9991C56.1995 32.7593 57.9825 30.5155 57.9825 27.7464V24.6432C57.9825 21.8742 56.1995 19.6303 53.9991 19.6303V19.6279ZM48.8775 33.9959C48.8775 34.1272 48.7921 34.2346 48.6878 34.2346H48.3084C48.2041 34.2346 48.1187 34.1272 48.1187 33.9959V25.641C48.1187 25.5097 48.2041 25.4023 48.3084 25.4023H48.6878C48.7921 25.4023 48.8775 25.5097 48.8775 25.641V33.9959Z" fill="white"/>
<path d="M31.7433 21.2987V35.139C31.7433 35.2703 31.6579 35.3777 31.5536 35.3777H31.1742C31.0699 35.3777 30.9845 35.2703 30.9845 35.139V22.201C30.9845 20.8833 30.2011 19.7303 29.1578 19.6348C29.1066 19.6301 29.0554 19.6277 29.0042 19.6277H27.4013C27.3501 19.6277 27.2989 19.6277 27.2476 19.6348C26.2044 19.7303 25.4209 20.8833 25.4209 22.201V35.139C25.4209 35.2703 25.3356 35.3777 25.2313 35.3777H24.8519C24.7476 35.3777 24.6622 35.2703 24.6622 35.139V21.165C24.6622 20.3152 24.1159 19.6277 23.4406 19.6277H18.7192V38.0083C18.7192 38.0513 18.723 38.0919 18.7249 38.1348C18.7249 38.1778 18.7192 38.2184 18.7192 38.2614V45.8881H24.2202C25.5936 45.8881 26.8 45.0121 27.5151 43.6801C27.7295 43.279 27.849 42.8064 27.8869 42.3266V42.3051C27.9628 41.503 28.0481 40.6246 28.1544 39.8297H28.2492C28.3573 40.6222 28.4427 41.503 28.5167 42.3051V42.3099C28.5527 42.7968 28.6722 43.2743 28.8903 43.6777C29.6055 45.0097 30.8119 45.8857 32.1852 45.8857H37.6862V38.259C37.6862 38.1945 37.6805 38.1301 37.6786 38.068C37.6805 38.0035 37.6862 37.9415 37.6862 37.877V19.6301H33.0711C32.337 19.6301 31.7433 20.3772 31.7433 21.301V21.2987Z" fill="white"/>
<path d="M78.2794 19.6278H72.7785C71.5606 19.6278 70.4737 20.3176 69.7453 21.4014C69.3792 21.9456 69.1649 22.626 69.1099 23.3373C69.034 24.1394 68.9486 25.0178 68.8424 25.8127H68.7476C68.6394 25.0202 68.5541 24.1394 68.4801 23.3373V23.3302C68.4289 22.6307 68.2164 21.96 67.8579 21.4205C67.1295 20.3248 66.0369 19.6278 64.8115 19.6278H59.3105V27.2545C59.3105 27.319 59.3162 27.3834 59.3181 27.4455C59.3162 27.51 59.3105 27.572 59.3105 27.6365V45.8834H63.9257C64.6598 45.8834 65.2535 45.1363 65.2535 44.2125V30.5344C65.2535 30.4031 65.3389 30.2957 65.4432 30.2957H65.8226C65.9269 30.2957 66.0123 30.4031 66.0123 30.5344V43.2696C66.0123 44.7114 66.9417 45.881 68.0875 45.881H69.5006C70.6464 45.881 71.5758 44.7114 71.5758 43.2696V30.5344C71.5758 30.4031 71.6612 30.2957 71.7655 30.2957H72.1449C72.2492 30.2957 72.3346 30.4031 72.3346 30.5344V44.3438C72.3346 45.1936 72.8809 45.881 73.5562 45.881H78.2775V27.5004C78.2775 27.4574 78.2737 27.4169 78.2718 27.3739C78.2718 27.3309 78.2775 27.2903 78.2775 27.2474V19.6206V19.6278H78.2794Z" fill="white"/>
</svg>
