<svg width="24" height="24" viewBox="0 0 24 24" fill="none" xmlns="http://www.w3.org/2000/svg">
<path d="M9.51506 6.04201C8.87665 6.07211 8.4407 6.17401 8.05955 6.32371C7.66515 6.47746 7.3308 6.68371 6.99815 7.01756C6.66554 7.3514 6.46064 7.68595 6.30804 8.08105C6.16034 8.46295 6.06024 8.8993 6.03204 9.53805C6.00384 10.1768 5.99759 10.3821 6.00074 12.0115C6.00384 13.6408 6.01104 13.8451 6.04199 14.4852C6.07249 15.1234 6.17399 15.5593 6.32374 15.9405C6.47774 16.335 6.68374 16.6692 7.01775 17.0019C7.3517 17.3347 7.686 17.5391 8.082 17.6919C8.4636 17.8394 8.90005 17.94 9.53871 17.9679C10.1774 17.9959 10.3829 18.0024 12.0118 17.9993C13.6407 17.9962 13.8458 17.9889 14.4857 17.9586C15.1257 17.9282 15.5592 17.826 15.9406 17.6769C16.3351 17.5226 16.6695 17.3169 17.002 16.9829C17.3345 16.6488 17.5393 16.314 17.6918 15.9187C17.8396 15.5371 17.9401 15.1007 17.9678 14.4625C17.9958 13.822 18.0024 13.6176 17.9993 11.9885C17.9961 10.3593 17.9888 10.1551 17.9584 9.51525C17.9281 8.8754 17.8264 8.4409 17.6768 8.0594C17.5226 7.66495 17.3168 7.331 16.983 6.99801C16.6491 6.66501 16.314 6.46041 15.9189 6.30826C15.537 6.16051 15.1009 6.05986 14.4622 6.03226C13.8236 6.00466 13.618 5.99751 11.9885 6.00071C10.359 6.00381 10.155 6.01081 9.51506 6.04201ZM9.58516 16.8885C9.00016 16.8631 8.6825 16.7659 8.4708 16.6845C8.1905 16.5765 7.9908 16.446 7.77985 16.237C7.56885 16.0281 7.4393 15.8277 7.32985 15.548C7.24765 15.3363 7.14865 15.019 7.1213 14.434C7.09155 13.8018 7.0853 13.6119 7.0818 12.01C7.0783 10.4082 7.08445 10.2185 7.11215 9.58605C7.13715 9.00155 7.23495 8.68355 7.31615 8.47195C7.42415 8.1913 7.55425 7.99195 7.76365 7.78115C7.97305 7.5703 8.17285 7.44045 8.4528 7.331C8.6643 7.24845 8.98155 7.15031 9.56631 7.12246C10.1991 7.09246 10.3887 7.08646 11.9903 7.08296C13.592 7.07946 13.7821 7.08546 14.4151 7.11336C14.9996 7.13876 15.3177 7.2356 15.5291 7.31735C15.8095 7.42535 16.0091 7.55505 16.2199 7.76485C16.4307 7.97455 16.5607 8.17365 16.6701 8.4542C16.7528 8.66505 16.851 8.9822 16.8786 9.56735C16.9087 10.2001 16.9155 10.3898 16.9184 11.9913C16.9213 13.5928 16.9156 13.783 16.8879 14.4153C16.8624 15.0003 16.7654 15.3181 16.6839 15.53C16.5759 15.8102 16.4457 16.01 16.2362 16.2207C16.0267 16.4315 15.8271 16.5613 15.547 16.6707C15.3358 16.7532 15.0182 16.8516 14.4339 16.8794C13.8011 16.9092 13.6115 16.9154 12.0093 16.9189C10.407 16.9224 10.2179 16.9159 9.58516 16.8885ZM14.4765 8.7932C14.4768 8.93561 14.5192 9.07476 14.5986 9.19304C14.6779 9.31132 14.7905 9.40341 14.9222 9.45768C15.0539 9.51194 15.1987 9.52594 15.3383 9.4979C15.4779 9.46987 15.6061 9.40105 15.7066 9.30016C15.8071 9.19927 15.8755 9.07083 15.903 8.9311C15.9305 8.79137 15.9159 8.64662 15.8612 8.51515C15.8064 8.38369 15.7139 8.27141 15.5953 8.19253C15.4768 8.11365 15.3375 8.07171 15.195 8.072C15.0041 8.0724 14.8212 8.1486 14.6865 8.28384C14.5517 8.41908 14.4762 8.6023 14.4765 8.7932ZM8.91925 12.006C8.9226 13.7076 10.3046 15.0838 12.0058 15.0806C13.7071 15.0774 15.0843 13.6956 15.0811 11.994C15.0778 10.2924 13.6956 8.91575 11.9941 8.9191C10.2926 8.92245 8.91605 10.3046 8.91925 12.006ZM10 12.0038C9.99923 11.6083 10.1158 11.2214 10.3349 10.892C10.554 10.5627 10.8658 10.3058 11.231 10.1537C11.5961 10.0016 11.9982 9.96116 12.3863 10.0376C12.7744 10.114 13.1312 10.3037 13.4114 10.5829C13.6917 10.862 13.8829 11.218 13.9608 11.6058C14.0388 11.9936 14 12.3958 13.8493 12.7616C13.6987 13.1273 13.4429 13.4402 13.1145 13.6606C12.786 13.881 12.3996 13.9991 12.004 13.9999C11.7414 14.0004 11.4812 13.9492 11.2383 13.8492C10.9954 13.7492 10.7746 13.6023 10.5886 13.417C10.4025 13.2316 10.2547 13.0114 10.1537 12.7689C10.0527 12.5265 10.0005 12.2665 10 12.0038Z" fill="#fff"/>
</svg>
