<svg width="319" height="122" viewBox="0 0 319 122" fill="none" xmlns="http://www.w3.org/2000/svg">
<path d="M182.21 1.8584H132.21V34.7207H182.21V1.8584Z" fill="#FF4409"/>
<path d="M109.53 1.85834H145.31C153.14 1.85834 159.49 8.64855 159.49 16.9976V104.15C159.49 112.51 153.13 119.29 145.31 119.29H109.49V1.89027C109.49 1.89027 109.51 1.84766 109.53 1.84766V1.85834Z" fill="#FF4409"/>
<path d="M181.08 1.8584H188.49C200.08 1.8584 209.49 11.905 209.49 24.2791V38.1586C209.49 50.5327 200.08 60.5794 188.49 60.5794H181.08C169.16 60.5794 159.49 50.2551 159.49 37.5286V24.909C159.49 12.1826 169.16 1.8584 181.08 1.8584Z" fill="#FF4409"/>
<path d="M159.49 60.5791H209.49V119.3H189.4C172.89 119.3 159.49 104.993 159.49 87.3665V60.5791Z" fill="#FF4409"/>
<path d="M173.68 28.8799H173.67C165.839 28.8799 159.49 35.6581 159.49 44.0193V72.4616C159.49 80.8228 165.839 87.6008 173.67 87.6008H173.68C181.512 87.6008 187.86 80.8228 187.86 72.4616V44.0193C187.86 35.6581 181.512 28.8799 173.68 28.8799Z" fill="#FF4409"/>
<path d="M161.49 27.6943H157.49V67.1975H161.49V27.6943Z" fill="#FAF1E7"/>
<path d="M14.1997 70.0488H35.8297C43.6597 70.0488 50.0098 76.839 50.0098 85.1881V96.879C50.0098 109.253 40.5998 119.3 29.0098 119.3H0.00976562V85.1881C0.00976562 76.8284 6.3697 70.0488 14.1897 70.0488H14.1997Z" fill="#FF4409"/>
<path d="M64.1997 70.0488H85.8297C93.6597 70.0488 100.01 76.839 100.01 85.1881V119.3H71.0098C59.4198 119.3 50.0098 109.253 50.0098 96.879V85.1881C50.0098 76.8284 56.3697 70.0488 64.1897 70.0488H64.1997Z" fill="#FF4409"/>
<path d="M0.0100098 1.8584H25.4C28.96 1.8584 31.84 4.94386 31.84 8.73403V84.0677C31.84 92.7157 25.27 99.7301 17.17 99.7301H14.67C6.57004 99.7301 0 92.7157 0 84.0677V1.8584H0.0100098Z" fill="#FF4409"/>
<path d="M34.8501 16.8477H65.1801V90.9536C65.1801 95.8007 61.4901 99.7296 56.9601 99.7296H43.0801C38.5401 99.7296 34.8601 95.79 34.8601 90.9536V16.8477H34.8501Z" fill="#FF4409"/>
<path d="M54.2401 1.8584H45.7902C39.7482 1.8584 34.8501 7.08771 34.8501 13.5385V35.9058C34.8501 42.3565 39.7482 47.586 45.7902 47.586H54.2401C60.2821 47.586 65.1801 42.3565 65.1801 35.9058V13.5385C65.1801 7.08771 60.2821 1.8584 54.2401 1.8584Z" fill="#FF4409"/>
<path d="M75.1799 1.8584H100.01V83.4698C100.01 92.4381 93.19 99.7195 84.79 99.7195H83.41C75.01 99.7195 68.1899 92.4381 68.1899 83.4698V9.33198C68.1899 5.21083 71.3299 1.8584 75.1899 1.8584H75.1799Z" fill="#FF4409"/>
<path d="M31.3501 1.8584H35.3501V68.9818C35.3501 69.569 34.9001 70.0494 34.3501 70.0494H32.3501C31.8001 70.0494 31.3501 69.569 31.3501 68.9818V1.8584Z" fill="#FAF1E7"/>
<path d="M64.6797 1.8584H68.6797V68.9818C68.6797 69.569 68.2297 70.0494 67.6797 70.0494H65.6797C65.1297 70.0494 64.6797 69.569 64.6797 68.9818V1.8584Z" fill="#FAF1E7"/>
<path d="M50.2599 92.2129C50.8199 95.7575 51.28 99.6971 51.67 103.284C51.86 105.473 52.1299 108.527 52.4799 110.662C52.8799 114.548 52.1499 118.114 50.2599 121.733H49.7599C48.3799 119.278 47.8399 116.812 47.5099 114.356C47.1499 111.879 47.7999 109.423 48.0099 106.978L48.3499 103.284C48.7499 99.6971 49.1999 95.7682 49.7599 92.2129H50.2599Z" fill="#FAF1E7"/>
<path d="M304.79 51.1191L283.16 51.1191C275.33 51.1191 268.98 44.3289 268.98 35.9799V24.289C268.98 11.9149 278.39 1.86826 289.98 1.86826L318.98 1.86826V35.9799C318.98 44.3396 312.62 51.1191 304.8 51.1191H304.79Z" fill="#FF4409"/>
<path d="M254.79 51.1191L233.16 51.1191C225.33 51.1191 218.98 44.3289 218.98 35.9799V1.86826L247.98 1.86826C259.57 1.86826 268.98 11.9149 268.98 24.289V35.9799C268.98 44.3396 262.62 51.1191 254.8 51.1191H254.79Z" fill="#FF4409"/>
<path d="M318.97 119.311H293.58C290.02 119.311 287.14 116.225 287.14 112.435V37.1012C287.14 28.4532 293.71 21.4387 301.81 21.4387H304.31C312.41 21.4387 318.98 28.4532 318.98 37.1012V119.311H318.97Z" fill="#FF4409"/>
<path d="M284.14 104.32H253.81V30.2144C253.81 25.3673 257.5 21.4383 262.03 21.4383H275.91C280.45 21.4383 284.13 25.3779 284.13 30.2144V104.32H284.14Z" fill="#FF4409"/>
<path d="M264.75 119.3H273.2C279.242 119.3 284.14 114.07 284.14 107.62V85.2523C284.14 78.8015 279.242 73.5721 273.2 73.5721H264.75C258.708 73.5721 253.81 78.8015 253.81 85.2523V107.62C253.81 114.07 258.708 119.3 264.75 119.3Z" fill="#FF4409"/>
<path d="M243.8 119.311H218.97V37.6991C218.97 28.7309 225.79 21.4494 234.19 21.4494H235.57C243.97 21.4494 250.79 28.7309 250.79 37.6991V111.837C250.79 115.958 247.65 119.311 243.79 119.311H243.8Z" fill="#FF4409"/>
<path d="M283.63 119.311H287.63V51.1195H283.63V119.311Z" fill="#FAF1E7"/>
<path d="M250.31 119.311H254.31V51.1195H250.31V119.311Z" fill="#FAF1E7"/>
<path d="M268.72 29.5205C268.15 25.9759 267.7 22.0363 267.31 18.449C267.12 16.2603 266.85 13.2069 266.5 11.0716C266.1 7.18531 266.83 3.61935 268.72 0H269.22C270.6 2.4556 271.14 4.92179 271.47 7.37739C271.83 9.85435 271.18 12.31 270.97 14.7549L270.63 18.449C270.23 22.0363 269.78 25.9652 269.22 29.5205H268.72Z" fill="#FAF1E7"/>
</svg>
