<svg width="1242" height="669" viewBox="0 0 1242 669" fill="none" xmlns="http://www.w3.org/2000/svg">
<g clip-path="url(#clip0_363_368)">
<path d="M163.21 303.1L142.41 117.5H138.01L115.61 303.1H26.8098L0.00976562 0.300018H63.6097L77.2097 206.3H81.6097L109.21 0.300018H172.41L200.41 206.3H204.81L218.01 0.300018H278.01L252.01 303.1H163.21Z" fill="#FF4409"/>
<path d="M376.01 303.1L370.81 233.1H340.41L335.61 303.1H272.41L304.81 0.300018H410.41L440.81 303.1H376.01ZM357.61 63.5H353.21L343.21 171.9H368.01L357.61 63.5Z" fill="#FF4409"/>
<path d="M487.21 303.1V192.7L432.01 2.30002V0.300018H496.81C514.01 75.9 516.01 85.5 518.41 98.3H522.41C524.81 85.5 526.81 75.9 544.81 0.300018H607.61V2.30002L554.81 191.9V303.1H487.21Z" fill="#FF4409"/>
<path d="M801.2 303.1C798 293.1 796.8 287.1 788.8 217.1C786 189.1 782.4 185.1 774.4 185.1H764.8V303.1H702V0.300018H793.6C848 0.300018 862 23.5 862 81.9C862 144.3 853.2 148.7 836 158.7V161.1C839.2 163.9 842.8 166.3 845.6 173.5C850 183.1 854.4 201.1 858.8 236.3C864.8 285.5 865.2 292.3 868 301.1V303.1H801.2ZM782.41 128.7C794.01 128.7 798.41 120.7 798.41 92.7C798.41 68.7 793.21 62.7 780.81 62.7H764.81V128.7H782.41Z" fill="#FF4409"/>
<path d="M981.21 0.300018H1043.61V209.9C1042.41 259.9 1037.61 272.7 1029.21 286.3C1018.81 303.1 1000.81 308.3 962.41 308.3C924.01 308.3 905.61 303.1 895.21 286.3C886.41 272.7 880.41 259.9 880.41 209.9V0.300018H944.81V209.9C944.81 238.3 947.61 240.7 963.21 240.7C978.81 240.7 981.21 238.3 981.21 209.9V0.300018Z" fill="#FF4409"/>
<path d="M1198.8 303.1L1127.2 140.7H1124.8V303.1H1067.6V0.300018H1129.2L1171.6 105.5H1174V0.300018H1231.6V303.1H1198.8Z" fill="#FF4409"/>
<path d="M189.21 663.1V481.5H186.81L140.81 663.1H113.21L66.81 481.5H64.41V663.1H7.20996V360.31H96.01L124.01 491.91H126.81L158.01 360.31H246.41L246.81 663.1H189.21Z" fill="#FF4409"/>
<path d="M273.21 663.1V360.31H407.21V424.31H336.01V477.51H406.01V538.71H336.01V595.91H406.81V663.11H273.21V663.1Z" fill="#FF4409"/>
<path d="M527.21 663.1L522.01 593.1H491.61L486.81 663.1H423.61L456.01 360.31H561.61L592.01 663.1H527.21ZM508.81 423.5H504.41L494.41 531.9H519.21L508.81 423.5Z" fill="#FF4409"/>
<path d="M741.2 663.1L669.6 500.7H667.2V663.1H610V360.31H671.6L714 465.51H716.4V360.31H774V663.1H741.2Z" fill="#FF4409"/>
<path d="M801.2 663.1V360.31H865.6V663.1H801.2Z" fill="#FF4409"/>
<path d="M1024.39 663.1L952.79 500.7H950.39V663.1H893.189V360.31H954.79L997.189 465.51H999.589V360.31H1057.19V663.1H1024.39Z" fill="#FF4409"/>
<path d="M1184.39 545.9H1155.19V485.1H1240.79C1241.19 495.5 1241.59 516.7 1241.59 544.7C1241.59 611.1 1236.79 627.5 1227.59 643.5C1217.19 662.3 1199.19 668.3 1160.79 668.3C1122.39 668.3 1103.99 662.3 1093.59 643.5C1083.19 625.1 1078.79 606.7 1078.79 509.1C1078.79 411.5 1083.19 397.5 1093.59 379.1C1103.99 361.1 1122.79 355.1 1160.79 355.1C1204.79 355.1 1225.59 365.5 1234.39 392.7C1237.99 404.3 1239.59 419.1 1239.59 437.1C1239.59 444.7 1239.59 447.5 1239.19 452.7H1180.79C1181.19 451.1 1181.19 449.1 1181.19 447.5C1181.19 434.3 1179.99 428.7 1178.79 424.7C1177.59 419.5 1171.99 417.1 1160.39 417.1C1149.59 417.1 1145.19 419.5 1143.19 424.7C1140.79 432.7 1139.59 442.7 1139.59 508.3C1139.59 577.5 1140.39 585.5 1142.79 592.7C1145.19 599.1 1151.59 601.5 1161.99 601.5C1172.39 601.5 1176.79 599.1 1179.99 593.9C1183.59 588.3 1184.39 584.3 1184.39 560.3V545.9Z" fill="#FF4409"/>
</g>
<defs>
<clipPath id="clip0_363_368">
<rect width="1242" height="669" fill="white"/>
</clipPath>
</defs>
</svg>
