<?xml version="1.0" encoding="UTF-8"?>
<svg id="_레이어_1" data-name="레이어 1" xmlns="http://www.w3.org/2000/svg" version="1.1" viewBox="0 0 1920 1080">
  <defs>
    <style>
      .cls-1 {
        fill: #ff4409;
        stroke-width: 0px;
      }
    </style>
  </defs>
  <path class="cls-1" d="M501.21,488.1l-20.8-185.6h-4.4l-22.4,185.6h-88.8l-26.8-302.8h63.6l13.6,206h4.4l27.6-206h63.2l28,206h4.4l13.2-206h60l-26,302.8h-88.8Z"/>
  <path class="cls-1" d="M714.01,488.1l-5.2-70h-30.4l-4.8,70h-63.2l32.4-302.8h105.6l30.4,302.8h-64.8ZM695.61,248.5h-4.4l-10,108.4h24.8l-10.4-108.4Z"/>
  <path class="cls-1" d="M825.21,488.1v-110.4l-55.2-190.4v-2h64.8c17.2,75.6,19.2,85.2,21.6,98h4c2.4-12.8,4.4-22.4,22.4-98h62.8v2l-52.8,189.6v111.2h-67.6Z"/>
  <path class="cls-1" d="M1139.2,488.1c-3.2-10-4.4-16-12.4-86-2.8-28-6.4-32-14.4-32h-9.6v118h-62.8V185.3h91.6c54.4,0,68.4,23.2,68.4,81.6,0,62.4-8.8,66.8-26,76.8v2.4c3.2,2.8,6.8,5.2,9.6,12.4,4.4,9.6,8.8,27.6,13.2,62.8,6,49.2,6.4,56,9.2,64.8v2h-66.8ZM1120.41,313.7c11.6,0,16-8,16-36,0-24-5.2-30-17.6-30h-16v66h17.6Z"/>
  <path class="cls-1" d="M1319.21,185.3h62.4v209.6c-1.2,50-6,62.8-14.4,76.4-10.4,16.8-28.4,22-66.8,22s-56.8-5.2-67.2-22c-8.8-13.6-14.8-26.4-14.8-76.4v-209.6h64.4v209.6c0,28.4,2.8,30.8,18.4,30.8s18-2.4,18-30.8v-209.6Z"/>
  <path class="cls-1" d="M1536.8,488.1l-71.6-162.4h-2.4v162.4h-57.2V185.3h61.6l42.4,105.2h2.4v-105.2h57.6v302.8h-32.8Z"/>
  <path class="cls-1" d="M527.21,848.1v-181.6h-2.4l-46,181.6h-27.6l-46.4-181.6h-2.4v181.6h-57.2v-302.79h88.8l28,131.6h2.8l31.2-131.6h88.4l.4,302.79h-57.6Z"/>
  <path class="cls-1" d="M611.21,848.1v-302.79h134v64h-71.2v53.2h70v61.2h-70v57.2h70.8v67.2h-133.6Z"/>
  <path class="cls-1" d="M865.21,848.1l-5.2-70h-30.4l-4.8,70h-63.2l32.4-302.79h105.6l30.4,302.79h-64.8ZM846.81,608.5h-4.4l-10,108.4h24.8l-10.4-108.4Z"/>
  <path class="cls-1" d="M1079.2,848.1l-71.6-162.4h-2.4v162.4h-57.2v-302.79h61.6l42.4,105.2h2.4v-105.2h57.6v302.79h-32.8Z"/>
  <path class="cls-1" d="M1139.2,848.1v-302.79h64.4v302.79h-64.4Z"/>
  <path class="cls-1" d="M1362.39,848.1l-71.6-162.4h-2.4v162.4h-57.2v-302.79h61.6l42.4,105.2h2.4v-105.2h57.6v302.79h-32.8Z"/>
  <path class="cls-1" d="M1522.39,730.9h-29.2v-60.8h85.6c.4,10.4.8,31.6.8,59.6,0,66.4-4.8,82.8-14,98.8-10.4,18.8-28.4,24.8-66.8,24.8s-56.8-6-67.2-24.8c-10.4-18.4-14.8-36.8-14.8-134.4s4.4-111.6,14.8-130c10.4-18,29.2-24,67.2-24,44,0,64.8,10.4,73.6,37.6,3.6,11.6,5.2,26.4,5.2,44.4,0,7.6,0,10.4-.4,15.6h-58.4c.4-1.6.4-3.6.4-5.2,0-13.2-1.2-18.8-2.4-22.8-1.2-5.2-6.8-7.6-18.4-7.6-10.8,0-15.2,2.4-17.2,7.6-2.4,8-3.6,18-3.6,83.6,0,69.2.8,77.2,3.2,84.4,2.4,6.4,8.8,8.8,19.2,8.8s14.8-2.4,18-7.6c3.6-5.6,4.4-9.6,4.4-33.6v-14.4Z"/>
</svg>