<svg width="22" height="21" viewBox="0 0 22 21" fill="none" xmlns="http://www.w3.org/2000/svg">
<path d="M11.1576 17.4569L11.0482 17.5689L10.9279 17.4569C5.73195 12.6297 2.29715 9.43773 2.29715 6.20096C2.29715 3.96098 3.93798 2.281 6.12575 2.281C7.81034 2.281 9.45117 3.40099 10.0309 4.92417H12.0656C12.6453 3.40099 14.2861 2.281 15.9707 2.281C18.1585 2.281 19.7993 3.96098 19.7993 6.20096C19.7993 9.43773 16.3645 12.6297 11.1576 17.4569ZM15.9707 0.0410156C14.0674 0.0410156 12.2406 0.948207 11.0482 2.37059C9.85591 0.948207 8.02912 0.0410156 6.12575 0.0410156C2.75658 0.0410156 0.109375 2.74019 0.109375 6.20096C0.109375 10.4233 3.82859 13.8841 9.46211 19.1144L11.0482 20.5928L12.6344 19.1144C18.2679 13.8841 21.9871 10.4233 21.9871 6.20096C21.9871 2.74019 19.3399 0.0410156 15.9707 0.0410156Z" fill="#FF4409"/>
</svg>
