<svg width="16" height="12" viewBox="0 0 16 12" fill="none" xmlns="http://www.w3.org/2000/svg">
<path d="M13.5447 0.994763C12.5073 0.526239 11.4126 0.192137 10.2879 0.000824563C10.2777 -0.0010509 10.2671 0.000291632 10.2578 0.00466099C10.2484 0.00903035 10.2406 0.016204 10.2356 0.0251614C10.0949 0.27135 9.93912 0.592451 9.83006 0.844806C8.60026 0.663625 7.37673 0.663625 6.17219 0.844806C6.06313 0.58681 5.90166 0.27135 5.7604 0.0251614C5.75516 0.0164081 5.74737 0.00940998 5.73803 0.00508029C5.7287 0.000750603 5.71825 -0.000709512 5.70806 0.00089025C4.58325 0.191758 3.48846 0.525831 2.45127 0.994697C2.44239 0.998428 2.43492 1.00478 2.42987 1.01287C0.355602 4.06212 -0.212664 7.03639 0.0661359 9.97379C0.0669242 9.98098 0.0691713 9.98795 0.0727442 9.99427C0.076317 10.0006 0.0811429 10.0061 0.0869359 10.0106C1.45547 10.9995 2.78113 11.5999 4.0822 11.9978C4.09231 12.0008 4.10311 12.0006 4.11314 11.9974C4.12318 11.9942 4.13196 11.988 4.13833 11.9797C4.44606 11.5662 4.7204 11.1301 4.95566 10.6716C4.9589 10.6653 4.96074 10.6584 4.96108 10.6514C4.96142 10.6443 4.96023 10.6373 4.95762 10.6308C4.955 10.6242 4.951 10.6183 4.94588 10.6134C4.94076 10.6084 4.93464 10.6046 4.92793 10.6022C4.49273 10.4398 4.0784 10.2418 3.6798 10.0169C3.67253 10.0127 3.66642 10.0068 3.66202 9.99972C3.65762 9.99264 3.65505 9.98461 3.65455 9.97633C3.65405 9.96805 3.65563 9.95978 3.65915 9.95224C3.66267 9.94471 3.66802 9.93814 3.67473 9.93312C3.7586 9.87126 3.84253 9.80697 3.9226 9.74197C3.92971 9.73619 3.93833 9.73249 3.94747 9.73127C3.95661 9.73006 3.96591 9.73137 3.97433 9.73508C6.59286 10.9114 9.42766 10.9114 12.0153 9.73508C12.0237 9.73113 12.0331 9.72963 12.0423 9.73073C12.0516 9.73183 12.0604 9.7355 12.0676 9.74131C12.1477 9.80625 12.2316 9.87126 12.3161 9.93312C12.3228 9.93809 12.3282 9.94461 12.3318 9.95211C12.3354 9.95961 12.337 9.96786 12.3366 9.97612C12.3361 9.98439 12.3336 9.99243 12.3293 9.99952C12.325 10.0066 12.3189 10.0126 12.3117 10.0168C11.913 10.246 11.4953 10.4416 11.0631 10.6016C11.0563 10.6041 11.0502 10.608 11.0452 10.613C11.0401 10.618 11.0361 10.624 11.0336 10.6306C11.031 10.6372 11.0299 10.6443 11.0303 10.6513C11.0307 10.6584 11.0326 10.6653 11.0359 10.6716C11.2762 11.1294 11.5505 11.5655 11.8526 11.9791C11.8588 11.9876 11.8675 11.994 11.8776 11.9974C11.8877 12.0007 11.8985 12.0009 11.9087 11.9978C13.2161 11.5998 14.5417 10.9995 15.9102 10.0106C15.9161 10.0064 15.9211 10.0009 15.9246 9.9947C15.9282 9.98846 15.9305 9.98153 15.9311 9.97438C16.2647 6.57838 15.3723 3.62851 13.5655 1.01346C13.561 1.00496 13.5536 0.998373 13.5447 0.994763ZM5.34666 8.1852C4.55833 8.1852 3.90873 7.47301 3.90873 6.59839C3.90873 5.72384 4.54573 5.01164 5.34673 5.01164C6.15393 5.01164 6.79719 5.73007 6.78459 6.59846C6.78459 7.47301 6.14759 8.1852 5.34666 8.1852ZM10.6632 8.1852C9.87486 8.1852 9.22526 7.47301 9.22526 6.59839C9.22526 5.72384 9.86219 5.01164 10.6632 5.01164C11.4704 5.01164 12.1137 5.73007 12.1011 6.59846C12.1011 7.47301 11.4704 8.1852 10.6632 8.1852Z" fill="#fff"/>
</svg>
