<svg width="1100" height="445" viewBox="0 0 1100 445" fill="none" xmlns="http://www.w3.org/2000/svg">
<rect width="345.714" height="444.365" rx="17.4603" fill="#FF4409"/>
<rect x="378.016" width="343.968" height="444.365" rx="17.4603" fill="#FF4409"/>
<rect x="754.286" width="345.714" height="444.365" rx="17.4603" fill="#FF4409"/>
<path d="M76.8599 52.3552V58.0821H73.3679V71.2821H67.4663V41.4599H73.3679V52.3552H76.8599ZM46.3742 69.8853V42.1583H63.7298V69.8853H46.3742ZM52.2758 47.6409V64.4028H57.8282V47.6409H52.2758ZM110.451 52.3552V58.0821H106.959V71.2821H101.057V41.4599H106.959V52.3552H110.451ZM85.8315 64.5774H91.9426C94.7712 64.5774 97.8442 64.0536 99.6601 63.2155V68.4536C97.8442 69.3615 94.6315 69.8853 91.768 69.8853H79.9648V53.3329H91.0696V47.4663H79.895V42.1583H96.9363V58.571H85.8315V64.5774ZM130.597 57.7329H142.714V62.3075H112.543V57.7329H124.66V55.8821H114.394V41.4599H140.898V45.4409H120.225V46.8377H140.409V50.5742H120.225V51.9361H141.248V55.8821H130.597V57.7329ZM120.295 63.5996V66.6028H141.317V71.2821H114.289V63.5996H120.295ZM74.2059 81.4599V96.0567H68.3044V81.4599H74.2059ZM55.1393 81.4948C61.0059 81.4948 64.7425 84.4282 64.7425 88.7234C64.7425 93.0536 61.0059 95.952 55.1393 95.952C49.2726 95.952 45.5361 93.0536 45.5361 88.7234C45.5361 84.4282 49.2726 81.4948 55.1393 81.4948ZM55.1393 86.1393C52.8694 86.1393 51.3679 87.152 51.3679 88.7234C51.3679 90.2948 52.8694 91.3075 55.1393 91.3075C57.4091 91.3075 58.9107 90.2948 58.9107 88.7234C58.9107 87.152 57.4091 86.1393 55.1393 86.1393ZM74.2059 97.1044V106.009H53.7425V107.196H74.5202V111.282H47.9107V102.377H68.3742V101.19H47.8409V97.1044H74.2059ZM89.6379 92.9139C87.2982 95.6377 83.7363 97.6282 79.476 97.7329V92.5647C83.3172 92.3552 85.8664 89.5266 86.4601 86.698H79.895V81.8091H98.8918V86.0694H102.035V81.4599H107.936V98.152H102.035V91.098H98.0537V86.698H92.4315C92.3617 87.3266 92.2569 87.9202 92.0474 88.5488L100.009 93.0885L97.1807 97.4186L89.6379 92.9139ZM94.5966 98.571C102.209 98.571 108.216 100.247 108.216 105.101C108.216 109.955 102.209 111.631 94.5966 111.631C86.9839 111.631 80.9775 109.955 80.9775 105.101C80.9775 100.247 86.9839 98.571 94.5966 98.571ZM94.5966 106.987C98.6125 106.987 101.86 106.463 101.86 105.101C101.86 103.774 98.6125 103.215 94.5966 103.215C90.5807 103.215 87.3331 103.774 87.3331 105.101C87.3331 106.463 90.5807 106.987 94.5966 106.987ZM127.629 80.971C135.451 80.971 141.178 82.4377 141.178 86.5932C141.178 90.7488 135.451 92.2155 127.629 92.2155C119.806 92.2155 114.079 90.7488 114.079 86.5932C114.079 82.4377 119.806 80.971 127.629 80.971ZM127.629 85.1964C123.194 85.1964 120.33 85.6155 120.33 86.5932C120.33 87.6059 123.194 87.9901 127.629 87.9901C132.063 87.9901 134.927 87.6059 134.927 86.5932C134.927 85.6155 132.063 85.1964 127.629 85.1964ZM142.714 93.1932V97.4885H112.543V93.1932H142.714ZM140.968 98.6409V106.428H120.086V107.441H141.282V111.282H114.324V103.355H135.206V102.342H114.254V98.6409H140.968ZM65.1964 121.542V125.628H45.2917V121.542H52.171V119.552H58.2472V121.542H65.1964ZM76.8599 126.99V132.473H73.4377V140.993H67.5361V120.46H73.4377V126.99H76.8599ZM65.825 139.806C63.9742 140.609 60.971 140.888 58.0028 140.888H45.3615V136.593H52.3456V135.441C48.7837 134.952 46.4091 133.45 46.4091 130.971C46.4091 127.898 50.1456 126.292 55.279 126.292C60.4123 126.292 64.1488 127.898 64.1488 130.971C64.1488 133.45 61.7393 134.952 58.1425 135.476V136.593C60.9012 136.593 63.9742 136.314 65.825 135.511V139.806ZM51.8917 130.971C51.8917 131.565 53.2186 131.844 55.279 131.844C57.3393 131.844 58.6663 131.565 58.6663 130.971C58.6663 130.377 57.3393 130.098 55.279 130.098C53.2186 130.098 51.8917 130.377 51.8917 130.971ZM46.9679 146.406V142.041H73.4377V150.631H67.5012V146.406H46.9679ZM107.797 120.46V142.53H101.895V120.46H107.797ZM88.6601 120.495C94.4918 120.495 98.4728 124.057 98.4728 129.435C98.4728 134.847 94.4918 138.374 88.6601 138.374C82.8283 138.374 78.8474 134.847 78.8474 129.435C78.8474 124.057 82.8283 120.495 88.6601 120.495ZM88.6601 125.419C86.3902 125.419 84.7141 126.85 84.7141 129.435C84.7141 132.019 86.3902 133.45 88.6601 133.45C90.9299 133.45 92.6061 132.019 92.6061 129.435C92.6061 126.85 90.9299 125.419 88.6601 125.419ZM87.4728 139.841V144.974H108.216V150.282H81.4664V139.841H87.4728ZM125.882 120.355V124.057H132.517V129.435H113.171V124.057H119.841V120.355H125.882ZM144.041 131.355V137.082H140.549V150.282H134.648V120.46H140.549V131.355H144.041ZM122.844 130.657C128.222 130.657 131.505 134.673 131.505 139.946C131.505 145.254 128.222 149.235 122.844 149.235C117.467 149.235 114.184 145.254 114.184 139.946C114.184 134.673 117.467 130.657 122.844 130.657ZM122.844 144.171C124.765 144.171 125.882 142.495 125.882 139.946C125.882 137.396 124.765 135.72 122.844 135.72C120.924 135.72 119.806 137.396 119.806 139.946C119.806 142.495 120.924 144.171 122.844 144.171ZM168.518 140.819V126.641H147.705V121.158H174.664V140.819H168.518ZM161.952 143.717H176.305V149.235H146.133V143.717H155.841V132.054H161.952V143.717Z" fill="#FAF1E7"/>
<path d="M446.461 41.4599H452.362V71.2821H446.461V57.9425H442.13V52.2155H446.461V41.4599ZM430.432 64.5774H436.124C438.953 64.5774 442.026 64.0186 443.842 63.2155V68.4536C442.026 69.3615 438.673 69.8853 435.705 69.8853H424.565V53.3329H434.832V47.4663H424.496V42.1583H440.699V58.571H430.432V64.5774ZM480.051 41.4599H485.953V71.2821H480.051V56.5456H470.832V50.8536H480.051V41.4599ZM464.232 64.4726H469.715C472.543 64.4726 475.616 63.9488 477.432 63.1107V68.4536C475.616 69.3615 472.404 69.8853 469.54 69.8853H458.156V41.9837H464.232V64.4726ZM518.915 41.4599V45.6853H498.242V47.571H519.264V51.7964H492.375V41.4599H518.915ZM520.731 53.0536V57.3488H490.559V53.0536H520.731ZM518.985 58.571V66.4631H498.102V67.5456H519.299V71.2821H492.34V63.3552H513.223V62.2726H492.271V58.571H518.985ZM555.648 52.0758V57.8028H552.226V71.2821H546.325V41.4599H552.226V52.0758H555.648ZM536.756 60.9805V47.8155H525.058V42.3329H542.693V60.9805H536.756ZM533.893 64.3679H536.896C539.655 64.3679 542.763 64.0186 544.614 63.1805V68.698C542.763 69.5361 539.76 69.8853 536.791 69.8853H524.15V64.3679H527.956V53.5774H533.893V64.3679ZM438.289 92.6345C434.832 97.2091 429.664 100.003 423.972 100.003V94.4155C429.908 94.4155 435.426 89.2472 436.508 81.3552L442.515 82.298C442.235 84.3234 441.711 86.244 440.943 87.9901L453.55 95.3234L450.511 100.142L438.289 92.6345ZM441.467 98.1171V104.717H453.55V110.235H423.378V104.717H435.461V98.1171H441.467ZM474.988 95.8821H487.14V100.177H456.969V95.8821H469.121V94.5901H458.82V81.4599H485.324V85.1266H464.651V86.3837H484.835V89.7361H464.651V90.9583H485.674V94.5901H474.988V95.8821ZM472.054 101.015C480.086 101.015 485.708 102.552 485.708 106.358C485.708 110.165 480.086 111.701 472.054 111.701C464.023 111.701 458.4 110.165 458.4 106.358C458.4 102.552 464.023 101.015 472.054 101.015ZM472.054 107.615C476.42 107.615 479.458 107.266 479.458 106.358C479.458 105.485 476.42 105.101 472.054 105.101C467.689 105.101 464.651 105.485 464.651 106.358C464.651 107.266 467.689 107.615 472.054 107.615ZM503.899 81.3552V85.0567H510.534V90.4345H491.188V85.0567H497.858V81.3552H503.899ZM522.058 92.3552V98.0821H518.566V111.282H512.664V81.4599H518.566V92.3552H522.058ZM500.861 91.6567C506.239 91.6567 509.521 95.6726 509.521 100.946C509.521 106.254 506.239 110.235 500.861 110.235C495.483 110.235 492.201 106.254 492.201 100.946C492.201 95.6726 495.483 91.6567 500.861 91.6567ZM500.861 105.171C502.782 105.171 503.899 103.495 503.899 100.946C503.899 98.3964 502.782 96.7202 500.861 96.7202C498.94 96.7202 497.823 98.3964 497.823 100.946C497.823 103.495 498.94 105.171 500.861 105.171ZM547.302 81.4599H553.134V111.282H547.302V103.285H543.95V97.7679H547.302V93.1583H543.95V87.6409H547.302V81.4599ZM525.337 109.885V82.1583H542.553V109.885H525.337ZM531.169 87.6409V104.403H536.721V87.6409H531.169ZM452.223 120.46V150.282H446.321V120.46H452.223ZM441.711 121.158V129.225C441.711 141.342 434.972 148.885 424.53 148.885V143.298C431.759 143.228 435.67 137.85 435.67 129.225V126.536H424.53V121.158H441.711ZM474.988 135.86H487.14V140.365H456.969V135.86H469.121V134.323H458.82V125.663H479.562V124.301H458.75V120.46H485.324V129.12H464.581V130.482H485.639V134.323H474.988V135.86ZM458.575 146.231V141.727H485.394V150.631H479.423V146.231H458.575ZM503.899 120.355V124.057H510.534V129.435H491.188V124.057H497.858V120.355H503.899ZM522.058 131.355V137.082H518.566V150.282H512.664V120.46H518.566V131.355H522.058ZM500.861 130.657C506.239 130.657 509.521 134.673 509.521 139.946C509.521 145.254 506.239 149.235 500.861 149.235C495.483 149.235 492.201 145.254 492.201 139.946C492.201 134.673 495.483 130.657 500.861 130.657ZM500.861 144.171C502.782 144.171 503.899 142.495 503.899 139.946C503.899 137.396 502.782 135.72 500.861 135.72C498.94 135.72 497.823 137.396 497.823 139.946C497.823 142.495 498.94 144.171 500.861 144.171ZM546.534 140.819V126.641H525.721V121.158H552.68V140.819H546.534ZM539.969 143.717H554.321V149.235H524.15V143.717H533.858V132.054H539.969V143.717Z" fill="#FAF1E7"/>
<path d="M831.146 52.3552V58.0821H827.654V71.2821H821.752V41.4599H827.654V52.3552H831.146ZM800.66 69.8853V42.1583H818.016V69.8853H800.66ZM806.562 47.6409V64.4028H812.114V47.6409H806.562ZM864.737 52.3552V58.0821H861.245V71.2821H855.343V41.4599H861.245V52.3552H864.737ZM840.118 64.5774H846.229C849.057 64.5774 852.13 64.0536 853.946 63.2155V68.4536C852.13 69.3615 848.918 69.8853 846.054 69.8853H834.251V53.3329H845.356V47.4663H834.181V42.1583H851.222V58.571H840.118V64.5774ZM884.883 57.7329H897V62.3075H866.829V57.7329H878.946V55.8821H868.68V41.4599H895.184V45.4409H874.511V46.8377H894.696V50.5742H874.511V51.9361H895.534V55.8821H884.883V57.7329ZM874.581 63.5996V66.6028H895.604V71.2821H868.575V63.5996H874.581ZM924.585 41.4599H930.102V71.2821H924.585V41.4599ZM917.077 52.8091V41.5996H922.524V70.7583H917.077V58.4663H914.947C914.562 66.8821 912.048 70.2345 907.718 70.2345C903.004 70.2345 900.42 66.2186 900.42 56.0218C900.42 45.8599 903.004 41.8091 907.718 41.8091C911.908 41.8091 914.423 44.9869 914.912 52.8091H917.077ZM907.718 64.8917C909.045 64.8917 909.534 62.2028 909.534 56.0218C909.534 49.8409 909.045 47.152 907.718 47.152C906.391 47.152 905.902 49.8409 905.902 56.0218C905.902 62.2028 906.391 64.8917 907.718 64.8917ZM809.67 94.1361C807.365 96.6155 803.978 98.4313 799.997 98.5361V93.5774C803.454 93.298 805.829 91.0282 806.702 88.4091H800.346V83.6599H806.911V80.9361H812.917V83.6599H819.483V88.4091H812.778C812.638 88.898 812.498 89.3869 812.324 89.8758L820.251 93.8917L817.702 98.2917L809.67 94.1361ZM831.146 86.8726V92.5996H827.654V98.6758H821.752V81.4599H827.654V86.8726H831.146ZM801.324 111.282V99.7234H827.654V111.282H801.324ZM807.19 104.333V106.673H821.787V104.333H807.19ZM856.426 81.4599H862.222V111.282H856.426V104.088H853.038L853.422 98.571H856.426V93.298H853.422L853.038 87.7805H856.426V81.4599ZM843.156 81.8091C848.673 81.8091 852.305 86.2091 852.305 96.0218C852.305 105.835 848.673 110.235 843.156 110.235C837.638 110.235 833.972 105.835 833.972 96.0218C833.972 86.2091 837.638 81.8091 843.156 81.8091ZM843.156 104.822C845.076 104.822 846.508 102.727 846.508 96.0218C846.508 89.352 845.076 87.2218 843.156 87.2218C841.2 87.2218 839.768 89.352 839.768 96.0218C839.768 102.727 841.2 104.822 843.156 104.822ZM877.061 81.3552V85.1266H882.054V90.3996H866.131V85.1266H871.194V81.3552H877.061ZM891.099 81.4599H896.511V111.282H891.099V98.0123H888.689V110.758H883.346V81.5996H888.689V92.425H891.099V81.4599ZM874.232 91.5869C878.388 91.5869 881.565 94.6599 881.565 100.911C881.565 107.162 878.388 110.235 874.232 110.235C870.077 110.235 866.969 107.162 866.969 100.911C866.969 94.6599 870.077 91.5869 874.232 91.5869ZM874.232 105.171C875.384 105.171 876.292 103.669 876.292 100.911C876.292 98.152 875.384 96.6504 874.232 96.6504C873.08 96.6504 872.242 98.152 872.242 100.911C872.242 103.669 873.08 105.171 874.232 105.171ZM828.492 120.46V136.698H822.59V120.46H828.492ZM819.133 120.809V135.092H800.625V120.809H806.387V123.323H813.371V120.809H819.133ZM806.387 130.447H813.371V127.863H806.387V130.447ZM829.435 145.882L828.003 150.631L814.698 147.349C811.381 149.479 806.457 150.282 801.533 150.282V145.498C805.794 145.498 809.949 144.73 811.94 142.949H801.848V138.339H812.149V136.139H818.156V138.339H828.492V142.949H818.435C818.33 143.158 818.26 143.368 818.19 143.542L829.435 145.882ZM864.737 131.355V137.082H861.245V150.282H855.343V120.46H861.245V131.355H864.737ZM840.292 143.473H846.229C849.057 143.473 852.13 142.984 853.946 142.146V147.488C852.13 148.396 848.918 148.885 846.054 148.885H834.251V120.984H840.292V143.473ZM895.673 120.46V150.282H889.772V120.46H895.673ZM885.162 121.158V129.225C885.162 141.342 878.423 148.885 867.981 148.885V143.298C875.21 143.228 879.121 137.85 879.121 129.225V126.536H867.981V121.158H885.162ZM928.775 120.46V127.968H907.962V129.015H929.089V132.403H902.27V124.93H923.083V123.882H902.201V120.46H928.775ZM930.591 133.415V137.327H900.42V133.415H930.591ZM928.845 138.339V145.812H907.893V146.86H929.159V150.282H902.201V142.774H923.153V141.727H902.131V138.339H928.845ZM941.588 121.333L939.982 140.365H935.651L934.045 121.333H941.588ZM937.817 142.914C939.947 142.914 941.518 144.485 941.518 146.615C941.518 148.746 939.947 150.282 937.817 150.282C935.686 150.282 934.115 148.746 934.115 146.615C934.115 144.485 935.686 142.914 937.817 142.914Z" fill="#FAF1E7"/>
<path d="M1068.57 310.793C1009.62 331.607 992.823 348.479 972.103 407.698C951.383 348.479 934.588 331.607 875.635 310.793C934.588 289.979 951.383 273.108 972.103 213.889C992.823 273.108 1009.62 289.979 1068.57 310.793Z" fill="#FAF1E7"/>
<path d="M303.809 310.794C303.809 319.1 281.458 323.804 279.033 331.276C276.609 338.748 291.762 355.968 287.065 362.454C282.329 368.978 261.493 359.685 254.978 364.426C248.499 369.129 250.962 391.849 243.196 394.391C235.695 396.818 224.368 377.095 216.071 377.095C207.775 377.095 196.448 396.856 188.947 394.391C181.446 391.925 183.605 369.129 177.165 364.426C170.724 359.723 149.813 368.978 145.077 362.454C140.342 355.93 155.609 339.051 153.109 331.276C150.608 323.5 128.333 319.1 128.333 310.794C128.333 302.487 150.684 297.784 153.109 290.312C155.533 282.84 140.38 265.62 145.077 259.134C149.813 252.61 170.649 261.903 177.165 257.162C183.643 252.458 181.181 229.739 188.947 227.197C196.448 224.77 207.775 244.493 216.071 244.493C224.368 244.493 235.695 224.732 243.196 227.197C250.697 229.663 248.537 252.458 254.978 257.162C261.418 261.865 282.329 252.61 287.065 259.134C291.8 265.658 276.533 282.536 279.033 290.312C281.534 298.088 303.809 302.487 303.809 310.794Z" fill="#FAF1E7"/>
<path d="M629.926 271.651C699.125 279.631 699.125 341.956 629.926 349.936C621.908 418.804 559.283 418.804 551.265 349.936C482.065 341.956 482.065 279.631 551.265 271.651C559.283 202.783 621.908 202.783 629.926 271.651Z" fill="#FAF1E7"/>
<path d="M52.8659 168.334C53.3874 168.334 53.8478 168.436 54.2471 168.64C54.6463 168.843 54.9559 169.153 55.1759 169.569C55.4041 169.984 55.5182 170.51 55.5182 171.145V174.873H54.3448V171.28C54.3448 170.652 54.1982 170.18 53.9048 169.862C53.6115 169.544 53.2 169.385 52.6704 169.385C52.2793 169.385 51.9371 169.467 51.6437 169.63C51.3504 169.793 51.1222 170.033 50.9593 170.351C50.8045 170.669 50.7271 171.064 50.7271 171.536V174.873H49.5537V171.28C49.5537 170.652 49.4071 170.18 49.1137 169.862C48.8285 169.544 48.4171 169.385 47.8793 169.385C47.4963 169.385 47.1582 169.467 46.8648 169.63C46.5715 169.793 46.3434 170.033 46.1804 170.351C46.0174 170.669 45.9359 171.064 45.9359 171.536V174.873H44.7626V168.395H45.8871V170.119L45.7037 169.679C45.9074 169.255 46.2211 168.925 46.6448 168.689C47.0685 168.452 47.5615 168.334 48.1237 168.334C48.743 168.334 49.2767 168.489 49.7248 168.799C50.173 169.1 50.4663 169.56 50.6048 170.18L50.1282 169.984C50.3237 169.487 50.6659 169.088 51.1548 168.786C51.6437 168.485 52.2141 168.334 52.8659 168.334ZM61.6982 174.873V173.504L61.6371 173.247V170.913C61.6371 170.416 61.4904 170.033 61.1971 169.764C60.9119 169.487 60.4801 169.349 59.9016 169.349C59.5186 169.349 59.1438 169.414 58.7771 169.544C58.4104 169.666 58.1008 169.833 57.8482 170.045L57.3593 169.165C57.6934 168.896 58.0927 168.693 58.5571 168.554C59.0297 168.407 59.5227 168.334 60.036 168.334C60.9241 168.334 61.6086 168.55 62.0893 168.982C62.5701 169.414 62.8104 170.074 62.8104 170.962V174.873H61.6982ZM59.5716 174.946C59.0908 174.946 58.6671 174.865 58.3004 174.702C57.9419 174.539 57.6649 174.315 57.4693 174.03C57.2738 173.736 57.176 173.406 57.176 173.04C57.176 172.689 57.2575 172.372 57.4204 172.086C57.5916 171.801 57.8645 171.573 58.2393 171.402C58.6223 171.231 59.1356 171.145 59.7793 171.145H61.8327V171.989H59.8282C59.2416 171.989 58.8464 172.086 58.6427 172.282C58.439 172.477 58.3371 172.714 58.3371 172.991C58.3371 173.309 58.4634 173.565 58.716 173.761C58.9686 173.948 59.319 174.042 59.7671 174.042C60.2071 174.042 60.5901 173.944 60.916 173.749C61.2501 173.553 61.4904 173.268 61.6371 172.893L61.8693 173.7C61.7145 174.083 61.4416 174.388 61.0504 174.616C60.6593 174.836 60.1664 174.946 59.5716 174.946ZM64.9818 174.873V168.395H66.1062V170.155L65.9962 169.715C66.1755 169.267 66.477 168.925 66.9007 168.689C67.3244 168.452 67.8459 168.334 68.4651 168.334V169.471C68.4162 169.463 68.3674 169.459 68.3185 169.459C68.2777 169.459 68.237 169.459 68.1962 169.459C67.5688 169.459 67.0718 169.646 66.7051 170.021C66.3385 170.396 66.1551 170.937 66.1551 171.646V174.873H64.9818ZM73.4549 174.873V173.504L73.3938 173.247V170.913C73.3938 170.416 73.2472 170.033 72.9538 169.764C72.6687 169.487 72.2368 169.349 71.6583 169.349C71.2753 169.349 70.9005 169.414 70.5338 169.544C70.1672 169.666 69.8575 169.833 69.6049 170.045L69.1161 169.165C69.4501 168.896 69.8494 168.693 70.3138 168.554C70.7864 168.407 71.2794 168.334 71.7927 168.334C72.6809 168.334 73.3653 168.55 73.8461 168.982C74.3268 169.414 74.5672 170.074 74.5672 170.962V174.873H73.4549ZM71.3283 174.946C70.8475 174.946 70.4238 174.865 70.0572 174.702C69.6987 174.539 69.4216 174.315 69.2261 174.03C69.0305 173.736 68.9327 173.406 68.9327 173.04C68.9327 172.689 69.0142 172.372 69.1772 172.086C69.3483 171.801 69.6212 171.573 69.9961 171.402C70.379 171.231 70.8924 171.145 71.5361 171.145H73.5894V171.989H71.5849C70.9983 171.989 70.6031 172.086 70.3994 172.282C70.1957 172.477 70.0938 172.714 70.0938 172.991C70.0938 173.309 70.2201 173.565 70.4727 173.761C70.7253 173.948 71.0757 174.042 71.5238 174.042C71.9638 174.042 72.3468 173.944 72.6727 173.749C73.0068 173.553 73.2472 173.268 73.3938 172.893L73.6261 173.7C73.4712 174.083 73.1983 174.388 72.8072 174.616C72.4161 174.836 71.9231 174.946 71.3283 174.946ZM78.963 174.946C78.3111 174.946 77.8059 174.771 77.4474 174.421C77.0889 174.07 76.9096 173.569 76.9096 172.917V166.977H78.083V172.869C78.083 173.219 78.1685 173.488 78.3396 173.675C78.5189 173.863 78.7715 173.956 79.0974 173.956C79.4641 173.956 79.7696 173.855 80.0141 173.651L80.3807 174.494C80.2015 174.649 79.9856 174.763 79.733 174.836C79.4885 174.91 79.2319 174.946 78.963 174.946ZM75.8096 169.361V168.395H79.9407V169.361H75.8096ZM85.2582 168.334C85.7878 168.334 86.2523 168.436 86.6515 168.64C87.0589 168.843 87.3767 169.153 87.6048 169.569C87.833 169.984 87.9471 170.51 87.9471 171.145V174.873H86.7737V171.28C86.7737 170.652 86.6189 170.18 86.3093 169.862C86.0078 169.544 85.58 169.385 85.026 169.385C84.6104 169.385 84.2478 169.467 83.9382 169.63C83.6285 169.793 83.3882 170.033 83.2171 170.351C83.0541 170.669 82.9726 171.064 82.9726 171.536V174.873H81.7993V165.804H82.9726V170.143L82.7404 169.679C82.9523 169.255 83.2782 168.925 83.7182 168.689C84.1582 168.452 84.6715 168.334 85.2582 168.334ZM92.893 174.946C92.2411 174.946 91.6626 174.804 91.1574 174.519C90.6522 174.233 90.253 173.842 89.9596 173.345C89.6663 172.84 89.5196 172.27 89.5196 171.634C89.5196 170.99 89.6663 170.42 89.9596 169.923C90.253 169.426 90.6522 169.039 91.1574 168.762C91.6626 168.477 92.2411 168.334 92.893 168.334C93.5367 168.334 94.1111 168.477 94.6163 168.762C95.1296 169.039 95.5289 169.426 95.8141 169.923C96.1074 170.412 96.2541 170.982 96.2541 171.634C96.2541 172.278 96.1074 172.848 95.8141 173.345C95.5289 173.842 95.1296 174.233 94.6163 174.519C94.1111 174.804 93.5367 174.946 92.893 174.946ZM92.893 173.92C93.3085 173.92 93.6793 173.826 94.0052 173.639C94.3393 173.451 94.6 173.186 94.7874 172.844C94.9748 172.494 95.0685 172.09 95.0685 171.634C95.0685 171.17 94.9748 170.77 94.7874 170.436C94.6 170.094 94.3393 169.829 94.0052 169.642C93.6793 169.455 93.3085 169.361 92.893 169.361C92.4774 169.361 92.1067 169.455 91.7807 169.642C91.4548 169.829 91.1941 170.094 90.9985 170.436C90.803 170.77 90.7052 171.17 90.7052 171.634C90.7052 172.09 90.803 172.494 90.9985 172.844C91.1941 173.186 91.4548 173.451 91.7807 173.639C92.1067 173.826 92.4774 173.92 92.893 173.92ZM101.336 168.334C101.865 168.334 102.33 168.436 102.729 168.64C103.136 168.843 103.454 169.153 103.682 169.569C103.91 169.984 104.025 170.51 104.025 171.145V174.873H102.851V171.28C102.851 170.652 102.696 170.18 102.387 169.862C102.085 169.544 101.658 169.385 101.103 169.385C100.688 169.385 100.325 169.467 100.016 169.63C99.706 169.793 99.4657 170.033 99.2945 170.351C99.1316 170.669 99.0501 171.064 99.0501 171.536V174.873H97.8768V168.395H99.0012V170.143L98.8179 169.679C99.0297 169.255 99.3557 168.925 99.7957 168.689C100.236 168.452 100.749 168.334 101.336 168.334ZM111.336 174.946C110.798 174.946 110.285 174.873 109.796 174.726C109.315 174.58 108.936 174.4 108.659 174.189L109.148 173.26C109.425 173.447 109.768 173.606 110.175 173.736C110.582 173.867 110.998 173.932 111.422 173.932C111.968 173.932 112.359 173.855 112.595 173.7C112.839 173.545 112.962 173.329 112.962 173.052C112.962 172.848 112.888 172.689 112.742 172.575C112.595 172.461 112.399 172.376 112.155 172.319C111.919 172.262 111.654 172.213 111.361 172.172C111.067 172.123 110.774 172.066 110.481 172.001C110.187 171.927 109.918 171.83 109.674 171.707C109.429 171.577 109.234 171.402 109.087 171.182C108.941 170.954 108.867 170.652 108.867 170.277C108.867 169.886 108.977 169.544 109.197 169.251C109.417 168.957 109.727 168.733 110.126 168.579C110.534 168.416 111.014 168.334 111.568 168.334C111.992 168.334 112.42 168.387 112.852 168.493C113.292 168.591 113.65 168.733 113.927 168.921L113.426 169.85C113.133 169.654 112.827 169.52 112.509 169.446C112.192 169.373 111.874 169.336 111.556 169.336C111.043 169.336 110.66 169.422 110.407 169.593C110.155 169.756 110.028 169.968 110.028 170.229C110.028 170.449 110.102 170.62 110.248 170.742C110.403 170.856 110.599 170.946 110.835 171.011C111.079 171.076 111.348 171.133 111.642 171.182C111.935 171.223 112.228 171.28 112.522 171.353C112.815 171.418 113.08 171.512 113.316 171.634C113.561 171.756 113.756 171.927 113.903 172.147C114.058 172.367 114.135 172.661 114.135 173.027C114.135 173.419 114.021 173.757 113.793 174.042C113.565 174.327 113.243 174.551 112.827 174.714C112.412 174.869 111.915 174.946 111.336 174.946ZM118.425 174.946C117.765 174.946 117.174 174.804 116.652 174.519C116.139 174.233 115.736 173.842 115.442 173.345C115.149 172.848 115.002 172.278 115.002 171.634C115.002 170.99 115.149 170.42 115.442 169.923C115.736 169.426 116.139 169.039 116.652 168.762C117.174 168.477 117.765 168.334 118.425 168.334C119.011 168.334 119.533 168.452 119.989 168.689C120.454 168.917 120.812 169.259 121.065 169.715L120.172 170.29C119.961 169.972 119.7 169.74 119.39 169.593C119.089 169.438 118.763 169.361 118.412 169.361C117.989 169.361 117.61 169.455 117.276 169.642C116.942 169.829 116.677 170.094 116.481 170.436C116.286 170.77 116.188 171.17 116.188 171.634C116.188 172.099 116.286 172.502 116.481 172.844C116.677 173.186 116.942 173.451 117.276 173.639C117.61 173.826 117.989 173.92 118.412 173.92C118.763 173.92 119.089 173.846 119.39 173.7C119.7 173.545 119.961 173.309 120.172 172.991L121.065 173.553C120.812 174.001 120.454 174.347 119.989 174.592C119.533 174.828 119.011 174.946 118.425 174.946ZM125.959 168.334C126.489 168.334 126.953 168.436 127.352 168.64C127.76 168.843 128.078 169.153 128.306 169.569C128.534 169.984 128.648 170.51 128.648 171.145V174.873H127.475V171.28C127.475 170.652 127.32 170.18 127.01 169.862C126.709 169.544 126.281 169.385 125.727 169.385C125.311 169.385 124.949 169.467 124.639 169.63C124.33 169.793 124.089 170.033 123.918 170.351C123.755 170.669 123.674 171.064 123.674 171.536V174.873H122.5V165.804H123.674V170.143L123.441 169.679C123.653 169.255 123.979 168.925 124.419 168.689C124.859 168.452 125.372 168.334 125.959 168.334ZM133.704 174.946C133.011 174.946 132.4 174.804 131.871 174.519C131.349 174.233 130.942 173.842 130.648 173.345C130.363 172.848 130.221 172.278 130.221 171.634C130.221 170.99 130.359 170.42 130.636 169.923C130.921 169.426 131.308 169.039 131.797 168.762C132.294 168.477 132.852 168.334 133.472 168.334C134.099 168.334 134.653 168.473 135.134 168.75C135.615 169.027 135.989 169.418 136.258 169.923C136.535 170.42 136.674 171.003 136.674 171.671C136.674 171.72 136.67 171.777 136.662 171.842C136.662 171.907 136.658 171.968 136.649 172.025H131.137V171.182H136.038L135.562 171.475C135.57 171.06 135.484 170.689 135.305 170.363C135.126 170.037 134.877 169.785 134.559 169.605C134.25 169.418 133.887 169.324 133.472 169.324C133.064 169.324 132.702 169.418 132.384 169.605C132.066 169.785 131.818 170.041 131.638 170.375C131.459 170.701 131.369 171.076 131.369 171.5V171.695C131.369 172.127 131.467 172.514 131.663 172.856C131.867 173.19 132.148 173.451 132.506 173.639C132.865 173.826 133.276 173.92 133.741 173.92C134.124 173.92 134.47 173.855 134.779 173.724C135.097 173.594 135.374 173.398 135.611 173.137L136.258 173.895C135.965 174.237 135.598 174.498 135.158 174.677C134.727 174.857 134.242 174.946 133.704 174.946ZM140.98 174.946C140.352 174.946 139.79 174.808 139.293 174.531C138.804 174.254 138.417 173.867 138.132 173.37C137.847 172.873 137.704 172.294 137.704 171.634C137.704 170.974 137.847 170.4 138.132 169.911C138.417 169.414 138.804 169.027 139.293 168.75C139.79 168.473 140.352 168.334 140.98 168.334C141.526 168.334 142.019 168.456 142.459 168.701C142.899 168.945 143.249 169.312 143.51 169.801C143.779 170.29 143.913 170.901 143.913 171.634C143.913 172.367 143.783 172.979 143.522 173.467C143.269 173.956 142.923 174.327 142.483 174.58C142.043 174.824 141.542 174.946 140.98 174.946ZM141.078 173.92C141.485 173.92 141.852 173.826 142.178 173.639C142.512 173.451 142.772 173.186 142.96 172.844C143.155 172.494 143.253 172.09 143.253 171.634C143.253 171.17 143.155 170.77 142.96 170.436C142.772 170.094 142.512 169.829 142.178 169.642C141.852 169.455 141.485 169.361 141.078 169.361C140.662 169.361 140.291 169.455 139.965 169.642C139.639 169.829 139.379 170.094 139.183 170.436C138.988 170.77 138.89 171.17 138.89 171.634C138.89 172.09 138.988 172.494 139.183 172.844C139.379 173.186 139.639 173.451 139.965 173.639C140.291 173.826 140.662 173.92 141.078 173.92ZM143.29 174.873V173.125L143.363 171.622L143.241 170.119V165.804H144.414V174.873H143.29ZM149.36 174.946C148.806 174.946 148.317 174.845 147.893 174.641C147.478 174.437 147.152 174.127 146.915 173.712C146.687 173.288 146.573 172.759 146.573 172.123V168.395H147.747V171.989C147.747 172.624 147.897 173.101 148.199 173.419C148.508 173.736 148.94 173.895 149.494 173.895C149.902 173.895 150.256 173.814 150.558 173.651C150.859 173.48 151.091 173.235 151.254 172.917C151.417 172.592 151.499 172.2 151.499 171.744V168.395H152.672V174.873H151.56V173.125L151.743 173.59C151.531 174.022 151.214 174.356 150.79 174.592C150.366 174.828 149.89 174.946 149.36 174.946ZM154.906 174.873V165.804H156.079V174.873H154.906ZM161.204 174.946C160.511 174.946 159.9 174.804 159.371 174.519C158.849 174.233 158.442 173.842 158.148 173.345C157.863 172.848 157.721 172.278 157.721 171.634C157.721 170.99 157.859 170.42 158.136 169.923C158.421 169.426 158.808 169.039 159.297 168.762C159.794 168.477 160.352 168.334 160.972 168.334C161.599 168.334 162.153 168.473 162.634 168.75C163.115 169.027 163.489 169.418 163.758 169.923C164.035 170.42 164.174 171.003 164.174 171.671C164.174 171.72 164.17 171.777 164.162 171.842C164.162 171.907 164.158 171.968 164.149 172.025H158.637V171.182H163.538L163.062 171.475C163.07 171.06 162.984 170.689 162.805 170.363C162.626 170.037 162.377 169.785 162.059 169.605C161.75 169.418 161.387 169.324 160.972 169.324C160.564 169.324 160.202 169.418 159.884 169.605C159.566 169.785 159.318 170.041 159.138 170.375C158.959 170.701 158.869 171.076 158.869 171.5V171.695C158.869 172.127 158.967 172.514 159.163 172.856C159.367 173.19 159.648 173.451 160.006 173.639C160.365 173.826 160.776 173.92 161.241 173.92C161.624 173.92 161.97 173.855 162.279 173.724C162.597 173.594 162.874 173.398 163.111 173.137L163.758 173.895C163.465 174.237 163.098 174.498 162.658 174.677C162.227 174.857 161.742 174.946 161.204 174.946ZM171.909 174.946C171.249 174.946 170.658 174.804 170.137 174.519C169.623 174.233 169.22 173.842 168.927 173.345C168.633 172.848 168.487 172.278 168.487 171.634C168.487 170.99 168.633 170.42 168.927 169.923C169.22 169.426 169.623 169.039 170.137 168.762C170.658 168.477 171.249 168.334 171.909 168.334C172.496 168.334 173.017 168.452 173.473 168.689C173.938 168.917 174.296 169.259 174.549 169.715L173.657 170.29C173.445 169.972 173.184 169.74 172.874 169.593C172.573 169.438 172.247 169.361 171.897 169.361C171.473 169.361 171.094 169.455 170.76 169.642C170.426 169.829 170.161 170.094 169.966 170.436C169.77 170.77 169.672 171.17 169.672 171.634C169.672 172.099 169.77 172.502 169.966 172.844C170.161 173.186 170.426 173.451 170.76 173.639C171.094 173.826 171.473 173.92 171.897 173.92C172.247 173.92 172.573 173.846 172.874 173.7C173.184 173.545 173.445 173.309 173.657 172.991L174.549 173.553C174.296 174.001 173.938 174.347 173.473 174.592C173.017 174.828 172.496 174.946 171.909 174.946ZM179.443 168.334C179.973 168.334 180.437 168.436 180.837 168.64C181.244 168.843 181.562 169.153 181.79 169.569C182.018 169.984 182.132 170.51 182.132 171.145V174.873H180.959V171.28C180.959 170.652 180.804 170.18 180.494 169.862C180.193 169.544 179.765 169.385 179.211 169.385C178.796 169.385 178.433 169.467 178.123 169.63C177.814 169.793 177.573 170.033 177.402 170.351C177.239 170.669 177.158 171.064 177.158 171.536V174.873H175.984V165.804H177.158V170.143L176.926 169.679C177.137 169.255 177.463 168.925 177.903 168.689C178.343 168.452 178.857 168.334 179.443 168.334ZM187.188 174.946C186.495 174.946 185.884 174.804 185.355 174.519C184.833 174.233 184.426 173.842 184.133 173.345C183.847 172.848 183.705 172.278 183.705 171.634C183.705 170.99 183.843 170.42 184.12 169.923C184.405 169.426 184.793 169.039 185.281 168.762C185.778 168.477 186.337 168.334 186.956 168.334C187.583 168.334 188.137 168.473 188.618 168.75C189.099 169.027 189.474 169.418 189.743 169.923C190.02 170.42 190.158 171.003 190.158 171.671C190.158 171.72 190.154 171.777 190.146 171.842C190.146 171.907 190.142 171.968 190.134 172.025H184.621V171.182H189.523L189.046 171.475C189.054 171.06 188.968 170.689 188.789 170.363C188.61 170.037 188.361 169.785 188.044 169.605C187.734 169.418 187.371 169.324 186.956 169.324C186.548 169.324 186.186 169.418 185.868 169.605C185.55 169.785 185.302 170.041 185.123 170.375C184.943 170.701 184.854 171.076 184.854 171.5V171.695C184.854 172.127 184.951 172.514 185.147 172.856C185.351 173.19 185.632 173.451 185.99 173.639C186.349 173.826 186.76 173.92 187.225 173.92C187.608 173.92 187.954 173.855 188.264 173.724C188.581 173.594 188.858 173.398 189.095 173.137L189.743 173.895C189.449 174.237 189.083 174.498 188.643 174.677C188.211 174.857 187.726 174.946 187.188 174.946ZM194.611 174.946C193.951 174.946 193.36 174.804 192.838 174.519C192.325 174.233 191.922 173.842 191.628 173.345C191.335 172.848 191.188 172.278 191.188 171.634C191.188 170.99 191.335 170.42 191.628 169.923C191.922 169.426 192.325 169.039 192.838 168.762C193.36 168.477 193.951 168.334 194.611 168.334C195.197 168.334 195.719 168.452 196.175 168.689C196.64 168.917 196.998 169.259 197.251 169.715L196.358 170.29C196.147 169.972 195.886 169.74 195.576 169.593C195.275 169.438 194.949 169.361 194.598 169.361C194.175 169.361 193.796 169.455 193.462 169.642C193.128 169.829 192.863 170.094 192.667 170.436C192.472 170.77 192.374 171.17 192.374 171.634C192.374 172.099 192.472 172.502 192.667 172.844C192.863 173.186 193.128 173.451 193.462 173.639C193.796 173.826 194.175 173.92 194.598 173.92C194.949 173.92 195.275 173.846 195.576 173.7C195.886 173.545 196.147 173.309 196.358 172.991L197.251 173.553C196.998 174.001 196.64 174.347 196.175 174.592C195.719 174.828 195.197 174.946 194.611 174.946ZM199.64 173.309L199.664 171.805L203.392 168.395H204.81L201.95 171.206L201.314 171.744L199.64 173.309ZM198.686 174.873V165.804H199.86V174.873H198.686ZM203.636 174.873L201.094 171.72L201.852 170.779L205.078 174.873H203.636Z" fill="#FAF1E7"/>
<path d="M426.776 175.844C426.124 175.844 425.521 175.738 424.967 175.526C424.421 175.306 423.944 175.001 423.537 174.609C423.138 174.21 422.824 173.746 422.596 173.216C422.368 172.686 422.254 172.104 422.254 171.468C422.254 170.833 422.368 170.25 422.596 169.721C422.824 169.191 423.142 168.731 423.549 168.339C423.957 167.94 424.433 167.635 424.979 167.423C425.533 167.203 426.136 167.093 426.788 167.093C427.448 167.093 428.055 167.207 428.609 167.435C429.171 167.655 429.648 167.985 430.039 168.425L429.245 169.195C428.919 168.853 428.552 168.6 428.145 168.437C427.737 168.266 427.301 168.181 426.837 168.181C426.356 168.181 425.908 168.262 425.493 168.425C425.085 168.588 424.731 168.816 424.429 169.109C424.128 169.403 423.891 169.753 423.72 170.161C423.557 170.56 423.476 170.996 423.476 171.468C423.476 171.941 423.557 172.381 423.72 172.788C423.891 173.188 424.128 173.534 424.429 173.827C424.731 174.121 425.085 174.349 425.493 174.512C425.908 174.675 426.356 174.756 426.837 174.756C427.301 174.756 427.737 174.675 428.145 174.512C428.552 174.341 428.919 174.08 429.245 173.729L430.039 174.499C429.648 174.939 429.171 175.274 428.609 175.502C428.055 175.73 427.444 175.844 426.776 175.844ZM434.112 175.819C433.46 175.819 432.881 175.677 432.376 175.392C431.871 175.106 431.472 174.715 431.178 174.218C430.885 173.713 430.738 173.143 430.738 172.507C430.738 171.864 430.885 171.293 431.178 170.796C431.472 170.299 431.871 169.912 432.376 169.635C432.881 169.35 433.46 169.207 434.112 169.207C434.755 169.207 435.33 169.35 435.835 169.635C436.348 169.912 436.748 170.299 437.033 170.796C437.326 171.285 437.473 171.855 437.473 172.507C437.473 173.151 437.326 173.721 437.033 174.218C436.748 174.715 436.348 175.106 435.835 175.392C435.33 175.677 434.755 175.819 434.112 175.819ZM434.112 174.793C434.527 174.793 434.898 174.699 435.224 174.512C435.558 174.324 435.819 174.059 436.006 173.717C436.193 173.367 436.287 172.964 436.287 172.507C436.287 172.043 436.193 171.644 436.006 171.309C435.819 170.967 435.558 170.702 435.224 170.515C434.898 170.328 434.527 170.234 434.112 170.234C433.696 170.234 433.325 170.328 432.999 170.515C432.673 170.702 432.413 170.967 432.217 171.309C432.022 171.644 431.924 172.043 431.924 172.507C431.924 172.964 432.022 173.367 432.217 173.717C432.413 174.059 432.673 174.324 432.999 174.512C433.325 174.699 433.696 174.793 434.112 174.793ZM447.199 169.207C447.72 169.207 448.181 169.309 448.58 169.513C448.979 169.716 449.289 170.026 449.509 170.442C449.737 170.857 449.851 171.383 449.851 172.018V175.746H448.678V172.153C448.678 171.525 448.531 171.053 448.238 170.735C447.944 170.417 447.533 170.258 447.003 170.258C446.612 170.258 446.27 170.34 445.977 170.503C445.683 170.666 445.455 170.906 445.292 171.224C445.137 171.542 445.06 171.937 445.06 172.409V175.746H443.887V172.153C443.887 171.525 443.74 171.053 443.447 170.735C443.161 170.417 442.75 170.258 442.212 170.258C441.829 170.258 441.491 170.34 441.198 170.503C440.904 170.666 440.676 170.906 440.513 171.224C440.35 171.542 440.269 171.937 440.269 172.409V175.746H439.095V169.268H440.22V170.992L440.037 170.552C440.24 170.128 440.554 169.798 440.978 169.562C441.401 169.325 441.894 169.207 442.457 169.207C443.076 169.207 443.609 169.362 444.058 169.672C444.506 169.973 444.799 170.434 444.938 171.053L444.461 170.857C444.657 170.36 444.999 169.961 445.488 169.659C445.977 169.358 446.547 169.207 447.199 169.207ZM460.113 169.207C460.635 169.207 461.095 169.309 461.494 169.513C461.894 169.716 462.203 170.026 462.423 170.442C462.651 170.857 462.765 171.383 462.765 172.018V175.746H461.592V172.153C461.592 171.525 461.445 171.053 461.152 170.735C460.859 170.417 460.447 170.258 459.918 170.258C459.527 170.258 459.184 170.34 458.891 170.503C458.598 170.666 458.37 170.906 458.207 171.224C458.052 171.542 457.974 171.937 457.974 172.409V175.746H456.801V172.153C456.801 171.525 456.654 171.053 456.361 170.735C456.076 170.417 455.664 170.258 455.127 170.258C454.744 170.258 454.405 170.34 454.112 170.503C453.819 170.666 453.591 170.906 453.428 171.224C453.265 171.542 453.183 171.937 453.183 172.409V175.746H452.01V169.268H453.134V170.992L452.951 170.552C453.155 170.128 453.468 169.798 453.892 169.562C454.316 169.325 454.809 169.207 455.371 169.207C455.99 169.207 456.524 169.362 456.972 169.672C457.42 169.973 457.714 170.434 457.852 171.053L457.375 170.857C457.571 170.36 457.913 169.961 458.402 169.659C458.891 169.358 459.461 169.207 460.113 169.207ZM467.65 175.819C467.096 175.819 466.607 175.718 466.183 175.514C465.768 175.31 465.442 175.001 465.206 174.585C464.977 174.161 464.863 173.632 464.863 172.996V169.268H466.037V172.862C466.037 173.497 466.187 173.974 466.489 174.292C466.798 174.609 467.23 174.768 467.784 174.768C468.192 174.768 468.546 174.687 468.848 174.524C469.149 174.353 469.381 174.108 469.544 173.791C469.707 173.465 469.789 173.074 469.789 172.617V169.268H470.962V175.746H469.85V173.998L470.033 174.463C469.821 174.895 469.504 175.229 469.08 175.465C468.656 175.701 468.18 175.819 467.65 175.819ZM476.655 169.207C477.184 169.207 477.649 169.309 478.048 169.513C478.456 169.716 478.773 170.026 479.001 170.442C479.23 170.857 479.344 171.383 479.344 172.018V175.746H478.17V172.153C478.17 171.525 478.016 171.053 477.706 170.735C477.404 170.417 476.977 170.258 476.423 170.258C476.007 170.258 475.644 170.34 475.335 170.503C475.025 170.666 474.785 170.906 474.614 171.224C474.451 171.542 474.369 171.937 474.369 172.409V175.746H473.196V169.268H474.32V171.016L474.137 170.552C474.349 170.128 474.675 169.798 475.115 169.562C475.555 169.325 476.068 169.207 476.655 169.207ZM481.515 175.746V169.268H482.688V175.746H481.515ZM482.102 168.022C481.874 168.022 481.682 167.948 481.527 167.802C481.381 167.655 481.307 167.476 481.307 167.264C481.307 167.044 481.381 166.861 481.527 166.714C481.682 166.567 481.874 166.494 482.102 166.494C482.33 166.494 482.517 166.567 482.664 166.714C482.819 166.852 482.896 167.028 482.896 167.239C482.896 167.459 482.823 167.647 482.676 167.802C482.53 167.948 482.338 168.022 482.102 168.022ZM487.752 175.819C487.092 175.819 486.501 175.677 485.98 175.392C485.467 175.106 485.063 174.715 484.77 174.218C484.477 173.721 484.33 173.151 484.33 172.507C484.33 171.864 484.477 171.293 484.77 170.796C485.063 170.299 485.467 169.912 485.98 169.635C486.501 169.35 487.092 169.207 487.752 169.207C488.339 169.207 488.86 169.325 489.317 169.562C489.781 169.79 490.139 170.132 490.392 170.588L489.5 171.163C489.288 170.845 489.027 170.613 488.718 170.466C488.416 170.311 488.09 170.234 487.74 170.234C487.316 170.234 486.937 170.328 486.603 170.515C486.269 170.702 486.004 170.967 485.809 171.309C485.613 171.644 485.515 172.043 485.515 172.507C485.515 172.972 485.613 173.375 485.809 173.717C486.004 174.059 486.269 174.324 486.603 174.512C486.937 174.699 487.316 174.793 487.74 174.793C488.09 174.793 488.416 174.719 488.718 174.573C489.027 174.418 489.288 174.182 489.5 173.864L490.392 174.426C490.139 174.874 489.781 175.221 489.317 175.465C488.86 175.701 488.339 175.819 487.752 175.819ZM495.932 175.746V174.377L495.871 174.121V171.786C495.871 171.289 495.724 170.906 495.431 170.637C495.146 170.36 494.714 170.222 494.136 170.222C493.753 170.222 493.378 170.287 493.011 170.417C492.644 170.539 492.335 170.706 492.082 170.918L491.593 170.038C491.927 169.769 492.327 169.566 492.791 169.427C493.264 169.281 493.757 169.207 494.27 169.207C495.158 169.207 495.843 169.423 496.323 169.855C496.804 170.287 497.044 170.947 497.044 171.835V175.746H495.932ZM493.806 175.819C493.325 175.819 492.901 175.738 492.534 175.575C492.176 175.412 491.899 175.188 491.703 174.903C491.508 174.609 491.41 174.279 491.41 173.913C491.41 173.562 491.492 173.245 491.654 172.959C491.826 172.674 492.099 172.446 492.473 172.275C492.856 172.104 493.37 172.018 494.013 172.018H496.067V172.862H494.062C493.476 172.862 493.08 172.959 492.877 173.155C492.673 173.351 492.571 173.587 492.571 173.864C492.571 174.182 492.697 174.438 492.95 174.634C493.203 174.821 493.553 174.915 494.001 174.915C494.441 174.915 494.824 174.817 495.15 174.622C495.484 174.426 495.724 174.141 495.871 173.766L496.103 174.573C495.949 174.956 495.676 175.261 495.284 175.489C494.893 175.709 494.4 175.819 493.806 175.819ZM501.44 175.819C500.788 175.819 500.283 175.644 499.925 175.294C499.566 174.944 499.387 174.442 499.387 173.791V167.851H500.56V173.742C500.56 174.092 500.646 174.361 500.817 174.548C500.996 174.736 501.249 174.829 501.575 174.829C501.941 174.829 502.247 174.728 502.491 174.524L502.858 175.367C502.679 175.522 502.463 175.636 502.21 175.709C501.966 175.783 501.709 175.819 501.44 175.819ZM498.287 170.234V169.268H502.418V170.234H498.287ZM506.946 175.819C506.254 175.819 505.643 175.677 505.113 175.392C504.591 175.106 504.184 174.715 503.891 174.218C503.605 173.721 503.463 173.151 503.463 172.507C503.463 171.864 503.601 171.293 503.878 170.796C504.164 170.299 504.551 169.912 505.04 169.635C505.537 169.35 506.095 169.207 506.714 169.207C507.341 169.207 507.895 169.346 508.376 169.623C508.857 169.9 509.232 170.291 509.501 170.796C509.778 171.293 509.916 171.876 509.916 172.544C509.916 172.593 509.912 172.65 509.904 172.715C509.904 172.78 509.9 172.841 509.892 172.898H504.38V172.055H509.281L508.804 172.348C508.812 171.933 508.727 171.562 508.547 171.236C508.368 170.91 508.12 170.658 507.802 170.478C507.492 170.291 507.13 170.197 506.714 170.197C506.307 170.197 505.944 170.291 505.626 170.478C505.308 170.658 505.06 170.914 504.881 171.248C504.701 171.574 504.612 171.949 504.612 172.373V172.568C504.612 173 504.71 173.387 504.905 173.729C505.109 174.064 505.39 174.324 505.748 174.512C506.107 174.699 506.518 174.793 506.983 174.793C507.366 174.793 507.712 174.728 508.022 174.597C508.34 174.467 508.617 174.271 508.853 174.011L509.501 174.768C509.207 175.111 508.841 175.371 508.401 175.551C507.969 175.73 507.484 175.819 506.946 175.819ZM518.849 175.746V174.377L518.788 174.121V171.786C518.788 171.289 518.641 170.906 518.348 170.637C518.063 170.36 517.631 170.222 517.052 170.222C516.669 170.222 516.294 170.287 515.928 170.417C515.561 170.539 515.252 170.706 514.999 170.918L514.51 170.038C514.844 169.769 515.243 169.566 515.708 169.427C516.18 169.281 516.673 169.207 517.187 169.207C518.075 169.207 518.759 169.423 519.24 169.855C519.721 170.287 519.961 170.947 519.961 171.835V175.746H518.849ZM516.722 175.819C516.242 175.819 515.818 175.738 515.451 175.575C515.093 175.412 514.816 175.188 514.62 174.903C514.424 174.609 514.327 174.279 514.327 173.913C514.327 173.562 514.408 173.245 514.571 172.959C514.742 172.674 515.015 172.446 515.39 172.275C515.773 172.104 516.286 172.018 516.93 172.018H518.983V172.862H516.979C516.392 172.862 515.997 172.959 515.793 173.155C515.59 173.351 515.488 173.587 515.488 173.864C515.488 174.182 515.614 174.438 515.867 174.634C516.119 174.821 516.47 174.915 516.918 174.915C517.358 174.915 517.741 174.817 518.067 174.622C518.401 174.426 518.641 174.141 518.788 173.766L519.02 174.573C518.865 174.956 518.592 175.261 518.201 175.489C517.81 175.709 517.317 175.819 516.722 175.819ZM525.591 169.207C526.121 169.207 526.585 169.309 526.985 169.513C527.392 169.716 527.71 170.026 527.938 170.442C528.166 170.857 528.28 171.383 528.28 172.018V175.746H527.107V172.153C527.107 171.525 526.952 171.053 526.643 170.735C526.341 170.417 525.913 170.258 525.359 170.258C524.944 170.258 524.581 170.34 524.271 170.503C523.962 170.666 523.721 170.906 523.55 171.224C523.387 171.542 523.306 171.937 523.306 172.409V175.746H522.133V169.268H523.257V171.016L523.074 170.552C523.285 170.128 523.611 169.798 524.051 169.562C524.491 169.325 525.005 169.207 525.591 169.207ZM533.128 175.819C532.501 175.819 531.939 175.681 531.442 175.404C530.953 175.127 530.566 174.74 530.281 174.243C529.995 173.746 529.853 173.167 529.853 172.507C529.853 171.847 529.995 171.273 530.281 170.784C530.566 170.287 530.953 169.9 531.442 169.623C531.939 169.346 532.501 169.207 533.128 169.207C533.674 169.207 534.167 169.329 534.607 169.574C535.047 169.818 535.398 170.185 535.658 170.674C535.927 171.163 536.062 171.774 536.062 172.507C536.062 173.241 535.931 173.852 535.671 174.341C535.418 174.829 535.072 175.2 534.632 175.453C534.192 175.697 533.691 175.819 533.128 175.819ZM533.226 174.793C533.634 174.793 534 174.699 534.326 174.512C534.66 174.324 534.921 174.059 535.108 173.717C535.304 173.367 535.402 172.964 535.402 172.507C535.402 172.043 535.304 171.644 535.108 171.309C534.921 170.967 534.66 170.702 534.326 170.515C534 170.328 533.634 170.234 533.226 170.234C532.811 170.234 532.44 170.328 532.114 170.515C531.788 170.702 531.527 170.967 531.332 171.309C531.136 171.644 531.038 172.043 531.038 172.507C531.038 172.964 531.136 173.367 531.332 173.717C531.527 174.059 531.788 174.324 532.114 174.512C532.44 174.699 532.811 174.793 533.226 174.793ZM535.438 175.746V173.998L535.512 172.495L535.39 170.992V166.677H536.563V175.746H535.438ZM542.065 175.746V169.268H543.19V171.028L543.08 170.588C543.259 170.14 543.56 169.798 543.984 169.562C544.408 169.325 544.929 169.207 545.549 169.207V170.344C545.5 170.336 545.451 170.332 545.402 170.332C545.361 170.332 545.32 170.332 545.28 170.332C544.652 170.332 544.155 170.519 543.789 170.894C543.422 171.269 543.239 171.811 543.239 172.519V175.746H542.065ZM549.819 175.819C549.127 175.819 548.516 175.677 547.986 175.392C547.465 175.106 547.057 174.715 546.764 174.218C546.479 173.721 546.336 173.151 546.336 172.507C546.336 171.864 546.475 171.293 546.752 170.796C547.037 170.299 547.424 169.912 547.913 169.635C548.41 169.35 548.968 169.207 549.587 169.207C550.215 169.207 550.769 169.346 551.249 169.623C551.73 169.9 552.105 170.291 552.374 170.796C552.651 171.293 552.789 171.876 552.789 172.544C552.789 172.593 552.785 172.65 552.777 172.715C552.777 172.78 552.773 172.841 552.765 172.898H547.253V172.055H552.154L551.677 172.348C551.685 171.933 551.6 171.562 551.421 171.236C551.241 170.91 550.993 170.658 550.675 170.478C550.365 170.291 550.003 170.197 549.587 170.197C549.18 170.197 548.817 170.291 548.499 170.478C548.182 170.658 547.933 170.914 547.754 171.248C547.575 171.574 547.485 171.949 547.485 172.373V172.568C547.485 173 547.583 173.387 547.778 173.729C547.982 174.064 548.263 174.324 548.622 174.512C548.98 174.699 549.392 174.793 549.856 174.793C550.239 174.793 550.585 174.728 550.895 174.597C551.213 174.467 551.49 174.271 551.726 174.011L552.374 174.768C552.081 175.111 551.714 175.371 551.274 175.551C550.842 175.73 550.357 175.819 549.819 175.819ZM557.242 175.819C556.582 175.819 555.991 175.677 555.47 175.392C554.957 175.106 554.553 174.715 554.26 174.218C553.967 173.721 553.82 173.151 553.82 172.507C553.82 171.864 553.967 171.293 554.26 170.796C554.553 170.299 554.957 169.912 555.47 169.635C555.991 169.35 556.582 169.207 557.242 169.207C557.829 169.207 558.35 169.325 558.807 169.562C559.271 169.79 559.629 170.132 559.882 170.588L558.99 171.163C558.778 170.845 558.517 170.613 558.208 170.466C557.906 170.311 557.58 170.234 557.23 170.234C556.806 170.234 556.427 170.328 556.093 170.515C555.759 170.702 555.494 170.967 555.299 171.309C555.103 171.644 555.005 172.043 555.005 172.507C555.005 172.972 555.103 173.375 555.299 173.717C555.494 174.059 555.759 174.324 556.093 174.512C556.427 174.699 556.806 174.793 557.23 174.793C557.58 174.793 557.906 174.719 558.208 174.573C558.517 174.418 558.778 174.182 558.99 173.864L559.882 174.426C559.629 174.874 559.271 175.221 558.807 175.465C558.35 175.701 557.829 175.819 557.242 175.819ZM564.08 175.819C563.428 175.819 562.85 175.677 562.345 175.392C561.839 175.106 561.44 174.715 561.147 174.218C560.853 173.713 560.707 173.143 560.707 172.507C560.707 171.864 560.853 171.293 561.147 170.796C561.44 170.299 561.839 169.912 562.345 169.635C562.85 169.35 563.428 169.207 564.08 169.207C564.724 169.207 565.298 169.35 565.803 169.635C566.317 169.912 566.716 170.299 567.001 170.796C567.295 171.285 567.441 171.855 567.441 172.507C567.441 173.151 567.295 173.721 567.001 174.218C566.716 174.715 566.317 175.106 565.803 175.392C565.298 175.677 564.724 175.819 564.08 175.819ZM564.08 174.793C564.496 174.793 564.866 174.699 565.192 174.512C565.526 174.324 565.787 174.059 565.975 173.717C566.162 173.367 566.256 172.964 566.256 172.507C566.256 172.043 566.162 171.644 565.975 171.309C565.787 170.967 565.526 170.702 565.192 170.515C564.866 170.328 564.496 170.234 564.08 170.234C563.665 170.234 563.294 170.328 562.968 170.515C562.642 170.702 562.381 170.967 562.186 171.309C561.99 171.644 561.892 172.043 561.892 172.507C561.892 172.964 561.99 173.367 562.186 173.717C562.381 174.059 562.642 174.324 562.968 174.512C563.294 174.699 563.665 174.793 564.08 174.793ZM569.064 175.746V169.268H570.188V171.028L570.078 170.588C570.258 170.14 570.559 169.798 570.983 169.562C571.407 169.325 571.928 169.207 572.547 169.207V170.344C572.498 170.336 572.449 170.332 572.401 170.332C572.36 170.332 572.319 170.332 572.278 170.332C571.651 170.332 571.154 170.519 570.787 170.894C570.421 171.269 570.237 171.811 570.237 172.519V175.746H569.064ZM576.61 175.819C575.983 175.819 575.421 175.681 574.924 175.404C574.435 175.127 574.048 174.74 573.763 174.243C573.477 173.746 573.335 173.167 573.335 172.507C573.335 171.847 573.477 171.273 573.763 170.784C574.048 170.287 574.435 169.9 574.924 169.623C575.421 169.346 575.983 169.207 576.61 169.207C577.156 169.207 577.649 169.329 578.089 169.574C578.529 169.818 578.88 170.185 579.14 170.674C579.409 171.163 579.544 171.774 579.544 172.507C579.544 173.241 579.413 173.852 579.153 174.341C578.9 174.829 578.554 175.2 578.114 175.453C577.674 175.697 577.173 175.819 576.61 175.819ZM576.708 174.793C577.116 174.793 577.482 174.699 577.808 174.512C578.142 174.324 578.403 174.059 578.59 173.717C578.786 173.367 578.884 172.964 578.884 172.507C578.884 172.043 578.786 171.644 578.59 171.309C578.403 170.967 578.142 170.702 577.808 170.515C577.482 170.328 577.116 170.234 576.708 170.234C576.293 170.234 575.922 170.328 575.596 170.515C575.27 170.702 575.009 170.967 574.814 171.309C574.618 171.644 574.52 172.043 574.52 172.507C574.52 172.964 574.618 173.367 574.814 173.717C575.009 174.059 575.27 174.324 575.596 174.512C575.922 174.699 576.293 174.793 576.708 174.793ZM578.92 175.746V173.998L578.994 172.495L578.872 170.992V166.677H580.045V175.746H578.92ZM586.916 175.746L584.508 169.268H585.621L587.759 175.135H587.234L589.458 169.268H590.448L592.624 175.135H592.111L594.298 169.268H595.349L592.929 175.746H591.805L589.764 170.393H590.106L588.041 175.746H586.916ZM596.54 175.746V169.268H597.713V175.746H596.54ZM597.127 168.022C596.899 168.022 596.707 167.948 596.552 167.802C596.406 167.655 596.332 167.476 596.332 167.264C596.332 167.044 596.406 166.861 596.552 166.714C596.707 166.567 596.899 166.494 597.127 166.494C597.355 166.494 597.542 166.567 597.689 166.714C597.844 166.852 597.921 167.028 597.921 167.239C597.921 167.459 597.848 167.647 597.701 167.802C597.555 167.948 597.363 168.022 597.127 168.022ZM602.178 175.819C601.526 175.819 601.021 175.644 600.663 175.294C600.304 174.944 600.125 174.442 600.125 173.791V167.851H601.298V173.742C601.298 174.092 601.384 174.361 601.555 174.548C601.734 174.736 601.987 174.829 602.313 174.829C602.679 174.829 602.985 174.728 603.229 174.524L603.596 175.367C603.417 175.522 603.201 175.636 602.948 175.709C602.704 175.783 602.447 175.819 602.178 175.819ZM599.025 170.234V169.268H603.156V170.234H599.025ZM608.473 169.207C609.003 169.207 609.467 169.309 609.867 169.513C610.274 169.716 610.592 170.026 610.82 170.442C611.048 170.857 611.162 171.383 611.162 172.018V175.746H609.989V172.153C609.989 171.525 609.834 171.053 609.524 170.735C609.223 170.417 608.795 170.258 608.241 170.258C607.826 170.258 607.463 170.34 607.153 170.503C606.844 170.666 606.603 170.906 606.432 171.224C606.269 171.542 606.188 171.937 606.188 172.409V175.746H605.014V166.677H606.188V171.016L605.956 170.552C606.167 170.128 606.493 169.798 606.933 169.562C607.373 169.325 607.887 169.207 608.473 169.207ZM616.616 175.746V169.268H617.74V171.028L617.63 170.588C617.81 170.14 618.111 169.798 618.535 169.562C618.959 169.325 619.48 169.207 620.099 169.207V170.344C620.05 170.336 620.002 170.332 619.953 170.332C619.912 170.332 619.871 170.332 619.83 170.332C619.203 170.332 618.706 170.519 618.339 170.894C617.973 171.269 617.789 171.811 617.789 172.519V175.746H616.616ZM624.355 175.819C623.801 175.819 623.312 175.718 622.888 175.514C622.472 175.31 622.146 175.001 621.91 174.585C621.682 174.161 621.568 173.632 621.568 172.996V169.268H622.741V172.862C622.741 173.497 622.892 173.974 623.193 174.292C623.503 174.609 623.935 174.768 624.489 174.768C624.896 174.768 625.251 174.687 625.552 174.524C625.854 174.353 626.086 174.108 626.249 173.791C626.412 173.465 626.493 173.074 626.493 172.617V169.268H627.667V175.746H626.555V173.998L626.738 174.463C626.526 174.895 626.208 175.229 625.785 175.465C625.361 175.701 624.884 175.819 624.355 175.819ZM633.359 169.207C633.889 169.207 634.353 169.309 634.753 169.513C635.16 169.716 635.478 170.026 635.706 170.442C635.934 170.857 636.048 171.383 636.048 172.018V175.746H634.875V172.153C634.875 171.525 634.72 171.053 634.411 170.735C634.109 170.417 633.681 170.258 633.127 170.258C632.712 170.258 632.349 170.34 632.039 170.503C631.73 170.666 631.489 170.906 631.318 171.224C631.155 171.542 631.074 171.937 631.074 172.409V175.746H629.901V169.268H631.025V171.016L630.842 170.552C631.053 170.128 631.379 169.798 631.819 169.562C632.259 169.325 632.773 169.207 633.359 169.207ZM641.679 169.207C642.208 169.207 642.673 169.309 643.072 169.513C643.479 169.716 643.797 170.026 644.025 170.442C644.253 170.857 644.368 171.383 644.368 172.018V175.746H643.194V172.153C643.194 171.525 643.039 171.053 642.73 170.735C642.428 170.417 642 170.258 641.446 170.258C641.031 170.258 640.668 170.34 640.359 170.503C640.049 170.666 639.809 170.906 639.638 171.224C639.475 171.542 639.393 171.937 639.393 172.409V175.746H638.22V169.268H639.344V171.016L639.161 170.552C639.373 170.128 639.699 169.798 640.139 169.562C640.579 169.325 641.092 169.207 641.679 169.207ZM649.423 175.819C648.731 175.819 648.12 175.677 647.59 175.392C647.069 175.106 646.661 174.715 646.368 174.218C646.083 173.721 645.94 173.151 645.94 172.507C645.94 171.864 646.079 171.293 646.356 170.796C646.641 170.299 647.028 169.912 647.517 169.635C648.014 169.35 648.572 169.207 649.191 169.207C649.819 169.207 650.373 169.346 650.853 169.623C651.334 169.9 651.709 170.291 651.978 170.796C652.255 171.293 652.393 171.876 652.393 172.544C652.393 172.593 652.389 172.65 652.381 172.715C652.381 172.78 652.377 172.841 652.369 172.898H646.857V172.055H651.758L651.281 172.348C651.289 171.933 651.204 171.562 651.025 171.236C650.845 170.91 650.597 170.658 650.279 170.478C649.969 170.291 649.607 170.197 649.191 170.197C648.784 170.197 648.421 170.291 648.103 170.478C647.786 170.658 647.537 170.914 647.358 171.248C647.179 171.574 647.089 171.949 647.089 172.373V172.568C647.089 173 647.187 173.387 647.382 173.729C647.586 174.064 647.867 174.324 648.226 174.512C648.584 174.699 648.996 174.793 649.46 174.793C649.843 174.793 650.189 174.728 650.499 174.597C650.817 174.467 651.094 174.271 651.33 174.011L651.978 174.768C651.685 175.111 651.318 175.371 650.878 175.551C650.446 175.73 649.961 175.819 649.423 175.819ZM654.023 175.746V169.268H655.147V171.028L655.037 170.588C655.216 170.14 655.518 169.798 655.942 169.562C656.365 169.325 656.887 169.207 657.506 169.207V170.344C657.457 170.336 657.408 170.332 657.359 170.332C657.319 170.332 657.278 170.332 657.237 170.332C656.61 170.332 656.113 170.519 655.746 170.894C655.379 171.269 655.196 171.811 655.196 172.519V175.746H654.023ZM660.882 175.819C660.344 175.819 659.83 175.746 659.342 175.599C658.861 175.453 658.482 175.274 658.205 175.062L658.694 174.133C658.971 174.32 659.313 174.479 659.72 174.609C660.128 174.74 660.543 174.805 660.967 174.805C661.513 174.805 661.904 174.728 662.14 174.573C662.385 174.418 662.507 174.202 662.507 173.925C662.507 173.721 662.434 173.562 662.287 173.448C662.14 173.334 661.945 173.249 661.7 173.192C661.464 173.135 661.199 173.086 660.906 173.045C660.613 172.996 660.319 172.939 660.026 172.874C659.733 172.801 659.464 172.703 659.219 172.581C658.975 172.45 658.779 172.275 658.633 172.055C658.486 171.827 658.413 171.525 658.413 171.151C658.413 170.759 658.523 170.417 658.743 170.124C658.963 169.831 659.272 169.606 659.672 169.452C660.079 169.289 660.56 169.207 661.114 169.207C661.537 169.207 661.965 169.26 662.397 169.366C662.837 169.464 663.196 169.606 663.473 169.794L662.972 170.723C662.678 170.527 662.373 170.393 662.055 170.319C661.737 170.246 661.419 170.209 661.102 170.209C660.588 170.209 660.205 170.295 659.953 170.466C659.7 170.629 659.574 170.841 659.574 171.102C659.574 171.322 659.647 171.493 659.794 171.615C659.949 171.729 660.144 171.819 660.38 171.884C660.625 171.949 660.894 172.006 661.187 172.055C661.48 172.096 661.774 172.153 662.067 172.226C662.36 172.291 662.625 172.385 662.862 172.507C663.106 172.629 663.302 172.801 663.448 173.021C663.603 173.241 663.68 173.534 663.68 173.901C663.68 174.292 663.566 174.63 663.338 174.915C663.11 175.2 662.788 175.424 662.373 175.587C661.957 175.742 661.46 175.819 660.882 175.819Z" fill="#FAF1E7"/>
<path d="M799.22 186.223V177.667H802.557C803.306 177.667 803.946 177.785 804.475 178.022C805.005 178.258 805.412 178.6 805.698 179.048C805.983 179.496 806.125 180.03 806.125 180.649C806.125 181.269 805.983 181.802 805.698 182.25C805.412 182.69 805.005 183.033 804.475 183.277C803.946 183.513 803.306 183.632 802.557 183.632H799.892L800.442 183.057V186.223H799.22ZM800.442 183.179L799.892 182.568H802.52C803.302 182.568 803.893 182.401 804.292 182.067C804.699 181.733 804.903 181.26 804.903 180.649C804.903 180.038 804.699 179.566 804.292 179.232C803.893 178.897 803.302 178.73 802.52 178.73H799.892L800.442 178.119V183.179ZM811.711 186.223V184.854L811.65 184.597V182.263C811.65 181.766 811.504 181.383 811.21 181.114C810.925 180.837 810.493 180.698 809.915 180.698C809.532 180.698 809.157 180.763 808.79 180.894C808.424 181.016 808.114 181.183 807.861 181.395L807.372 180.515C807.707 180.246 808.106 180.042 808.57 179.904C809.043 179.757 809.536 179.684 810.049 179.684C810.937 179.684 811.622 179.9 812.102 180.332C812.583 180.763 812.824 181.423 812.824 182.312V186.223H811.711ZM809.585 186.296C809.104 186.296 808.68 186.215 808.314 186.052C807.955 185.889 807.678 185.665 807.482 185.379C807.287 185.086 807.189 184.756 807.189 184.389C807.189 184.039 807.271 183.721 807.434 183.436C807.605 183.151 807.878 182.923 808.252 182.752C808.635 182.58 809.149 182.495 809.792 182.495H811.846V183.338H809.841C809.255 183.338 808.859 183.436 808.656 183.632C808.452 183.827 808.35 184.063 808.35 184.34C808.35 184.658 808.477 184.915 808.729 185.11C808.982 185.298 809.332 185.392 809.78 185.392C810.22 185.392 810.603 185.294 810.929 185.098C811.263 184.903 811.504 184.617 811.65 184.243L811.882 185.049C811.728 185.432 811.455 185.738 811.064 185.966C810.672 186.186 810.179 186.296 809.585 186.296ZM814.995 186.223V179.745H816.119V181.505L816.009 181.065C816.189 180.617 816.49 180.275 816.914 180.038C817.338 179.802 817.859 179.684 818.478 179.684V180.82C818.429 180.812 818.38 180.808 818.332 180.808C818.291 180.808 818.25 180.808 818.209 180.808C817.582 180.808 817.085 180.996 816.718 181.37C816.352 181.745 816.168 182.287 816.168 182.996V186.223H814.995ZM822.411 186.296C821.76 186.296 821.254 186.121 820.896 185.77C820.537 185.42 820.358 184.919 820.358 184.267V178.327H821.531V184.218C821.531 184.569 821.617 184.837 821.788 185.025C821.967 185.212 822.22 185.306 822.546 185.306C822.913 185.306 823.218 185.204 823.463 185L823.829 185.844C823.65 185.999 823.434 186.113 823.181 186.186C822.937 186.259 822.68 186.296 822.411 186.296ZM819.258 180.71V179.745H823.389V180.71H819.258ZM825.248 186.223V179.745H826.421V186.223H825.248ZM825.834 178.498C825.606 178.498 825.415 178.425 825.26 178.278C825.113 178.132 825.04 177.952 825.04 177.74C825.04 177.52 825.113 177.337 825.26 177.19C825.415 177.044 825.606 176.97 825.834 176.97C826.063 176.97 826.25 177.044 826.397 177.19C826.551 177.329 826.629 177.504 826.629 177.716C826.629 177.936 826.556 178.123 826.409 178.278C826.262 178.425 826.071 178.498 825.834 178.498ZM831.485 186.296C830.825 186.296 830.234 186.153 829.712 185.868C829.199 185.583 828.796 185.192 828.502 184.695C828.209 184.198 828.062 183.627 828.062 182.984C828.062 182.34 828.209 181.77 828.502 181.273C828.796 180.776 829.199 180.389 829.712 180.112C830.234 179.826 830.825 179.684 831.485 179.684C832.071 179.684 832.593 179.802 833.049 180.038C833.514 180.266 833.872 180.609 834.125 181.065L833.232 181.639C833.021 181.322 832.76 181.089 832.45 180.943C832.149 180.788 831.823 180.71 831.472 180.71C831.049 180.71 830.67 180.804 830.336 180.992C830.002 181.179 829.737 181.444 829.541 181.786C829.346 182.12 829.248 182.519 829.248 182.984C829.248 183.448 829.346 183.852 829.541 184.194C829.737 184.536 830.002 184.801 830.336 184.988C830.67 185.176 831.049 185.269 831.472 185.269C831.823 185.269 832.149 185.196 832.45 185.049C832.76 184.895 833.021 184.658 833.232 184.34L834.125 184.903C833.872 185.351 833.514 185.697 833.049 185.942C832.593 186.178 832.071 186.296 831.485 186.296ZM835.56 186.223V179.745H836.734V186.223H835.56ZM836.147 178.498C835.919 178.498 835.727 178.425 835.572 178.278C835.426 178.132 835.352 177.952 835.352 177.74C835.352 177.52 835.426 177.337 835.572 177.19C835.727 177.044 835.919 176.97 836.147 176.97C836.375 176.97 836.562 177.044 836.709 177.19C836.864 177.329 836.941 177.504 836.941 177.716C836.941 177.936 836.868 178.123 836.721 178.278C836.575 178.425 836.383 178.498 836.147 178.498ZM842.408 186.296C841.871 186.296 841.378 186.174 840.929 185.929C840.489 185.677 840.135 185.306 839.866 184.817C839.605 184.328 839.475 183.717 839.475 182.984C839.475 182.25 839.601 181.639 839.854 181.15C840.115 180.662 840.465 180.295 840.905 180.05C841.353 179.806 841.854 179.684 842.408 179.684C843.044 179.684 843.606 179.822 844.095 180.099C844.584 180.376 844.971 180.763 845.256 181.26C845.541 181.749 845.684 182.324 845.684 182.984C845.684 183.644 845.541 184.222 845.256 184.719C844.971 185.216 844.584 185.603 844.095 185.88C843.606 186.157 843.044 186.296 842.408 186.296ZM838.974 188.594V179.745H840.098V181.493L840.025 182.996L840.147 184.499V188.594H838.974ZM842.311 185.269C842.726 185.269 843.097 185.176 843.423 184.988C843.757 184.801 844.018 184.536 844.205 184.194C844.401 183.843 844.498 183.44 844.498 182.984C844.498 182.519 844.401 182.12 844.205 181.786C844.018 181.444 843.757 181.179 843.423 180.992C843.097 180.804 842.726 180.71 842.311 180.71C841.903 180.71 841.532 180.804 841.198 180.992C840.872 181.179 840.612 181.444 840.416 181.786C840.229 182.12 840.135 182.519 840.135 182.984C840.135 183.44 840.229 183.843 840.416 184.194C840.612 184.536 840.872 184.801 841.198 184.988C841.532 185.176 841.903 185.269 842.311 185.269ZM851.266 186.223V184.854L851.205 184.597V182.263C851.205 181.766 851.059 181.383 850.765 181.114C850.48 180.837 850.048 180.698 849.47 180.698C849.087 180.698 848.712 180.763 848.345 180.894C847.979 181.016 847.669 181.183 847.416 181.395L846.928 180.515C847.262 180.246 847.661 180.042 848.125 179.904C848.598 179.757 849.091 179.684 849.604 179.684C850.492 179.684 851.177 179.9 851.658 180.332C852.138 180.763 852.379 181.423 852.379 182.312V186.223H851.266ZM849.14 186.296C848.659 186.296 848.235 186.215 847.869 186.052C847.51 185.889 847.233 185.665 847.038 185.379C846.842 185.086 846.744 184.756 846.744 184.389C846.744 184.039 846.826 183.721 846.989 183.436C847.16 183.151 847.433 182.923 847.808 182.752C848.191 182.58 848.704 182.495 849.348 182.495H851.401V183.338H849.396C848.81 183.338 848.415 183.436 848.211 183.632C848.007 183.827 847.905 184.063 847.905 184.34C847.905 184.658 848.032 184.915 848.284 185.11C848.537 185.298 848.887 185.392 849.335 185.392C849.775 185.392 850.158 185.294 850.484 185.098C850.818 184.903 851.059 184.617 851.205 184.243L851.438 185.049C851.283 185.432 851.01 185.738 850.619 185.966C850.228 186.186 849.735 186.296 849.14 186.296ZM856.774 186.296C856.123 186.296 855.617 186.121 855.259 185.77C854.9 185.42 854.721 184.919 854.721 184.267V178.327H855.894V184.218C855.894 184.569 855.98 184.837 856.151 185.025C856.33 185.212 856.583 185.306 856.909 185.306C857.276 185.306 857.581 185.204 857.826 185L858.192 185.844C858.013 185.999 857.797 186.113 857.544 186.186C857.3 186.259 857.043 186.296 856.774 186.296ZM853.621 180.71V179.745H857.752V180.71H853.621ZM862.28 186.296C861.588 186.296 860.977 186.153 860.447 185.868C859.926 185.583 859.518 185.192 859.225 184.695C858.94 184.198 858.797 183.627 858.797 182.984C858.797 182.34 858.936 181.77 859.213 181.273C859.498 180.776 859.885 180.389 860.374 180.112C860.871 179.826 861.429 179.684 862.048 179.684C862.676 179.684 863.23 179.822 863.71 180.099C864.191 180.376 864.566 180.767 864.835 181.273C865.112 181.77 865.25 182.352 865.25 183.02C865.25 183.069 865.246 183.126 865.238 183.192C865.238 183.257 865.234 183.318 865.226 183.375H859.714V182.532H864.615L864.138 182.825C864.146 182.409 864.061 182.039 863.882 181.713C863.702 181.387 863.454 181.134 863.136 180.955C862.826 180.767 862.464 180.674 862.048 180.674C861.641 180.674 861.278 180.767 860.96 180.955C860.643 181.134 860.394 181.391 860.215 181.725C860.036 182.051 859.946 182.426 859.946 182.849V183.045C859.946 183.477 860.044 183.864 860.239 184.206C860.443 184.54 860.724 184.801 861.083 184.988C861.441 185.176 861.853 185.269 862.317 185.269C862.7 185.269 863.046 185.204 863.356 185.074C863.674 184.943 863.951 184.748 864.187 184.487L864.835 185.245C864.542 185.587 864.175 185.848 863.735 186.027C863.303 186.206 862.818 186.296 862.28 186.296ZM870.162 186.223V179.745H871.335V186.223H870.162ZM870.749 178.498C870.521 178.498 870.329 178.425 870.174 178.278C870.028 178.132 869.954 177.952 869.954 177.74C869.954 177.52 870.028 177.337 870.174 177.19C870.329 177.044 870.521 176.97 870.749 176.97C870.977 176.97 871.164 177.044 871.311 177.19C871.466 177.329 871.543 177.504 871.543 177.716C871.543 177.936 871.47 178.123 871.323 178.278C871.176 178.425 870.985 178.498 870.749 178.498ZM877.035 179.684C877.564 179.684 878.029 179.786 878.428 179.989C878.835 180.193 879.153 180.503 879.381 180.918C879.609 181.334 879.723 181.859 879.723 182.495V186.223H878.55V182.629C878.55 182.002 878.395 181.529 878.086 181.212C877.784 180.894 877.356 180.735 876.802 180.735C876.387 180.735 876.024 180.816 875.715 180.979C875.405 181.142 875.165 181.383 874.993 181.7C874.83 182.018 874.749 182.413 874.749 182.886V186.223H873.576V179.745H874.7V181.493L874.517 181.028C874.729 180.605 875.055 180.275 875.495 180.038C875.935 179.802 876.448 179.684 877.035 179.684ZM887.402 186.296C886.75 186.296 886.245 186.121 885.886 185.77C885.528 185.42 885.348 184.919 885.348 184.267V178.327H886.522V184.218C886.522 184.569 886.607 184.837 886.778 185.025C886.958 185.212 887.21 185.306 887.536 185.306C887.903 185.306 888.208 185.204 888.453 185L888.819 185.844C888.64 185.999 888.424 186.113 888.172 186.186C887.927 186.259 887.671 186.296 887.402 186.296ZM884.248 180.71V179.745H888.379V180.71H884.248ZM893.697 179.684C894.227 179.684 894.691 179.786 895.09 179.989C895.498 180.193 895.815 180.503 896.044 180.918C896.272 181.334 896.386 181.859 896.386 182.495V186.223H895.212V182.629C895.212 182.002 895.058 181.529 894.748 181.212C894.447 180.894 894.019 180.735 893.465 180.735C893.049 180.735 892.687 180.816 892.377 180.979C892.067 181.142 891.827 181.383 891.656 181.7C891.493 182.018 891.411 182.413 891.411 182.886V186.223H890.238V177.154H891.411V181.493L891.179 181.028C891.391 180.605 891.717 180.275 892.157 180.038C892.597 179.802 893.11 179.684 893.697 179.684ZM901.442 186.296C900.749 186.296 900.138 186.153 899.608 185.868C899.087 185.583 898.679 185.192 898.386 184.695C898.101 184.198 897.958 183.627 897.958 182.984C897.958 182.34 898.097 181.77 898.374 181.273C898.659 180.776 899.046 180.389 899.535 180.112C900.032 179.826 900.59 179.684 901.209 179.684C901.837 179.684 902.391 179.822 902.872 180.099C903.352 180.376 903.727 180.767 903.996 181.273C904.273 181.77 904.412 182.352 904.412 183.02C904.412 183.069 904.408 183.126 904.399 183.192C904.399 183.257 904.395 183.318 904.387 183.375H898.875V182.532H903.776L903.299 182.825C903.308 182.409 903.222 182.039 903.043 181.713C902.864 181.387 902.615 181.134 902.297 180.955C901.988 180.767 901.625 180.674 901.209 180.674C900.802 180.674 900.439 180.767 900.122 180.955C899.804 181.134 899.555 181.391 899.376 181.725C899.197 182.051 899.107 182.426 899.107 182.849V183.045C899.107 183.477 899.205 183.864 899.401 184.206C899.604 184.54 899.885 184.801 900.244 184.988C900.602 185.176 901.014 185.269 901.478 185.269C901.861 185.269 902.208 185.204 902.517 185.074C902.835 184.943 903.112 184.748 903.348 184.487L903.996 185.245C903.703 185.587 903.336 185.848 902.896 186.027C902.464 186.206 901.979 186.296 901.442 186.296ZM917.427 179.684C917.948 179.684 918.408 179.786 918.808 179.989C919.207 180.193 919.517 180.503 919.737 180.918C919.965 181.334 920.079 181.859 920.079 182.495V186.223H918.905V182.629C918.905 182.002 918.759 181.529 918.465 181.212C918.172 180.894 917.761 180.735 917.231 180.735C916.84 180.735 916.498 180.816 916.204 180.979C915.911 181.142 915.683 181.383 915.52 181.7C915.365 182.018 915.288 182.413 915.288 182.886V186.223H914.114V182.629C914.114 182.002 913.968 181.529 913.674 181.212C913.389 180.894 912.978 180.735 912.44 180.735C912.057 180.735 911.719 180.816 911.425 180.979C911.132 181.142 910.904 181.383 910.741 181.7C910.578 182.018 910.497 182.413 910.497 182.886V186.223H909.323V179.745H910.448V181.468L910.264 181.028C910.468 180.605 910.782 180.275 911.205 180.038C911.629 179.802 912.122 179.684 912.684 179.684C913.304 179.684 913.837 179.839 914.285 180.148C914.734 180.45 915.027 180.91 915.165 181.529L914.689 181.334C914.884 180.837 915.227 180.437 915.715 180.136C916.204 179.835 916.775 179.684 917.427 179.684ZM926.259 186.223V184.854L926.198 184.597V182.263C926.198 181.766 926.051 181.383 925.758 181.114C925.473 180.837 925.041 180.698 924.462 180.698C924.079 180.698 923.704 180.763 923.338 180.894C922.971 181.016 922.661 181.183 922.409 181.395L921.92 180.515C922.254 180.246 922.653 180.042 923.118 179.904C923.59 179.757 924.083 179.684 924.597 179.684C925.485 179.684 926.169 179.9 926.65 180.332C927.131 180.763 927.371 181.423 927.371 182.312V186.223H926.259ZM924.132 186.296C923.651 186.296 923.228 186.215 922.861 186.052C922.503 185.889 922.226 185.665 922.03 185.379C921.834 185.086 921.737 184.756 921.737 184.389C921.737 184.039 921.818 183.721 921.981 183.436C922.152 183.151 922.425 182.923 922.8 182.752C923.183 182.58 923.696 182.495 924.34 182.495H926.393V183.338H924.389C923.802 183.338 923.407 183.436 923.203 183.632C923 183.827 922.898 184.063 922.898 184.34C922.898 184.658 923.024 184.915 923.277 185.11C923.529 185.298 923.88 185.392 924.328 185.392C924.768 185.392 925.151 185.294 925.477 185.098C925.811 184.903 926.051 184.617 926.198 184.243L926.43 185.049C926.275 185.432 926.002 185.738 925.611 185.966C925.22 186.186 924.727 186.296 924.132 186.296ZM929.542 186.223V179.745H930.667V181.505L930.557 181.065C930.736 180.617 931.038 180.275 931.461 180.038C931.885 179.802 932.407 179.684 933.026 179.684V180.82C932.977 180.812 932.928 180.808 932.879 180.808C932.838 180.808 932.798 180.808 932.757 180.808C932.129 180.808 931.632 180.996 931.266 181.37C930.899 181.745 930.716 182.287 930.716 182.996V186.223H929.542ZM938.016 186.223V184.854L937.954 184.597V182.263C937.954 181.766 937.808 181.383 937.514 181.114C937.229 180.837 936.797 180.698 936.219 180.698C935.836 180.698 935.461 180.763 935.094 180.894C934.728 181.016 934.418 181.183 934.166 181.395L933.677 180.515C934.011 180.246 934.41 180.042 934.874 179.904C935.347 179.757 935.84 179.684 936.353 179.684C937.242 179.684 937.926 179.9 938.407 180.332C938.887 180.763 939.128 181.423 939.128 182.312V186.223H938.016ZM935.889 186.296C935.408 186.296 934.984 186.215 934.618 186.052C934.259 185.889 933.982 185.665 933.787 185.379C933.591 185.086 933.493 184.756 933.493 184.389C933.493 184.039 933.575 183.721 933.738 183.436C933.909 183.151 934.182 182.923 934.557 182.752C934.94 182.58 935.453 182.495 936.097 182.495H938.15V183.338H936.146C935.559 183.338 935.164 183.436 934.96 183.632C934.756 183.827 934.654 184.063 934.654 184.34C934.654 184.658 934.781 184.915 935.033 185.11C935.286 185.298 935.636 185.392 936.084 185.392C936.524 185.392 936.907 185.294 937.233 185.098C937.567 184.903 937.808 184.617 937.954 184.243L938.187 185.049C938.032 185.432 937.759 185.738 937.368 185.966C936.977 186.186 936.484 186.296 935.889 186.296ZM943.524 186.296C942.872 186.296 942.367 186.121 942.008 185.77C941.65 185.42 941.47 184.919 941.47 184.267V178.327H942.644V184.218C942.644 184.569 942.729 184.837 942.9 185.025C943.08 185.212 943.332 185.306 943.658 185.306C944.025 185.306 944.33 185.204 944.575 185L944.941 185.844C944.762 185.999 944.546 186.113 944.294 186.186C944.049 186.259 943.793 186.296 943.524 186.296ZM940.37 180.71V179.745H944.501V180.71H940.37ZM949.819 179.684C950.348 179.684 950.813 179.786 951.212 179.989C951.62 180.193 951.937 180.503 952.166 180.918C952.394 181.334 952.508 181.859 952.508 182.495V186.223H951.334V182.629C951.334 182.002 951.18 181.529 950.87 181.212C950.568 180.894 950.141 180.735 949.587 180.735C949.171 180.735 948.808 180.816 948.499 180.979C948.189 181.142 947.949 181.383 947.778 181.7C947.615 182.018 947.533 182.413 947.533 182.886V186.223H946.36V177.154H947.533V181.493L947.301 181.028C947.513 180.605 947.839 180.275 948.279 180.038C948.719 179.802 949.232 179.684 949.819 179.684ZM957.454 186.296C956.802 186.296 956.223 186.153 955.718 185.868C955.213 185.583 954.814 185.192 954.52 184.695C954.227 184.19 954.08 183.619 954.08 182.984C954.08 182.34 954.227 181.77 954.52 181.273C954.814 180.776 955.213 180.389 955.718 180.112C956.223 179.826 956.802 179.684 957.454 179.684C958.097 179.684 958.672 179.826 959.177 180.112C959.69 180.389 960.09 180.776 960.375 181.273C960.668 181.762 960.815 182.332 960.815 182.984C960.815 183.627 960.668 184.198 960.375 184.695C960.09 185.192 959.69 185.583 959.177 185.868C958.672 186.153 958.097 186.296 957.454 186.296ZM957.454 185.269C957.869 185.269 958.24 185.176 958.566 184.988C958.9 184.801 959.161 184.536 959.348 184.194C959.535 183.843 959.629 183.44 959.629 182.984C959.629 182.519 959.535 182.12 959.348 181.786C959.161 181.444 958.9 181.179 958.566 180.992C958.24 180.804 957.869 180.71 957.454 180.71C957.038 180.71 956.667 180.804 956.341 180.992C956.015 181.179 955.755 181.444 955.559 181.786C955.364 182.12 955.266 182.519 955.266 182.984C955.266 183.44 955.364 183.843 955.559 184.194C955.755 184.536 956.015 184.801 956.341 184.988C956.667 185.176 957.038 185.269 957.454 185.269ZM965.896 179.684C966.426 179.684 966.89 179.786 967.29 179.989C967.697 180.193 968.015 180.503 968.243 180.918C968.471 181.334 968.585 181.859 968.585 182.495V186.223H967.412V182.629C967.412 182.002 967.257 181.529 966.947 181.212C966.646 180.894 966.218 180.735 965.664 180.735C965.249 180.735 964.886 180.816 964.576 180.979C964.267 181.142 964.026 181.383 963.855 181.7C963.692 182.018 963.611 182.413 963.611 182.886V186.223H962.437V179.745H963.562V181.493L963.379 181.028C963.59 180.605 963.916 180.275 964.356 180.038C964.796 179.802 965.31 179.684 965.896 179.684ZM978.06 186.223V184.854L977.999 184.597V182.263C977.999 181.766 977.852 181.383 977.559 181.114C977.274 180.837 976.842 180.698 976.263 180.698C975.88 180.698 975.506 180.763 975.139 180.894C974.772 181.016 974.463 181.183 974.21 181.395L973.721 180.515C974.055 180.246 974.455 180.042 974.919 179.904C975.392 179.757 975.885 179.684 976.398 179.684C977.286 179.684 977.97 179.9 978.451 180.332C978.932 180.763 979.172 181.423 979.172 182.312V186.223H978.06ZM975.933 186.296C975.453 186.296 975.029 186.215 974.662 186.052C974.304 185.889 974.027 185.665 973.831 185.379C973.636 185.086 973.538 184.756 973.538 184.389C973.538 184.039 973.619 183.721 973.782 183.436C973.953 183.151 974.226 182.923 974.601 182.752C974.984 182.58 975.497 182.495 976.141 182.495H978.195V183.338H976.19C975.603 183.338 975.208 183.436 975.005 183.632C974.801 183.827 974.699 184.063 974.699 184.34C974.699 184.658 974.825 184.915 975.078 185.11C975.33 185.298 975.681 185.392 976.129 185.392C976.569 185.392 976.952 185.294 977.278 185.098C977.612 184.903 977.852 184.617 977.999 184.243L978.231 185.049C978.076 185.432 977.803 185.738 977.412 185.966C977.021 186.186 976.528 186.296 975.933 186.296ZM984.803 179.684C985.332 179.684 985.797 179.786 986.196 179.989C986.603 180.193 986.921 180.503 987.149 180.918C987.377 181.334 987.491 181.859 987.491 182.495V186.223H986.318V182.629C986.318 182.002 986.163 181.529 985.854 181.212C985.552 180.894 985.124 180.735 984.57 180.735C984.155 180.735 983.792 180.816 983.483 180.979C983.173 181.142 982.933 181.383 982.761 181.7C982.598 182.018 982.517 182.413 982.517 182.886V186.223H981.344V179.745H982.468V181.493L982.285 181.028C982.497 180.605 982.823 180.275 983.263 180.038C983.703 179.802 984.216 179.684 984.803 179.684ZM992.34 186.296C991.712 186.296 991.15 186.157 990.653 185.88C990.164 185.603 989.777 185.216 989.492 184.719C989.207 184.222 989.064 183.644 989.064 182.984C989.064 182.324 989.207 181.749 989.492 181.26C989.777 180.763 990.164 180.376 990.653 180.099C991.15 179.822 991.712 179.684 992.34 179.684C992.885 179.684 993.378 179.806 993.818 180.05C994.258 180.295 994.609 180.662 994.87 181.15C995.138 181.639 995.273 182.25 995.273 182.984C995.273 183.717 995.143 184.328 994.882 184.817C994.629 185.306 994.283 185.677 993.843 185.929C993.403 186.174 992.902 186.296 992.34 186.296ZM992.437 185.269C992.845 185.269 993.211 185.176 993.537 184.988C993.871 184.801 994.132 184.536 994.32 184.194C994.515 183.843 994.613 183.44 994.613 182.984C994.613 182.519 994.515 182.12 994.32 181.786C994.132 181.444 993.871 181.179 993.537 180.992C993.211 180.804 992.845 180.71 992.437 180.71C992.022 180.71 991.651 180.804 991.325 180.992C990.999 181.179 990.738 181.444 990.543 181.786C990.347 182.12 990.25 182.519 990.25 182.984C990.25 183.44 990.347 183.843 990.543 184.194C990.738 184.536 990.999 184.801 991.325 184.988C991.651 185.176 992.022 185.269 992.437 185.269ZM994.65 186.223V184.475L994.723 182.972L994.601 181.468V177.154H995.774V186.223H994.65ZM1003.13 186.296C1002.6 186.296 1002.08 186.223 1001.59 186.076C1001.11 185.929 1000.73 185.75 1000.46 185.538L1000.95 184.609C1001.22 184.797 1001.57 184.956 1001.97 185.086C1002.38 185.216 1002.8 185.282 1003.22 185.282C1003.77 185.282 1004.16 185.204 1004.39 185.049C1004.64 184.895 1004.76 184.679 1004.76 184.402C1004.76 184.198 1004.69 184.039 1004.54 183.925C1004.39 183.811 1004.2 183.725 1003.95 183.668C1003.72 183.611 1003.45 183.562 1003.16 183.522C1002.87 183.473 1002.57 183.416 1002.28 183.35C1001.99 183.277 1001.72 183.179 1001.47 183.057C1001.23 182.927 1001.03 182.752 1000.89 182.532C1000.74 182.303 1000.67 182.002 1000.67 181.627C1000.67 181.236 1000.78 180.894 1001 180.6C1001.22 180.307 1001.52 180.083 1001.92 179.928C1002.33 179.765 1002.81 179.684 1003.37 179.684C1003.79 179.684 1004.22 179.737 1004.65 179.843C1005.09 179.94 1005.45 180.083 1005.73 180.27L1005.22 181.199C1004.93 181.004 1004.63 180.869 1004.31 180.796C1003.99 180.723 1003.67 180.686 1003.35 180.686C1002.84 180.686 1002.46 180.772 1002.21 180.943C1001.95 181.106 1001.83 181.317 1001.83 181.578C1001.83 181.798 1001.9 181.969 1002.05 182.092C1002.2 182.206 1002.4 182.295 1002.63 182.36C1002.88 182.426 1003.15 182.483 1003.44 182.532C1003.73 182.572 1004.03 182.629 1004.32 182.703C1004.61 182.768 1004.88 182.862 1005.11 182.984C1005.36 183.106 1005.55 183.277 1005.7 183.497C1005.86 183.717 1005.93 184.01 1005.93 184.377C1005.93 184.768 1005.82 185.106 1005.59 185.392C1005.36 185.677 1005.04 185.901 1004.63 186.064C1004.21 186.219 1003.71 186.296 1003.13 186.296ZM1010.86 179.684C1011.39 179.684 1011.85 179.786 1012.25 179.989C1012.66 180.193 1012.98 180.503 1013.2 180.918C1013.43 181.334 1013.55 181.859 1013.55 182.495V186.223H1012.37V182.629C1012.37 182.002 1012.22 181.529 1011.91 181.212C1011.61 180.894 1011.18 180.735 1010.63 180.735C1010.21 180.735 1009.85 180.816 1009.54 180.979C1009.23 181.142 1008.99 181.383 1008.82 181.7C1008.65 182.018 1008.57 182.413 1008.57 182.886V186.223H1007.4V177.154H1008.57V181.493L1008.34 181.028C1008.55 180.605 1008.88 180.275 1009.32 180.038C1009.76 179.802 1010.27 179.684 1010.86 179.684ZM1015.72 186.223V179.745H1016.89V186.223H1015.72ZM1016.31 178.498C1016.08 178.498 1015.89 178.425 1015.73 178.278C1015.58 178.132 1015.51 177.952 1015.51 177.74C1015.51 177.52 1015.58 177.337 1015.73 177.19C1015.89 177.044 1016.08 176.97 1016.31 176.97C1016.53 176.97 1016.72 177.044 1016.87 177.19C1017.02 177.329 1017.1 177.504 1017.1 177.716C1017.1 177.936 1017.03 178.123 1016.88 178.278C1016.73 178.425 1016.54 178.498 1016.31 178.498ZM1022.59 179.684C1023.12 179.684 1023.59 179.786 1023.98 179.989C1024.39 180.193 1024.71 180.503 1024.94 180.918C1025.17 181.334 1025.28 181.859 1025.28 182.495V186.223H1024.11V182.629C1024.11 182.002 1023.95 181.529 1023.64 181.212C1023.34 180.894 1022.91 180.735 1022.36 180.735C1021.94 180.735 1021.58 180.816 1021.27 180.979C1020.96 181.142 1020.72 181.383 1020.55 181.7C1020.39 182.018 1020.31 182.413 1020.31 182.886V186.223H1019.13V179.745H1020.26V181.493L1020.07 181.028C1020.29 180.605 1020.61 180.275 1021.05 180.038C1021.49 179.802 1022 179.684 1022.59 179.684ZM1030.34 186.296C1029.64 186.296 1029.03 186.153 1028.5 185.868C1027.98 185.583 1027.57 185.192 1027.28 184.695C1027 184.198 1026.85 183.627 1026.85 182.984C1026.85 182.34 1026.99 181.77 1027.27 181.273C1027.55 180.776 1027.94 180.389 1028.43 180.112C1028.93 179.826 1029.48 179.684 1030.1 179.684C1030.73 179.684 1031.29 179.822 1031.77 180.099C1032.25 180.376 1032.62 180.767 1032.89 181.273C1033.17 181.77 1033.31 182.352 1033.31 183.02C1033.31 183.069 1033.3 183.126 1033.29 183.192C1033.29 183.257 1033.29 183.318 1033.28 183.375H1027.77V182.532H1032.67L1032.19 182.825C1032.2 182.409 1032.12 182.039 1031.94 181.713C1031.76 181.387 1031.51 181.134 1031.19 180.955C1030.88 180.767 1030.52 180.674 1030.1 180.674C1029.7 180.674 1029.33 180.767 1029.02 180.955C1028.7 181.134 1028.45 181.391 1028.27 181.725C1028.09 182.051 1028 182.426 1028 182.849V183.045C1028 183.477 1028.1 183.864 1028.29 184.206C1028.5 184.54 1028.78 184.801 1029.14 184.988C1029.5 185.176 1029.91 185.269 1030.37 185.269C1030.76 185.269 1031.1 185.204 1031.41 185.074C1031.73 184.943 1032.01 184.748 1032.24 184.487L1032.89 185.245C1032.6 185.587 1032.23 185.848 1031.79 186.027C1031.36 186.206 1030.87 186.296 1030.34 186.296Z" fill="#FAF1E7"/>
</svg>
