<svg width="122" height="149" viewBox="0 0 122 149" fill="none" xmlns="http://www.w3.org/2000/svg">
<path d="M23.6713 48.3179C19.0642 39.5968 17.3443 29.6195 16.874 19.7705C13.3783 19.7738 9.88269 19.7804 6.37387 19.7869C2.85847 20.2473 7.50839 40.6261 8.13649 43.0662C11.3296 55.4079 19.6495 67.2761 30.9816 73.4289C33.471 74.7804 54.205 81.6731 55.2935 77.4507C57.0265 70.7422 55.8262 70.1765 49.3413 67.9469C46.671 67.0294 43.8331 66.5658 41.2385 65.4378C33.6453 62.146 27.486 55.5493 23.6647 48.3212L23.6713 48.3179Z" fill="#FAF1E7"/>
<path d="M25.3742 47.3245C24.9171 46.4564 24.4863 45.5783 24.0818 44.6871C24.0029 44.5096 23.9207 44.3287 23.8418 44.1511C23.7924 44.0393 23.7431 43.9275 23.697 43.8157L23.6675 43.7499C23.582 43.5493 23.5918 43.5691 23.6938 43.8157C23.6313 43.8025 23.4636 43.2567 23.4438 43.204C23.3452 42.9541 23.2465 42.7042 23.1479 42.4543C22.4639 40.6752 21.8752 38.8567 21.3754 37.0184C20.8755 35.1801 20.4645 33.3517 20.1225 31.4937C19.9482 30.5499 19.7936 29.6028 19.6555 28.6525C19.6226 28.4321 19.593 28.2151 19.5634 27.9948C19.547 27.8731 19.4812 27.5212 19.5634 28.0079C19.547 27.9125 19.5371 27.8106 19.524 27.7152C19.4615 27.2252 19.4023 26.7386 19.3497 26.2486C19.1096 24.0979 18.9485 21.9373 18.8432 19.7768C18.7906 18.7113 17.9816 17.8037 16.8701 17.8037C14.7392 17.8037 12.6083 17.8103 10.4773 17.8136C9.41185 17.8136 8.34309 17.8136 7.27762 17.8169C6.49496 17.8169 5.76489 17.7906 5.07101 18.1885C3.52542 19.0731 3.23278 21.0626 3.13084 22.6674C3.01245 24.5484 3.1966 26.4524 3.41364 28.317C3.68988 30.6815 4.06144 33.036 4.49224 35.3807C5.09403 38.656 5.72546 41.9643 6.66926 45.164C8.61605 51.7607 11.8683 57.9069 16.1269 63.2967C18.1921 65.9078 20.5171 68.3117 23.0887 70.4295C24.4435 71.5443 25.8543 72.5966 27.3243 73.5535C28.2845 74.1783 29.2743 74.8163 30.3135 75.2997C31.6881 75.9377 33.1252 76.4408 34.5589 76.9275C36.5255 77.5984 38.515 78.2068 40.521 78.7592C42.6552 79.3446 44.8092 79.8707 46.9895 80.2522C48.8803 80.5843 50.8699 80.9066 52.7969 80.7488C54.5957 80.6008 56.5392 80.0121 57.1608 78.1048C57.5751 76.8355 57.802 75.4444 57.9368 74.1224C58.0388 73.1425 58.0092 72.0704 57.6507 71.1431C57.2068 69.9855 56.4767 69.1404 55.4705 68.4268C54.553 67.7757 53.4612 67.3646 52.422 66.9634C50.9652 66.4044 49.4854 65.8946 47.9858 65.4704C46.0884 64.9377 44.1613 64.5003 42.3231 63.7736C42.231 63.7374 42.1323 63.7045 42.0436 63.6618C42.4776 63.8722 42.083 63.6749 41.9975 63.6387C41.8397 63.5697 41.6818 63.4973 41.5273 63.425C41.1162 63.2342 40.7117 63.0337 40.3105 62.8232C39.564 62.4319 38.834 62.0109 38.1204 61.5604C37.4068 61.1099 36.7458 60.6528 36.0815 60.1628C35.9862 60.0937 35.4041 59.6268 35.8579 59.9984C35.7066 59.8734 35.5488 59.7583 35.3975 59.6333C35.0424 59.3472 34.6905 59.0546 34.3452 58.752C33.0758 57.6504 31.8821 56.4599 30.7706 55.2005C30.4944 54.8881 30.2247 54.5756 29.9583 54.2567C29.692 53.9377 29.3335 53.599 29.1362 53.2372C29.3302 53.5957 29.2875 53.4378 29.2053 53.326C29.1395 53.2405 29.0737 53.1517 29.008 53.0662C28.8896 52.9084 28.7745 52.7538 28.6561 52.5927C28.3996 52.2408 28.1497 51.8857 27.903 51.5272C26.979 50.1789 26.1338 48.7747 25.3676 47.3311C24.8842 46.4169 23.5392 46.0617 22.6677 46.6241C21.7404 47.2226 21.4412 48.3472 21.9607 49.3239C25.1539 55.3419 29.7413 60.7087 35.4172 64.5069C36.7622 65.4079 38.1763 66.207 39.6495 66.8845C41.4812 67.7296 43.3787 68.315 45.3222 68.8378C47.0059 69.2884 48.66 69.7882 50.3043 70.3736C50.8732 70.5775 51.4388 70.7879 51.9978 71.0148C52.2675 71.1233 51.7578 70.9096 51.7611 70.9162C51.8005 70.9556 51.8992 70.9754 51.9485 70.9984C52.057 71.0477 52.1655 71.097 52.2708 71.1464C52.4911 71.2516 52.7081 71.3601 52.9219 71.4818C53.0929 71.5804 53.2639 71.6824 53.4283 71.7975C53.4612 71.8205 53.4974 71.8468 53.5303 71.8698C53.7703 72.0277 53.1356 71.5476 53.3001 71.689C53.3823 71.758 53.4678 71.8271 53.5467 71.8994C53.6552 71.9981 53.767 72.1954 53.892 72.2677C53.7868 72.2053 53.5566 71.7843 53.744 72.0869C53.7999 72.1789 53.8591 72.2677 53.9084 72.3664C53.9413 72.4289 53.9676 72.4979 54.0038 72.5637C53.6684 71.9488 53.8558 72.1987 53.9216 72.4026C53.9775 72.5801 54.0104 72.761 54.0466 72.9419C54.0959 73.1622 53.9841 72.3368 54.0038 72.6328C54.0038 72.6755 54.0137 72.7183 54.017 72.7577C54.0268 72.8662 54.0334 72.9781 54.0334 73.0866C54.04 73.3135 54.0334 73.5437 54.017 73.7706C54.0104 73.889 53.9972 74.0041 53.9873 74.1224C53.9808 74.1751 53.9742 74.231 53.9709 74.2836C53.9413 74.6223 54.0433 73.8035 54.0038 74.0534C53.9545 74.3559 53.9084 74.6585 53.8493 74.961C53.721 75.6253 53.5434 76.2764 53.3922 76.9341C53.3922 76.944 53.3461 77.0887 53.3428 77.0887C53.333 77.0854 53.6223 76.4704 53.4645 76.773C53.4415 76.8157 53.4053 76.8519 53.3856 76.8914C53.6355 76.3488 53.744 76.4803 53.5697 76.6381C53.5434 76.6612 53.4612 76.7171 53.4481 76.75C53.4678 76.7072 53.9742 76.3948 53.7078 76.5428C53.5993 76.602 53.4908 76.6612 53.3823 76.7204C54.0498 76.3455 53.7177 76.5888 53.4678 76.6645C53.3231 76.7072 53.1751 76.7434 53.0271 76.773C52.9548 76.7861 52.8824 76.7993 52.8101 76.8092C52.4845 76.8683 53.4283 76.7401 53.0567 76.7763C52.8759 76.7927 52.695 76.8124 52.5141 76.8223C51.7019 76.865 50.8863 76.819 50.0774 76.7401C49.8603 76.7204 49.6432 76.694 49.4262 76.6677C49.3243 76.6546 48.8935 76.5987 49.3177 76.6546C49.7419 76.7105 49.2224 76.6414 49.127 76.625C48.6403 76.5527 48.1569 76.4737 47.6735 76.3849C46.6179 76.1909 45.5688 75.964 44.5231 75.7174C40.7315 74.8163 36.9661 73.6949 33.3225 72.3105C33.0397 72.202 32.7569 72.0902 32.4741 71.9751C32.017 71.7876 32.9969 72.202 32.5793 72.0211C32.4806 71.9784 32.3852 71.9356 32.2866 71.8896C31.2704 71.416 30.3036 70.7912 29.3631 70.1828C28.689 69.7455 28.028 69.2917 27.3802 68.8148C27.2092 68.6899 27.0382 68.5649 26.8704 68.4366C26.8047 68.3873 26.7356 68.3314 26.6699 68.2821C27.0678 68.5649 26.854 68.4268 26.7685 68.3577C26.4364 68.0946 26.1042 67.8316 25.7754 67.5619C24.5291 66.5293 23.3419 65.431 22.2139 64.2701C21.086 63.1093 20.0074 61.8827 18.9945 60.61C18.9419 60.5443 18.8893 60.4752 18.8367 60.4094C18.8104 60.3765 18.5374 60.0543 18.7545 60.3042C18.9715 60.5541 18.6986 60.2319 18.6723 60.199C18.6196 60.1299 18.567 60.0609 18.5177 59.9951C18.2579 59.6531 18.0047 59.3078 17.758 58.9592C17.2845 58.2949 16.8274 57.6208 16.3834 56.9368C15.512 55.5885 14.7063 54.1975 13.9631 52.7703C13.5882 52.0501 13.2298 51.3233 12.8911 50.5867C12.7299 50.2381 12.5721 49.8895 12.4208 49.5377C12.3682 49.4127 12.1248 48.8175 12.3452 49.3634C12.2662 49.1661 12.1807 48.9721 12.1018 48.7747C10.6417 45.1738 9.72753 41.4546 8.94487 37.6596C8.52723 35.6273 8.1425 33.5885 7.81365 31.5398C7.72486 30.9972 7.64264 30.4545 7.56372 29.9087C7.52754 29.6522 7.49135 29.3957 7.45517 29.1424C7.5604 29.8988 7.48148 29.3233 7.45846 29.1589C7.44202 29.0175 7.42232 28.8794 7.40588 28.738C7.28091 27.7251 7.17567 26.709 7.1099 25.6928C7.054 24.8181 7.0211 23.94 7.05399 23.0653C7.06714 22.7233 7.17237 22.3155 7.1362 21.9768C7.14606 22.0755 7.04084 22.6016 7.10332 22.2465C7.11648 22.1643 7.12963 22.0853 7.14607 22.0031C7.17238 21.8617 7.20528 21.7203 7.24474 21.5822C7.27763 21.4638 7.32037 21.3487 7.35983 21.2336C7.45191 20.9607 7.09018 21.7861 7.24145 21.5164C7.27105 21.4605 7.29732 21.4013 7.33021 21.3487C7.35323 21.3092 7.39273 21.2665 7.40917 21.227C7.46836 21.0889 7.01122 21.717 7.20524 21.4967C7.23155 21.4671 7.2776 21.4408 7.29733 21.4046C7.35652 21.3191 6.78435 21.7598 7.03098 21.6151C7.30393 21.4572 6.57718 21.7959 6.70543 21.7433C6.74489 21.7269 6.78435 21.7203 6.82381 21.7104C7.00796 21.6578 6.56401 21.9176 6.53113 21.7696C6.53113 21.7762 6.88628 21.7696 6.85998 21.7696C7.13292 21.7696 7.40915 21.7696 7.6821 21.7696C8.72126 21.7696 9.76042 21.7696 10.7996 21.7664C12.822 21.7664 14.8444 21.7598 16.8668 21.7565L14.8937 19.7834C15.2719 27.633 16.3834 35.5682 19.1326 42.964C19.9416 45.141 20.8788 47.2719 21.9607 49.3272C22.4409 50.2414 23.7924 50.5933 24.6606 50.0342C25.5912 49.4357 25.8839 48.3144 25.3676 47.3344L25.3742 47.3245Z" fill="#FF4409"/>
<path d="M96.6684 111.412C101.187 119.965 102.223 128.963 103.538 138.387C103.61 138.917 103.722 139.509 104.163 139.811C104.488 140.035 104.916 140.038 105.311 140.032C108.237 139.986 111.164 139.94 114.091 139.894C114.857 119.13 109.096 97.0347 89.3515 86.3076C86.8654 84.956 66.1282 78.0633 65.0364 82.2858C63.3033 88.9943 64.5036 89.5599 70.9885 91.7895C73.6588 92.707 76.4968 93.1707 79.0914 94.2986C86.6845 97.5904 92.8439 104.187 96.6651 111.415L96.6684 111.412Z" fill="#FAF1E7"/>
<path d="M94.9632 112.409C95.2789 113.008 95.5814 113.616 95.8708 114.231C95.9991 114.501 96.1208 114.77 96.2424 115.043C96.3115 115.201 96.3805 115.359 96.4496 115.52C96.4693 115.563 96.5647 115.796 96.4661 115.556C96.3674 115.316 96.4891 115.616 96.5088 115.662C97.0021 116.855 97.446 118.072 97.8439 119.299C98.6332 121.732 99.2382 124.222 99.7381 126.727C100.238 129.233 100.633 131.805 100.998 134.357C101.182 135.652 101.359 136.951 101.54 138.247C101.642 138.97 101.731 139.618 102.05 140.286C102.435 141.095 103.247 141.72 104.118 141.897C104.983 142.075 105.894 141.993 106.772 141.979C107.584 141.966 108.4 141.953 109.212 141.94C110.84 141.914 112.465 141.887 114.092 141.864C115.187 141.848 116.026 140.973 116.065 139.891C116.259 134.577 116.003 129.266 115.266 124.001C114.556 118.94 113.343 113.935 111.465 109.18C109.508 104.228 106.914 99.6072 103.543 95.4802C100.152 91.3301 95.9662 87.8213 91.3261 85.1477C88.8696 83.7337 86.104 82.8819 83.414 82.0401C79.8164 80.9121 76.1432 79.9026 72.414 79.337C70.7994 79.0936 69.1255 78.8535 67.4912 79.0015C65.9784 79.1363 64.3342 79.5408 63.4923 80.9417C63.2523 81.3429 63.1372 81.7803 63.0254 82.2242C62.8807 82.803 62.7491 83.3851 62.6406 83.9704C62.4598 84.9537 62.2887 85.983 62.3742 86.986C62.4565 87.9396 62.6702 88.8867 63.2194 89.6924C63.7686 90.4981 64.4756 91.1097 65.3043 91.5997C66.2185 92.1423 67.2314 92.5271 68.2245 92.8987C69.4873 93.3722 70.7632 93.8162 72.0589 94.1911C73.7097 94.6679 75.3901 95.0526 77.0179 95.6051C77.3994 95.7334 77.7775 95.8781 78.1524 96.0261C78.2478 96.0655 78.4977 96.1214 78.0998 96.003C78.1788 96.0261 78.2643 96.0754 78.3366 96.1083C78.5142 96.1872 78.6918 96.2661 78.866 96.3516C79.5106 96.6542 80.1453 96.9797 80.7668 97.3283C82.0526 98.0485 83.2858 98.8574 84.4598 99.742C84.5288 99.7947 84.5979 99.8506 84.6669 99.8999C84.6275 99.8736 84.3085 99.6204 84.5782 99.8308C84.713 99.9393 84.8511 100.048 84.9859 100.156C85.2753 100.39 85.5581 100.627 85.8377 100.867C86.3836 101.337 86.9163 101.82 87.4326 102.32C88.5013 103.353 89.5109 104.448 90.4547 105.592C90.6783 105.862 90.8953 106.135 91.1124 106.408C91.1814 106.493 91.3557 106.674 91.0433 106.319C91.0992 106.385 91.1519 106.46 91.2012 106.526C91.3196 106.681 91.4379 106.839 91.553 106.996C91.9904 107.592 92.4147 108.197 92.8224 108.812C93.5919 109.976 94.3055 111.179 94.9599 112.416C95.4434 113.33 96.7883 113.685 97.6598 113.123C98.5871 112.524 98.8864 111.4 98.3668 110.423C95.6472 105.293 91.9016 100.581 87.3109 96.9994C84.8511 95.079 82.2269 93.4676 79.3363 92.2805C77.7907 91.6458 76.1761 91.2248 74.5647 90.7908C73.098 90.3961 71.6544 89.9489 70.2239 89.4425C69.7273 89.2682 69.2307 89.0873 68.7408 88.8933C68.629 88.8506 68.5204 88.8045 68.4119 88.7618C67.9811 88.5842 68.7704 88.9229 68.4941 88.7946C68.2902 88.7026 68.0864 88.6138 67.8858 88.5151C67.547 88.3474 67.2149 88.1633 66.9025 87.9462C66.7512 87.841 66.5342 87.6174 67.0538 88.0712C66.9946 88.0186 66.9321 87.9725 66.8696 87.9199C66.748 87.8147 66.6394 87.6963 66.5276 87.5812C66.2777 87.3181 66.7019 87.7423 66.6789 87.7884C66.6855 87.7719 66.5671 87.6305 66.5539 87.6108C66.5178 87.5516 66.3698 87.1932 66.3237 87.1833C66.3928 87.1997 66.5474 87.7621 66.4224 87.397C66.4027 87.3345 66.3829 87.2721 66.3665 87.2063C66.3467 87.1307 66.327 87.055 66.3139 86.9794C66.3073 86.9399 66.3007 86.9005 66.2908 86.861C66.2251 86.5782 66.3369 87.157 66.3303 87.1734C66.3763 87.078 66.2941 86.7657 66.2941 86.6538C66.2876 86.45 66.2942 86.2494 66.3073 86.0455C66.3205 85.8416 66.3435 85.6245 66.3665 85.4141C66.3895 85.1806 66.2941 85.9205 66.3303 85.687C66.3402 85.6278 66.3467 85.5719 66.3566 85.5127C66.3763 85.3779 66.3994 85.2431 66.4224 85.1083C66.5211 84.5459 66.646 83.9902 66.7841 83.4344C66.84 83.2042 66.9091 82.974 66.9617 82.7438C67.0242 82.461 66.8598 83.0431 66.8203 83.0661C66.8466 83.0496 66.8795 82.9543 66.8959 82.928C67.0735 82.6221 66.4618 83.3752 66.7677 83.1023C66.794 83.076 66.8269 83.0496 66.8532 83.0233C66.9979 82.8589 66.3599 83.3522 66.6032 83.2174C66.6887 83.1713 66.771 83.1187 66.8532 83.0694C67.1228 82.9148 66.6197 83.1845 66.5572 83.1878C66.6099 83.1878 66.6789 83.1417 66.7282 83.122C66.965 83.0398 67.2083 82.9905 67.4517 82.9444C67.8134 82.8754 67.2248 83.02 67.1755 82.9773C67.1952 82.9937 67.3497 82.9576 67.3826 82.9543C67.5372 82.9379 67.6917 82.928 67.8463 82.9181C68.5336 82.8852 69.2209 82.9148 69.9049 82.9707C70.3127 83.0036 70.7204 83.0529 71.1282 83.1023C71.4209 83.1384 70.5429 83.0201 70.9408 83.076C71.0427 83.0891 71.1446 83.1056 71.2466 83.1187C71.4669 83.1516 71.6873 83.1845 71.9076 83.2239C72.8086 83.3719 73.7031 83.5495 74.5943 83.7468C76.4457 84.1513 78.2807 84.6347 80.0992 85.1609C81.7435 85.6377 83.3779 86.1507 84.9958 86.7065C85.6371 86.9268 86.2783 87.157 86.913 87.397C87.1695 87.4924 87.4227 87.5911 87.6792 87.6963C87.7779 87.7358 87.8798 87.7785 87.9784 87.818C88.1692 87.8969 87.3964 87.568 87.6891 87.6963C87.745 87.7193 87.8009 87.7456 87.8568 87.7686C88.5178 88.0613 89.1393 88.4362 89.7608 88.8045C90.8888 89.4721 91.9871 90.1857 93.0493 90.9519C93.3058 91.136 93.5623 91.3235 93.8155 91.5142C93.924 91.5964 94.0358 91.6819 94.1444 91.7642C93.6544 91.3991 94.1839 91.797 94.3022 91.8924C94.7889 92.2805 95.2691 92.6783 95.7393 93.0894C96.6963 93.9214 97.6138 94.7994 98.4918 95.7136C99.3567 96.618 100.182 97.5585 100.968 98.5319C101.063 98.6503 101.155 98.7686 101.251 98.887C101.297 98.9462 101.343 99.0054 101.389 99.0646C101.372 99.0416 101.093 98.6766 101.287 98.9331C101.481 99.1896 101.672 99.4428 101.862 99.7026C102.228 100.202 102.583 100.709 102.928 101.225C104.296 103.267 105.5 105.418 106.542 107.641C106.805 108.203 107.058 108.769 107.302 109.341C107.351 109.453 107.427 109.686 107.236 109.183C107.262 109.252 107.295 109.321 107.321 109.39C107.381 109.529 107.436 109.67 107.492 109.808C107.604 110.088 107.716 110.367 107.825 110.65C108.275 111.814 108.683 112.995 109.058 114.188C109.811 116.592 110.413 119.045 110.883 121.522C111.116 122.752 111.317 123.985 111.488 125.225C111.554 125.711 111.432 124.787 111.494 125.274C111.514 125.428 111.534 125.58 111.554 125.734C111.593 126.06 111.633 126.385 111.669 126.711C111.741 127.346 111.804 127.98 111.859 128.615C112.08 131.137 112.188 133.669 112.192 136.202C112.192 137.435 112.172 138.665 112.126 139.898L114.099 137.925C111.307 137.967 108.515 138.014 105.723 138.056C105.565 138.056 105.407 138.063 105.25 138.063C105.161 138.063 104.743 138.02 105.046 138.079C105.348 138.138 105.092 138.092 105.046 138.073C105.042 138.073 105.414 138.25 105.22 138.148C105.006 138.037 105.437 138.342 105.48 138.388C105.703 138.619 105.45 138.237 105.565 138.536C105.68 138.836 105.555 138.467 105.536 138.388C105.509 138.273 105.486 138.158 105.47 138.043C105.421 137.741 105.384 137.435 105.342 137.132C105.164 135.86 104.99 134.587 104.809 133.318C104.105 128.382 103.29 123.439 101.79 118.674C100.896 115.836 99.7611 113.06 98.3767 110.426C97.8965 109.512 96.545 109.16 95.6768 109.719C94.7462 110.321 94.4535 111.439 94.9698 112.419L94.9632 112.409Z" fill="#FF4409"/>
<path d="M117.027 141.38C119.425 137.228 117.035 131.36 111.691 128.275C106.346 125.189 100.07 126.054 97.6728 130.206C95.2755 134.358 97.6647 140.226 103.009 143.312C108.354 146.397 114.63 145.533 117.027 141.38Z" fill="#FF4409"/>
<path d="M115.322 140.383C115.207 140.577 115.085 140.761 114.957 140.948C114.927 140.991 114.891 141.027 114.865 141.073C114.855 141.093 115.154 140.728 115.016 140.876C114.934 140.961 114.865 141.06 114.786 141.146C114.638 141.31 114.484 141.465 114.322 141.616C114.234 141.695 114.145 141.77 114.056 141.849C113.829 142.053 114.431 141.583 114.092 141.823C113.727 142.079 113.349 142.316 112.948 142.514C112.843 142.566 112.718 142.606 112.616 142.668C112.596 142.681 113.043 142.504 112.846 142.569C112.796 142.586 112.747 142.609 112.698 142.629C112.464 142.717 112.228 142.796 111.991 142.865C111.784 142.925 111.573 142.977 111.359 143.023C111.234 143.05 111.11 143.076 110.981 143.096C110.925 143.105 110.873 143.112 110.817 143.122C110.544 143.171 110.952 143.102 111.011 143.099C110.498 143.142 109.995 143.191 109.478 143.184C109.245 143.184 109.011 143.171 108.778 143.155C108.64 143.145 108.502 143.132 108.367 143.119C108.308 143.112 108.249 143.105 108.189 143.099C107.93 143.073 108.617 143.168 108.357 143.122C107.811 143.027 107.275 142.921 106.739 142.773C106.496 142.704 106.256 142.629 106.019 142.546C105.878 142.497 105.739 142.448 105.601 142.395C105.542 142.372 105.483 142.349 105.42 142.326C105.177 142.234 105.443 142.333 105.535 142.379C105.026 142.119 104.503 141.899 104.003 141.612C103.503 141.326 103.053 141.007 102.589 140.682C102.411 140.557 102.75 140.81 102.744 140.804C102.698 140.764 102.648 140.728 102.599 140.688C102.487 140.6 102.379 140.511 102.27 140.419C102.073 140.251 101.879 140.077 101.691 139.896C101.31 139.531 100.951 139.146 100.616 138.738C100.58 138.696 100.544 138.65 100.507 138.604C100.369 138.439 100.649 138.791 100.639 138.778C100.576 138.686 100.504 138.597 100.435 138.505C100.284 138.291 100.136 138.074 99.9977 137.854C99.7379 137.436 99.511 137.002 99.3005 136.558C99.2775 136.512 99.2611 136.456 99.2348 136.41C99.2216 136.387 99.4025 136.834 99.3301 136.637C99.2939 136.538 99.2512 136.44 99.215 136.341C99.1295 136.114 99.0539 135.881 98.9848 135.647C98.9224 135.433 98.8698 135.22 98.8237 135.003C98.804 134.904 98.7842 134.805 98.7645 134.703C98.7316 134.522 98.7316 134.085 98.7612 134.73C98.7415 134.299 98.6921 133.881 98.7086 133.447C98.7119 133.348 98.7185 133.253 98.725 133.154C98.7316 133.056 98.781 132.655 98.7316 133.03C98.6823 133.404 98.7316 133.043 98.748 132.957C98.7678 132.845 98.7908 132.737 98.8171 132.625C98.8632 132.421 98.9191 132.217 98.9848 132.02C99.0144 131.928 99.0506 131.836 99.0802 131.747C99.2216 131.343 98.8862 132.148 99.0671 131.77C99.2479 131.392 99.4748 131.001 99.7248 130.635C99.9582 130.293 99.4814 130.918 99.6951 130.668C99.7609 130.593 99.8267 130.514 99.8958 130.438C100.054 130.261 100.221 130.093 100.399 129.935C100.475 129.866 100.553 129.804 100.629 129.734C100.879 129.511 100.277 129.984 100.55 129.79C100.744 129.652 100.941 129.514 101.145 129.392C101.336 129.277 101.533 129.169 101.737 129.07C101.829 129.024 101.928 128.985 102.02 128.939C102.204 128.843 101.767 129.041 101.79 129.034C101.872 129.008 101.954 128.968 102.037 128.939C102.474 128.774 102.921 128.646 103.378 128.551C103.487 128.528 103.592 128.508 103.701 128.488C103.773 128.475 103.845 128.465 103.918 128.452C104.135 128.412 103.641 128.485 103.668 128.485C103.931 128.462 104.191 128.429 104.454 128.416C104.953 128.389 105.457 128.396 105.96 128.435C106.078 128.445 106.196 128.455 106.315 128.468C106.374 128.475 106.433 128.482 106.492 128.488C106.752 128.514 106.065 128.422 106.325 128.465C106.585 128.508 106.844 128.551 107.101 128.606C107.65 128.725 108.193 128.876 108.722 129.064C108.844 129.106 108.962 129.149 109.081 129.195C109.209 129.244 109.636 129.455 109.146 129.215C109.399 129.34 109.663 129.445 109.916 129.573C110.439 129.833 110.942 130.126 111.428 130.448C111.636 130.586 111.84 130.731 112.04 130.876C112.323 131.079 111.734 130.629 112.08 130.905C112.191 130.994 112.3 131.083 112.408 131.175C112.816 131.523 113.204 131.895 113.566 132.286C113.724 132.457 113.875 132.632 114.023 132.809C114.115 132.918 114.368 133.286 114.036 132.812C114.112 132.921 114.194 133.023 114.27 133.131C114.549 133.523 114.806 133.931 115.033 134.355C115.144 134.562 115.25 134.769 115.348 134.983C115.371 135.032 115.391 135.082 115.414 135.128C115.51 135.315 115.312 134.878 115.319 134.901C115.362 135.032 115.424 135.164 115.473 135.295C115.628 135.716 115.753 136.147 115.845 136.584C115.868 136.699 115.891 136.815 115.911 136.933C115.924 137.018 115.976 137.387 115.927 137.018C115.878 136.65 115.924 137.018 115.93 137.104C115.944 137.235 115.95 137.367 115.957 137.499C115.963 137.696 115.967 137.89 115.957 138.087C115.953 138.202 115.947 138.314 115.937 138.429C115.93 138.521 115.881 138.932 115.93 138.554C115.98 138.176 115.921 138.597 115.904 138.676C115.888 138.771 115.868 138.867 115.845 138.959C115.796 139.179 115.733 139.396 115.661 139.61C115.631 139.702 115.595 139.791 115.562 139.883C115.454 140.195 115.756 139.472 115.611 139.771C115.513 139.978 115.411 140.182 115.299 140.383C114.789 141.28 115.056 142.579 116.006 143.082C116.956 143.586 118.16 143.332 118.706 142.375C121.136 138.094 119.528 132.97 116.391 129.537C112.908 125.729 107.315 123.634 102.217 124.772C99.8431 125.302 97.7714 126.643 96.3409 128.606C95.0748 130.346 94.5552 132.661 94.8084 134.782C95.4234 139.899 99.2381 143.977 103.875 145.934C108.268 147.788 114.201 147.713 117.588 143.898C118.005 143.428 118.387 142.918 118.706 142.375C119.229 141.484 118.939 140.172 117.999 139.676C117.058 139.179 115.858 139.432 115.299 140.383H115.322Z" fill="#FF4409"/>
<path d="M39.4637 1.61756L7.63809 17.3813C6.58022 17.9053 6.14742 19.1876 6.6714 20.2455L8.15874 23.2483C8.68272 24.3062 9.96506 24.739 11.0229 24.215L42.8485 8.45123C43.9064 7.92725 44.3392 6.64492 43.8152 5.58705L42.3279 2.58425C41.8039 1.52638 40.5216 1.09358 39.4637 1.61756Z" fill="#FFA14C"/>
<path d="M24.452 3.77323C23.061 3.12211 21.374 3.6121 20.1342 4.8683C19.4075 4.09551 18.5459 3.45425 17.5528 2.99058C12.5345 0.64588 6.16141 3.68116 3.31686 9.77145C0.472314 15.8617 2.23494 22.6952 7.25647 25.0399C12.2747 27.3846 18.6478 24.3493 21.4924 18.259C22.377 16.3649 22.8143 14.3984 22.8505 12.514C24.0607 12.1194 25.1985 11.1164 25.8628 9.69252C26.9776 7.30507 26.3462 4.65455 24.4553 3.77323H24.452Z" fill="#FF4409"/>
<path d="M25.4451 2.07085C24.2514 1.5414 23.0478 1.37368 21.7653 1.68938C20.6176 1.97219 19.5686 2.64962 18.7366 3.47175H21.5285C19.7199 1.57758 17.3258 0.492376 14.7378 0.258893C12.597 0.0648724 10.4397 0.627199 8.52912 1.55784C4.32971 3.60657 1.27798 7.93752 0.340765 12.4658C-0.596456 16.994 0.340774 22.0452 3.88577 25.1429C5.64182 26.6786 7.75306 27.5567 10.0714 27.7671C12.2287 27.9612 14.4056 27.3922 16.3294 26.4452C20.713 24.2813 23.8765 19.615 24.6 14.8236C24.7151 14.0574 24.8039 13.2912 24.8203 12.5151L23.3734 14.4191C25.8825 13.5674 27.8162 11.2786 28.247 8.65442C28.6777 6.0302 27.8951 3.26786 25.4484 2.07414C24.5211 1.62361 23.2714 1.79133 22.7486 2.78116C22.2816 3.66906 22.4658 4.9976 23.4556 5.48101C23.6266 5.56651 23.7811 5.66846 23.9423 5.76712C24.1363 5.88551 23.597 5.45142 23.8206 5.68162C23.893 5.75396 23.9686 5.82302 24.0344 5.89866C24.087 5.95785 24.3007 6.19462 24.0738 5.93483C23.8469 5.67503 24.0508 5.91839 24.0936 5.99073C24.1495 6.07952 24.1988 6.1716 24.2481 6.26368C24.2843 6.33273 24.4323 6.6287 24.2777 6.31629C24.1232 6.00389 24.2646 6.30314 24.2909 6.38207C24.3238 6.4873 24.3534 6.59253 24.3797 6.69776C24.4027 6.78655 24.4158 6.87862 24.4356 6.9707C24.4882 7.21076 24.3928 6.48729 24.4158 6.83916C24.429 7.05291 24.4388 7.26338 24.4323 7.47713C24.429 7.57578 24.4191 7.67444 24.4126 7.77309C24.3895 8.19731 24.5112 7.30942 24.4191 7.72706C24.3731 7.93094 24.3336 8.13154 24.2744 8.33214C24.2383 8.45381 24.1955 8.5722 24.156 8.69388C24.0409 9.03588 24.2909 8.42422 24.1823 8.64455C24.0738 8.86488 23.9686 9.07863 23.8437 9.28909C23.7877 9.38117 23.7285 9.46996 23.6661 9.55875C23.4951 9.80868 23.5707 9.62781 23.7088 9.516C23.5411 9.65083 23.4063 9.86458 23.2484 10.0158C23.1761 10.0849 23.0972 10.1507 23.0248 10.2197C22.7256 10.5058 23.3931 9.97968 23.0511 10.2033C22.89 10.3085 22.7321 10.417 22.5611 10.5091C22.4658 10.5617 22.3507 10.6012 22.2586 10.6571L22.525 10.542C22.4559 10.5683 22.3868 10.5913 22.3178 10.6144C21.4726 10.9005 20.8906 11.6075 20.8708 12.5184C20.8643 12.8012 20.8511 13.0873 20.8281 13.3701C20.8149 13.5148 20.8018 13.6562 20.7853 13.8009C20.7788 13.8535 20.7492 14.1002 20.7853 13.8272C20.8215 13.5378 20.7755 13.87 20.7689 13.9259C20.6669 14.5605 20.519 15.1886 20.3315 15.8036C20.2427 16.0963 20.1441 16.3824 20.0388 16.6685C20.0125 16.7375 19.835 17.1552 19.9402 16.9348C20.0454 16.7145 19.9336 16.948 19.9172 16.9842C19.8744 17.0795 19.8317 17.1749 19.7889 17.2703C19.5719 17.7372 19.3285 18.191 19.0655 18.6317C18.8024 19.0724 18.4998 19.5032 18.1907 19.9241C18.0625 20.0984 18.3288 19.7498 18.319 19.7597C18.2795 19.8024 18.2466 19.8517 18.2072 19.8978C18.1348 19.9899 18.0592 20.0786 17.9835 20.1674C17.8191 20.3582 17.6514 20.5456 17.4771 20.7265C17.1483 21.0685 16.8063 21.394 16.4445 21.7032C16.359 21.7755 16.2735 21.8478 16.1847 21.9169C16.142 21.9531 16.0959 21.986 16.0532 22.0221C16.0368 22.0353 16.4051 21.7591 16.2308 21.8807C16.0203 22.0287 15.8164 22.1833 15.5994 22.3247C15.2212 22.5713 14.8332 22.7982 14.432 23.0021C14.2445 23.0975 14.0374 23.1698 13.8565 23.2751C13.8335 23.2882 14.2807 23.104 14.0834 23.1797C14.0341 23.1994 13.9848 23.2191 13.9387 23.2389C13.8236 23.2849 13.7118 23.3244 13.5967 23.3671C13.1922 23.5118 12.7779 23.6302 12.3569 23.7223C12.1399 23.7683 11.9229 23.8012 11.7058 23.8407C11.4888 23.8801 12.0149 23.8045 11.9787 23.8045C11.9294 23.8045 11.8768 23.8177 11.8275 23.8209C11.7091 23.8308 11.594 23.844 11.4756 23.8505C11.058 23.8801 10.6403 23.8768 10.2227 23.8505C10.124 23.844 10.0221 23.8341 9.92344 23.8242C9.8774 23.8209 9.81822 23.8209 9.77547 23.8078C9.73272 23.7946 10.2654 23.89 10.0517 23.844C9.83794 23.7979 9.62421 23.7683 9.41045 23.719C8.97966 23.6171 8.57845 23.4461 8.15752 23.3178C8.13121 23.3112 8.57848 23.5118 8.39432 23.4165C8.34828 23.3934 8.29894 23.3737 8.2529 23.354C8.15753 23.3079 8.05888 23.2619 7.96351 23.2126C7.75962 23.1073 7.55904 22.9955 7.36502 22.8739C7.18744 22.762 7.01642 22.6437 6.84541 22.522C6.80266 22.4924 6.7632 22.4562 6.72045 22.4299C6.70072 22.4168 7.06577 22.716 6.9145 22.5779C6.82571 22.4957 6.72702 22.4233 6.63494 22.3411C6.29623 22.0419 5.98383 21.7163 5.69773 21.371C5.66485 21.3316 5.63199 21.2888 5.5991 21.2493C5.46427 21.0948 5.76022 21.4631 5.74707 21.4434C5.69445 21.3546 5.62209 21.2724 5.56289 21.1902C5.43135 21.0027 5.30968 20.812 5.19129 20.6179C4.9611 20.2332 4.79668 19.8254 4.58622 19.4341C4.57635 19.4144 4.75066 19.855 4.6816 19.6577C4.66516 19.6084 4.64212 19.5558 4.62239 19.5064C4.57635 19.3881 4.53359 19.2697 4.49413 19.148C4.4185 18.9244 4.34619 18.6975 4.2837 18.4673C4.16203 18.0168 4.07649 17.5629 3.99757 17.1058C3.96139 16.8888 4.03048 17.3755 4.03048 17.3492C4.0272 17.2933 4.01731 17.2374 4.01073 17.1815C3.99758 17.0697 3.98772 16.9546 3.97786 16.8395C3.95813 16.5895 3.94497 16.3429 3.9384 16.093C3.92524 15.5833 3.94169 15.0735 3.98773 14.5671C3.9976 14.4487 4.01075 14.3304 4.0239 14.212C4.06336 13.8437 3.95812 14.6263 4.01732 14.2613C4.06007 14.0015 4.10612 13.7417 4.15874 13.4852C4.26726 12.9788 4.39879 12.4789 4.55993 11.9857C4.63885 11.7456 4.72436 11.5055 4.81644 11.2688C4.86248 11.1504 4.91507 11.032 4.95782 10.9136C4.76709 11.4398 4.95784 10.9235 5.02032 10.7919C5.23736 10.325 5.4807 9.87115 5.74378 9.4305C6.00686 8.98984 6.2831 8.58864 6.58236 8.18415C6.79611 7.89806 6.3357 8.48341 6.56261 8.21047C6.63824 8.12168 6.71061 8.0296 6.78624 7.94081C6.96053 7.73363 7.14137 7.53304 7.32881 7.33573C7.65766 6.99372 7.99967 6.66816 8.3614 6.35904C8.4469 6.2867 8.53242 6.21435 8.62121 6.14529C8.66396 6.10912 8.71 6.07623 8.75276 6.04006C8.7692 6.02691 8.40087 6.30314 8.57516 6.18146C8.76919 6.04335 8.95993 5.90194 9.16053 5.7704C9.53541 5.52048 9.92672 5.29357 10.3279 5.08968C10.5318 4.98445 10.7554 4.90553 10.9527 4.79372C10.9758 4.78056 10.5285 4.96472 10.7259 4.88909C10.7752 4.86936 10.8245 4.84963 10.8705 4.8299C10.9856 4.78386 11.0974 4.74439 11.2125 4.70164C11.617 4.55695 12.0314 4.43857 12.4523 4.34649C12.6529 4.30374 12.8535 4.27085 13.0541 4.23468C13.3928 4.17549 12.5871 4.28071 12.9324 4.25112C13.0508 4.24125 13.1659 4.2281 13.2843 4.21823C13.7184 4.18535 14.1525 4.18535 14.5865 4.21823C14.6852 4.22481 14.7871 4.23468 14.8858 4.24455C14.9318 4.24783 14.991 4.24783 15.0338 4.26098C15.0765 4.27414 14.5438 4.17878 14.7575 4.22482C14.9713 4.27085 15.185 4.30044 15.3988 4.34977C15.8131 4.44842 16.2045 4.59312 16.6057 4.73124C16.803 4.80029 16.3459 4.61614 16.3722 4.63259C16.4149 4.65889 16.4676 4.67534 16.5136 4.69507C16.6583 4.76413 16.7997 4.83318 16.9411 4.90553C17.2108 5.04693 17.4706 5.20479 17.7205 5.37579C17.7797 5.41525 18.1315 5.67833 17.9145 5.50733C17.6975 5.33632 18.0362 5.61255 18.0921 5.65859C18.319 5.8559 18.5327 6.06308 18.7399 6.28012C19.4798 7.05621 20.7853 7.01675 21.5318 6.28012C21.6272 6.18476 21.8738 6.03677 21.9264 5.91839C21.8705 6.04664 21.614 6.1453 21.8903 5.95127C21.9593 5.90195 22.0317 5.8559 22.104 5.81315C22.2487 5.72436 22.4 5.6553 22.5447 5.57638C22.7617 5.458 22.1796 5.69805 22.4131 5.63557C22.5085 5.60926 22.6039 5.5698 22.6993 5.54349C22.7749 5.52047 22.8538 5.50733 22.9294 5.4876C23.1925 5.41854 22.8341 5.50403 22.7519 5.50074C22.9064 5.50403 23.061 5.47443 23.2155 5.48101C23.2912 5.48101 23.3701 5.50075 23.4457 5.49417C22.9985 5.52048 23.1234 5.44485 23.3175 5.4876C23.4786 5.52377 23.9916 5.73752 23.4523 5.49746C23.9522 5.72108 24.4224 5.84933 24.9716 5.69477C25.4287 5.56981 25.9253 5.21465 26.1522 4.78714C26.606 3.92885 26.4514 2.53453 25.4451 2.08729V2.07085Z" fill="#FF4409"/>
<path d="M86.3116 51.2662C122.936 57.373 122.936 90.7939 86.3116 96.904C84.4141 97.2197 82.9212 98.7159 82.6022 100.613C76.4954 137.237 43.0745 137.237 36.9645 100.613C36.6488 98.7159 35.1525 97.2229 33.2551 96.904C-3.36888 90.7972 -3.36888 57.3763 33.2551 51.2662C35.1525 50.9506 36.6455 49.4543 36.9645 47.5568C43.0712 10.9329 76.4922 10.9329 82.6022 47.5568C82.9179 49.4543 84.4141 50.9473 86.3116 51.2662Z" fill="#FAF1E7"/>
<path d="M85.6545 53.6441C89.5743 54.3018 93.4416 55.3212 97.1083 56.8668L96.5197 56.6169C99.2195 57.7613 101.775 59.1885 104.116 60.961C103.35 60.3789 103.906 60.7999 104.08 60.938C104.211 61.0432 104.34 61.1484 104.468 61.2537C104.721 61.4641 104.968 61.6779 105.214 61.8982C105.688 62.3257 106.148 62.7664 106.589 63.2301C107.03 63.6937 107.421 64.1344 107.809 64.6112C107.888 64.7099 107.967 64.8085 108.043 64.9039C108.273 65.19 107.622 64.3482 107.839 64.6408C107.885 64.7 107.927 64.7592 107.973 64.8184C108.151 65.0552 108.322 65.2952 108.486 65.5386C109.203 66.5909 109.822 67.709 110.318 68.883L110.068 68.2943C110.647 69.6788 111.051 71.1257 111.255 72.6154L111.167 71.961C111.351 73.3718 111.351 74.8023 111.167 76.213L111.255 75.5586C111.055 77.045 110.65 78.4952 110.068 79.8797L110.318 79.2911C109.878 80.3302 109.345 81.3266 108.727 82.2704C108.582 82.494 108.431 82.7144 108.276 82.9347C108.191 83.0564 108.105 83.1748 108.016 83.2932C107.973 83.3523 107.927 83.4115 107.881 83.4707C107.582 83.8686 108.266 82.9808 108.039 83.2669C107.674 83.724 107.299 84.1712 106.905 84.602C106.033 85.5524 105.083 86.4271 104.077 87.2328C103.902 87.3742 103.343 87.7918 104.113 87.2098C104.001 87.2953 103.886 87.3807 103.774 87.4662C103.475 87.6899 103.169 87.9069 102.86 88.1207C102.298 88.5087 101.719 88.877 101.133 89.2289C99.6536 90.1135 98.1047 90.8797 96.5197 91.5538L97.1083 91.3039C93.5534 92.8002 89.8111 93.8065 86.0162 94.4642C83.3229 94.9311 81.0605 96.8253 80.3238 99.4988C80.0509 100.492 79.9456 101.551 79.7286 102.56C79.5214 103.537 79.2879 104.507 79.0281 105.474C78.4823 107.493 77.8114 109.479 77.0024 111.41L77.2523 110.821C76.108 113.521 74.6808 116.076 72.9083 118.418C73.4903 117.651 73.0694 118.207 72.9313 118.381C72.8261 118.513 72.7208 118.641 72.6156 118.769C72.4051 119.023 72.1914 119.269 71.9711 119.516C71.5435 119.989 71.1029 120.45 70.6392 120.89C70.1755 121.331 69.7349 121.722 69.258 122.111C69.1594 122.189 69.0607 122.268 68.9654 122.344C68.6793 122.574 69.5211 121.923 69.2285 122.14C69.1693 122.186 69.1101 122.229 69.0509 122.275C68.8141 122.453 68.574 122.624 68.3307 122.788C67.2784 123.505 66.1603 124.123 64.9863 124.62L65.5749 124.37C64.1905 124.948 62.7436 125.353 61.2539 125.557L61.9083 125.468C60.4975 125.652 59.067 125.652 57.6562 125.468L58.3106 125.557C56.8242 125.356 55.374 124.952 53.9896 124.37L54.5782 124.62C53.539 124.179 52.5426 123.646 51.5988 123.028C51.3752 122.883 51.1549 122.732 50.9346 122.577C50.8129 122.492 50.6945 122.406 50.5761 122.318C50.5169 122.275 50.4577 122.229 50.3985 122.183C50.0006 121.884 50.8885 122.568 50.6024 122.341C50.1453 121.976 49.6981 121.601 49.2673 121.206C48.3169 120.335 47.4422 119.384 46.6365 118.378C46.4951 118.204 46.0775 117.645 46.6595 118.414C46.574 118.302 46.4885 118.187 46.403 118.076C46.1794 117.776 45.9624 117.47 45.7486 117.161C45.3606 116.599 44.9923 116.02 44.6404 115.435C43.7558 113.955 42.9895 112.406 42.3154 110.821L42.5653 111.41C41.0691 107.855 40.0628 104.113 39.4051 100.318C38.9381 97.6244 37.044 95.3619 34.3704 94.6253C33.3773 94.3524 32.3184 94.2471 31.3088 94.0301C30.3321 93.8229 29.362 93.5894 28.3952 93.3296C26.3761 92.7837 24.3898 92.1129 22.4595 91.3039L23.0481 91.5538C20.3483 90.4094 17.7931 88.9823 15.4517 87.2098C16.2179 87.7918 15.6622 87.3709 15.4879 87.2328C15.3563 87.1275 15.2281 87.0223 15.0998 86.9171C14.8466 86.7066 14.6 86.4929 14.3534 86.2725C13.8798 85.845 13.4194 85.4044 12.9788 84.9407C12.5381 84.477 12.1468 84.0363 11.7587 83.5595C11.6798 83.4609 11.6009 83.3622 11.5252 83.2669C11.295 82.9808 11.9462 83.8226 11.7291 83.5299C11.6831 83.4707 11.6404 83.4115 11.5943 83.3523C11.4167 83.1156 11.2457 82.8755 11.0813 82.6322C10.3644 81.5798 9.74619 80.4618 9.24963 79.2878L9.49956 79.8764C8.92078 78.492 8.5163 77.045 8.31242 75.5553L8.40117 76.2097C8.21702 74.799 8.21702 73.3685 8.40117 71.9577L8.31242 72.6121C8.51301 71.1257 8.91749 69.6755 9.49956 68.291L9.24963 68.8797C9.69029 67.8405 10.223 66.8441 10.8412 65.9003C10.9859 65.6767 11.1372 65.4564 11.2918 65.236C11.3773 65.1144 11.4628 64.996 11.5516 64.8776C11.5943 64.8184 11.6403 64.7592 11.6864 64.7C11.9856 64.3021 11.3016 65.19 11.5285 64.9039C11.8936 64.4468 12.2685 63.9996 12.6631 63.5688C13.5345 62.6184 14.4849 61.7437 15.4912 60.938C15.6655 60.7966 16.2245 60.3789 15.455 60.961C15.5668 60.8755 15.6819 60.79 15.7937 60.7045C16.093 60.4809 16.3988 60.2638 16.7079 60.0501C17.2702 59.662 17.849 59.2937 18.4344 58.9419C19.9142 58.0573 21.4631 57.291 23.0481 56.6169L22.4595 56.8668C26.0143 55.3706 29.7567 54.3643 33.5516 53.7066C36.2449 53.2396 38.5073 51.3455 39.244 48.6719C39.5169 47.6788 39.6222 46.6199 39.8392 45.6103C40.0562 44.6007 40.2799 43.6635 40.5396 42.6967C41.0855 40.6776 41.7564 38.6913 42.5653 36.761L42.3154 37.3496C43.4598 34.6498 44.887 32.0946 46.6595 29.7532C46.0775 30.5194 46.4984 29.9637 46.6365 29.7894C46.7417 29.6578 46.847 29.5296 46.9522 29.4013C47.1627 29.1481 47.3764 28.9015 47.5967 28.6548C48.0242 28.1813 48.4649 27.7209 48.9286 27.2803C49.3922 26.8396 49.8329 26.4483 50.3097 26.0602C50.4084 25.9813 50.5071 25.9024 50.6024 25.8267C50.8885 25.5966 50.0467 26.2477 50.3393 26.0306C50.3985 25.9846 50.4577 25.9418 50.5169 25.8958C50.7537 25.7182 50.9937 25.5472 51.2371 25.3828C52.2894 24.6659 53.4075 24.0477 54.5815 23.5511L53.9928 23.801C55.3773 23.2223 56.8242 22.8178 58.3139 22.6139L57.6595 22.7027C59.0703 22.5185 60.5008 22.5185 61.9116 22.7027L61.2572 22.6139C62.7436 22.8145 64.1937 23.219 65.5782 23.801L64.9896 23.5511C66.0288 23.9918 67.0251 24.5245 67.9689 25.1427C68.1926 25.2874 68.4129 25.4387 68.6332 25.5933C68.7549 25.6788 68.8733 25.7643 68.9917 25.853C69.0508 25.8958 69.1101 25.9418 69.1693 25.9879C69.5672 26.2871 68.6793 25.6031 68.9654 25.83C69.4225 26.195 69.8697 26.5699 70.3005 26.9646C71.2509 27.836 72.1256 28.7864 72.9313 29.7927C73.0727 29.967 73.4903 30.526 72.9083 29.7565C72.9938 29.8683 73.0793 29.9834 73.1648 30.0952C73.3884 30.3945 73.6054 30.7003 73.8192 31.0094C74.2072 31.5717 74.5755 32.1505 74.9274 32.7359C75.812 34.2157 76.5782 35.7646 77.2523 37.3496L77.0024 36.761C77.864 38.813 78.5678 40.9275 79.1301 43.0782C79.4359 44.2423 79.7023 45.4196 79.9325 46.6001C80.2021 47.9813 80.3633 49.346 81.1624 50.5529C82.1917 52.1051 83.7932 53.3087 85.6545 53.6441C86.3187 53.7625 86.9534 53.7493 87.5552 53.3942C88.0682 53.0949 88.5549 52.5096 88.6897 51.9209C88.9627 50.7173 88.3247 49.1323 86.9666 48.8857C86.6213 48.8232 86.2924 48.7278 85.9669 48.5963L86.5555 48.8462C86.3122 48.741 86.0754 48.6193 85.8518 48.4746C85.3388 48.1425 86.2004 48.7969 85.8978 48.5239C85.7992 48.4351 85.7005 48.3496 85.6084 48.2576C85.5163 48.1655 85.4309 48.0635 85.3421 47.9682C85.0494 47.6459 85.7203 48.5042 85.4243 48.0602C85.2664 47.8235 85.1349 47.5703 85.0231 47.3105L85.273 47.8991C84.931 47.054 84.8554 46.1167 84.6811 45.2256C84.5068 44.3344 84.3161 43.4629 84.1023 42.5915C83.7077 40.99 83.244 39.4016 82.6915 37.8462C81.6458 34.8931 80.337 32.0025 78.6434 29.3586C75.9271 25.123 72.1946 21.3018 67.5085 19.2991C65.2658 18.3388 62.954 17.7469 60.5074 17.6384C58.3107 17.5397 56.0449 17.8653 53.96 18.5592C49.0108 20.2067 45.0383 23.6498 41.9931 27.8097C38.2475 32.9266 36.064 39.1682 34.8703 45.3472C34.7058 46.199 34.6302 47.0934 34.3013 47.9024L34.5513 47.3138C34.446 47.5571 34.3244 47.7939 34.1797 48.0175C33.8475 48.5305 34.502 47.6689 34.229 47.9715C34.1402 48.0701 34.0547 48.1688 33.9627 48.2608C33.8706 48.3529 33.7686 48.4384 33.6733 48.5272C33.351 48.8199 34.2093 48.149 33.7653 48.445C33.5286 48.6028 33.2754 48.7344 33.0156 48.8462L33.6042 48.5963C32.759 48.9383 31.8218 49.0139 30.9306 49.1882C30.0395 49.3625 29.168 49.5532 28.2966 49.767C26.6951 50.1616 25.1067 50.6253 23.5513 51.1777C20.5982 52.2235 17.7076 53.5323 15.0637 55.2259C10.8281 57.9422 7.00687 61.6746 5.00417 66.3607C4.04393 68.6035 3.45199 70.9153 3.34347 73.3619C3.24481 75.5586 3.57039 77.8244 4.26426 79.9093C5.9118 84.8585 9.35485 88.831 13.5148 91.8761C18.6317 95.6217 24.8732 97.8053 31.0523 98.999C31.904 99.1634 32.7985 99.239 33.6075 99.5679L33.0188 99.318C33.2622 99.4232 33.499 99.5449 33.7226 99.6896C34.2356 100.022 33.374 99.3673 33.6765 99.6403C33.7752 99.729 33.8738 99.8145 33.9659 99.9066C34.058 99.9987 34.1435 100.101 34.2323 100.196C34.525 100.518 33.8541 99.66 34.1501 100.104C34.3079 100.341 34.4395 100.594 34.5513 100.854L34.3013 100.265C34.6434 101.11 34.719 102.047 34.8933 102.939C35.0643 103.82 35.2583 104.701 35.4721 105.573C35.8667 107.174 36.3303 108.763 36.8828 110.318C37.9285 113.271 39.2374 116.162 40.931 118.806C43.6473 123.041 47.3797 126.862 52.0658 128.865C54.3085 129.825 56.6204 130.417 59.067 130.526C61.2637 130.624 63.5295 130.299 65.6144 129.605C70.5636 127.957 74.5361 124.514 77.5812 120.354C81.3268 115.238 83.5104 108.996 84.7041 102.817C84.8685 101.965 84.9441 101.071 85.273 100.262L85.0231 100.85C85.1283 100.607 85.25 100.37 85.3947 100.147C85.7268 99.6337 85.0724 100.495 85.3454 100.193C85.4342 100.094 85.5196 99.9954 85.6117 99.9033C85.7038 99.8112 85.8057 99.7258 85.9011 99.637C86.2234 99.3443 85.3651 100.015 85.809 99.7192C86.0458 99.5613 86.299 99.4298 86.5588 99.318L85.9702 99.5679C86.8153 99.2259 87.7525 99.1503 88.6437 98.976C89.5349 98.8017 90.3669 98.6175 91.2219 98.4104C92.8267 98.019 94.415 97.5521 95.9738 97.0029C98.9038 95.9703 101.771 94.6779 104.396 93.0106C108.602 90.3371 112.443 86.6474 114.475 82.0271C115.452 79.8041 116.063 77.5317 116.218 75.0982C116.356 72.941 116.07 70.7081 115.438 68.6396C113.929 63.7102 110.588 59.7344 106.543 56.6465C101.63 52.8943 95.5792 50.6549 89.5777 49.3789C88.7128 49.1948 87.8446 49.0336 86.9732 48.8857C86.3023 48.7738 85.6808 48.7771 85.0724 49.1356C84.5594 49.4348 84.0727 50.0202 83.9379 50.6088C83.6649 51.8025 84.2996 53.4139 85.661 53.6441H85.6545Z" fill="#FF4409"/>
<path d="M31.1241 49.7336C30.8183 51.3153 30.6012 52.9201 30.4236 54.5216C30.1408 57.0768 29.9665 59.7174 30.4598 62.2594C30.6736 63.3578 31.1175 64.5351 31.9692 65.3013C33.038 66.2615 34.623 66.4424 35.9976 66.5871C37.0762 66.6989 38.191 66.5443 39.1513 66.0149C40.1115 65.4854 40.7791 64.6074 41.3118 63.6998C42.0222 62.4831 42.5549 61.1644 43.1468 59.8917C44.1169 57.797 45.1593 55.7416 46.2972 53.7324C46.8069 52.8346 46.5405 51.5357 45.5902 51.0325C44.6398 50.5294 43.4329 50.7826 42.8903 51.7395C41.8939 53.4989 40.9665 55.2977 40.1017 57.1261C39.5262 58.3428 38.9935 59.5826 38.3949 60.7862C38.1812 61.217 37.9576 61.6445 37.6945 62.049C37.6452 62.1246 37.5958 62.197 37.5432 62.2726C37.2867 62.6475 37.8556 61.901 37.6517 62.1378C37.5334 62.2759 37.4183 62.4107 37.2834 62.5324C37.119 62.6837 36.8329 62.7955 37.4446 62.4206C37.3854 62.4567 37.3295 62.5028 37.267 62.5422C37.2045 62.5817 37.142 62.6113 37.0828 62.6475C36.7145 62.8514 37.6452 62.46 37.2374 62.5817C37.0927 62.6245 36.9513 62.6606 36.8033 62.6935C36.4448 62.7724 37.4479 62.6442 36.994 62.6639C36.8921 62.6672 36.7868 62.6771 36.6849 62.6771C36.4744 62.6771 36.2673 62.6672 36.0601 62.6475C35.8694 62.6278 35.4484 62.539 36.2081 62.6738C36.0502 62.6475 35.8924 62.6245 35.7345 62.5949C35.4846 62.5488 35.2347 62.4962 34.9848 62.437C34.8204 62.4008 34.6559 62.3647 34.4915 62.3186C34.4586 62.3088 34.4224 62.2956 34.3895 62.289C34.1034 62.2265 34.8993 62.5521 34.6822 62.4173C34.6197 62.3778 34.5474 62.3318 34.4816 62.2989C34.6263 62.3712 34.9256 62.6836 34.6658 62.4239C34.6132 62.3712 34.5671 62.3055 34.5145 62.2562C35.0012 62.7297 34.748 62.5751 34.6198 62.3581C34.5704 62.2759 34.531 62.1904 34.4882 62.1082C34.3073 61.7694 34.6888 62.6409 34.5606 62.2792C34.4816 62.0555 34.4093 61.8286 34.3534 61.5952C34.2975 61.3617 34.2514 61.1249 34.212 60.8881C34.1297 60.3718 34.2514 61.2499 34.2251 60.9967C34.2087 60.8421 34.1889 60.6843 34.1758 60.5297C34.1265 59.9509 34.1067 59.3721 34.1067 58.7934C34.1067 57.5766 34.1889 56.3599 34.3073 55.1497C34.3698 54.5315 34.4422 53.9132 34.5211 53.295C34.5606 52.976 34.4422 53.8639 34.4882 53.5482C34.4981 53.4824 34.5079 53.4167 34.5145 53.3509C34.5342 53.2029 34.5573 53.0582 34.577 52.9102C34.6099 52.6833 34.6461 52.4564 34.6822 52.2328C34.7579 51.7527 34.8368 51.2693 34.9289 50.7925C35.1262 49.7829 34.6461 48.6155 33.551 48.3655C32.5743 48.1419 31.3346 48.6615 31.1241 49.7434V49.7336Z" fill="#FF4409"/>
<path d="M51.4793 53.3926C51.4793 53.3926 48.9373 66.4775 52.4198 67.3522C58.76 68.9406 57.1026 66.3361 63.045 55.8655" fill="#FAF1E7"/>
<path d="M49.5753 52.8664C49.2694 54.4481 49.0524 56.0529 48.8748 57.6544C48.592 60.2096 48.4177 62.8502 48.911 65.3922C49.1247 66.4906 49.5687 67.6679 50.4204 68.4341C51.4892 69.3943 53.0742 69.5752 54.4488 69.7199C55.5274 69.8317 56.6422 69.6772 57.6024 69.1477C58.5627 68.6183 59.2303 67.7402 59.763 66.8326C60.4733 65.6159 61.006 64.2972 61.598 63.0245C62.5681 60.9298 63.6106 58.8745 64.7484 56.8652C65.2581 55.9674 64.9917 54.6685 64.0413 54.1653C63.091 53.6622 61.8841 53.9154 61.3415 54.8724C60.345 56.6317 59.4177 58.4305 58.5528 60.2589C57.9773 61.4757 57.4446 62.7154 56.8461 63.919C56.6324 64.3498 56.4087 64.7773 56.1457 65.1818C56.0963 65.2574 56.047 65.3298 55.9944 65.4054C55.7379 65.7803 56.3068 65.0338 56.1029 65.2706C55.9845 65.4087 55.8694 65.5435 55.7346 65.6652C55.5702 65.8165 55.2841 65.9283 55.8957 65.5534C55.8365 65.5896 55.7806 65.6356 55.7181 65.6751C55.6557 65.7145 55.5932 65.7441 55.534 65.7803C55.1657 65.9842 56.0963 65.5928 55.6886 65.7145C55.5439 65.7573 55.4025 65.7934 55.2545 65.8263C54.8961 65.9053 55.899 65.777 55.4452 65.7967C55.3433 65.8 55.238 65.8099 55.1361 65.8099C54.9256 65.8099 54.7185 65.8 54.5113 65.7803C54.3206 65.7606 53.8996 65.6718 54.6593 65.8066C54.5014 65.7803 54.3436 65.7573 54.1857 65.7277C53.9358 65.6816 53.6859 65.629 53.436 65.5698C53.2715 65.5337 53.1071 65.4975 52.9427 65.4514C52.9098 65.4416 52.8736 65.4284 52.8407 65.4218C52.5546 65.3594 53.3504 65.6849 53.1334 65.5501C53.0709 65.5106 52.9986 65.4646 52.9328 65.4317C53.0775 65.5041 53.3768 65.8165 53.117 65.5567C53.0644 65.5041 53.0183 65.4383 52.9657 65.389C53.4524 65.8625 53.1992 65.7079 53.0709 65.4909C53.0216 65.4087 52.9821 65.3232 52.9394 65.241C52.7585 64.9023 53.14 65.7737 53.0117 65.412C52.9328 65.1884 52.8605 64.9615 52.8045 64.728C52.7486 64.4945 52.7026 64.2577 52.6632 64.0209C52.581 63.5047 52.7026 64.3827 52.6763 64.1295C52.6598 63.9749 52.6401 63.8171 52.627 63.6625C52.5776 63.0837 52.5579 62.505 52.5579 61.9262C52.5579 60.7094 52.6401 59.4927 52.7585 58.2825C52.821 57.6643 52.8933 57.0461 52.9723 56.4278C53.0117 56.1088 52.8933 56.9967 52.9394 56.681C52.9493 56.6153 52.9591 56.5495 52.9657 56.4837C52.9854 56.3357 53.0085 56.191 53.0282 56.0431C53.0611 55.8162 53.0972 55.5893 53.1334 55.3656C53.209 54.8855 53.288 54.4021 53.38 53.9253C53.5773 52.9157 53.0972 51.7483 52.0022 51.4984C51.0255 51.2747 49.7857 51.7943 49.5753 52.8762V52.8664Z" fill="#FF4409"/>
<path d="M25.0645 76.3877C25.0645 76.3877 54.4932 94.4185 69.2914 80.9357L25.0645 76.3877Z" fill="#FAF1E7"/>
<path d="M24.0693 78.0915C25.0723 78.7065 26.1114 79.2622 27.1539 79.8081C29.8504 81.2222 32.6292 82.4882 35.4573 83.6195C38.9267 85.0072 42.5013 86.1648 46.1614 86.931C50.0648 87.7465 54.1294 88.1905 58.1085 87.7334C62.0875 87.2763 66.1159 85.9411 69.4077 83.3958C69.8484 83.0571 70.2759 82.7053 70.6902 82.3304C71.4565 81.6365 71.4499 80.2356 70.6902 79.5384C69.8714 78.7854 68.7171 78.7985 67.8983 79.5384C67.724 79.6963 67.5464 79.8541 67.3623 80.0054C67.2768 80.0745 67.1946 80.1468 67.1091 80.2159C67.0597 80.2553 67.0104 80.2948 66.9644 80.3343C66.7178 80.5349 67.2932 80.0876 67.1058 80.2257C66.7342 80.4987 66.3626 80.7716 65.9745 81.0216C65.2018 81.5214 64.3862 81.9621 63.5476 82.3402C63.4457 82.3863 63.3273 82.4586 63.2188 82.4849C63.1727 82.4981 63.6759 82.2975 63.4818 82.3731C63.4259 82.3961 63.37 82.4192 63.3141 82.4422C63.0905 82.531 62.8669 82.6165 62.6433 82.6987C62.2191 82.85 61.7916 82.9881 61.3608 83.113C60.4762 83.3662 59.5784 83.5636 58.6708 83.7083C58.5524 83.728 58.4307 83.7444 58.3123 83.7641C58.2663 83.7707 58.2235 83.7773 58.1775 83.7839C57.9407 83.8201 58.6708 83.7214 58.4307 83.751C58.1907 83.7806 57.9473 83.8102 57.704 83.8332C57.2469 83.8793 56.7898 83.9121 56.3294 83.9352C55.3856 83.9812 54.4418 83.9812 53.5013 83.9417C52.5608 83.9023 51.5973 83.8234 50.6502 83.7115C50.5417 83.6984 50.4331 83.6852 50.3213 83.6721C49.8379 83.6096 50.6567 83.7214 50.3772 83.6819C50.1273 83.6458 49.8773 83.6096 49.6307 83.5734C49.1637 83.5011 48.7001 83.4221 48.2331 83.3334C44.5796 82.6494 41.005 81.551 37.5357 80.2225C36.7464 79.9199 35.9638 79.6009 35.1811 79.2754C34.9904 79.1964 35.5231 79.4201 35.4672 79.397C35.4179 79.3773 35.3685 79.3543 35.3192 79.3346C35.2205 79.2918 35.1252 79.2523 35.0265 79.2096C34.8358 79.1274 34.6451 79.0452 34.4543 78.9597C34.1091 78.8084 33.7638 78.6538 33.4185 78.496C32.1951 77.9402 30.985 77.3549 29.788 76.7399C28.5416 76.102 27.3347 75.4081 26.1147 74.7208C26.0983 74.7109 26.0818 74.7011 26.0654 74.6912C25.1841 74.1519 23.8555 74.4709 23.3655 75.3982C22.8558 76.3618 23.132 77.5226 24.0726 78.0981L24.0693 78.0915Z" fill="#FF4409"/>
<path d="M68.4582 74.793C68.3168 76.7266 68.205 78.7918 69.1653 80.4788C70.0795 82.0803 71.8454 83.057 73.6574 83.4088C75.4693 83.7607 77.3372 83.5667 79.1623 83.3102" fill="#FAF1E7"/>
<path d="M66.4849 74.7936C66.3074 77.2731 66.2909 80.0059 67.8694 82.0809C69.5531 84.2974 72.105 85.3267 74.8278 85.5371C76.4556 85.6621 78.0802 85.4352 79.6882 85.2116C80.1421 85.1491 80.6485 84.6788 80.8688 84.3039C81.1154 83.8797 81.2207 83.2582 81.0661 82.7847C80.9116 82.3111 80.6156 81.8474 80.1585 81.6041C79.6554 81.3377 79.195 81.3279 78.6392 81.4068C78.534 81.4232 78.4287 81.4364 78.3268 81.4495C78.5899 81.4134 78.6063 81.4101 78.3794 81.4397C78.1953 81.4594 78.0111 81.4857 77.8269 81.5054C77.4323 81.5482 77.0377 81.5811 76.6431 81.6041C76.2748 81.6238 75.9065 81.6337 75.5382 81.6238C75.1995 81.6172 74.7621 81.6501 74.4398 81.5548C74.9232 81.6995 74.3839 81.5416 74.2622 81.5219C74.1143 81.4956 73.9696 81.4627 73.8249 81.4298C73.5454 81.3607 73.2658 81.2785 72.9929 81.1799C72.914 81.1503 72.8383 81.124 72.7594 81.0911C73.0389 81.2128 73.0817 81.2292 72.8877 81.1437C72.7759 81.0911 72.664 81.0385 72.5522 80.9826C72.2793 80.8412 72.0162 80.6833 71.763 80.5057C71.3618 80.2229 72.0096 80.7425 71.7268 80.4761C71.6084 80.3643 71.4835 80.2624 71.3684 80.144C71.2829 80.0585 71.204 79.9631 71.1217 79.8776C70.9902 79.7165 71.0165 79.756 71.2007 79.9927C71.1513 79.927 71.1053 79.8612 71.0592 79.7954C70.9902 79.6935 70.9277 79.5883 70.8652 79.483C70.8192 79.4041 70.7764 79.3219 70.7337 79.2397C70.6416 79.0423 70.6515 79.0753 70.7633 79.3383C70.6054 79.1048 70.5397 78.6971 70.4772 78.4307C70.441 78.2761 70.418 78.1183 70.3851 77.9604C70.3621 77.8092 70.3687 77.8717 70.4081 78.1446C70.3983 78.0525 70.3884 77.9604 70.3785 77.8684C70.3489 77.5428 70.3358 77.2205 70.3325 76.895C70.3259 76.1945 70.3752 75.4941 70.4245 74.7969C70.5002 73.7643 69.4643 72.7778 68.4515 72.8238C67.3202 72.8731 66.5573 73.692 66.4784 74.7969L66.4849 74.7936Z" fill="#FF4409"/>
<path d="M43.1374 67.6272C40.8059 66.1967 37.6917 64.7859 35.5443 66.4795C33.591 68.0185 34.0119 71.33 35.8008 73.0532C37.5898 74.7764 40.2206 75.2663 42.7001 75.4406" fill="#FAF1E7"/>
<path d="M44.134 65.9244C42.3977 64.8622 40.52 63.9776 38.4746 63.7672C36.4291 63.5567 34.3212 64.4676 33.1538 66.2302C32.154 67.7397 32.0653 69.8311 32.6243 71.5181C33.2425 73.3794 34.5218 74.856 36.2351 75.803C38.2147 76.8981 40.4739 77.2533 42.7003 77.4144C43.7328 77.49 44.7194 76.4542 44.6734 75.4413C44.624 74.3101 43.8052 73.5471 42.7003 73.4682C42.3352 73.4419 41.9669 73.409 41.6052 73.3695C41.5197 73.3597 41.3618 73.3071 41.2829 73.3301C41.3191 73.3202 41.7729 73.4057 41.421 73.3465C41.2073 73.3104 40.9935 73.2775 40.7798 73.2347C40.5989 73.1985 38.6653 72.6527 38.6751 72.6329C38.6949 72.6033 39.0698 72.8138 38.7968 72.6823C38.7015 72.6362 38.6061 72.5935 38.5107 72.5441C38.3594 72.4685 38.2115 72.3896 38.0668 72.3041C37.9024 72.2087 37.7445 72.1068 37.5866 71.9983C37.5176 71.9522 37.4518 71.893 37.3827 71.8503L37.5833 72.0015C37.5176 71.9489 37.4518 71.893 37.3893 71.8371C37.2742 71.7352 37.1591 71.6267 37.0539 71.5148C37.0046 71.4622 36.9618 71.4096 36.9125 71.357C36.7021 71.1367 37.0079 71.482 37.021 71.5083C36.8698 71.2287 36.6626 70.9821 36.5179 70.6927C36.4883 70.6368 36.462 70.5546 36.4258 70.4987C36.6823 70.89 36.5442 70.8045 36.485 70.6237C36.439 70.4888 36.3929 70.354 36.3534 70.2159C36.3107 70.0613 36.2811 69.9068 36.2449 69.7489C36.2088 69.5911 36.2548 69.4365 36.2679 69.9594C36.2679 69.8542 36.2449 69.7489 36.2384 69.647C36.2219 69.3675 36.2548 69.0978 36.2614 68.8216C36.2417 69.4431 36.2417 69.009 36.2943 68.7985C36.3337 68.6539 36.3995 68.5157 36.4357 68.371C36.3173 68.8512 36.2877 68.6867 36.3831 68.5256C36.416 68.4697 36.4455 68.4072 36.4817 68.3513C36.5179 68.2954 36.5574 68.2395 36.5903 68.1836C36.7086 67.9666 36.2449 68.5684 36.4949 68.3053C36.5902 68.2066 36.6856 68.1113 36.781 68.0126C36.8862 67.9041 37.0111 67.9139 36.6395 68.1113C36.7448 68.0553 36.8435 67.9699 36.9454 67.9107C37.0145 67.8712 37.0868 67.835 37.1559 67.7956C37.3137 67.7101 37.3762 67.789 37.0111 67.8548C37.1591 67.8284 37.3104 67.7528 37.4584 67.7199C37.4978 67.7101 37.6458 67.7002 37.6886 67.6739C37.442 67.8252 37.2841 67.7166 37.5735 67.6969C37.7511 67.6837 37.932 67.6837 38.1095 67.6903C38.2115 67.6936 38.3101 67.7068 38.412 67.7133C38.662 67.7298 37.9583 67.6311 38.3167 67.7002C38.5239 67.7397 38.731 67.7824 38.9349 67.835C39.3558 67.9468 39.7537 68.1343 40.1681 68.2559C40.1221 68.2428 39.7505 68.0685 40.0629 68.2165C40.1846 68.2724 40.3062 68.3283 40.4246 68.3842C40.6252 68.4796 40.8225 68.5815 41.0165 68.6867C41.398 68.8906 41.7729 69.1077 42.1412 69.3346C43.0225 69.8739 44.3511 69.5549 44.8411 68.6275C45.3311 67.7002 45.0745 66.5032 44.134 65.9277V65.9244Z" fill="#FF4409"/>
</svg>
