<svg width="256" height="199" viewBox="0 0 256 199" fill="none" xmlns="http://www.w3.org/2000/svg">
<path d="M79.7934 48.9397C74.1604 38.2764 72.869 27.0597 71.2291 15.3099C71.1389 14.6499 70.9995 13.9119 70.4501 13.5347C70.0443 13.256 69.5113 13.2519 69.0194 13.2601C65.3706 13.3175 61.7219 13.3748 58.0732 13.4322C57.1179 39.3177 64.3006 66.8636 88.9152 80.2369C92.0146 81.9218 117.867 90.5148 119.228 85.2508C121.389 76.8874 119.893 76.1823 111.808 73.4027C108.479 72.2588 104.941 71.6808 101.706 70.2746C92.2401 66.1708 84.5613 57.9468 79.7975 48.9356L79.7934 48.9397Z" fill="#FAF1E7"/>
<path d="M81.9169 47.6976C81.5233 46.9514 81.1462 46.1929 80.7854 45.4263C80.6255 45.0901 80.4738 44.754 80.3222 44.4137C80.2361 44.2169 80.15 44.0201 80.0639 43.8192C80.0393 43.7659 79.9204 43.4749 80.0434 43.7741C80.1663 44.0734 80.0147 43.7003 79.9901 43.6429C79.3751 42.1548 78.8217 40.6379 78.3256 39.1087C77.3417 36.0749 76.5873 32.9714 75.9642 29.8474C75.3369 26.6948 74.849 23.5175 74.394 20.3361C74.1644 18.7209 73.943 17.1015 73.7175 15.4862C73.5904 14.5843 73.4797 13.7766 73.0821 12.9444C72.6024 11.9359 71.5898 11.1569 70.5033 10.9355C69.4251 10.7141 68.2895 10.8166 67.1949 10.833C66.1823 10.8494 65.1655 10.8658 64.1529 10.8822C62.1236 10.915 60.0983 10.9478 58.069 10.9765C56.7038 10.997 55.6583 12.0876 55.6092 13.4364C55.3673 20.0615 55.687 26.6825 56.6054 33.2461C57.4909 39.5556 59.0037 45.7953 61.3446 51.7234C63.6856 57.6516 67.0186 63.6577 71.2208 68.8028C75.4476 73.9766 80.6665 78.351 86.4512 81.6841C89.5137 83.4469 92.9615 84.5088 96.3151 85.5583C100.8 86.9645 105.38 88.2231 110.029 88.9282C112.042 89.2316 114.128 89.5309 116.166 89.3464C118.052 89.1783 120.102 88.674 121.151 86.9276C121.45 86.4274 121.594 85.8822 121.733 85.3287C121.914 84.6071 122.078 83.8815 122.213 83.1518C122.438 81.9259 122.652 80.6427 122.545 79.3923C122.442 78.2034 122.176 77.0227 121.491 76.0183C120.807 75.0138 119.925 74.2513 118.892 73.6404C117.752 72.964 116.49 72.4843 115.252 72.0211C113.677 71.4307 112.087 70.8772 110.471 70.4099C108.413 69.8154 106.318 69.3358 104.289 68.647C103.813 68.4871 103.342 68.3067 102.875 68.1222C102.756 68.073 102.444 68.0034 102.94 68.1509C102.842 68.1222 102.735 68.0607 102.645 68.0197C102.424 67.9214 102.202 67.823 101.985 67.7164C101.181 67.3392 100.39 66.9333 99.6153 66.4988C98.0123 65.6009 96.475 64.5924 95.0114 63.4896C94.9253 63.424 94.8392 63.3543 94.7531 63.2928C94.8023 63.3256 95.2 63.6413 94.8638 63.3789C94.6957 63.2436 94.5235 63.1083 94.3554 62.973C93.9946 62.6819 93.642 62.3868 93.2936 62.0875C92.613 61.5012 91.9489 60.8986 91.3052 60.2754C89.9728 58.9881 88.7142 57.6229 87.5376 56.1962C87.2588 55.86 86.9883 55.5198 86.7177 55.1795C86.6316 55.0729 86.4143 54.8474 86.8038 55.2902C86.7341 55.2082 86.6685 55.1139 86.607 55.0319C86.4594 54.8392 86.3118 54.6424 86.1683 54.4456C85.6231 53.7036 85.0942 52.9492 84.5858 52.1826C83.6265 50.7313 82.7368 49.2308 81.921 47.6893C81.3183 46.5496 79.6416 46.1068 78.5552 46.8079C77.399 47.554 77.026 48.9562 77.6737 50.1738C81.0642 56.5693 85.7337 62.4442 91.4569 66.9087C94.5235 69.303 97.795 71.3118 101.399 72.7918C103.326 73.583 105.338 74.1078 107.347 74.649C109.176 75.1409 110.976 75.6985 112.759 76.3298C113.378 76.5471 113.997 76.7726 114.608 77.0145C114.747 77.0678 114.883 77.1252 115.018 77.1785C115.555 77.3999 114.571 76.9776 114.915 77.1375C115.17 77.2523 115.424 77.363 115.674 77.486C116.096 77.6951 116.51 77.9246 116.9 78.1952C117.088 78.3264 117.359 78.6052 116.711 78.0394C116.785 78.105 116.863 78.1624 116.941 78.228C117.092 78.3592 117.228 78.5068 117.367 78.6503C117.679 78.9783 117.15 78.4494 117.178 78.392C117.17 78.4125 117.318 78.5888 117.334 78.6134C117.379 78.6872 117.564 79.134 117.621 79.1463C117.535 79.1258 117.342 78.4248 117.498 78.8799C117.523 78.9578 117.547 79.0356 117.568 79.1176C117.593 79.2119 117.617 79.3062 117.634 79.4005C117.642 79.4497 117.65 79.4989 117.662 79.5481C117.744 79.9007 117.605 79.1792 117.613 79.1587C117.556 79.2775 117.658 79.667 117.658 79.8064C117.666 80.0606 117.658 80.3107 117.642 80.5648C117.625 80.819 117.597 81.0896 117.568 81.352C117.539 81.6431 117.658 80.7206 117.613 81.0117C117.601 81.0855 117.593 81.1552 117.58 81.229C117.556 81.3971 117.527 81.5652 117.498 81.7333C117.375 82.4343 117.219 83.1272 117.047 83.82C116.978 84.107 116.891 84.394 116.826 84.6809C116.748 85.0335 116.953 84.3079 117.002 84.2792C116.969 84.2997 116.928 84.4186 116.908 84.4514C116.686 84.8326 117.449 83.8938 117.068 84.2341C117.035 84.2669 116.994 84.2997 116.961 84.3325C116.781 84.5375 117.576 83.9225 117.273 84.0906C117.166 84.148 117.064 84.2136 116.961 84.2751C116.625 84.4678 117.252 84.1316 117.33 84.1275C117.265 84.1275 117.178 84.1849 117.117 84.2095C116.822 84.312 116.518 84.3735 116.215 84.4309C115.764 84.517 116.498 84.3366 116.559 84.3899C116.535 84.3694 116.342 84.4144 116.301 84.4185C116.108 84.439 115.916 84.4514 115.723 84.4637C114.866 84.5047 114.009 84.4678 113.157 84.3981C112.648 84.3571 112.14 84.2956 111.632 84.2341C111.267 84.189 112.361 84.3366 111.865 84.2669C111.738 84.2505 111.611 84.23 111.484 84.2136C111.209 84.1726 110.935 84.1316 110.66 84.0824C109.537 83.8979 108.421 83.6765 107.31 83.4305C105.002 82.9263 102.715 82.3236 100.448 81.6677C98.3977 81.0732 96.3602 80.4336 94.3431 79.7408C93.5437 79.4661 92.7442 79.1792 91.953 78.8799C91.6332 78.761 91.3175 78.638 90.9977 78.5068C90.8747 78.4576 90.7477 78.4043 90.6247 78.3551C90.3869 78.2567 91.3504 78.6667 90.9855 78.5068C90.9158 78.4781 90.8461 78.4453 90.7764 78.4166C89.9524 78.0517 89.1775 77.5844 88.4026 77.1252C86.9964 76.2929 85.6271 75.4033 84.3029 74.4481C83.9832 74.2185 83.6634 73.9848 83.3477 73.747C83.2124 73.6445 83.0731 73.538 82.9378 73.4355C83.5486 73.8905 82.8885 73.3945 82.7409 73.2756C82.1342 72.7918 81.5356 72.2958 80.9494 71.7833C79.7564 70.7461 78.6125 69.6514 77.5179 68.5117C76.4397 67.3843 75.4107 66.2118 74.4309 64.9983C74.312 64.8507 74.1972 64.7031 74.0783 64.5555C74.0209 64.4817 73.9635 64.4079 73.9061 64.3341C73.9266 64.3628 74.2751 64.8179 74.0332 64.4981C73.7913 64.1783 73.5535 63.8627 73.3157 63.5388C72.8607 62.9156 72.4179 62.2843 71.9874 61.6406C70.282 59.0947 68.7815 56.4135 67.4819 53.6421C67.1539 52.9411 66.8382 52.2359 66.5349 51.5226C66.4734 51.3832 66.3791 51.0921 66.6168 51.7194C66.584 51.6333 66.543 51.5472 66.5102 51.4611C66.4364 51.2889 66.3667 51.1126 66.297 50.9404C66.1577 50.5919 66.0183 50.2435 65.883 49.8909C65.3213 48.4396 64.813 46.9678 64.3456 45.4796C63.4068 42.4827 62.6565 39.4243 62.0703 36.3373C61.7792 34.804 61.5291 33.2666 61.3159 31.721C61.2339 31.1143 61.3856 32.2663 61.3077 31.6595C61.2831 31.4668 61.2585 31.2782 61.2339 31.0856C61.1847 30.6797 61.1355 30.2738 61.0904 29.8679C61.0003 29.0767 60.9224 28.2855 60.8527 27.4942C60.578 24.3497 60.4427 21.193 60.4386 18.0362C60.4386 16.4988 60.4632 14.9655 60.5206 13.4281L58.0608 15.888C61.5414 15.8347 65.022 15.7773 68.5027 15.724C68.6995 15.724 68.8963 15.7158 69.0931 15.7158C69.2038 15.7158 69.7244 15.7691 69.3473 15.6953C68.9701 15.6215 69.2899 15.6789 69.3473 15.7035C69.3514 15.7035 68.8881 15.4821 69.13 15.6092C69.3964 15.7486 68.8594 15.3673 68.8061 15.3099C68.5273 15.0229 68.843 15.4985 68.6995 15.1254C68.556 14.7524 68.7118 15.2115 68.7364 15.3099C68.7692 15.4534 68.7979 15.5969 68.8184 15.7404C68.8799 16.1176 68.925 16.4988 68.9783 16.876C69.1997 18.4626 69.4169 20.0492 69.6424 21.6317C70.5198 27.7853 71.5365 33.9471 73.406 39.8876C74.5211 43.4256 75.9355 46.8858 77.6615 50.1697C78.26 51.3094 79.945 51.7481 81.0273 51.0511C82.1875 50.3009 82.5524 48.907 81.9087 47.6852L81.9169 47.6976Z" fill="#FF4409"/>
<path d="M54.4117 11.5867C51.423 16.7634 54.4015 24.0784 61.0645 27.9253C67.7275 31.7721 75.5518 30.6941 78.5405 25.5175C81.5293 20.3408 78.5507 13.0258 71.8877 9.1789C65.2248 5.33202 57.4005 6.41003 54.4117 11.5867Z" fill="#FF4409"/>
<path d="M56.5368 12.8305C56.6803 12.5886 56.832 12.359 56.9919 12.1253C57.0288 12.072 57.0739 12.0269 57.1067 11.9695C57.119 11.9449 56.7459 12.4 56.9181 12.2155C57.0206 12.1089 57.1067 11.9859 57.2051 11.8793C57.3896 11.6743 57.5822 11.4817 57.7831 11.2931C57.8938 11.1947 58.0045 11.1004 58.1152 11.002C58.3981 10.7478 57.6478 11.3341 58.0701 11.0348C58.5252 10.715 58.9966 10.4198 59.4968 10.1739C59.628 10.1083 59.7838 10.0591 59.9109 9.98119C59.9355 9.96479 59.3779 10.1862 59.6239 10.1042C59.6854 10.0837 59.7469 10.055 59.8084 10.0304C60.0995 9.91969 60.3946 9.82129 60.6898 9.73519C60.9481 9.6614 61.2105 9.59581 61.4769 9.53841C61.6327 9.50562 61.7885 9.47281 61.9484 9.44821C62.0181 9.43591 62.0837 9.42773 62.1534 9.41543C62.4937 9.35393 61.9853 9.44 61.9115 9.44411C62.5511 9.39081 63.1783 9.32933 63.822 9.33753C64.1131 9.33753 64.4042 9.35392 64.6952 9.37442C64.8674 9.38672 65.0396 9.40311 65.2077 9.41951C65.2815 9.42771 65.3553 9.43591 65.4291 9.44411C65.7529 9.4769 64.8961 9.35803 65.22 9.41543C65.9005 9.53432 66.5688 9.66551 67.237 9.85C67.5404 9.93609 67.8397 10.0304 68.1348 10.1329C68.3111 10.1944 68.4833 10.2559 68.6555 10.3214C68.7293 10.3501 68.8031 10.3789 68.881 10.4075C69.1844 10.5223 68.8523 10.3993 68.7375 10.3419C69.373 10.6658 70.0248 10.9405 70.648 11.2972C71.2711 11.6539 71.8328 12.0515 72.4109 12.4574C72.6322 12.6132 72.21 12.2975 72.2182 12.3057C72.2756 12.3549 72.337 12.4 72.3985 12.4492C72.5379 12.5599 72.6732 12.6706 72.8085 12.7854C73.0545 12.9945 73.2964 13.2118 73.5301 13.4372C74.0056 13.8923 74.4525 14.3719 74.8707 14.8803C74.9158 14.9336 74.9608 14.991 75.0059 15.0484C75.1781 15.2534 74.8297 14.8147 74.842 14.8311C74.9199 14.9459 75.0101 15.0566 75.0962 15.1714C75.2848 15.4379 75.4692 15.7085 75.6414 15.9831C75.9653 16.5038 76.2482 17.045 76.5106 17.5984C76.5393 17.6558 76.5597 17.7255 76.5925 17.7829C76.6089 17.8116 76.3835 17.254 76.4737 17.5C76.5188 17.623 76.5721 17.746 76.6171 17.869C76.7237 18.1519 76.818 18.443 76.9041 18.734C76.982 19.0005 77.0476 19.267 77.105 19.5376C77.1296 19.6606 77.1542 19.7836 77.1788 19.9107C77.2198 20.1361 77.2198 20.6814 77.1829 19.8778C77.2075 20.4149 77.269 20.9356 77.2485 21.4767C77.2444 21.5997 77.2362 21.7186 77.228 21.8416C77.2198 21.9646 77.1583 22.4648 77.2198 21.9974C77.2813 21.53 77.2198 21.981 77.1993 22.0876C77.1747 22.227 77.146 22.3623 77.1132 22.5017C77.0558 22.7558 76.9861 23.01 76.9041 23.256C76.8672 23.3708 76.8221 23.4856 76.7853 23.5963C76.609 24.1005 77.0271 23.0961 76.8016 23.5676C76.5761 24.039 76.2933 24.5269 75.9817 24.982C75.6906 25.4084 76.2851 24.6294 76.0186 24.941C75.9366 25.0353 75.8546 25.1337 75.7685 25.228C75.5717 25.4493 75.3627 25.6584 75.1413 25.8552C75.047 25.9413 74.9486 26.0192 74.8543 26.1053C74.5427 26.3841 75.2929 25.7937 74.9526 26.0356C74.7108 26.2078 74.4648 26.38 74.2106 26.5317C73.9728 26.6752 73.7268 26.8105 73.4727 26.9334C73.3579 26.9908 73.2349 27.04 73.1201 27.0974C72.8905 27.2163 73.4358 26.9703 73.4071 26.9785C73.3046 27.0113 73.2021 27.0605 73.0996 27.0974C72.5544 27.3024 71.9968 27.4623 71.4269 27.5812C71.2916 27.6099 71.1604 27.6345 71.0252 27.6591C70.935 27.6755 70.8447 27.6878 70.7546 27.7042C70.484 27.7534 71.0989 27.6632 71.0661 27.6632C70.7382 27.6919 70.4143 27.7329 70.0863 27.7493C69.4631 27.7821 68.8359 27.7739 68.2087 27.7247C68.0611 27.7124 67.9135 27.7001 67.7659 27.6837C67.6921 27.6755 67.6183 27.6673 67.5445 27.6591C67.2206 27.6263 68.0775 27.7411 67.7536 27.6878C67.4297 27.6345 67.1058 27.5812 66.7861 27.5115C66.1014 27.3639 65.425 27.1753 64.7649 26.9417C64.6132 26.8884 64.4656 26.835 64.318 26.7777C64.1582 26.7162 63.6252 26.4538 64.2361 26.7531C63.9204 26.5973 63.5924 26.4661 63.2767 26.3062C62.6249 25.9823 61.9976 25.6174 61.3909 25.2157C61.1326 25.0435 60.8784 24.8631 60.6283 24.6827C60.2757 24.4285 61.0096 24.9902 60.5791 24.6458C60.4397 24.5351 60.3044 24.4244 60.1692 24.3096C59.6608 23.8751 59.177 23.4118 58.726 22.9239C58.5293 22.7107 58.3407 22.4935 58.1562 22.2721C58.0414 22.1368 57.7257 21.6776 58.1398 22.268C58.0455 22.1327 57.943 22.0056 57.8487 21.8703C57.5002 21.3825 57.1805 20.8741 56.8976 20.3452C56.7582 20.0869 56.627 19.8287 56.504 19.5622C56.4753 19.5007 56.4507 19.4392 56.422 19.3818C56.3031 19.1481 56.5491 19.6934 56.5409 19.6647C56.4876 19.5007 56.4097 19.3367 56.3482 19.1727C56.1555 18.6479 55.9997 18.1109 55.8849 17.5656C55.8562 17.4221 55.8276 17.2786 55.803 17.131C55.7866 17.0245 55.7209 16.5653 55.7824 17.0245C55.8439 17.4836 55.7866 17.0245 55.7784 16.9179C55.762 16.7539 55.7538 16.5899 55.7456 16.4259C55.7374 16.1799 55.7333 15.9381 55.7456 15.6921C55.7497 15.5486 55.7579 15.4092 55.7702 15.2657C55.7784 15.1509 55.8399 14.6384 55.7784 15.1099C55.7169 15.5814 55.7907 15.0566 55.8112 14.9582C55.8317 14.8393 55.8562 14.7204 55.8849 14.6056C55.9464 14.331 56.0243 14.0604 56.1145 13.7939C56.1514 13.6791 56.1966 13.5684 56.2376 13.4536C56.3728 13.0642 55.9957 13.9661 56.176 13.593C56.299 13.3347 56.4261 13.0805 56.5655 12.8305C57.201 11.7112 56.8689 10.0919 55.6841 9.46462C54.4992 8.83737 52.9988 9.15303 52.3182 10.346C49.2885 15.6839 51.2933 22.0712 55.2044 26.3513C59.546 31.0987 66.5196 33.7103 72.8741 32.2918C75.8341 31.6317 78.4169 29.959 80.2003 27.5115C81.7787 25.3427 82.4264 22.4566 82.1108 19.8123C81.3441 13.4331 76.5884 8.34949 70.8079 5.91017C65.3307 3.59794 57.9348 3.69223 53.7121 8.44788C53.1915 9.03414 52.7159 9.66959 52.3182 10.346C51.6664 11.4571 52.0271 13.0929 53.1997 13.7119C54.3722 14.331 55.8685 14.0153 56.5655 12.8305L56.5368 12.8305Z" fill="#FF4409"/>
<path d="M193.351 59.9611C199.095 49.0887 201.239 36.6502 201.825 24.3716C206.183 24.3757 210.541 24.3839 214.915 24.3921C219.298 24.966 213.501 50.3719 212.718 53.4139C208.737 68.8 198.365 83.5959 184.237 91.2664C181.134 92.9514 155.285 101.544 153.928 96.2803C151.768 87.917 153.264 87.2118 161.349 84.4322C164.678 83.2884 168.216 82.7103 171.45 81.3041C180.917 77.2003 188.595 68.9763 193.359 59.9652L193.351 59.9611Z" fill="#FAF1E7"/>
<path d="M191.227 58.7227C191.797 57.6404 192.334 56.5458 192.838 55.4347C192.937 55.2133 193.039 54.9879 193.138 54.7665C193.199 54.6271 193.261 54.4877 193.318 54.3483L193.355 54.2663C193.462 54.0162 193.449 54.0408 193.322 54.3483C193.4 54.3319 193.609 53.6514 193.634 53.5858C193.757 53.2742 193.88 52.9626 194.003 52.651C194.856 50.4331 195.589 48.166 196.213 45.8742C196.836 43.5825 197.348 41.3031 197.775 38.9867C197.992 37.8101 198.184 36.6294 198.357 35.4446C198.398 35.1699 198.435 34.8993 198.471 34.6247C198.492 34.473 198.574 34.0343 198.471 34.641C198.492 34.5222 198.504 34.3951 198.521 34.2762C198.599 33.6653 198.672 33.0586 198.738 32.4477C199.037 29.7665 199.238 27.073 199.369 24.3795C199.435 23.0512 200.443 21.9197 201.829 21.9197C204.486 21.9197 207.142 21.9279 209.799 21.932C211.127 21.932 212.46 21.932 213.788 21.9361C214.764 21.9361 215.674 21.9033 216.539 22.3993C218.466 23.5022 218.831 25.9825 218.958 27.9831C219.105 30.3282 218.876 32.7019 218.605 35.0264C218.261 37.9741 217.797 40.9095 217.26 43.8326C216.51 47.9159 215.723 52.0402 214.546 56.0292C212.119 64.2532 208.065 71.9155 202.756 78.6349C200.181 81.8901 197.283 84.887 194.077 87.5272C192.388 88.917 190.629 90.2289 188.796 91.4219C187.599 92.2009 186.365 92.9962 185.07 93.5988C183.356 94.3942 181.564 95.0215 179.777 95.6282C177.325 96.4645 174.845 97.223 172.344 97.9117C169.683 98.6415 166.998 99.2974 164.28 99.773C161.923 100.187 159.442 100.589 157.04 100.392C154.797 100.208 152.374 99.4737 151.6 97.0959C151.083 95.5134 150.8 93.7792 150.632 92.1312C150.505 90.9095 150.542 89.573 150.989 88.4168C151.542 86.9737 152.452 85.9201 153.707 85.0305C154.851 84.2187 156.212 83.7063 157.507 83.2061C159.323 82.5092 161.168 81.8737 163.038 81.3448C165.403 80.6807 167.806 80.1354 170.097 79.2294C170.212 79.1843 170.335 79.1433 170.446 79.09C169.905 79.3524 170.397 79.1064 170.503 79.0613C170.7 78.9752 170.897 78.885 171.09 78.7948C171.602 78.5571 172.106 78.307 172.606 78.0446C173.537 77.5567 174.447 77.032 175.337 76.4703C176.226 75.9086 177.051 75.3388 177.879 74.7279C177.998 74.6418 178.723 74.0597 178.157 74.5229C178.346 74.3672 178.543 74.2237 178.731 74.0679C179.174 73.7112 179.613 73.3463 180.043 72.9692C181.626 71.5958 183.114 70.1117 184.5 68.5415C184.844 68.152 185.18 67.7625 185.512 67.3649C185.844 66.9672 186.291 66.5449 186.537 66.094C186.295 66.5408 186.349 66.344 186.451 66.2047C186.533 66.0981 186.615 65.9874 186.697 65.8808C186.845 65.684 186.988 65.4913 187.136 65.2904C187.456 64.8517 187.767 64.409 188.075 63.9621C189.227 62.2812 190.28 60.5307 191.236 58.7309C191.838 57.5912 193.515 57.1484 194.601 57.8495C195.757 58.5956 196.131 59.9977 195.483 61.2153C191.502 68.7178 185.783 75.4085 178.707 80.1436C177.03 81.267 175.267 82.2632 173.431 83.1077C171.147 84.1613 168.781 84.8911 166.359 85.5429C164.259 86.1046 162.197 86.7278 160.147 87.4575C159.438 87.7117 158.733 87.9741 158.036 88.2569C157.7 88.3922 158.335 88.1258 158.331 88.134C158.282 88.1831 158.159 88.2077 158.098 88.2364C157.962 88.2979 157.827 88.3594 157.696 88.4209C157.421 88.5521 157.151 88.6874 156.884 88.8391C156.671 88.9621 156.458 89.0892 156.253 89.2327C156.212 89.2614 156.167 89.2942 156.126 89.3229C155.826 89.5197 156.618 88.9211 156.413 89.0974C156.31 89.1835 156.204 89.2696 156.105 89.3598C155.97 89.4827 155.83 89.7287 155.675 89.8189C155.806 89.741 156.093 89.2163 155.859 89.5934C155.789 89.7082 155.716 89.8189 155.654 89.9419C155.613 90.0198 155.58 90.1059 155.535 90.1879C155.953 89.4213 155.72 89.7328 155.638 89.987C155.568 90.2084 155.527 90.4339 155.482 90.6594C155.421 90.934 155.56 89.905 155.535 90.274C155.535 90.3273 155.523 90.3806 155.519 90.4298C155.507 90.5651 155.498 90.7045 155.498 90.8398C155.49 91.1226 155.498 91.4096 155.519 91.6925C155.527 91.8401 155.544 91.9836 155.556 92.1312C155.564 92.1968 155.572 92.2664 155.576 92.332C155.613 92.7543 155.486 91.7335 155.535 92.0451C155.597 92.4222 155.654 92.7994 155.728 93.1766C155.888 94.0047 156.109 94.8165 156.298 95.6364C156.298 95.6487 156.355 95.8291 156.359 95.8291C156.372 95.825 156.011 95.0583 156.208 95.4355C156.236 95.4888 156.281 95.5339 156.306 95.5831C155.994 94.9067 155.859 95.0706 156.076 95.2674C156.109 95.2961 156.212 95.3658 156.228 95.4068C156.204 95.3535 155.572 94.9641 155.904 95.1485C156.04 95.2223 156.175 95.2961 156.31 95.3699C155.478 94.9026 155.892 95.2059 156.204 95.3002C156.384 95.3535 156.568 95.3986 156.753 95.4355C156.843 95.4519 156.933 95.4683 157.024 95.4806C157.429 95.5544 156.253 95.3945 156.716 95.4396C156.942 95.4601 157.167 95.4847 157.392 95.497C158.405 95.5503 159.422 95.4929 160.43 95.3945C160.701 95.3699 160.972 95.3371 161.242 95.3043C161.369 95.2879 161.906 95.2182 161.377 95.2879C160.849 95.3576 161.496 95.2715 161.615 95.251C162.222 95.1608 162.825 95.0624 163.427 94.9518C164.743 94.7099 166.051 94.427 167.355 94.1195C172.082 92.9962 176.776 91.5982 181.318 89.8722C181.671 89.7369 182.023 89.5975 182.376 89.4541C182.946 89.2204 181.724 89.7369 182.245 89.5115C182.368 89.4582 182.487 89.4049 182.61 89.3475C183.877 88.7571 185.082 87.9782 186.254 87.2197C187.095 86.6745 187.919 86.1087 188.726 85.5143C188.94 85.3585 189.153 85.2027 189.362 85.0428C189.444 84.9813 189.53 84.9116 189.612 84.8501C189.116 85.2027 189.382 85.0305 189.489 84.9444C189.903 84.6164 190.317 84.2884 190.727 83.9523C192.281 82.6649 193.761 81.2957 195.167 79.8485C196.573 78.4013 197.918 76.8721 199.181 75.2855C199.246 75.2035 199.312 75.1174 199.378 75.0354C199.41 74.9944 199.751 74.5926 199.48 74.9042C199.209 75.2158 199.55 74.814 199.582 74.773C199.648 74.6869 199.714 74.6008 199.775 74.5188C200.099 74.0925 200.415 73.662 200.722 73.2274C201.313 72.3993 201.882 71.5589 202.436 70.7061C203.522 69.0252 204.527 67.2911 205.453 65.5118C205.921 64.614 206.367 63.7079 206.79 62.7896C206.991 62.355 207.187 61.9205 207.376 61.4818C207.442 61.326 207.745 60.584 207.47 61.2645C207.569 61.0185 207.675 60.7767 207.774 60.5307C209.594 56.0415 210.734 51.4047 211.709 46.6737C212.23 44.1401 212.71 41.5983 213.12 39.0441C213.23 38.3677 213.333 37.6912 213.431 37.0107C213.476 36.6909 213.521 36.3711 213.567 36.0555C213.435 36.9984 213.534 36.2809 213.562 36.0759C213.583 35.8997 213.608 35.7275 213.628 35.5512C213.784 34.2885 213.915 33.0217 213.997 31.7549C214.067 30.6643 214.108 29.5697 214.067 28.4792C214.05 28.0528 213.919 27.5445 213.964 27.1222C213.952 27.2452 214.083 27.9011 214.005 27.4584C213.989 27.3559 213.972 27.2575 213.952 27.155C213.919 26.9787 213.878 26.8024 213.829 26.6302C213.788 26.4827 213.735 26.3392 213.685 26.1957C213.571 25.8554 214.022 26.8844 213.833 26.5482C213.796 26.4785 213.763 26.4048 213.722 26.3392C213.694 26.29 213.644 26.2367 213.624 26.1875C213.55 26.0153 214.12 26.7983 213.878 26.5236C213.845 26.4867 213.788 26.454 213.763 26.4089C213.69 26.3023 214.403 26.8516 214.095 26.6712C213.755 26.4744 214.661 26.8967 214.501 26.8311C214.452 26.8106 214.403 26.8024 214.354 26.7901C214.124 26.7245 214.678 27.0484 214.719 26.8639C214.719 26.8721 214.276 26.8639 214.309 26.8639C213.968 26.8639 213.624 26.8639 213.284 26.8639C211.988 26.8639 210.693 26.8639 209.397 26.8598C206.876 26.8598 204.355 26.8516 201.833 26.8475L204.293 24.3877C203.822 34.1737 202.436 44.0663 199.009 53.2865C198 56.0005 196.832 58.6571 195.483 61.2194C194.884 62.3591 193.199 62.7978 192.117 62.1009C190.957 61.3547 190.592 59.9567 191.236 58.735L191.227 58.7227Z" fill="#FF4409"/>
<path d="M171.148 5.67527L214.017 16.7539C215.442 17.1221 216.298 18.5758 215.93 20.0007L214.885 24.0454C214.516 25.4703 213.063 26.3269 211.638 25.9587L168.769 14.8801C167.345 14.5118 166.488 13.0582 166.856 11.6332L167.901 7.58854C168.27 6.16362 169.723 5.30702 171.148 5.67527Z" fill="#FFAD62"/>
<path d="M192.379 4.42981C194.113 3.61807 196.216 4.22894 197.762 5.79502C198.668 4.83159 199.742 4.03215 200.98 3.4541C207.236 0.531009 215.181 4.31503 218.728 11.9077C222.274 19.5003 220.076 28.0195 213.816 30.9426C207.56 33.8657 199.615 30.0817 196.069 22.489C194.966 20.1276 194.42 17.676 194.375 15.3268C192.867 14.8349 191.448 13.5844 190.62 11.8093C189.23 8.83289 190.017 5.52853 192.375 4.42981L192.379 4.42981Z" fill="#FF4409"/>
<path d="M191.139 2.30654C192.628 1.64649 194.128 1.4374 195.727 1.83097C197.158 2.18354 198.466 3.02809 199.503 4.05301L196.022 4.05301C198.277 1.69159 201.262 0.338689 204.488 0.0476106C207.157 -0.194272 209.846 0.50677 212.228 1.66699C217.464 4.2211 221.268 9.62041 222.437 15.2657C223.605 20.911 222.437 27.2081 218.017 31.07C215.828 32.9846 213.196 34.0792 210.306 34.3416C207.616 34.5835 204.902 33.8742 202.504 32.6935C197.039 29.9959 193.095 24.1784 192.193 18.2052C192.05 17.2499 191.939 16.2947 191.918 15.3272L193.722 17.7009C190.594 16.6391 188.184 13.7857 187.646 10.5141C187.109 7.24258 188.085 3.79883 191.135 2.31064C192.291 1.74898 193.849 1.95806 194.501 3.19207C195.083 4.29899 194.854 5.95527 193.62 6.55792C193.407 6.66452 193.214 6.79162 193.013 6.91461C192.771 7.0622 193.443 6.52103 193.165 6.80801C193.074 6.89821 192.98 6.9843 192.898 7.07859C192.833 7.15239 192.566 7.44756 192.849 7.12369C193.132 6.79981 192.878 7.10319 192.824 7.19339C192.755 7.30408 192.693 7.41886 192.632 7.53366C192.587 7.61975 192.402 7.98872 192.595 7.59925C192.787 7.20978 192.611 7.58286 192.578 7.68125C192.537 7.81244 192.5 7.94363 192.468 8.07482C192.439 8.18551 192.423 8.3003 192.398 8.41509C192.332 8.71437 192.451 7.81244 192.423 8.2511C192.406 8.51758 192.394 8.77997 192.402 9.04645C192.406 9.16944 192.418 9.29243 192.427 9.41542C192.455 9.94428 192.304 8.83737 192.419 9.35803C192.476 9.61221 192.525 9.86229 192.599 10.1124C192.644 10.2641 192.697 10.4117 192.746 10.5633C192.89 10.9897 192.578 10.2272 192.714 10.5018C192.849 10.7765 192.98 11.043 193.136 11.3054C193.206 11.4202 193.279 11.5309 193.357 11.6416C193.571 11.9531 193.476 11.7277 193.304 11.5883C193.513 11.7564 193.681 12.0228 193.878 12.2114C193.968 12.2975 194.067 12.3795 194.157 12.4656C194.53 12.8223 193.698 12.1663 194.124 12.4451C194.325 12.5763 194.522 12.7116 194.735 12.8264C194.854 12.892 194.997 12.9412 195.112 13.0109L194.78 12.8674C194.866 12.9002 194.952 12.9289 195.038 12.9576C196.092 13.3142 196.817 14.1957 196.842 15.3313C196.85 15.6839 196.867 16.0405 196.895 16.3931C196.912 16.5735 196.928 16.7498 196.949 16.9302C196.957 16.9958 196.994 17.3032 196.949 16.963C196.904 16.6022 196.961 17.0163 196.969 17.086C197.096 17.8772 197.281 18.6602 197.514 19.4269C197.625 19.7918 197.748 20.1484 197.879 20.5051C197.912 20.5912 198.133 21.1119 198.002 20.8372C197.871 20.5625 198.01 20.8536 198.031 20.8987C198.084 21.0176 198.138 21.1365 198.191 21.2554C198.461 21.8375 198.765 22.4033 199.093 22.9526C199.421 23.502 199.798 24.0391 200.183 24.5638C200.343 24.7811 200.011 24.3465 200.023 24.3588C200.073 24.4121 200.114 24.4736 200.163 24.531C200.253 24.6458 200.347 24.7565 200.442 24.8672C200.647 25.105 200.856 25.3387 201.073 25.5641C201.483 25.9905 201.909 26.3964 202.36 26.7818C202.467 26.872 202.573 26.9621 202.684 27.0482C202.737 27.0933 202.795 27.1343 202.848 27.1794C202.869 27.1958 202.409 26.8515 202.627 27.0031C202.889 27.1876 203.143 27.3803 203.414 27.5566C203.885 27.8641 204.369 28.147 204.869 28.4011C205.103 28.52 205.361 28.6102 205.587 28.7414C205.615 28.7578 205.058 28.5282 205.304 28.6225C205.365 28.6471 205.427 28.6717 205.484 28.6963C205.628 28.7537 205.767 28.8029 205.911 28.8562C206.415 29.0366 206.931 29.1842 207.456 29.299C207.727 29.3564 207.997 29.3974 208.268 29.4466C208.539 29.4958 207.883 29.4015 207.928 29.4015C207.989 29.4015 208.055 29.4179 208.116 29.422C208.264 29.4343 208.407 29.4507 208.555 29.4589C209.076 29.4958 209.596 29.4917 210.117 29.4589C210.24 29.4507 210.367 29.4384 210.49 29.4261C210.547 29.422 210.621 29.422 210.674 29.4056C210.728 29.3892 210.064 29.5081 210.33 29.4507C210.597 29.3933 210.863 29.3564 211.13 29.2949C211.667 29.1678 212.167 28.9546 212.692 28.7947C212.724 28.7865 212.167 29.0366 212.396 28.9177C212.454 28.889 212.515 28.8644 212.573 28.8398C212.692 28.7824 212.815 28.725 212.933 28.6635C213.188 28.5323 213.438 28.3929 213.68 28.2413C213.901 28.1019 214.114 27.9543 214.327 27.8026C214.381 27.7657 214.43 27.7206 214.483 27.6878C214.508 27.6714 214.053 28.0445 214.241 27.8723C214.352 27.7698 214.475 27.6796 214.59 27.5771C215.012 27.204 215.401 26.7982 215.758 26.3677C215.799 26.3185 215.84 26.2652 215.881 26.216C216.049 26.0233 215.68 26.4825 215.697 26.4579C215.762 26.3472 215.852 26.2447 215.926 26.1422C216.09 25.9085 216.242 25.6707 216.389 25.4288C216.676 24.9492 216.881 24.4408 217.144 23.953C217.156 23.9284 216.939 24.4777 217.025 24.2317C217.045 24.1702 217.074 24.1047 217.099 24.0432C217.156 23.8956 217.209 23.748 217.259 23.5963C217.353 23.3175 217.443 23.0346 217.521 22.7477C217.673 22.186 217.779 21.6202 217.878 21.0504C217.923 20.7798 217.837 21.3866 217.837 21.3538C217.841 21.2841 217.853 21.2144 217.861 21.1447C217.878 21.0053 217.89 20.8618 217.902 20.7183C217.927 20.4067 217.943 20.0992 217.951 19.7877C217.968 19.1522 217.947 18.5168 217.89 17.8854C217.878 17.7378 217.861 17.5902 217.845 17.4426C217.796 16.9835 217.927 17.9592 217.853 17.5041C217.8 17.1803 217.742 16.8564 217.677 16.5366C217.541 15.9053 217.377 15.2821 217.177 14.6671C217.078 14.3679 216.972 14.0686 216.857 13.7734C216.799 13.6258 216.734 13.4782 216.681 13.3306C216.918 13.9866 216.681 13.3429 216.603 13.179C216.332 12.5968 216.029 12.031 215.701 11.4817C215.373 10.9323 215.028 10.4321 214.655 9.92788C214.389 9.57121 214.963 10.301 214.68 9.96068C214.586 9.84999 214.495 9.7352 214.401 9.62451C214.184 9.36622 213.958 9.11614 213.725 8.87016C213.315 8.44379 212.888 8.03792 212.437 7.65255C212.331 7.56236 212.224 7.47217 212.113 7.38607C212.06 7.34098 212.003 7.29998 211.949 7.25488C211.929 7.23848 212.388 7.58285 212.171 7.43116C211.929 7.25898 211.691 7.08269 211.441 6.9187C210.974 6.60712 210.486 6.32424 209.986 6.07006C209.732 5.93887 209.453 5.84048 209.207 5.70109C209.178 5.68469 209.736 5.91428 209.49 5.81998C209.428 5.79539 209.367 5.77079 209.309 5.74619C209.166 5.6888 209.026 5.63959 208.883 5.5863C208.379 5.40591 207.862 5.25833 207.337 5.14354C207.087 5.09024 206.837 5.04924 206.587 5.00415C206.165 4.93035 207.169 5.06154 206.739 5.02464C206.591 5.01234 206.448 4.99594 206.3 4.98364C205.759 4.94264 205.218 4.94264 204.677 4.98364C204.554 4.99184 204.427 5.00415 204.304 5.01645C204.246 5.02055 204.172 5.02054 204.119 5.03694C204.066 5.05334 204.73 4.93445 204.463 4.99185C204.197 5.04924 203.93 5.08613 203.664 5.14763C203.147 5.27062 202.66 5.45101 202.159 5.62319C201.913 5.70929 202.483 5.47971 202.45 5.50021C202.397 5.53301 202.332 5.5535 202.274 5.5781C202.094 5.6642 201.918 5.75028 201.741 5.84048C201.405 6.01676 201.081 6.21356 200.77 6.42674C200.696 6.47594 200.257 6.80391 200.528 6.59073C200.798 6.37755 200.376 6.72192 200.306 6.77931C200.023 7.02529 199.757 7.28358 199.499 7.55416C198.576 8.52169 196.949 8.4725 196.018 7.55416C195.899 7.43527 195.592 7.25078 195.526 7.10319C195.596 7.26308 195.916 7.38607 195.571 7.14419C195.485 7.0827 195.395 7.02529 195.305 6.972C195.124 6.86131 194.936 6.77521 194.755 6.67682C194.485 6.52923 195.21 6.82851 194.919 6.75061C194.8 6.71781 194.682 6.66862 194.563 6.63582C194.468 6.60712 194.37 6.59073 194.276 6.56613C193.948 6.48004 194.395 6.58662 194.497 6.58252C194.304 6.58662 194.112 6.54973 193.919 6.55792C193.825 6.55792 193.726 6.58253 193.632 6.57433C194.19 6.60712 194.034 6.51284 193.792 6.56613C193.591 6.61123 192.951 6.87771 193.624 6.57843C193.001 6.85721 192.414 7.0171 191.73 6.82442C191.16 6.66863 190.541 6.22585 190.258 5.69289C189.692 4.62287 189.885 2.8846 191.139 2.32704L191.139 2.30654Z" fill="#FF4409"/>
<path d="M164.327 192.759H142.188V126.139H154.693L164.327 192.759Z" fill="#FAF1E7"/>
<path d="M164.326 190.299H142.188L144.648 192.759V134.359C144.648 131.661 144.726 128.947 144.648 126.25C144.648 126.213 144.648 126.176 144.648 126.139L142.188 128.599H154.692L152.318 126.795C152.638 129.013 152.962 131.235 153.282 133.453C154.048 138.745 154.811 144.038 155.577 149.335C156.508 155.767 157.439 162.2 158.369 168.636C159.169 174.167 159.968 179.697 160.768 185.228C161.157 187.913 161.456 190.631 161.936 193.3C161.944 193.337 161.948 193.378 161.952 193.415C162.034 193.981 162.613 194.612 163.084 194.887C163.613 195.194 164.388 195.325 164.978 195.133C165.568 194.94 166.146 194.571 166.45 194.001C166.782 193.378 166.798 192.8 166.696 192.107C166.376 189.889 166.052 187.667 165.732 185.449C164.966 180.156 164.203 174.864 163.437 169.567C162.506 163.135 161.575 156.702 160.645 150.266C159.845 144.735 159.046 139.205 158.246 133.674C157.984 131.85 157.717 130.025 157.455 128.205C157.332 127.34 157.246 126.459 157.078 125.602C157.07 125.565 157.066 125.524 157.062 125.487C156.91 124.437 155.672 123.683 154.688 123.683H142.184C140.855 123.683 139.724 124.811 139.724 126.143V184.543C139.724 187.245 139.671 189.951 139.724 192.652C139.724 192.689 139.724 192.726 139.724 192.763C139.724 194.091 140.851 195.223 142.184 195.223H164.322C165.609 195.223 166.843 194.091 166.782 192.763C166.72 191.435 165.7 190.303 164.322 190.303L164.326 190.299Z" fill="#FF4409"/>
<path d="M181.766 196.244H145.246C143.565 196.244 142.188 194.866 142.188 193.185V184.953C142.188 183.272 143.565 181.895 145.246 181.895H173.534C179.745 181.895 184.824 186.974 184.824 193.185C184.824 194.866 183.447 196.244 181.766 196.244Z" fill="#FF4409"/>
<path d="M181.766 193.784C180.081 193.784 178.4 193.784 176.715 193.784C172.89 193.784 169.065 193.784 165.244 193.784H153.048C150.592 193.784 148.136 193.784 145.68 193.784C145.537 193.784 145.393 193.784 145.246 193.784C145.197 193.784 145.111 193.784 145.098 193.784C144.684 193.784 145.684 193.919 145.131 193.776C145.041 193.751 144.955 193.718 144.869 193.694C144.635 193.632 145.139 193.804 145.143 193.809C145.11 193.755 144.43 193.362 144.828 193.636C145.25 193.932 144.5 193.181 144.795 193.604C145.037 193.948 144.75 193.497 144.684 193.407C144.475 193.099 144.762 193.554 144.762 193.624C144.762 193.563 144.688 193.415 144.676 193.366C144.655 193.288 144.647 193.161 144.61 193.095C144.651 193.177 144.647 193.673 144.647 193.329C144.66 191.857 144.647 190.385 144.647 188.918V185.183C144.647 185.121 144.647 185.06 144.647 184.998C144.647 184.986 144.647 184.974 144.647 184.957C144.647 184.908 144.647 184.826 144.647 184.814C144.647 184.379 144.537 185.261 144.623 184.982C144.664 184.847 144.75 184.658 144.758 184.519C144.733 184.949 144.545 184.941 144.68 184.736C144.729 184.662 144.778 184.58 144.819 184.506C144.967 184.252 144.93 184.592 144.68 184.683C144.725 184.666 144.783 184.568 144.819 184.535C144.91 184.457 145.135 184.314 144.819 184.506C144.459 184.724 144.819 184.515 144.901 184.465C144.947 184.437 145.119 184.367 145.139 184.334C145.115 184.375 144.549 184.531 144.93 184.428C145.041 184.396 145.586 184.305 145.143 184.351C144.701 184.396 145.143 184.363 145.254 184.363C145.459 184.363 145.668 184.363 145.873 184.363H167.114C169.25 184.363 171.385 184.351 173.526 184.363C173.767 184.363 174.005 184.371 174.247 184.387C174.411 184.4 174.579 184.412 174.743 184.428C174.846 184.441 175.178 184.469 174.768 184.428C174.329 184.383 174.755 184.428 174.858 184.449C175.559 184.576 176.252 184.769 176.916 185.023C177.461 185.232 176.432 184.785 176.957 185.039C177.101 185.109 177.244 185.175 177.387 185.244C177.707 185.408 178.023 185.589 178.326 185.781C178.478 185.88 178.63 185.978 178.773 186.081C178.978 186.224 179.277 186.593 178.814 186.101C179.056 186.359 179.368 186.564 179.622 186.81C179.864 187.044 180.097 187.29 180.315 187.544C180.417 187.659 180.503 187.798 180.618 187.905C180.216 187.524 180.368 187.573 180.479 187.729C180.544 187.819 180.61 187.909 180.675 188.003C181.077 188.581 181.405 189.192 181.709 189.828C181.881 190.189 181.631 189.647 181.622 189.615C181.643 189.697 181.692 189.791 181.721 189.869C181.786 190.041 181.848 190.213 181.901 190.385C182.016 190.738 182.11 191.09 182.188 191.451C182.221 191.611 182.254 191.771 182.283 191.931C182.385 192.525 182.225 191.369 182.291 191.972C182.332 192.349 182.356 192.73 182.356 193.112C182.356 193.231 182.336 193.353 182.344 193.468C182.303 192.956 182.426 193.013 182.365 193.226C182.34 193.313 182.311 193.403 182.291 193.493C182.221 193.772 182.139 193.472 182.385 193.284C182.344 193.317 182.274 193.489 182.254 193.522C182.221 193.575 182.172 193.632 182.143 193.69C182.02 193.952 182.504 193.329 182.274 193.505C182.213 193.554 182.127 193.628 182.086 193.694C181.967 193.87 182.291 193.534 182.324 193.522C182.246 193.546 181.901 193.739 181.86 193.8C181.893 193.755 182.447 193.612 182.069 193.706C181.983 193.727 181.889 193.755 181.803 193.78C181.717 193.804 181.463 193.833 181.856 193.784C182.315 193.727 181.84 193.772 181.758 193.772C180.47 193.8 179.236 194.883 179.298 196.231C179.359 197.58 180.38 198.724 181.758 198.691C184.181 198.634 186.206 197.129 187.009 194.854C187.309 194.005 187.313 193.058 187.231 192.173C187.149 191.287 187.014 190.34 186.763 189.459C185.821 186.138 183.615 183.26 180.684 181.444C178.494 180.087 175.932 179.423 173.37 179.423C172.439 179.423 171.513 179.423 170.582 179.423H147.525C146.771 179.423 146.017 179.41 145.266 179.423C143.372 179.451 141.736 180.362 140.65 181.895C139.937 182.903 139.724 184.125 139.724 185.334V191.07C139.724 191.742 139.719 192.411 139.724 193.083C139.736 194.997 140.638 196.67 142.196 197.765C143.376 198.593 144.729 198.691 146.103 198.691C147.238 198.691 148.374 198.691 149.509 198.691C153.371 198.691 157.237 198.691 161.099 198.691C165.326 198.691 169.557 198.691 173.784 198.691C176.322 198.691 178.855 198.691 181.393 198.691H181.758C183.045 198.691 184.279 197.56 184.218 196.231C184.156 194.903 183.135 193.772 181.758 193.772L181.766 193.784Z" fill="#FF4409"/>
<path d="M109.392 192.759H131.53V126.139H119.026L109.392 192.759Z" fill="#FAF1E7"/>
<path d="M109.392 195.219C111.893 195.219 114.394 195.219 116.89 195.219C120.855 195.219 124.819 195.219 128.788 195.219C129.702 195.219 130.616 195.219 131.53 195.219C132.859 195.219 133.99 194.091 133.99 192.759C133.99 190.537 133.99 188.315 133.99 186.093C133.99 180.792 133.99 175.491 133.99 170.194V150.979C133.99 145.44 133.99 139.902 133.99 134.363C133.99 131.661 134.043 128.955 133.99 126.254C133.99 126.217 133.99 126.18 133.99 126.143C133.99 124.815 132.863 123.683 131.53 123.683C127.877 123.683 124.229 123.683 120.576 123.683C120.059 123.683 119.543 123.683 119.026 123.683C118.059 123.683 116.804 124.442 116.652 125.487C116.333 127.705 116.009 129.927 115.689 132.145L113.393 148.027C112.463 154.46 111.532 160.892 110.601 167.328C109.802 172.859 109.002 178.39 108.203 183.92C107.814 186.609 107.42 189.303 107.035 191.992C107.03 192.029 107.022 192.07 107.018 192.107C106.92 192.788 106.903 193.382 107.264 194.001C107.563 194.51 108.15 194.997 108.736 195.133C109.9 195.399 111.565 194.776 111.762 193.415C112.081 191.197 112.405 188.975 112.725 186.757C113.492 181.464 114.254 176.172 115.021 170.875C115.951 164.442 116.882 158.01 117.813 151.573C118.612 146.043 119.412 140.512 120.211 134.982C120.6 132.297 121.072 129.607 121.379 126.91C121.384 126.873 121.392 126.832 121.396 126.795L119.022 128.599C122.675 128.599 126.324 128.599 129.977 128.599C130.493 128.599 131.01 128.599 131.526 128.599L129.066 126.139C129.066 128.361 129.066 130.583 129.066 132.805C129.066 138.106 129.066 143.407 129.066 148.704C129.066 155.107 129.066 161.515 129.066 167.919C129.066 173.458 129.066 178.996 129.066 184.535C129.066 187.233 128.988 189.947 129.066 192.644C129.066 192.681 129.066 192.718 129.066 192.755L131.526 190.295C129.025 190.295 126.525 190.295 124.028 190.295C120.063 190.295 116.099 190.295 112.131 190.295C111.216 190.295 110.302 190.295 109.388 190.295C108.101 190.295 106.866 191.427 106.928 192.755C106.989 194.083 108.01 195.215 109.388 195.215L109.392 195.219Z" fill="#FF4409"/>
<path d="M91.951 196.244H128.471C130.152 196.244 131.529 194.866 131.529 193.185V184.953C131.529 183.272 130.152 181.895 128.471 181.895H100.183C93.9721 181.895 88.8926 186.974 88.8926 193.185C88.8926 194.866 90.2701 196.244 91.951 196.244Z" fill="#FF4409"/>
<path d="M91.9501 198.703C93.7581 198.703 95.562 198.703 97.3699 198.703C101.392 198.703 105.418 198.703 109.439 198.703C113.572 198.703 117.7 198.703 121.833 198.703C124.014 198.703 126.195 198.72 128.376 198.703C131.508 198.683 133.968 196.19 133.984 193.066C133.997 191.316 133.984 189.561 133.984 187.81C133.984 185.789 134.251 183.522 132.976 181.8C131.877 180.32 130.286 179.463 128.433 179.435C128.187 179.435 127.941 179.435 127.695 179.435H118.02C113.818 179.435 109.616 179.435 105.414 179.435C102.802 179.435 100.063 179.234 97.4847 179.709C94.0574 180.345 91.0851 182.427 89.027 185.191C88.0513 186.498 87.3339 188.036 86.9075 189.606C86.4811 191.176 86.1122 193.37 86.7476 194.997C87.6126 197.203 89.5518 198.65 91.9501 198.707C93.2374 198.736 94.4674 197.555 94.41 196.248C94.3526 194.94 93.3276 193.821 91.9501 193.788C91.9132 193.788 91.7123 193.755 91.6631 193.775C91.7287 193.751 92.2699 193.919 91.905 193.796C91.7984 193.759 91.286 193.591 91.6795 193.743C92.0731 193.894 91.5319 193.616 91.4418 193.57C91.2368 193.464 91.6713 193.73 91.6754 193.747C91.6754 193.734 91.4008 193.464 91.3885 193.46C91.4049 193.464 91.6714 193.898 91.5648 193.693C91.5238 193.616 91.4705 193.538 91.4213 193.468C91.122 193.017 91.5237 193.87 91.4213 193.501C91.3967 193.415 91.3762 193.32 91.3475 193.234C91.2245 192.869 91.3926 193.406 91.368 193.476C91.409 193.37 91.3557 193.099 91.3557 192.976C91.3639 192.619 91.3885 192.267 91.4254 191.91C91.4705 191.471 91.3352 192.48 91.4254 191.939C91.4623 191.734 91.5032 191.529 91.5483 191.324C91.6262 190.988 91.7205 190.656 91.8271 190.328C91.8845 190.155 91.946 189.983 92.0116 189.811C92.0362 189.75 92.0649 189.684 92.0854 189.618C91.8435 190.311 91.9788 189.864 92.0567 189.704C92.3519 189.069 92.7045 188.462 93.1144 187.892C93.1554 187.839 93.1923 187.782 93.2333 187.728C93.4629 187.409 93.1185 187.884 93.0939 187.905C93.221 187.794 93.3276 187.618 93.4383 187.491C93.6761 187.22 93.9262 186.962 94.1845 186.716C94.3156 186.593 94.4468 186.474 94.5862 186.355C94.6641 186.289 95.1069 185.949 94.7543 186.207C94.4017 186.466 94.8568 186.134 94.9388 186.076C95.1028 185.961 95.275 185.847 95.4431 185.74C95.73 185.56 96.0252 185.392 96.3245 185.24C96.4844 185.158 96.6525 185.084 96.8165 185.006C96.9641 184.937 97.2264 184.875 96.6033 185.092C96.6894 185.064 96.7714 185.023 96.8575 184.994C97.5503 184.732 98.2637 184.551 98.9893 184.42C99.4198 184.342 98.4113 184.481 98.9647 184.42C99.1533 184.399 99.3419 184.383 99.5305 184.375C99.7478 184.363 99.965 184.358 100.182 184.354C100.371 184.354 100.559 184.354 100.744 184.354H104.126C108.033 184.354 111.944 184.354 115.851 184.354C119.389 184.354 122.927 184.354 126.461 184.354C127.126 184.354 127.79 184.342 128.45 184.354C128.45 184.354 128.458 184.354 128.462 184.354C128.511 184.354 128.692 184.354 128.606 184.354C128.843 184.354 128.819 184.494 128.372 184.317C128.511 184.375 128.692 184.404 128.839 184.445C129.126 184.527 128.409 184.166 128.626 184.358C128.696 184.42 128.839 184.486 128.917 184.531C129.171 184.678 128.831 184.641 128.741 184.391C128.757 184.436 128.856 184.494 128.888 184.531C129.253 184.949 128.655 184.067 128.925 184.555C128.958 184.613 128.991 184.674 129.028 184.727C129.237 185.031 128.962 184.576 128.95 184.51C128.97 184.625 129.122 185.297 129.077 184.85C129.032 184.404 129.065 184.863 129.065 184.99C129.065 185.064 129.065 185.137 129.065 185.215V186.142C129.065 188.077 129.065 190.016 129.065 191.951C129.065 192.431 129.052 192.915 129.057 193.394C129.057 193.71 129.175 192.857 129.085 193.156C129.061 193.242 129.044 193.337 129.016 193.423C128.86 193.923 129.249 193.062 129.024 193.398C128.975 193.468 128.925 193.554 128.884 193.628C128.741 193.882 128.765 193.55 129.024 193.452C128.987 193.464 128.852 193.632 128.839 193.644C128.63 193.886 128.934 193.55 129.028 193.517C128.95 193.542 128.606 193.734 128.565 193.796C128.597 193.751 129.151 193.607 128.774 193.702C128.688 193.722 128.593 193.751 128.507 193.775C128.118 193.89 129.118 193.751 128.532 193.767C128.503 193.767 128.478 193.767 128.454 193.767C126.675 193.8 124.891 193.767 123.116 193.767C119.271 193.767 115.429 193.767 111.584 193.767C107.525 193.767 103.466 193.767 99.4034 193.767C97.0297 193.767 94.6559 193.767 92.2822 193.767H91.9378C90.6505 193.767 89.4165 194.899 89.478 196.227C89.5395 197.555 90.5603 198.687 91.9378 198.687L91.9501 198.703Z" fill="#FF4409"/>
<path d="M201.116 77.6269C201.116 83.7764 184.573 87.2325 182.774 92.7794C180.908 98.5312 192.191 111.039 188.71 115.824C185.192 120.657 169.786 113.77 164.952 117.287C160.168 120.772 161.976 137.569 156.228 139.434C150.681 141.234 142.293 126.639 136.148 126.639C130.002 126.639 121.614 141.234 116.067 139.434C110.315 137.569 112.128 120.768 107.343 117.287C102.51 113.77 87.1029 120.657 83.5854 115.824C80.1006 111.039 91.3871 98.5271 89.5217 92.7794C87.722 87.2325 71.1797 83.7723 71.1797 77.6269C71.1797 71.4814 87.722 68.0213 89.5217 62.4744C91.3871 56.7225 80.1047 44.2143 83.5854 39.4299C87.1029 34.5964 102.51 41.4839 107.343 37.9664C112.128 34.4816 110.32 17.6851 116.067 15.8198C121.614 14.02 130.002 28.6149 136.148 28.6149C142.293 28.6149 150.681 14.02 156.228 15.8198C161.98 17.6851 160.168 34.4857 164.952 37.9664C169.786 41.4839 185.192 34.5964 188.71 39.4299C192.195 44.2143 180.908 56.7266 182.774 62.4744C184.573 68.0213 201.116 71.4814 201.116 77.6269Z" fill="#FAF1E7"/>
<path d="M198.041 77.6269C198.041 77.7171 198.033 77.8073 198.029 77.8975C198.029 78.3525 198.205 76.9914 198.09 77.4342C198.045 77.6105 198.004 77.7827 197.955 77.9548C197.783 78.5452 198.369 77.1226 198.013 77.8114C197.91 78.0122 197.787 78.1967 197.664 78.3853C197.316 78.9183 198.213 77.7499 197.775 78.2459C197.635 78.4058 197.496 78.5657 197.344 78.7174C196.996 79.0741 196.615 79.3897 196.233 79.7095C195.852 80.0293 196.893 79.2217 196.471 79.525C196.385 79.5865 196.303 79.648 196.221 79.7095C196.032 79.8448 195.84 79.9801 195.647 80.1113C195.167 80.4352 194.675 80.7426 194.179 81.0419C193.204 81.6241 192.203 82.1693 191.199 82.7064C189.211 83.7682 187.185 84.7849 185.283 86.0026C183.381 87.2202 181.536 88.5772 180.441 90.5081C177.953 94.9194 180.855 100.343 182.794 104.369C183.319 105.464 183.86 106.55 184.377 107.645C184.627 108.178 184.873 108.711 185.107 109.252C185.144 109.338 185.18 109.428 185.221 109.514C185.451 110.039 184.918 108.776 185.131 109.301C185.25 109.6 185.373 109.9 185.484 110.199C185.836 111.138 186.115 112.085 186.304 113.069C186.357 113.356 186.287 113.717 186.255 112.692C186.255 112.798 186.279 112.905 186.283 113.011C186.3 113.216 186.304 113.425 186.3 113.63C186.291 114.032 186.05 114.553 186.349 113.491C186.3 113.671 186.279 113.856 186.222 114.036C185.992 114.766 186.603 113.364 186.287 113.885C186.078 114.233 185.705 114.467 186.419 113.79C186.287 113.913 186.164 114.053 186.037 114.184C185.726 114.504 186.755 113.696 186.374 113.93C186.296 113.979 186.218 114.036 186.14 114.081C185.976 114.18 185.8 114.254 185.631 114.344C186.603 113.803 186.05 114.172 185.705 114.274C185.5 114.336 185.291 114.385 185.086 114.43C184.975 114.45 184.869 114.467 184.758 114.491C184.274 114.59 185.713 114.397 185.004 114.459C182.811 114.647 180.622 114.409 178.449 114.122C178.219 114.094 177.629 114.008 178.666 114.151C178.514 114.131 178.367 114.11 178.215 114.09C177.965 114.057 177.711 114.02 177.461 113.983C176.588 113.86 175.71 113.741 174.837 113.622C173.673 113.466 172.508 113.323 171.34 113.237C169.241 113.081 166.941 113.065 164.957 113.856C163.829 114.307 162.792 114.91 162.001 115.852C161.14 116.877 160.59 117.939 160.082 119.169C159.266 121.145 158.86 123.277 158.475 125.372C158.065 127.61 157.725 129.869 157.196 132.087C156.962 133.075 156.675 134.043 156.323 134.998C156.232 135.24 155.995 135.621 156.458 134.691C156.409 134.789 156.368 134.896 156.319 134.998C156.228 135.195 156.13 135.388 156.023 135.58C155.941 135.732 155.851 135.88 155.761 136.027C155.708 136.113 155.65 136.191 155.593 136.277C155.244 136.806 156.085 135.711 155.777 136.039C155.65 136.175 155.531 136.318 155.396 136.445C154.843 136.966 156.044 136.039 155.531 136.359C155.396 136.445 155.253 136.519 155.117 136.601C154.884 136.74 154.613 136.658 155.572 136.412C155.458 136.441 155.351 136.49 155.236 136.523C155.15 136.544 155.06 136.556 154.974 136.581C155.892 136.302 155.757 136.507 155.437 136.511C155.257 136.511 155.076 136.511 154.896 136.503C154.433 136.49 155.798 136.671 155.343 136.56C155.249 136.535 155.154 136.523 155.06 136.499C154.867 136.449 154.679 136.388 154.49 136.322C154.232 136.24 153.928 136.007 154.839 136.478C154.744 136.429 154.642 136.392 154.543 136.343C154.343 136.244 154.142 136.138 153.949 136.027C153.51 135.777 153.084 135.494 152.674 135.199C152.457 135.043 151.76 134.457 152.621 135.17C152.412 134.998 152.198 134.83 151.989 134.658C151.518 134.264 151.055 133.854 150.6 133.44C148.82 131.817 147.139 130.095 145.352 128.48C143.663 126.954 141.855 125.384 139.756 124.458C138.575 123.937 137.366 123.539 136.05 123.568C134.734 123.597 133.528 123.99 132.331 124.544C130.187 125.536 128.334 127.192 126.608 128.775C124.837 130.398 123.156 132.124 121.365 133.727C120.979 134.072 120.59 134.412 120.192 134.74C119.983 134.912 119.159 135.527 120.077 134.846C119.835 135.027 119.598 135.207 119.352 135.379C118.991 135.629 118.622 135.867 118.236 136.085C118.04 136.191 117.843 136.289 117.642 136.388C117.384 136.515 117.056 136.519 117.986 136.248C117.855 136.285 117.732 136.347 117.601 136.388C117.412 136.449 117.224 136.49 117.035 136.54C116.412 136.691 117.99 136.478 117.207 136.511C117.056 136.519 116.908 136.503 116.756 136.503C116.301 136.494 117.658 136.687 117.224 136.56C117.109 136.527 116.994 136.499 116.879 136.47C116.297 136.314 117.708 136.896 117.052 136.535C116.896 136.449 116.756 136.343 116.609 136.248C117.515 136.814 117.064 136.609 116.822 136.376C116.568 136.13 116.191 135.47 116.806 136.429C116.584 136.084 116.351 135.752 116.158 135.388C116.055 135.191 115.969 134.99 115.871 134.789C115.682 134.4 116.072 135.248 116.047 135.207C115.969 135.084 115.928 134.908 115.879 134.768C115.522 133.809 115.256 132.813 115.026 131.817C113.989 127.319 113.727 122.592 111.849 118.329C110.906 116.189 109.348 114.598 107.147 113.778C105.126 113.028 102.785 113.081 100.669 113.257C99.2426 113.372 97.8241 113.569 96.4097 113.762C95.8316 113.84 95.2536 113.922 94.6755 114.004C94.3762 114.045 94.0728 114.086 93.7736 114.131C93.1791 114.213 94.5853 114.024 93.9909 114.102C93.7941 114.127 93.5932 114.155 93.3964 114.18C92.2526 114.323 91.1087 114.45 89.9567 114.504C89.473 114.528 88.9892 114.536 88.5054 114.528C88.2554 114.524 88.0094 114.512 87.7593 114.495C87.4026 114.471 86.4679 114.225 87.6404 114.504C87.255 114.409 86.8615 114.364 86.4802 114.241C86.3818 114.213 86.2875 114.172 86.1932 114.143C85.7422 114.004 86.9763 114.52 86.5622 114.303C86.3654 114.196 86.1727 114.094 85.9841 113.979C85.4635 113.659 86.6524 114.59 86.1071 114.057C86.0415 113.991 85.9841 113.922 85.9185 113.86C85.6029 113.548 86.3982 114.577 86.1768 114.192C86.103 114.061 86.0251 113.93 85.9472 113.803C85.7177 113.417 86.2424 114.635 86.1153 114.204C86.0825 114.086 86.0374 113.975 86.0046 113.856C85.98 113.766 85.9677 113.671 85.9431 113.581C85.8283 113.126 86.021 114.491 86.0005 114.02C85.9923 113.819 85.9718 113.622 85.9759 113.421C85.9759 113.245 85.9923 113.073 86.0005 112.901C86.0169 112.626 86.1604 112.232 85.939 113.286C85.9677 113.138 85.9841 112.987 86.0128 112.839C86.2014 111.847 86.5253 110.88 86.8902 109.937C86.9886 109.678 87.0993 109.42 87.2017 109.162C86.7836 110.224 87.1813 109.219 87.2879 108.977C87.5256 108.436 87.7757 107.899 88.0299 107.366C88.5711 106.222 89.1327 105.091 89.678 103.951C90.7234 101.762 91.818 99.507 92.392 97.1374C92.9454 94.8661 93.011 92.3981 91.7401 90.34C90.5512 88.4173 88.6571 87.0316 86.7713 85.8509C84.8485 84.6497 82.8151 83.6288 80.8185 82.5588C79.7813 82.0013 78.7482 81.4355 77.7437 80.8205C77.3297 80.5664 76.9197 80.304 76.5179 80.0293C76.3088 79.8858 76.1039 79.7382 75.8989 79.5906C75.6939 79.443 75.3741 79.1069 76.1285 79.7751C76.0096 79.6685 75.8784 79.5783 75.7554 79.4758C75.4397 79.2094 75.1322 78.9306 74.8452 78.6313C74.6977 78.4796 74.5665 78.3156 74.4271 78.1598C74.1114 77.8032 74.9149 78.8568 74.6608 78.4591C74.5911 78.3484 74.5132 78.2459 74.4435 78.1352C74.3451 77.9753 74.2672 77.8032 74.1729 77.6351C74.0048 77.3358 74.3738 78.1188 74.3738 78.1147C74.3861 78.0696 74.3 77.9057 74.2836 77.8565C74.2303 77.6843 74.2057 77.508 74.1606 77.3358C74.4435 78.414 74.2303 77.8647 74.2344 77.4383C74.2344 76.8192 74.0376 78.3853 74.2139 77.6392C74.2508 77.4793 74.3164 77.3235 74.3615 77.1677C74.4476 76.8438 73.9679 77.9958 74.177 77.6064C74.2221 77.5244 74.259 77.4383 74.3041 77.3563C74.4148 77.1554 74.5419 76.975 74.6649 76.7823C74.919 76.3888 74.1155 77.4383 74.4312 77.0816C74.5009 77.0037 74.5665 76.9217 74.6321 76.8438C74.7755 76.6839 74.9272 76.5282 75.0789 76.3765C75.411 76.0526 75.78 75.7738 76.1285 75.4663C75.2716 76.2207 75.9645 75.5975 76.2022 75.4294C76.4113 75.2818 76.6245 75.1343 76.8418 74.9949C77.2928 74.6997 77.7478 74.4127 78.2152 74.138C79.195 73.5559 80.1995 73.0106 81.2039 72.4776C83.2291 71.3994 85.2872 70.3622 87.21 69.1118C88.9851 67.9557 90.9243 66.529 91.9164 64.5898C93.0397 62.3965 92.9126 59.9572 92.2608 57.6326C91.6089 55.3081 90.4815 52.9754 89.4074 50.7492C88.8785 49.6587 88.3415 48.5723 87.829 47.4736C87.5789 46.9406 87.337 46.4076 87.1034 45.8706C87.0132 45.6615 86.8164 45.1326 87.1894 46.0797C87.1361 45.9485 87.0829 45.8214 87.0296 45.6902C86.9107 45.395 86.7959 45.0999 86.6893 44.8006C86.349 43.8658 86.1317 42.9311 85.9267 41.9595C86.1645 43.0992 85.9882 42.4432 85.9718 42.1317C85.9595 41.9267 85.9554 41.7217 85.9636 41.5167C85.9677 41.4183 85.98 41.3199 85.9841 41.2215C86.0046 40.7501 85.812 42.1153 85.9267 41.6602C85.98 41.4511 86.0333 41.2461 86.0948 41.0371C86.2219 40.6066 85.6972 41.8242 85.9267 41.4388C85.9718 41.3609 86.0087 41.2789 86.0579 41.201C86.4187 40.6066 85.6726 41.6069 85.898 41.3814C86.0251 41.2543 86.1686 41.1313 86.2875 41.0001C85.689 41.652 85.693 41.4224 85.9595 41.2584C86.0661 41.1928 86.1686 41.1231 86.2793 41.0657C86.3654 41.0206 86.4515 40.9797 86.5376 40.9346C86.9476 40.7132 85.7176 41.2338 86.1686 41.0944C86.3326 41.0452 86.4925 40.9838 86.6565 40.9346C86.8656 40.8772 87.0747 40.828 87.2837 40.787C87.3944 40.7665 87.5092 40.7583 87.6158 40.7296C86.554 40.9838 87.0665 40.7993 87.3739 40.7706C89.5632 40.5574 91.7934 40.8526 93.9621 41.1395C94.5566 41.2174 93.1504 41.0289 93.7449 41.1108C93.8966 41.1313 94.0441 41.1518 94.1958 41.1723C94.4992 41.2133 94.7985 41.2584 95.1019 41.2994C95.9259 41.4142 96.7499 41.529 97.574 41.6356C98.7342 41.7873 99.8944 41.9308 101.063 42.0128C103.457 42.1809 105.929 42.0743 108.127 41.0371C110.324 39.9998 111.435 37.9582 112.263 35.8632C113.87 31.784 114.067 27.2621 115.096 23.0271C115.338 22.0226 115.645 21.051 116.002 20.0876C116.129 19.7473 115.641 20.8911 115.846 20.4525C115.896 20.35 115.937 20.2475 115.986 20.1491C116.08 19.9564 116.178 19.7637 116.285 19.5751C116.392 19.3865 116.494 19.2225 116.609 19.0545C117.064 18.3862 116.072 19.653 116.605 19.0668C116.707 18.952 116.818 18.8495 116.929 18.7429C117.363 18.3165 116.17 19.2512 116.802 18.8454C116.949 18.7511 117.109 18.6814 117.261 18.5953C116.33 19.1282 116.802 18.8044 117.199 18.6896C117.634 18.5666 116.281 18.7593 116.732 18.747C116.806 18.747 116.879 18.7388 116.953 18.7347C117.121 18.7347 117.285 18.7552 117.453 18.7593C116.322 18.7388 116.916 18.6773 117.289 18.7757C117.519 18.8372 117.732 18.9315 117.962 19.0012C116.888 18.6855 117.601 18.8454 117.913 19.0012C118.081 19.0873 118.249 19.1815 118.413 19.2758C118.872 19.5464 119.315 19.8457 119.741 20.1614C119.848 20.2393 119.95 20.3172 120.053 20.3951C119.229 19.7842 119.671 20.0999 119.848 20.2434C120.061 20.4156 120.274 20.5918 120.483 20.7681C120.922 21.1371 121.348 21.5184 121.77 21.9079C123.546 23.5354 125.226 25.2573 127.018 26.8685C128.924 28.5822 130.937 30.2015 133.344 31.1445C135.644 32.0464 137.968 31.661 140.133 30.6074C142.298 29.5538 144.056 27.9426 145.762 26.3724C147.467 24.8022 149.21 23.023 151.001 21.4241C151.419 21.051 151.842 20.6861 152.28 20.3336C152.383 20.2475 152.494 20.1655 152.596 20.0835C151.817 20.7312 152.207 20.3828 152.391 20.2434C152.596 20.0917 152.801 19.9441 153.01 19.7965C153.4 19.53 153.805 19.2758 154.224 19.0545C154.416 18.952 154.621 18.87 154.814 18.7716C153.805 19.2963 154.441 18.9274 154.757 18.8331C154.945 18.7757 155.134 18.7388 155.322 18.6937C155.777 18.583 154.412 18.7675 154.875 18.7511C154.966 18.7511 155.056 18.7388 155.15 18.7347C155.577 18.7265 155.958 18.9766 154.958 18.6732C155.15 18.7306 155.359 18.788 155.556 18.8372C154.65 18.6076 154.945 18.5543 155.294 18.7552C155.642 18.9561 155.896 19.3701 155.179 18.6281C155.306 18.7593 155.454 18.87 155.577 19.0012C155.642 19.0709 155.7 19.1446 155.765 19.2102C156.073 19.5382 155.228 18.4436 155.581 18.9725C155.79 19.2922 155.991 19.612 156.163 19.9523C156.261 20.1491 156.343 20.3582 156.446 20.5549C155.913 19.4808 156.372 20.3951 156.474 20.6943C156.819 21.6701 157.077 22.6786 157.307 23.6871C157.807 25.9215 158.143 28.1845 158.569 30.4311C158.996 32.6778 159.525 34.9039 160.472 37.0111C161.419 39.1184 163.067 40.7501 165.317 41.5249C167.38 42.2342 169.749 42.144 171.889 41.9554C173.295 41.8283 174.693 41.6356 176.091 41.4429C176.669 41.365 177.248 41.283 177.826 41.201C178.1 41.1641 178.379 41.1272 178.654 41.0862C177.477 41.2502 178.748 41.0739 179.031 41.0411C180.171 40.8977 181.31 40.7788 182.458 40.7296C182.979 40.705 183.504 40.7009 184.024 40.7173C184.27 40.7255 184.512 40.7378 184.758 40.7624C184.836 40.7706 184.914 40.7788 184.996 40.787C185.705 40.8485 184.266 40.6558 184.75 40.7542C185.172 40.8403 185.578 40.9346 185.992 41.0617C186.611 41.2543 185.185 40.6558 185.89 41.0248C186.058 41.1108 186.21 41.2174 186.369 41.3158C186.751 41.5536 185.722 40.7419 186.033 41.0617C186.095 41.1272 186.169 41.1846 186.23 41.2502C186.292 41.3158 186.345 41.3937 186.41 41.4552C185.742 40.8198 185.992 40.8649 186.144 41.1272C186.341 41.4675 186.402 41.9554 186.123 40.9551C186.177 41.1436 186.242 41.3322 186.296 41.5249C186.488 42.2178 186.246 40.6681 186.275 41.3199C186.283 41.5208 186.296 41.7217 186.291 41.9226C186.287 42.1358 186.25 42.3449 186.246 42.558C186.283 41.3527 186.283 42.2752 186.21 42.6318C185.996 43.6363 185.656 44.6079 185.279 45.5631C185.226 45.6943 185.172 45.8214 185.123 45.9526C184.91 46.4774 185.443 45.2146 185.213 45.7394C185.119 45.9608 185.021 46.1822 184.922 46.3995C184.66 46.9857 184.385 47.5679 184.11 48.15C183.586 49.2446 183.049 50.3352 182.524 51.4298C180.659 55.3409 177.883 60.7935 180.572 64.9834C181.827 66.9348 183.766 68.3329 185.718 69.5341C187.669 70.7353 189.698 71.7438 191.699 72.822C192.65 73.3345 193.597 73.8592 194.52 74.425C194.971 74.6997 195.417 74.9867 195.852 75.2859C196.024 75.4048 196.196 75.5278 196.364 75.6508C196.569 75.7984 196.885 76.1346 196.135 75.4663C196.225 75.5442 196.323 75.6139 196.414 75.6918C196.762 75.9788 197.102 76.2822 197.414 76.6102C197.562 76.7618 197.693 76.9258 197.832 77.0816C198.086 77.3645 197.512 76.7085 197.537 76.7003C197.549 76.6962 197.697 76.9258 197.709 76.9422C197.816 77.1021 197.914 77.2661 198.004 77.4383C198.361 78.127 197.775 76.7044 197.947 77.2948C197.996 77.467 198.037 77.6392 198.082 77.8155C198.193 78.2582 198.017 76.8971 198.021 77.3522C198.021 77.4424 198.029 77.5326 198.033 77.6228C198.054 79.2299 199.431 80.7713 201.108 80.6976C202.785 80.6238 204.207 79.3447 204.183 77.6228C204.117 72.6621 199.001 69.7923 195.184 67.7138C193.138 66.5987 191.047 65.5615 189.051 64.3561C188.604 64.0856 188.165 63.8068 187.735 63.5157C187.546 63.3886 187.362 63.2574 187.177 63.1221C187.095 63.0647 187.017 62.9991 186.935 62.9417C187.821 63.5608 187.3 63.2246 187.099 63.0606C186.763 62.7819 186.435 62.4908 186.136 62.171C185.996 62.0234 185.877 61.8635 185.738 61.7159C186.513 62.5482 185.968 62.0193 185.787 61.7159C185.586 61.3798 185.545 60.8714 185.82 61.8922C185.783 61.7487 185.718 61.6134 185.677 61.47C185.578 61.101 185.644 60.5065 185.664 61.6298C185.664 61.3962 185.627 61.1625 185.631 60.9247C185.631 60.7115 185.656 60.4983 185.672 60.2851C185.705 59.7809 185.525 61.1625 185.619 60.6582C185.64 60.5434 185.656 60.4327 185.677 60.3179C185.775 59.7973 185.914 59.2807 186.074 58.7723C186.222 58.305 186.386 57.8458 186.562 57.3866C186.665 57.1243 186.767 56.866 186.874 56.6077C187.091 56.0788 186.554 57.3416 186.788 56.8168C186.865 56.6405 186.943 56.4601 187.021 56.2838C187.509 55.1851 188.038 54.1028 188.563 53.0246C189.69 50.7082 190.854 48.3755 191.674 45.9321C192.363 43.874 192.839 41.4183 192.056 39.3152C190.112 34.0799 183.93 34.3012 179.33 34.8547C177.903 35.0269 176.485 35.2319 175.062 35.4287C174.763 35.4697 174.46 35.5107 174.16 35.5517C175.321 35.3918 174.201 35.5434 173.931 35.5803C173.349 35.6541 172.763 35.7197 172.176 35.7771C171.057 35.8837 169.93 35.9575 168.802 35.9165C168.56 35.9083 168.314 35.8919 168.072 35.8714C167.958 35.8591 167.839 35.8386 167.724 35.8345C168.761 35.8837 168.368 35.9288 168.089 35.8796C167.667 35.8017 167.265 35.6951 166.855 35.564C166.24 35.3631 167.662 35.9698 166.965 35.5967C166.802 35.5065 166.654 35.3918 166.49 35.3016C167.392 35.8099 166.92 35.6582 166.646 35.3795C166.383 35.1171 166.064 34.4857 166.646 35.4369C166.453 35.1212 166.236 34.826 166.064 34.4939C165.961 34.3012 165.875 34.1045 165.781 33.9077C165.568 33.4567 166.088 34.6989 165.916 34.2233C165.863 34.0758 165.805 33.9323 165.752 33.7888C165.006 31.7266 164.625 29.5374 164.243 27.385C163.842 25.122 163.489 22.8426 162.89 20.6205C162.292 18.3985 161.468 16.2093 159.869 14.5817C158.131 12.8065 155.605 12.1916 153.227 12.868C150.887 13.5363 148.898 15.1269 147.094 16.693C145.29 18.2591 143.54 20.0507 141.752 21.7152C140.908 22.5023 140.047 23.2648 139.145 23.9864C138.714 24.3349 139.78 23.5108 139.338 23.8347C139.231 23.9126 139.124 23.9946 139.018 24.0725C138.809 24.2242 138.6 24.3718 138.382 24.5112C137.948 24.7981 137.501 25.0646 137.034 25.2901C136.935 25.3393 136.824 25.3762 136.73 25.4336C137.587 24.9621 137.329 25.1958 137.062 25.286C136.866 25.3516 136.669 25.4213 136.464 25.4746C136.304 25.5156 136.136 25.5361 135.976 25.5771C137.066 25.286 136.443 25.532 136.029 25.5197C135.935 25.5197 135.837 25.5074 135.742 25.5033C135.271 25.4869 136.636 25.6714 136.173 25.5607C135.976 25.5115 135.779 25.4746 135.582 25.4172C135.386 25.3598 135.185 25.2655 134.984 25.204C136.091 25.5484 135.213 25.2942 134.902 25.1302C134.508 24.9211 134.127 24.6874 133.758 24.4374C133.545 24.2939 133.332 24.1422 133.122 23.9905C133.016 23.9126 132.909 23.8306 132.803 23.7486C133.664 24.38 133.077 23.9618 132.889 23.806C131.987 23.0763 131.126 22.2932 130.277 21.4979C128.502 19.8293 126.797 18.0828 124.944 16.4962C123.091 14.9097 121.155 13.3723 118.835 12.8024C116.515 12.2326 113.854 12.8721 112.194 14.7744C110.656 16.5372 109.836 18.7511 109.262 20.9895C108.168 25.2737 107.995 29.8449 106.417 33.9979C106.376 34.1045 106.327 34.211 106.29 34.3176C106.614 33.3501 106.536 33.756 106.421 33.9938C106.327 34.1864 106.237 34.3832 106.134 34.5718C106.036 34.7522 105.933 34.9285 105.823 35.1007C105.769 35.1827 105.712 35.2606 105.659 35.3426C105.413 35.7238 106.265 34.6374 105.847 35.0925C105.724 35.2278 105.605 35.3631 105.47 35.4861C105.425 35.5271 105.294 35.6049 105.269 35.6582C105.269 35.6582 105.978 35.1704 105.679 35.3385C105.515 35.4287 105.359 35.5353 105.195 35.6254C104.949 35.7607 104.613 35.773 105.577 35.4778C105.45 35.5188 105.327 35.5721 105.199 35.6131C104.785 35.7484 104.359 35.8058 103.937 35.896C105.109 35.6418 104.265 35.8509 103.937 35.8714C103.646 35.8919 103.359 35.9042 103.068 35.9083C101.973 35.9247 100.874 35.8427 99.7837 35.732C99.1934 35.6705 98.6071 35.6009 98.0209 35.5271C97.8733 35.5066 97.7216 35.4861 97.574 35.4697C98.6153 35.6008 98.0209 35.5312 97.7913 35.4984C97.4879 35.4574 97.1886 35.4164 96.8852 35.3713C95.4175 35.1663 93.9499 34.9531 92.4781 34.785C90.1371 34.5185 87.7552 34.375 85.4307 34.8834C82.9545 35.4246 80.9538 37.048 80.1298 39.4669C79.4 41.6069 79.9371 44.0913 80.6586 46.1617C81.5155 48.6133 82.688 50.9501 83.8195 53.2829C84.3443 54.3611 84.8649 55.4393 85.3446 56.538C85.402 56.6692 85.4594 56.8045 85.5168 56.9357C85.0986 56.0092 85.3405 56.5175 85.4266 56.7266C85.5332 56.9849 85.6357 57.2432 85.734 57.5014C85.9349 58.0344 86.1235 58.5756 86.2834 59.1249C86.4187 59.5882 86.5212 60.0556 86.6114 60.5311C86.7467 61.2363 86.5458 59.6825 86.5868 60.3794C86.6032 60.6254 86.6196 60.8714 86.6155 61.1174C86.6073 61.4986 86.39 62.0972 86.6688 60.9944C86.6237 61.1789 86.5991 61.3675 86.5458 61.5519C86.5212 61.638 86.4884 61.72 86.4597 61.802C86.3285 62.2243 86.8492 61.0026 86.6319 61.388C86.5253 61.5724 86.431 61.761 86.3121 61.9414C85.8776 62.5933 86.8123 61.3798 86.3818 61.8594C86.267 61.9865 86.1563 62.1136 86.0374 62.2366C85.7012 62.581 85.3364 62.8885 84.9674 63.1959C84.5779 63.5239 85.6357 62.7081 85.2134 63.0032C85.115 63.0729 85.0166 63.1467 84.9182 63.2164C84.7132 63.364 84.5082 63.5034 84.2992 63.6428C83.84 63.9462 83.3726 64.2373 82.9012 64.516C78.9163 66.8775 74.4066 68.6116 70.9546 71.7807C69.3066 73.2976 67.9414 75.4622 68.0644 77.7868C68.1873 80.1113 69.5116 82.2103 71.299 83.7354C74.8822 86.7856 79.3221 88.5116 83.307 90.9386C83.7498 91.2092 84.1885 91.488 84.6148 91.7831C84.8157 91.9225 85.0125 92.0701 85.2134 92.2136C85.6316 92.5129 84.5738 91.6971 84.9674 92.0209C85.0863 92.1193 85.2052 92.2136 85.3241 92.312C85.6521 92.5908 85.9636 92.886 86.2506 93.2057C86.4638 93.4435 86.7303 93.9683 86.1481 93.0418C86.2629 93.2262 86.3982 93.3984 86.5089 93.587C86.554 93.6649 86.5909 93.7469 86.636 93.8248C86.8574 94.2143 86.3326 92.9884 86.4638 93.4107C86.5171 93.587 86.5786 93.7551 86.6196 93.9355C86.7959 94.7185 86.5827 93.136 86.6073 93.792C86.6155 94.0339 86.6278 94.2716 86.6155 94.5094C86.6073 94.6898 86.5786 94.8702 86.5704 95.0506C86.6114 93.8699 86.6196 94.6816 86.554 95.0219C86.4474 95.5467 86.3039 96.0632 86.1399 96.5757C85.9759 97.0882 85.7915 97.5924 85.5906 98.0926C85.4922 98.3386 85.0576 99.3061 85.5209 98.273C85.402 98.5395 85.2913 98.8059 85.1724 99.0724C84.6599 100.216 84.1065 101.344 83.5571 102.475C82.4379 104.775 81.2818 107.1 80.4987 109.543C79.851 111.564 79.4369 113.958 80.2323 115.996C81.1875 118.439 83.307 119.973 85.8693 120.407C88.2718 120.817 90.666 120.649 93.0725 120.354C94.5238 120.178 95.971 119.964 97.4182 119.764C97.6806 119.727 98.726 119.596 97.5781 119.739C97.8774 119.702 98.1725 119.661 98.4718 119.624C99.0991 119.546 99.7304 119.477 100.362 119.419C101.428 119.325 102.502 119.263 103.576 119.313C103.818 119.325 104.06 119.345 104.298 119.366C104.576 119.386 104.974 119.534 103.941 119.313C104.052 119.337 104.162 119.345 104.273 119.366C104.728 119.448 105.142 119.6 105.581 119.735C104.527 119.411 105.146 119.542 105.45 119.723C105.753 119.903 106.007 120.256 105.277 119.55C105.404 119.673 105.548 119.784 105.671 119.911C105.736 119.977 105.794 120.046 105.855 120.116C106.269 120.571 105.421 119.485 105.667 119.866C105.888 120.21 106.105 120.551 106.29 120.92C106.429 121.198 106.659 121.982 106.298 120.891C106.384 121.149 106.495 121.399 106.585 121.658C108.045 125.88 108.221 130.431 109.402 134.728C109.988 136.859 110.841 139.122 112.452 140.705C114.247 142.464 116.822 143.074 119.216 142.296C121.57 141.533 123.541 139.955 125.374 138.339C127.207 136.724 128.851 135.035 130.609 133.403C131.04 133.002 131.474 132.608 131.917 132.223C132.13 132.034 132.348 131.85 132.565 131.669C132.782 131.489 133.733 130.779 132.803 131.464C133.61 130.874 134.418 130.329 135.312 129.878C135.562 129.75 135.931 129.714 134.984 130.009C135.086 129.976 135.185 129.931 135.283 129.894C135.48 129.824 135.677 129.763 135.877 129.714C135.976 129.689 136.074 129.677 136.173 129.652C136.636 129.541 135.271 129.726 135.742 129.709C135.968 129.701 136.185 129.693 136.41 129.701C137.054 129.722 135.472 129.517 136.271 129.693C136.439 129.73 136.603 129.775 136.763 129.828C137.087 129.931 137.702 130.32 136.73 129.787C136.964 129.914 137.214 130.013 137.448 130.14C137.878 130.374 138.296 130.64 138.702 130.923C138.919 131.071 139.129 131.23 139.338 131.386C139.776 131.714 138.71 130.89 139.145 131.235C139.272 131.337 139.395 131.435 139.522 131.538C140.445 132.292 141.322 133.1 142.191 133.92C143.958 135.588 145.659 137.331 147.517 138.893C149.263 140.365 151.296 141.98 153.6 142.447C156.015 142.935 158.479 142.275 160.115 140.36C163.136 136.831 163.546 131.657 164.338 127.266C164.723 125.134 165.166 123.031 165.912 120.994C166.084 120.518 165.563 121.764 165.777 121.309C165.826 121.211 165.867 121.108 165.916 121.01C165.998 120.834 166.088 120.661 166.182 120.493C166.277 120.325 166.367 120.174 166.474 120.018C166.92 119.35 165.936 120.62 166.457 120.034C166.576 119.899 166.707 119.776 166.838 119.653C167.273 119.239 166.064 120.169 166.72 119.759C166.884 119.657 167.06 119.587 167.224 119.493C166.408 119.973 166.568 119.747 166.855 119.653C166.986 119.612 167.113 119.563 167.244 119.526C167.416 119.477 167.589 119.436 167.761 119.399C168.089 119.329 168.896 119.325 167.72 119.382C168.249 119.358 168.773 119.292 169.306 119.288C170.409 119.28 171.512 119.366 172.607 119.481C173.197 119.542 173.787 119.616 174.374 119.69C174.603 119.719 175.194 119.805 174.156 119.661C174.308 119.682 174.456 119.702 174.607 119.723C174.96 119.772 175.313 119.821 175.661 119.87C177.075 120.067 178.49 120.272 179.912 120.428C184.397 120.928 190.641 120.891 192.166 115.557C192.802 113.335 192.257 110.904 191.494 108.789C190.613 106.358 189.448 104.037 188.325 101.713C187.792 100.618 187.275 99.5152 186.783 98.4001C186.554 97.8753 187.087 99.1339 186.87 98.6091C186.816 98.4779 186.763 98.3468 186.71 98.2197C186.607 97.9655 186.509 97.7072 186.414 97.4489C186.234 96.9611 186.07 96.465 185.927 95.9607C185.795 95.4975 185.705 95.0342 185.615 94.5627C185.517 94.0626 185.697 95.4401 185.668 94.9358C185.66 94.8292 185.648 94.7185 185.64 94.6119C185.623 94.37 185.623 94.1282 185.636 93.8863C185.681 93.0704 185.459 94.6488 185.611 94.0257C185.648 93.874 185.685 93.7223 185.73 93.5706C185.754 93.4886 185.8 93.4107 185.82 93.3287C185.631 94.1814 185.496 94.0257 185.656 93.7428C185.763 93.5542 185.869 93.3738 185.988 93.1934C186.328 92.6687 185.402 93.8822 185.931 93.2795C186.066 93.1237 186.209 92.9721 186.357 92.8286C186.513 92.6769 186.673 92.5293 186.837 92.3858C187.075 92.1767 187.894 91.656 186.935 92.2833C187.8 91.7216 188.624 91.1149 189.518 90.5942C191.539 89.4094 193.642 88.3722 195.688 87.2366C199.365 85.2031 204.121 82.3702 204.183 77.6064C204.203 75.9993 202.752 74.4578 201.108 74.5316C199.464 74.6054 198.058 75.8804 198.033 77.6064L198.041 77.6269Z" fill="#FF4409"/>
<path d="M109.474 49.155C109.474 49.155 106.305 65.4677 110.646 66.5583C118.55 68.5384 116.484 65.2914 123.892 52.238" fill="#FAF1E7"/>
<path d="M107.104 48.4989C106.723 50.4709 106.452 52.4715 106.231 54.4681C105.878 57.6535 105.661 60.9456 106.276 64.1147C106.542 65.484 107.096 66.9517 108.158 67.9069C109.49 69.104 111.466 69.3295 113.18 69.5099C114.524 69.6493 115.914 69.4566 117.111 68.7965C118.309 68.1365 119.141 67.0419 119.805 65.9103C120.69 64.3935 121.355 62.7495 122.093 61.1629C123.302 58.5514 124.602 55.9891 126.02 53.4841C126.656 52.3649 126.323 50.7456 125.139 50.1183C123.954 49.491 122.449 49.8067 121.773 50.9997C120.531 53.1931 119.374 55.4356 118.296 57.715C117.579 59.2319 116.915 60.7775 116.168 62.278C115.902 62.8151 115.623 63.348 115.295 63.8523C115.234 63.9466 115.172 64.0368 115.107 64.1311C114.787 64.5984 115.496 63.6678 115.242 63.963C115.094 64.1352 114.951 64.3033 114.783 64.455C114.578 64.6435 114.221 64.7829 114.984 64.3156C114.91 64.3607 114.84 64.4181 114.762 64.4673C114.684 64.5164 114.606 64.5533 114.533 64.5984C114.074 64.8526 115.234 64.3648 114.725 64.5164C114.545 64.5697 114.369 64.6148 114.184 64.6558C113.737 64.7542 114.988 64.5943 114.422 64.6189C114.295 64.623 114.164 64.6353 114.037 64.6353C113.774 64.6353 113.516 64.623 113.258 64.5984C113.02 64.5738 112.495 64.4631 113.442 64.6312C113.245 64.5984 113.049 64.5697 112.852 64.5328C112.54 64.4755 112.229 64.4099 111.917 64.3361C111.712 64.291 111.507 64.2459 111.302 64.1885C111.261 64.1762 111.216 64.1598 111.175 64.1516C110.818 64.0737 111.81 64.4795 111.54 64.3115C111.462 64.2623 111.372 64.2049 111.29 64.1639C111.47 64.2541 111.843 64.6435 111.519 64.3197C111.454 64.2541 111.396 64.1721 111.331 64.1106C111.938 64.7009 111.622 64.5082 111.462 64.2377C111.401 64.1352 111.351 64.0286 111.298 63.9261C111.073 63.5038 111.548 64.5902 111.388 64.1393C111.29 63.8605 111.2 63.5776 111.13 63.2865C111.06 62.9955 111.003 62.7003 110.954 62.4051C110.851 61.7614 111.003 62.8561 110.97 62.5404C110.95 62.3477 110.925 62.1509 110.909 61.9582C110.847 61.2367 110.822 60.5151 110.822 59.7936C110.822 58.2767 110.925 56.7598 111.073 55.2511C111.15 54.4804 111.241 53.7096 111.339 52.9389C111.388 52.5412 111.241 53.6481 111.298 53.2546C111.31 53.1726 111.323 53.0906 111.331 53.0086C111.355 52.8241 111.384 52.6437 111.409 52.4592C111.45 52.1763 111.495 51.8935 111.54 51.6147C111.634 51.0161 111.733 50.4135 111.847 49.819C112.093 48.5604 111.495 47.105 110.13 46.7934C108.912 46.5147 107.366 47.1624 107.104 48.5112V48.4989Z" fill="#FF4409"/>
<path d="M132.482 53.0608C132.482 53.0608 129.313 69.3735 133.655 70.464C141.559 72.4442 139.493 69.1972 146.901 56.1438" fill="#FAF1E7"/>
<path d="M130.109 52.4054C129.728 54.3774 129.457 56.378 129.236 58.3746C128.883 61.56 128.666 64.8521 129.281 68.0212C129.547 69.3905 130.101 70.8582 131.163 71.8134C132.495 73.0105 134.471 73.236 136.185 73.4164C137.529 73.5558 138.919 73.3631 140.116 72.703C141.313 72.043 142.146 70.9484 142.81 69.8168C143.695 68.2999 144.359 66.656 145.097 65.0694C146.307 62.4579 147.606 59.8956 149.025 57.3906C149.66 56.2714 149.328 54.652 148.143 54.0248C146.959 53.3975 145.454 53.7132 144.778 54.9062C143.535 57.0996 142.379 59.3421 141.301 61.6215C140.584 63.1384 139.919 64.684 139.173 66.1845C138.907 66.7216 138.628 67.2545 138.3 67.7588C138.239 67.8531 138.177 67.9433 138.112 68.0376C137.792 68.5049 138.501 67.5743 138.247 67.8695C138.099 68.0417 137.956 68.2098 137.788 68.3614C137.583 68.55 137.226 68.6894 137.989 68.2221C137.915 68.2672 137.845 68.3245 137.767 68.3737C137.689 68.4229 137.611 68.4598 137.538 68.5049C137.078 68.7591 138.239 68.2713 137.73 68.4229C137.55 68.4762 137.374 68.5213 137.189 68.5623C136.742 68.6607 137.993 68.5008 137.427 68.5254C137.3 68.5295 137.169 68.5418 137.041 68.5418C136.779 68.5418 136.521 68.5295 136.263 68.5049C136.025 68.4803 135.5 68.3696 136.447 68.5377C136.25 68.5049 136.053 68.4762 135.857 68.4393C135.545 68.3819 135.234 68.3163 134.922 68.2426C134.717 68.1975 134.512 68.1524 134.307 68.095C134.266 68.0827 134.221 68.0663 134.18 68.0581C133.823 67.9802 134.815 68.386 134.545 68.218C134.467 68.1688 134.377 68.1114 134.295 68.0704C134.475 68.1606 134.848 68.55 134.524 68.2262C134.459 68.1606 134.401 68.0786 134.336 68.0171C134.942 68.6074 134.627 68.4147 134.467 68.1442C134.405 68.0417 134.356 67.9351 134.303 67.8326C134.077 67.4103 134.553 68.4967 134.393 68.0458C134.295 67.767 134.204 67.4841 134.135 67.193C134.065 66.902 134.008 66.6068 133.959 66.3116C133.856 65.6679 134.008 66.7626 133.975 66.4469C133.954 66.2542 133.93 66.0574 133.913 65.8647C133.852 65.1432 133.827 64.4216 133.827 63.7001C133.827 62.1832 133.93 60.6663 134.077 59.1576C134.155 58.3869 134.246 57.6161 134.344 56.8454C134.393 56.4477 134.246 57.5546 134.303 57.1611C134.315 57.0791 134.327 56.9971 134.336 56.9151C134.36 56.7306 134.389 56.5502 134.414 56.3657C134.455 56.0828 134.5 55.8 134.545 55.5212C134.639 54.9226 134.737 54.32 134.852 53.7255C135.098 52.4669 134.5 51.0115 133.134 50.6999C131.917 50.4212 130.371 51.0689 130.109 52.4177V52.4054Z" fill="#FF4409"/>
<path d="M99.5557 77.6267C99.5557 77.6267 136.244 100.105 154.693 83.2966L99.5557 77.6267Z" fill="#FAF1E7"/>
<path d="M98.3127 79.7507C99.5631 80.5173 100.859 81.2102 102.158 81.8907C105.52 83.6536 108.984 85.232 112.51 86.6422C116.835 88.3723 121.292 89.8154 125.854 90.7706C130.721 91.7874 135.788 92.3408 140.749 91.771C145.709 91.2011 150.731 89.5366 154.835 86.3635C155.385 85.9412 155.918 85.5025 156.434 85.0352C157.389 84.1701 157.381 82.4237 156.434 81.5545C155.413 80.6157 153.974 80.6321 152.954 81.5545C152.736 81.7513 152.515 81.9481 152.285 82.1367C152.179 82.2228 152.076 82.313 151.97 82.3991C151.908 82.4483 151.847 82.4975 151.789 82.5467C151.482 82.7967 152.199 82.2392 151.965 82.4114C151.502 82.7516 151.039 83.0919 150.555 83.4035C149.592 84.0267 148.575 84.576 147.53 85.0475C147.403 85.1049 147.255 85.1951 147.12 85.2279C147.062 85.2443 147.689 84.9942 147.448 85.0885C147.378 85.1172 147.308 85.1459 147.238 85.1746C146.96 85.2853 146.681 85.3918 146.402 85.4943C145.873 85.6829 145.34 85.8551 144.803 86.0109C143.7 86.3266 142.581 86.5726 141.45 86.7529C141.302 86.7775 141.15 86.798 141.003 86.8226C140.945 86.8308 140.892 86.839 140.835 86.8472C140.54 86.8923 141.45 86.7693 141.15 86.8062C140.851 86.8431 140.548 86.88 140.244 86.9087C139.675 86.9661 139.105 87.0071 138.531 87.0358C137.354 87.0932 136.178 87.0932 135.005 87.044C133.832 86.9948 132.631 86.8964 131.451 86.7571C131.315 86.7407 131.18 86.7243 131.041 86.7079C130.438 86.63 131.459 86.7693 131.11 86.7201C130.799 86.675 130.487 86.63 130.18 86.5849C129.598 86.4947 129.019 86.3963 128.437 86.2856C123.883 85.4328 119.426 84.0635 115.101 82.4073C114.117 82.0301 113.141 81.6324 112.166 81.2266C111.928 81.1282 112.592 81.4069 112.522 81.3782C112.461 81.3536 112.399 81.3249 112.338 81.3004C112.215 81.2471 112.096 81.1979 111.973 81.1446C111.735 81.0421 111.497 80.9396 111.26 80.833C110.829 80.6444 110.399 80.4517 109.968 80.2549C108.443 79.5621 106.934 78.8323 105.442 78.0657C103.888 77.2703 102.384 76.4053 100.863 75.5485C100.842 75.5362 100.822 75.5239 100.801 75.5116C99.7025 74.8392 98.0462 75.2369 97.4354 76.393C96.8245 77.5491 97.1443 79.0414 98.3168 79.7589L98.3127 79.7507Z" fill="#FF4409"/>
<path d="M153.65 75.6418C153.474 78.0525 153.334 80.6271 154.532 82.7302C155.671 84.7268 157.873 85.9444 160.132 86.3831C162.391 86.8217 164.719 86.5798 166.995 86.2601" fill="#FAF1E7"/>
<path d="M151.19 75.6422C150.969 78.7334 150.949 82.1402 152.916 84.7272C155.015 87.4904 158.197 88.7736 161.591 89.0359C163.621 89.1917 165.646 88.9089 167.651 88.6301C168.216 88.5522 168.848 87.9659 169.122 87.4986C169.43 86.9697 169.561 86.1949 169.368 85.6045C169.176 85.0141 168.807 84.4361 168.237 84.1327C167.61 83.8006 167.036 83.7883 166.343 83.8867C166.212 83.9072 166.08 83.9236 165.953 83.94C166.281 83.8949 166.302 83.8908 166.019 83.9277C165.789 83.9523 165.56 83.9851 165.33 84.0097C164.838 84.063 164.346 84.104 163.854 84.1327C163.395 84.1573 162.936 84.1696 162.477 84.1573C162.055 84.1491 161.509 84.1901 161.108 84.0712C161.71 84.2516 161.038 84.0548 160.886 84.0302C160.702 83.9974 160.521 83.9564 160.341 83.9154C159.992 83.8293 159.644 83.7268 159.304 83.6038C159.205 83.5669 159.111 83.5342 159.013 83.4932C159.361 83.6448 159.414 83.6653 159.173 83.5588C159.033 83.4932 158.894 83.4276 158.754 83.3579C158.414 83.1816 158.086 82.9848 157.77 82.7634C157.27 82.4108 158.078 83.0586 157.725 82.7265C157.578 82.5871 157.422 82.46 157.278 82.3124C157.172 82.2058 157.073 82.087 156.971 81.9804C156.807 81.7795 156.84 81.8287 157.069 82.1239C157.008 82.0419 156.95 81.9599 156.893 81.8779C156.807 81.7508 156.729 81.6196 156.651 81.4884C156.594 81.39 156.541 81.2875 156.487 81.185C156.372 80.939 156.385 80.98 156.524 81.308C156.327 81.0169 156.245 80.5086 156.167 80.1765C156.122 79.9838 156.094 79.787 156.053 79.5902C156.024 79.4016 156.032 79.4795 156.081 79.8198C156.069 79.705 156.057 79.5902 156.044 79.4754C156.008 79.0696 155.991 78.6678 155.987 78.2619C155.979 77.3887 156.04 76.5155 156.102 75.6463C156.196 74.359 154.905 73.1291 153.642 73.1865C152.232 73.248 151.281 74.2688 151.182 75.6463L151.19 75.6422Z" fill="#FF4409"/>
<path d="M123.727 69.5754C120.821 67.7921 116.938 66.0333 114.261 68.1447C111.826 70.0633 112.351 74.1917 114.581 76.3399C116.811 78.4882 120.091 79.0991 123.182 79.3163" fill="#FAF1E7"/>
<path d="M124.969 67.4515C122.804 66.1273 120.463 65.0245 117.913 64.7621C115.363 64.4997 112.736 65.6353 111.28 67.8327C110.034 69.7145 109.923 72.3219 110.62 74.4251C111.391 76.7455 112.986 78.5863 115.122 79.767C117.59 81.1322 120.406 81.5749 123.182 81.7758C124.469 81.8701 125.699 80.5787 125.641 79.316C125.58 77.9057 124.559 76.9546 123.182 76.8562C122.726 76.8234 122.267 76.7824 121.816 76.7332C121.71 76.7209 121.513 76.6553 121.415 76.684C121.46 76.6717 122.025 76.7783 121.587 76.7045C121.32 76.6594 121.054 76.6184 120.787 76.5651C120.562 76.52 118.151 75.8395 118.164 75.8149C118.188 75.778 118.655 76.0403 118.315 75.8764C118.196 75.819 118.077 75.7657 117.959 75.7042C117.77 75.6099 117.585 75.5115 117.405 75.4049C117.2 75.286 117.003 75.1589 116.807 75.0236C116.72 74.9662 116.638 74.8924 116.552 74.8391L116.802 75.0277C116.72 74.9621 116.638 74.8924 116.561 74.8227C116.417 74.6956 116.274 74.5604 116.142 74.421C116.081 74.3554 116.028 74.2898 115.966 74.2242C115.704 73.9495 116.085 74.38 116.101 74.4128C115.913 74.0643 115.655 73.7568 115.474 73.396C115.437 73.3263 115.404 73.2239 115.359 73.1542C115.679 73.642 115.507 73.5354 115.433 73.3099C115.376 73.1419 115.318 72.9738 115.269 72.8016C115.216 72.6089 115.179 72.4162 115.134 72.2194C115.089 72.0226 115.146 71.8299 115.163 72.4818C115.163 72.3506 115.134 72.2194 115.126 72.0923C115.105 71.7439 115.146 71.4077 115.154 71.0633C115.13 71.8381 115.13 71.297 115.195 71.0346C115.245 70.8542 115.327 70.682 115.372 70.5016C115.224 71.1002 115.187 70.8952 115.306 70.6943C115.347 70.6246 115.384 70.5467 115.429 70.4771C115.474 70.4074 115.523 70.3377 115.564 70.268C115.712 69.9974 115.134 70.7476 115.445 70.4197C115.564 70.2967 115.683 70.1778 115.802 70.0548C115.933 69.9195 116.089 69.9318 115.626 70.1778C115.757 70.1081 115.88 70.0015 116.007 69.9277C116.093 69.8785 116.183 69.8334 116.269 69.7842C116.466 69.6776 116.544 69.776 116.089 69.858C116.274 69.8252 116.462 69.7309 116.647 69.6899C116.696 69.6776 116.88 69.6653 116.934 69.6325C116.626 69.8211 116.429 69.6858 116.79 69.6612C117.011 69.6448 117.237 69.6448 117.458 69.653C117.585 69.6571 117.708 69.6735 117.836 69.6817C118.147 69.7022 117.27 69.5792 117.717 69.6653C117.975 69.7145 118.233 69.7678 118.487 69.8334C119.012 69.9728 119.508 70.2065 120.025 70.3582C119.967 70.3418 119.504 70.1245 119.894 70.309C120.045 70.3787 120.197 70.4483 120.345 70.518C120.595 70.6369 120.841 70.764 121.083 70.8952C121.558 71.1494 122.025 71.42 122.485 71.7029C123.583 72.3752 125.24 71.9775 125.85 70.8214C126.461 69.6653 126.142 68.173 124.969 67.4556V67.4515Z" fill="#FF4409"/>
<path d="M208.657 141.326C211.518 136.126 214.526 134.018 219.95 133.24C224.349 132.582 226.897 131.932 228.284 129.411C229.73 126.785 228.735 124.117 225.427 122.295C221.908 120.359 218.659 121.786 217.185 124.465L208.047 119.435C212.209 111.872 221.318 109.496 229.826 114.179C238.911 119.18 241.196 127.212 237.265 134.354C235.126 138.24 231.53 140.298 226.671 141.045C221.189 141.928 218.941 143.154 217.322 146.095L208.657 141.326ZM205.069 158.784C201.865 157.021 200.774 153.409 202.537 150.206C204.3 147.002 207.964 145.94 211.168 147.703C214.371 149.466 215.434 153.131 213.671 156.334C211.907 159.538 208.272 160.548 205.069 158.784Z" fill="#FF4409"/>
<path d="M27.3534 59.0162C25.7675 53.2972 26.4462 49.6875 29.7821 45.3409C32.4695 41.7963 33.8375 39.5507 33.0686 36.7778C32.2676 33.8895 29.6914 32.6754 26.0521 33.6846C22.1817 34.7579 20.855 38.0496 21.672 40.9957L11.6205 43.7831C9.31375 35.4646 14.1691 27.3996 23.5274 24.8045C33.5211 22.0332 40.7682 26.1823 42.9468 34.0386C44.1322 38.3133 42.9977 42.2983 40.0438 46.2279C36.7399 50.69 35.9879 53.1381 36.885 56.373L27.3534 59.0162ZM36.9863 74.0123C33.4626 74.9895 30.1582 73.1686 29.181 69.6448C28.2039 66.121 30.0825 62.8006 33.6063 61.8235C37.1301 60.8463 40.4505 62.725 41.4277 66.2488C42.4048 69.7726 40.5101 73.0352 36.9863 74.0123Z" fill="#FF4409"/>
</svg>
