<svg width="107" height="151" viewBox="0 0 107 151" fill="none" xmlns="http://www.w3.org/2000/svg">
<path d="M20.8436 42.3503C16.7869 34.6713 15.2725 25.8861 14.8584 17.2139C11.7805 17.2168 8.70245 17.2226 5.61287 17.2283C2.51751 17.6337 6.61186 35.5776 7.16491 37.7261C9.97651 48.5932 17.3023 59.0433 27.2804 64.4609C29.4724 65.651 47.7289 71.7201 48.6874 68.0022C50.2133 62.0952 49.1565 61.5972 43.4464 59.634C41.0952 58.8261 38.5963 58.4178 36.3117 57.4246C29.6258 54.5262 24.2024 48.7177 20.8378 42.3532L20.8436 42.3503Z" fill="#FAF1E7"/>
<path d="M22.3429 41.476C21.9404 40.7115 21.5611 39.9384 21.2049 39.1537C21.1354 38.9973 21.0631 38.8381 20.9936 38.6817C20.9501 38.5833 20.9067 38.4848 20.8662 38.3864L20.8401 38.3285C20.7648 38.1518 20.7735 38.1692 20.8633 38.3864C20.8083 38.3748 20.6606 37.8941 20.6432 37.8478C20.5563 37.6277 20.4695 37.4077 20.3826 37.1876C19.7803 35.6211 19.262 34.0199 18.8219 32.4012C18.3818 30.7826 18.0198 29.1727 17.7187 27.5367C17.5652 26.7056 17.4291 25.8717 17.3075 25.0349C17.2785 24.8409 17.2525 24.6498 17.2264 24.4558C17.212 24.3487 17.154 24.0388 17.2264 24.4674C17.212 24.3834 17.2033 24.2936 17.1917 24.2097C17.1367 23.7782 17.0845 23.3497 17.0382 22.9183C16.8268 21.0245 16.685 19.1222 16.5923 17.2198C16.546 16.2816 15.8337 15.4824 14.855 15.4824C12.9786 15.4824 11.1023 15.4882 9.22597 15.4911C8.28781 15.4911 7.34674 15.4911 6.40857 15.494C5.71943 15.494 5.07662 15.4708 4.46566 15.8212C3.10474 16.6001 2.84703 18.3519 2.75726 19.765C2.65302 21.4212 2.81517 23.0978 3.00628 24.7396C3.24951 26.8215 3.57671 28.8947 3.95603 30.9592C4.48592 33.8432 5.04187 36.7562 5.8729 39.5736C7.58708 45.3821 10.4508 50.7939 14.2006 55.5397C16.019 57.8388 18.0661 59.9555 20.3305 61.8202C21.5234 62.8018 22.7656 63.7284 24.06 64.571C24.9055 65.1212 25.7771 65.6829 26.692 66.1086C27.9024 66.6703 29.1678 67.1133 30.4302 67.5419C32.1618 68.1326 33.9136 68.6682 35.6799 69.1547C37.5591 69.6701 39.4557 70.1334 41.3755 70.4693C43.0404 70.7617 44.7923 71.0455 46.4891 70.9065C48.0729 70.7762 49.7842 70.2579 50.3315 68.5785C50.6963 67.4608 50.8961 66.236 51.0148 65.0719C51.1046 64.2091 51.0785 63.2651 50.7629 62.4486C50.372 61.4293 49.7292 60.6852 48.8432 60.0568C48.0353 59.4835 47.074 59.1216 46.159 58.7683C44.8762 58.276 43.5732 57.8272 42.2528 57.4537C40.5821 56.9846 38.8853 56.5995 37.2667 55.9596C37.1856 55.9277 37.0987 55.8988 37.0205 55.8611C37.4028 56.0465 37.0553 55.8727 36.98 55.8409C36.841 55.7801 36.702 55.7164 36.5659 55.6527C36.204 55.4847 35.8478 55.3081 35.4946 55.1228C34.8373 54.7782 34.1945 54.4076 33.5661 54.0109C32.9378 53.6142 32.3558 53.2117 31.7709 52.7802C31.6869 52.7194 31.1744 52.3083 31.574 52.6355C31.4408 52.5254 31.3018 52.4241 31.1686 52.3141C30.8559 52.0622 30.546 51.8044 30.242 51.5381C29.1243 50.568 28.0732 49.5198 27.0945 48.4108C26.8513 48.1358 26.6139 47.8607 26.3793 47.5798C26.1448 47.2989 25.8292 47.0007 25.6554 46.6822C25.8263 46.9978 25.7886 46.8588 25.7162 46.7604C25.6583 46.6851 25.6004 46.6069 25.5425 46.5316C25.4383 46.3926 25.3369 46.2565 25.2327 46.1147C25.0068 45.8048 24.7868 45.4921 24.5696 45.1765C23.7559 43.9893 23.0118 42.7529 22.3371 41.4817C21.9115 40.6768 20.7272 40.3641 19.9599 40.8592C19.1433 41.3862 18.8798 42.3765 19.3373 43.2365C22.1489 48.5353 26.1882 53.2609 31.186 56.6053C32.3702 57.3987 33.6153 58.1023 34.9126 58.6988C36.5254 59.443 38.1961 59.9584 39.9074 60.4188C41.3899 60.8155 42.8464 61.2556 44.2942 61.771C44.7951 61.9505 45.2932 62.1358 45.7854 62.3356C46.0229 62.4312 45.574 62.243 45.5769 62.2488C45.6117 62.2835 45.6986 62.3009 45.742 62.3212C45.8375 62.3646 45.9331 62.408 46.0258 62.4515C46.2198 62.5441 46.4109 62.6397 46.5991 62.7468C46.7497 62.8337 46.9002 62.9234 47.045 63.0248C47.074 63.045 47.1058 63.0682 47.1348 63.0885C47.3461 63.2275 46.7873 62.8047 46.9321 62.9292C47.0045 62.99 47.0797 63.0508 47.1492 63.1145C47.2448 63.2014 47.3432 63.3751 47.4533 63.4388C47.3606 63.3838 47.1579 63.0132 47.323 63.2796C47.3722 63.3607 47.4243 63.4388 47.4678 63.5257C47.4967 63.5807 47.5199 63.6415 47.5517 63.6994C47.2564 63.158 47.4214 63.378 47.4793 63.5576C47.5286 63.7139 47.5575 63.8732 47.5894 64.0324C47.6328 64.2264 47.5344 63.4996 47.5517 63.7603C47.5517 63.7979 47.5604 63.8355 47.5633 63.8703C47.572 63.9658 47.5778 64.0643 47.5778 64.1598C47.5836 64.3596 47.5778 64.5623 47.5633 64.7621C47.5575 64.8664 47.5459 64.9677 47.5373 65.0719C47.5315 65.1183 47.5257 65.1675 47.5228 65.2138C47.4967 65.5121 47.5865 64.7911 47.5517 65.0111C47.5083 65.2775 47.4678 65.5439 47.4156 65.8103C47.3027 66.3952 47.1463 66.9685 47.0132 67.5476C47.0132 67.5563 46.9726 67.6837 46.9697 67.6837C46.961 67.6808 47.2158 67.1394 47.0768 67.4058C47.0566 67.4434 47.0247 67.4753 47.0074 67.51C47.2274 67.0322 47.323 67.1481 47.1695 67.2871C47.1463 67.3073 47.074 67.3565 47.0624 67.3855C47.0797 67.3479 47.5257 67.0728 47.2911 67.2031C47.1956 67.2552 47.1 67.3073 47.0045 67.3594C47.5923 67.0293 47.2998 67.2436 47.0797 67.3102C46.9523 67.3479 46.822 67.3797 46.6917 67.4058C46.628 67.4174 46.5643 67.4289 46.5006 67.4376C46.214 67.4897 47.045 67.3768 46.7178 67.4087C46.5585 67.4231 46.3993 67.4405 46.24 67.4492C45.5248 67.4868 44.8067 67.4463 44.0944 67.3768C43.9033 67.3594 43.7122 67.3363 43.5211 67.3131C43.4313 67.3015 43.052 67.2523 43.4255 67.3015C43.7991 67.3508 43.3416 67.29 43.2576 67.2755C42.829 67.2118 42.4034 67.1423 41.9778 67.0641C41.0483 66.8933 40.1246 66.6935 39.2038 66.4763C35.8652 65.6829 32.5498 64.6955 29.3415 63.4765C29.0925 63.3809 28.8435 63.2825 28.5944 63.1811C28.192 63.0161 29.0548 63.3809 28.6871 63.2217C28.6002 63.184 28.5163 63.1464 28.4294 63.1059C27.5347 62.6889 26.6834 62.1387 25.8552 61.603C25.2616 61.2179 24.6796 60.8184 24.1092 60.3985C23.9586 60.2885 23.8081 60.1784 23.6604 60.0655C23.6025 60.0221 23.5417 59.9728 23.4838 59.9294C23.8341 60.1784 23.6459 60.0568 23.5706 59.996C23.2782 59.7644 22.9857 59.5327 22.6961 59.2953C21.5987 58.3861 20.5534 57.419 19.5603 56.3968C18.5671 55.3747 17.6173 54.2946 16.7255 53.174C16.6792 53.1161 16.6328 53.0553 16.5865 52.9974C16.5633 52.9685 16.323 52.6847 16.5141 52.9048C16.7052 53.1248 16.4649 52.8411 16.4417 52.8121C16.3954 52.7513 16.3491 52.6905 16.3056 52.6326C16.0769 52.3314 15.8539 52.0274 15.6368 51.7205C15.2198 51.1356 14.8173 50.542 14.4264 49.9397C13.6591 48.7525 12.9497 47.5277 12.2953 46.271C11.9652 45.6369 11.6496 44.997 11.3513 44.3484C11.2094 44.0414 11.0704 43.7345 10.9372 43.4247C10.8909 43.3146 10.6767 42.7905 10.8707 43.2712C10.8012 43.0975 10.7259 42.9266 10.6564 42.7529C9.37075 39.5823 8.56577 36.3074 7.87663 32.9659C7.50889 31.1764 7.17011 29.3812 6.88055 27.5772C6.80237 27.0995 6.73 26.6217 6.6605 26.141C6.62865 25.9152 6.5968 25.6893 6.56494 25.4663C6.6576 26.1323 6.58811 25.6256 6.56784 25.4808C6.55337 25.3563 6.53598 25.2347 6.5215 25.1102C6.41147 24.2184 6.31883 23.3236 6.26091 22.4289C6.21169 21.6587 6.18272 20.8856 6.21168 20.1153C6.22326 19.8142 6.31592 19.4551 6.28407 19.1569C6.29275 19.2438 6.2001 19.7071 6.25512 19.3943C6.2667 19.3219 6.27828 19.2525 6.29276 19.1801C6.31593 19.0556 6.34488 18.9311 6.37962 18.8094C6.40858 18.7052 6.44622 18.6039 6.48096 18.5025C6.56204 18.2622 6.24353 18.989 6.37673 18.7515C6.40279 18.7023 6.42596 18.6502 6.45491 18.6038C6.47518 18.5691 6.50992 18.5315 6.5244 18.4967C6.57652 18.3751 6.17404 18.9282 6.34488 18.7341C6.36804 18.7081 6.40857 18.6849 6.42595 18.6531C6.47807 18.5778 5.97424 18.9658 6.19141 18.8384C6.43174 18.6994 5.79182 18.9976 5.90475 18.9513C5.93949 18.9368 5.97425 18.931 6.009 18.9224C6.17115 18.876 5.78025 19.1048 5.75129 18.9745C5.75129 18.9803 6.06401 18.9745 6.04085 18.9745C6.28118 18.9745 6.52441 18.9745 6.76474 18.9745C7.67974 18.9745 8.59473 18.9745 9.50973 18.9716C11.2905 18.9716 13.0713 18.9658 14.8521 18.9629L13.1147 17.2256C13.4477 24.1373 14.4264 31.1243 16.8471 37.6364C17.5594 39.5533 18.3847 41.4296 19.3373 43.2394C19.76 44.0443 20.9501 44.3541 21.7146 43.8619C22.534 43.3349 22.7917 42.3475 22.3371 41.4846L22.3429 41.476Z" fill="#FF4409"/>
<path d="M85.1178 97.9065C89.0963 105.438 90.0084 113.36 91.1666 121.659C91.2303 122.125 91.3288 122.646 91.7168 122.913C92.0034 123.11 92.3798 123.112 92.7273 123.107C95.3044 123.066 97.8814 123.026 100.458 122.985C101.133 104.702 96.0601 85.2471 78.6751 75.8017C76.4861 74.6116 58.2266 68.5425 57.2653 72.2604C55.7393 78.1674 56.7962 78.6654 62.5063 80.6286C64.8575 81.4365 67.3563 81.8448 69.6409 82.838C76.3268 85.7364 81.7502 91.5449 85.1149 97.9094L85.1178 97.9065Z" fill="#FAF1E7"/>
<path d="M83.6174 98.7847C83.8954 99.3117 84.1618 99.8474 84.4166 100.389C84.5295 100.626 84.6366 100.864 84.7438 101.104C84.8046 101.243 84.8654 101.382 84.9262 101.524C84.9436 101.562 85.0275 101.767 84.9407 101.556C84.8538 101.344 84.9609 101.608 84.9783 101.648C85.4127 102.7 85.8036 103.771 86.1539 104.851C86.8489 106.994 87.3816 109.186 87.8218 111.392C88.2619 113.598 88.6094 115.863 88.9308 118.11C89.0929 119.251 89.2493 120.394 89.4085 121.535C89.4983 122.172 89.5765 122.743 89.8573 123.33C90.1961 124.043 90.9113 124.593 91.6787 124.749C92.4402 124.906 93.2423 124.833 94.0154 124.822C94.7306 124.81 95.4487 124.799 96.1639 124.787C97.5972 124.764 99.0276 124.741 100.461 124.72C101.425 124.706 102.164 123.936 102.198 122.983C102.369 118.304 102.143 113.627 101.495 108.992C100.846 104.356 99.8007 100.128 98.1474 95.9413C96.4245 91.5806 94.1399 87.5123 91.1719 83.8783C88.1866 80.2241 84.5005 77.1346 80.4149 74.7805C78.2519 73.5354 75.8167 72.7854 73.4482 72.0441C70.2804 71.051 67.0461 70.162 63.7625 69.664C62.3408 69.4497 60.8669 69.2383 59.4278 69.3686C58.0959 69.4874 56.6481 69.8435 55.9068 71.077C55.6954 71.4303 55.5941 71.8154 55.4956 72.2063C55.3682 72.7159 55.2524 73.2284 55.1569 73.7438C54.9976 74.6096 54.847 75.5159 54.9223 76.3991C54.9947 77.2388 55.1829 78.0727 55.6665 78.7821C56.15 79.4916 56.7726 80.0301 57.5023 80.4616C58.3072 80.9393 59.1991 81.2781 60.0735 81.6053C61.1854 82.0223 62.3089 82.4132 63.4498 82.7433C64.9033 83.1631 66.383 83.5019 67.8163 83.9884C68.1522 84.1013 68.4852 84.2287 68.8153 84.359C68.8992 84.3938 69.1193 84.443 68.7689 84.3387C68.8384 84.359 68.9137 84.4024 68.9774 84.4314C69.1338 84.5009 69.2901 84.5704 69.4436 84.6457C70.0111 84.9121 70.57 85.1987 71.1172 85.5056C72.2494 86.1398 73.3352 86.8521 74.3689 87.631C74.4298 87.6773 74.4906 87.7266 74.5514 87.77C74.5166 87.7468 74.2357 87.5239 74.4732 87.7092C74.5919 87.8047 74.7135 87.9003 74.8322 87.9958C75.087 88.2014 75.3361 88.4099 75.5822 88.6213C76.0629 89.0353 76.5319 89.461 76.9865 89.9011C77.9276 90.8103 78.8165 91.7746 79.6476 92.7822C79.8445 93.0196 80.0356 93.26 80.2267 93.5003C80.2875 93.5756 80.441 93.7349 80.1659 93.4221C80.2151 93.4801 80.2614 93.5467 80.3049 93.6046C80.4091 93.7407 80.5133 93.8796 80.6147 94.0186C80.9998 94.5427 81.3733 95.0755 81.7324 95.617C82.4099 96.642 83.0383 97.7018 83.6145 98.7905C84.0401 99.5955 85.2244 99.9082 85.9918 99.4131C86.8083 98.8861 87.0718 97.8958 86.6143 97.0358C84.2197 92.5187 80.9216 88.3694 76.8794 85.2161C74.7135 83.5251 72.4029 82.1063 69.8576 81.061C68.4967 80.5021 67.075 80.1315 65.6562 79.7493C64.3648 79.4018 63.0936 79.008 61.834 78.5621C61.3968 78.4086 60.9596 78.2494 60.5281 78.0785C60.4297 78.0409 60.3341 78.0003 60.2386 77.9627C59.8593 77.8063 60.5542 78.1046 60.311 77.9916C60.1314 77.9106 59.9519 77.8324 59.7753 77.7455C59.477 77.5979 59.1846 77.4357 58.9095 77.2446C58.7763 77.1519 58.5852 76.955 59.0427 77.3546C58.9906 77.3083 58.9356 77.2678 58.8806 77.2214C58.7734 77.1288 58.6779 77.0245 58.5794 76.9232C58.3594 76.6915 58.7329 77.0651 58.7126 77.1056C58.7184 77.0911 58.6142 76.9666 58.6026 76.9492C58.5707 76.8971 58.4404 76.5815 58.3999 76.5728C58.4607 76.5873 58.5968 77.0824 58.4868 76.761C58.4694 76.706 58.452 76.651 58.4375 76.5931C58.4201 76.5265 58.4028 76.4599 58.3912 76.3933C58.3854 76.3586 58.3796 76.3238 58.3709 76.2891C58.313 76.04 58.4115 76.5496 58.4057 76.5641C58.4462 76.4802 58.3738 76.2051 58.3738 76.1066C58.368 75.9271 58.3738 75.7505 58.3854 75.5709C58.397 75.3914 58.4173 75.2003 58.4375 75.015C58.4578 74.8094 58.3738 75.4609 58.4057 75.2553C58.4144 75.2032 58.4202 75.154 58.4288 75.1019C58.4462 74.9832 58.4665 74.8644 58.4868 74.7457C58.5736 74.2506 58.6837 73.7612 58.8053 73.2719C58.8545 73.0692 58.9153 72.8665 58.9616 72.6638C59.0166 72.4148 58.8719 72.9273 58.8371 72.9476C58.8603 72.9331 58.8892 72.8491 58.9037 72.826C59.0601 72.5567 58.5215 73.2197 58.7908 72.9794C58.814 72.9562 58.8429 72.9331 58.8661 72.9099C58.9935 72.7651 58.4317 73.1995 58.646 73.0808C58.7213 73.0402 58.7937 72.9939 58.8661 72.9505C59.1035 72.8144 58.6605 73.0518 58.6055 73.0547C58.6518 73.0547 58.7126 73.0142 58.756 72.9968C58.9645 72.9244 59.1788 72.881 59.3931 72.8404C59.7116 72.7796 59.1933 72.907 59.1498 72.8694C59.1672 72.8839 59.3033 72.852 59.3323 72.8491C59.4684 72.8346 59.6044 72.8259 59.7405 72.8173C60.3457 72.7883 60.9509 72.8144 61.5532 72.8636C61.9122 72.8926 62.2713 72.936 62.6303 72.9794C62.888 73.0113 62.1149 72.907 62.4653 72.9563C62.555 72.9678 62.6448 72.9823 62.7346 72.9939C62.9286 73.0229 63.1226 73.0518 63.3166 73.0865C64.11 73.2168 64.8975 73.3732 65.6822 73.5469C67.3124 73.9031 68.9282 74.3287 70.5294 74.792C71.9772 75.2119 73.4163 75.6636 74.8409 76.153C75.4056 76.347 75.9702 76.5496 76.5291 76.761C76.7549 76.845 76.9779 76.9319 77.2037 77.0245C77.2906 77.0593 77.3803 77.0969 77.4672 77.1317C77.6352 77.2012 76.9547 76.9116 77.2124 77.0245C77.2616 77.0448 77.3109 77.068 77.3601 77.0882C77.9421 77.3459 78.4893 77.676 79.0366 78.0003C80.0298 78.5881 80.9969 79.2165 81.9322 79.8911C82.158 80.0533 82.3839 80.2183 82.6068 80.3863C82.7024 80.4587 82.8008 80.534 82.8964 80.6063C82.465 80.2849 82.9311 80.6353 83.0354 80.7193C83.4639 81.061 83.8867 81.4113 84.3007 81.7733C85.1434 82.5058 85.9512 83.279 86.7243 84.0839C87.4859 84.8802 88.2127 85.7083 88.9047 86.5654C88.9887 86.6697 89.0698 86.7739 89.1537 86.8781C89.1943 86.9303 89.2348 86.9824 89.2753 87.0345C89.2609 87.0142 89.0147 86.6928 89.1856 86.9187C89.3564 87.1445 89.5244 87.3675 89.6923 87.5963C90.0137 88.0364 90.3264 88.4823 90.6305 88.9369C91.835 90.7351 92.8948 92.6287 93.8127 94.5861C94.0443 95.0813 94.2673 95.5793 94.4816 96.0832C94.525 96.1816 94.5916 96.3872 94.4237 95.9442C94.4468 96.005 94.4758 96.0658 94.499 96.1266C94.5511 96.2482 94.6003 96.3727 94.6495 96.4943C94.748 96.7405 94.8464 96.9866 94.942 97.2356C95.3387 98.2606 95.6977 99.3001 96.0278 100.351C96.6909 102.468 97.2208 104.628 97.6348 106.808C97.8404 107.891 98.0171 108.977 98.1676 110.069C98.2255 110.497 98.1184 109.684 98.1734 110.112C98.1908 110.248 98.2082 110.381 98.2255 110.518C98.2603 110.804 98.295 111.091 98.3269 111.378C98.3906 111.936 98.4456 112.495 98.4948 113.054C98.6888 115.275 98.7844 117.505 98.7873 119.734C98.7873 120.82 98.7699 121.903 98.7294 122.989L100.467 121.251C98.0084 121.289 95.55 121.33 93.0917 121.367C92.9527 121.367 92.8137 121.373 92.6747 121.373C92.5966 121.373 92.2288 121.335 92.4952 121.388C92.7616 121.44 92.5357 121.399 92.4952 121.382C92.4923 121.382 92.8195 121.538 92.6487 121.448C92.4605 121.35 92.8398 121.619 92.8774 121.66C93.0743 121.862 92.8514 121.527 92.9527 121.79C93.0541 122.054 92.944 121.729 92.9267 121.66C92.9035 121.558 92.8832 121.457 92.8687 121.356C92.8253 121.089 92.7935 120.82 92.7558 120.554C92.5995 119.433 92.446 118.312 92.2867 117.195C91.6671 112.849 90.949 108.496 89.6286 104.301C88.841 101.802 87.842 99.3581 86.623 97.0387C86.2002 96.2337 85.0102 95.9239 84.2457 96.4161C83.4263 96.946 83.1686 97.9305 83.6232 98.7934L83.6174 98.7847Z" fill="#FF4409"/>
<path d="M103.046 124.293C105.157 120.637 103.053 115.47 98.3469 112.753C93.6409 110.036 88.1147 110.798 86.0038 114.454C83.8929 118.11 85.9966 123.277 90.7026 125.994C95.4086 128.711 100.935 127.949 103.046 124.293Z" fill="#FF4409"/>
<path d="M101.543 123.414C101.442 123.585 101.335 123.747 101.222 123.912C101.196 123.95 101.164 123.982 101.141 124.022C101.132 124.04 101.396 123.718 101.274 123.849C101.202 123.924 101.141 124.011 101.071 124.086C100.941 124.231 100.805 124.367 100.663 124.5C100.585 124.57 100.507 124.636 100.428 124.706C100.229 124.885 100.759 124.471 100.46 124.683C100.139 124.908 99.8059 125.117 99.4526 125.291C99.36 125.337 99.2499 125.372 99.1602 125.427C99.1428 125.438 99.5366 125.282 99.3629 125.34C99.3194 125.354 99.276 125.375 99.2326 125.392C99.027 125.47 98.8185 125.54 98.61 125.6C98.4276 125.653 98.2423 125.699 98.0541 125.739C97.944 125.763 97.834 125.786 97.7211 125.803C97.6719 125.812 97.6255 125.818 97.5763 125.826C97.336 125.87 97.695 125.809 97.7471 125.806C97.2954 125.844 96.8524 125.887 96.3978 125.881C96.1922 125.881 95.9866 125.87 95.781 125.855C95.6594 125.847 95.5378 125.835 95.4191 125.823C95.367 125.818 95.3149 125.812 95.2627 125.806C95.034 125.783 95.6392 125.867 95.4104 125.826C94.9297 125.742 94.4578 125.65 93.9858 125.519C93.7715 125.459 93.5601 125.392 93.3517 125.32C93.2272 125.276 93.1055 125.233 92.9839 125.186C92.9318 125.166 92.8797 125.146 92.8247 125.126C92.6104 125.044 92.8449 125.131 92.926 125.172C92.4772 124.943 92.0168 124.749 91.5767 124.497C91.1365 124.245 90.7399 123.964 90.3316 123.678C90.1752 123.568 90.4735 123.791 90.4677 123.785C90.4271 123.75 90.3837 123.718 90.3403 123.684C90.2418 123.605 90.1463 123.527 90.0507 123.446C89.877 123.298 89.7061 123.145 89.5411 122.986C89.2052 122.664 88.8896 122.326 88.5942 121.966C88.5624 121.929 88.5305 121.888 88.4987 121.848C88.3771 121.703 88.6232 122.013 88.6145 122.001C88.5595 121.92 88.4958 121.842 88.435 121.761C88.3018 121.573 88.1715 121.382 88.0499 121.188C87.8211 120.82 87.6213 120.438 87.436 120.047C87.4157 120.006 87.4013 119.957 87.3781 119.916C87.3665 119.896 87.5258 120.29 87.4621 120.116C87.4302 120.029 87.3926 119.942 87.3607 119.856C87.2854 119.656 87.2188 119.45 87.158 119.245C87.103 119.056 87.0567 118.868 87.0162 118.677C86.9988 118.59 86.9814 118.503 86.964 118.414C86.9351 118.254 86.9351 117.869 86.9611 118.437C86.9438 118.057 86.9003 117.69 86.9148 117.308C86.9177 117.221 86.9235 117.137 86.9293 117.05C86.9351 116.963 86.9785 116.61 86.9351 116.94C86.8917 117.27 86.9351 116.951 86.9496 116.876C86.9669 116.778 86.9872 116.682 87.0104 116.584C87.0509 116.404 87.1001 116.225 87.158 116.051C87.1841 115.97 87.216 115.889 87.242 115.811C87.3665 115.454 87.0712 116.164 87.2304 115.831C87.3897 115.498 87.5895 115.153 87.8095 114.832C88.0151 114.531 87.5953 115.081 87.7835 114.861C87.8414 114.794 87.8993 114.725 87.9601 114.658C88.0991 114.502 88.2468 114.354 88.4031 114.215C88.4697 114.154 88.5392 114.099 88.6058 114.038C88.8259 113.842 88.296 114.258 88.5363 114.088C88.7072 113.966 88.8809 113.844 89.0604 113.737C89.2284 113.636 89.4021 113.54 89.5816 113.454C89.6627 113.413 89.7496 113.378 89.8307 113.338C89.9928 113.254 89.6077 113.427 89.628 113.422C89.7004 113.398 89.7727 113.364 89.8451 113.338C90.2302 113.193 90.624 113.08 91.0265 112.996C91.1221 112.976 91.2147 112.958 91.3103 112.941C91.374 112.929 91.4377 112.921 91.5014 112.909C91.6925 112.874 91.2582 112.938 91.2813 112.938C91.513 112.918 91.7417 112.889 91.9734 112.877C92.4135 112.854 92.8565 112.86 93.2995 112.895C93.4038 112.903 93.508 112.912 93.6123 112.924C93.6644 112.929 93.7165 112.935 93.7686 112.941C93.9974 112.964 93.3922 112.883 93.6209 112.921C93.8497 112.958 94.0784 112.996 94.3043 113.045C94.7879 113.149 95.2656 113.283 95.7318 113.448C95.839 113.485 95.9432 113.523 96.0474 113.564C96.1604 113.607 96.5368 113.792 96.1054 113.581C96.3283 113.691 96.56 113.784 96.7829 113.897C97.2433 114.125 97.6863 114.383 98.1149 114.667C98.2973 114.788 98.4768 114.916 98.6534 115.043C98.9025 115.223 98.3842 114.826 98.6882 115.069C98.7866 115.147 98.8822 115.226 98.9778 115.307C99.3368 115.614 99.6785 115.941 99.997 116.285C100.136 116.436 100.269 116.589 100.399 116.746C100.481 116.841 100.704 117.166 100.411 116.749C100.478 116.844 100.55 116.934 100.617 117.03C100.863 117.374 101.089 117.733 101.288 118.107C101.387 118.289 101.48 118.472 101.566 118.66C101.587 118.703 101.604 118.747 101.624 118.787C101.708 118.952 101.535 118.567 101.54 118.587C101.578 118.703 101.633 118.819 101.676 118.935C101.813 119.305 101.923 119.685 102.004 120.07C102.024 120.171 102.044 120.273 102.062 120.377C102.073 120.452 102.119 120.776 102.076 120.452C102.033 120.128 102.073 120.452 102.079 120.527C102.09 120.643 102.096 120.759 102.102 120.875C102.108 121.049 102.111 121.219 102.102 121.393C102.099 121.494 102.093 121.593 102.085 121.694C102.079 121.775 102.035 122.137 102.079 121.804C102.122 121.471 102.07 121.842 102.056 121.911C102.041 121.995 102.024 122.079 102.004 122.16C101.96 122.354 101.905 122.546 101.841 122.734C101.815 122.815 101.784 122.893 101.755 122.974C101.659 123.249 101.925 122.612 101.798 122.876C101.711 123.058 101.621 123.238 101.523 123.414C101.074 124.205 101.309 125.349 102.146 125.792C102.982 126.235 104.042 126.012 104.523 125.169C106.663 121.399 105.247 116.888 102.484 113.865C99.4179 110.512 94.4925 108.667 90.0044 109.669C87.9138 110.135 86.0896 111.317 84.83 113.045C83.7152 114.577 83.2577 116.615 83.4807 118.483C84.0221 122.989 87.381 126.579 91.4637 128.302C95.3322 129.935 100.556 129.868 103.538 126.51C103.906 126.096 104.242 125.647 104.523 125.169C104.983 124.384 104.728 123.229 103.9 122.792C103.072 122.354 102.015 122.577 101.523 123.414H101.543Z" fill="#FF4409"/>
<path d="M34.7427 1.21991L6.71977 15.1002C5.7883 15.5615 5.40722 16.6906 5.86859 17.6221L7.17822 20.2661C7.63959 21.1976 8.7687 21.5787 9.70017 21.1173L37.7231 7.23707C38.6546 6.7757 39.0357 5.64658 38.5743 4.71511L37.2647 2.0711C36.8033 1.13963 35.6742 0.758544 34.7427 1.21991Z" fill="#FFA14C"/>
<path d="M21.5298 3.12801C20.305 2.55469 18.8196 2.98613 17.728 4.09224C17.088 3.41178 16.3294 2.84715 15.4549 2.43887C11.0363 0.374332 5.42467 3.04694 2.92001 8.40954C0.41534 13.7721 1.96736 19.7891 6.38889 21.8537C10.8075 23.9182 16.4192 21.2456 18.9238 15.883C19.7027 14.2152 20.0878 12.4836 20.1197 10.8244C21.1853 10.477 22.1871 9.59382 22.772 8.34004C23.7536 6.23785 23.1977 3.90402 21.5327 3.12801H21.5298Z" fill="#FF4409"/>
<path d="M22.4048 1.62908C21.3537 1.16289 20.2939 1.01522 19.1647 1.29319C18.1541 1.54221 17.2304 2.1387 16.4979 2.8626H18.9562C17.3636 1.19475 15.2557 0.239213 12.9768 0.0336272C11.0918 -0.137211 9.19233 0.357926 7.51001 1.17737C3.81237 2.98131 1.12529 6.79478 0.300051 10.782C-0.525186 14.7692 0.300042 19.2168 3.42147 21.9444C4.9677 23.2966 6.82665 24.0697 8.86803 24.2551C10.7675 24.4259 12.6844 23.925 14.3783 23.091C18.2381 21.1858 21.0236 17.0769 21.6607 12.8581C21.762 12.1834 21.8402 11.5088 21.8547 10.8254L20.5806 12.5019C22.7899 11.752 24.4925 9.73668 24.8718 7.42602C25.2512 5.11535 24.562 2.68307 22.4077 1.63198C21.5912 1.23529 20.4909 1.38296 20.0305 2.25452C19.6193 3.03633 19.7814 4.20614 20.653 4.63178C20.8036 4.70707 20.9397 4.79684 21.0816 4.88371C21.2524 4.98795 20.7775 4.60573 20.9744 4.80842C21.0381 4.87212 21.1047 4.93293 21.1626 4.99953C21.209 5.05165 21.3972 5.26012 21.1974 5.03137C20.9976 4.80262 21.1771 5.0169 21.2147 5.0806C21.264 5.15878 21.3074 5.23985 21.3508 5.32093C21.3827 5.38174 21.513 5.64234 21.3769 5.36726C21.2408 5.09218 21.3653 5.35568 21.3885 5.42518C21.4174 5.51783 21.4435 5.61049 21.4667 5.70315C21.4869 5.78133 21.4985 5.8624 21.5159 5.94348C21.5622 6.15485 21.4783 5.51783 21.4985 5.82766C21.5101 6.01587 21.5188 6.20118 21.513 6.3894C21.5101 6.47626 21.5014 6.56313 21.4956 6.65C21.4754 7.02352 21.5825 6.24173 21.5014 6.60946C21.4609 6.78899 21.4261 6.96562 21.374 7.14225C21.3421 7.24938 21.3045 7.35362 21.2698 7.46076C21.1684 7.7619 21.3885 7.22333 21.2929 7.41733C21.1974 7.61133 21.1047 7.79954 20.9947 7.98486C20.9454 8.06593 20.8933 8.14412 20.8383 8.2223C20.6878 8.44236 20.7544 8.2831 20.876 8.18465C20.7283 8.30337 20.6096 8.49158 20.4706 8.62478C20.4069 8.68558 20.3374 8.74349 20.2737 8.8043C20.0102 9.05622 20.598 8.59293 20.2969 8.78983C20.155 8.88248 20.016 8.97804 19.8654 9.05911C19.7814 9.10544 19.6801 9.14019 19.599 9.18942L19.8336 9.08807C19.7728 9.11123 19.712 9.1315 19.6511 9.15177C18.907 9.40369 18.3945 10.0262 18.3771 10.8283C18.3713 11.0773 18.3597 11.3292 18.3394 11.5783C18.3279 11.7057 18.3163 11.8302 18.3018 11.9576C18.296 12.0039 18.2699 12.2211 18.3018 11.9807C18.3337 11.7259 18.2931 12.0184 18.2873 12.0676C18.1976 12.6265 18.0673 13.1795 17.9022 13.721C17.824 13.9787 17.7372 14.2306 17.6445 14.4825C17.6213 14.5433 17.465 14.9111 17.5576 14.7171C17.6503 14.5231 17.5518 14.7286 17.5374 14.7605C17.4997 14.8445 17.4621 14.9284 17.4245 15.0124C17.2333 15.4236 17.0191 15.8232 16.7874 16.2112C16.5558 16.5992 16.2894 16.9785 16.0172 17.3491C15.9043 17.5026 16.1388 17.1957 16.1301 17.2044C16.0954 17.242 16.0664 17.2854 16.0317 17.326C15.968 17.407 15.9014 17.4852 15.8348 17.5634C15.69 17.7313 15.5423 17.8964 15.3889 18.0556C15.0993 18.3568 14.7982 18.6434 14.4796 18.9156C14.4044 18.9793 14.3291 19.043 14.2509 19.1038C14.2133 19.1357 14.1727 19.1647 14.1351 19.1965C14.1206 19.2081 14.4449 18.9649 14.2914 19.072C14.1061 19.2023 13.9266 19.3384 13.7355 19.4629C13.4025 19.6801 13.0608 19.8799 12.7076 20.0594C12.5425 20.1434 12.3601 20.2071 12.2008 20.2997C12.1806 20.3113 12.5744 20.1491 12.4006 20.2157C12.3572 20.2331 12.3138 20.2505 12.2732 20.2679C12.1719 20.3084 12.0734 20.3431 11.9721 20.3808C11.6159 20.5082 11.2511 20.6124 10.8805 20.6935C10.6893 20.734 10.4982 20.763 10.3071 20.7978C10.116 20.8325 10.5793 20.7659 10.5475 20.7659C10.504 20.7659 10.4577 20.7775 10.4143 20.7804C10.31 20.7891 10.2087 20.8006 10.1044 20.8064C9.73671 20.8325 9.36897 20.8296 9.00123 20.8064C8.91437 20.8006 8.82461 20.792 8.73774 20.7833C8.69721 20.7804 8.64508 20.7804 8.60744 20.7688C8.5698 20.7572 9.03887 20.8412 8.85066 20.8007C8.66245 20.7601 8.47425 20.7341 8.28604 20.6906C7.90672 20.6009 7.55346 20.4503 7.18282 20.3374C7.15966 20.3316 7.55345 20.5082 7.3913 20.4242C7.35076 20.404 7.30733 20.3866 7.26679 20.3692C7.18282 20.3287 7.09595 20.2881 7.01198 20.2447C6.83245 20.152 6.65582 20.0536 6.48498 19.9465C6.32862 19.848 6.17805 19.7438 6.02748 19.6366C5.98984 19.6106 5.95509 19.5787 5.91744 19.5556C5.90007 19.544 6.22149 19.8075 6.08829 19.6859C6.01011 19.6135 5.92325 19.5498 5.84217 19.4774C5.54393 19.2139 5.26884 18.9272 5.01693 18.6232C4.98797 18.5884 4.95902 18.5508 4.93006 18.516C4.81135 18.38 5.07195 18.7043 5.06037 18.6869C5.01404 18.6087 4.95034 18.5363 4.89822 18.4639C4.78239 18.2989 4.67526 18.1309 4.57102 17.9601C4.36833 17.6213 4.22354 17.2623 4.03822 16.9177C4.02954 16.9003 4.18301 17.2883 4.12221 17.1146C4.10773 17.0712 4.08746 17.0248 4.07009 16.9814C4.02955 16.8772 3.9919 16.7729 3.95716 16.6658C3.89056 16.4689 3.82685 16.2691 3.77184 16.0664C3.6647 15.6697 3.58942 15.2701 3.51992 14.8676C3.48807 14.6765 3.54887 15.1051 3.54887 15.0819C3.54598 15.0327 3.53729 14.9835 3.5315 14.9342C3.51992 14.8358 3.51124 14.7344 3.50255 14.6331C3.48518 14.413 3.4736 14.1959 3.4678 13.9758C3.45622 13.527 3.47069 13.0782 3.51123 12.6322C3.51991 12.528 3.53151 12.4238 3.54309 12.3195C3.57784 11.9952 3.48518 12.6844 3.5373 12.363C3.57494 12.1342 3.61547 11.9055 3.6618 11.6796C3.75736 11.2337 3.87319 10.7936 4.01507 10.3592C4.08457 10.1478 4.15984 9.93647 4.24092 9.72799C4.28145 9.62375 4.32778 9.51951 4.36542 9.41527C4.19748 9.87856 4.36542 9.42396 4.42044 9.30814C4.61155 8.89697 4.82582 8.49737 5.05747 8.10937C5.28911 7.72136 5.53234 7.3681 5.79584 7.01194C5.98405 6.76003 5.57867 7.27544 5.77846 7.03511C5.84506 6.95693 5.90876 6.87585 5.97536 6.79767C6.12882 6.61525 6.28809 6.43862 6.45314 6.26489C6.74269 5.96375 7.04384 5.67709 7.36235 5.4049C7.43763 5.3412 7.51291 5.2775 7.59109 5.21669C7.62873 5.18484 7.66928 5.15589 7.70692 5.12403C7.7214 5.11245 7.39708 5.35568 7.55055 5.24854C7.72139 5.12693 7.88934 5.00242 8.06597 4.8866C8.39606 4.66653 8.74063 4.46674 9.09389 4.28721C9.27342 4.19455 9.47032 4.12506 9.64406 4.02661C9.66433 4.01503 9.27053 4.17718 9.44426 4.11059C9.4877 4.09321 9.53113 4.07584 9.57167 4.05847C9.67301 4.01793 9.77146 3.98318 9.8728 3.94554C10.229 3.81813 10.5938 3.71389 10.9644 3.63282C11.1411 3.59518 11.3177 3.56622 11.4943 3.53437C11.7926 3.48225 11.0831 3.5749 11.3872 3.54884C11.4914 3.54016 11.5928 3.52857 11.697 3.51989C12.0792 3.49093 12.4614 3.49093 12.8437 3.51989C12.9305 3.52568 13.0203 3.53437 13.1071 3.54306C13.1477 3.54595 13.1998 3.54595 13.2375 3.55753C13.2751 3.56911 12.806 3.48515 12.9942 3.52568C13.1824 3.56622 13.3706 3.59227 13.5589 3.63571C13.9237 3.72257 14.2683 3.84998 14.6215 3.97159C14.7953 4.0324 14.3928 3.87025 14.416 3.88473C14.4536 3.9079 14.4999 3.92237 14.5405 3.93975C14.6679 4.00055 14.7924 4.06136 14.9169 4.12506C15.1543 4.24957 15.3831 4.38856 15.6031 4.53913C15.6552 4.57388 15.9651 4.80552 15.774 4.65495C15.5829 4.50438 15.8811 4.74761 15.9303 4.78815C16.1301 4.96188 16.3183 5.14431 16.5008 5.33541C17.1523 6.01877 18.3018 5.98402 18.9591 5.33541C19.0431 5.25144 19.2602 5.12114 19.3066 5.0169C19.2573 5.12983 19.0315 5.2167 19.2747 5.04586C19.3355 5.00242 19.3992 4.96188 19.4629 4.92424C19.5903 4.84606 19.7235 4.78525 19.8509 4.71576C20.042 4.61152 19.5295 4.82289 19.7351 4.76788C19.8191 4.74471 19.9031 4.70997 19.987 4.6868C20.0536 4.66653 20.1231 4.65495 20.1897 4.63758C20.4214 4.57677 20.1057 4.65205 20.0333 4.64916C20.1694 4.65205 20.3055 4.62599 20.4416 4.63178C20.5082 4.63178 20.5777 4.64916 20.6443 4.64337C20.2505 4.66653 20.3606 4.59994 20.5314 4.63758C20.6733 4.66943 21.125 4.85764 20.6501 4.64627C21.0902 4.84317 21.5043 4.95609 21.9879 4.82C22.3903 4.70997 22.8276 4.39725 23.0274 4.02082C23.427 3.26508 23.2909 2.03736 22.4048 1.64356V1.62908Z" fill="#FF4409"/>
<path d="M75.347 146.354H59.7109V99.3008H68.5424L75.347 146.354Z" fill="#FAF1E7"/>
<path d="M75.3483 144.183H59.7122L61.8839 146.355V105.107C61.8839 103.199 61.9273 101.285 61.8839 99.3797C61.8839 99.3537 61.8839 99.3276 61.8839 99.3015L59.7122 101.473H68.5437C67.8459 100.94 67.1481 100.411 66.4502 99.8777C66.6761 101.444 66.9048 103.014 67.1307 104.58C67.6721 108.318 68.2107 112.057 68.7522 115.798C69.4095 120.341 70.0668 124.884 70.7241 129.43C71.2887 133.336 71.8534 137.242 72.418 141.148C72.6931 143.045 72.9131 144.962 73.2432 146.85C73.249 146.876 73.2519 146.905 73.2548 146.931C73.3272 147.432 73.8397 147.985 74.2538 148.228C74.72 148.5 75.4062 148.616 75.9274 148.448C76.4486 148.28 76.9611 147.953 77.2246 147.449C77.5171 146.896 77.5316 146.386 77.4447 145.775C77.2188 144.209 76.9901 142.64 76.7642 141.073C76.2228 137.335 75.6842 133.597 75.1427 129.856C74.4854 125.312 73.8281 120.769 73.1708 116.223C72.6062 112.317 72.0416 108.411 71.4769 104.505C71.2916 103.216 71.1034 101.928 70.9181 100.642C70.8283 100.031 70.7675 99.4087 70.6517 98.8035C70.6459 98.7774 70.643 98.7485 70.6401 98.7224C70.5764 98.2765 70.1971 97.8537 69.8612 97.5931C69.4819 97.3007 69.036 97.127 68.5466 97.127H59.7151C58.5424 97.127 57.5435 98.123 57.5435 99.2986V140.546C57.5435 142.454 57.5116 144.365 57.5435 146.273C57.5435 146.3 57.5435 146.326 57.5435 146.352C57.5435 147.524 58.5395 148.523 59.7151 148.523H75.3512C76.4863 148.523 77.575 147.524 77.5229 146.352C77.4708 145.176 76.5673 144.18 75.3512 144.18L75.3483 144.183Z" fill="#FF4409"/>
<path d="M87.6648 148.816H61.871C60.6839 148.816 59.7109 147.843 59.7109 146.656V140.842C59.7109 139.655 60.6839 138.682 61.871 138.682H81.8505C86.2373 138.682 89.8249 142.269 89.8249 146.656C89.8249 147.843 88.8519 148.816 87.6648 148.816Z" fill="#FF4409"/>
<path d="M87.6639 146.645C86.801 146.645 85.9382 146.645 85.0724 146.645C83.002 146.645 80.9317 146.645 78.8614 146.645H71.3676C69.222 146.645 67.0793 146.645 64.9337 146.645C63.9231 146.645 62.9097 146.659 61.8962 146.645C61.7862 146.645 61.6791 146.636 61.569 146.624L62.1452 146.703C61.9512 146.671 61.7688 146.619 61.5835 146.543L62.1018 146.763C61.986 146.708 61.8788 146.645 61.7659 146.581C61.4474 146.396 62.1974 146.969 61.876 146.651C61.5545 146.332 62.1308 147.079 61.9454 146.761C61.8817 146.651 61.8152 146.543 61.763 146.425L61.9831 146.943C61.9078 146.761 61.8557 146.578 61.8238 146.381L61.902 146.957C61.8586 146.581 61.8818 146.193 61.8818 145.817V141.688C61.8818 141.311 61.8586 140.92 61.902 140.547L61.8238 141.123C61.8557 140.929 61.9078 140.746 61.9831 140.561L61.763 141.079C61.8181 140.964 61.8817 140.857 61.9454 140.744C62.1308 140.425 61.5574 141.175 61.876 140.854C62.1945 140.532 61.4474 141.108 61.7659 140.923C61.876 140.859 61.9831 140.793 62.1018 140.741L61.5835 140.961C61.7659 140.885 61.9483 140.833 62.1452 140.802L61.569 140.88C62.319 140.793 63.1037 140.859 63.8565 140.859H79.7706C80.8217 140.859 81.9075 140.796 82.9499 140.935L82.3737 140.857C83.0542 140.955 83.7115 141.137 84.3456 141.401L83.8273 141.181C84.2963 141.384 84.7481 141.624 85.1737 141.908C85.278 141.977 85.3822 142.052 85.4864 142.128C85.7789 142.336 85.0145 141.743 85.4198 142.081C85.6023 142.235 85.7789 142.394 85.9468 142.562C86.1148 142.73 86.2769 142.907 86.4275 143.089C86.7692 143.497 86.1727 142.73 86.3812 143.022C86.4564 143.127 86.5288 143.228 86.6012 143.335C86.885 143.761 87.1253 144.212 87.328 144.682L87.108 144.163C87.3714 144.797 87.551 145.455 87.6523 146.135L87.5741 145.559C87.6349 146.019 87.6842 146.5 87.6292 146.963L87.7073 146.387C87.6755 146.581 87.6234 146.763 87.5481 146.949L87.7682 146.43C87.7131 146.546 87.6494 146.653 87.5857 146.766C87.4004 147.085 87.9737 146.335 87.6552 146.656C87.3367 146.978 88.0838 146.402 87.7653 146.587C87.6552 146.651 87.5481 146.717 87.4294 146.769L87.9477 146.549C87.7653 146.624 87.5828 146.677 87.3859 146.708L87.9621 146.63C87.8608 146.642 87.7624 146.648 87.661 146.651C86.526 146.677 85.4372 147.629 85.4893 148.822C85.5415 150.015 86.4449 151.023 87.661 150.994C89.5721 150.95 91.1588 149.76 91.7901 147.965C92.013 147.328 92.0217 146.622 91.9638 145.956C91.9059 145.29 91.8046 144.583 91.6193 143.923C90.9214 141.47 89.2912 139.345 87.1253 138.004C85.5154 137.008 83.6246 136.519 81.7396 136.516C81.0823 136.516 80.4279 136.516 79.7706 136.516H63.4859C62.9531 136.516 62.4203 136.507 61.8904 136.516C60.3934 136.539 59.1107 137.263 58.2536 138.479C57.7063 139.252 57.5384 140.199 57.5384 141.129V145.18C57.5384 145.654 57.5355 146.126 57.5384 146.601C57.5471 148.113 58.271 149.422 59.5016 150.284C60.3963 150.913 61.4358 151 62.4811 151C63.2832 151 64.0853 151 64.8874 151C67.615 151 70.3455 151 73.0731 151C76.0585 151 79.0467 151 82.032 151C83.8244 151 85.6138 151 87.4062 151H87.6639C88.799 151 89.8877 150.001 89.8356 148.828C89.7835 147.652 88.88 146.656 87.6639 146.656V146.645Z" fill="#FF4409"/>
<path d="M36.5469 146.355H52.1829V99.3015H43.3515L36.5469 146.355Z" fill="#FAF1E7"/>
<path d="M36.5475 148.525C38.3138 148.525 40.0801 148.525 41.8435 148.525C44.6435 148.525 47.4436 148.525 50.2465 148.525C50.8922 148.525 51.5379 148.525 52.1836 148.525C53.3563 148.525 54.3553 147.529 54.3553 146.354C54.3553 144.784 54.3553 143.215 54.3553 141.645C54.3553 137.901 54.3553 134.157 54.3553 130.416V116.845C54.3553 112.933 54.3553 109.021 54.3553 105.109C54.3553 103.201 54.3871 101.29 54.3553 99.3817C54.3553 99.3556 54.3553 99.3296 54.3553 99.3035C54.3553 98.1308 53.3592 97.1318 52.1836 97.1318C49.6037 97.1318 47.0266 97.1318 44.4467 97.1318C44.0818 97.1318 43.717 97.1318 43.3521 97.1318C42.8686 97.1318 42.414 97.3056 42.0375 97.598C41.7017 97.8586 41.3223 98.2872 41.2586 98.7273C41.0328 100.294 40.804 101.863 40.5782 103.43C40.0367 107.168 39.4981 110.906 38.9566 114.647C38.2994 119.19 37.6421 123.733 36.9848 128.279C36.4201 132.186 35.8555 136.092 35.2908 139.998C35.0158 141.897 34.7378 143.8 34.4656 145.699C34.4627 145.725 34.4569 145.754 34.454 145.78C34.3672 146.383 34.3527 146.907 34.6741 147.454C34.9376 147.906 35.453 148.334 35.9713 148.453C36.5273 148.58 37.1498 148.551 37.6449 148.233C38.0851 147.949 38.5628 147.48 38.6439 146.936C38.8698 145.369 39.0985 143.8 39.3244 142.233L40.9459 131.016C41.6032 126.473 42.2605 121.929 42.9178 117.383C43.4824 113.477 44.047 109.571 44.6117 105.665C44.8868 103.766 45.2082 101.869 45.4369 99.9637C45.4398 99.9376 45.4456 99.9087 45.4485 99.8826L43.355 101.478C45.935 101.478 48.512 101.478 51.092 101.478C51.4568 101.478 51.8217 101.478 52.1865 101.478L50.0148 99.3064C50.0148 100.876 50.0148 102.445 50.0148 104.015C50.0148 107.759 50.0148 111.503 50.0148 115.244C50.0148 119.766 50.0148 124.292 50.0148 128.815C50.0148 132.727 50.0148 136.639 50.0148 140.551C50.0148 142.459 49.9714 144.373 50.0148 146.278C50.0148 146.304 50.0148 146.33 50.0148 146.357L52.1865 144.185C50.4202 144.185 48.6539 144.185 46.8905 144.185C44.0905 144.185 41.2905 144.185 38.4876 144.185C37.8419 144.185 37.1961 144.185 36.5504 144.185C35.4154 144.185 34.3266 145.184 34.3788 146.357C34.4309 147.529 35.3343 148.528 36.5504 148.528L36.5475 148.525Z" fill="#FF4409"/>
<path d="M24.2304 148.816H50.0241C51.2113 148.816 52.1842 147.843 52.1842 146.656V140.842C52.1842 139.655 51.2113 138.682 50.0241 138.682H30.0447C25.6579 138.682 22.0703 142.269 22.0703 146.656C22.0703 147.843 23.0432 148.816 24.2304 148.816Z" fill="#FF4409"/>
<path d="M24.2299 150.989C25.5068 150.989 26.7809 150.989 28.0578 150.989C30.8984 150.989 33.7418 150.989 36.5824 150.989C39.5011 150.989 42.417 150.989 45.3357 150.989C46.8761 150.989 48.4166 151.001 49.957 150.989C52.4067 150.972 54.338 149.017 54.3525 146.573C54.3612 145.337 54.3525 144.097 54.3525 142.861C54.3525 141.352 54.532 139.688 53.5794 138.396C52.7107 137.223 51.4714 136.534 49.9947 136.508C49.8209 136.508 49.6472 136.508 49.4735 136.508H42.6399C39.672 136.508 36.704 136.508 33.736 136.508C31.8481 136.508 29.8849 136.372 28.0202 136.717C25.4837 137.186 23.3062 138.746 21.7889 140.785C21.0795 141.738 20.5583 142.864 20.2485 144.008C20.069 144.671 19.9734 145.363 19.9213 146.046C19.8692 146.73 19.8923 147.419 20.1385 148.047C20.8189 149.793 22.3304 150.943 24.2328 150.986C25.3678 151.012 26.4566 149.967 26.4045 148.814C26.3523 147.662 25.4518 146.672 24.2328 146.643C24.1314 146.643 24.033 146.634 23.9316 146.622L24.5079 146.701C24.3139 146.669 24.1314 146.617 23.9461 146.541L24.4644 146.761C24.3486 146.706 24.2415 146.643 24.1285 146.579C23.81 146.394 24.56 146.967 24.2386 146.648C23.9172 146.33 24.4934 147.077 24.3081 146.759C24.2444 146.648 24.1778 146.541 24.1256 146.423L24.3457 146.941C24.2704 146.759 24.2183 146.576 24.1865 146.379L24.2646 146.955C24.2096 146.492 24.2589 146.011 24.3197 145.551L24.2415 146.127C24.3399 145.447 24.5223 144.79 24.7858 144.155L24.5658 144.674C24.7685 144.205 25.0088 143.753 25.2926 143.327C25.3621 143.223 25.4373 143.119 25.5126 143.015C25.7211 142.722 25.1275 143.487 25.4663 143.081C25.6198 142.899 25.779 142.722 25.947 142.554C26.1149 142.386 26.2915 142.224 26.474 142.073C26.8822 141.732 26.1149 142.328 26.4074 142.12C26.5116 142.045 26.6129 141.972 26.7201 141.9C27.1457 141.616 27.5974 141.376 28.0665 141.173L27.5482 141.393C28.1823 141.13 28.8396 140.95 29.5201 140.849L28.9439 140.927C29.8473 140.805 30.7739 140.852 31.6831 140.852C33.2757 140.852 34.8682 140.852 36.4608 140.852C40.1613 140.852 43.8647 140.852 47.5653 140.852C48.4716 140.852 49.4242 140.768 50.3277 140.872L49.7514 140.794C49.9454 140.825 50.1279 140.878 50.3132 140.953L49.7949 140.733C49.9107 140.788 50.0178 140.852 50.1308 140.915C50.4493 141.101 49.6993 140.527 50.0207 140.846C50.3421 141.164 49.7659 140.417 49.9512 140.736C50.0149 140.846 50.0815 140.953 50.1336 141.072L49.9136 140.553C49.9889 140.736 50.041 140.918 50.0729 141.115L49.9947 140.539C50.0381 140.915 50.0149 141.303 50.0149 141.68V143.744C50.0149 144.433 50.0149 145.12 50.0149 145.809C50.0149 146.185 50.0381 146.576 49.9947 146.95L50.0729 146.373C50.041 146.567 49.9889 146.75 49.9136 146.935L50.1336 146.417C50.0786 146.533 50.0149 146.64 49.9512 146.753C49.7659 147.071 50.3392 146.321 50.0207 146.643C49.7022 146.964 50.4493 146.388 50.1308 146.573C50.0207 146.637 49.9136 146.703 49.7949 146.756L50.3132 146.536C50.1308 146.611 49.9483 146.663 49.7514 146.695L50.3277 146.617C49.4271 146.721 48.4774 146.637 47.5711 146.637C45.5239 146.637 43.4767 146.637 41.4296 146.637C38.9336 146.637 36.4376 146.637 33.9416 146.637C31.7757 146.637 29.6099 146.637 27.444 146.637C26.39 146.637 25.3331 146.614 24.2791 146.637C24.2646 146.637 24.2501 146.637 24.2328 146.637C23.0977 146.637 22.009 147.636 22.0611 148.809C22.1132 149.984 23.0166 150.98 24.2328 150.98L24.2299 150.989Z" fill="#FF4409"/>
<path d="M97.5528 77.5022C75.477 86.5479 65.9564 96.0657 56.9106 118.144C55.4194 121.781 50.2595 121.781 48.7683 118.144C39.7225 96.0686 30.2048 86.5479 8.12606 77.5022C4.48923 76.0109 4.48923 70.851 8.12606 69.3598C30.2019 60.3141 39.7225 50.7963 48.7683 28.7176C50.2595 25.0808 55.4194 25.0808 56.9106 28.7176C65.9564 50.7934 75.4741 60.3141 97.5528 69.3598C101.19 70.851 101.19 76.0109 97.5528 77.5022Z" fill="#FAF1E7"/>
<path d="M96.9765 75.409C92.1988 77.3694 87.4848 79.5063 83.0228 82.1181C79.1861 84.365 75.5406 86.974 72.2744 89.994C69.0835 92.9417 66.2893 96.3093 63.857 99.9056C61.222 103.803 59.0359 107.987 57.093 112.267C56.4849 113.607 55.9029 114.96 55.3324 116.318C55.2021 116.63 55.0718 116.94 54.9444 117.253C54.7533 117.713 55.0979 116.949 54.9444 117.253C54.872 117.398 54.8026 117.54 54.7186 117.679C54.6578 117.78 54.568 117.875 54.5188 117.983C54.5246 117.971 54.8865 117.545 54.6722 117.786C54.6288 117.835 54.5854 117.887 54.5391 117.936C54.4609 118.02 54.3798 118.104 54.2958 118.182C54.2611 118.217 54.2205 118.246 54.1858 118.281C53.9223 118.539 54.542 118.038 54.3595 118.153C54.1568 118.284 53.9628 118.42 53.7457 118.53C53.7225 118.541 53.5777 118.617 53.5748 118.611C53.5604 118.594 54.0555 118.429 53.8731 118.484C53.737 118.524 53.6067 118.579 53.4677 118.617C53.3606 118.646 53.2534 118.672 53.1463 118.692C52.6454 118.79 53.2621 118.623 53.3055 118.678C53.2766 118.637 52.6396 118.698 52.5527 118.692C52.046 118.66 52.9465 118.773 52.6627 118.715C52.5556 118.692 52.4456 118.675 52.3384 118.649C52.2313 118.623 52.1242 118.594 52.0199 118.559C51.9591 118.539 51.9012 118.515 51.8404 118.498C51.519 118.391 52.2718 118.712 52.0518 118.591C51.8578 118.481 51.6551 118.391 51.4669 118.263C51.4147 118.229 51.3626 118.188 51.3076 118.153C51.0991 118.014 51.6927 118.495 51.519 118.313C51.4292 118.217 51.3221 118.139 51.2294 118.043C51.1484 117.959 51.0731 117.87 50.9949 117.783C50.7806 117.542 51.1426 117.968 51.1483 117.98C51.1223 117.925 51.0644 117.858 51.0325 117.809C50.9659 117.705 50.9022 117.6 50.8443 117.49C50.7661 117.343 50.5663 116.813 50.8009 117.438C50.5142 116.677 50.1725 115.93 49.854 115.18C49.3386 113.969 48.8087 112.765 48.2586 111.569C47.2364 109.354 46.1448 107.168 44.9576 105.037C42.7657 101.101 40.2176 97.3575 37.2554 93.961C34.4206 90.7121 31.1718 87.8629 27.6653 85.3553C23.901 82.6625 19.8299 80.4242 15.6516 78.4465C14.4789 77.8934 13.2975 77.3578 12.1074 76.8424C11.3458 76.5123 10.5843 76.188 9.81989 75.8695C9.52744 75.7478 9.23787 75.6262 8.94542 75.5075C8.58927 75.3627 9.39713 75.7276 8.91068 75.4872C8.78327 75.4235 8.65877 75.3569 8.53715 75.2816C8.36342 75.1745 8.06517 74.8705 8.55453 75.3251C8.46766 75.244 8.37499 75.1745 8.28812 75.0963C8.20125 75.0181 8.12308 74.9342 8.0449 74.8502C7.70033 74.468 8.27366 75.2179 8.0507 74.8705C7.92909 74.6794 7.81904 74.4912 7.71191 74.2943C7.49474 73.9005 7.87985 74.8039 7.74665 74.3753C7.70901 74.2537 7.66559 74.1379 7.63374 74.0134C7.60478 73.9062 7.58162 73.7991 7.56135 73.692C7.56135 73.692 7.54396 73.5182 7.52948 73.5067C7.54107 73.5182 7.58451 74.1147 7.57582 73.802C7.56714 73.5501 7.56714 73.304 7.57582 73.0492C7.5874 72.7162 7.4542 73.6543 7.55265 73.2055C7.57582 73.0984 7.59608 72.9884 7.62214 72.8841C7.65399 72.7625 7.68874 72.6409 7.73218 72.5222C7.74665 72.4787 7.76692 72.4324 7.7814 72.389C7.85379 72.1486 7.53817 72.9015 7.69163 72.6032C7.80456 72.389 7.91749 72.1834 8.05358 71.9836C8.28812 71.6303 7.74375 72.3282 7.98119 72.0791C8.07095 71.9836 8.15782 71.8851 8.25338 71.7925C8.34893 71.6998 8.46187 71.6217 8.55742 71.529C8.54584 71.5406 8.08833 71.8504 8.36631 71.6854C8.40974 71.6593 8.45318 71.6274 8.49661 71.6014C8.60085 71.5348 8.70798 71.474 8.81801 71.4161C8.88172 71.3813 8.94831 71.3524 9.01201 71.3205C9.37106 71.1352 8.62111 71.4798 8.88461 71.3726C10.2716 70.8225 11.6412 70.2231 13.0021 69.6179C15.2838 68.6074 17.5395 67.5302 19.7459 66.3575C23.7852 64.2119 27.6305 61.7246 31.1602 58.8145C34.4988 56.0638 37.4263 52.8989 40.0294 49.4474C42.7541 45.8337 45.0329 41.9044 47.0337 37.8506C48.247 35.3923 49.3531 32.8847 50.41 30.354C50.5403 30.0442 50.685 29.7343 50.798 29.4158C50.7893 29.4361 50.5692 29.8965 50.7198 29.6069C50.7459 29.5577 50.7661 29.5085 50.7922 29.4622C50.8646 29.3203 50.9428 29.1813 51.0296 29.0481C51.0586 29.0047 51.0933 28.9641 51.1165 28.9207C51.2352 28.6977 50.7864 29.3 50.9601 29.1147C51.0412 29.0307 51.1107 28.9352 51.1918 28.8512C51.2844 28.7556 51.3829 28.6717 51.4784 28.579C51.5335 28.524 51.6985 28.4053 51.409 28.6253C51.0962 28.8628 51.3452 28.6746 51.4234 28.6224C51.6232 28.4864 51.8375 28.3879 52.046 28.2692C52.2081 28.1765 51.7477 28.4169 51.7448 28.3937C51.7448 28.3879 51.8983 28.3358 51.9215 28.3271C52.0402 28.2866 52.1618 28.2489 52.2834 28.2171C52.405 28.1852 52.5295 28.1649 52.6511 28.1389C52.9957 28.0694 52.0634 28.1852 52.4948 28.1678C52.7496 28.1563 52.9928 28.1678 53.2476 28.1765C53.5024 28.1852 52.6975 28.0781 52.9494 28.1331C52.9957 28.1418 53.042 28.1476 53.0884 28.1563C53.2129 28.1794 53.3345 28.2084 53.4561 28.2431C53.5633 28.2721 53.6675 28.3097 53.7717 28.3445C54.1742 28.4748 53.265 28.0954 53.7341 28.33C53.9368 28.4313 54.1221 28.553 54.3074 28.6775C54.5854 28.8628 53.8673 28.301 54.2466 28.6427C54.3451 28.7325 54.4377 28.8251 54.5275 28.9236C54.5941 28.9989 54.8634 29.3232 54.6143 29.0162C54.3509 28.689 54.6607 29.106 54.707 29.1813C54.7707 29.2884 54.8315 29.3985 54.8865 29.5085C54.9184 29.5693 54.9415 29.6504 54.9792 29.7054C54.93 29.6301 54.791 29.2537 54.9068 29.5403C55.2224 30.3163 55.5496 31.0866 55.8797 31.8568C56.8845 34.2109 57.95 36.536 59.1083 38.8177C61.2133 42.9671 63.6456 46.9167 66.5036 50.5853C69.0488 53.8544 71.9733 56.8137 75.2163 59.3937C78.8329 62.2719 82.7419 64.7244 86.8507 66.844C89.1035 68.008 91.4025 69.0764 93.7277 70.0841C94.4689 70.4055 95.2131 70.7182 95.9602 71.031C96.1252 71.1004 96.2932 71.1699 96.4582 71.2394C96.5538 71.28 97.0315 71.4769 96.6899 71.3321C96.3482 71.1873 96.7622 71.3697 96.8375 71.4103C96.9794 71.4827 97.1097 71.5695 97.2458 71.6506C97.6454 71.8938 96.9273 71.3639 97.1763 71.5869C97.2748 71.6767 97.3761 71.7606 97.4716 71.8562C97.5527 71.9373 97.6251 72.027 97.7033 72.111C97.8799 72.2934 97.4108 71.6882 97.544 71.8996C97.5875 71.9662 97.6367 72.0299 97.6801 72.0965C97.7149 72.1486 98.0363 72.6525 97.9986 72.6843C97.9842 72.6988 97.7873 72.1226 97.8886 72.4295C97.9089 72.4903 97.9321 72.5482 97.9494 72.609C97.9871 72.7278 98.0218 72.8494 98.0508 72.9739C98.0768 73.081 98.0884 73.1911 98.1145 73.2982C98.1695 73.5501 98.071 72.7422 98.071 72.9999C98.071 73.0463 98.0797 73.0955 98.0826 73.1418C98.0971 73.3792 98.0739 73.6109 98.071 73.8483C98.071 74.106 98.1695 73.2982 98.1145 73.5501C98.1058 73.5964 98.1 73.6428 98.0913 73.6891C98.0681 73.8136 98.0392 73.9352 98.0044 74.0568C97.9755 74.164 97.9379 74.2653 97.9031 74.3724C97.7699 74.8039 98.1116 73.9584 97.9581 74.2479C97.8452 74.4622 97.7265 74.6649 97.5962 74.8676C97.3529 75.2469 97.8944 74.5346 97.6686 74.772C97.5759 74.8676 97.4919 74.966 97.3964 75.0587C97.3124 75.1398 97.2168 75.2093 97.1329 75.2903C96.9505 75.4641 97.5527 75.0153 97.3269 75.134C97.2834 75.1571 97.24 75.1948 97.1995 75.2208C96.9591 75.3772 96.7014 75.5046 96.438 75.6175C95.9747 75.8144 95.5664 76.4544 95.439 76.9147C95.2971 77.436 95.3608 78.128 95.659 78.5884C95.9573 79.0488 96.4032 79.4599 96.9562 79.5874C97.5643 79.7263 98.0594 79.6105 98.6299 79.3673C101.068 78.3365 102.669 75.5828 102.409 72.9507C102.261 71.4537 101.728 70.142 100.741 69.0012C99.7534 67.8603 98.3519 67.3623 96.9852 66.7889C96.9041 66.7542 96.8202 66.7165 96.7391 66.6847C97.269 66.8903 97.0055 66.7976 96.8897 66.7484C96.7275 66.6789 96.5654 66.6094 96.4003 66.5399C96.0789 66.4009 95.7575 66.262 95.4361 66.123C94.8454 65.8653 94.2605 65.6047 93.6727 65.3354C92.4913 64.7968 91.3186 64.2408 90.1546 63.6588C88.0263 62.5962 85.9357 61.4553 83.9059 60.2102C82.9504 59.6253 82.0093 59.0143 81.0885 58.3802C80.6368 58.0704 80.1909 57.7548 79.7479 57.4334C79.5365 57.2799 79.3251 57.1235 79.1167 56.9672C79.0182 56.8948 78.9226 56.8195 78.8242 56.7471C78.7692 56.7037 78.7142 56.6631 78.6591 56.6197C78.3783 56.4083 79.0153 56.8977 78.8097 56.7384C77.1448 55.4325 75.5435 54.0484 74.0407 52.5601C72.5408 51.0747 71.1336 49.4966 69.8248 47.8403C69.7379 47.7332 69.6539 47.6232 69.57 47.5131C69.2978 47.1657 69.8392 47.8664 69.625 47.5826C69.457 47.3597 69.2891 47.1396 69.1211 46.9167C68.7968 46.4794 68.4783 46.0364 68.1656 45.5905C67.5257 44.6784 66.9118 43.746 66.3211 42.802C63.6775 38.5716 61.4971 34.0632 59.5455 29.4766C59.5194 29.4158 59.4934 29.355 59.4673 29.2942C59.3573 29.0336 59.6411 29.7083 59.531 29.4448C59.4702 29.3 59.4094 29.1552 59.3486 29.0104C59.1488 28.5269 58.9577 28.0404 58.7463 27.5627C58.4625 26.9314 58.063 26.361 57.5968 25.8485C56.7426 24.9132 55.4888 24.2009 54.2437 23.9664C51.4524 23.4394 48.5221 24.5715 47.1119 27.1225C46.7297 27.8175 46.472 28.5906 46.1651 29.3203C45.9566 29.8154 46.3012 29.0018 46.1506 29.355C46.0811 29.5172 46.0116 29.6793 45.9421 29.8444C45.8031 30.1658 45.6641 30.4872 45.5252 30.8086C45.0011 32.0103 44.4567 33.2032 43.892 34.3875C42.8439 36.5853 41.7233 38.7482 40.4985 40.8533C39.3721 42.7934 38.1559 44.6813 36.8355 46.4939C36.6821 46.7053 36.5257 46.9167 36.3694 47.1251C36.2854 47.2352 36.2014 47.3481 36.1175 47.4581C36.0856 47.4987 36.0537 47.5421 36.0219 47.5826C35.7816 47.8983 36.2883 47.2438 36.1406 47.4321C35.8105 47.8519 35.4804 48.2718 35.1416 48.6829C34.4699 49.4966 33.7749 50.2929 33.0539 51.066C31.6206 52.6064 30.0918 54.0571 28.4789 55.4094C28.0591 55.7626 27.6334 56.1101 27.202 56.4518C27.1064 56.527 27.0109 56.6023 26.9153 56.6747C26.536 56.9701 27.2628 56.4083 26.9848 56.6197C26.7503 56.7992 26.5128 56.9788 26.2754 57.1525C25.3923 57.8069 24.4917 58.4352 23.5767 59.0375C19.5229 61.713 15.1796 63.9223 10.7436 65.8855C10.1239 66.1606 9.50138 66.4299 8.87883 66.6934C8.79775 66.7281 8.71377 66.7629 8.63269 66.7976C8.67034 66.7831 9.12205 66.592 8.78037 66.7339C8.63559 66.7947 8.49081 66.8555 8.34604 66.9163C7.88564 67.1075 7.41946 67.2928 6.96196 67.4926C5.74872 68.0253 4.67735 69.0243 4.04322 70.1883C2.6881 72.6843 3.05584 75.7565 4.93506 77.8732C5.96878 79.0372 7.3905 79.5179 8.78037 80.0999C9.13653 80.2476 8.32287 79.9059 8.81512 80.1143C8.957 80.1752 9.09889 80.236 9.24077 80.2968C9.56218 80.4358 9.8836 80.5747 10.205 80.7137C10.8333 80.9888 11.4588 81.2668 12.0842 81.5535C14.3515 82.5872 16.5868 83.6933 18.7672 84.9007C20.7651 86.0039 22.7167 87.194 24.596 88.4883C25.0477 88.7982 25.4936 89.1138 25.9337 89.4381C26.1451 89.5916 26.3565 89.7479 26.565 89.9043C26.6634 89.9767 26.759 90.0519 26.8574 90.1243C26.9124 90.1678 26.9674 90.2083 27.0225 90.2517C27.2136 90.3965 26.5592 89.8898 26.8719 90.1359C27.7087 90.7903 28.5311 91.465 29.3302 92.1657C30.9112 93.5527 32.4053 95.0352 33.8039 96.6046C34.5104 97.3951 35.1909 98.2088 35.8482 99.0427C35.935 99.1498 36.019 99.2599 36.103 99.3699C36.3172 99.645 35.7584 98.9182 36.048 99.3004C36.2159 99.5234 36.3838 99.7434 36.5489 99.9693C36.8732 100.407 37.1917 100.85 37.5044 101.295C40.2263 105.19 42.479 109.391 44.4683 113.697C45.03 114.91 45.5686 116.132 46.0927 117.363C46.1274 117.444 46.1593 117.528 46.1969 117.609C45.9624 117.088 46.084 117.343 46.1332 117.461C46.2027 117.626 46.2722 117.792 46.3417 117.959C46.5328 118.417 46.7123 118.88 46.915 119.335C47.1901 119.946 47.5926 120.505 48.0443 120.997C49.9843 123.119 53.1579 123.528 55.7031 122.369C56.896 121.828 57.9327 120.829 58.5552 119.677C58.9316 118.976 59.1951 118.2 59.5021 117.464C59.6497 117.108 59.3254 117.878 59.5165 117.43C59.586 117.267 59.6555 117.105 59.725 116.943C59.864 116.622 60.003 116.3 60.142 115.979C61.167 113.639 62.2587 111.326 63.4458 109.064C64.5288 107.003 65.6928 104.984 66.961 103.033C67.5604 102.109 68.1859 101.2 68.8345 100.311C68.988 100.1 69.1443 99.8882 69.3007 99.6797C69.3846 99.5697 69.4686 99.4568 69.5526 99.3467C69.5844 99.3062 69.6163 99.2656 69.6481 99.2222C69.8045 99.0166 69.3151 99.6508 69.5323 99.3728C69.8624 98.9529 70.1925 98.536 70.5342 98.1248C71.8864 96.4888 73.3342 94.9339 74.8775 93.4745C75.6449 92.7506 76.4324 92.0499 77.2403 91.3723C77.6341 91.0422 78.0366 90.715 78.4391 90.3965C78.5462 90.3097 78.6562 90.2257 78.7663 90.1417C79.0414 89.9274 78.3175 90.4863 78.7373 90.1649C78.9574 89.9969 79.1804 89.829 79.4062 89.6639C83.1502 86.8958 87.2185 84.5938 91.4054 82.5727C92.5405 82.0254 93.6842 81.4984 94.8338 80.9888C95.4129 80.7311 95.992 80.4792 96.574 80.2331C96.6406 80.2041 97.214 79.9609 96.8665 80.1086C96.5451 80.2446 97.0084 80.0478 97.101 80.0101C97.434 79.8711 97.7699 79.7321 98.1029 79.5961C98.6502 79.3731 99.0903 79.127 99.4001 78.5971C99.6723 78.1309 99.7881 77.4446 99.6202 76.9234C99.293 75.9129 98.0739 74.9458 96.9476 75.4062L96.9765 75.409Z" fill="#FF4409"/>
<path d="M34.0012 53.907C34.0012 53.907 31.763 65.4285 34.8294 66.1987C40.412 67.5972 38.9527 65.3039 44.185 56.0844" fill="#FAF1E7"/>
<path d="M32.3278 53.4432C32.0585 54.8359 31.8674 56.249 31.7111 57.6591C31.4621 59.909 31.3086 62.2341 31.7429 64.4724C31.9311 65.4395 32.322 66.4761 33.072 67.1508C34.0131 67.9963 35.4087 68.1555 36.6191 68.2829C37.5688 68.3814 38.5504 68.2453 39.3959 67.7791C40.2414 67.3129 40.8292 66.5398 41.2983 65.7406C41.9237 64.6693 42.3928 63.5082 42.914 62.3876C43.7682 60.5431 44.6861 58.7334 45.688 56.9642C46.1368 56.1737 45.9023 55.0299 45.0654 54.5869C44.2286 54.1439 43.166 54.3668 42.6882 55.2095C41.8108 56.7586 40.9943 58.3425 40.2327 59.9524C39.726 61.0238 39.2569 62.1154 38.7299 63.1752C38.5417 63.5545 38.3448 63.9309 38.1132 64.2871C38.0697 64.3537 38.0263 64.4174 37.98 64.484C37.7541 64.8141 38.2551 64.1568 38.0755 64.3652C37.9713 64.4869 37.8699 64.6056 37.7512 64.7127C37.6064 64.8459 37.3545 64.9444 37.8931 64.6143C37.841 64.6461 37.7918 64.6867 37.7368 64.7214C37.6817 64.7561 37.6267 64.7822 37.5746 64.8141C37.2503 64.9936 38.0698 64.649 37.7107 64.7561C37.5833 64.7938 37.4588 64.8256 37.3285 64.8546C37.0129 64.9241 37.896 64.8112 37.4964 64.8285C37.4067 64.8314 37.314 64.8401 37.2242 64.8401C37.0389 64.8401 36.8565 64.8314 36.6741 64.8141C36.5061 64.7967 36.1355 64.7185 36.8044 64.8372C36.6654 64.8141 36.5264 64.7938 36.3874 64.7677C36.1674 64.7272 35.9473 64.6809 35.7272 64.6287C35.5824 64.5969 35.4377 64.565 35.2929 64.5245C35.2639 64.5158 35.2321 64.5042 35.2031 64.4984C34.9512 64.4434 35.6519 64.7301 35.4608 64.6114C35.4058 64.5766 35.3421 64.5361 35.2842 64.5071C35.4116 64.5708 35.6751 64.8459 35.4464 64.6172C35.4 64.5708 35.3595 64.5129 35.3132 64.4695C35.7417 64.8864 35.5187 64.7504 35.4058 64.5592C35.3624 64.4869 35.3276 64.4116 35.29 64.3392C35.1307 64.0409 35.4666 64.8083 35.3537 64.4897C35.2842 64.2928 35.2205 64.0931 35.1713 63.8875C35.1221 63.6819 35.0815 63.4734 35.0468 63.2649C34.9744 62.8103 35.0815 63.5834 35.0583 63.3605C35.0439 63.2244 35.0265 63.0854 35.0149 62.9493C34.9715 62.4397 34.9541 61.9301 34.9541 61.4205C34.9541 60.3491 35.0265 59.2777 35.1307 58.2122C35.1858 57.6678 35.2495 57.1234 35.319 56.5791C35.3537 56.2982 35.2495 57.08 35.29 56.802C35.2987 56.7441 35.3074 56.6862 35.3132 56.6283C35.3305 56.498 35.3508 56.3706 35.3682 56.2403C35.3971 56.0405 35.429 55.8407 35.4608 55.6438C35.5274 55.221 35.5969 54.7954 35.678 54.3755C35.8517 53.4866 35.429 52.4587 34.4648 52.2386C33.6048 52.0417 32.5131 52.4992 32.3278 53.4518V53.4432Z" fill="#FF4409"/>
<path d="M50.2493 56.665C50.2493 56.665 48.011 68.1865 51.0774 68.9567C56.6601 70.3553 55.2007 68.062 60.433 58.8425" fill="#FAF1E7"/>
<path d="M48.5739 56.2015C48.3046 57.5942 48.1135 59.0073 47.9572 60.4174C47.7081 62.6673 47.5547 64.9924 47.989 67.2307C48.1772 68.1978 48.5681 69.2344 49.3181 69.9091C50.2591 70.7546 51.6548 70.9139 52.8651 71.0413C53.8149 71.1397 54.7965 71.0036 55.642 70.5374C56.4875 70.0712 57.0753 69.2981 57.5444 68.4989C58.1698 67.4276 58.6389 66.2665 59.1601 65.1459C60.0143 63.3014 60.9322 61.4917 61.9341 59.7225C62.3829 58.932 62.1484 57.7882 61.3115 57.3452C60.4747 56.9022 59.412 57.1251 58.9343 57.9678C58.0569 59.5169 57.2404 61.1008 56.4788 62.7107C55.9721 63.7821 55.503 64.8737 54.976 65.9335C54.7878 66.3128 54.5909 66.6892 54.3593 67.0454C54.3158 67.112 54.2724 67.1757 54.2261 67.2423C54.0002 67.5724 54.5012 66.9151 54.3216 67.1235C54.2174 67.2452 54.116 67.3639 53.9973 67.471C53.8525 67.6042 53.6006 67.7027 54.1392 67.3726C54.0871 67.4044 54.0379 67.445 53.9828 67.4797C53.9278 67.5144 53.8728 67.5405 53.8207 67.5724C53.4964 67.7519 54.3158 67.4073 53.9568 67.5144C53.8294 67.5521 53.7049 67.5839 53.5746 67.6129C53.259 67.6824 54.1421 67.5695 53.7425 67.5868C53.6528 67.5897 53.5601 67.5984 53.4703 67.5984C53.285 67.5984 53.1026 67.5897 52.9202 67.5724C52.7522 67.555 52.3816 67.4768 53.0505 67.5955C52.9115 67.5724 52.7725 67.5521 52.6335 67.526C52.4134 67.4855 52.1934 67.4392 51.9733 67.387C51.8285 67.3552 51.6838 67.3233 51.539 67.2828C51.51 67.2741 51.4782 67.2625 51.4492 67.2567C51.1973 67.2017 51.898 67.4884 51.7069 67.3697C51.6519 67.3349 51.5882 67.2944 51.5303 67.2654C51.6577 67.3291 51.9212 67.6042 51.6924 67.3755C51.6461 67.3291 51.6056 67.2712 51.5592 67.2278C51.9878 67.6447 51.7648 67.5087 51.6519 67.3175C51.6085 67.2452 51.5737 67.1699 51.5361 67.0975C51.3768 66.7992 51.7127 67.5666 51.5998 67.248C51.5303 67.0512 51.4666 66.8514 51.4174 66.6458C51.3681 66.4402 51.3276 66.2317 51.2929 66.0232C51.2205 65.5686 51.3276 66.3417 51.3044 66.1188C51.29 65.9827 51.2726 65.8437 51.261 65.7076C51.2176 65.198 51.2002 64.6884 51.2002 64.1788C51.2002 63.1074 51.2726 62.036 51.3768 60.9705C51.4318 60.4261 51.4955 59.8817 51.565 59.3374C51.5998 59.0565 51.4956 59.8383 51.5361 59.5603C51.5448 59.5024 51.5535 59.4445 51.5592 59.3866C51.5766 59.2563 51.5969 59.1289 51.6143 58.9986C51.6432 58.7988 51.6751 58.599 51.7069 58.4021C51.7735 57.9793 51.843 57.5537 51.9241 57.1338C52.0978 56.2449 51.6751 55.217 50.7108 54.9969C49.8509 54.8 48.7592 55.2575 48.5739 56.2101V56.2015Z" fill="#FF4409"/>
<path d="M26.9941 76.9106C26.9941 76.9106 52.9066 92.7871 65.9366 80.9152L26.9941 76.9106Z" fill="#FAF1E7"/>
<path d="M26.1171 78.4107C27.0003 78.9522 27.9153 79.4415 28.8332 79.9222C31.2075 81.1673 33.6543 82.2821 36.1445 83.2781C39.1993 84.5001 42.3468 85.5193 45.5696 86.194C49.0066 86.9121 52.5855 87.303 56.0892 86.9005C59.5928 86.498 63.1399 85.3224 66.0383 83.0812C66.4263 82.783 66.8028 82.4732 67.1676 82.1431C67.8423 81.5321 67.8365 80.2986 67.1676 79.6847C66.4466 79.0217 65.4303 79.0332 64.7093 79.6847C64.5558 79.8237 64.3995 79.9627 64.2373 80.0959C64.162 80.1567 64.0896 80.2204 64.0143 80.2812C63.9709 80.316 63.9275 80.3507 63.8869 80.3855C63.6698 80.5621 64.1765 80.1683 64.0114 80.2899C63.6842 80.5303 63.357 80.7706 63.0154 80.9907C62.3349 81.4308 61.6168 81.8188 60.8785 82.1518C60.7887 82.1923 60.6845 82.256 60.5889 82.2792C60.5484 82.2908 60.9914 82.1141 60.8205 82.1807C60.7713 82.201 60.7221 82.2213 60.6729 82.2415C60.476 82.3197 60.2791 82.395 60.0822 82.4674C59.7086 82.6006 59.3322 82.7222 58.9529 82.8322C58.174 83.0552 57.3835 83.2289 56.5843 83.3563C56.4801 83.3737 56.3729 83.3882 56.2687 83.4055C56.2282 83.4113 56.1905 83.4171 56.15 83.4229C55.9415 83.4548 56.5843 83.3679 56.3729 83.394C56.1616 83.42 55.9473 83.4461 55.733 83.4664C55.3305 83.5069 54.9281 83.5359 54.5227 83.5561C53.6917 83.5967 52.8606 83.5967 52.0325 83.5619C51.2043 83.5272 50.3559 83.4577 49.522 83.3592C49.4265 83.3476 49.3309 83.3361 49.2325 83.3245C48.8068 83.2695 49.5278 83.3679 49.2817 83.3332C49.0616 83.3013 48.8416 83.2695 48.6244 83.2376C48.2132 83.1739 47.805 83.1044 47.3938 83.0262C44.1768 82.424 41.0293 81.4568 37.9745 80.287C37.2796 80.0206 36.5904 79.7398 35.9013 79.4531C35.7333 79.3836 36.2024 79.5805 36.1532 79.5602C36.1098 79.5429 36.0663 79.5226 36.0229 79.5052C35.936 79.4676 35.852 79.4328 35.7652 79.3952C35.5972 79.3228 35.4293 79.2504 35.2613 79.1751C34.9573 79.0419 34.6533 78.9058 34.3492 78.7669C33.2721 78.2775 32.2065 77.7621 31.1525 77.2206C30.0551 76.6589 28.9924 76.0479 27.9182 75.4427C27.9037 75.434 27.8892 75.4254 27.8747 75.4167C27.0987 74.9418 25.9289 75.2227 25.4975 76.0392C25.0487 76.8876 25.2919 77.9098 26.12 78.4165L26.1171 78.4107Z" fill="#FF4409"/>
<path d="M65.201 75.5078C65.0765 77.2104 64.9781 79.0288 65.8236 80.5142C66.6285 81.9244 68.1835 82.7844 69.7789 83.0942C71.3744 83.404 73.0191 83.2332 74.6261 83.0073" fill="#FAF1E7"/>
<path d="M63.4636 75.5078C63.3072 77.691 63.2927 80.0973 64.6826 81.9244C66.1651 83.876 68.4121 84.7823 70.8096 84.9676C72.243 85.0776 73.6734 84.8778 75.0893 84.6809C75.4889 84.6259 75.9348 84.2119 76.1288 83.8818C76.346 83.5082 76.4386 82.961 76.3025 82.544C76.1664 82.127 75.9058 81.7188 75.5034 81.5045C75.0603 81.27 74.655 81.2613 74.1656 81.3308C74.0729 81.3452 73.9803 81.3568 73.8905 81.3684C74.1222 81.3366 74.1367 81.3337 73.9369 81.3597C73.7747 81.3771 73.6126 81.4003 73.4504 81.4176C73.1029 81.4553 72.7555 81.4842 72.408 81.5045C72.0837 81.5219 71.7594 81.5306 71.4351 81.5219C71.1368 81.5161 70.7517 81.545 70.468 81.4611C70.8936 81.5885 70.4187 81.4495 70.3116 81.4321C70.1813 81.4089 70.0539 81.38 69.9265 81.351C69.6804 81.2902 69.4342 81.2178 69.1939 81.131C69.1244 81.1049 69.0578 81.0817 68.9883 81.0528C69.2344 81.1599 69.2721 81.1744 69.1013 81.0991C69.0028 81.0528 68.9044 81.0065 68.8059 80.9572C68.5656 80.8327 68.3339 80.6937 68.111 80.5374C67.7577 80.2884 68.3281 80.7459 68.0791 80.5113C67.9749 80.4129 67.8648 80.3231 67.7635 80.2189C67.6882 80.1436 67.6187 80.0596 67.5463 79.9843C67.4305 79.8424 67.4537 79.8772 67.6158 80.0857C67.5724 80.0278 67.5319 79.9698 67.4913 79.9119C67.4305 79.8222 67.3755 79.7295 67.3205 79.6369C67.28 79.5674 67.2423 79.495 67.2047 79.4226C67.1236 79.2488 67.1323 79.2778 67.2307 79.5095C67.0917 79.3039 67.0338 78.9448 66.9788 78.7103C66.9469 78.5742 66.9267 78.4352 66.8977 78.2962C66.8775 78.163 66.8833 78.218 66.918 78.4584C66.9093 78.3773 66.9006 78.2962 66.8919 78.2151C66.8659 77.9285 66.8543 77.6447 66.8514 77.358C66.8456 76.7413 66.889 76.1245 66.9325 75.5107C66.9991 74.6015 66.087 73.7328 65.1951 73.7733C64.1991 73.8168 63.5273 74.5378 63.4578 75.5107L63.4636 75.5078Z" fill="#FF4409"/>
<path d="M42.9085 69.1965C40.8555 67.9369 38.1135 66.6947 36.2226 68.1859C34.5027 69.541 34.8733 72.4569 36.4485 73.9742C38.0237 75.4914 40.3401 75.9229 42.5234 76.0763" fill="#FAF1E7"/>
<path d="M43.7862 67.697C42.2573 66.7617 40.6039 65.9828 38.8029 65.7975C37.0018 65.6122 35.1458 66.4143 34.1179 67.9663C33.2376 69.2954 33.1594 71.1369 33.6517 72.6224C34.196 74.2613 35.3224 75.5614 36.831 76.3953C38.5741 77.3595 40.5634 77.6722 42.5237 77.8141C43.4329 77.8807 44.3016 76.9686 44.261 76.0768C44.2176 75.0807 43.4966 74.4089 42.5237 74.3394C42.2023 74.3163 41.878 74.2873 41.5595 74.2526C41.4842 74.2439 41.3452 74.1976 41.2757 74.2178C41.3076 74.2092 41.7072 74.2844 41.3973 74.2323C41.2091 74.2005 41.0209 74.1715 40.8327 74.1339C40.6734 74.102 38.9708 73.6214 38.9795 73.604C38.9969 73.5779 39.327 73.7632 39.0867 73.6474C39.0027 73.6069 38.9187 73.5692 38.8348 73.5258C38.7016 73.4592 38.5712 73.3897 38.4438 73.3144C38.2991 73.2305 38.1601 73.1407 38.0211 73.0451C37.9603 73.0046 37.9024 72.9525 37.8416 72.9148L38.0182 73.048C37.9603 73.0017 37.9024 72.9525 37.8474 72.9033C37.746 72.8135 37.6447 72.7179 37.552 72.6195C37.5086 72.5731 37.4709 72.5268 37.4275 72.4805C37.2422 72.2865 37.5115 72.5905 37.5231 72.6137C37.3899 72.3676 37.2074 72.1504 37.08 71.8956C37.054 71.8464 37.0308 71.774 36.999 71.7248C37.2248 72.0693 37.1032 71.994 37.0511 71.8348C37.0105 71.7161 36.97 71.5974 36.9353 71.4757C36.8976 71.3397 36.8716 71.2035 36.8397 71.0646C36.8079 70.9256 36.8484 70.7895 36.86 71.2499C36.86 71.1572 36.8397 71.0646 36.8339 70.9748C36.8194 70.7287 36.8484 70.4912 36.8542 70.248C36.8368 70.7953 36.8368 70.4131 36.8831 70.2278C36.9179 70.1003 36.9758 69.9787 37.0077 69.8513C36.9034 70.2741 36.8773 70.1293 36.9613 69.9874C36.9903 69.9382 37.0163 69.8832 37.0482 69.8339C37.08 69.7847 37.1148 69.7355 37.1437 69.6863C37.248 69.4952 36.8397 70.0251 37.0598 69.7934C37.1437 69.7065 37.2277 69.6226 37.3117 69.5357C37.4043 69.4402 37.5144 69.4488 37.1872 69.6226C37.2798 69.5733 37.3667 69.4981 37.4565 69.4459C37.5173 69.4112 37.581 69.3793 37.6418 69.3446C37.7808 69.2693 37.8358 69.3388 37.5144 69.3967C37.6447 69.3735 37.7779 69.307 37.9082 69.278C37.9429 69.2693 38.0732 69.2606 38.1109 69.2375C37.8937 69.3707 37.7547 69.2751 38.0095 69.2577C38.1659 69.2461 38.3251 69.2461 38.4815 69.2519C38.5712 69.2548 38.6581 69.2664 38.7479 69.2722C38.9679 69.2867 38.3483 69.1998 38.6639 69.2606C38.8463 69.2954 39.0288 69.333 39.2083 69.3793C39.5789 69.4778 39.9293 69.6428 40.2941 69.75C40.2536 69.7384 39.9264 69.5849 40.2015 69.7152C40.3086 69.7645 40.4157 69.8137 40.52 69.8629C40.6966 69.9469 40.8703 70.0366 41.0412 70.1293C41.3771 70.3088 41.7072 70.4999 42.0315 70.6997C42.8075 71.1746 43.9773 70.8937 44.4087 70.0772C44.8402 69.2606 44.6143 68.2066 43.7862 67.6999V67.697Z" fill="#FF4409"/>
</svg>
