<svg width="176" height="169" viewBox="0 0 176 169" fill="#fff" xmlns="http://www.w3.org/2000/svg">
<path d="M175.809 84.7939C175.809 93.1005 153.458 97.8037 151.033 105.276C148.609 112.748 163.762 129.968 159.065 136.454C154.329 142.978 133.493 133.685 126.978 138.426C120.499 143.129 122.962 165.849 115.196 168.391C107.695 170.818 96.3676 151.095 88.0711 151.095C79.7746 151.095 68.4475 170.856 60.9466 168.391C53.4457 165.925 55.6049 143.129 49.1647 138.426C42.7245 133.723 21.8129 142.978 17.0775 136.454C12.342 129.93 27.609 113.051 25.1087 105.276C22.6084 97.5003 0.333008 93.1005 0.333008 84.7939C0.333008 76.4873 22.6842 71.7841 25.1087 64.312C27.5333 56.8399 12.3799 39.6199 17.0775 33.1339C21.8129 26.6101 42.6487 35.9028 49.1647 31.1617C55.6427 26.4584 53.1805 3.73854 60.9466 1.19727C68.4475 -1.23022 79.7746 18.4932 88.0711 18.4932C96.3676 18.4932 107.695 -1.26815 115.196 1.19727C122.697 3.66268 120.537 26.4584 126.978 31.1617C133.418 35.8649 154.329 26.6101 159.065 33.1339C163.8 39.6578 148.533 56.5365 151.033 64.312C153.534 72.0875 175.809 76.4873 175.809 84.7939Z" fill="#FAF1E7"/>
</svg>
