<svg width="1891" height="84" viewBox="0 0 1891 84" fill="none" xmlns="http://www.w3.org/2000/svg">
<path d="M175.686 41.6819C150.214 50.6347 142.957 57.8915 134.004 83.3638C125.051 57.8915 117.795 50.6347 92.3223 41.6819C117.795 32.7291 125.051 25.4723 134.004 0C142.957 25.4723 150.214 32.7291 175.686 41.6819Z" fill="#FF4409"/>
<path d="M75.5361 41.6821C75.5361 45.2534 65.9147 47.2756 64.871 50.4881C63.8274 53.7007 70.3503 61.1043 68.3282 63.8929C66.2898 66.6978 57.3207 62.7024 54.5158 64.7408C51.7273 66.763 52.7872 76.5312 49.4441 77.6238C46.2153 78.6674 41.3394 70.1876 37.768 70.1876C34.1967 70.1876 29.3208 78.6838 26.0919 77.6238C22.8631 76.5638 23.7925 66.763 21.0202 64.7408C18.248 62.7187 9.2463 66.6978 7.20787 63.8929C5.16944 61.088 11.7413 53.8312 10.665 50.4881C9.58875 47.1451 0 45.2534 0 41.6821C0 38.1108 9.62137 36.0887 10.665 32.8761C11.7087 29.6635 5.18575 22.2599 7.20787 19.4714C9.2463 16.6665 18.2154 20.6618 21.0202 18.6234C23.8088 16.6013 22.7489 6.83306 26.0919 5.74046C29.3208 4.69678 34.1967 13.1767 37.768 13.1767C41.3394 13.1767 46.2153 4.68047 49.4441 5.74046C52.673 6.80044 51.7436 16.6013 54.5158 18.6234C57.2881 20.6455 66.2898 16.6665 68.3282 19.4714C70.3666 22.2762 63.7947 29.5331 64.871 32.8761C65.9473 36.2191 75.5361 38.1108 75.5361 41.6821Z" fill="#FF4409"/>
<path d="M248.501 24.8036C278.197 28.2445 278.197 55.1192 248.501 58.5601C245.06 88.256 218.185 88.256 214.745 58.5601C185.049 55.1192 185.049 28.2445 214.745 24.8036C218.185 -4.89223 245.06 -4.89223 248.501 24.8036Z" fill="#FF4409"/>
<path d="M367.831 41.6819C342.358 50.6347 335.101 57.8915 326.149 83.3638C317.196 57.8915 309.939 50.6347 284.467 41.6819C309.939 32.7291 317.196 25.4723 326.149 0C335.101 25.4723 342.358 32.7291 367.831 41.6819Z" fill="#FF4409"/>
<path d="M460.032 41.6821C460.032 45.2534 450.411 47.2756 449.367 50.4881C448.324 53.7007 454.847 61.1043 452.824 63.8929C450.802 66.6814 441.817 62.7024 439.012 64.7408C436.207 66.7793 437.283 76.5312 433.94 77.6238C430.711 78.6674 425.836 70.1876 422.264 70.1876C418.693 70.1876 413.817 78.6838 410.588 77.6238C407.359 76.5638 408.289 66.763 405.516 64.7408C402.744 62.7187 393.742 66.6978 391.704 63.8929C389.666 61.088 396.238 53.8312 395.161 50.4881C394.085 47.1451 384.496 45.2534 384.496 41.6821C384.496 38.1108 394.118 36.0887 395.161 32.8761C396.205 29.6635 389.682 22.2599 391.704 19.4714C393.742 16.6665 402.712 20.6618 405.516 18.6234C408.305 16.6013 407.245 6.83306 410.588 5.74046C413.817 4.69678 418.693 13.1767 422.264 13.1767C425.836 13.1767 430.711 4.68047 433.94 5.74046C437.169 6.80044 436.24 16.6013 439.012 18.6234C441.784 20.6455 450.786 16.6665 452.824 19.4714C454.863 22.2762 448.291 29.5331 449.367 32.8761C450.444 36.2191 460.032 38.1108 460.032 41.6821Z" fill="#FF4409"/>
<path d="M532.667 24.8036C562.363 28.2445 562.363 55.1192 532.667 58.5601C529.226 88.256 502.351 88.256 498.911 58.5601C469.215 55.1192 469.215 28.2445 498.911 24.8036C502.351 -4.89223 529.226 -4.89223 532.667 24.8036Z" fill="#FF4409"/>
<path d="M654.532 41.6819C629.059 50.6347 621.803 57.8915 612.85 83.3638C603.897 57.8915 596.64 50.6347 571.168 41.6819C596.64 32.7291 603.897 25.4723 612.85 0C621.803 25.4723 629.059 32.7291 654.532 41.6819Z" fill="#FF4409"/>
<path d="M746.718 41.6821C746.718 45.2534 737.096 47.2756 736.053 50.4881C735.009 53.7007 741.532 61.1043 739.51 63.8929C737.488 66.6814 728.502 62.7024 725.698 64.7408C722.893 66.7793 723.969 76.5312 720.626 77.6238C717.397 78.6674 712.521 70.1876 708.95 70.1876C705.378 70.1876 700.502 78.6838 697.274 77.6238C694.045 76.5638 694.974 66.763 692.202 64.7408C689.43 62.7187 680.428 66.6978 678.39 63.8929C676.351 61.088 682.923 53.8312 681.847 50.4881C680.77 47.1451 671.182 45.2534 671.182 41.6821C671.182 38.1108 680.803 36.0887 681.847 32.8761C682.89 29.6635 676.367 22.2599 678.39 19.4714C680.412 16.6828 689.397 20.6618 692.202 18.6234C694.991 16.6013 693.931 6.83306 697.274 5.74046C700.502 4.69678 705.378 13.1767 708.95 13.1767C712.521 13.1767 717.397 4.68047 720.626 5.74046C723.855 6.80044 722.925 16.6013 725.698 18.6234C728.47 20.6455 737.472 16.6665 739.51 19.4714C741.548 22.2762 734.976 29.5331 736.053 32.8761C737.129 36.2191 746.718 38.1108 746.718 41.6821Z" fill="#FF4409"/>
<path d="M819.368 24.8036C849.064 28.2445 849.064 55.1192 819.368 58.5601C815.927 88.256 789.053 88.256 785.612 58.5601C755.916 55.1192 755.916 28.2445 785.612 24.8036C789.053 -4.89223 815.927 -4.89223 819.368 24.8036Z" fill="#FF4409"/>
<path d="M939 41.6819C913.528 50.6347 906.271 57.8915 897.319 83.3638C888.366 57.8915 881.109 50.6347 855.637 41.6819C881.109 32.7291 888.366 25.4723 897.319 0C906.271 25.4723 913.528 32.7291 939 41.6819Z" fill="#FF4409"/>
<path d="M1127.69 41.6819C1102.21 50.6347 1094.96 57.8915 1086 83.3638C1077.05 57.8915 1069.79 50.6347 1044.32 41.6819C1069.79 32.7291 1077.05 25.4723 1086 0C1094.96 25.4723 1102.21 32.7291 1127.69 41.6819Z" fill="#FF4409"/>
<path d="M1027.54 41.6821C1027.54 45.2534 1017.91 47.2756 1016.87 50.4881C1015.83 53.7007 1022.35 61.1043 1020.33 63.8929C1018.29 66.6978 1009.32 62.7024 1006.52 64.7408C1003.73 66.763 1004.79 76.5312 1001.44 77.6238C998.215 78.6674 993.339 70.1876 989.768 70.1876C986.197 70.1876 981.321 78.6838 978.092 77.6238C974.863 76.5638 975.793 66.763 973.02 64.7408C970.248 62.7187 961.246 66.6978 959.208 63.8929C957.169 61.088 963.741 53.8312 962.665 50.4881C961.589 47.1451 952 45.2534 952 41.6821C952 38.1108 961.621 36.0887 962.665 32.8761C963.709 29.6635 957.186 22.2599 959.208 19.4714C961.246 16.6665 970.215 20.6618 973.02 18.6234C975.809 16.6013 974.749 6.83306 978.092 5.74046C981.321 4.69678 986.197 13.1767 989.768 13.1767C993.339 13.1767 998.215 4.68047 1001.44 5.74046C1004.67 6.80044 1003.74 16.6013 1006.52 18.6234C1009.29 20.6455 1018.29 16.6665 1020.33 19.4714C1022.37 22.2762 1015.79 29.5331 1016.87 32.8761C1017.95 36.2191 1027.54 38.1108 1027.54 41.6821Z" fill="#FF4409"/>
<path d="M1200.5 24.8036C1230.2 28.2445 1230.2 55.1192 1200.5 58.5601C1197.06 88.256 1170.18 88.256 1166.74 58.5601C1137.05 55.1192 1137.05 28.2445 1166.74 24.8036C1170.18 -4.89223 1197.06 -4.89223 1200.5 24.8036Z" fill="#FF4409"/>
<path d="M1319.83 41.6819C1294.36 50.6347 1287.1 57.8915 1278.15 83.3638C1269.2 57.8915 1261.94 50.6347 1236.47 41.6819C1261.94 32.7291 1269.2 25.4723 1278.15 0C1287.1 25.4723 1294.36 32.7291 1319.83 41.6819Z" fill="#FF4409"/>
<path d="M1412.03 41.6821C1412.03 45.2534 1402.41 47.2756 1401.37 50.4881C1400.32 53.7007 1406.85 61.1043 1404.83 63.8929C1402.8 66.6814 1393.82 62.7024 1391.01 64.7408C1388.21 66.7793 1389.28 76.5312 1385.94 77.6238C1382.71 78.6674 1377.84 70.1876 1374.27 70.1876C1370.69 70.1876 1365.82 78.6838 1362.59 77.6238C1359.36 76.5638 1360.29 66.763 1357.52 64.7408C1354.75 62.7187 1345.74 66.6978 1343.71 63.8929C1341.67 61.088 1348.24 53.8312 1347.16 50.4881C1346.09 47.1451 1336.5 45.2534 1336.5 41.6821C1336.5 38.1108 1346.12 36.0887 1347.16 32.8761C1348.21 29.6635 1341.68 22.2599 1343.71 19.4714C1345.74 16.6665 1354.71 20.6618 1357.52 18.6234C1360.31 16.6013 1359.25 6.83306 1362.59 5.74046C1365.82 4.69678 1370.69 13.1767 1374.27 13.1767C1377.84 13.1767 1382.71 4.68047 1385.94 5.74046C1389.17 6.80044 1388.24 16.6013 1391.01 18.6234C1393.79 20.6455 1402.79 16.6665 1404.83 19.4714C1406.86 22.2762 1400.29 29.5331 1401.37 32.8761C1402.44 36.2191 1412.03 38.1108 1412.03 41.6821Z" fill="#FF4409"/>
<path d="M1484.67 24.8036C1514.36 28.2445 1514.36 55.1192 1484.67 58.5601C1481.23 88.256 1454.35 88.256 1450.91 58.5601C1421.21 55.1192 1421.21 28.2445 1450.91 24.8036C1454.35 -4.89223 1481.23 -4.89223 1484.67 24.8036Z" fill="#FF4409"/>
<path d="M1606.53 41.6819C1581.06 50.6347 1573.8 57.8915 1564.85 83.3638C1555.9 57.8915 1548.64 50.6347 1523.17 41.6819C1548.64 32.7291 1555.9 25.4723 1564.85 0C1573.8 25.4723 1581.06 32.7291 1606.53 41.6819Z" fill="#FF4409"/>
<path d="M1698.72 41.6821C1698.72 45.2534 1689.1 47.2756 1688.05 50.4881C1687.01 53.7007 1693.53 61.1043 1691.51 63.8929C1689.49 66.6814 1680.5 62.7024 1677.7 64.7408C1674.89 66.7793 1675.97 76.5312 1672.63 77.6238C1669.4 78.6674 1664.52 70.1876 1660.95 70.1876C1657.38 70.1876 1652.5 78.6838 1649.27 77.6238C1646.05 76.5638 1646.98 66.763 1644.2 64.7408C1641.43 62.7187 1632.43 66.6978 1630.39 63.8929C1628.35 61.088 1634.92 53.8312 1633.85 50.4881C1632.77 47.1451 1623.18 45.2534 1623.18 41.6821C1623.18 38.1108 1632.8 36.0887 1633.85 32.8761C1634.89 29.6635 1628.37 22.2599 1630.39 19.4714C1632.41 16.6828 1641.4 20.6618 1644.2 18.6234C1646.99 16.6013 1645.93 6.83306 1649.27 5.74046C1652.5 4.69678 1657.38 13.1767 1660.95 13.1767C1664.52 13.1767 1669.4 4.68047 1672.63 5.74046C1675.86 6.80044 1674.93 16.6013 1677.7 18.6234C1680.47 20.6455 1689.47 16.6665 1691.51 19.4714C1693.55 22.2762 1686.98 29.5331 1688.05 32.8761C1689.13 36.2191 1698.72 38.1108 1698.72 41.6821Z" fill="#FF4409"/>
<path d="M1771.37 24.8036C1801.06 28.2445 1801.06 55.1192 1771.37 58.5601C1767.93 88.256 1741.05 88.256 1737.61 58.5601C1707.92 55.1192 1707.92 28.2445 1737.61 24.8036C1741.05 -4.89223 1767.93 -4.89223 1771.37 24.8036Z" fill="#FF4409"/>
<path d="M1891 41.6819C1865.53 50.6347 1858.27 57.8915 1849.32 83.3638C1840.37 57.8915 1833.11 50.6347 1807.64 41.6819C1833.11 32.7291 1840.37 25.4723 1849.32 0C1858.27 25.4723 1865.53 32.7291 1891 41.6819Z" fill="#FF4409"/>
</svg>
