<svg width="735" height="897" viewBox="0 0 735 897" fill="none" xmlns="http://www.w3.org/2000/svg">
<path d="M124.112 252.201C99.9539 206.471 90.9355 154.153 88.4696 102.508C70.1395 102.525 51.8092 102.56 33.4101 102.594C14.9765 105.008 39.3593 211.868 42.6529 224.663C59.3966 289.379 103.023 351.612 162.445 383.875C175.499 390.962 284.221 427.105 289.929 404.964C299.016 369.787 292.722 366.821 258.717 355.13C244.716 350.318 229.834 347.887 216.229 341.973C176.413 324.711 144.115 290.12 124.078 252.219L124.112 252.201Z" fill="#FAF1E7"/>
<path d="M133.046 246.994C130.649 242.442 128.39 237.838 126.27 233.164C125.856 232.233 125.425 231.285 125.011 230.354C124.752 229.768 124.493 229.181 124.252 228.595L124.097 228.25C123.648 227.198 123.7 227.302 124.235 228.595C123.907 228.526 123.028 225.663 122.924 225.388C122.407 224.077 121.89 222.767 121.372 221.456C117.786 212.127 114.699 202.591 112.078 192.952C109.457 183.313 107.301 173.725 105.508 163.982C104.594 159.033 103.784 154.067 103.059 149.084C102.887 147.928 102.732 146.79 102.577 145.635C102.49 144.997 102.145 143.152 102.577 145.704C102.49 145.204 102.439 144.669 102.37 144.169C102.042 141.6 101.732 139.048 101.456 136.479C100.197 125.201 99.352 113.872 98.8002 102.543C98.5243 96.9558 94.2823 92.1965 88.4539 92.1965C77.2799 92.1965 66.1059 92.231 54.932 92.2483C49.345 92.2483 43.7407 92.2483 38.1537 92.2655C34.0497 92.2655 30.2216 92.1276 26.5832 94.2141C18.4786 98.8527 16.9439 109.285 16.4093 117.7C15.7885 127.564 16.7542 137.548 17.8923 147.325C19.3407 159.723 21.2893 172.07 23.5483 184.365C26.7039 201.539 30.0147 218.887 34.9636 235.665C45.172 270.256 62.2261 302.485 84.5568 330.747C95.3859 344.439 107.577 357.044 121.062 368.149C128.166 373.995 135.564 379.513 143.272 384.53C148.307 387.807 153.497 391.152 158.947 393.687C166.154 397.032 173.69 399.671 181.208 402.223C191.52 405.74 201.952 408.93 212.471 411.827C223.662 414.897 234.957 417.656 246.39 419.656C256.305 421.398 266.737 423.088 276.842 422.26C286.275 421.484 296.466 418.397 299.725 408.396C301.897 401.74 303.087 394.446 303.794 387.514C304.329 382.375 304.174 376.754 302.294 371.891C299.966 365.821 296.138 361.389 290.861 357.647C286.05 354.233 280.325 352.078 274.876 349.974C267.237 347.042 259.478 344.37 251.615 342.145C241.665 339.352 231.56 337.058 221.921 333.247C221.438 333.058 220.921 332.885 220.455 332.661C222.731 333.765 220.662 332.73 220.214 332.54C219.386 332.178 218.558 331.799 217.748 331.42C215.592 330.419 213.471 329.368 211.368 328.264C207.453 326.212 203.625 324.005 199.883 321.642C196.141 319.28 192.675 316.883 189.192 314.314C188.692 313.952 185.64 311.503 188.02 313.452C187.226 312.796 186.399 312.193 185.605 311.538C183.743 310.037 181.898 308.503 180.087 306.916C173.431 301.14 167.172 294.897 161.343 288.293C159.895 286.655 158.481 285.017 157.084 283.344C155.687 281.671 153.808 279.895 152.773 277.998C153.791 279.878 153.566 279.05 153.135 278.464C152.79 278.016 152.446 277.55 152.101 277.102C151.48 276.274 150.876 275.464 150.256 274.619C148.911 272.773 147.6 270.911 146.307 269.032C141.461 261.962 137.03 254.599 133.012 247.029C130.477 242.235 123.424 240.372 118.855 243.321C113.992 246.459 112.423 252.357 115.147 257.478C131.891 289.034 155.946 317.176 185.709 337.093C192.761 341.818 200.176 346.008 207.902 349.56C217.506 353.992 227.456 357.061 237.647 359.803C246.476 362.165 255.15 364.786 263.771 367.856C266.755 368.925 269.721 370.028 272.652 371.218C274.066 371.787 271.393 370.666 271.41 370.701C271.617 370.908 272.135 371.011 272.393 371.132C272.962 371.391 273.531 371.649 274.083 371.908C275.239 372.46 276.377 373.029 277.498 373.667C278.394 374.184 279.291 374.719 280.153 375.322C280.325 375.443 280.515 375.581 280.688 375.702C281.946 376.529 278.618 374.012 279.48 374.753C279.912 375.115 280.36 375.477 280.774 375.857C281.343 376.374 281.929 377.409 282.584 377.788C282.033 377.461 280.826 375.253 281.808 376.84C282.102 377.323 282.412 377.788 282.671 378.305C282.843 378.633 282.981 378.995 283.171 379.34C281.412 376.116 282.395 377.426 282.74 378.495C283.033 379.426 283.205 380.375 283.395 381.323C283.654 382.478 283.067 378.15 283.171 379.702C283.171 379.926 283.222 380.151 283.24 380.357C283.291 380.927 283.326 381.513 283.326 382.082C283.36 383.272 283.326 384.479 283.24 385.669C283.205 386.289 283.136 386.893 283.084 387.514C283.05 387.79 283.016 388.083 282.998 388.359C282.843 390.135 283.378 385.841 283.171 387.152C282.912 388.738 282.671 390.324 282.36 391.911C281.688 395.394 280.757 398.808 279.963 402.257C279.963 402.309 279.722 403.068 279.705 403.068C279.653 403.05 281.17 399.826 280.343 401.412C280.222 401.636 280.032 401.826 279.929 402.033C281.239 399.188 281.808 399.877 280.895 400.705C280.757 400.826 280.325 401.119 280.256 401.291C280.36 401.067 283.015 399.429 281.619 400.205C281.05 400.516 280.481 400.826 279.912 401.136C283.412 399.17 281.67 400.447 280.36 400.843C279.601 401.067 278.825 401.257 278.049 401.412C277.67 401.481 277.291 401.55 276.911 401.602C275.204 401.912 280.153 401.24 278.204 401.429C277.256 401.516 276.308 401.619 275.359 401.671C271.1 401.895 266.824 401.654 262.582 401.24C261.444 401.136 260.305 400.998 259.167 400.86C258.633 400.791 256.374 400.498 258.598 400.791C260.823 401.085 258.098 400.722 257.598 400.636C255.046 400.257 252.511 399.843 249.976 399.377C244.441 398.36 238.94 397.17 233.457 395.877C213.575 391.152 193.831 385.272 174.725 378.012C173.242 377.443 171.759 376.857 170.276 376.253C167.879 375.271 173.017 377.443 170.827 376.495C170.31 376.271 169.81 376.047 169.293 375.805C163.964 373.322 158.895 370.046 153.963 366.856C150.428 364.562 146.962 362.183 143.565 359.682C142.668 359.027 141.772 358.372 140.892 357.699C140.547 357.44 140.185 357.147 139.84 356.889C141.927 358.372 140.806 357.647 140.358 357.285C138.616 355.906 136.874 354.526 135.15 353.112C128.615 347.698 122.39 341.938 116.475 335.851C110.56 329.764 104.904 323.332 99.5933 316.659C99.3174 316.314 99.0415 315.952 98.7656 315.607C98.6277 315.435 97.1965 313.745 98.3345 315.055C99.4726 316.366 98.0414 314.676 97.9035 314.503C97.6275 314.141 97.3517 313.779 97.093 313.434C95.7308 311.641 94.403 309.83 93.1097 308.003C90.6266 304.519 88.2297 300.984 85.9017 297.398C81.3321 290.328 77.1074 283.034 73.2103 275.55C71.2445 271.773 69.365 267.962 67.5889 264.1C66.7439 262.272 65.9162 260.444 65.123 258.599C64.8471 257.944 63.5711 254.823 64.7264 257.685C64.3126 256.651 63.8643 255.633 63.4504 254.599C55.7942 235.717 51.0003 216.214 46.8963 196.315C44.7064 185.658 42.6888 174.967 40.9644 164.224C40.4989 161.379 40.0679 158.533 39.654 155.671C39.4643 154.326 39.2746 152.981 39.0849 151.653C39.6367 155.619 39.2229 152.602 39.1022 151.739C39.016 150.998 38.9125 150.274 38.8262 149.532C38.171 144.221 37.6192 138.893 37.2744 133.564C36.9812 128.978 36.8087 124.373 36.9811 119.787C37.0501 117.993 37.6019 115.855 37.4122 114.079C37.464 114.596 36.9122 117.355 37.2398 115.493C37.3088 115.062 37.3778 114.648 37.464 114.217C37.602 113.475 37.7744 112.734 37.9813 112.01C38.1537 111.389 38.3779 110.785 38.5848 110.182C39.0676 108.751 37.1708 113.079 37.964 111.665C38.1192 111.372 38.2572 111.061 38.4297 110.785C38.5504 110.578 38.7573 110.354 38.8435 110.147C39.1539 109.423 36.757 112.717 37.7744 111.561C37.9123 111.406 38.1537 111.268 38.2572 111.079C38.5675 110.63 35.5671 112.941 36.8604 112.182C38.2916 111.354 34.4808 113.131 35.1533 112.855C35.3602 112.768 35.5672 112.734 35.7742 112.682C36.7398 112.406 34.4119 113.769 34.2394 112.993C34.2394 113.027 36.1018 112.993 35.9638 112.993C37.395 112.993 38.8435 112.993 40.2748 112.993C45.7238 112.993 51.1728 112.993 56.6218 112.975C67.2268 112.975 77.8317 112.941 88.4366 112.924L78.0904 102.577C80.0734 143.738 85.9018 185.347 100.318 224.129C104.56 235.544 109.474 246.718 115.147 257.495C117.665 262.289 124.752 264.134 129.304 261.203C134.184 258.065 135.719 252.184 133.012 247.046L133.046 246.994Z" fill="#FA4008"/>
<path d="M605.181 562.383C628.874 607.234 634.306 654.413 641.204 703.833C641.583 706.609 642.169 709.713 644.48 711.3C646.187 712.472 648.429 712.49 650.498 712.455C665.845 712.214 681.192 711.972 696.539 711.731C700.557 602.854 670.346 486.993 566.814 430.743C553.778 423.656 445.038 387.513 439.313 409.654C430.226 444.832 436.52 447.798 470.525 459.489C484.527 464.3 499.408 466.731 513.013 472.646C552.829 489.907 585.127 524.498 605.164 562.4L605.181 562.383Z" fill="#FAF1E7"/>
<path d="M596.248 567.608C597.904 570.746 599.49 573.936 601.007 577.161C601.68 578.575 602.318 579.989 602.956 581.42C603.318 582.248 603.68 583.076 604.042 583.921C604.146 584.145 604.646 585.369 604.128 584.11C603.611 582.851 604.249 584.421 604.353 584.662C606.939 590.922 609.267 597.302 611.354 603.734C615.492 616.494 618.665 629.548 621.286 642.687C623.924 655.948 625.976 669.312 627.89 682.693C628.856 689.487 629.787 696.298 630.736 703.092C631.27 706.886 631.736 710.283 633.408 713.784C635.426 718.025 639.685 721.302 644.255 722.233C648.79 723.164 653.566 722.733 658.17 722.664C662.43 722.595 666.706 722.526 670.965 722.457C679.501 722.319 688.019 722.181 696.555 722.06C702.297 721.974 706.694 717.387 706.901 711.714C707.919 683.848 706.574 656 702.711 628.392C698.987 601.854 692.624 575.609 682.777 550.675C672.931 525.74 658.912 500.478 641.237 478.837C623.459 457.075 601.507 438.676 577.176 424.657C564.295 417.242 549.793 412.776 535.688 408.362C516.823 402.447 497.562 397.153 478.007 394.187C469.541 392.911 460.764 391.652 452.194 392.428C444.261 393.135 435.639 395.256 431.225 402.602C429.966 404.706 429.363 406.999 428.776 409.327C428.018 412.362 427.328 415.414 426.759 418.484C425.811 423.64 424.914 429.037 425.362 434.296C425.793 439.297 426.914 444.263 429.794 448.488C432.674 452.713 436.381 455.92 440.726 458.489C445.52 461.335 450.831 463.352 456.039 465.301C462.66 467.784 469.351 470.112 476.145 472.077C484.802 474.578 493.613 476.595 502.149 479.492C504.149 480.165 506.132 480.923 508.098 481.699C508.598 481.906 509.908 482.2 507.822 481.579C508.236 481.699 508.684 481.958 509.063 482.131C509.995 482.544 510.926 482.958 511.84 483.407C515.219 484.993 518.548 486.7 521.807 488.528C528.549 492.304 535.015 496.546 541.171 501.185C541.534 501.461 541.896 501.754 542.258 502.013C542.051 501.875 540.378 500.547 541.792 501.65C542.499 502.219 543.223 502.789 543.93 503.358C545.448 504.582 546.931 505.823 548.397 507.082C551.259 509.548 554.053 512.083 556.76 514.704C562.364 520.119 567.658 525.861 572.607 531.862C573.779 533.276 574.917 534.707 576.056 536.138C576.418 536.586 577.332 537.535 575.693 535.672C575.987 536.017 576.263 536.414 576.521 536.759C577.142 537.569 577.763 538.397 578.366 539.225C580.66 542.346 582.884 545.519 585.022 548.743C589.057 554.848 592.799 561.159 596.231 567.642C598.766 572.436 605.818 574.299 610.388 571.35C615.251 568.212 616.82 562.314 614.095 557.193C599.835 530.292 580.194 505.582 556.122 486.804C543.223 476.733 529.463 468.284 514.306 462.059C506.201 458.731 497.734 456.523 489.285 454.247C481.594 452.178 474.024 449.833 466.523 447.177C463.919 446.263 461.315 445.315 458.746 444.298C458.16 444.074 457.591 443.832 457.022 443.608C454.763 442.677 458.901 444.453 457.453 443.78C456.384 443.297 455.315 442.832 454.263 442.315C452.487 441.435 450.745 440.47 449.107 439.331C448.314 438.78 447.175 437.607 449.9 439.987C449.59 439.711 449.262 439.469 448.934 439.193C448.296 438.642 447.727 438.021 447.141 437.417C445.83 436.038 448.055 438.262 447.934 438.504C447.969 438.417 447.348 437.676 447.279 437.573C447.089 437.262 446.313 435.383 446.072 435.331C446.434 435.417 447.245 438.366 446.589 436.452C446.486 436.124 446.382 435.796 446.296 435.452C446.193 435.055 446.089 434.658 446.02 434.262C445.986 434.055 445.951 433.848 445.899 433.641C445.555 432.158 446.141 435.193 446.106 435.279C446.348 434.779 445.917 433.141 445.917 432.555C445.882 431.486 445.917 430.434 445.986 429.365C446.055 428.295 446.175 427.157 446.296 426.054C446.417 424.829 445.917 428.709 446.106 427.485C446.158 427.175 446.193 426.881 446.244 426.571C446.348 425.864 446.469 425.157 446.589 424.45C447.107 421.501 447.762 418.587 448.486 415.673C448.779 414.466 449.141 413.259 449.417 412.052C449.745 410.569 448.883 413.621 448.676 413.742C448.814 413.655 448.986 413.155 449.072 413.017C450.003 411.414 446.796 415.363 448.4 413.931C448.538 413.793 448.71 413.655 448.848 413.517C449.607 412.655 446.262 415.242 447.538 414.535C447.986 414.293 448.417 414.018 448.848 413.759C450.262 412.948 447.624 414.362 447.296 414.38C447.572 414.38 447.934 414.138 448.193 414.035C449.434 413.604 450.711 413.345 451.987 413.104C453.883 412.742 450.797 413.5 450.538 413.276C450.642 413.362 451.452 413.173 451.624 413.155C452.435 413.069 453.245 413.017 454.056 412.966C457.66 412.793 461.264 412.948 464.85 413.242C466.989 413.414 469.127 413.673 471.265 413.931C472.8 414.121 468.196 413.5 470.282 413.793C470.817 413.862 471.351 413.949 471.886 414.018C473.041 414.19 474.196 414.362 475.352 414.569C480.077 415.345 484.767 416.276 489.44 417.311C499.148 419.432 508.77 421.967 518.306 424.726C526.928 427.226 535.498 429.916 543.982 432.831C547.345 433.986 550.707 435.193 554.035 436.452C555.38 436.952 556.708 437.469 558.053 438.021C558.57 438.228 559.105 438.452 559.622 438.659C560.622 439.073 556.57 437.348 558.105 438.021C558.398 438.142 558.691 438.28 558.984 438.4C562.45 439.935 565.709 441.901 568.968 443.832C574.883 447.333 580.642 451.074 586.212 455.092C587.557 456.058 588.902 457.041 590.23 458.041C590.799 458.472 591.385 458.92 591.954 459.351C589.385 457.437 592.161 459.524 592.782 460.024C595.334 462.059 597.852 464.145 600.318 466.301C605.336 470.663 610.147 475.268 614.751 480.061C619.286 484.803 623.614 489.735 627.735 494.839C628.235 495.46 628.718 496.081 629.218 496.701C629.46 497.012 629.701 497.322 629.942 497.633C629.856 497.512 628.391 495.598 629.408 496.943C630.425 498.288 631.425 499.616 632.426 500.978C634.34 503.599 636.202 506.255 638.013 508.962C645.186 519.67 651.497 530.948 656.963 542.604C658.343 545.553 659.671 548.519 660.947 551.52C661.205 552.106 661.602 553.33 660.602 550.692C660.74 551.054 660.912 551.416 661.05 551.778C661.361 552.502 661.654 553.244 661.947 553.968C662.533 555.434 663.12 556.9 663.689 558.383C666.051 564.487 668.189 570.677 670.155 576.937C674.104 589.542 677.259 602.406 679.725 615.39C680.949 621.84 682.001 628.306 682.898 634.807C683.243 637.359 682.605 632.514 682.932 635.066C683.036 635.876 683.14 636.669 683.243 637.48C683.45 639.187 683.657 640.894 683.846 642.601C684.226 645.929 684.553 649.257 684.847 652.585C686.002 665.811 686.571 679.089 686.588 692.367C686.588 698.833 686.485 705.282 686.243 711.749L696.59 701.402C681.95 701.627 667.31 701.868 652.67 702.092C651.842 702.092 651.014 702.127 650.187 702.127C649.721 702.127 647.531 701.903 649.117 702.213C650.704 702.523 649.359 702.282 649.117 702.178C649.1 702.178 651.049 703.11 650.031 702.575C648.911 701.989 651.17 703.592 651.394 703.834C652.566 705.041 651.239 703.041 651.842 704.61C652.446 706.179 651.79 704.248 651.687 703.834C651.549 703.23 651.428 702.627 651.342 702.023C651.083 700.437 650.894 698.833 650.669 697.247C649.738 690.573 648.824 683.9 647.876 677.244C644.186 651.361 639.909 625.444 632.046 600.457C627.356 585.576 621.407 571.022 614.147 557.21C611.629 552.416 604.542 550.571 599.99 553.503C595.11 556.658 593.575 562.521 596.282 567.66L596.248 567.608Z" fill="#FA4008"/>
<path d="M711.943 719.494C724.514 697.72 711.985 666.953 683.96 650.772C655.935 634.592 623.025 639.126 610.454 660.9C597.883 682.673 610.411 713.441 638.437 729.621C666.462 745.802 699.372 741.268 711.943 719.494Z" fill="#FA4008"/>
<path d="M703.004 714.265C702.4 715.282 701.762 716.248 701.09 717.231C700.935 717.455 700.745 717.645 700.607 717.886C700.555 717.989 702.125 716.075 701.4 716.851C700.969 717.3 700.607 717.817 700.193 718.265C699.417 719.128 698.607 719.938 697.762 720.731C697.296 721.145 696.831 721.542 696.365 721.955C695.175 723.025 698.331 720.559 696.555 721.818C694.641 723.163 692.658 724.404 690.554 725.439C690.002 725.715 689.347 725.922 688.812 726.249C688.709 726.318 691.054 725.387 690.019 725.732C689.761 725.818 689.502 725.939 689.243 726.042C688.019 726.508 686.778 726.922 685.536 727.284C684.45 727.594 683.346 727.87 682.225 728.112C681.57 728.249 680.915 728.387 680.242 728.491C679.949 728.543 679.673 728.577 679.38 728.629C677.949 728.887 680.087 728.525 680.397 728.508C677.707 728.732 675.069 728.991 672.362 728.956C671.137 728.956 669.913 728.888 668.689 728.801C667.965 728.75 667.24 728.681 666.533 728.612C666.223 728.577 665.913 728.543 665.602 728.508C664.24 728.37 667.844 728.87 666.482 728.629C663.619 728.129 660.808 727.577 657.998 726.801C656.722 726.439 655.463 726.042 654.221 725.611C653.48 725.353 652.756 725.094 652.031 724.818C651.721 724.697 651.411 724.577 651.083 724.456C649.807 723.973 651.204 724.49 651.686 724.732C649.014 723.37 646.272 722.214 643.651 720.714C641.03 719.214 638.667 717.541 636.236 715.834C635.305 715.179 637.081 716.506 637.047 716.472C636.805 716.265 636.547 716.075 636.288 715.868C635.702 715.403 635.133 714.937 634.564 714.454C633.529 713.575 632.511 712.661 631.529 711.713C629.528 709.799 627.649 707.781 625.89 705.643C625.7 705.419 625.511 705.177 625.321 704.936C624.597 704.074 626.062 705.919 626.01 705.85C625.683 705.367 625.303 704.901 624.941 704.419C624.148 703.298 623.372 702.16 622.648 701.004C621.286 698.814 620.096 696.538 618.992 694.21C618.872 693.969 618.785 693.676 618.648 693.434C618.579 693.314 619.527 695.659 619.147 694.624C618.958 694.107 618.734 693.589 618.544 693.072C618.096 691.882 617.699 690.658 617.337 689.434C617.009 688.313 616.733 687.192 616.492 686.054C616.389 685.537 616.285 685.019 616.182 684.485C616.009 683.536 616.009 681.243 616.164 684.623C616.061 682.364 615.802 680.174 615.888 677.898C615.906 677.38 615.94 676.88 615.975 676.363C616.009 675.846 616.268 673.742 616.009 675.708C615.751 677.673 616.009 675.777 616.095 675.328C616.199 674.742 616.32 674.173 616.458 673.587C616.699 672.518 616.992 671.449 617.337 670.414C617.492 669.931 617.682 669.448 617.837 668.983C618.578 666.862 616.82 671.086 617.768 669.103C618.716 667.12 619.906 665.068 621.217 663.154C622.441 661.361 619.941 664.637 621.061 663.327C621.406 662.93 621.751 662.516 622.114 662.12C622.941 661.188 623.821 660.309 624.752 659.481C625.148 659.119 625.562 658.792 625.959 658.429C627.269 657.257 624.114 659.74 625.545 658.723C626.562 657.998 627.597 657.274 628.666 656.636C629.666 656.032 630.701 655.463 631.77 654.946C632.253 654.705 632.77 654.498 633.253 654.256C634.219 653.756 631.925 654.791 632.046 654.757C632.477 654.619 632.908 654.412 633.339 654.256C635.632 653.394 637.978 652.722 640.375 652.222C640.944 652.101 641.495 651.997 642.065 651.894C642.444 651.825 642.823 651.773 643.203 651.704C644.341 651.497 641.754 651.877 641.892 651.877C643.272 651.756 644.634 651.584 646.013 651.515C648.634 651.377 651.273 651.411 653.911 651.618C654.532 651.67 655.152 651.722 655.773 651.791C656.084 651.825 656.394 651.859 656.704 651.894C658.067 652.032 654.463 651.549 655.825 651.773C657.187 651.998 658.55 652.222 659.895 652.515C662.774 653.136 665.62 653.929 668.396 654.912C669.034 655.136 669.655 655.36 670.275 655.601C670.948 655.86 673.189 656.964 670.62 655.705C671.948 656.36 673.328 656.912 674.655 657.585C677.397 658.947 680.035 660.481 682.587 662.171C683.674 662.896 684.743 663.654 685.795 664.413C687.278 665.482 684.191 663.12 686.002 664.568C686.588 665.034 687.157 665.499 687.726 665.982C689.864 667.81 691.899 669.759 693.796 671.811C694.624 672.707 695.417 673.621 696.193 674.552C696.676 675.121 698.003 677.053 696.262 674.57C696.658 675.139 697.089 675.673 697.486 676.242C698.952 678.294 700.297 680.432 701.487 682.657C702.073 683.743 702.625 684.83 703.142 685.95C703.263 686.209 703.366 686.468 703.487 686.709C703.987 687.692 702.952 685.399 702.987 685.519C703.211 686.209 703.539 686.899 703.797 687.589C704.608 689.796 705.263 692.055 705.746 694.348C705.867 694.952 705.987 695.555 706.091 696.176C706.16 696.624 706.436 698.556 706.177 696.624C705.918 694.693 706.16 696.624 706.194 697.073C706.263 697.762 706.298 698.452 706.332 699.142C706.367 700.177 706.384 701.194 706.332 702.229C706.315 702.832 706.28 703.418 706.229 704.022C706.194 704.505 705.935 706.66 706.194 704.677C706.453 702.694 706.142 704.901 706.056 705.315C705.97 705.815 705.867 706.315 705.746 706.798C705.487 707.954 705.16 709.092 704.78 710.212C704.625 710.695 704.435 711.161 704.263 711.644C703.694 713.282 705.28 709.488 704.521 711.057C704.004 712.144 703.47 713.213 702.883 714.265C700.211 718.972 701.607 725.784 706.591 728.422C711.574 731.06 717.885 729.732 720.748 724.715C733.491 702.263 725.059 675.397 708.608 657.395C690.347 637.426 661.015 626.442 634.288 632.409C621.838 635.185 610.974 642.22 603.473 652.515C596.834 661.637 594.109 673.776 595.437 684.899C598.662 711.73 618.665 733.112 642.978 743.372C666.016 753.098 697.124 752.701 714.885 732.698C717.075 730.233 719.075 727.56 720.748 724.715C723.49 720.041 721.972 713.161 717.04 710.557C712.109 707.954 705.815 709.281 702.883 714.265H703.004Z" fill="#FA4008"/>
<path d="M217.509 23.8696L37.1996 70.4675C31.2062 72.0164 27.6033 78.1305 29.1522 84.1239L33.5488 101.136C35.0976 107.13 41.2118 110.733 47.2052 109.184L227.514 62.586C233.507 61.0371 237.11 54.9229 235.562 48.9295L231.165 31.917C229.616 25.9237 223.502 22.3207 217.509 23.8696Z" fill="#FA4008"/>
<path d="M128.219 18.6335C120.925 15.2192 112.079 17.7886 105.578 24.3757C101.767 20.3234 97.2491 16.9609 92.0415 14.5295C65.7275 2.23468 32.3091 18.1507 17.3932 50.0862C2.47732 82.0217 11.72 117.854 38.0512 130.149C64.3652 142.444 97.7838 126.528 112.7 94.5924C117.338 84.66 119.632 74.3482 119.821 64.4675C126.167 62.3982 132.133 57.1388 135.617 49.6723C141.462 37.1533 138.151 23.2548 128.236 18.6335H128.219Z" fill="#FA4008"/>
<path d="M133.426 9.70155C127.166 6.9253 120.855 6.04586 114.13 7.70126C108.112 9.18423 102.611 12.7365 98.2486 17.0474H112.889C103.404 7.115 90.851 1.42457 77.2801 0.200258C66.0544 -0.817126 54.7425 2.13153 44.7238 7.01152C22.7035 17.7544 6.70135 40.4645 1.78687 64.2092C-3.1276 87.9539 1.78682 114.44 20.3756 130.684C29.5838 138.737 40.6543 143.341 52.8112 144.445C64.1231 145.462 75.5385 142.479 85.6262 137.512C108.612 126.166 125.201 101.697 128.994 76.573C129.598 72.5552 130.063 68.5374 130.15 64.4678L122.562 74.452C135.719 69.9859 145.859 57.9842 148.118 44.2236C150.377 30.4631 146.273 15.9783 133.443 9.71881C128.58 7.35641 122.028 8.23583 119.286 13.4262C116.837 18.082 117.803 25.0485 122.993 27.5833C123.89 28.0317 124.701 28.5663 125.546 29.0836C126.563 29.7044 123.735 27.4282 124.907 28.6352C125.287 29.0146 125.683 29.3767 126.028 29.7733C126.304 30.0837 127.425 31.3253 126.235 29.963C125.045 28.6007 126.115 29.8768 126.339 30.2562C126.632 30.7217 126.891 31.2045 127.149 31.6874C127.339 32.0495 128.115 33.6014 127.304 31.9633C126.494 30.3251 127.235 31.8943 127.373 32.3082C127.546 32.86 127.701 33.4118 127.839 33.9636C127.96 34.4291 128.029 34.912 128.132 35.3948C128.408 36.6536 127.908 32.86 128.029 34.705C128.098 35.8259 128.149 36.9295 128.115 38.0503C128.098 38.5676 128.046 39.085 128.011 39.6023C127.891 41.8267 128.529 37.1709 128.046 39.3609C127.804 40.43 127.597 41.4819 127.287 42.5337C127.097 43.1718 126.873 43.7925 126.666 44.4306C126.063 46.2239 127.373 43.0166 126.804 44.1719C126.235 45.3272 125.683 46.4481 125.028 47.5517C124.735 48.0345 124.425 48.5001 124.097 48.9657C123.2 50.2762 123.597 49.3278 124.321 48.7415C123.442 49.4485 122.735 50.5693 121.907 51.3625C121.528 51.7247 121.114 52.0695 120.734 52.4316C119.165 53.9319 122.666 51.1729 120.872 52.3455C120.028 52.8973 119.2 53.4663 118.303 53.9491C117.803 54.225 117.199 54.432 116.717 54.7251L118.113 54.1216C117.751 54.2595 117.389 54.3802 117.027 54.5009C112.595 56.0011 109.543 59.7086 109.44 64.4851C109.405 65.9681 109.336 67.4683 109.216 68.9512C109.147 69.71 109.078 70.4514 108.991 71.2102C108.957 71.4861 108.802 72.7793 108.991 71.3481C109.181 69.8306 108.94 71.5723 108.905 71.8654C108.371 75.1935 107.595 78.487 106.612 81.7116C106.146 83.2463 105.629 84.7465 105.077 86.2467C104.939 86.6089 104.008 88.7988 104.56 87.6435C105.112 86.4882 104.525 87.7125 104.439 87.9021C104.215 88.4022 103.991 88.9023 103.767 89.4023C102.629 91.851 101.353 94.2306 99.973 96.5413C98.5935 98.852 97.007 101.111 95.3861 103.318C94.7136 104.232 96.1104 102.404 96.0586 102.456C95.8517 102.68 95.6793 102.939 95.4724 103.18C95.093 103.663 94.6963 104.129 94.2997 104.594C93.4375 105.594 92.5581 106.577 91.6442 107.526C89.9198 109.319 88.1265 111.026 86.2296 112.647C85.7813 113.026 85.333 113.406 84.8674 113.768C84.6433 113.957 84.4018 114.13 84.1776 114.32C84.0914 114.389 86.0228 112.94 85.1089 113.578C84.0053 114.354 82.9361 115.165 81.798 115.906C79.8149 117.199 77.7802 118.389 75.6765 119.458C74.6936 119.958 73.6072 120.338 72.6588 120.89C72.5381 120.958 74.8832 119.993 73.8486 120.389C73.59 120.493 73.3313 120.596 73.0899 120.7C72.4864 120.941 71.9001 121.148 71.2966 121.372C69.1756 122.131 67.0028 122.752 64.7956 123.235C63.6575 123.476 62.5195 123.649 61.3814 123.855C60.2433 124.062 63.0023 123.666 62.8127 123.666C62.554 123.666 62.2781 123.735 62.0194 123.752C61.3986 123.804 60.7951 123.873 60.1743 123.907C57.9843 124.062 55.7944 124.045 53.6044 123.907C53.0871 123.873 52.5526 123.821 52.0353 123.769C51.7939 123.752 51.4835 123.752 51.2593 123.683C51.0351 123.614 53.8286 124.114 52.7077 123.873C51.5869 123.631 50.4661 123.476 49.3453 123.217C47.0863 122.683 44.9826 121.786 42.7754 121.114C42.6374 121.079 44.9825 122.131 44.0169 121.631C43.7755 121.51 43.5168 121.407 43.2754 121.303C42.7753 121.062 42.258 120.821 41.758 120.562C40.6888 120.01 39.637 119.424 38.6196 118.786C37.6884 118.199 36.7917 117.579 35.895 116.941C35.6709 116.785 35.4639 116.596 35.2398 116.458C35.1363 116.389 37.0504 117.958 36.2572 117.234C35.7916 116.803 35.2743 116.423 34.7915 115.992C33.0154 114.423 31.3772 112.716 29.877 110.905C29.7045 110.698 29.5321 110.474 29.3597 110.267C28.6527 109.457 30.2046 111.388 30.1357 111.285C29.8598 110.819 29.4804 110.388 29.17 109.957C28.4803 108.974 27.8422 107.974 27.2215 106.956C26.0144 104.939 25.1522 102.801 24.0486 100.749C23.9968 100.645 24.9108 102.956 24.5487 101.921C24.4625 101.663 24.3418 101.387 24.2383 101.128C23.9969 100.507 23.7727 99.8865 23.5658 99.2485C23.1692 98.076 22.7898 96.8862 22.4622 95.6791C21.8241 93.3167 21.3758 90.937 20.962 88.5401C20.7723 87.4021 21.1344 89.9542 21.1344 89.8162C21.1171 89.5231 21.0654 89.2299 21.0309 88.9368C20.9619 88.3505 20.9102 87.7469 20.8585 87.1434C20.755 85.8329 20.6861 84.5396 20.6516 83.2291C20.5826 80.5563 20.6688 77.8835 20.9102 75.2279C20.9619 74.6072 21.031 73.9864 21.0999 73.3656C21.3069 71.4343 20.755 75.5383 21.0654 73.6243C21.2896 72.262 21.531 70.8998 21.8069 69.5548C22.3759 66.8992 23.0657 64.2781 23.9107 61.6916C24.3245 60.4328 24.7728 59.174 25.2556 57.9324C25.4971 57.3116 25.7729 56.6909 25.9971 56.0701C24.997 58.8291 25.9971 56.1219 26.3247 55.4321C27.4628 52.9835 28.7389 50.6038 30.1184 48.2932C31.4979 45.9825 32.9464 43.8787 34.5155 41.7577C35.6364 40.2575 33.2223 43.327 34.4121 41.8957C34.8087 41.4301 35.188 40.9473 35.5847 40.4817C36.4986 39.3954 37.447 38.3435 38.4299 37.3089C40.1543 35.5155 41.9477 33.8084 43.8445 32.1875C44.2928 31.8081 44.7411 31.4287 45.2067 31.0666C45.4309 30.8769 45.6723 30.7045 45.8965 30.5148C45.9827 30.4458 44.0514 31.8943 44.9653 31.2563C45.9827 30.532 46.9828 29.7906 48.0347 29.1008C50.0005 27.7903 52.0525 26.6004 54.1562 25.5313C55.2254 24.9795 56.398 24.5657 57.4326 23.9794C57.5533 23.9104 55.2082 24.8761 56.2428 24.4795C56.5014 24.376 56.7601 24.2726 57.0015 24.1691C57.605 23.9277 58.1913 23.7207 58.7948 23.4966C60.9158 22.7379 63.0886 22.1171 65.2958 21.6343C66.3476 21.4101 67.3994 21.2377 68.4513 21.048C70.2274 20.7376 66.0027 21.2894 67.8133 21.1342C68.4341 21.0825 69.0376 21.0135 69.6584 20.9617C71.9346 20.7893 74.2108 20.7893 76.487 20.9617C77.0043 20.9962 77.5388 21.048 78.0561 21.0997C78.2975 21.117 78.6079 21.1169 78.8321 21.1859C79.0563 21.2549 76.2627 20.7548 77.3836 20.9963C78.5044 21.2377 79.6253 21.3928 80.7461 21.6515C82.9189 22.1688 84.9709 22.9275 87.0747 23.6518C88.1093 24.0139 85.7124 23.0483 85.8503 23.1345C86.0745 23.2724 86.3504 23.3586 86.5918 23.4621C87.3505 23.8242 88.092 24.1863 88.8335 24.5657C90.2475 25.3072 91.6097 26.1349 92.9202 27.0316C93.2306 27.2385 95.0758 28.618 93.9377 27.7213C92.7996 26.8246 94.5757 28.2731 94.8688 28.5145C96.0586 29.5492 97.1795 30.6355 98.2659 31.7736C102.146 35.8432 108.991 35.6362 112.906 31.7736C113.406 31.2736 114.699 30.4976 114.975 29.8768C114.682 30.5493 113.337 31.0666 114.785 30.0492C115.147 29.7906 115.527 29.5492 115.906 29.325C116.665 28.8594 117.458 28.4973 118.217 28.0834C119.355 27.4627 116.303 28.7214 117.527 28.3938C118.027 28.2559 118.527 28.0489 119.027 27.911C119.424 27.7903 119.838 27.7213 120.234 27.6179C121.614 27.2557 119.734 27.704 119.303 27.6868C120.114 27.704 120.924 27.5489 121.735 27.5833C122.131 27.5833 122.545 27.6868 122.942 27.6523C120.597 27.7903 121.252 27.3937 122.269 27.6179C123.114 27.8075 125.804 28.9284 122.976 27.6696C125.597 28.8422 128.063 29.5147 130.943 28.7042C133.34 28.049 135.944 26.1866 137.133 23.9449C139.513 19.4443 138.702 12.133 133.426 9.7878V9.70155Z" fill="#FA4008"/>
<path d="M483.198 871.581H390.082V591.369H442.676L483.198 871.581Z" fill="#FAF1E7"/>
<path d="M483.198 861.233H390.081L400.428 871.58V625.942C400.428 614.595 400.755 603.18 400.428 591.834C400.428 591.678 400.428 591.523 400.428 591.368L390.081 601.714H442.675L432.691 594.127C434.036 603.456 435.398 612.802 436.743 622.131C439.968 644.393 443.175 666.654 446.4 688.933C450.314 715.989 454.228 743.044 458.143 770.117C461.505 793.379 464.868 816.641 468.23 839.903C469.868 851.197 471.127 862.63 473.145 873.856C473.179 874.011 473.196 874.183 473.214 874.339C473.558 876.718 475.99 879.374 477.973 880.529C480.197 881.822 483.456 882.374 485.939 881.564C488.423 880.753 490.854 879.201 492.13 876.805C493.527 874.183 493.596 871.752 493.165 868.838C491.82 859.509 490.457 850.163 489.112 840.834C485.888 818.572 482.68 796.31 479.456 774.031C475.541 746.976 471.627 719.92 467.713 692.848C464.35 669.586 460.988 646.324 457.625 623.062C456.522 615.389 455.401 607.715 454.297 600.059C453.78 596.42 453.418 592.713 452.711 589.109C452.676 588.954 452.659 588.781 452.642 588.626C452.004 584.212 446.796 581.039 442.658 581.039H390.064C384.477 581.039 379.718 585.781 379.718 591.385V837.023C379.718 848.387 379.494 859.768 379.718 871.131C379.718 871.286 379.718 871.442 379.718 871.597C379.718 877.184 384.46 881.943 390.064 881.943H483.181C488.595 881.943 493.785 877.184 493.527 871.597C493.268 866.01 488.974 861.251 483.181 861.251L483.198 861.233Z" fill="#FA4008"/>
<path d="M556.553 886.237H402.945C395.875 886.237 390.081 880.443 390.081 873.373V838.748C390.081 831.678 395.875 825.884 402.945 825.884H521.927C548.051 825.884 569.416 847.249 569.416 873.373C569.416 880.443 563.623 886.237 556.553 886.237Z" fill="#FA4008"/>
<path d="M556.553 875.892C549.466 875.892 542.395 875.892 535.308 875.892C519.22 875.892 503.131 875.892 487.06 875.892H435.76C425.431 875.892 415.102 875.892 404.773 875.892C404.169 875.892 403.566 875.892 402.945 875.892C402.738 875.892 402.376 875.892 402.324 875.892C400.583 875.892 404.79 876.461 402.462 875.857C402.083 875.754 401.721 875.616 401.359 875.513C400.376 875.254 402.497 875.978 402.514 875.995C402.376 875.771 399.513 874.116 401.186 875.271C402.962 876.513 399.807 873.357 401.048 875.133C402.066 876.582 400.858 874.685 400.583 874.305C399.703 873.012 400.91 874.926 400.91 875.219C400.91 874.961 400.6 874.34 400.548 874.133C400.462 873.805 400.427 873.271 400.272 872.995C400.445 873.34 400.427 875.426 400.427 873.978C400.479 867.787 400.427 861.597 400.427 855.424V839.714C400.427 839.456 400.427 839.197 400.427 838.938C400.427 838.887 400.427 838.835 400.427 838.766C400.427 838.559 400.427 838.214 400.427 838.162C400.427 836.335 399.962 840.042 400.324 838.87C400.496 838.3 400.859 837.507 400.893 836.921C400.79 838.732 399.996 838.697 400.565 837.835C400.772 837.524 400.979 837.18 401.152 836.869C401.773 835.8 401.617 837.231 400.565 837.611C400.755 837.542 400.997 837.128 401.152 836.99C401.531 836.662 402.48 836.059 401.152 836.869C399.634 837.783 401.152 836.904 401.497 836.697C401.686 836.576 402.41 836.283 402.497 836.145C402.393 836.317 400.013 836.973 401.617 836.542C402.083 836.404 404.376 836.024 402.514 836.214C400.652 836.404 402.514 836.266 402.979 836.266C403.842 836.266 404.721 836.266 405.583 836.266H494.923C503.907 836.266 512.891 836.214 521.893 836.266C522.91 836.266 523.91 836.3 524.928 836.369C525.617 836.421 526.324 836.473 527.014 836.542C527.445 836.593 528.842 836.714 527.117 836.542C525.272 836.352 527.066 836.542 527.497 836.628C530.445 837.162 533.36 837.973 536.153 839.042C538.447 839.921 534.119 838.042 536.326 839.111C536.929 839.404 537.533 839.68 538.136 839.973C539.481 840.663 540.809 841.422 542.085 842.232C542.723 842.646 543.361 843.06 543.965 843.491C544.827 844.094 546.086 845.646 544.137 843.577C545.154 844.663 546.465 845.526 547.534 846.56C548.552 847.543 549.534 848.578 550.448 849.647C550.879 850.13 551.242 850.716 551.724 851.164C550.035 849.561 550.673 849.768 551.138 850.423C551.414 850.802 551.69 851.182 551.966 851.578C553.656 854.01 555.035 856.579 556.311 859.252C557.036 860.769 555.984 858.493 555.949 858.355C556.035 858.7 556.242 859.096 556.363 859.424C556.639 860.148 556.898 860.873 557.122 861.597C557.605 863.08 558.001 864.563 558.329 866.08C558.467 866.753 558.605 867.425 558.725 868.098C559.157 870.598 558.484 865.735 558.76 868.27C558.932 869.857 559.036 871.46 559.036 873.064C559.036 873.564 558.949 874.081 558.984 874.564C558.812 872.409 559.329 872.65 559.07 873.547C558.967 873.909 558.846 874.288 558.76 874.668C558.467 875.84 558.122 874.581 559.157 873.788C558.984 873.926 558.691 874.65 558.605 874.788C558.467 875.012 558.26 875.254 558.139 875.495C557.622 876.599 559.657 873.978 558.691 874.719C558.432 874.926 558.07 875.237 557.898 875.513C557.398 876.254 558.76 874.84 558.898 874.788C558.57 874.892 557.122 875.702 556.949 875.961C557.087 875.771 559.415 875.168 557.829 875.564C557.467 875.65 557.07 875.771 556.708 875.875C556.346 875.978 555.277 876.099 556.932 875.892C558.863 875.65 556.863 875.84 556.518 875.84C551.104 875.961 545.913 880.513 546.172 886.186C546.431 891.86 550.724 896.671 556.518 896.533C566.709 896.291 575.228 889.963 578.607 880.392C579.866 876.823 579.884 872.84 579.539 869.115C579.194 865.39 578.625 861.407 577.573 857.7C573.607 843.732 564.33 831.627 552 823.988C542.792 818.28 532.015 815.487 521.238 815.487C517.323 815.487 513.426 815.487 509.512 815.487H412.533C409.36 815.487 406.187 815.435 403.031 815.487C395.065 815.608 388.184 819.436 383.615 825.885C380.614 830.127 379.718 835.266 379.718 840.352V864.477C379.718 867.304 379.7 870.115 379.718 872.943C379.769 880.996 383.563 888.032 390.116 892.636C395.082 896.119 400.772 896.533 406.549 896.533C411.326 896.533 416.102 896.533 420.879 896.533C437.122 896.533 453.383 896.533 469.627 896.533C487.405 896.533 505.201 896.533 522.979 896.533C533.653 896.533 544.31 896.533 554.984 896.533H556.518C561.933 896.533 567.123 891.773 566.865 886.186C566.606 880.599 562.312 875.84 556.518 875.84L556.553 875.892Z" fill="#FA4008"/>
<path d="M252.13 871.581H345.246V591.369H292.653L252.13 871.581Z" fill="#FAF1E7"/>
<path d="M252.131 881.926C262.649 881.926 273.168 881.926 283.669 881.926C300.344 881.926 317.019 881.926 333.711 881.926C337.556 881.926 341.402 881.926 345.247 881.926C350.834 881.926 355.593 877.184 355.593 871.58C355.593 862.233 355.593 852.887 355.593 843.541C355.593 821.245 355.593 798.949 355.593 776.67V695.848C355.593 672.552 355.593 649.255 355.593 625.959C355.593 614.595 355.817 603.215 355.593 591.851C355.593 591.696 355.593 591.541 355.593 591.385C355.593 585.798 350.851 581.039 345.247 581.039C329.883 581.039 314.536 581.039 299.172 581.039C296.999 581.039 294.826 581.039 292.654 581.039C288.584 581.039 283.307 584.229 282.669 588.626C281.324 597.955 279.962 607.301 278.617 616.63L268.961 683.433C265.046 710.488 261.132 737.544 257.218 764.616C253.855 787.878 250.492 811.14 247.13 834.402C245.492 845.714 243.836 857.043 242.215 868.355C242.198 868.51 242.164 868.683 242.147 868.838C241.733 871.7 241.664 874.201 243.181 876.805C244.44 878.943 246.906 880.995 249.372 881.564C254.269 882.685 261.27 880.063 262.098 874.339C263.443 865.01 264.805 855.664 266.15 846.335C269.374 824.073 272.582 801.811 275.806 779.532C279.721 752.477 283.635 725.421 287.549 698.348C290.912 675.087 294.274 651.825 297.637 628.563C299.275 617.268 301.258 605.956 302.551 594.61C302.569 594.455 302.603 594.282 302.62 594.127L292.636 601.714C308 601.714 323.347 601.714 338.712 601.714C340.884 601.714 343.057 601.714 345.23 601.714L334.884 591.368C334.884 600.714 334.884 610.06 334.884 619.406C334.884 641.703 334.884 663.999 334.884 686.278C334.884 713.213 334.884 740.165 334.884 767.099C334.884 790.396 334.884 813.692 334.884 836.989C334.884 848.335 334.556 859.75 334.884 871.097C334.884 871.252 334.884 871.407 334.884 871.562L345.23 861.216C334.711 861.216 324.192 861.216 313.691 861.216C297.016 861.216 280.341 861.216 263.649 861.216C259.804 861.216 255.959 861.216 252.113 861.216C246.699 861.216 241.508 865.975 241.767 871.562C242.026 877.149 246.319 881.909 252.113 881.909L252.131 881.926Z" fill="#FA4008"/>
<path d="M178.777 886.238H332.385C339.455 886.238 345.248 880.444 345.248 873.374V838.749C345.248 831.679 339.455 825.885 332.385 825.885H213.402C187.278 825.885 165.913 847.25 165.913 873.374C165.913 880.444 171.707 886.238 178.777 886.238Z" fill="#FA4008"/>
<path d="M178.776 896.584C186.381 896.584 193.968 896.584 201.572 896.584C218.489 896.584 235.422 896.584 252.338 896.584C269.72 896.584 287.084 896.584 304.466 896.584C313.64 896.584 322.813 896.653 331.987 896.584C345.161 896.498 355.508 886.013 355.577 872.874C355.628 865.511 355.577 858.13 355.577 850.767C355.577 842.266 356.698 832.73 351.335 825.488C346.713 819.263 340.023 815.659 332.229 815.538C331.194 815.538 330.159 815.538 329.125 815.538H288.429C270.754 815.538 253.08 815.538 235.405 815.538C224.42 815.538 212.902 814.693 202.055 816.693C187.639 819.366 175.138 828.126 166.481 839.748C162.377 845.249 159.36 851.716 157.566 858.32C155.773 864.924 154.221 874.15 156.894 880.995C160.532 890.273 168.689 896.36 178.776 896.601C184.191 896.722 189.364 891.756 189.122 886.255C188.881 880.754 184.57 876.047 178.776 875.909C178.621 875.909 177.776 875.771 177.569 875.857C177.845 875.753 180.121 876.46 178.586 875.943C178.138 875.788 175.983 875.081 177.638 875.719C179.293 876.357 177.017 875.184 176.638 874.995C175.776 874.546 177.604 875.667 177.621 875.736C177.621 875.684 176.466 874.546 176.414 874.529C176.483 874.546 177.604 876.374 177.155 875.512C176.983 875.184 176.759 874.857 176.552 874.563C175.293 872.667 176.983 876.253 176.552 874.701C176.448 874.339 176.362 873.943 176.241 873.581C175.724 872.046 176.431 874.305 176.327 874.598C176.5 874.15 176.276 873.012 176.276 872.494C176.31 870.994 176.414 869.511 176.569 868.011C176.759 866.166 176.19 870.408 176.569 868.132C176.724 867.269 176.897 866.407 177.086 865.545C177.414 864.131 177.81 862.734 178.259 861.355C178.5 860.631 178.759 859.906 179.035 859.182C179.138 858.923 179.259 858.648 179.345 858.372C178.328 861.286 178.897 859.406 179.224 858.734C180.466 856.061 181.949 853.509 183.673 851.112C183.846 850.888 184.001 850.646 184.173 850.422C185.139 849.077 183.691 851.077 183.587 851.164C184.122 850.698 184.57 849.957 185.036 849.422C186.036 848.284 187.088 847.198 188.174 846.163C188.726 845.646 189.278 845.146 189.864 844.646C190.192 844.37 192.054 842.938 190.571 844.025C189.088 845.111 191.002 843.714 191.347 843.473C192.037 842.99 192.761 842.507 193.468 842.059C194.675 841.3 195.916 840.593 197.175 839.955C197.848 839.61 198.555 839.3 199.245 838.972C199.865 838.679 200.969 838.421 198.348 839.334C198.71 839.214 199.055 839.041 199.417 838.921C202.331 837.817 205.332 837.058 208.384 836.506C210.194 836.179 205.952 836.765 208.28 836.506C209.073 836.42 209.867 836.351 210.66 836.317C211.574 836.265 212.488 836.248 213.402 836.231C214.195 836.231 214.988 836.231 215.764 836.231H229.99C246.423 836.231 262.874 836.231 279.307 836.231C294.189 836.231 309.07 836.231 323.934 836.231C326.728 836.231 329.521 836.179 332.298 836.231C332.298 836.231 332.332 836.231 332.349 836.231C332.556 836.231 333.315 836.231 332.953 836.231C333.953 836.231 333.849 836.817 331.97 836.075C332.556 836.317 333.315 836.437 333.936 836.61C335.143 836.955 332.125 835.437 333.039 836.248C333.332 836.507 333.936 836.782 334.263 836.972C335.332 837.593 333.901 837.438 333.522 836.386C333.591 836.576 334.005 836.817 334.143 836.972C335.677 838.731 333.16 835.024 334.298 837.076C334.436 837.317 334.574 837.576 334.729 837.8C335.608 839.076 334.453 837.162 334.401 836.886C334.488 837.369 335.126 840.197 334.936 838.317C334.746 836.438 334.884 838.369 334.884 838.903C334.884 839.214 334.884 839.524 334.884 839.852V843.749C334.884 851.888 334.884 860.044 334.884 868.183C334.884 870.201 334.832 872.236 334.85 874.253C334.85 875.581 335.35 871.994 334.97 873.253C334.867 873.615 334.798 874.012 334.677 874.374C334.022 876.478 335.66 872.856 334.712 874.27C334.505 874.564 334.298 874.926 334.125 875.236C333.522 876.305 333.625 874.908 334.712 874.495C334.557 874.546 333.987 875.253 333.936 875.305C333.056 876.322 334.332 874.908 334.729 874.77C334.401 874.874 332.953 875.684 332.78 875.943C332.918 875.753 335.246 875.15 333.66 875.546C333.298 875.633 332.901 875.753 332.539 875.857C330.901 876.34 335.108 875.753 332.642 875.822C332.522 875.822 332.418 875.822 332.315 875.822C324.831 875.96 317.33 875.822 309.863 875.822C293.689 875.822 277.531 875.822 261.357 875.822C244.285 875.822 227.214 875.822 210.125 875.822C200.141 875.822 190.157 875.822 180.173 875.822H178.724C173.31 875.822 168.119 880.582 168.378 886.169C168.637 891.756 172.93 896.515 178.724 896.515L178.776 896.584Z" fill="#FA4008"/>
<path d="M637.943 387.323C637.943 413.189 568.364 427.725 560.794 451.056C552.948 475.249 600.403 527.86 585.763 547.983C570.968 568.314 506.166 539.344 485.835 554.139C465.712 568.797 473.316 639.444 449.14 647.29C425.809 654.86 390.529 593.472 364.68 593.472C338.832 593.472 303.551 654.86 280.22 647.29C256.027 639.444 263.649 568.779 243.525 554.139C223.195 539.344 158.393 568.314 143.598 547.983C128.94 527.86 176.413 475.232 168.567 451.056C160.997 427.725 91.418 413.171 91.418 387.323C91.418 361.475 160.997 346.921 168.567 323.59C176.413 299.397 128.958 246.786 143.598 226.663C158.393 206.332 223.195 235.302 243.525 220.507C263.649 205.849 256.044 135.202 280.22 127.356C303.551 119.786 338.832 181.174 364.68 181.174C390.529 181.174 425.809 119.786 449.14 127.356C473.333 135.202 465.712 205.867 485.835 220.507C506.166 235.302 570.968 206.332 585.763 226.663C600.42 246.786 552.948 299.414 560.794 323.59C568.364 346.921 637.943 361.475 637.943 387.323Z" fill="#FAF1E7"/>
<path d="M625.012 387.324C625.012 387.703 624.977 388.082 624.96 388.462C624.96 390.376 625.701 384.651 625.219 386.513C625.029 387.255 624.857 387.979 624.65 388.703C623.925 391.186 626.391 385.203 624.891 388.1C624.46 388.945 623.942 389.721 623.425 390.514C621.959 392.755 625.736 387.841 623.891 389.928C623.304 390.6 622.718 391.273 622.08 391.911C620.615 393.411 619.011 394.739 617.407 396.084C615.803 397.429 620.183 394.032 618.407 395.308C618.045 395.566 617.7 395.825 617.355 396.084C616.562 396.653 615.752 397.222 614.941 397.773C612.924 399.136 610.854 400.429 608.768 401.688C604.664 404.136 600.457 406.43 596.232 408.689C587.869 413.155 579.35 417.431 571.349 422.553C563.348 427.674 555.588 433.382 550.984 441.504C540.517 460.058 552.726 482.872 560.882 499.805C563.089 504.409 565.365 508.979 567.538 513.583C568.59 515.824 569.625 518.066 570.607 520.342C570.763 520.704 570.918 521.084 571.09 521.446C572.056 523.653 569.814 518.342 570.711 520.549C571.211 521.808 571.728 523.067 572.194 524.326C573.677 528.274 574.849 532.258 575.643 536.396C575.867 537.603 575.574 539.121 575.436 534.81C575.436 535.258 575.539 535.706 575.557 536.155C575.626 537.017 575.643 537.896 575.625 538.759C575.591 540.449 574.574 542.639 575.832 538.172C575.625 538.931 575.539 539.707 575.298 540.466C574.332 543.535 576.901 537.638 575.574 539.828C574.694 541.293 573.125 542.276 576.126 539.431C575.574 539.948 575.056 540.535 574.522 541.087C573.211 542.432 577.54 539.034 575.936 540.017C575.608 540.224 575.28 540.466 574.953 540.655C574.263 541.069 573.522 541.38 572.815 541.759C576.901 539.483 574.574 541.035 573.125 541.466C572.263 541.725 571.383 541.931 570.521 542.121C570.056 542.207 569.607 542.276 569.142 542.38C567.107 542.794 573.159 541.983 570.176 542.242C560.951 543.035 551.743 542.035 542.604 540.828C541.638 540.707 539.155 540.345 543.517 540.949C542.879 540.862 542.259 540.776 541.621 540.69C540.569 540.552 539.5 540.397 538.448 540.242C534.775 539.724 531.085 539.224 527.412 538.724C522.515 538.069 517.617 537.465 512.703 537.103C503.874 536.448 494.2 536.379 485.854 539.707C481.112 541.604 476.75 544.139 473.421 548.105C469.8 552.416 467.49 556.882 465.352 562.055C461.92 570.366 460.213 579.333 458.592 588.145C456.867 597.56 455.436 607.061 453.212 616.39C452.229 620.546 451.022 624.615 449.539 628.633C449.159 629.651 448.159 631.254 450.108 627.34C449.901 627.754 449.729 628.202 449.522 628.633C449.142 629.461 448.728 630.271 448.28 631.082C447.935 631.72 447.556 632.341 447.176 632.961C446.952 633.324 446.711 633.651 446.469 634.013C445.004 636.238 448.539 631.634 447.246 633.013C446.711 633.582 446.211 634.186 445.642 634.72C443.314 636.91 448.366 633.013 446.211 634.358C445.642 634.72 445.038 635.031 444.469 635.376C443.486 635.962 442.348 635.617 446.383 634.582C445.901 634.703 445.452 634.91 444.969 635.048C444.607 635.134 444.228 635.186 443.866 635.289C447.728 634.117 447.159 634.979 445.814 634.996C445.055 634.996 444.297 634.996 443.538 634.962C441.59 634.91 447.332 635.669 445.418 635.203C445.021 635.1 444.624 635.048 444.228 634.945C443.417 634.738 442.624 634.479 441.831 634.203C440.745 633.858 439.469 632.875 443.297 634.858C442.9 634.651 442.469 634.496 442.055 634.289C441.21 633.875 440.365 633.427 439.555 632.961C437.71 631.91 435.916 630.72 434.192 629.478C433.278 628.823 430.346 626.357 433.968 629.358C433.088 628.633 432.192 627.926 431.312 627.202C429.329 625.547 427.381 623.822 425.467 622.081C417.983 615.252 410.913 608.01 403.394 601.216C396.29 594.801 388.685 588.197 379.857 584.299C374.89 582.11 369.804 580.437 364.268 580.558C358.733 580.678 353.663 582.334 348.628 584.662C339.61 588.835 331.816 595.801 324.556 602.457C317.107 609.286 310.037 616.545 302.501 623.288C300.88 624.736 299.242 626.167 297.569 627.547C296.69 628.271 293.224 630.858 297.087 627.995C296.069 628.754 295.069 629.513 294.034 630.237C292.517 631.289 290.965 632.289 289.344 633.203C288.516 633.651 287.689 634.065 286.844 634.479C285.757 635.013 284.378 635.031 288.292 633.893C287.74 634.048 287.223 634.306 286.671 634.479C285.878 634.738 285.085 634.91 284.292 635.117C281.671 635.755 288.309 634.858 285.016 634.996C284.378 635.031 283.757 634.962 283.119 634.962C281.205 634.927 286.913 635.738 285.085 635.203C284.602 635.065 284.119 634.944 283.636 634.824C281.188 634.169 287.12 636.617 284.361 635.1C283.705 634.737 283.119 634.289 282.498 633.893C286.309 636.272 284.412 635.41 283.395 634.427C282.326 633.392 280.74 630.616 283.326 634.651C282.395 633.203 281.412 631.806 280.602 630.271C280.17 629.444 279.808 628.599 279.394 627.754C278.601 626.116 280.239 629.685 280.136 629.513C279.808 628.995 279.636 628.254 279.429 627.668C277.929 623.633 276.808 619.442 275.842 615.252C271.48 596.336 270.376 576.454 262.478 558.52C258.512 549.519 251.96 542.828 242.7 539.379C234.199 536.224 224.352 536.448 215.454 537.189C209.454 537.672 203.487 538.5 197.538 539.31C195.107 539.638 192.675 539.983 190.244 540.328C188.985 540.5 187.709 540.673 186.45 540.862C183.95 541.207 189.865 540.414 187.364 540.742C186.537 540.845 185.692 540.966 184.864 541.069C180.053 541.673 175.242 542.207 170.396 542.432C168.362 542.535 166.327 542.569 164.292 542.535C163.24 542.518 162.206 542.466 161.154 542.397C159.654 542.294 155.722 541.259 160.654 542.432C159.033 542.035 157.377 541.845 155.774 541.328C155.36 541.207 154.963 541.035 154.567 540.914C152.67 540.328 157.86 542.501 156.119 541.587C155.291 541.138 154.48 540.707 153.687 540.224C151.497 538.879 156.498 542.794 154.205 540.552C153.929 540.276 153.687 539.983 153.411 539.724C152.084 538.414 155.429 542.742 154.498 541.121C154.187 540.569 153.86 540.017 153.532 539.483C152.566 537.862 154.774 542.983 154.239 541.173C154.101 540.673 153.911 540.207 153.773 539.707C153.67 539.328 153.618 538.931 153.515 538.552C153.032 536.638 153.842 542.38 153.756 540.397C153.722 539.552 153.636 538.724 153.653 537.879C153.653 537.138 153.722 536.414 153.756 535.689C153.825 534.534 154.429 532.879 153.498 537.31C153.618 536.689 153.687 536.051 153.808 535.431C154.601 531.258 155.963 527.188 157.498 523.222C157.912 522.136 158.378 521.049 158.809 519.963C157.05 524.429 158.722 520.204 159.171 519.187C160.171 516.911 161.223 514.652 162.292 512.41C164.568 507.599 166.93 502.84 169.224 498.046C173.621 488.838 178.225 479.354 180.639 469.387C182.967 459.834 183.243 449.453 177.898 440.797C172.897 432.709 164.93 426.881 156.998 421.915C148.911 416.862 140.358 412.569 131.96 408.068C127.597 405.723 123.252 403.343 119.027 400.757C117.286 399.688 115.561 398.584 113.871 397.429C112.992 396.825 112.13 396.204 111.268 395.583C110.405 394.963 109.06 393.549 112.233 396.359C111.733 395.911 111.181 395.532 110.664 395.101C109.336 393.98 108.043 392.807 106.836 391.548C106.215 390.91 105.663 390.221 105.077 389.565C103.749 388.065 107.129 392.497 106.06 390.824C105.767 390.359 105.439 389.928 105.146 389.462C104.732 388.789 104.404 388.065 104.008 387.358C103.301 386.099 104.853 389.393 104.853 389.376C104.905 389.186 104.542 388.496 104.473 388.289C104.249 387.565 104.146 386.824 103.956 386.099C105.146 390.634 104.249 388.324 104.267 386.53C104.267 383.927 103.439 390.514 104.18 387.375C104.336 386.703 104.611 386.048 104.801 385.392C105.163 384.03 103.146 388.876 104.025 387.237C104.215 386.893 104.37 386.531 104.56 386.186C105.025 385.341 105.56 384.582 106.077 383.771C107.146 382.116 103.766 386.53 105.094 385.03C105.387 384.703 105.663 384.358 105.939 384.03C106.543 383.358 107.181 382.702 107.819 382.064C109.215 380.702 110.767 379.53 112.233 378.236C108.629 381.409 111.543 378.788 112.544 378.081C113.423 377.46 114.32 376.839 115.234 376.253C117.13 375.012 119.045 373.805 121.01 372.649C125.132 370.201 129.356 367.907 133.581 365.665C142.099 361.13 150.756 356.768 158.843 351.508C166.31 346.646 174.466 340.645 178.639 332.488C183.364 323.263 182.829 313.003 180.087 303.226C177.346 293.449 172.604 283.637 168.086 274.273C165.861 269.687 163.602 265.117 161.447 260.496C160.395 258.254 159.378 256.012 158.395 253.753C158.015 252.874 157.188 250.649 158.757 254.633C158.533 254.081 158.309 253.546 158.084 252.995C157.584 251.753 157.102 250.512 156.653 249.253C155.222 245.321 154.308 241.39 153.446 237.303C154.446 242.097 153.704 239.338 153.636 238.027C153.584 237.165 153.566 236.303 153.601 235.44C153.618 235.027 153.67 234.613 153.687 234.199C153.773 232.216 152.963 237.958 153.446 236.044C153.67 235.165 153.894 234.302 154.153 233.423C154.687 231.612 152.48 236.734 153.446 235.113C153.636 234.785 153.791 234.44 153.998 234.113C155.515 231.612 152.377 235.82 153.325 234.871C153.86 234.337 154.463 233.82 154.963 233.268C152.446 236.009 152.463 235.044 153.584 234.354C154.032 234.078 154.463 233.785 154.929 233.544C155.291 233.354 155.653 233.182 156.015 232.992C157.74 232.061 152.566 234.251 154.463 233.664C155.153 233.457 155.825 233.199 156.515 232.992C157.395 232.75 158.274 232.543 159.154 232.371C159.619 232.285 160.102 232.25 160.55 232.13C156.084 233.199 158.24 232.423 159.533 232.302C168.741 231.405 178.122 232.647 187.244 233.854C189.744 234.182 183.829 233.388 186.33 233.733C186.968 233.82 187.589 233.906 188.227 233.992C189.503 234.164 190.761 234.354 192.037 234.527C195.503 235.009 198.969 235.492 202.435 235.941C207.315 236.579 212.195 237.182 217.11 237.527C227.18 238.234 237.578 237.786 246.821 233.423C256.064 229.06 260.737 220.473 264.22 211.661C270.979 194.504 271.807 175.484 276.135 157.671C277.153 153.446 278.446 149.359 279.946 145.307C280.481 143.876 278.429 148.687 279.291 146.842C279.498 146.411 279.67 145.98 279.877 145.566C280.274 144.755 280.688 143.945 281.136 143.152C281.584 142.359 282.015 141.669 282.498 140.962C284.412 138.151 280.239 143.479 282.481 141.013C282.912 140.531 283.378 140.1 283.843 139.651C285.671 137.858 280.653 141.789 283.309 140.082C283.93 139.686 284.602 139.393 285.24 139.03C281.326 141.272 283.309 139.91 284.981 139.427C286.809 138.91 281.119 139.72 283.016 139.668C283.326 139.668 283.636 139.634 283.947 139.617C284.654 139.617 285.344 139.703 286.051 139.72C281.291 139.634 283.792 139.375 285.361 139.789C286.326 140.048 287.223 140.444 288.189 140.738C283.671 139.41 286.671 140.082 287.982 140.738C288.689 141.1 289.396 141.496 290.086 141.893C292.017 143.031 293.879 144.29 295.673 145.618C296.121 145.945 296.552 146.273 296.983 146.6C293.517 144.031 295.379 145.359 296.121 145.962C297.018 146.687 297.914 147.428 298.794 148.17C300.639 149.722 302.432 151.325 304.208 152.963C311.675 159.809 318.745 167.052 326.28 173.828C334.299 181.036 342.765 187.848 352.887 191.814C362.561 195.607 372.338 193.986 381.443 189.555C390.548 185.123 397.945 178.346 405.119 171.742C412.292 165.138 419.621 157.654 427.156 150.929C428.915 149.359 430.691 147.825 432.536 146.342C432.968 145.98 433.433 145.635 433.864 145.29C430.588 148.014 432.226 146.549 433.002 145.962C433.864 145.324 434.727 144.704 435.606 144.083C437.244 142.962 438.951 141.893 440.71 140.962C441.521 140.531 442.383 140.186 443.193 139.772C438.951 141.979 441.624 140.427 442.952 140.031C443.745 139.789 444.538 139.634 445.331 139.444C447.246 138.979 441.503 139.755 443.452 139.686C443.831 139.686 444.211 139.634 444.607 139.617C446.401 139.582 448.004 140.634 443.797 139.358C444.607 139.599 445.487 139.841 446.314 140.048C442.503 139.082 443.745 138.858 445.211 139.703C446.676 140.548 447.745 142.29 444.728 139.168C445.262 139.72 445.883 140.186 446.401 140.738C446.676 141.031 446.918 141.341 447.194 141.617C448.487 142.997 444.935 138.392 446.418 140.617C447.297 141.962 448.142 143.307 448.866 144.738C449.28 145.566 449.625 146.445 450.056 147.273C447.815 142.755 449.746 146.6 450.177 147.859C451.625 151.963 452.712 156.205 453.677 160.447C455.781 169.845 457.195 179.364 458.988 188.813C460.782 198.263 463.006 207.626 466.99 216.49C470.973 225.353 477.905 232.216 487.372 235.475C496.045 238.458 506.012 238.079 515.013 237.286C520.928 236.751 526.808 235.941 532.688 235.13C535.12 234.802 537.551 234.458 539.983 234.113C541.138 233.957 542.31 233.802 543.466 233.63C538.517 234.32 543.862 233.578 545.052 233.44C549.846 232.837 554.64 232.337 559.468 232.13C561.658 232.026 563.865 232.009 566.055 232.078C567.09 232.112 568.107 232.164 569.142 232.268C569.469 232.302 569.797 232.337 570.142 232.371C573.125 232.63 567.072 231.819 569.107 232.233C570.883 232.595 572.59 232.992 574.332 233.526C576.936 234.337 570.935 231.819 573.901 233.371C574.608 233.733 575.246 234.182 575.919 234.596C577.522 235.596 573.194 232.181 574.505 233.526C574.763 233.802 575.074 234.044 575.332 234.32C575.591 234.596 575.815 234.923 576.091 235.182C573.28 232.509 574.332 232.699 574.97 233.802C575.798 235.234 576.057 237.286 574.884 233.078C575.108 233.871 575.384 234.664 575.608 235.475C576.419 238.389 575.401 231.871 575.522 234.613C575.557 235.458 575.608 236.303 575.591 237.148C575.574 238.044 575.418 238.924 575.401 239.82C575.556 234.751 575.556 238.631 575.246 240.131C574.349 244.355 572.918 248.442 571.332 252.46C571.108 253.012 570.883 253.546 570.676 254.098C569.78 256.305 572.021 250.994 571.056 253.202C570.659 254.133 570.245 255.064 569.832 255.978C568.728 258.444 567.573 260.892 566.417 263.341C564.21 267.945 561.951 272.532 559.744 277.136C551.898 293.586 540.224 316.521 551.536 334.144C556.812 342.352 564.969 348.232 573.177 353.284C581.385 358.337 589.921 362.579 598.336 367.114C602.336 369.269 606.319 371.477 610.199 373.856C612.096 375.012 613.976 376.219 615.804 377.478C616.528 377.978 617.252 378.495 617.959 379.012C618.821 379.633 620.149 381.047 616.993 378.236C617.373 378.564 617.787 378.857 618.166 379.185C619.632 380.392 621.063 381.668 622.373 383.047C622.994 383.685 623.546 384.375 624.132 385.03C625.201 386.22 622.787 383.461 622.891 383.427C622.942 383.409 623.563 384.375 623.615 384.444C624.063 385.117 624.477 385.806 624.857 386.53C626.357 389.427 623.891 383.444 624.615 385.927C624.822 386.651 624.994 387.375 625.184 388.117C625.65 389.979 624.908 384.254 624.925 386.168C624.925 386.548 624.96 386.927 624.977 387.306C625.063 394.066 630.857 400.55 637.91 400.239C644.963 399.929 650.946 394.549 650.843 387.306C650.567 366.441 629.047 354.371 612.993 345.628C604.388 340.938 595.594 336.575 587.196 331.506C585.317 330.367 583.471 329.195 581.661 327.971C580.868 327.436 580.092 326.884 579.316 326.315C578.971 326.074 578.643 325.798 578.298 325.556C582.023 328.16 579.833 326.746 578.988 326.057C577.574 324.884 576.194 323.66 574.936 322.315C574.349 321.694 573.849 321.021 573.263 320.401C576.522 323.901 574.229 321.677 573.47 320.401C572.625 318.987 572.453 316.848 573.608 321.142C573.453 320.539 573.177 319.969 573.004 319.366C572.59 317.814 572.867 315.314 572.953 320.038C572.953 319.056 572.797 318.073 572.815 317.073C572.815 316.176 572.918 315.279 572.987 314.382C573.125 312.261 572.366 318.073 572.763 315.952C572.849 315.469 572.918 315.003 573.004 314.52C573.418 312.331 574.005 310.158 574.677 308.02C575.298 306.054 575.988 304.122 576.729 302.191C577.16 301.088 577.591 300.001 578.04 298.915C578.953 296.69 576.695 302.001 577.678 299.794C578.005 299.053 578.333 298.294 578.66 297.553C580.712 292.931 582.937 288.379 585.144 283.844C589.886 274.101 594.783 264.289 598.232 254.012C601.129 245.356 603.129 235.027 599.836 226.181C591.662 204.16 565.658 205.091 546.311 207.419C540.31 208.144 534.344 209.006 528.36 209.833C527.101 210.006 525.825 210.178 524.567 210.351C529.447 209.678 524.739 210.316 523.601 210.471C521.152 210.782 518.687 211.058 516.221 211.299C511.513 211.747 506.771 212.058 502.029 211.885C501.012 211.851 499.977 211.782 498.96 211.696C498.477 211.644 497.977 211.558 497.494 211.541C501.857 211.748 500.201 211.937 499.029 211.73C497.253 211.403 495.563 210.954 493.838 210.402C491.252 209.558 497.235 212.11 494.304 210.54C493.614 210.161 492.993 209.678 492.304 209.299C496.097 211.437 494.114 210.799 492.959 209.626C491.855 208.523 490.51 205.867 492.959 209.868C492.148 208.54 491.234 207.299 490.51 205.902C490.079 205.091 489.717 204.264 489.32 203.436C488.424 201.539 490.614 206.764 489.889 204.764C489.665 204.143 489.424 203.539 489.2 202.936C486.061 194.262 484.458 185.054 482.854 176.001C481.164 166.483 479.681 156.895 477.163 147.549C474.646 138.203 471.18 128.995 464.455 122.149C457.143 114.682 446.521 112.096 436.52 114.941C426.674 117.752 418.31 124.442 410.723 131.029C403.136 137.616 395.773 145.152 388.254 152.153C384.702 155.464 381.081 158.671 377.287 161.706C375.477 163.172 379.96 159.706 378.098 161.068C377.65 161.396 377.201 161.741 376.753 162.068C375.873 162.706 374.994 163.327 374.08 163.913C372.252 165.12 370.373 166.241 368.407 167.19C367.993 167.396 367.527 167.552 367.131 167.793C370.735 165.81 369.648 166.793 368.528 167.172C367.7 167.448 366.872 167.741 366.01 167.966C365.338 168.138 364.63 168.224 363.958 168.397C368.545 167.172 365.924 168.207 364.182 168.155C363.786 168.155 363.372 168.103 362.975 168.086C360.992 168.017 366.734 168.793 364.786 168.328C363.958 168.121 363.13 167.966 362.303 167.724C361.475 167.483 360.63 167.086 359.785 166.827C364.441 168.276 360.751 167.207 359.44 166.517C357.785 165.638 356.181 164.655 354.629 163.603C353.732 162.999 352.836 162.361 351.956 161.723C351.508 161.396 351.06 161.051 350.611 160.706C354.232 163.361 351.767 161.603 350.973 160.947C347.18 157.878 343.559 154.584 339.989 151.239C332.523 144.221 325.349 136.875 317.555 130.202C309.761 123.528 301.622 117.062 291.862 114.665C282.102 112.268 270.911 114.958 263.927 122.959C257.46 130.374 254.012 139.686 251.597 149.101C246.993 167.121 246.269 186.347 239.63 203.815C239.458 204.264 239.251 204.712 239.096 205.16C240.458 201.091 240.13 202.798 239.648 203.798C239.251 204.609 238.872 205.436 238.44 206.229C238.027 206.988 237.595 207.73 237.13 208.454C236.906 208.799 236.664 209.126 236.44 209.471C235.406 211.075 238.992 206.505 237.233 208.419C236.716 208.989 236.216 209.558 235.647 210.075C235.457 210.247 234.905 210.575 234.802 210.799C234.802 210.799 237.785 208.747 236.526 209.454C235.837 209.833 235.181 210.282 234.492 210.661C233.457 211.23 232.043 211.282 236.095 210.04C235.561 210.213 235.043 210.437 234.509 210.609C232.767 211.178 230.974 211.42 229.198 211.799C234.13 210.73 230.577 211.61 229.198 211.696C227.973 211.782 226.766 211.834 225.542 211.851C220.938 211.92 216.317 211.575 211.73 211.109C209.247 210.851 206.781 210.558 204.315 210.247C203.694 210.161 203.056 210.075 202.435 210.006C206.815 210.558 204.315 210.265 203.349 210.127C202.073 209.954 200.814 209.782 199.538 209.592C193.365 208.73 187.192 207.833 181.001 207.126C171.155 206.005 161.137 205.402 151.359 207.54C140.944 209.816 132.529 216.645 129.063 226.819C125.994 235.82 128.253 246.27 131.288 254.978C134.891 265.289 139.823 275.118 144.583 284.93C146.79 289.465 148.98 294 150.997 298.622C151.239 299.173 151.48 299.743 151.721 300.294C149.963 296.397 150.98 298.535 151.342 299.415C151.79 300.501 152.221 301.588 152.635 302.674C153.48 304.916 154.274 307.192 154.946 309.503C155.515 311.451 155.946 313.417 156.326 315.417C156.895 318.383 156.05 311.848 156.222 314.779C156.291 315.814 156.36 316.848 156.343 317.883C156.308 319.487 155.394 322.004 156.567 317.366C156.377 318.142 156.274 318.935 156.05 319.711C155.946 320.073 155.808 320.418 155.688 320.763C155.136 322.539 157.326 317.4 156.412 319.021C155.963 319.797 155.567 320.59 155.067 321.349C153.239 324.091 157.17 318.987 155.36 321.004C154.877 321.539 154.411 322.073 153.911 322.591C152.497 324.039 150.963 325.332 149.411 326.626C147.773 328.005 152.222 324.574 150.445 325.815C150.032 326.108 149.618 326.419 149.204 326.712C148.342 327.333 147.479 327.919 146.6 328.505C144.669 329.781 142.703 331.006 140.72 332.178C123.959 342.111 104.991 349.405 90.4715 362.734C83.5395 369.114 77.7973 378.219 78.3147 387.996C78.832 397.773 84.4017 406.602 91.92 413.017C106.991 425.846 125.666 433.106 142.427 443.314C144.289 444.452 146.134 445.625 147.928 446.867C148.773 447.453 149.601 448.074 150.445 448.677C152.204 449.936 147.755 446.504 149.411 447.867C149.911 448.281 150.411 448.677 150.911 449.091C152.29 450.264 153.601 451.505 154.808 452.85C155.705 453.85 156.826 456.057 154.377 452.16C154.86 452.936 155.429 453.661 155.894 454.454C156.084 454.781 156.239 455.126 156.429 455.454C157.36 457.092 155.153 451.936 155.705 453.712C155.929 454.454 156.188 455.161 156.36 455.919C157.102 459.213 156.205 452.557 156.308 455.316C156.343 456.333 156.395 457.333 156.343 458.334C156.308 459.092 156.188 459.851 156.153 460.61C156.326 455.644 156.36 459.058 156.084 460.489C155.636 462.696 155.032 464.869 154.342 467.025C153.653 469.18 152.877 471.301 152.032 473.405C151.618 474.439 149.79 478.509 151.739 474.163C151.239 475.284 150.773 476.405 150.273 477.526C148.117 482.337 145.79 487.079 143.479 491.838C138.771 501.512 133.909 511.289 130.615 521.567C127.891 530.068 126.149 540.138 129.494 548.708C133.512 558.986 142.427 565.435 153.204 567.263C163.309 568.987 173.38 568.28 183.502 567.038C189.606 566.297 195.693 565.4 201.78 564.555C202.884 564.4 207.281 563.848 202.453 564.452C203.711 564.297 204.953 564.124 206.212 563.969C208.85 563.641 211.506 563.348 214.161 563.107C218.645 562.71 223.162 562.452 227.68 562.658C228.698 562.71 229.715 562.796 230.715 562.883C231.888 562.969 233.56 563.59 229.215 562.658C229.681 562.762 230.146 562.796 230.612 562.883C232.526 563.228 234.267 563.866 236.113 564.435C231.681 563.072 234.285 563.624 235.561 564.383C236.837 565.142 237.906 566.625 234.836 563.659C235.371 564.176 235.975 564.642 236.492 565.176C236.768 565.452 237.009 565.745 237.268 566.038C239.009 567.952 235.44 563.383 236.475 564.986C237.406 566.435 238.32 567.866 239.096 569.418C239.682 570.591 240.648 573.884 239.13 569.297C239.492 570.384 239.958 571.436 240.337 572.522C246.476 590.283 247.218 609.424 252.184 627.495C254.65 636.462 258.236 645.981 265.013 652.637C272.566 660.034 283.395 662.603 293.465 659.327C303.363 656.12 311.658 649.481 319.366 642.687C327.074 635.893 333.988 628.788 341.386 621.925C343.196 620.235 345.024 618.58 346.887 616.959C347.783 616.166 348.697 615.39 349.611 614.631C350.525 613.873 354.526 610.889 350.611 613.769C354.008 611.286 357.405 608.993 361.164 607.096C362.216 606.561 363.768 606.406 359.785 607.648C360.216 607.51 360.63 607.32 361.044 607.165C361.872 606.872 362.699 606.613 363.544 606.406C363.958 606.302 364.372 606.251 364.786 606.147C366.734 605.682 360.992 606.458 362.975 606.389C363.924 606.354 364.837 606.32 365.786 606.354C368.493 606.44 361.837 605.578 365.199 606.32C365.906 606.475 366.596 606.665 367.269 606.889C368.631 607.32 371.217 608.958 367.131 606.716C368.114 607.251 369.165 607.665 370.148 608.199C371.959 609.182 373.718 610.303 375.425 611.493C376.339 612.114 377.219 612.786 378.098 613.441C379.943 614.821 375.46 611.355 377.287 612.803C377.822 613.235 378.339 613.648 378.874 614.079C382.754 617.252 386.444 620.649 390.1 624.098C397.532 631.116 404.688 638.445 412.499 645.015C419.845 651.205 428.398 657.999 438.089 659.965C448.246 662.017 458.609 659.241 465.489 651.188C478.198 636.341 479.922 614.58 483.251 596.111C484.871 587.145 486.734 578.299 489.872 569.728C490.596 567.728 488.406 572.97 489.303 571.056C489.51 570.642 489.682 570.211 489.889 569.797C490.234 569.056 490.614 568.332 491.01 567.625C491.407 566.918 491.786 566.28 492.234 565.624C494.114 562.814 489.975 568.159 492.165 565.693C492.666 565.124 493.217 564.607 493.769 564.09C495.597 562.348 490.51 566.262 493.269 564.538C493.959 564.107 494.7 563.814 495.39 563.417C491.959 565.435 492.631 564.486 493.838 564.09C494.39 563.917 494.925 563.71 495.476 563.555C496.201 563.348 496.925 563.176 497.649 563.021C499.029 562.727 502.426 562.71 497.477 562.952C499.701 562.848 501.908 562.572 504.15 562.555C508.789 562.521 513.427 562.883 518.031 563.366C520.514 563.624 522.997 563.935 525.463 564.245C526.429 564.366 528.912 564.728 524.549 564.124C525.187 564.21 525.808 564.297 526.446 564.383C527.929 564.59 529.412 564.797 530.878 565.004C536.827 565.831 542.776 566.694 548.76 567.349C567.624 569.453 593.887 569.297 600.301 546.863C602.974 537.517 600.681 527.292 597.473 518.394C593.766 508.168 588.869 498.408 584.144 488.631C581.902 484.027 579.73 479.388 577.66 474.698C576.695 472.491 578.936 477.785 578.022 475.577C577.798 475.026 577.574 474.474 577.35 473.939C576.919 472.87 576.505 471.784 576.108 470.697C575.35 468.645 574.66 466.559 574.056 464.438C573.504 462.489 573.125 460.541 572.746 458.558C572.332 456.454 573.091 462.248 572.97 460.127C572.936 459.679 572.884 459.213 572.849 458.765C572.78 457.747 572.78 456.73 572.832 455.713C573.022 452.281 572.091 458.92 572.729 456.299C572.884 455.661 573.039 455.023 573.228 454.385C573.332 454.04 573.522 453.712 573.608 453.367C572.815 456.954 572.246 456.299 572.918 455.109C573.367 454.316 573.815 453.557 574.315 452.798C575.746 450.591 571.849 455.695 574.073 453.16C574.642 452.505 575.246 451.867 575.867 451.264C576.522 450.626 577.195 450.005 577.884 449.401C578.885 448.522 582.333 446.332 578.298 448.97C581.937 446.608 585.403 444.056 589.162 441.866C597.663 436.882 606.509 432.52 615.114 427.743C630.581 419.19 650.584 407.275 650.843 387.237C650.929 380.478 644.825 373.994 637.91 374.305C630.995 374.615 625.081 379.978 624.977 387.237L625.012 387.324Z" fill="#FA4008"/>
<path d="M252.494 267.566C252.494 267.566 239.164 336.179 257.425 340.766C290.671 349.094 281.98 335.437 313.14 280.533" fill="#FAF1E7"/>
<path d="M242.526 264.807C240.923 273.101 239.784 281.516 238.853 289.914C237.37 303.312 236.456 317.159 239.043 330.488C240.164 336.248 242.492 342.421 246.958 346.439C252.562 351.474 260.874 352.422 268.081 353.181C273.737 353.767 279.583 352.957 284.618 350.181C289.653 347.404 293.154 342.8 295.947 338.041C299.672 331.661 302.466 324.746 305.569 318.073C310.656 307.088 316.123 296.311 322.089 285.775C324.762 281.067 323.365 274.256 318.382 271.618C313.398 268.98 307.07 270.307 304.224 275.325C299 284.551 294.137 293.983 289.602 303.571C286.584 309.951 283.791 316.452 280.652 322.763C279.531 325.022 278.359 327.264 276.979 329.385C276.721 329.781 276.462 330.161 276.186 330.557C274.841 332.523 277.824 328.609 276.755 329.85C276.134 330.574 275.531 331.281 274.824 331.919C273.962 332.713 272.461 333.299 275.669 331.333C275.358 331.523 275.065 331.764 274.738 331.971C274.41 332.178 274.082 332.333 273.772 332.523C271.841 333.592 276.721 331.54 274.582 332.178C273.824 332.402 273.082 332.592 272.306 332.764C270.427 333.178 275.686 332.506 273.306 332.609C272.772 332.626 272.22 332.678 271.685 332.678C270.582 332.678 269.495 332.626 268.409 332.523C267.409 332.419 265.202 331.954 269.185 332.661C268.357 332.523 267.53 332.402 266.702 332.247C265.391 332.006 264.081 331.73 262.77 331.419C261.908 331.23 261.046 331.04 260.184 330.799C260.011 330.747 259.822 330.678 259.649 330.643C258.149 330.316 262.322 332.023 261.184 331.316C260.856 331.109 260.477 330.868 260.132 330.695C260.891 331.074 262.46 332.713 261.098 331.35C260.822 331.074 260.58 330.73 260.305 330.471C262.857 332.954 261.529 332.144 260.856 331.005C260.598 330.574 260.391 330.126 260.167 329.695C259.218 327.919 261.218 332.488 260.546 330.592C260.132 329.419 259.753 328.229 259.46 327.005C259.166 325.781 258.925 324.539 258.718 323.298C258.287 320.59 258.925 325.194 258.787 323.867C258.701 323.056 258.597 322.228 258.528 321.418C258.27 318.383 258.166 315.348 258.166 312.313C258.166 305.933 258.597 299.553 259.218 293.207C259.546 289.965 259.925 286.723 260.339 283.482C260.546 281.809 259.925 286.465 260.167 284.809C260.218 284.465 260.27 284.12 260.305 283.775C260.408 282.999 260.529 282.24 260.632 281.464C260.805 280.274 260.994 279.084 261.184 277.912C261.581 275.394 261.994 272.859 262.477 270.359C263.512 265.065 260.994 258.944 255.252 257.633C250.131 256.461 243.63 259.185 242.526 264.858V264.807Z" fill="#FA4008"/>
<path d="M349.265 283.999C349.265 283.999 335.936 352.612 354.197 357.198C387.443 365.527 378.752 351.87 409.911 296.966" fill="#FAF1E7"/>
<path d="M339.28 281.24C337.676 289.534 336.538 297.949 335.607 306.347C334.124 319.745 333.21 333.592 335.797 346.921C336.918 352.681 339.246 358.854 343.712 362.872C349.316 367.907 357.627 368.856 364.835 369.614C370.491 370.201 376.337 369.39 381.372 366.614C386.407 363.838 389.908 359.234 392.701 354.474C396.426 348.094 399.219 341.179 402.323 334.506C407.41 323.522 412.877 312.744 418.843 302.208C421.516 297.501 420.119 290.69 415.136 288.051C410.152 285.413 403.823 286.741 400.978 291.759C395.753 300.984 390.891 310.416 386.356 320.004C383.338 326.384 380.544 332.885 377.406 339.196C376.285 341.455 375.113 343.697 373.733 345.818C373.475 346.215 373.216 346.594 372.94 346.99C371.595 348.956 374.578 345.042 373.509 346.283C372.888 347.008 372.285 347.715 371.578 348.353C370.716 349.146 369.215 349.732 372.423 347.766C372.112 347.956 371.819 348.198 371.491 348.404C371.164 348.611 370.836 348.767 370.526 348.956C368.595 350.025 373.474 347.973 371.336 348.611C370.578 348.836 369.836 349.025 369.06 349.198C367.181 349.612 372.44 348.939 370.06 349.043C369.526 349.06 368.974 349.111 368.439 349.111C367.336 349.111 366.249 349.06 365.163 348.956C364.163 348.853 361.956 348.387 365.939 349.094C365.111 348.956 364.284 348.836 363.456 348.68C362.145 348.439 360.835 348.163 359.524 347.853C358.662 347.663 357.8 347.473 356.938 347.232C356.765 347.18 356.576 347.111 356.403 347.077C354.903 346.749 359.076 348.456 357.938 347.749C357.61 347.542 357.231 347.301 356.886 347.128C357.645 347.508 359.214 349.146 357.852 347.784C357.576 347.508 357.334 347.163 357.058 346.904C359.61 349.387 358.283 348.577 357.61 347.439C357.352 347.008 357.145 346.559 356.92 346.128C355.972 344.352 357.972 348.922 357.3 347.025C356.886 345.852 356.507 344.663 356.213 343.438C355.92 342.214 355.679 340.972 355.472 339.731C355.041 337.024 355.679 341.628 355.541 340.3C355.455 339.489 355.351 338.662 355.282 337.851C355.024 334.816 354.92 331.781 354.92 328.747C354.92 322.366 355.351 315.986 355.972 309.64C356.3 306.399 356.679 303.157 357.093 299.915C357.3 298.242 356.679 302.898 356.92 301.243C356.972 300.898 357.024 300.553 357.058 300.208C357.162 299.432 357.283 298.673 357.386 297.897C357.559 296.708 357.748 295.518 357.938 294.345C358.334 291.828 358.748 289.293 359.231 286.792C360.266 281.499 357.748 275.377 352.006 274.067C346.885 272.894 340.384 275.618 339.28 281.292V281.24Z" fill="#FA4008"/>
<path d="M210.764 387.323C210.764 387.323 365.078 481.871 442.675 411.171L210.764 387.323Z" fill="#FAF1E7"/>
<path d="M205.539 396.256C210.798 399.48 216.247 402.395 221.714 405.257C235.854 412.672 250.425 419.311 265.254 425.243C283.446 432.519 302.19 438.589 321.383 442.607C341.851 446.884 363.165 449.211 384.029 446.815C404.894 444.418 426.018 437.417 443.279 424.07C445.59 422.294 447.832 420.449 450.004 418.483C454.022 414.845 453.988 407.499 450.004 403.843C445.711 399.894 439.658 399.963 435.364 403.843C434.45 404.671 433.519 405.499 432.554 406.292C432.105 406.654 431.674 407.033 431.226 407.395C430.967 407.602 430.709 407.809 430.467 408.016C429.174 409.068 432.191 406.723 431.208 407.447C429.26 408.878 427.311 410.31 425.277 411.62C421.224 414.241 416.948 416.552 412.551 418.535C412.016 418.776 411.395 419.156 410.826 419.294C410.585 419.363 413.223 418.311 412.206 418.707C411.913 418.828 411.619 418.949 411.326 419.069C410.154 419.535 408.981 419.983 407.809 420.414C405.584 421.208 403.343 421.932 401.084 422.587C396.445 423.915 391.737 424.949 386.978 425.708C386.357 425.812 385.719 425.898 385.099 426.001C384.857 426.036 384.633 426.07 384.392 426.105C383.15 426.294 386.978 425.777 385.719 425.932C384.461 426.088 383.185 426.243 381.909 426.363C379.512 426.605 377.115 426.777 374.701 426.898C369.752 427.139 364.803 427.139 359.871 426.933C354.939 426.726 349.887 426.312 344.921 425.725C344.352 425.656 343.783 425.588 343.196 425.519C340.661 425.191 344.955 425.777 343.489 425.57C342.179 425.381 340.868 425.191 339.575 425.001C337.126 424.622 334.695 424.208 332.246 423.742C313.089 420.156 294.345 414.396 276.152 407.43C272.014 405.843 267.91 404.171 263.806 402.464C262.806 402.05 265.599 403.222 265.306 403.102C265.047 402.998 264.789 402.877 264.53 402.774C264.013 402.55 263.513 402.343 262.995 402.119C261.995 401.688 260.995 401.257 259.995 400.808C258.184 400.015 256.374 399.204 254.563 398.377C248.148 395.463 241.803 392.393 235.526 389.169C228.991 385.823 222.662 382.185 216.265 378.581C216.179 378.529 216.092 378.477 216.006 378.426C211.385 375.598 204.418 377.27 201.849 382.133C199.28 386.996 200.625 393.273 205.556 396.29L205.539 396.256Z" fill="#FA4008"/>
<path d="M438.297 378.976C437.556 389.115 436.969 399.945 442.005 408.791C446.798 417.188 456.058 422.31 465.56 424.155C475.061 426 484.856 424.982 494.426 423.637" fill="#FAF1E7"/>
<path d="M427.95 378.977C427.019 391.979 426.933 406.308 435.21 417.189C444.039 428.811 457.42 434.209 471.698 435.312C480.233 435.968 488.752 434.778 497.184 433.605C499.564 433.278 502.219 430.812 503.375 428.846C504.668 426.621 505.22 423.362 504.409 420.879C503.599 418.396 502.047 415.965 499.65 414.689C497.012 413.292 494.598 413.24 491.683 413.654C491.132 413.74 490.58 413.809 490.045 413.878C491.425 413.689 491.511 413.671 490.321 413.826C489.355 413.93 488.39 414.068 487.424 414.171C485.355 414.396 483.286 414.568 481.216 414.689C479.285 414.792 477.354 414.844 475.422 414.792C473.646 414.758 471.353 414.93 469.663 414.43C472.198 415.189 469.37 414.361 468.732 414.258C467.956 414.12 467.197 413.947 466.438 413.775C464.973 413.413 463.507 412.982 462.076 412.464C461.662 412.309 461.265 412.171 460.851 411.999C462.317 412.637 462.541 412.723 461.524 412.275C460.938 411.999 460.351 411.723 459.765 411.43C458.334 410.688 456.954 409.86 455.627 408.929C453.523 407.446 456.92 410.171 455.437 408.774C454.816 408.188 454.161 407.653 453.557 407.032C453.109 406.584 452.695 406.084 452.264 405.636C451.574 404.791 451.712 404.998 452.678 406.239C452.419 405.894 452.178 405.549 451.936 405.205C451.574 404.67 451.247 404.118 450.919 403.566C450.678 403.153 450.453 402.722 450.229 402.29C449.746 401.256 449.798 401.428 450.384 402.808C449.557 401.583 449.212 399.445 448.884 398.048C448.695 397.238 448.574 396.41 448.401 395.583C448.281 394.789 448.315 395.117 448.522 396.548C448.47 396.065 448.419 395.583 448.367 395.1C448.212 393.393 448.143 391.703 448.126 389.996C448.091 386.323 448.35 382.65 448.608 378.994C449.005 373.58 443.573 368.406 438.262 368.648C432.33 368.906 428.33 373.2 427.916 378.994L427.95 378.977Z" fill="#FA4008"/>
<path d="M312.432 353.456C300.206 345.955 283.876 338.557 272.616 347.438C262.373 355.508 264.581 372.873 273.961 381.908C283.342 390.944 297.137 393.513 310.139 394.427" fill="#FAF1E7"/>
<path d="M317.656 344.524C308.551 338.954 298.705 334.316 287.979 333.212C277.254 332.108 266.201 336.885 260.079 346.128C254.837 354.042 254.371 365.009 257.303 373.856C260.545 383.615 267.252 391.358 276.236 396.324C286.617 402.066 298.464 403.929 310.138 404.774C315.552 405.17 320.725 399.738 320.484 394.427C320.225 388.496 315.932 384.495 310.138 384.081C308.224 383.943 306.292 383.771 304.396 383.564C303.947 383.512 303.12 383.236 302.706 383.357C302.895 383.305 305.275 383.753 303.43 383.443C302.309 383.253 301.188 383.081 300.067 382.857C299.119 382.667 288.98 379.805 289.031 379.701C289.135 379.546 291.101 380.65 289.669 379.96C289.169 379.718 288.669 379.494 288.169 379.236C287.376 378.839 286.6 378.425 285.841 377.977C284.979 377.477 284.151 376.942 283.324 376.373C282.962 376.132 282.617 375.821 282.255 375.597L283.306 376.39C282.962 376.114 282.617 375.821 282.289 375.528C281.685 374.994 281.082 374.425 280.53 373.838C280.271 373.562 280.047 373.286 279.789 373.011C278.685 371.855 280.289 373.666 280.358 373.804C279.565 372.338 278.478 371.045 277.719 369.527C277.564 369.234 277.426 368.803 277.237 368.51C278.582 370.562 277.857 370.114 277.547 369.165C277.306 368.458 277.064 367.751 276.857 367.027C276.633 366.217 276.478 365.406 276.288 364.578C276.099 363.751 276.34 362.94 276.409 365.682C276.409 365.13 276.288 364.578 276.254 364.044C276.167 362.578 276.34 361.164 276.374 359.716C276.271 362.975 276.271 360.699 276.547 359.595C276.754 358.836 277.099 358.112 277.288 357.353C276.668 359.871 276.512 359.009 277.012 358.164C277.185 357.871 277.34 357.543 277.53 357.25C277.719 356.957 277.926 356.663 278.099 356.37C278.72 355.232 276.288 358.388 277.599 357.008C278.099 356.491 278.599 355.991 279.099 355.474C279.651 354.905 280.306 354.956 278.357 355.991C278.909 355.698 279.427 355.25 279.961 354.939C280.323 354.732 280.703 354.543 281.065 354.336C281.892 353.887 282.22 354.301 280.306 354.646C281.082 354.508 281.875 354.111 282.651 353.939C282.858 353.887 283.634 353.836 283.858 353.698C282.565 354.491 281.737 353.922 283.255 353.818C284.186 353.749 285.134 353.749 286.065 353.784C286.6 353.801 287.117 353.87 287.652 353.904C288.962 353.991 285.272 353.473 287.152 353.836C288.238 354.042 289.325 354.267 290.394 354.543C292.601 355.129 294.687 356.112 296.86 356.75C296.619 356.681 294.67 355.767 296.308 356.543C296.946 356.836 297.584 357.129 298.205 357.422C299.257 357.922 300.292 358.457 301.309 359.009C303.309 360.078 305.275 361.216 307.206 362.406C311.828 365.234 318.794 363.561 321.364 358.698C323.933 353.836 322.588 347.559 317.656 344.541V344.524Z" fill="#FA4008"/>
</svg>
