<svg width="501" height="611" viewBox="0 0 501 611" fill="none" xmlns="http://www.w3.org/2000/svg">
<path d="M84.5239 171.755C68.0714 140.611 61.9296 104.982 60.2503 69.8101C47.7671 69.8218 35.2838 69.8453 22.7536 69.8688C10.1999 71.5128 26.8051 144.287 29.0481 153C40.4509 197.073 70.1617 239.455 110.629 261.427C119.519 266.254 193.561 290.868 197.448 275.789C203.637 251.833 199.351 249.813 176.193 241.851C166.657 238.574 156.523 236.919 147.257 232.891C120.142 221.136 98.1462 197.578 84.5004 171.766L84.5239 171.755Z" fill="#FAF1E7"/>
<path d="M90.6078 168.208C88.9755 165.108 87.4371 161.972 85.9926 158.79C85.7108 158.156 85.4172 157.51 85.1354 156.876C84.9593 156.477 84.7831 156.077 84.6187 155.678L84.513 155.443C84.2076 154.727 84.2429 154.797 84.6069 155.678C84.3838 155.631 83.7849 153.682 83.7144 153.494C83.3621 152.601 83.0098 151.709 82.6575 150.816C80.2149 144.463 78.1128 137.969 76.3279 131.404C74.5429 124.84 73.0749 118.31 71.8535 111.675C71.2311 108.305 70.6792 104.923 70.186 101.529C70.0686 100.742 69.9629 99.9672 69.8572 99.1804C69.7985 98.7459 69.5636 97.4894 69.8572 99.2274C69.7985 98.8868 69.7633 98.5228 69.7163 98.1822C69.4932 96.4325 69.2818 94.6945 69.0939 92.9447C68.2366 85.2645 67.6612 77.5491 67.2854 69.8336C67.0975 66.0288 64.2086 62.7876 60.2394 62.7876C52.6297 62.7876 45.0199 62.8111 37.4102 62.8228C33.6053 62.8228 29.7887 62.8228 25.9838 62.8346C23.1889 62.8346 20.5819 62.7406 18.104 64.1616C12.5846 67.3206 11.5395 74.4253 11.1754 80.1561C10.7526 86.8733 11.4103 93.6728 12.1853 100.331C13.1718 108.775 14.4988 117.183 16.0372 125.556C18.1862 137.253 20.441 149.066 23.8113 160.493C30.7634 184.05 42.3776 205.998 57.5854 225.246C64.9602 234.57 73.2628 243.155 82.4461 250.717C87.2844 254.698 92.3223 258.456 97.5716 261.874C101.001 264.105 104.535 266.383 108.246 268.109C113.155 270.387 118.287 272.184 123.407 273.922C130.43 276.318 137.534 278.49 144.698 280.463C152.319 282.554 160.011 284.433 167.797 285.795C174.55 286.981 181.654 288.132 188.536 287.568C194.96 287.04 201.9 284.938 204.119 278.126C205.599 273.593 206.41 268.626 206.891 263.905C207.255 260.406 207.149 256.577 205.869 253.266C204.284 249.132 201.677 246.114 198.083 243.566C194.807 241.24 190.908 239.772 187.197 238.34C181.995 236.343 176.71 234.523 171.355 233.008C164.579 231.106 157.698 229.544 151.133 226.949C150.804 226.819 150.452 226.702 150.135 226.549C151.685 227.301 150.276 226.596 149.971 226.467C149.407 226.221 148.843 225.962 148.291 225.704C146.823 225.023 145.379 224.306 143.946 223.555C141.281 222.157 138.674 220.654 136.125 219.045C133.577 217.436 131.216 215.804 128.844 214.054C128.504 213.808 126.425 212.14 128.046 213.467C127.506 213.021 126.942 212.61 126.402 212.164C125.133 211.142 123.877 210.097 122.644 209.016C118.111 205.082 113.848 200.831 109.879 196.334C108.892 195.218 107.929 194.102 106.978 192.963C106.027 191.824 104.747 190.615 104.042 189.323C104.735 190.603 104.582 190.039 104.289 189.64C104.054 189.335 103.819 189.017 103.584 188.712C103.161 188.148 102.75 187.597 102.328 187.021C101.412 185.765 100.519 184.496 99.6385 183.216C96.3386 178.401 93.3205 173.387 90.5843 168.232C88.858 164.967 84.055 163.699 80.943 165.707C77.6314 167.844 76.5627 171.86 78.4181 175.348C89.821 196.839 106.203 216.004 126.472 229.567C131.275 232.785 136.325 235.639 141.586 238.058C148.127 241.076 154.903 243.166 161.843 245.033C167.856 246.642 173.763 248.427 179.635 250.518C181.666 251.246 183.686 251.997 185.682 252.808C186.645 253.195 184.825 252.432 184.837 252.455C184.978 252.596 185.33 252.667 185.506 252.749C185.894 252.925 186.281 253.101 186.657 253.277C187.444 253.653 188.219 254.041 188.982 254.475C189.593 254.827 190.204 255.192 190.791 255.603C190.908 255.685 191.037 255.779 191.155 255.861C192.012 256.425 189.746 254.71 190.333 255.215C190.626 255.462 190.932 255.708 191.214 255.967C191.601 256.319 192 257.024 192.447 257.282C192.071 257.059 191.249 255.556 191.918 256.636C192.118 256.965 192.329 257.282 192.505 257.634C192.623 257.857 192.717 258.104 192.846 258.339C191.648 256.143 192.317 257.035 192.552 257.763C192.752 258.397 192.869 259.043 192.999 259.689C193.175 260.476 192.775 257.528 192.846 258.585C192.846 258.738 192.881 258.891 192.893 259.032C192.928 259.419 192.952 259.818 192.952 260.206C192.975 261.016 192.952 261.838 192.893 262.649C192.869 263.071 192.822 263.482 192.787 263.905C192.764 264.093 192.74 264.293 192.728 264.481C192.623 265.69 192.987 262.766 192.846 263.659C192.67 264.739 192.505 265.819 192.294 266.9C191.836 269.272 191.202 271.597 190.662 273.946C190.662 273.981 190.497 274.498 190.485 274.498C190.45 274.486 191.484 272.29 190.92 273.37C190.838 273.523 190.709 273.652 190.638 273.793C191.531 271.855 191.918 272.325 191.296 272.889C191.202 272.971 190.908 273.171 190.861 273.288C190.932 273.135 192.74 272.02 191.789 272.548C191.401 272.76 191.014 272.971 190.626 273.182C193.01 271.844 191.824 272.713 190.932 272.983C190.415 273.135 189.887 273.265 189.358 273.37C189.1 273.417 188.841 273.464 188.583 273.5C187.42 273.711 190.791 273.253 189.464 273.382C188.818 273.441 188.172 273.511 187.526 273.546C184.625 273.699 181.713 273.535 178.824 273.253C178.049 273.182 177.274 273.088 176.499 272.995C176.135 272.948 174.597 272.748 176.112 272.948C177.626 273.147 175.771 272.901 175.43 272.842C173.692 272.584 171.966 272.302 170.24 271.985C166.47 271.292 162.724 270.481 158.99 269.601C145.449 266.383 132.003 262.378 118.992 257.435C117.982 257.047 116.972 256.648 115.962 256.237C114.33 255.567 117.829 257.047 116.338 256.401C115.985 256.248 115.645 256.096 115.292 255.931C111.664 254.24 108.211 252.009 104.853 249.837C102.445 248.275 100.085 246.654 97.7712 244.951C97.1606 244.505 96.5499 244.059 95.951 243.601C95.7162 243.425 95.4696 243.225 95.2347 243.049C96.6557 244.059 95.8923 243.566 95.587 243.319C94.4009 242.379 93.2148 241.44 92.0405 240.477C87.5897 236.79 83.3504 232.867 79.3224 228.722C75.2944 224.576 71.4425 220.196 67.8256 215.652C67.6377 215.417 67.4498 215.17 67.2619 214.935C67.168 214.818 66.1933 213.667 66.9683 214.559C67.7434 215.452 66.7687 214.301 66.6747 214.184C66.4868 213.937 66.299 213.69 66.1228 213.455C65.1951 212.234 64.2909 211.001 63.4101 209.756C61.7191 207.384 60.0867 204.977 58.5013 202.534C55.3893 197.719 52.5122 192.752 49.8582 187.655C48.5194 185.083 47.2394 182.488 46.0298 179.858C45.4544 178.613 44.8907 177.368 44.3505 176.111C44.1626 175.665 43.2936 173.54 44.0804 175.489C43.7986 174.784 43.4933 174.092 43.2114 173.387C37.9974 160.528 34.7327 147.246 31.9377 133.694C30.4463 126.437 29.0723 119.156 27.898 111.84C27.5809 109.902 27.2874 107.964 27.0056 106.015C26.8764 105.099 26.7472 104.183 26.618 103.279C26.9938 105.98 26.712 103.925 26.6298 103.338C26.571 102.833 26.5005 102.339 26.4418 101.834C25.9956 98.2174 25.6198 94.5888 25.385 90.96C25.1853 87.8363 25.0678 84.7008 25.1853 81.577C25.2323 80.3557 25.608 78.8995 25.4789 77.69C25.5141 78.0423 25.1383 79.9212 25.3615 78.6529C25.4084 78.3594 25.4554 78.0775 25.5141 77.7839C25.6081 77.279 25.7255 76.774 25.8664 76.2808C25.9838 75.858 26.1365 75.447 26.2774 75.036C26.6062 74.0613 25.3145 77.0089 25.8547 76.0459C25.9604 75.8463 26.0543 75.6349 26.1718 75.447C26.254 75.3061 26.3949 75.1534 26.4536 75.0125C26.665 74.5193 25.0326 76.7623 25.7255 75.9755C25.8194 75.8698 25.9838 75.7758 26.0543 75.6466C26.2657 75.3413 24.2223 76.9149 25.1031 76.3982C26.0778 75.8345 23.4825 77.0441 23.9405 76.8562C24.0814 76.7975 24.2224 76.774 24.3633 76.7388C25.0209 76.5509 23.4355 77.4786 23.3181 76.9501C23.3181 76.9736 24.5864 76.9501 24.4925 76.9501C25.4672 76.9501 26.4536 76.9501 27.4283 76.9501C31.1392 76.9501 34.8501 76.9502 38.561 76.9384C45.7832 76.9384 53.0054 76.9149 60.2276 76.9032L53.1816 69.8571C54.5321 97.8887 58.5014 126.225 68.3188 152.636C71.2077 160.411 74.5546 168.02 78.4181 175.36C80.1327 178.625 84.9592 179.881 88.0595 177.885C91.3829 175.747 92.428 171.743 90.5843 168.243L90.6078 168.208Z" fill="#FA4008"/>
<path d="M412.141 382.994C428.277 413.539 431.976 445.669 436.673 479.325C436.932 481.216 437.331 483.33 438.905 484.41C440.067 485.209 441.594 485.221 443.003 485.197C453.455 485.033 463.906 484.868 474.358 484.704C477.094 410.556 456.52 331.652 386.012 293.345C377.134 288.519 303.08 263.904 299.182 278.983C292.993 302.94 297.279 304.959 320.437 312.921C329.973 316.198 340.107 317.854 349.373 321.882C376.488 333.637 398.484 357.194 412.13 383.006L412.141 382.994Z" fill="#FAF1E7"/>
<path d="M406.059 386.553C407.186 388.69 408.266 390.863 409.3 393.059C409.758 394.022 410.192 394.985 410.627 395.959C410.873 396.523 411.12 397.087 411.367 397.662C411.437 397.815 411.778 398.649 411.425 397.791C411.073 396.934 411.508 398.003 411.578 398.167C413.34 402.43 414.925 406.775 416.346 411.155C419.164 419.845 421.325 428.735 423.11 437.684C424.907 446.714 426.304 455.816 427.608 464.928C428.266 469.555 428.9 474.194 429.546 478.821C429.91 481.404 430.227 483.718 431.366 486.102C432.74 488.991 435.64 491.222 438.752 491.856C441.841 492.49 445.094 492.197 448.229 492.15C451.13 492.103 454.042 492.056 456.943 492.009C462.756 491.915 468.557 491.821 474.37 491.739C478.281 491.68 481.275 488.556 481.416 484.693C482.109 465.715 481.193 446.75 478.563 427.948C476.026 409.875 471.693 392.002 464.987 375.021C458.282 358.04 448.734 340.836 436.697 326.098C424.59 311.278 409.64 298.748 393.071 289.2C384.298 284.15 374.422 281.109 364.816 278.103C351.969 274.075 338.851 270.469 325.534 268.45C319.768 267.581 313.791 266.723 307.954 267.252C302.552 267.733 296.681 269.178 293.674 274.18C292.817 275.613 292.406 277.175 292.007 278.76C291.49 280.827 291.02 282.906 290.633 284.996C289.987 288.507 289.376 292.183 289.682 295.765C289.975 299.17 290.739 302.552 292.7 305.43C294.661 308.307 297.186 310.491 300.145 312.241C303.41 314.178 307.027 315.552 310.573 316.879C315.083 318.57 319.639 320.156 324.266 321.494C330.161 323.197 336.162 324.571 341.975 326.544C343.337 327.002 344.688 327.519 346.026 328.047C346.367 328.188 347.26 328.388 345.839 327.965C346.12 328.047 346.426 328.223 346.684 328.341C347.318 328.623 347.952 328.905 348.575 329.21C350.876 330.29 353.143 331.453 355.362 332.698C359.954 335.269 364.358 338.158 368.55 341.317C368.797 341.505 369.044 341.705 369.29 341.881C369.149 341.787 368.01 340.883 368.973 341.634C369.455 342.022 369.948 342.41 370.429 342.797C371.463 343.631 372.473 344.476 373.471 345.334C375.42 347.013 377.323 348.739 379.166 350.524C382.983 354.212 386.588 358.122 389.959 362.209C390.757 363.172 391.532 364.146 392.307 365.121C392.554 365.427 393.176 366.072 392.061 364.804C392.26 365.039 392.448 365.309 392.624 365.544C393.047 366.096 393.47 366.66 393.881 367.223C395.443 369.349 396.958 371.51 398.414 373.706C401.162 377.863 403.71 382.161 406.047 386.576C407.773 389.841 412.576 391.109 415.688 389.101C419 386.964 420.069 382.948 418.213 379.46C408.501 361.14 395.126 344.312 378.732 331.523C369.948 324.665 360.577 318.911 350.254 314.672C344.735 312.405 338.969 310.902 333.214 309.352C327.977 307.943 322.821 306.345 317.713 304.537C315.94 303.915 314.167 303.269 312.417 302.576C312.018 302.423 311.63 302.259 311.242 302.106C309.704 301.472 312.522 302.682 311.536 302.224C310.808 301.895 310.08 301.578 309.364 301.225C308.154 300.626 306.968 299.969 305.852 299.194C305.312 298.818 304.537 298.019 306.392 299.64C306.181 299.452 305.958 299.288 305.735 299.1C305.3 298.724 304.913 298.301 304.513 297.89C303.621 296.951 305.136 298.466 305.054 298.63C305.077 298.571 304.655 298.066 304.608 297.996C304.478 297.785 303.95 296.505 303.785 296.469C304.032 296.528 304.584 298.536 304.138 297.233C304.067 297.009 303.997 296.786 303.938 296.552C303.868 296.281 303.797 296.011 303.75 295.741C303.727 295.6 303.703 295.459 303.668 295.318C303.433 294.309 303.832 296.375 303.809 296.434C303.973 296.093 303.68 294.978 303.68 294.579C303.656 293.851 303.68 293.134 303.727 292.406C303.774 291.678 303.856 290.903 303.938 290.151C304.02 289.318 303.68 291.96 303.809 291.126C303.844 290.915 303.868 290.715 303.903 290.504C303.973 290.022 304.056 289.541 304.138 289.059C304.49 287.051 304.936 285.066 305.43 283.082C305.629 282.26 305.876 281.438 306.064 280.616C306.287 279.606 305.7 281.684 305.559 281.767C305.653 281.708 305.77 281.367 305.829 281.273C306.463 280.181 304.279 282.87 305.371 281.896C305.465 281.802 305.582 281.708 305.676 281.614C306.193 281.027 303.915 282.788 304.784 282.307C305.089 282.142 305.382 281.954 305.676 281.778C306.639 281.226 304.842 282.189 304.619 282.201C304.807 282.201 305.054 282.037 305.23 281.966C306.075 281.673 306.944 281.496 307.813 281.332C309.105 281.085 307.003 281.602 306.827 281.449C306.898 281.508 307.449 281.379 307.567 281.367C308.119 281.309 308.671 281.273 309.223 281.238C311.677 281.121 314.131 281.226 316.574 281.426C318.03 281.543 319.486 281.72 320.943 281.896C321.988 282.025 318.852 281.602 320.273 281.802C320.637 281.849 321.001 281.907 321.365 281.954C322.152 282.072 322.939 282.189 323.726 282.33C326.943 282.859 330.138 283.493 333.32 284.197C339.932 285.642 346.484 287.368 352.979 289.247C358.85 290.95 364.687 292.782 370.464 294.766C372.754 295.553 375.044 296.375 377.311 297.233C378.227 297.573 379.131 297.925 380.047 298.301C380.399 298.442 380.763 298.595 381.116 298.736C381.797 299.018 379.037 297.843 380.082 298.301C380.282 298.383 380.482 298.477 380.681 298.56C383.042 299.605 385.261 300.944 387.481 302.259C391.509 304.643 395.431 307.191 399.224 309.927C400.14 310.585 401.056 311.254 401.96 311.935C402.348 312.229 402.747 312.534 403.135 312.828C401.385 311.524 403.276 312.945 403.698 313.286C405.436 314.672 407.151 316.092 408.83 317.56C412.248 320.531 415.524 323.667 418.659 326.932C421.748 330.161 424.695 333.52 427.502 336.996C427.843 337.419 428.172 337.841 428.512 338.264C428.677 338.475 428.841 338.687 429.005 338.898C428.947 338.816 427.948 337.512 428.641 338.428C429.334 339.344 430.015 340.249 430.696 341.176C432 342.961 433.268 344.77 434.501 346.614C439.387 353.906 443.685 361.586 447.407 369.525C448.347 371.533 449.251 373.553 450.12 375.596C450.296 375.996 450.566 376.829 449.885 375.033C449.979 375.279 450.097 375.526 450.19 375.772C450.402 376.266 450.602 376.771 450.801 377.264C451.2 378.262 451.6 379.26 451.987 380.27C453.596 384.427 455.052 388.643 456.391 392.906C459.08 401.491 461.229 410.251 462.909 419.094C463.742 423.486 464.459 427.89 465.069 432.317C465.304 434.055 464.87 430.755 465.093 432.493C465.163 433.045 465.234 433.585 465.304 434.137C465.445 435.3 465.586 436.462 465.715 437.625C465.974 439.891 466.197 442.158 466.396 444.424C467.183 453.432 467.571 462.474 467.582 471.516C467.582 475.92 467.512 480.312 467.348 484.716L474.394 477.67C464.423 477.823 454.453 477.987 444.483 478.14C443.92 478.14 443.356 478.163 442.792 478.163C442.475 478.163 440.984 478.011 442.064 478.222C443.144 478.433 442.228 478.269 442.064 478.198C442.052 478.198 443.379 478.833 442.686 478.469C441.923 478.069 443.462 479.161 443.614 479.326C444.413 480.148 443.509 478.786 443.92 479.854C444.331 480.923 443.884 479.608 443.814 479.326C443.72 478.915 443.638 478.504 443.579 478.093C443.403 477.012 443.274 475.92 443.121 474.84C442.487 470.295 441.864 465.75 441.218 461.217C438.705 443.591 435.793 425.94 430.438 408.924C427.244 398.79 423.192 388.878 418.248 379.472C416.534 376.207 411.707 374.95 408.607 376.947C405.284 379.096 404.238 383.089 406.082 386.588L406.059 386.553Z" fill="#FA4008"/>
<path d="M484.85 489.992C493.411 475.163 484.879 454.21 465.793 443.19C446.707 432.171 424.295 435.259 415.734 450.087C407.173 464.916 415.705 485.869 434.79 496.889C453.876 507.908 476.288 504.82 484.85 489.992Z" fill="#FA4008"/>
<path d="M478.763 486.43C478.352 487.123 477.917 487.781 477.459 488.45C477.353 488.603 477.224 488.732 477.13 488.896C477.095 488.967 478.164 487.663 477.671 488.192C477.377 488.497 477.13 488.849 476.848 489.155C476.32 489.742 475.768 490.294 475.193 490.834C474.876 491.116 474.559 491.386 474.241 491.668C473.431 492.396 475.58 490.717 474.371 491.574C473.067 492.49 471.717 493.335 470.284 494.04C469.908 494.228 469.462 494.369 469.098 494.592C469.027 494.639 470.624 494.005 469.92 494.24C469.744 494.298 469.568 494.381 469.391 494.451C468.558 494.768 467.712 495.05 466.867 495.297C466.127 495.508 465.375 495.696 464.612 495.86C464.166 495.954 463.719 496.048 463.261 496.119C463.062 496.154 462.874 496.177 462.674 496.212C461.7 496.389 463.156 496.142 463.367 496.13C461.535 496.283 459.738 496.459 457.895 496.436C457.061 496.436 456.227 496.389 455.393 496.33C454.9 496.295 454.407 496.248 453.925 496.201C453.714 496.177 453.503 496.154 453.291 496.13C452.364 496.036 454.818 496.377 453.89 496.212C451.941 495.872 450.027 495.496 448.112 494.968C447.243 494.721 446.386 494.451 445.541 494.157C445.036 493.981 444.542 493.805 444.049 493.617C443.838 493.535 443.626 493.453 443.403 493.371C442.534 493.042 443.485 493.394 443.814 493.559C441.994 492.631 440.127 491.844 438.342 490.822C436.557 489.801 434.948 488.661 433.292 487.499C432.658 487.053 433.868 487.957 433.844 487.933C433.68 487.792 433.504 487.663 433.327 487.522C432.928 487.205 432.541 486.888 432.153 486.559C431.449 485.961 430.756 485.338 430.086 484.692C428.724 483.389 427.444 482.015 426.246 480.559C426.117 480.406 425.988 480.241 425.859 480.077C425.365 479.49 426.364 480.746 426.328 480.699C426.105 480.371 425.847 480.054 425.6 479.725C425.06 478.961 424.532 478.186 424.038 477.4C423.111 475.908 422.3 474.358 421.549 472.773C421.467 472.608 421.408 472.409 421.314 472.244C421.267 472.162 421.913 473.759 421.654 473.055C421.525 472.702 421.373 472.35 421.243 471.998C420.938 471.187 420.668 470.354 420.422 469.52C420.198 468.756 420.01 467.993 419.846 467.218C419.776 466.866 419.705 466.513 419.635 466.149C419.517 465.503 419.517 463.942 419.623 466.243C419.552 464.705 419.376 463.214 419.435 461.663C419.447 461.311 419.47 460.971 419.494 460.618C419.517 460.266 419.693 458.833 419.517 460.172C419.341 461.511 419.517 460.219 419.576 459.914C419.646 459.514 419.729 459.127 419.823 458.728C419.987 457.999 420.187 457.271 420.422 456.567C420.527 456.238 420.656 455.909 420.762 455.592C421.267 454.148 420.069 457.025 420.715 455.674C421.361 454.324 422.171 452.926 423.064 451.623C423.898 450.401 422.195 452.633 422.958 451.74C423.193 451.47 423.428 451.188 423.674 450.918C424.238 450.284 424.837 449.685 425.471 449.121C425.741 448.875 426.023 448.652 426.293 448.405C427.186 447.607 425.037 449.298 426.011 448.605C426.704 448.112 427.409 447.618 428.137 447.184C428.818 446.773 429.523 446.385 430.251 446.033C430.58 445.869 430.932 445.728 431.261 445.563C431.918 445.223 430.356 445.927 430.439 445.904C430.732 445.81 431.026 445.669 431.319 445.563C432.881 444.976 434.478 444.518 436.111 444.177C436.498 444.095 436.874 444.025 437.261 443.954C437.52 443.907 437.778 443.872 438.037 443.825C438.812 443.684 437.05 443.943 437.144 443.943C438.084 443.86 439.011 443.743 439.951 443.696C441.736 443.602 443.532 443.626 445.329 443.766C445.752 443.802 446.175 443.837 446.597 443.884C446.809 443.907 447.02 443.931 447.232 443.954C448.159 444.048 445.705 443.72 446.633 443.872C447.56 444.025 448.488 444.178 449.404 444.377C451.365 444.8 453.303 445.34 455.194 446.009C455.628 446.162 456.051 446.315 456.474 446.479C456.932 446.655 458.458 447.407 456.708 446.55C457.613 446.996 458.552 447.372 459.457 447.83C461.324 448.757 463.12 449.803 464.858 450.953C465.598 451.447 466.326 451.963 467.043 452.48C468.053 453.208 465.951 451.599 467.184 452.586C467.583 452.903 467.97 453.22 468.358 453.549C469.814 454.794 471.2 456.121 472.492 457.518C473.055 458.129 473.596 458.751 474.124 459.385C474.453 459.773 475.357 461.088 474.171 459.397C474.441 459.784 474.735 460.148 475.005 460.536C476.003 461.933 476.919 463.39 477.729 464.905C478.128 465.644 478.504 466.384 478.857 467.148C478.939 467.324 479.009 467.5 479.091 467.664C479.432 468.334 478.727 466.772 478.751 466.854C478.904 467.324 479.127 467.793 479.303 468.263C479.855 469.766 480.301 471.305 480.63 472.867C480.712 473.278 480.794 473.689 480.865 474.111C480.912 474.417 481.1 475.732 480.924 474.417C480.747 473.101 480.912 474.417 480.935 474.722C480.982 475.192 481.006 475.662 481.029 476.131C481.053 476.836 481.064 477.529 481.029 478.233C481.017 478.644 480.994 479.044 480.959 479.455C480.935 479.783 480.759 481.251 480.935 479.901C481.111 478.55 480.9 480.054 480.841 480.335C480.783 480.676 480.712 481.017 480.63 481.345C480.454 482.132 480.231 482.907 479.972 483.671C479.867 483.999 479.737 484.316 479.62 484.645C479.232 485.761 480.313 483.177 479.796 484.246C479.444 484.986 479.08 485.714 478.681 486.43C476.86 489.636 477.812 494.275 481.205 496.072C484.599 497.868 488.897 496.964 490.847 493.547C499.525 478.257 493.782 459.961 482.579 447.7C470.143 434.102 450.167 426.621 431.965 430.684C423.486 432.575 416.088 437.366 410.98 444.377C406.459 450.589 404.603 458.857 405.507 466.431C407.703 484.704 421.326 499.266 437.884 506.253C453.573 512.876 474.758 512.606 486.854 498.984C488.345 497.305 489.708 495.484 490.847 493.547C492.714 490.364 491.68 485.679 488.322 483.905C484.963 482.132 480.677 483.036 478.681 486.43H478.763Z" fill="#FA4008"/>
<path d="M148.129 16.2558L25.3343 47.99C21.2526 49.0448 18.799 53.2087 19.8538 57.2903L22.848 68.8762C23.9028 72.9578 28.0667 75.4115 32.1483 74.3567L154.943 42.6225C159.024 41.5677 161.478 37.4038 160.423 33.3221L157.429 21.7363C156.374 17.6547 152.21 15.201 148.129 16.2558Z" fill="#FA4008"/>
<path d="M87.3197 12.6898C82.3522 10.3646 76.3278 12.1144 71.9006 16.6004C69.3053 13.8407 66.2285 11.5507 62.682 9.8949C44.7615 1.52185 22.0028 12.361 11.8448 34.1098C1.68676 55.8586 7.9812 80.2614 25.9134 88.6344C43.8338 97.0075 66.5926 86.1683 76.7506 64.4195C79.9096 57.6553 81.4715 50.6328 81.6006 43.9038C85.9222 42.4946 89.9854 38.9128 92.3576 33.8279C96.3386 25.3022 94.0839 15.837 87.3314 12.6898H87.3197Z" fill="#FA4008"/>
<path d="M90.866 6.60697C86.6031 4.71628 82.305 4.11736 77.7251 5.24473C73.6267 6.25466 69.8806 8.67382 66.9095 11.6097H76.8796C70.4208 4.84547 61.8715 0.970161 52.6295 0.13638C44.9845 -0.556481 37.2808 1.45162 30.4579 4.775C15.4616 12.0911 4.56377 27.5572 1.2169 43.7279C-2.12997 59.8986 1.21686 77.9364 13.8763 88.9987C20.1472 94.4829 27.6865 97.6184 35.9656 98.3699C43.6693 99.0628 51.4434 97.0312 58.3133 93.6491C73.9673 85.9219 85.2645 69.258 87.848 52.1479C88.259 49.4117 88.5761 46.6755 88.6348 43.904L83.4677 50.7035C92.4279 47.6619 99.333 39.4885 100.871 30.1173C102.41 20.746 99.6148 10.8816 90.8777 6.61873C87.5661 5.00988 83.1037 5.60879 81.2365 9.14355C79.5689 12.3143 80.2265 17.0586 83.7612 18.7849C84.3719 19.0902 84.9239 19.4543 85.4993 19.8066C86.1922 20.2293 84.2662 18.6792 85.0648 19.5012C85.3231 19.7596 85.5932 20.0062 85.8281 20.2763C86.016 20.4877 86.7793 21.3332 85.969 20.4055C85.1587 19.4777 85.8868 20.3468 86.0395 20.6051C86.2391 20.9222 86.4153 21.251 86.5914 21.5798C86.7206 21.8264 87.249 22.8833 86.6971 21.7677C86.1452 20.6521 86.6502 21.7207 86.7441 22.0026C86.8615 22.3784 86.9672 22.7542 87.0611 23.1299C87.1433 23.447 87.1904 23.7758 87.2608 24.1046C87.4487 24.9619 87.1082 22.3784 87.1904 23.6349C87.2374 24.3982 87.2726 25.1498 87.2491 25.9131C87.2373 26.2654 87.2021 26.6177 87.1786 26.97C87.0964 28.4849 87.5309 25.3142 87.2021 26.8056C87.0377 27.5337 86.8967 28.2501 86.6853 28.9664C86.5562 29.4009 86.4035 29.8237 86.2626 30.2582C85.8516 31.4795 86.7441 29.2952 86.3566 30.0821C85.969 30.8689 85.5932 31.6322 85.147 32.3838C84.9473 32.7126 84.736 33.0296 84.5128 33.3467C83.9022 34.2392 84.1723 33.5933 84.6655 33.194C84.0666 33.6755 83.5851 34.4388 83.0214 34.979C82.7631 35.2256 82.4812 35.4605 82.2229 35.7071C81.1542 36.7288 83.5381 34.8499 82.3168 35.6484C81.7414 36.0242 81.1777 36.4117 80.5671 36.7405C80.2265 36.9284 79.8154 37.0694 79.4866 37.269L80.4379 36.858C80.1913 36.9519 79.9447 37.0341 79.6981 37.1163C76.68 38.138 74.6014 40.6629 74.531 43.9158C74.5075 44.9257 74.4605 45.9474 74.3783 46.9573C74.3313 47.474 74.2843 47.979 74.2256 48.4957C74.2021 48.6836 74.0964 49.5643 74.2256 48.5896C74.3548 47.5562 74.1904 48.7423 74.1669 48.942C73.8029 51.2084 73.2744 53.4514 72.605 55.6474C72.2879 56.6926 71.9356 57.7143 71.5598 58.736C71.4659 58.9826 70.8318 60.474 71.2076 59.6872C71.5833 58.9004 71.1841 59.7341 71.1253 59.8633C70.9727 60.2039 70.8201 60.5444 70.6674 60.885C69.8923 62.5525 69.0233 64.1731 68.0838 65.7468C67.1444 67.3204 66.0639 68.8588 64.9601 70.3619C64.5021 70.9843 65.4533 69.7395 65.4181 69.7747C65.2771 69.9274 65.1598 70.1036 65.0188 70.268C64.7605 70.5968 64.4903 70.9138 64.2202 71.2309C63.633 71.912 63.0342 72.5814 62.4118 73.2273C61.2374 74.4486 60.0161 75.6112 58.7243 76.7151C58.419 76.9735 58.1137 77.2318 57.7966 77.4784C57.6439 77.6076 57.4795 77.725 57.3268 77.8542C57.2681 77.9012 58.5834 76.9147 57.961 77.3493C57.2095 77.8777 56.4813 78.4296 55.7062 78.9346C54.3558 79.8153 52.97 80.6256 51.5374 81.3537C50.868 81.6943 50.1281 81.9527 49.4823 82.3284C49.4001 82.3754 50.9972 81.7178 50.2926 81.9879C50.1164 82.0583 49.9403 82.1288 49.7758 82.1992C49.3648 82.3637 48.9656 82.5046 48.5546 82.6573C47.1101 83.174 45.6304 83.5967 44.1273 83.9255C43.3522 84.0899 42.5772 84.2074 41.8021 84.3483C41.027 84.4892 42.906 84.2191 42.7768 84.2191C42.6007 84.2191 42.4128 84.2661 42.2366 84.2779C41.8138 84.3131 41.4028 84.3601 40.98 84.3835C39.4886 84.4892 37.9972 84.4775 36.5058 84.3835C36.1535 84.3601 35.7895 84.3248 35.4372 84.2896C35.2728 84.2778 35.0614 84.2778 34.9087 84.2309C34.7561 84.1839 36.6585 84.5245 35.8951 84.3601C35.1318 84.1957 34.3685 84.09 33.6052 83.9138C32.0668 83.5498 30.6341 82.9391 29.131 82.4811C29.037 82.4576 30.6341 83.174 29.9765 82.8334C29.8121 82.7512 29.6359 82.6807 29.4715 82.6103C29.131 82.4459 28.7787 82.2815 28.4381 82.1053C27.71 81.7295 26.9937 81.3303 26.3008 80.8957C25.6666 80.4965 25.056 80.0737 24.4453 79.6392C24.2926 79.5335 24.1517 79.4043 23.9991 79.3104C23.9286 79.2634 25.2321 80.3321 24.6919 79.8389C24.3749 79.5453 24.0226 79.2869 23.6938 78.9933C22.4842 77.9247 21.3686 76.7621 20.3469 75.529C20.2294 75.3881 20.112 75.2354 19.9946 75.0945C19.5131 74.5426 20.57 75.8578 20.5231 75.7874C20.3352 75.4703 20.0768 75.1767 19.8654 74.8831C19.3957 74.2138 18.9612 73.5326 18.5384 72.8398C17.7164 71.4658 17.1292 70.0096 16.3776 68.6122C16.3424 68.5417 16.9648 70.1153 16.7182 69.4107C16.6595 69.2346 16.5773 69.0467 16.5068 68.8705C16.3424 68.4478 16.1897 68.025 16.0488 67.5905C15.7787 66.7919 15.5204 65.9816 15.2972 65.1596C14.8627 63.5508 14.5574 61.9301 14.2756 60.2978C14.1464 59.5227 14.393 61.2608 14.393 61.1668C14.3812 60.9672 14.346 60.7676 14.3225 60.5679C14.2755 60.1686 14.2403 59.7576 14.2051 59.3466C14.1346 58.4541 14.0877 57.5734 14.0642 56.6809C14.0172 54.8606 14.0759 53.0404 14.2403 51.2319C14.2755 50.8091 14.3226 50.3864 14.3695 49.9636C14.5104 48.6484 14.1346 51.4433 14.346 50.1398C14.4987 49.212 14.6631 48.2843 14.851 47.3683C15.2385 45.5599 15.7083 43.7748 16.2837 42.0133C16.5655 41.1561 16.8708 40.2988 17.1997 39.4533C17.3641 39.0305 17.5519 38.6078 17.7046 38.185C17.0235 40.0639 17.7046 38.2202 17.9277 37.7505C18.7028 36.0829 19.5718 34.4623 20.5113 32.8887C21.4508 31.3151 22.4372 29.8824 23.5059 28.438C24.2692 27.4163 22.6251 29.5066 23.4354 28.5319C23.7055 28.2148 23.9638 27.886 24.2339 27.569C24.8563 26.8291 25.5023 26.1128 26.1716 25.4082C27.346 24.1869 28.5673 23.0243 29.8591 21.9204C30.1644 21.662 30.4697 21.4037 30.7868 21.1571C30.9394 21.0279 31.1039 20.9104 31.2565 20.7813C31.3153 20.7343 30 21.7207 30.6224 21.2862C31.3152 20.793 31.9964 20.288 32.7127 19.8183C34.0515 18.9258 35.4489 18.1155 36.8816 17.3874C37.6097 17.0116 38.4083 16.7298 39.1129 16.3305C39.1951 16.2835 37.598 16.9412 38.3026 16.6711C38.4787 16.6006 38.6549 16.5302 38.8193 16.4597C39.2303 16.2953 39.6296 16.1544 40.0406 16.0017C41.485 15.485 42.9647 15.0622 44.4679 14.7334C45.1842 14.5808 45.9005 14.4633 46.6169 14.3341C47.8264 14.1228 44.9493 14.4985 46.1824 14.3929C46.6051 14.3576 47.0162 14.3106 47.4389 14.2754C48.989 14.158 50.5392 14.158 52.0893 14.2754C52.4416 14.2989 52.8056 14.3341 53.1579 14.3694C53.3224 14.3811 53.5338 14.3811 53.6864 14.4281C53.8391 14.4751 51.9366 14.1345 52.6999 14.2989C53.4633 14.4633 54.2266 14.569 54.9899 14.7451C56.4696 15.0974 57.8671 15.6142 59.2998 16.1074C60.0044 16.354 58.372 15.6964 58.466 15.7551C58.6187 15.849 58.8065 15.9078 58.9709 15.9782C59.4877 16.2248 59.9926 16.4714 60.4976 16.7298C61.4605 17.2347 62.3883 17.7985 63.2808 18.4091C63.4921 18.55 64.7487 19.4895 63.9736 18.8788C63.1986 18.2682 64.4081 19.2546 64.6078 19.419C65.4181 20.1236 66.1814 20.8635 66.9213 21.6385C69.5635 24.41 74.2256 24.2691 76.8914 21.6385C77.2319 21.298 78.1127 20.7695 78.3006 20.3468C78.101 20.8048 77.1849 21.1571 78.1714 20.4642C78.418 20.2881 78.6764 20.1236 78.9347 19.971C79.4514 19.6539 79.9917 19.4073 80.5084 19.1254C81.2834 18.7027 79.2048 19.5599 80.0386 19.3368C80.3792 19.2429 80.7197 19.1019 81.0603 19.008C81.3304 18.9258 81.6122 18.8788 81.8823 18.8084C82.8218 18.5618 81.5417 18.8671 81.2481 18.8553C81.8001 18.8671 82.3521 18.7614 82.904 18.7849C83.1741 18.7849 83.456 18.8553 83.7261 18.8319C82.129 18.9258 82.5752 18.6557 83.268 18.8084C83.8435 18.9376 85.6754 19.7009 83.7495 18.8436C85.5345 19.6422 87.2138 20.1002 89.1749 19.5482C90.8073 19.102 92.5806 17.8337 93.3909 16.307C95.0114 13.242 94.4595 8.26281 90.866 6.66571V6.60697Z" fill="#FA4008"/>
<path d="M329.069 593.566H265.655V402.735H301.472L329.069 593.566Z" fill="#FAF1E7"/>
<path d="M329.069 586.519H265.654L272.7 593.565V426.28C272.7 418.553 272.924 410.779 272.7 403.052C272.7 402.946 272.7 402.841 272.7 402.735L265.654 409.781H301.472L294.672 404.614C295.588 410.967 296.516 417.332 297.432 423.685C299.628 438.846 301.812 454.007 304.008 469.179C306.674 487.605 309.34 506.03 312.006 524.467C314.296 540.309 316.586 556.151 318.875 571.993C319.991 579.685 320.849 587.47 322.222 595.115C322.246 595.221 322.258 595.338 322.269 595.444C322.504 597.065 324.16 598.873 325.511 599.66C327.025 600.541 329.245 600.917 330.936 600.365C332.627 599.813 334.283 598.756 335.152 597.124C336.103 595.339 336.15 593.683 335.857 591.698C334.941 585.345 334.013 578.98 333.097 572.627C330.901 557.466 328.716 542.305 326.52 527.133C323.855 508.707 321.189 490.282 318.523 471.845C316.233 456.003 313.943 440.161 311.653 424.319C310.902 419.094 310.138 413.868 309.387 408.654C309.035 406.176 308.788 403.651 308.306 401.197C308.283 401.091 308.271 400.973 308.26 400.868C307.825 397.861 304.278 395.701 301.46 395.701H265.643C261.838 395.701 258.597 398.93 258.597 402.747V570.032C258.597 577.77 258.444 585.521 258.597 593.26C258.597 593.366 258.597 593.471 258.597 593.577C258.597 597.382 261.826 600.623 265.643 600.623H329.057C332.745 600.623 336.279 597.382 336.103 593.577C335.927 589.772 333.003 586.531 329.057 586.531L329.069 586.519Z" fill="#FA4008"/>
<path d="M379.025 603.547H274.415C269.6 603.547 265.654 599.601 265.654 594.787V571.206C265.654 566.391 269.6 562.445 274.415 562.445H355.444C373.236 562.445 387.786 576.995 387.786 594.787C387.786 599.601 383.84 603.547 379.025 603.547Z" fill="#FA4008"/>
<path d="M379.026 596.502C374.199 596.502 369.384 596.502 364.558 596.502C353.601 596.502 342.645 596.502 331.7 596.502H296.763C289.729 596.502 282.695 596.502 275.66 596.502C275.249 596.502 274.838 596.502 274.415 596.502C274.274 596.502 274.028 596.502 273.993 596.502C272.807 596.502 275.672 596.889 274.087 596.478C273.828 596.408 273.582 596.314 273.335 596.244C272.666 596.067 274.11 596.561 274.122 596.572C274.028 596.42 272.078 595.292 273.217 596.079C274.427 596.925 272.278 594.776 273.124 595.985C273.816 596.972 272.994 595.68 272.807 595.422C272.208 594.541 273.03 595.844 273.03 596.044C273.03 595.868 272.818 595.445 272.783 595.304C272.724 595.081 272.701 594.717 272.595 594.529C272.713 594.764 272.701 596.185 272.701 595.198C272.736 590.983 272.701 586.767 272.701 582.563V571.864C272.701 571.688 272.701 571.512 272.701 571.336C272.701 571.301 272.701 571.265 272.701 571.218C272.701 571.077 272.701 570.843 272.701 570.807C272.701 569.563 272.384 572.087 272.63 571.289C272.748 570.901 272.994 570.361 273.018 569.962C272.947 571.195 272.407 571.171 272.795 570.584C272.936 570.373 273.077 570.138 273.194 569.927C273.617 569.199 273.511 570.173 272.795 570.432C272.924 570.385 273.088 570.103 273.194 570.009C273.452 569.786 274.098 569.375 273.194 569.927C272.161 570.549 273.194 569.95 273.429 569.809C273.558 569.727 274.051 569.527 274.11 569.433C274.04 569.551 272.419 569.997 273.511 569.703C273.828 569.61 275.39 569.351 274.122 569.48C272.853 569.61 274.122 569.516 274.439 569.516C275.026 569.516 275.625 569.516 276.212 569.516H337.055C343.173 569.516 349.291 569.48 355.421 569.516C356.114 569.516 356.795 569.539 357.488 569.586C357.958 569.621 358.439 569.657 358.909 569.703C359.203 569.739 360.154 569.821 358.98 569.703C357.723 569.574 358.944 569.703 359.238 569.762C361.246 570.126 363.231 570.678 365.133 571.406C366.695 572.005 363.748 570.725 365.251 571.453C365.662 571.653 366.073 571.841 366.484 572.04C367.4 572.51 368.304 573.027 369.173 573.579C369.607 573.861 370.042 574.143 370.453 574.436C371.04 574.847 371.897 575.904 370.57 574.495C371.263 575.235 372.156 575.822 372.884 576.526C373.577 577.196 374.246 577.9 374.868 578.629C375.162 578.957 375.409 579.357 375.737 579.662C374.587 578.57 375.021 578.711 375.338 579.157C375.526 579.415 375.714 579.674 375.902 579.944C377.053 581.6 377.992 583.349 378.861 585.17C379.354 586.203 378.638 584.653 378.615 584.559C378.673 584.794 378.814 585.064 378.897 585.287C379.084 585.78 379.26 586.273 379.413 586.767C379.742 587.777 380.012 588.787 380.235 589.82C380.329 590.278 380.423 590.736 380.505 591.194C380.799 592.897 380.341 589.585 380.529 591.311C380.646 592.392 380.717 593.484 380.717 594.576C380.717 594.917 380.658 595.269 380.681 595.598C380.564 594.13 380.916 594.294 380.74 594.905C380.67 595.151 380.587 595.41 380.529 595.668C380.329 596.467 380.094 595.609 380.799 595.069C380.682 595.163 380.482 595.656 380.423 595.75C380.329 595.903 380.188 596.067 380.106 596.232C379.754 596.983 381.139 595.198 380.482 595.703C380.306 595.844 380.059 596.056 379.942 596.244C379.601 596.749 380.529 595.786 380.623 595.75C380.4 595.821 379.413 596.373 379.296 596.549C379.39 596.42 380.975 596.009 379.895 596.279C379.648 596.338 379.378 596.42 379.131 596.49C378.885 596.561 378.157 596.643 379.284 596.502C380.599 596.338 379.237 596.467 379.002 596.467C375.315 596.549 371.78 599.649 371.956 603.513C372.132 607.376 375.056 610.653 379.002 610.559C385.943 610.394 391.744 606.085 394.045 599.567C394.903 597.136 394.914 594.423 394.68 591.887C394.445 589.35 394.057 586.638 393.341 584.113C390.64 574.601 384.322 566.357 375.925 561.154C369.654 557.267 362.315 555.365 354.975 555.365C352.309 555.365 349.655 555.365 346.99 555.365H280.945C278.784 555.365 276.623 555.33 274.474 555.365C269.049 555.447 264.363 558.054 261.251 562.446C259.208 565.335 258.597 568.835 258.597 572.299V588.728C258.597 590.654 258.585 592.568 258.597 594.494C258.632 599.978 261.216 604.769 265.678 607.905C269.06 610.277 272.936 610.559 276.87 610.559C280.123 610.559 283.376 610.559 286.629 610.559C297.691 610.559 308.765 610.559 319.827 610.559C331.935 610.559 344.054 610.559 356.161 610.559C363.43 610.559 370.688 610.559 377.957 610.559H379.002C382.69 610.559 386.224 607.318 386.048 603.513C385.872 599.708 382.948 596.467 379.002 596.467L379.026 596.502Z" fill="#FA4008"/>
<path d="M171.707 593.566H235.121V402.735H199.304L171.707 593.566Z" fill="#FAF1E7"/>
<path d="M171.708 600.611C178.871 600.611 186.035 600.611 193.186 600.611C204.542 600.611 215.898 600.611 227.266 600.611C229.884 600.611 232.503 600.611 235.122 600.611C238.927 600.611 242.168 597.382 242.168 593.565C242.168 587.2 242.168 580.835 242.168 574.47C242.168 559.286 242.168 544.102 242.168 528.93V473.888C242.168 458.023 242.168 442.158 242.168 426.292C242.168 418.553 242.321 410.803 242.168 403.064C242.168 402.958 242.168 402.852 242.168 402.747C242.168 398.942 238.939 395.701 235.122 395.701C224.659 395.701 214.207 395.701 203.744 395.701C202.264 395.701 200.784 395.701 199.305 395.701C196.533 395.701 192.94 397.873 192.505 400.868C191.589 407.221 190.662 413.586 189.746 419.939L183.169 465.433C180.503 483.858 177.838 502.284 175.172 520.721C172.882 536.563 170.592 552.405 168.302 568.246C167.186 575.95 166.059 583.666 164.955 591.369C164.943 591.475 164.92 591.592 164.908 591.698C164.626 593.647 164.579 595.35 165.613 597.124C166.47 598.58 168.149 599.977 169.829 600.365C173.164 601.128 177.932 599.343 178.495 595.444C179.411 589.091 180.339 582.726 181.255 576.373C183.451 561.212 185.635 546.051 187.831 530.879C190.497 512.454 193.163 494.028 195.829 475.591C198.119 459.749 200.409 443.907 202.699 428.065C203.814 420.374 205.165 412.67 206.045 404.943C206.057 404.837 206.081 404.72 206.092 404.614L199.293 409.781C209.756 409.781 220.208 409.781 230.671 409.781C232.151 409.781 233.631 409.781 235.11 409.781L228.064 402.735C228.064 409.1 228.064 415.465 228.064 421.83C228.064 437.014 228.064 452.198 228.064 467.371C228.064 485.714 228.064 504.069 228.064 522.412C228.064 538.277 228.064 554.143 228.064 570.008C228.064 577.735 227.841 585.509 228.064 593.236C228.064 593.342 228.064 593.448 228.064 593.554L235.11 586.507C227.947 586.507 220.783 586.507 213.632 586.507C202.276 586.507 190.92 586.507 179.552 586.507C176.933 586.507 174.315 586.507 171.696 586.507C168.008 586.507 164.474 589.749 164.65 593.554C164.826 597.358 167.75 600.6 171.696 600.6L171.708 600.611Z" fill="#FA4008"/>
<path d="M121.751 603.548H226.362C231.176 603.548 235.122 599.602 235.122 594.788V571.207C235.122 566.392 231.176 562.446 226.362 562.446H145.332C127.541 562.446 112.991 576.996 112.991 594.788C112.991 599.602 116.937 603.548 121.751 603.548Z" fill="#FA4008"/>
<path d="M121.751 610.593C126.93 610.593 132.097 610.593 137.276 610.593C148.796 610.593 160.328 610.593 171.849 610.593C183.686 610.593 195.512 610.593 207.349 610.593C213.596 610.593 219.844 610.64 226.091 610.593C235.063 610.535 242.109 603.395 242.156 594.446C242.192 589.432 242.156 584.406 242.156 579.391C242.156 573.602 242.92 567.108 239.268 562.175C236.12 557.936 231.564 555.482 226.256 555.399C225.551 555.399 224.847 555.399 224.142 555.399H196.428C184.391 555.399 172.354 555.399 160.317 555.399C152.836 555.399 144.991 554.824 137.605 556.186C127.787 558.007 119.273 563.972 113.378 571.887C110.583 575.633 108.528 580.037 107.307 584.535C106.086 589.033 105.029 595.315 106.849 599.977C109.327 606.295 114.881 610.441 121.751 610.605C125.439 610.687 128.962 607.305 128.797 603.559C128.633 599.813 125.697 596.607 121.751 596.513C121.646 596.513 121.07 596.419 120.929 596.478C121.117 596.407 122.667 596.889 121.622 596.537C121.317 596.431 119.849 595.949 120.976 596.384C122.104 596.819 120.553 596.02 120.295 595.891C119.708 595.585 120.953 596.349 120.964 596.396C120.964 596.36 120.178 595.585 120.142 595.574C120.189 595.585 120.953 596.83 120.647 596.243C120.53 596.02 120.377 595.797 120.236 595.597C119.379 594.305 120.53 596.748 120.236 595.691C120.166 595.444 120.107 595.174 120.025 594.928C119.673 593.883 120.154 595.421 120.084 595.621C120.201 595.315 120.048 594.54 120.048 594.188C120.072 593.166 120.142 592.156 120.248 591.135C120.377 589.878 119.99 592.767 120.248 591.217C120.354 590.63 120.471 590.043 120.6 589.455C120.824 588.492 121.094 587.541 121.399 586.602C121.563 586.108 121.74 585.615 121.927 585.122C121.998 584.946 122.08 584.758 122.139 584.57C121.446 586.555 121.833 585.275 122.057 584.817C122.902 582.996 123.912 581.258 125.086 579.626C125.204 579.473 125.31 579.309 125.427 579.156C126.085 578.24 125.098 579.603 125.028 579.661C125.392 579.344 125.697 578.839 126.014 578.475C126.695 577.7 127.412 576.96 128.151 576.256C128.527 575.903 128.903 575.563 129.302 575.222C129.525 575.034 130.794 574.06 129.784 574.8C128.774 575.539 130.077 574.588 130.312 574.424C130.782 574.095 131.275 573.766 131.757 573.461C132.579 572.944 133.424 572.463 134.281 572.028C134.739 571.793 135.221 571.582 135.691 571.359C136.113 571.159 136.865 570.983 135.08 571.605C135.327 571.523 135.561 571.406 135.808 571.324C137.793 570.572 139.836 570.055 141.915 569.679C143.148 569.456 140.259 569.856 141.844 569.679C142.384 569.621 142.925 569.574 143.465 569.55C144.087 569.515 144.71 569.503 145.332 569.492C145.872 569.492 146.412 569.492 146.941 569.492H156.629C167.821 569.492 179.024 569.492 190.215 569.492C200.35 569.492 210.484 569.492 220.607 569.492C222.51 569.492 224.412 569.456 226.303 569.492C226.303 569.492 226.326 569.492 226.338 569.492C226.479 569.492 226.996 569.492 226.749 569.492C227.43 569.492 227.36 569.891 226.08 569.386C226.479 569.55 226.996 569.632 227.418 569.75C228.24 569.985 226.185 568.951 226.808 569.503C227.007 569.679 227.418 569.867 227.642 569.997C228.37 570.419 227.395 570.314 227.137 569.597C227.184 569.726 227.465 569.891 227.559 569.997C228.604 571.194 226.89 568.67 227.665 570.067C227.759 570.231 227.853 570.408 227.959 570.56C228.558 571.429 227.771 570.126 227.735 569.938C227.794 570.267 228.229 572.193 228.1 570.913C227.97 569.633 228.064 570.948 228.064 571.312C228.064 571.523 228.064 571.735 228.064 571.958V574.612C228.064 580.155 228.064 585.709 228.064 591.252C228.064 592.626 228.029 594.012 228.041 595.386C228.041 596.29 228.381 593.847 228.123 594.705C228.053 594.951 228.006 595.221 227.923 595.468C227.477 596.901 228.593 594.435 227.947 595.398C227.806 595.597 227.665 595.844 227.548 596.055C227.137 596.783 227.207 595.832 227.947 595.55C227.841 595.585 227.454 596.067 227.418 596.102C226.819 596.795 227.689 595.832 227.959 595.738C227.735 595.809 226.749 596.361 226.632 596.537C226.726 596.407 228.311 595.996 227.231 596.267C226.984 596.325 226.714 596.407 226.467 596.478C225.352 596.807 228.217 596.407 226.538 596.454C226.455 596.454 226.385 596.454 226.315 596.454C221.218 596.548 216.109 596.454 211.025 596.454C200.009 596.454 189.006 596.454 177.99 596.454C166.364 596.454 154.739 596.454 143.101 596.454C136.301 596.454 129.502 596.454 122.703 596.454H121.716C118.029 596.454 114.494 599.696 114.67 603.5C114.846 607.305 117.77 610.547 121.716 610.547L121.751 610.593Z" fill="#FA4008"/>
<path d="M434.455 263.775C434.455 281.39 387.07 291.29 381.915 307.179C376.571 323.655 408.889 359.484 398.919 373.188C388.843 387.034 344.712 367.305 330.866 377.381C317.162 387.362 322.34 435.475 305.876 440.818C289.987 445.974 265.96 404.167 248.357 404.167C230.754 404.167 206.727 445.974 190.838 440.818C174.362 435.475 179.552 387.351 165.848 377.381C152.002 367.305 107.871 387.034 97.7948 373.188C87.8129 359.484 120.142 323.643 114.799 307.179C109.644 291.29 62.2593 281.378 62.2593 263.775C62.2593 246.172 109.644 236.26 114.799 220.371C120.142 203.895 87.8247 168.066 97.7948 154.362C107.871 140.516 152.002 160.245 165.848 150.169C179.552 140.187 174.374 92.0747 190.838 86.7314C206.727 81.5761 230.754 123.383 248.357 123.383C265.96 123.383 289.987 81.5761 305.876 86.7314C322.352 92.0747 317.162 140.199 330.866 150.169C344.712 160.245 388.843 140.516 398.919 154.362C408.901 168.066 376.571 203.907 381.915 220.371C387.07 236.26 434.455 246.172 434.455 263.775Z" fill="#FAF1E7"/>
<path d="M425.647 263.776C425.647 264.034 425.624 264.292 425.612 264.551C425.612 265.854 426.117 261.955 425.788 263.224C425.659 263.729 425.542 264.222 425.401 264.715C424.908 266.406 426.587 262.331 425.565 264.304C425.272 264.88 424.919 265.408 424.567 265.948C423.569 267.475 426.141 264.128 424.884 265.549C424.485 266.007 424.086 266.465 423.651 266.899C422.653 267.921 421.561 268.825 420.469 269.741C419.376 270.657 422.359 268.344 421.15 269.213C420.903 269.389 420.668 269.565 420.433 269.741C419.893 270.129 419.341 270.516 418.789 270.892C417.415 271.82 416.006 272.701 414.585 273.558C411.79 275.226 408.925 276.787 406.048 278.326C400.352 281.367 394.551 284.28 389.102 287.767C383.653 291.255 378.369 295.142 375.233 300.674C368.105 313.309 376.419 328.846 381.974 340.378C383.477 343.513 385.027 346.625 386.507 349.761C387.223 351.288 387.928 352.814 388.597 354.364C388.703 354.611 388.808 354.869 388.926 355.116C389.583 356.619 388.057 353.002 388.667 354.505C389.008 355.362 389.36 356.22 389.677 357.077C390.687 359.766 391.486 362.479 392.026 365.297C392.179 366.119 391.979 367.153 391.885 364.217C391.885 364.522 391.956 364.828 391.967 365.133C392.014 365.72 392.026 366.319 392.014 366.906C391.991 368.057 391.298 369.549 392.155 366.507C392.014 367.024 391.956 367.552 391.791 368.069C391.134 370.159 392.883 366.143 391.979 367.634C391.38 368.633 390.312 369.302 392.355 367.364C391.979 367.717 391.627 368.116 391.263 368.492C390.37 369.408 393.318 367.094 392.226 367.763C392.003 367.904 391.779 368.069 391.556 368.198C391.087 368.48 390.582 368.691 390.1 368.95C392.883 367.399 391.298 368.456 390.312 368.75C389.724 368.926 389.125 369.067 388.538 369.196C388.221 369.255 387.916 369.302 387.599 369.372C386.213 369.654 390.335 369.102 388.303 369.278C382.021 369.819 375.75 369.138 369.526 368.315C368.868 368.233 367.177 367.987 370.148 368.398C369.714 368.339 369.291 368.28 368.856 368.221C368.14 368.128 367.412 368.022 366.696 367.916C364.194 367.564 361.681 367.223 359.18 366.883C355.845 366.436 352.51 366.026 349.163 365.779C343.15 365.333 336.562 365.286 330.878 367.552C327.649 368.844 324.678 370.57 322.411 373.271C319.945 376.207 318.371 379.249 316.915 382.772C314.578 388.432 313.416 394.538 312.312 400.539C311.138 406.951 310.163 413.422 308.648 419.775C307.979 422.605 307.156 425.377 306.147 428.113C305.888 428.806 305.207 429.898 306.534 427.232C306.393 427.514 306.276 427.819 306.135 428.113C305.876 428.677 305.595 429.229 305.289 429.78C305.054 430.215 304.796 430.638 304.538 431.06C304.385 431.307 304.221 431.53 304.056 431.777C303.058 433.292 305.465 430.156 304.585 431.096C304.221 431.483 303.88 431.894 303.493 432.258C301.907 433.75 305.348 431.096 303.88 432.012C303.493 432.258 303.082 432.47 302.694 432.705C302.025 433.104 301.25 432.869 303.998 432.164C303.669 432.247 303.363 432.387 303.035 432.481C302.788 432.54 302.53 432.575 302.283 432.646C304.913 431.847 304.526 432.434 303.61 432.446C303.093 432.446 302.577 432.446 302.06 432.423C300.733 432.388 304.643 432.904 303.34 432.587C303.07 432.517 302.8 432.481 302.53 432.411C301.978 432.27 301.437 432.094 300.897 431.906C300.157 431.671 299.288 431.002 301.895 432.352C301.625 432.211 301.332 432.106 301.05 431.965C300.475 431.683 299.899 431.378 299.347 431.06C298.091 430.344 296.869 429.534 295.695 428.688C295.072 428.242 293.076 426.563 295.542 428.606C294.943 428.113 294.333 427.631 293.734 427.138C292.383 426.011 291.056 424.836 289.753 423.65C284.656 419 279.841 414.068 274.721 409.441C269.883 405.072 264.704 400.575 258.691 397.921C255.309 396.429 251.845 395.29 248.075 395.372C244.306 395.454 240.853 396.582 237.424 398.167C231.282 401.009 225.974 405.753 221.03 410.286C215.957 414.937 211.142 419.881 206.011 424.472C204.907 425.459 203.791 426.434 202.652 427.373C202.053 427.866 199.693 429.628 202.323 427.678C201.63 428.195 200.949 428.712 200.245 429.205C199.211 429.921 198.154 430.602 197.05 431.225C196.487 431.53 195.923 431.812 195.348 432.094C194.608 432.458 193.668 432.47 196.334 431.695C195.958 431.8 195.606 431.976 195.23 432.094C194.69 432.27 194.15 432.387 193.61 432.528C191.825 432.963 196.346 432.352 194.103 432.446C193.668 432.47 193.245 432.423 192.811 432.423C191.507 432.399 195.395 432.951 194.15 432.587C193.821 432.493 193.492 432.411 193.163 432.329C191.496 431.883 195.535 433.55 193.657 432.517C193.21 432.27 192.811 431.965 192.388 431.695C194.983 433.315 193.692 432.728 192.999 432.059C192.271 431.354 191.19 429.463 192.952 432.211C192.318 431.225 191.648 430.274 191.096 429.228C190.803 428.665 190.556 428.089 190.274 427.514C189.734 426.398 190.85 428.829 190.779 428.712C190.556 428.359 190.439 427.854 190.298 427.455C189.276 424.707 188.513 421.854 187.855 419C184.884 406.117 184.133 392.577 178.754 380.364C176.053 374.234 171.591 369.678 165.284 367.329C159.495 365.18 152.789 365.333 146.73 365.838C142.643 366.166 138.58 366.73 134.528 367.282C132.873 367.505 131.217 367.74 129.561 367.975C128.704 368.092 127.835 368.21 126.977 368.339C125.275 368.574 129.303 368.034 127.6 368.257C127.036 368.327 126.461 368.409 125.897 368.48C122.621 368.891 119.344 369.255 116.044 369.408C114.659 369.478 113.273 369.502 111.887 369.478C111.171 369.466 110.466 369.431 109.75 369.384C108.728 369.314 106.051 368.609 109.409 369.408C108.305 369.138 107.178 369.008 106.086 368.656C105.804 368.574 105.534 368.456 105.264 368.374C103.972 367.975 107.507 369.455 106.321 368.832C105.757 368.527 105.205 368.233 104.665 367.904C103.174 366.988 106.579 369.654 105.017 368.128C104.829 367.94 104.665 367.74 104.477 367.564C103.573 366.671 105.851 369.619 105.217 368.515C105.006 368.139 104.782 367.763 104.559 367.399C103.902 366.296 105.405 369.783 105.041 368.55C104.947 368.21 104.818 367.893 104.724 367.552C104.653 367.294 104.618 367.024 104.548 366.765C104.219 365.462 104.771 369.372 104.712 368.022C104.688 367.446 104.63 366.883 104.642 366.307C104.642 365.802 104.688 365.309 104.712 364.816C104.759 364.029 105.17 362.902 104.536 365.92C104.618 365.497 104.665 365.063 104.747 364.64C105.287 361.798 106.215 359.026 107.26 356.325C107.542 355.586 107.859 354.846 108.153 354.106C106.955 357.148 108.094 354.27 108.399 353.578C109.081 352.027 109.797 350.489 110.525 348.962C112.075 345.686 113.684 342.445 115.246 339.18C118.24 332.909 121.376 326.45 123.02 319.663C124.605 313.157 124.793 306.087 121.153 300.192C117.747 294.684 112.322 290.715 106.92 287.333C101.412 283.892 95.5873 280.968 89.8683 277.903C86.8972 276.306 83.9379 274.685 81.0607 272.924C79.8747 272.196 78.7003 271.444 77.5495 270.657C76.9506 270.246 76.3634 269.824 75.7762 269.401C75.189 268.978 74.2731 268.015 76.4338 269.929C76.0933 269.624 75.7175 269.366 75.3652 269.072C74.461 268.309 73.5802 267.51 72.7582 266.653C72.3354 266.218 71.9596 265.749 71.5603 265.302C70.6561 264.281 72.9578 267.299 72.2297 266.16C72.03 265.843 71.807 265.549 71.6073 265.232C71.3255 264.774 71.1023 264.281 70.8322 263.799C70.3507 262.942 71.4077 265.185 71.4077 265.173C71.4429 265.044 71.1963 264.574 71.1493 264.433C70.9966 263.94 70.9262 263.435 70.797 262.942C71.6073 266.03 70.9967 264.457 71.0084 263.235C71.0084 261.462 70.4447 265.948 70.9497 263.811C71.0554 263.353 71.2433 262.907 71.3724 262.46C71.619 261.533 70.2451 264.833 70.844 263.717C70.9731 263.482 71.0788 263.236 71.208 263.001C71.5251 262.425 71.8891 261.908 72.2414 261.357C72.9695 260.229 70.6678 263.236 71.5721 262.214C71.7717 261.991 71.9596 261.756 72.1475 261.533C72.5585 261.075 72.993 260.628 73.4275 260.194C74.3787 259.266 75.4357 258.468 76.4338 257.587C73.9795 259.748 75.9641 257.963 76.6452 257.481C77.2441 257.058 77.8548 256.636 78.4772 256.236C79.769 255.391 81.0725 254.569 82.4113 253.782C85.2179 252.115 88.095 250.553 90.9722 249.026C96.7734 245.937 102.669 242.966 108.176 239.385C113.261 236.073 118.816 231.986 121.658 226.432C124.875 220.149 124.511 213.162 122.644 206.503C120.777 199.845 117.548 193.163 114.471 186.786C112.956 183.662 111.417 180.55 109.949 177.403C109.233 175.876 108.54 174.35 107.871 172.811C107.613 172.212 107.049 170.697 108.118 173.41C107.965 173.034 107.812 172.67 107.66 172.295C107.319 171.449 106.99 170.604 106.685 169.746C105.71 167.069 105.088 164.391 104.501 161.608C105.182 164.873 104.677 162.994 104.63 162.101C104.595 161.514 104.583 160.927 104.606 160.34C104.618 160.058 104.653 159.776 104.665 159.494C104.724 158.144 104.172 162.054 104.501 160.751C104.653 160.152 104.806 159.565 104.982 158.966C105.346 157.733 103.843 161.221 104.501 160.117C104.63 159.894 104.735 159.659 104.876 159.436C105.91 157.733 103.773 160.598 104.418 159.952C104.782 159.588 105.193 159.236 105.534 158.86C103.819 160.727 103.831 160.07 104.594 159.6C104.9 159.412 105.193 159.212 105.511 159.048C105.757 158.919 106.004 158.801 106.25 158.672C107.425 158.038 103.902 159.53 105.193 159.13C105.663 158.989 106.121 158.813 106.591 158.672C107.19 158.508 107.789 158.367 108.388 158.249C108.705 158.191 109.034 158.167 109.339 158.085C106.297 158.813 107.765 158.285 108.646 158.202C114.917 157.592 121.305 158.437 127.518 159.259C129.22 159.483 125.192 158.942 126.895 159.177C127.33 159.236 127.753 159.295 128.187 159.353C129.056 159.471 129.913 159.6 130.782 159.717C133.143 160.046 135.503 160.375 137.864 160.68C141.187 161.115 144.51 161.526 147.857 161.761C154.715 162.242 161.797 161.937 168.091 158.966C174.386 155.995 177.568 150.147 179.94 144.146C184.544 132.461 185.107 119.508 188.055 107.377C188.748 104.5 189.629 101.717 190.65 98.957C191.014 97.9823 189.617 101.259 190.204 100.002C190.345 99.7086 190.462 99.415 190.603 99.1332C190.873 98.5813 191.155 98.0293 191.46 97.4891C191.766 96.9489 192.059 96.4792 192.388 95.9977C193.692 94.0835 190.85 97.7122 192.376 96.0329C192.67 95.7041 192.987 95.4105 193.304 95.1052C194.549 93.8839 191.132 96.5614 192.94 95.3988C193.363 95.1287 193.821 94.929 194.255 94.6824C191.59 96.2091 192.94 95.2814 194.079 94.9525C195.324 94.6002 191.449 95.1522 192.74 95.1169C192.952 95.1169 193.163 95.0934 193.375 95.0817C193.856 95.0817 194.326 95.1404 194.807 95.1522C191.566 95.0934 193.269 94.9173 194.338 95.1991C194.995 95.3753 195.606 95.6454 196.264 95.8451C193.187 94.9408 195.23 95.3988 196.123 95.8451C196.604 96.0917 197.086 96.3617 197.555 96.6318C198.871 97.4069 200.139 98.2642 201.36 99.1684C201.665 99.3915 201.959 99.6147 202.253 99.8378C199.892 98.088 201.161 98.9923 201.666 99.4033C202.276 99.8965 202.887 100.401 203.486 100.906C204.742 101.963 205.964 103.056 207.173 104.171C212.258 108.833 217.073 113.765 222.205 118.381C227.665 123.289 233.431 127.928 240.325 130.629C246.913 133.213 253.571 132.109 259.772 129.091C265.972 126.073 271.01 121.457 275.896 116.96C280.781 112.462 285.772 107.365 290.904 102.785C292.101 101.717 293.311 100.672 294.568 99.6617C294.861 99.415 295.178 99.1802 295.472 98.9453C293.241 100.801 294.356 99.8026 294.885 99.4033C295.472 98.9688 296.059 98.546 296.658 98.1232C297.774 97.3599 298.936 96.6318 300.134 95.9977C300.686 95.7041 301.273 95.4692 301.825 95.1874C298.936 96.6905 300.756 95.6337 301.661 95.3636C302.201 95.1992 302.741 95.0935 303.281 94.9643C304.585 94.6472 300.674 95.1757 302.001 95.1287C302.259 95.1287 302.518 95.0934 302.788 95.0817C304.009 95.0582 305.101 95.7746 302.236 94.9056C302.788 95.07 303.387 95.2344 303.951 95.3753C301.355 94.7177 302.201 94.565 303.199 95.1404C304.197 95.7159 304.925 96.902 302.87 94.7764C303.234 95.1522 303.657 95.4693 304.009 95.8451C304.197 96.0447 304.362 96.2561 304.549 96.4439C305.43 97.3834 303.011 94.2479 304.021 95.7628C304.62 96.6788 305.195 97.5948 305.689 98.5695C305.97 99.1332 306.205 99.7321 306.499 100.296C304.972 97.219 306.287 99.8378 306.581 100.695C307.567 103.49 308.307 106.379 308.965 109.268C310.398 115.668 311.361 122.15 312.582 128.586C313.803 135.021 315.318 141.398 318.031 147.434C320.744 153.47 325.465 158.144 331.912 160.363C337.819 162.395 344.606 162.137 350.736 161.596C354.764 161.232 358.769 160.68 362.773 160.128C364.429 159.905 366.085 159.67 367.741 159.436C368.528 159.33 369.326 159.224 370.113 159.107C366.742 159.576 370.383 159.072 371.193 158.978C374.458 158.567 377.723 158.226 381.011 158.085C382.502 158.015 384.005 158.003 385.497 158.05C386.201 158.073 386.894 158.109 387.599 158.179C387.822 158.203 388.045 158.226 388.28 158.249C390.312 158.426 386.19 157.874 387.575 158.156C388.785 158.402 389.947 158.672 391.134 159.036C392.907 159.588 388.82 157.874 390.84 158.931C391.321 159.177 391.756 159.483 392.214 159.764C393.306 160.446 390.358 158.12 391.251 159.036C391.427 159.224 391.639 159.389 391.815 159.576C391.991 159.764 392.143 159.988 392.331 160.164C390.417 158.343 391.134 158.473 391.568 159.224C392.132 160.199 392.308 161.596 391.509 158.731C391.662 159.271 391.85 159.811 392.003 160.363C392.554 162.348 391.862 157.909 391.944 159.776C391.967 160.352 392.003 160.927 391.991 161.502C391.979 162.113 391.873 162.712 391.862 163.323C391.967 159.87 391.967 162.512 391.756 163.534C391.145 166.411 390.171 169.194 389.09 171.931C388.938 172.306 388.785 172.67 388.644 173.046C388.033 174.549 389.56 170.932 388.902 172.436C388.632 173.07 388.35 173.704 388.069 174.326C387.317 176.006 386.53 177.673 385.743 179.341C384.24 182.476 382.702 185.6 381.199 188.735C375.855 199.939 367.905 215.557 375.609 227.559C379.202 233.149 384.757 237.153 390.347 240.594C395.937 244.035 401.75 246.924 407.48 250.012C410.205 251.48 412.918 252.983 415.56 254.604C416.852 255.391 418.132 256.213 419.376 257.07C419.87 257.411 420.363 257.763 420.844 258.115C421.432 258.538 422.336 259.501 420.187 257.587C420.445 257.81 420.727 258.01 420.985 258.233C421.984 259.055 422.958 259.924 423.851 260.863C424.273 261.298 424.649 261.768 425.048 262.214C425.777 263.024 424.133 261.145 424.203 261.122C424.238 261.11 424.661 261.768 424.696 261.815C425.002 262.273 425.283 262.742 425.542 263.235C426.563 265.208 424.884 261.133 425.377 262.824C425.518 263.318 425.636 263.811 425.765 264.316C426.082 265.584 425.577 261.685 425.589 262.989C425.589 263.247 425.612 263.506 425.624 263.764C425.683 268.367 429.628 272.783 434.431 272.572C439.235 272.36 443.309 268.696 443.239 263.764C443.051 249.554 428.395 241.334 417.462 235.38C411.602 232.186 405.613 229.215 399.894 225.762C398.614 224.987 397.358 224.189 396.124 223.355C395.584 222.991 395.056 222.615 394.527 222.228C394.293 222.063 394.069 221.875 393.835 221.711C396.371 223.484 394.88 222.521 394.304 222.051C393.341 221.253 392.402 220.419 391.545 219.503C391.145 219.08 390.805 218.622 390.405 218.2C392.625 220.583 391.063 219.069 390.546 218.2C389.971 217.237 389.854 215.78 390.64 218.705C390.535 218.294 390.347 217.906 390.229 217.495C389.947 216.438 390.135 214.735 390.194 217.953C390.194 217.284 390.088 216.614 390.1 215.933C390.1 215.322 390.171 214.712 390.218 214.101C390.311 212.657 389.795 216.614 390.065 215.17C390.124 214.841 390.171 214.524 390.229 214.195C390.511 212.704 390.91 211.224 391.368 209.768C391.791 208.429 392.261 207.114 392.766 205.798C393.059 205.047 393.353 204.307 393.658 203.567C394.281 202.052 392.742 205.669 393.412 204.166C393.635 203.661 393.858 203.144 394.081 202.64C395.479 199.492 396.994 196.392 398.497 193.304C401.726 186.669 405.061 179.986 407.41 172.987C409.383 167.092 410.745 160.058 408.502 154.034C402.936 139.037 385.227 139.671 372.051 141.257C367.964 141.75 363.901 142.337 359.826 142.901C358.968 143.018 358.099 143.136 357.242 143.253C360.565 142.795 357.36 143.23 356.585 143.335C354.917 143.547 353.238 143.735 351.558 143.899C348.352 144.204 345.123 144.416 341.894 144.298C341.201 144.275 340.496 144.228 339.803 144.169C339.474 144.134 339.134 144.075 338.805 144.063C341.776 144.204 340.649 144.334 339.85 144.193C338.641 143.969 337.49 143.664 336.315 143.288C334.554 142.713 338.629 144.451 336.632 143.382C336.163 143.124 335.74 142.795 335.27 142.537C337.854 143.993 336.503 143.558 335.716 142.76C334.965 142.008 334.049 140.2 335.716 142.924C335.165 142.02 334.542 141.175 334.049 140.223C333.755 139.671 333.509 139.108 333.239 138.544C332.628 137.252 334.119 140.811 333.626 139.448C333.473 139.026 333.309 138.614 333.156 138.203C331.019 132.297 329.927 126.026 328.835 119.86C327.684 113.378 326.674 106.849 324.96 100.484C323.245 94.1188 320.885 87.8478 316.305 83.1857C311.325 78.1008 304.092 76.3392 297.28 78.2769C290.575 80.1911 284.879 84.7475 279.712 89.2335C274.545 93.7195 269.531 98.8514 264.41 103.619C261.991 105.874 259.525 108.058 256.942 110.125C255.709 111.123 258.762 108.763 257.494 109.691C257.188 109.914 256.883 110.149 256.578 110.372C255.979 110.806 255.38 111.229 254.757 111.628C253.513 112.45 252.233 113.214 250.894 113.859C250.612 114 250.295 114.106 250.025 114.27C252.479 112.92 251.739 113.589 250.976 113.848C250.412 114.036 249.849 114.235 249.262 114.388C248.804 114.505 248.322 114.564 247.864 114.681C250.988 113.848 249.203 114.552 248.017 114.517C247.747 114.517 247.465 114.482 247.195 114.47C245.844 114.423 249.755 114.952 248.428 114.634C247.864 114.494 247.3 114.388 246.737 114.223C246.173 114.059 245.598 113.789 245.022 113.613C248.193 114.599 245.68 113.871 244.787 113.401C243.66 112.803 242.568 112.133 241.511 111.417C240.9 111.006 240.29 110.571 239.691 110.137C239.385 109.914 239.08 109.679 238.775 109.444C241.241 111.252 239.561 110.055 239.021 109.608C236.438 107.518 233.972 105.275 231.541 102.997C226.456 98.2172 221.571 93.2145 216.263 88.6698C210.955 84.1251 205.412 79.7213 198.765 78.089C192.118 76.4567 184.497 78.2886 179.741 83.7376C175.337 88.7872 172.988 95.1287 171.344 101.541C168.209 113.812 167.715 126.906 163.194 138.802C163.077 139.108 162.936 139.413 162.83 139.718C163.758 136.947 163.535 138.11 163.206 138.791C162.936 139.343 162.677 139.906 162.384 140.446C162.102 140.963 161.808 141.468 161.491 141.961C161.339 142.196 161.174 142.419 161.022 142.654C160.317 143.746 162.76 140.634 161.562 141.938C161.209 142.325 160.869 142.713 160.481 143.065C160.352 143.183 159.976 143.406 159.906 143.558C159.906 143.558 161.938 142.161 161.08 142.642C160.611 142.901 160.164 143.206 159.695 143.465C158.99 143.852 158.027 143.887 160.787 143.042C160.423 143.159 160.07 143.312 159.706 143.429C158.52 143.817 157.299 143.981 156.089 144.24C159.448 143.512 157.029 144.11 156.089 144.169C155.256 144.228 154.434 144.263 153.6 144.275C150.464 144.322 147.317 144.087 144.193 143.77C142.502 143.594 140.823 143.394 139.144 143.183C138.721 143.124 138.286 143.065 137.864 143.018C140.846 143.394 139.144 143.194 138.486 143.1C137.617 142.983 136.76 142.866 135.891 142.736C131.687 142.149 127.482 141.539 123.267 141.057C116.561 140.294 109.738 139.883 103.08 141.339C95.9866 142.889 90.2558 147.539 87.8954 154.468C85.8051 160.598 87.3434 167.715 89.4103 173.645C91.8647 180.668 95.2233 187.361 98.4645 194.043C99.9676 197.132 101.459 200.22 102.833 203.368C102.997 203.743 103.162 204.131 103.326 204.507C102.128 201.853 102.821 203.309 103.068 203.908C103.373 204.648 103.667 205.387 103.949 206.127C104.524 207.654 105.064 209.204 105.522 210.778C105.91 212.105 106.203 213.443 106.462 214.806C106.849 216.826 106.274 212.375 106.391 214.371C106.438 215.076 106.485 215.78 106.473 216.485C106.45 217.577 105.828 219.292 106.626 216.133C106.497 216.661 106.427 217.201 106.274 217.73C106.203 217.976 106.109 218.211 106.027 218.446C105.651 219.656 107.143 216.156 106.52 217.26C106.215 217.789 105.945 218.329 105.604 218.845C104.36 220.713 107.037 217.237 105.804 218.611C105.475 218.975 105.158 219.339 104.818 219.691C103.855 220.677 102.81 221.558 101.753 222.439C100.637 223.378 103.667 221.041 102.457 221.887C102.175 222.087 101.894 222.298 101.612 222.498C101.025 222.92 100.437 223.32 99.8384 223.719C98.5232 224.588 97.1845 225.422 95.834 226.22C84.4194 232.984 71.5016 237.952 61.6137 247.03C56.8928 251.375 52.9823 257.575 53.3346 264.234C53.6869 270.892 57.48 276.905 62.6001 281.273C72.8639 290.01 85.582 294.954 96.9966 301.907C98.2648 302.682 99.5214 303.48 100.743 304.326C101.318 304.725 101.882 305.148 102.457 305.559C103.655 306.416 100.625 304.079 101.753 305.007C102.093 305.289 102.434 305.559 102.774 305.841C103.714 306.639 104.606 307.485 105.428 308.401C106.039 309.082 106.802 310.585 105.135 307.931C105.464 308.459 105.851 308.953 106.168 309.493C106.297 309.716 106.403 309.951 106.532 310.174C107.166 311.29 105.663 307.778 106.039 308.988C106.192 309.493 106.368 309.974 106.485 310.491C106.99 312.734 106.38 308.201 106.45 310.08C106.473 310.773 106.509 311.454 106.473 312.135C106.45 312.652 106.368 313.168 106.344 313.685C106.462 310.303 106.485 312.628 106.297 313.603C105.992 315.106 105.581 316.586 105.111 318.054C104.641 319.522 104.113 320.966 103.538 322.399C103.256 323.103 102.011 325.875 103.338 322.916C102.997 323.679 102.68 324.442 102.34 325.205C100.872 328.482 99.2865 331.711 97.7129 334.952C94.5069 341.541 91.1953 348.199 88.9524 355.198C87.0969 360.988 85.9108 367.846 88.189 373.682C90.9252 380.681 96.9966 385.073 104.336 386.318C111.218 387.492 118.076 387.011 124.969 386.165C129.127 385.66 133.272 385.05 137.417 384.474C138.169 384.369 141.163 383.993 137.875 384.404C138.733 384.298 139.578 384.181 140.435 384.075C142.232 383.852 144.041 383.652 145.849 383.488C148.902 383.218 151.979 383.042 155.056 383.183C155.749 383.218 156.442 383.277 157.123 383.335C157.921 383.394 159.06 383.817 156.101 383.183C156.418 383.253 156.735 383.277 157.052 383.335C158.356 383.57 159.542 384.005 160.798 384.392C157.78 383.464 159.554 383.84 160.423 384.357C161.292 384.874 162.02 385.884 159.929 383.864C160.293 384.216 160.704 384.533 161.057 384.897C161.245 385.085 161.409 385.285 161.585 385.484C162.771 386.788 160.34 383.676 161.045 384.768C161.679 385.754 162.302 386.729 162.83 387.786C163.229 388.585 163.887 390.828 162.854 387.704C163.1 388.444 163.417 389.16 163.676 389.9C167.856 401.996 168.361 415.031 171.743 427.338C173.423 433.444 175.865 439.927 180.48 444.46C185.624 449.498 192.999 451.247 199.857 449.016C206.598 446.832 212.246 442.311 217.496 437.684C222.745 433.057 227.454 428.219 232.492 423.545C233.725 422.394 234.97 421.267 236.238 420.163C236.849 419.622 237.471 419.094 238.094 418.577C238.716 418.061 241.44 416.029 238.775 417.99C241.088 416.299 243.402 414.737 245.962 413.445C246.678 413.081 247.735 412.976 245.022 413.821C245.316 413.727 245.598 413.598 245.879 413.492C246.443 413.293 247.007 413.117 247.582 412.976C247.864 412.905 248.146 412.87 248.428 412.799C249.755 412.482 245.844 413.011 247.195 412.964C247.841 412.94 248.463 412.917 249.109 412.94C250.953 412.999 246.42 412.412 248.71 412.917C249.191 413.023 249.661 413.152 250.119 413.304C251.047 413.598 252.808 414.714 250.025 413.187C250.694 413.551 251.411 413.833 252.08 414.197C253.313 414.866 254.511 415.63 255.673 416.44C256.296 416.863 256.895 417.321 257.494 417.767C258.75 418.706 255.697 416.346 256.942 417.332C257.306 417.626 257.658 417.908 258.022 418.201C260.664 420.362 263.177 422.676 265.667 425.024C270.728 429.804 275.602 434.795 280.922 439.269C285.924 443.485 291.749 448.112 298.349 449.451C305.266 450.848 312.324 448.957 317.009 443.473C325.664 433.362 326.839 418.542 329.105 405.965C330.209 399.858 331.477 393.834 333.614 387.997C334.108 386.635 332.616 390.205 333.227 388.902C333.368 388.62 333.485 388.326 333.626 388.044C333.861 387.539 334.119 387.046 334.389 386.565C334.66 386.083 334.918 385.649 335.223 385.202C336.503 383.288 333.685 386.929 335.176 385.249C335.517 384.862 335.893 384.51 336.268 384.157C337.513 382.971 334.049 385.637 335.928 384.463C336.398 384.169 336.902 383.969 337.372 383.699C335.035 385.073 335.493 384.427 336.315 384.157C336.691 384.04 337.055 383.899 337.431 383.793C337.924 383.652 338.417 383.535 338.911 383.429C339.85 383.23 342.164 383.218 338.793 383.382C340.308 383.312 341.811 383.124 343.338 383.112C346.497 383.089 349.656 383.335 352.791 383.664C354.482 383.84 356.173 384.052 357.853 384.263C358.51 384.345 360.201 384.592 357.23 384.181C357.665 384.24 358.088 384.298 358.522 384.357C359.532 384.498 360.542 384.639 361.54 384.78C365.592 385.343 369.643 385.931 373.718 386.377C386.565 387.81 404.451 387.704 408.819 372.426C410.639 366.061 409.078 359.097 406.893 353.037C404.368 346.073 401.033 339.427 397.816 332.768C396.289 329.633 394.809 326.474 393.4 323.28C392.742 321.776 394.269 325.382 393.647 323.878C393.494 323.503 393.341 323.127 393.189 322.763C392.895 322.035 392.613 321.295 392.343 320.555C391.826 319.158 391.357 317.737 390.946 316.292C390.57 314.965 390.312 313.638 390.053 312.288C389.771 310.855 390.288 314.801 390.206 313.356C390.182 313.051 390.147 312.734 390.124 312.429C390.077 311.736 390.077 311.043 390.112 310.35C390.241 308.013 389.607 312.534 390.041 310.749C390.147 310.315 390.253 309.88 390.382 309.446C390.452 309.211 390.582 308.988 390.64 308.753C390.1 311.196 389.713 310.749 390.171 309.939C390.476 309.399 390.781 308.882 391.122 308.365C392.096 306.862 389.442 310.338 390.957 308.612C391.345 308.166 391.756 307.731 392.179 307.32C392.625 306.886 393.083 306.463 393.553 306.052C394.234 305.453 396.583 303.962 393.835 305.758C396.312 304.15 398.673 302.411 401.233 300.92C407.022 297.526 413.047 294.555 418.907 291.302C429.441 285.477 443.063 277.363 443.239 263.717C443.298 259.114 439.141 254.698 434.431 254.909C429.722 255.121 425.694 258.773 425.624 263.717L425.647 263.776Z" fill="#FA4008"/>
<path d="M171.955 182.218C171.955 182.218 162.877 228.945 175.313 232.069C197.954 237.741 192.036 228.44 213.256 191.049" fill="#FAF1E7"/>
<path d="M165.166 180.339C164.074 185.988 163.299 191.719 162.665 197.438C161.655 206.562 161.033 215.992 162.794 225.07C163.557 228.992 165.143 233.196 168.184 235.932C172.001 239.362 177.661 240.007 182.57 240.524C186.422 240.923 190.403 240.371 193.832 238.481C197.261 236.59 199.645 233.455 201.547 230.213C204.084 225.868 205.986 221.159 208.1 216.615C211.564 209.134 215.287 201.794 219.35 194.619C221.171 191.413 220.219 186.775 216.825 184.978C213.432 183.181 209.122 184.085 207.184 187.503C203.626 193.785 200.314 200.209 197.226 206.738C195.171 211.083 193.268 215.511 191.131 219.809C190.368 221.347 189.569 222.874 188.63 224.318C188.453 224.588 188.277 224.847 188.089 225.117C187.173 226.456 189.205 223.79 188.477 224.635C188.054 225.129 187.643 225.61 187.162 226.045C186.574 226.585 185.553 226.984 187.737 225.645C187.526 225.774 187.326 225.939 187.103 226.08C186.88 226.221 186.657 226.326 186.445 226.456C185.13 227.184 188.453 225.786 186.997 226.221C186.481 226.373 185.976 226.503 185.447 226.62C184.167 226.902 187.749 226.444 186.128 226.514C185.764 226.526 185.388 226.561 185.024 226.561C184.273 226.561 183.533 226.526 182.793 226.456C182.112 226.385 180.609 226.068 183.322 226.549C182.758 226.456 182.194 226.373 181.631 226.268C180.738 226.103 179.845 225.915 178.953 225.704C178.366 225.575 177.779 225.446 177.191 225.281C177.074 225.246 176.945 225.199 176.827 225.176C175.806 224.952 178.648 226.115 177.873 225.634C177.649 225.493 177.391 225.328 177.156 225.211C177.673 225.469 178.742 226.585 177.814 225.657C177.626 225.469 177.462 225.234 177.274 225.058C179.012 226.749 178.107 226.197 177.649 225.422C177.473 225.129 177.332 224.823 177.18 224.53C176.534 223.32 177.896 226.432 177.438 225.14C177.156 224.342 176.898 223.531 176.698 222.698C176.499 221.864 176.334 221.018 176.193 220.173C175.9 218.329 176.334 221.465 176.24 220.56C176.182 220.008 176.111 219.445 176.064 218.893C175.888 216.826 175.818 214.759 175.818 212.692C175.818 208.347 176.111 204.002 176.534 199.681C176.757 197.473 177.015 195.265 177.297 193.057C177.438 191.918 177.015 195.089 177.18 193.962C177.215 193.727 177.25 193.492 177.274 193.257C177.344 192.728 177.426 192.212 177.497 191.683C177.614 190.873 177.743 190.063 177.873 189.264C178.143 187.55 178.425 185.823 178.753 184.121C179.458 180.515 177.743 176.346 173.833 175.454C170.345 174.655 165.918 176.511 165.166 180.374V180.339Z" fill="#FA4008"/>
<path d="M237.858 193.409C237.858 193.409 228.781 240.136 241.217 243.26C263.858 248.932 257.94 239.631 279.16 202.24" fill="#FAF1E7"/>
<path d="M231.058 191.531C229.966 197.179 229.191 202.91 228.557 208.629C227.547 217.754 226.925 227.184 228.686 236.261C229.45 240.184 231.035 244.388 234.076 247.124C237.893 250.553 243.553 251.199 248.462 251.716C252.314 252.115 256.295 251.563 259.724 249.672C263.153 247.782 265.537 244.646 267.439 241.405C269.976 237.06 271.878 232.351 273.992 227.806C277.456 220.325 281.179 212.986 285.242 205.811C287.063 202.605 286.111 197.966 282.718 196.169C279.324 194.373 275.014 195.277 273.076 198.694C269.518 204.977 266.206 211.4 263.118 217.93C261.063 222.275 259.16 226.702 257.023 231C256.26 232.539 255.461 234.065 254.522 235.51C254.346 235.78 254.169 236.038 253.982 236.308C253.066 237.647 255.097 234.981 254.369 235.827C253.946 236.32 253.535 236.801 253.054 237.236C252.467 237.776 251.445 238.175 253.629 236.837C253.418 236.966 253.218 237.13 252.995 237.271C252.772 237.412 252.549 237.518 252.337 237.647C251.022 238.375 254.346 236.978 252.889 237.412C252.373 237.565 251.868 237.694 251.339 237.811C250.059 238.093 253.641 237.635 252.02 237.706C251.656 237.717 251.28 237.753 250.916 237.753C250.165 237.753 249.425 237.717 248.685 237.647C248.004 237.577 246.501 237.259 249.214 237.741C248.65 237.647 248.086 237.565 247.523 237.459C246.63 237.295 245.738 237.107 244.845 236.895C244.258 236.766 243.671 236.637 243.084 236.473C242.966 236.437 242.837 236.39 242.719 236.367C241.698 236.144 244.54 237.306 243.765 236.825C243.542 236.684 243.283 236.52 243.048 236.402C243.565 236.66 244.634 237.776 243.706 236.848C243.518 236.661 243.354 236.426 243.166 236.25C244.904 237.941 244 237.389 243.542 236.614C243.365 236.32 243.225 236.015 243.072 235.721C242.426 234.511 243.788 237.623 243.33 236.332C243.048 235.533 242.79 234.723 242.59 233.889C242.391 233.055 242.226 232.21 242.085 231.364C241.792 229.521 242.226 232.656 242.132 231.752C242.074 231.2 242.003 230.636 241.956 230.084C241.78 228.017 241.71 225.951 241.71 223.884C241.71 219.539 242.003 215.194 242.426 210.872C242.649 208.664 242.907 206.456 243.189 204.249C243.33 203.11 242.907 206.28 243.072 205.153C243.107 204.918 243.142 204.683 243.166 204.448C243.236 203.92 243.318 203.403 243.389 202.875C243.506 202.064 243.635 201.254 243.765 200.456C244.035 198.741 244.317 197.015 244.645 195.312C245.35 191.707 243.635 187.538 239.725 186.645C236.237 185.847 231.81 187.702 231.058 191.566V191.531Z" fill="#FA4008"/>
<path d="M143.536 263.776C143.536 263.776 248.627 328.165 301.473 280.017L143.536 263.776Z" fill="#FAF1E7"/>
<path d="M139.977 269.859C143.559 272.055 147.27 274.04 150.993 275.989C160.622 281.039 170.545 285.56 180.645 289.599C193.034 294.555 205.799 298.689 218.869 301.425C232.809 304.337 247.324 305.923 261.533 304.291C275.743 302.658 290.128 297.89 301.884 288.801C303.457 287.591 304.984 286.335 306.463 284.996C309.2 282.518 309.176 277.516 306.463 275.026C303.539 272.337 299.417 272.384 296.493 275.026C295.871 275.59 295.237 276.153 294.579 276.694C294.274 276.94 293.98 277.198 293.675 277.445C293.499 277.586 293.323 277.727 293.158 277.868C292.277 278.584 294.333 276.987 293.663 277.48C292.336 278.455 291.009 279.43 289.623 280.322C286.864 282.107 283.951 283.681 280.957 285.031C280.593 285.196 280.17 285.454 279.783 285.548C279.618 285.595 281.415 284.879 280.722 285.149C280.522 285.231 280.323 285.313 280.123 285.395C279.324 285.712 278.526 286.018 277.727 286.311C276.212 286.852 274.686 287.345 273.147 287.791C269.988 288.695 266.782 289.4 263.541 289.917C263.119 289.987 262.684 290.046 262.261 290.116C262.097 290.14 261.944 290.163 261.78 290.187C260.934 290.316 263.541 289.964 262.684 290.069C261.827 290.175 260.958 290.281 260.089 290.363C258.456 290.527 256.824 290.645 255.18 290.727C251.81 290.891 248.439 290.891 245.081 290.75C241.722 290.609 238.281 290.328 234.899 289.928C234.512 289.881 234.124 289.834 233.725 289.787C231.999 289.564 234.923 289.964 233.924 289.823C233.032 289.693 232.139 289.564 231.259 289.435C229.591 289.177 227.935 288.895 226.268 288.578C213.221 286.135 200.456 282.213 188.066 277.469C185.248 276.388 182.453 275.249 179.658 274.087C178.977 273.805 180.88 274.603 180.68 274.521C180.504 274.451 180.328 274.368 180.151 274.298C179.799 274.145 179.459 274.004 179.106 273.852C178.425 273.558 177.744 273.264 177.063 272.959C175.83 272.419 174.597 271.867 173.364 271.303C168.995 269.319 164.674 267.228 160.399 265.032C155.948 262.754 151.638 260.276 147.282 257.822C147.223 257.787 147.164 257.751 147.105 257.716C143.958 255.79 139.214 256.929 137.464 260.241C135.714 263.553 136.63 267.827 139.989 269.882L139.977 269.859Z" fill="#FA4008"/>
<path d="M298.489 258.091C297.984 264.996 297.585 272.371 301.014 278.396C304.279 284.115 310.585 287.603 317.056 288.859C323.526 290.116 330.197 289.423 336.714 288.507" fill="#FAF1E7"/>
<path d="M291.443 258.092C290.809 266.946 290.75 276.705 296.387 284.115C302.4 292.03 311.513 295.706 321.236 296.457C327.049 296.904 332.851 296.093 338.593 295.295C340.214 295.072 342.022 293.392 342.809 292.054C343.69 290.539 344.066 288.319 343.514 286.628C342.962 284.937 341.905 283.281 340.272 282.412C338.476 281.461 336.832 281.426 334.847 281.708C334.471 281.766 334.095 281.813 333.731 281.86C334.671 281.731 334.729 281.719 333.919 281.825C333.262 281.895 332.604 281.989 331.946 282.06C330.537 282.213 329.128 282.33 327.719 282.412C326.403 282.483 325.088 282.518 323.773 282.483C322.563 282.459 321.001 282.577 319.851 282.236C321.577 282.753 319.651 282.189 319.216 282.119C318.688 282.025 318.171 281.907 317.655 281.79C316.656 281.543 315.658 281.25 314.683 280.897C314.402 280.792 314.132 280.698 313.85 280.58C314.848 281.015 315.001 281.073 314.308 280.768C313.908 280.58 313.509 280.392 313.11 280.193C312.135 279.688 311.196 279.124 310.291 278.49C308.859 277.48 311.172 279.335 310.162 278.384C309.74 277.985 309.293 277.621 308.882 277.198C308.577 276.893 308.295 276.552 308.002 276.247C307.532 275.671 307.626 275.812 308.283 276.658C308.107 276.423 307.943 276.188 307.778 275.953C307.532 275.589 307.309 275.213 307.086 274.838C306.921 274.556 306.768 274.262 306.616 273.969C306.287 273.264 306.322 273.382 306.721 274.321C306.158 273.487 305.923 272.031 305.7 271.08C305.571 270.528 305.488 269.964 305.371 269.4C305.289 268.86 305.312 269.083 305.453 270.058C305.418 269.729 305.383 269.4 305.348 269.072C305.242 267.909 305.195 266.758 305.183 265.596C305.16 263.094 305.336 260.593 305.512 258.103C305.782 254.416 302.083 250.893 298.466 251.057C294.426 251.233 291.702 254.158 291.42 258.103L291.443 258.092Z" fill="#FA4008"/>
<path d="M212.775 240.712C204.449 235.603 193.328 230.565 185.659 236.613C178.684 242.109 180.187 253.935 186.575 260.088C192.964 266.242 202.358 267.991 211.213 268.614" fill="#FAF1E7"/>
<path d="M216.332 234.629C210.131 230.836 203.426 227.677 196.121 226.925C188.817 226.173 181.29 229.426 177.121 235.721C173.551 241.111 173.234 248.58 175.23 254.604C177.438 261.251 182.006 266.524 188.124 269.906C195.194 273.816 203.261 275.085 211.212 275.66C214.899 275.93 218.422 272.231 218.258 268.614C218.082 264.574 215.158 261.85 211.212 261.568C209.908 261.474 208.593 261.357 207.301 261.216C206.996 261.18 206.432 260.993 206.15 261.075C206.28 261.04 207.9 261.345 206.644 261.133C205.88 261.004 205.117 260.887 204.354 260.734C203.708 260.605 196.803 258.656 196.838 258.585C196.908 258.479 198.247 259.231 197.272 258.761C196.932 258.597 196.591 258.444 196.251 258.268C195.71 257.998 195.182 257.716 194.665 257.411C194.078 257.07 193.514 256.706 192.951 256.319C192.704 256.154 192.469 255.943 192.223 255.79L192.939 256.33C192.704 256.143 192.469 255.943 192.246 255.743C191.835 255.379 191.424 254.992 191.048 254.592C190.872 254.405 190.719 254.217 190.543 254.029C189.792 253.242 190.884 254.475 190.931 254.569C190.391 253.571 189.651 252.69 189.134 251.657C189.028 251.457 188.935 251.163 188.805 250.964C189.721 252.361 189.228 252.056 189.017 251.41C188.852 250.928 188.688 250.447 188.547 249.954C188.394 249.402 188.289 248.85 188.159 248.286C188.03 247.723 188.195 247.171 188.242 249.038C188.242 248.662 188.159 248.286 188.136 247.922C188.077 246.924 188.195 245.961 188.218 244.975C188.148 247.194 188.148 245.644 188.336 244.892C188.476 244.376 188.711 243.882 188.841 243.366C188.418 245.08 188.312 244.493 188.653 243.918C188.77 243.718 188.876 243.495 189.005 243.295C189.134 243.096 189.275 242.896 189.393 242.696C189.815 241.921 188.159 244.07 189.052 243.131C189.393 242.779 189.733 242.438 190.074 242.086C190.449 241.698 190.896 241.733 189.569 242.438C189.944 242.238 190.297 241.933 190.661 241.722C190.907 241.581 191.166 241.452 191.412 241.311C191.976 241.005 192.199 241.287 190.896 241.522C191.424 241.428 191.964 241.158 192.493 241.041C192.634 241.005 193.162 240.97 193.315 240.876C192.434 241.416 191.87 241.029 192.904 240.958C193.538 240.911 194.184 240.911 194.818 240.935C195.182 240.947 195.534 240.994 195.898 241.017C196.791 241.076 194.278 240.723 195.558 240.97C196.298 241.111 197.037 241.264 197.766 241.452C199.269 241.851 200.69 242.52 202.169 242.955C202.005 242.908 200.678 242.285 201.794 242.814C202.228 243.013 202.663 243.213 203.085 243.413C203.802 243.753 204.506 244.117 205.199 244.493C206.561 245.221 207.9 245.996 209.215 246.807C212.363 248.732 217.107 247.593 218.857 244.282C220.607 240.97 219.69 236.695 216.332 234.64V234.629Z" fill="#FA4008"/>
</svg>
